<svg width="25" height="25" viewBox="0 0 25 25" fill="none" xmlns="http://www.w3.org/2000/svg">
<g clip-path="url(#clip0)">
<path d="M24.3443 3.33424C23.9072 2.89706 23.3817 2.67859 22.7679 2.67859H2.23219C1.61837 2.67859 1.09279 2.89706 0.655654 3.33424C0.21847 3.77133 0 4.29686 0 4.91079V20.0895C0 20.7035 0.21847 21.2286 0.655654 21.6657C1.09274 22.1032 1.61832 22.3216 2.23219 22.3216H22.768C23.3817 22.3216 23.9072 22.1032 24.3444 21.6657C24.7816 21.2286 25 20.7032 25 20.0895V4.91079C25 4.29686 24.7816 3.77133 24.3443 3.33424ZM23.2141 20.0892C23.2141 20.2101 23.17 20.3147 23.0815 20.4031C22.993 20.4915 22.8885 20.5353 22.7678 20.5353H2.23205C2.11116 20.5353 2.00649 20.4915 1.9182 20.4031C1.8298 20.3147 1.78568 20.2101 1.78568 20.0892V9.37494C2.08326 9.70975 2.40415 10.0167 2.74829 10.2957C5.24093 12.2116 7.22192 13.7833 8.69145 15.011C9.16577 15.411 9.55179 15.7225 9.84937 15.9458C10.147 16.1692 10.5492 16.3946 11.056 16.6224C11.5629 16.8505 12.0396 16.964 12.486 16.964H12.5H12.5139C12.9602 16.964 13.4371 16.8505 13.9438 16.6224C14.4508 16.3946 14.8533 16.1692 15.1508 15.9458C15.4483 15.7225 15.8344 15.411 16.3088 15.011C17.7783 13.7833 19.759 12.2116 22.2518 10.2957C22.5959 10.0168 22.917 9.70975 23.2141 9.37494V20.0892V20.0892ZM23.2141 5.2734V5.42684C23.2141 5.97553 22.9981 6.58711 22.5656 7.26133C22.1331 7.93555 21.6656 8.47276 21.1637 8.87257C19.3684 10.2865 17.5039 11.7605 15.569 13.295C15.5133 13.3415 15.3504 13.4786 15.0806 13.7064C14.8111 13.9345 14.5971 14.1091 14.4389 14.2298C14.2806 14.3509 14.0739 14.4973 13.8182 14.6692C13.5624 14.8411 13.3276 14.9693 13.1137 15.0529C12.8998 15.1363 12.6998 15.1781 12.5139 15.1781H12.5H12.486C12.3 15.1781 12.1002 15.1363 11.8862 15.0529C11.6723 14.9693 11.4374 14.8411 11.1817 14.6692C10.9261 14.4973 10.7191 14.3508 10.561 14.2298C10.403 14.1091 10.189 13.9345 9.91934 13.7064C9.64962 13.4786 9.4867 13.3415 9.43095 13.295C7.49648 11.7604 5.63179 10.2865 3.83668 8.87257C2.46943 7.79385 1.78592 6.47306 1.78592 4.91054C1.78592 4.78975 1.83005 4.68503 1.91844 4.59679C2.00683 4.50839 2.1114 4.46417 2.23229 4.46417H22.7681C22.8423 4.50595 22.9075 4.51758 22.9634 4.49911C23.0192 4.4803 23.061 4.51528 23.0888 4.60358C23.1167 4.69197 23.1423 4.73375 23.1655 4.72916C23.1888 4.72447 23.2028 4.78257 23.2075 4.90365C23.2118 5.02449 23.2141 5.08533 23.2141 5.08533V5.2734H23.2141Z" fill="#2F373D"/>
</g>
<defs>
<clipPath id="clip0">
<rect width="25" height="25" fill="white"/>
</clipPath>
</defs>
</svg>
