<svg width="720" height="761" viewBox="0 0 720 761" fill="none" xmlns="http://www.w3.org/2000/svg">
<g clip-path="url(#clip0)">
<path d="M1066.21 -60.7001H-652.865V812.707H1066.21V-60.7001Z" fill="white"/>
<path d="M799.492 -9H-307.398V761.092H799.492V-9Z" fill="white"/>
<path d="M345.904 752.442C183.327 759.941 129.16 654.51 122.4 600.856V590.309L264.777 452.006H431.898L683.394 600.856L766.551 689.542C694.071 707.384 508.481 744.941 345.904 752.442Z" fill="#BCF5F7"/>
<path d="M509.841 713.957C682.099 713.957 821.742 659.834 821.742 593.071C821.742 526.307 682.099 472.184 509.841 472.184C337.58 472.184 197.934 526.307 197.934 593.071C197.934 659.834 337.58 713.957 509.841 713.957Z" fill="#00C3C3"/>
<ellipse cx="297.037" cy="13.5" rx="286.037" ry="181.5" fill="#ABF4F4"/>
<path d="M720.021 -0.720093V659.632H142.374C63.1935 484.387 164.857 417.534 261.981 384.963C279.982 378.92 297.831 374.052 314.352 369.899C406.444 346.722 394.254 325.953 359.449 315.969C290.445 296.181 261.943 271.722 298.04 258.12C306.641 254.874 318.908 252.253 335.162 250.453C448.256 237.92 478.847 232.625 468.156 215.689C466.181 212.57 459.136 210.555 448.295 209.146H448.256C422.033 205.759 373.67 205.956 321.319 202.889C294.071 201.302 265.76 198.842 238.929 194.528C210.79 190.017 184.263 183.474 162.312 173.795C23.3744 112.592 88.4093 -0.720093 88.4093 -0.720093H720.021Z" fill="#BCF5F7"/>
<path d="M451.257 101.29L321.319 202.889C294.071 201.302 265.76 198.842 238.929 194.528C210.79 190.017 184.263 183.474 162.312 173.795C23.3744 112.592 88.4093 -0.720032 88.4093 -0.720032H117.12C110.322 31.0844 109.182 78.345 154.812 96.5475C226.302 125.072 252.088 75.1541 321.472 72.7654C390.873 70.3943 451.257 101.29 451.257 101.29Z" fill="#ABF4F4"/>
<ellipse cx="177.644" cy="19.5" rx="115.688" ry="90.5" fill="#BCF5F7"/>
<path d="M720.021 -0.720093V216.687L298.04 258.12C306.641 254.874 318.908 252.253 335.162 250.453C448.256 237.92 478.846 232.625 468.156 215.689C466.182 212.57 459.136 210.555 448.295 209.146H448.256C408.4 203.994 317.37 207.115 238.929 194.528C210.79 190.017 184.262 183.474 162.312 173.795C162.312 173.795 227.518 173.795 257.291 161.904C287.064 150.031 340.441 120.311 393.512 120.311C446.566 120.311 428.831 77.5254 466.808 69.1998C504.803 60.8921 517.545 83.4619 542.191 84.6562C566.819 85.8504 587.079 -0.720093 633.924 -0.720093H720.021Z" fill="#EEFFFF"/>
<path d="M720.021 30.4427V574.898C701.044 571.492 657.317 563.684 606.295 554.414C495.062 534.25 349.1 507.295 349.1 504.746C349.1 503.944 344.543 497.223 337.194 486.937C323.199 467.344 299.103 434.773 277.248 405.446C271.97 398.351 266.823 391.452 261.981 384.963C263.5 384.446 265.02 383.946 266.54 383.465C282.982 378.099 299.236 373.696 314.351 369.899C406.445 346.721 394.254 325.953 359.448 315.969C274 291.456 250.664 259.812 335.162 250.453C448.256 237.92 478.846 232.625 468.156 215.689C466.181 212.57 459.136 210.555 448.295 209.147H448.256C420.154 205.509 366.607 205.992 309.965 202.176C286.287 200.589 262.058 198.237 238.929 194.528C260.804 182.993 295.761 165.505 321.471 157.162C361.746 144.076 414.381 152.401 437.434 146.465C460.484 140.511 489.77 104.861 532.659 81.0908C559.039 66.4706 626.328 66.1515 641.519 63.513C655.608 61.0884 678.416 34.3113 720.021 30.4427Z" fill="#32BE8E"/>
<path d="M293.711 172.457C293.711 172.457 297.509 104.712 305.103 94.4614C312.698 84.211 325.992 168.891 325.992 168.891" fill="#32BE8E"/>
<path d="M360.17 156.858C360.17 156.858 362.637 112.815 367.576 106.151C372.513 99.4857 381.155 154.54 381.155 154.54" fill="#32BE8E"/>
<path d="M457.916 140.368C457.916 140.368 460.382 96.3249 465.322 89.6603C470.26 82.9949 478.901 138.05 478.901 138.05" fill="#32BE8E"/>
<path d="M541.173 77.2673C541.173 77.2673 543.642 33.2242 548.581 26.5602C553.517 19.8945 562.159 74.9496 562.159 74.9496" fill="#96E882"/>
<path d="M433.968 170.417C433.968 170.417 436.437 126.373 441.376 119.71C446.312 113.044 454.954 168.099 454.954 168.099" fill="#96E882"/>
<path d="M332.399 191.635C332.399 191.635 335.667 133.355 342.201 124.535C348.735 115.716 360.17 188.566 360.17 188.566" fill="#96E882"/>
<path d="M618.241 68.1658C618.241 68.1658 619.63 43.3694 622.411 39.6186C625.19 35.8658 630.055 66.8608 630.055 66.8608" fill="#32BE8E"/>
<path d="M684.381 42.0187C684.381 42.0187 685.771 17.2222 688.552 13.4714C691.333 9.71867 696.194 40.7136 696.194 40.7136" fill="#32BE8E"/>
<path d="M414.262 94.4613C410.022 100.184 405.746 133.16 405.146 142.456C405.06 143.772 406.176 144.869 407.578 144.869H414.262V150.135H417.783V144.869H424.971C426.15 144.869 427.055 143.895 426.882 142.802C425.276 132.587 418.635 88.5586 414.262 94.4613Z" fill="#32BE8E"/>
<path d="M573.103 35.2768C570.656 38.5802 568.187 57.6166 567.84 62.9845C567.792 63.7439 568.435 64.3769 569.245 64.3769H573.103V67.4182H575.136V64.3769H579.286C579.965 64.3769 580.488 63.8153 580.389 63.1823C579.462 57.2868 575.628 31.8699 573.103 35.2768Z" fill="#96E882"/>
<path d="M674.216 35.2768C671.768 38.5802 669.301 57.6166 668.953 62.9845C668.905 63.7439 669.549 64.3769 670.358 64.3769H674.216V67.4182H676.251V64.3769H680.401C681.08 64.3769 681.6 63.8153 681.504 63.1823C680.57 57.2868 676.739 31.8699 674.216 35.2768Z" fill="#96E882"/>
<path d="M640.281 10.1016C636.04 15.8243 631.764 48.8 631.164 58.0971C631.079 59.411 632.193 60.5075 633.597 60.5075H640.281V65.7754H643.802V60.5075H650.99C652.168 60.5075 653.074 59.5358 652.901 58.4412C651.295 48.2278 644.654 4.19896 640.281 10.1016Z" fill="#32BE8E"/>
<path d="M720.021 39.303V582.937L606.295 554.414L531.235 535.588L337.195 486.937L314.807 481.321C314.807 481.321 295.381 442.474 277.248 405.447C273.565 397.941 269.937 390.49 266.54 383.465C282.982 378.099 299.236 373.695 314.351 369.899C406.445 346.722 394.254 325.953 359.448 315.969C274 291.456 250.664 259.812 335.162 250.453C367.29 246.888 392.754 243.928 412.501 241.094H412.521C462.308 233.98 475.808 227.812 468.156 215.689C466.181 212.57 459.136 210.555 448.295 209.146H448.256C426.211 206.295 388.482 205.974 345.891 204.137C334.212 203.62 322.155 202.996 309.965 202.176C322.858 192.532 348.929 175.559 380.107 169.338C424.729 160.424 444.041 171.032 469.371 163.901C494.681 156.768 501.937 88.8104 544.963 68.6115C566.269 58.6102 625.474 73.9597 646.627 71.2857C667.78 68.6115 720.021 39.303 720.021 39.303Z" fill="#AEF6C9"/>
<path d="M720.021 140.368V347.049L378.208 303.763C378.208 303.763 411.591 241.219 412.501 241.094H412.52C462.308 233.98 475.808 227.812 468.156 215.689C466.181 212.57 459.136 210.555 448.294 209.147C448.294 209.147 468.05 196.078 489.607 190.433C508.506 185.484 547.194 191.471 561.208 195.411C575.203 199.351 593.547 151.693 630.05 133.022C675.232 109.913 720.021 140.368 720.021 140.368Z" fill="#96E882"/>
<path d="M720.021 277.052V498.114L718.758 498.06L718.153 498.026L612.542 493.443L452.263 486.472L382.956 321.14L364.917 288.854L344.505 263.966L469.978 229.649C469.978 229.649 480.613 216.242 481.904 223.997C486.214 250.008 445.312 257.46 421.255 260.561C393.514 264.128 402.267 275.268 417.001 278.532C453.212 286.554 480.404 279.602 506.36 281.936C532.298 284.272 557.344 303.758 619.89 303.758C643.152 303.758 676.803 281.385 720.021 277.052Z" fill="#008C97"/>
<path d="M720.021 39.303V49.2988C720.021 49.2988 667.583 86.1684 650.215 82.4278C583.995 68.1658 601.874 95.0554 575.962 99.3195C543.458 104.668 511.752 161.722 497.358 178.943C482.965 196.183 454.16 187.269 418.235 190.245C395.885 192.081 362.315 192.532 345.891 204.137C334.213 203.62 322.155 202.996 309.965 202.175C322.858 192.532 348.929 175.559 380.107 169.338C424.729 160.424 444.041 171.032 469.371 163.9C494.681 156.768 501.937 88.8104 544.963 68.6115C566.269 58.6102 625.474 73.9598 646.627 71.2857C667.78 68.6115 720.021 39.303 720.021 39.303Z" fill="#96E882"/>
<path d="M720.021 444.828V495.957C719.352 497.151 718.875 497.864 718.758 498.06C718.747 498.096 718.726 498.114 718.726 498.114L718.153 498.026L603.581 481.766C603.581 481.766 595.947 460.873 613.189 453.492C629.481 446.52 639.259 465.33 640.322 467.433C639.431 465.205 628.882 444.916 641.434 439.871C650.528 436.216 657.507 446.592 659.254 453.492C657.298 441.672 656.14 423.558 668.729 420.706C684.391 417.158 688.594 436.074 688.594 436.074C688.594 436.074 692.67 419.637 703.835 423.149C714.757 426.589 704.451 447.147 704.09 447.788C704.589 447.646 713.717 440.781 720.021 444.828Z" fill="#96E882"/>
<path d="M624.509 493.342C624.509 493.342 613.993 476.79 624.509 472.815C635.024 468.841 640.721 481.766 640.721 481.766C640.721 481.766 635.904 468.53 646.621 465.454C657.336 462.379 658.998 479.399 658.998 479.399C658.998 479.399 653.538 455.525 666.355 453.493C679.169 451.46 680.358 468.172 680.358 468.172C680.358 468.172 679.934 444.113 689.38 444.113C701.957 444.113 695.79 469.385 695.79 469.385C695.79 469.385 706.966 456.581 712.878 471.026C718.779 485.474 710.501 499.737 710.501 499.737" fill="#86DB6E"/>
<path d="M543.395 201.403C543.395 201.403 545.863 157.36 550.801 150.696C555.738 144.03 564.379 199.085 564.379 199.085" fill="#96E882"/>
<path d="M652.922 144.782C652.922 144.782 655.391 100.739 660.329 94.0756C665.267 87.4102 673.908 142.465 673.908 142.465" fill="#96E882"/>
<path d="M685.198 166.001C685.198 166.001 687.671 121.958 692.606 115.294C697.552 108.628 706.192 163.684 706.192 163.684" fill="#96E882"/>
<path d="M520.74 194.385C520.74 194.385 522.107 170.002 524.841 166.312C527.576 162.621 532.36 193.103 532.36 193.103" fill="#96E882"/>
<path d="M593.713 170.417C593.713 170.417 597.7 99.2932 605.674 88.5307C613.648 77.7705 627.603 166.674 627.603 166.674" fill="#96E882"/>
<path d="M720.021 486.473V659.632H235.986L199.737 578.981C192.484 562.846 187.778 545.858 184.528 528.599C160.793 402.581 281.16 378.9 283.987 378.099C285.355 377.689 308.977 371.252 314.351 369.899C406.445 346.722 394.252 325.953 359.448 315.969C274.001 291.456 250.664 259.812 335.162 250.453C448.256 237.92 478.846 232.625 468.156 215.689C466.182 212.57 459.136 210.555 448.294 209.146C450.023 209.164 493.202 210.449 479.169 233.552C466.446 254.446 341.904 260.865 370.935 279.565C385.329 288.854 546.046 301.992 548.419 344.333C550.792 386.675 494.664 417.23 533.209 448.019C595.947 498.114 720.021 486.473 720.021 486.473Z" fill="#00C3C3"/>
<path opacity="0.300003" d="M712 486.875V661H228.496L192.288 579.899C185.042 563.674 180.342 546.591 177.094 529.236C153.385 402.514 273.619 378.701 276.447 377.896C277.811 377.484 301.407 371.011 306.775 369.65C398.768 346.344 386.591 325.459 351.823 315.419C266.469 290.769 243.158 258.949 327.563 249.538C440.534 236.935 471.09 231.61 460.412 214.58C458.44 211.443 451.402 209.417 440.572 208C442.298 208.018 485.431 209.31 471.414 232.542C458.705 253.553 334.297 260.008 363.298 278.812C377.676 288.153 538.217 301.364 540.588 343.941C542.958 386.52 486.891 417.245 525.396 448.206C588.064 498.581 712 486.875 712 486.875Z" fill="#00C3C3"/>
<path d="M670.945 291.509C670.945 291.509 657.603 287.718 660.5 281.387C663.389 275.077 673.475 284.92 673.475 284.92C673.475 284.92 664.338 271.958 669.915 268.281C675.497 264.603 680.241 281.875 680.241 281.875C680.241 281.875 677.885 268.388 684.986 268.998C692.224 269.619 686.174 281.54 686.174 281.54C686.174 281.54 690.802 275.074 694.241 277.418C698.921 280.602 690.802 288.854 690.802 288.854" fill="#008C97"/>
<path d="M457.937 284.683C457.937 284.683 449.686 281.146 452.141 277.302C454.588 273.469 460.181 280.64 460.181 280.64C460.181 280.64 455.488 271.534 459.428 269.62C463.365 267.705 464.824 279.229 464.824 279.229C464.824 279.229 464.554 270.342 469.078 271.315C473.689 272.307 468.682 279.497 468.682 279.497C468.682 279.497 472.268 275.708 474.268 277.5C476.987 279.937 470.988 284.593 470.988 284.593" fill="#008C97"/>
<g opacity="0.320007">
<g opacity="0.320007">
<g opacity="0.320007">
<g opacity="0.320007">
<g opacity="0.320007">
<g opacity="0.320007">
<path opacity="0.320007" d="M390.551 504.388C364.8 485.348 344.252 490.074 360.594 525.194C373.336 552.579 435.521 628.635 488.053 659.632H720.021C720.021 659.632 542.184 616.512 390.551 504.388Z" fill="url(#paint0_linear)"/>
</g>
</g>
</g>
</g>
</g>
</g>
<g opacity="0.199997">
<g opacity="0.199997">
<g opacity="0.199997">
<g opacity="0.199997">
<g opacity="0.199997">
<g opacity="0.199997">
<path opacity="0.199997" d="M720.021 486.472V615.769C636.46 596.907 580.382 536.961 570.254 512.578C557.849 482.715 449.376 423.808 453.687 392.183C457.997 360.557 509.855 381.469 511.544 352.82C513.235 324.188 406.216 334.457 402.93 319.535C399.646 304.614 415.462 310.853 413.812 296.519C412.159 282.186 349.004 288.104 346.289 276.303C343.554 264.501 355.422 262.487 373.936 261.15C392.449 259.812 413.536 247.228 433.976 246.138C474.098 244 481.58 225.066 481.733 223.053C482.378 225.923 481.695 229.38 479.17 233.553C466.447 254.446 341.904 260.865 370.935 279.566C385.329 288.854 546.046 301.992 548.419 344.334C550.792 386.675 494.662 417.23 533.209 448.019C595.947 498.114 720.021 486.472 720.021 486.472Z" fill="url(#paint1_linear)"/>
</g>
</g>
</g>
</g>
</g>
</g>
<path d="M495.556 352.516C489.63 354.458 483.688 361.251 487.485 382.787C490.714 401.078 511.999 453.348 514.184 458.715C514.317 459 514.374 459.161 514.374 459.161L514.981 458.893L515.911 458.484L522.139 455.738C522.139 455.738 520.469 438.071 520.866 417.194C521.114 404.501 518.115 394.41 515.702 388.421C522.254 393.127 551.667 408.031 551.667 408.031L549.73 363.213C549.73 363.213 542.438 360.432 534.064 357.846L534.843 356.955C534.843 356.955 533.153 356.581 530.476 356.046C523.338 354.607 509.07 351.957 500.612 351.957C498.497 351.957 496.744 352.124 495.556 352.516Z" fill="url(#paint2_linear)"/>
<ellipse cx="492" cy="655" rx="226" ry="33" fill="#00C3C3"/>
<g opacity="0.369995">
<g opacity="0.369995">
<g opacity="0.369995">
<g opacity="0.369995">
<g opacity="0.369995">
<g opacity="0.369995">
<path opacity="0.369995" d="M490.96 374.622C491.98 394.263 513.48 450.96 515.911 458.484C516.045 458.929 516.12 459.161 516.12 459.161L514.981 458.893L514.184 458.715C511.999 453.349 490.714 401.078 487.485 382.787C483.688 361.251 489.63 354.46 495.556 352.516C501.481 350.555 521.551 354.245 530.476 356.046C529.184 358.595 527.855 360.877 527.855 360.877C527.855 360.877 505.525 354.637 499.354 357.311C493.202 359.986 490.486 365.474 490.96 374.622Z" fill="url(#paint3_linear)"/>
</g>
</g>
</g>
</g>
</g>
</g>
<path d="M515.361 392.428C515.361 392.428 520.201 362.205 528.032 355.061L595.047 366.395L542.614 398.804L515.361 392.428Z" fill="#17193A"/>
<path d="M418.559 542.202C417.838 542.327 417.115 542.433 416.394 542.487H416.299C415.957 542.541 415.634 542.558 415.293 542.576H415.103C414.552 542.611 414.002 542.63 413.451 542.63H413.298C413.089 542.63 412.899 542.63 412.691 542.611C401.829 542.184 391.139 535.267 382.386 522.948C372.53 509.061 366.417 490.164 365.144 469.715C363.892 449.249 367.651 429.817 375.739 414.965C383.487 400.722 394.254 392.539 406.007 391.897C406.231 391.881 406.456 391.887 406.68 391.881C406.993 391.875 407.306 391.866 407.62 391.867C408.275 391.871 408.928 391.891 409.584 391.942C409.588 391.942 409.596 391.942 409.604 391.943C420.134 392.752 430.422 399.594 438.895 411.526C443.833 418.46 447.819 426.661 450.743 435.682C453.668 444.703 455.51 454.544 456.136 464.777C458.586 504.425 442.009 538.03 418.673 542.184C418.635 542.202 418.597 542.202 418.559 542.202ZM463.731 464.348C462.384 442.652 455.814 422.489 445.218 407.568C434.224 392.076 420.078 383.981 405.57 384.784C391.007 385.569 378.019 395.124 368.98 411.721C360.283 427.676 356.238 448.429 357.568 470.125C358.897 491.821 365.487 511.984 376.082 526.905C386.583 541.703 399.913 549.76 413.774 549.76C414.419 549.76 415.084 549.743 415.729 549.707C444.991 548.12 466.523 509.827 463.731 464.348Z" fill="#BCF5F7"/>
<path d="M406.68 391.881C406.993 391.873 407.306 391.866 407.62 391.867C407.575 391.867 407.532 391.862 407.489 391.862C407.219 391.862 406.95 391.876 406.68 391.881ZM409.604 391.943C409.596 391.943 409.588 391.943 409.584 391.941C409.588 391.943 409.596 391.943 409.604 391.943ZM371.449 416.518C363.323 431.1 359.544 450.051 360.778 469.874C362.031 489.7 368.164 508.115 378.076 521.754C387.741 535.053 399.95 542.397 412.691 542.611C401.829 542.184 391.139 535.266 382.386 522.948C372.53 509.06 366.417 490.163 365.144 469.715C363.892 449.249 367.651 429.817 375.741 414.966C383.487 400.721 394.254 392.539 406.008 391.897C406.231 391.881 406.456 391.887 406.68 391.881C406.328 391.888 405.978 391.879 405.627 391.897C392.013 392.628 379.879 401.364 371.449 416.518ZM459.954 464.616C458.7 444.792 452.568 426.358 442.656 412.737C433.39 399.971 421.745 392.724 409.604 391.943C420.132 392.755 430.422 399.594 438.896 411.526C443.833 418.46 447.819 426.661 450.743 435.682C453.668 444.703 455.51 454.544 456.137 464.777C458.587 504.425 442.009 538.03 418.673 542.184C444.173 538.03 462.442 504.318 459.954 464.616ZM407.62 391.867C408.275 391.871 408.928 391.891 409.584 391.941C408.928 391.9 408.275 391.871 407.62 391.867Z" fill="#94D3D3"/>
<path d="M594.637 628.577C563.287 630.288 535.639 595.257 532.887 550.528C530.133 505.797 553.357 468.021 584.649 466.328C585.37 466.274 586.093 466.256 586.833 466.256C600.942 466.256 614.688 473.708 625.74 487.4C637.721 502.215 645.051 522.448 646.399 544.36C649.153 589.107 625.93 626.883 594.637 628.577ZM653.995 543.949C652.55 520.631 644.672 499.024 631.797 483.085C626.613 476.685 620.879 471.497 614.765 467.593C614.746 467.576 614.727 467.575 614.709 467.558C605.213 461.531 594.808 458.626 584.213 459.197C548.723 461.122 522.311 502.286 525.311 550.938C527.533 586.914 545.211 617.078 568.623 629.557C576.105 633.568 584.174 635.761 592.491 635.761C593.346 635.761 594.219 635.743 595.075 635.69C630.562 633.765 656.976 592.619 653.995 543.949Z" fill="#94D3D3"/>
<path d="M594.637 628.577C563.287 630.288 535.639 595.257 532.887 550.528C530.133 505.798 553.357 468.021 584.649 466.328C585.37 466.274 586.092 466.256 586.832 466.256C600.941 466.256 614.688 473.708 625.739 487.4C637.721 502.215 645.05 522.448 646.399 544.359C649.152 589.106 625.93 626.883 594.637 628.577ZM653.994 543.949C652.55 520.63 644.67 499.023 631.797 483.086C626.613 476.685 620.879 471.497 614.765 467.594C614.746 467.576 614.727 467.576 614.708 467.558C606.314 463.119 597.333 461.033 588.199 461.514C552.711 463.44 526.297 504.604 529.28 553.255C531.367 587.164 547.204 615.919 568.623 629.557C576.105 633.568 584.173 635.761 592.491 635.761C593.346 635.761 594.219 635.743 595.074 635.69C630.562 633.765 656.975 592.619 653.994 543.949Z" fill="#BCF5F7"/>
<path d="M517.306 454.344C517.306 454.344 520.137 452.831 522.177 453.84C524.219 454.846 523.481 456.615 524.716 458.024C525.952 459.436 527.348 462.36 523.75 464.83C520.153 467.301 513.115 471.77 511.615 472.603C506.224 475.6 500.182 472.579 501.09 470.309C502.136 467.699 509.132 461.022 511.4 459.588C513.612 458.188 514.762 455.503 517.306 454.344Z" fill="#4F2411"/>
<path d="M502.936 492.473L585.66 541.901L562.359 422.886L437.437 353.677L502.936 492.473ZM593.627 552.996L498.426 496.118L498.076 495.378L425.033 340.598L567.492 419.518L593.627 552.996Z" fill="#BCF5F7"/>
<path d="M568.499 426.194L508.619 499.737L504.101 496.491L506.094 494.049L562.528 424.736L565.54 426.026L568.499 426.194Z" fill="#96EAEA"/>
<path d="M565.54 426.027L508.62 495.869L506.094 494.05L562.529 424.737L565.54 426.027Z" fill="#BCF5F7"/>
<path d="M603.382 546.703C604.035 557.315 598.415 566.253 590.827 566.665C583.238 567.077 576.559 558.806 575.906 548.194C575.252 537.583 580.873 528.646 588.46 528.233C596.048 527.822 602.729 536.09 603.382 546.703Z" fill="#BCF5F7"/>
<path d="M424.355 468.398C423.341 478.985 416.381 487.049 408.812 486.41C401.242 485.771 395.929 476.671 396.944 466.084C397.957 455.496 404.915 447.432 412.484 448.07C420.054 448.709 425.369 457.809 424.355 468.398Z" fill="#BCF5F7"/>
<path d="M419.56 467.992C418.901 474.875 414.377 480.12 409.454 479.704C404.533 479.288 401.077 473.371 401.738 466.488C402.397 459.605 406.922 454.36 411.843 454.776C416.763 455.193 420.218 461.11 419.56 467.992Z" fill="#94D3D3"/>
<path d="M521.999 497.06C522.919 512.007 515.002 524.593 504.315 525.174C493.628 525.753 484.218 514.107 483.299 499.161C482.378 484.215 490.295 471.628 500.982 471.048C511.667 470.469 521.076 482.113 521.999 497.06Z" fill="#BCF5F7"/>
<path d="M491.672 544.021C491.522 544.021 491.368 544.005 491.216 543.969C490.199 543.734 489.576 542.767 489.827 541.812L509.527 466.811C509.777 465.854 510.81 465.267 511.825 465.507C512.841 465.743 513.468 466.71 513.214 467.665L493.514 542.664C493.299 543.477 492.525 544.021 491.672 544.021Z" fill="#BCF5F7"/>
<path d="M457.485 345.403L413.337 468.093C412.938 469.216 411.836 469.911 410.641 469.911C410.337 469.911 410.033 469.875 409.729 469.769C409.501 469.697 409.311 469.608 409.122 469.483C408.038 468.859 407.527 467.576 407.945 466.381L452.092 343.691C452.415 342.8 453.193 342.159 454.104 341.962C454.598 341.819 455.167 341.837 455.7 342.016C457.199 342.479 457.997 343.994 457.485 345.403Z" fill="#96EAEA"/>
<path d="M455.282 345.065L411.134 467.754C410.811 468.646 410.033 469.286 409.122 469.483C408.038 468.859 407.527 467.575 407.945 466.381L452.092 343.691C452.415 342.8 453.194 342.159 454.105 341.962C455.186 342.604 455.7 343.888 455.282 345.065Z" fill="#BCF5F7"/>
<path d="M512.984 497.55C513.476 505.533 509.247 512.258 503.538 512.566C497.831 512.877 492.805 506.656 492.313 498.671C491.821 490.689 496.049 483.966 501.757 483.655C507.467 483.345 512.492 489.567 512.984 497.55Z" fill="#94D3D3"/>
<path d="M568.117 422.54L561.417 419.183L576.766 392.187L583.466 395.545L568.117 422.54Z" fill="#6A2F32"/>
<path d="M598.134 546.988C598.54 553.546 595.065 559.07 590.377 559.324C585.686 559.579 581.556 554.468 581.155 547.909C580.748 541.351 584.223 535.827 588.911 535.572C593.602 535.318 597.73 540.429 598.134 546.988Z" fill="#94D3D3"/>
<path d="M491.987 409.975C491.455 410.26 490.903 410.562 490.334 410.884C490.334 410.884 484.22 413.647 477.498 417.854C470.776 422.044 463.466 427.66 461.035 433.382C459.326 437.447 460.58 443.419 461.205 448.91C463.371 468.359 483.954 530.293 483.954 530.293C483.954 530.293 484.315 530.756 483.954 532.664C483.84 533.324 483.46 533.912 482.948 534.483C482.017 535.57 480.669 536.533 479.928 537.567C479.017 538.797 476.757 542.683 476.909 543.236C477.081 543.807 485.739 542.914 487.276 541.453C488.814 540.009 493.771 538.012 494.283 535.338C494.796 532.664 490.771 531.042 490.922 529.456C490.922 529.456 493.752 501.769 493.637 480.874C493.562 463.742 487.656 451.424 485.53 447.555C488.815 447.021 495.081 445.897 500.569 444.329C508.41 442.099 538.545 428.283 538.545 428.283L498.822 406.355C498.822 406.355 495.973 407.781 491.987 409.975Z" fill="url(#paint4_linear)"/>
<g opacity="0.369995">
<g opacity="0.369995">
<g opacity="0.369995">
<g opacity="0.369995">
<g opacity="0.369995">
<g opacity="0.369995">
<path opacity="0.369995" d="M475.371 489.931C479.473 505.691 486.289 534.946 486.289 534.946L482.948 534.483C483.46 533.912 483.84 533.324 483.954 532.664C484.315 530.756 483.954 530.293 483.954 530.293C483.954 530.293 463.371 468.36 461.205 448.91C460.58 443.419 459.326 437.447 461.035 433.382C463.466 427.659 470.776 422.044 477.498 417.854C484.22 413.647 490.334 410.884 490.334 410.884C490.903 410.562 491.454 410.26 491.987 409.974L492.929 416.325C492.929 416.325 467.009 428.845 466.03 436.528C464.448 448.945 471.251 474.189 475.371 489.931Z" fill="url(#paint5_linear)"/>
</g>
</g>
</g>
</g>
</g>
</g>
<path d="M564.784 426.364C554.417 423.278 544.961 415.327 544.961 415.327L552.841 414.382L573.785 411.869L587.058 417.948C587.058 417.948 590.533 418.982 591.539 420.48C591.577 420.515 591.614 420.569 591.634 420.605C595.45 427.094 571.146 428.252 564.784 426.364Z" fill="#FFC340"/>
<g opacity="0.600006">
<g opacity="0.600006">
<g opacity="0.600006">
<g opacity="0.600006">
<g opacity="0.600006">
<path opacity="0.600006" d="M591.539 420.48C585.255 422.798 572.267 422.851 567.785 421.764C562.488 420.498 556.772 417.057 552.841 414.383L573.785 411.87L587.059 417.949C587.059 417.949 590.533 418.983 591.539 420.48Z" fill="url(#paint6_linear)"/>
</g>
</g>
</g>
</g>
</g>
<path d="M544.981 378.714C532.335 384.06 488.054 411.728 488.054 411.728C491.038 426.025 503.814 444.113 503.814 444.113C503.814 444.113 547.602 431.642 570.254 419.412C574.812 419.056 581.995 419.709 586.287 418.231C596.597 414.665 602.401 406.808 603.427 400.997C606.389 384.364 597.844 372.168 597.844 372.168C579.806 376.628 544.981 378.714 544.981 378.714Z" fill="url(#paint7_linear)"/>
<path d="M525.14 329.09V329.108C514.866 327.112 495.822 326.737 481.828 326.774H481.656C478.599 326.774 477.993 326.291 476.872 325.597C475.942 325.008 469.828 321.8 466.446 322.156C464.851 322.334 463.523 322.583 462.461 322.903C459.65 323.724 458.529 325.062 458.415 326.791C458.263 329.161 458.51 332.388 461.434 334.279C464.358 336.168 470.909 333.833 470.435 333.083C472.049 333.583 475.486 334.582 477.554 335.169C490.846 339.145 510.823 344.351 523.791 344.351C526.678 344.351 529.222 344.101 531.254 343.513C550.262 338.075 577.13 303.062 577.13 303.062L548.039 288.854C548.039 288.854 532.945 313.385 525.14 329.09Z" fill="url(#paint8_linear)"/>
<g opacity="0.369995">
<g opacity="0.369995">
<g opacity="0.369995">
<g opacity="0.369995">
<g opacity="0.369995">
<g opacity="0.369995">
<path opacity="0.369995" d="M525.139 329.108C524.589 330.213 524.531 331.835 524.531 331.835C519.254 330.838 480.688 329.839 477.669 329.054C474.631 328.289 474.879 327.272 471.307 325.115C467.928 323.046 462.953 322.921 462.461 322.905C463.523 322.583 464.852 322.334 466.446 322.156C469.828 321.8 475.942 325.008 476.872 325.597C477.993 326.291 478.599 326.774 481.656 326.774H481.828C495.822 326.737 514.866 327.112 525.139 329.108Z" fill="url(#paint9_linear)"/>
</g>
</g>
</g>
</g>
</g>
</g>
<path d="M553.586 275.789L536.689 304.772C536.689 304.772 547.904 315.577 562.154 321.141C562.154 321.141 582.374 303.022 580.019 289.506C577.664 275.989 568.574 264.866 553.586 275.789Z" fill="#FFB63C"/>
<path d="M526.397 266.043C526.397 266.043 530.201 273.925 533.166 278.605C535.352 282.052 548.717 282.34 550.964 279.222C553.209 276.104 542.3 258.052 542.3 258.052" fill="#F1BA9B"/>
<path d="M570.392 419.402L570.254 419.412C591.825 413.619 586.716 388.356 586.375 387.09C589.341 392.486 588.923 397.351 588.867 401.735C588.745 410.96 580.183 418.606 570.392 419.402Z" fill="#1E2049"/>
<path d="M466.807 329.679C466.827 329.946 466.807 330.214 466.732 330.464C466.466 331.587 465.441 332.442 464.168 332.532L403.615 336.489H403.405C401.925 336.489 400.671 335.42 400.576 334.012C400.463 332.532 401.64 331.249 403.215 331.159L403.71 331.123L463.769 327.201C465.365 327.094 466.693 328.199 466.807 329.679Z" fill="#96EAEA"/>
<path d="M466.808 329.679C466.826 329.946 466.808 330.214 466.732 330.464L406.672 334.368C406.615 334.386 406.54 334.386 406.482 334.386C405.001 334.386 403.748 333.298 403.634 331.889C403.615 331.623 403.634 331.373 403.71 331.123L463.769 327.201C465.365 327.094 466.693 328.199 466.808 329.679Z" fill="#BCF5F7"/>
<path d="M464.301 338.86C454.029 335.847 436.845 334.938 422.83 333.708C420.211 333.494 417.781 332.46 415.805 330.855C414.951 330.177 409.254 326.345 405.874 326.345C405.058 326.345 404.317 326.362 403.634 326.434C399.418 326.738 397.709 328.039 397.329 330.071C396.893 332.442 396.778 335.027 399.456 337.22C402.134 339.413 408.894 338.415 408.514 337.63C419.622 342.318 443.833 351.802 459.687 353.729C463.257 354.174 466.409 354.21 468.897 353.746C482.398 351.196 501.081 334.885 511.316 325.08C515.875 320.711 518.74 317.645 518.74 317.645L491.246 300.869C491.246 300.869 473.682 323.921 464.301 338.86Z" fill="url(#paint10_linear)"/>
<g opacity="0.199997">
<g opacity="0.199997">
<g opacity="0.199997">
<g opacity="0.199997">
<g opacity="0.199997">
<path opacity="0.199997" d="M511.316 325.08C501.081 334.885 482.397 351.196 468.896 353.746C466.409 354.21 463.257 354.174 459.687 353.729C459.839 353.711 460.009 353.693 460.18 353.674C479.644 351.874 503.378 326.345 503.378 326.345L511.316 325.08Z" fill="url(#paint11_linear)"/>
</g>
</g>
</g>
</g>
</g>
<g opacity="0.369995">
<g opacity="0.369995">
<g opacity="0.369995">
<g opacity="0.369995">
<g opacity="0.369995">
<g opacity="0.369995">
<path opacity="0.369995" d="M464.301 338.86L463.105 341.302C453.611 338.254 433.597 337.292 422.356 335.134C411.115 332.976 415.046 331.907 410.488 329.448C408.228 328.235 405.836 327.237 403.634 326.434C404.317 326.362 405.058 326.345 405.874 326.345C409.253 326.345 414.951 330.177 415.805 330.855C417.781 332.46 420.211 333.494 422.83 333.708C436.844 334.938 454.029 335.847 464.301 338.86Z" fill="url(#paint12_linear)"/>
</g>
</g>
</g>
</g>
</g>
</g>
<path d="M598.777 370.932C598.663 371.734 597.846 372.162 597.846 372.162C592.833 375.157 586.301 376.976 579.561 378.045C579.502 378.045 579.427 378.063 579.351 378.081C578.63 378.188 577.889 378.295 577.167 378.383H577.13C561.236 380.47 544.982 378.705 544.982 378.705C544.982 378.705 542.495 378.812 541.698 377.296C541.204 376.333 542.305 374.141 542.229 372.697C541.887 367.046 543.691 358.756 542.609 355.386C540.084 347.488 527.932 328.448 524.096 322.547C523.336 321.371 522.501 320.266 521.57 319.214C520.981 318.536 520.355 317.86 519.727 317.164C513.67 325.132 505.564 331.372 505.564 331.372C495.499 326.309 487.164 318.376 483.48 314.579C482.189 313.224 481.466 312.403 481.466 312.403L501.271 285.11C501.271 285.092 501.29 285.092 501.309 285.074C503.133 282.436 507.955 279.904 514.146 277.64C514.184 277.622 514.202 277.604 514.24 277.586C529.165 272.203 551.969 268.441 560.383 269.066C561.615 269.153 562.794 269.314 563.914 269.529C572.553 271.151 579.826 276.534 584.213 283.701C601.91 312.796 599.878 352.872 598.454 366.992C598.283 368.722 598.891 370.058 598.777 370.932Z" fill="#FFC340"/>
<path d="M514.146 277.64C514.107 277.675 514.05 277.693 513.993 277.711C511.182 278.781 506.912 281.706 503.334 286.15C500.832 289.251 483.48 314.579 483.48 314.579C482.189 313.224 481.466 312.403 481.466 312.403L501.271 285.11C501.271 285.092 501.289 285.092 501.309 285.074C503.133 282.436 507.955 279.904 514.146 277.64Z" fill="#FFE5B6"/>
<path d="M504.867 237.984C504.867 237.984 507.635 255.004 506.29 261.837C504.943 268.67 512.714 274.013 526.147 269.829C526.147 269.829 539.714 264.886 545.01 257.541C552.032 247.799 556.687 227.258 538.332 218.811C523.462 211.966 501.864 222.598 504.867 237.984Z" fill="#F1BA9B"/>
<path d="M506.538 247.481C506.538 247.481 504.346 251.916 504.583 253.636C504.821 255.357 508.593 255.43 508.593 255.43" fill="#F1BA9B"/>
<path d="M549.421 226.444C546.163 219.307 540.422 216.117 534.516 215.002V215C534.516 215 534.442 214.985 534.317 214.963C532.883 214.702 531.443 214.565 530.024 214.52C523.358 214.228 510.534 215.299 500.368 225.998C500.368 225.998 497.4 233.841 512.248 237.94C513.015 239.473 513.672 241.267 514.135 243.379C516.665 254.969 522.81 264.844 526.635 266.964C530.459 269.084 544.11 266.116 546.167 264.926C548.222 263.739 556.541 242.043 549.421 226.444Z" fill="#252655"/>
<path d="M513.41 245.008C513.41 245.008 514.968 240.805 518.683 242.526C522.399 244.245 519.83 255.042 515.838 253.482" fill="#F1BA9B"/>
<path d="M507.877 237.302C507.877 237.302 510.397 252.075 516.138 255.228C523.476 259.26 533.207 241.619 533.207 241.619L530.712 241.184C530.712 241.184 523.621 254.866 517.76 254.004C512.735 253.263 509.709 236.457 509.709 236.457" fill="#354C43"/>
<path d="M518.579 254.998C518.579 254.998 516.34 270.081 524.021 270.427C524.021 270.427 523.539 271.307 521.387 271.307C519.065 271.307 514.786 267.42 516.519 254.292" fill="#354C43"/>
<path d="M553.375 244C553.375 244 527.171 243.803 510.994 238.455C510.935 238.437 510.917 238.42 510.917 238.42C508.202 237.529 505.791 236.477 503.816 235.264C501.651 233.927 500.114 232.447 499.068 230.897C493.447 222.589 501.632 212.32 501.632 212.32C506.626 207.63 515.532 201.73 536.685 209.414C536.855 209.485 537.026 209.539 537.196 209.628C537.292 209.664 537.349 209.681 537.386 209.681L537.405 209.699C539.703 210.59 541.679 211.714 543.386 212.98V212.998C557.306 223.301 553.375 244 553.375 244Z" fill="#FFC340"/>
<path d="M540.408 233.629C532.806 241.095 510.918 238.419 510.918 238.419C510.918 238.419 510.936 238.437 510.994 238.455C527.172 243.803 553.375 244 553.375 244C553.375 244 557.306 223.301 543.387 212.998C546.966 218.299 548.484 225.697 540.408 233.629Z" fill="url(#paint13_linear)"/>
<path d="M537.197 209.628C535.166 208.951 519.302 204.11 509.38 209.146C496.49 215.689 499.068 230.897 499.068 230.897C493.447 222.589 501.632 212.32 501.632 212.32C506.626 207.63 515.532 201.73 536.685 209.414C536.855 209.485 537.027 209.539 537.197 209.628Z" fill="#FFE5B6"/>
<path d="M402.913 335.117C402.836 335.865 402.057 336.328 401.318 336.614L396.551 336.917H396.342C394.861 336.917 393.608 335.847 393.512 334.439C393.474 333.869 393.608 333.334 393.911 332.889C394.367 332.157 395.184 331.64 396.152 331.586L397.5 331.498C399.361 331.372 401.184 332.121 402.267 333.511C402.57 333.886 402.78 334.242 402.875 334.581C402.93 334.778 402.949 334.956 402.913 335.117Z" fill="#96EAEA"/>
<path d="M402.913 335.116L397.5 335.455H397.235C395.601 335.455 394.196 334.368 393.911 332.889C394.367 332.157 395.184 331.64 396.152 331.586L397.5 331.498C399.361 331.372 401.185 332.121 402.267 333.511C402.57 333.886 402.78 334.242 402.875 334.581C402.93 334.777 402.951 334.956 402.913 335.116Z" fill="#BCF5F7"/>
<g opacity="0.309998">
<g opacity="0.309998">
<g opacity="0.309998">
<g opacity="0.309998">
<g opacity="0.309998">
<path opacity="0.309998" d="M577.128 378.389C561.235 380.475 544.98 378.71 544.98 378.71C544.98 378.71 542.494 378.817 541.696 377.302C541.202 376.339 542.304 374.147 542.227 372.702C541.886 367.052 543.69 358.761 542.607 355.391C540.082 347.494 527.929 328.454 524.094 322.554C523.334 321.377 522.499 320.271 521.569 319.22C520.979 318.542 520.354 317.864 519.725 317.17C519.725 317.17 523.96 312.071 525.821 309.254C525.821 309.254 541.753 333.321 547.773 347.137C553.773 360.953 548.874 372.988 549.975 375.216C550.999 377.248 568.925 379.103 577.128 378.389Z" fill="url(#paint14_linear)"/>
</g>
</g>
</g>
</g>
</g>
<path d="M486.404 528.852C486.404 528.852 489.235 527.338 491.273 528.348C493.316 529.355 492.579 531.121 493.813 532.531C495.05 533.943 496.445 536.867 492.847 539.338C489.25 541.809 482.213 546.279 480.713 547.111C475.32 550.107 469.28 547.086 470.187 544.816C471.232 542.206 478.23 535.53 480.496 534.095C482.709 532.695 483.859 530.01 486.404 528.852Z" fill="#4F2411"/>
<path d="M478.694 546.212C477.794 546.212 476.996 545.611 476.828 544.752C476.639 543.783 477.32 542.854 478.352 542.677L495.496 539.714C496.53 539.529 497.516 540.177 497.705 541.145C497.894 542.113 497.213 543.045 496.182 543.22L479.039 546.182C478.923 546.203 478.808 546.212 478.694 546.212Z" fill="#94D3D3"/>
<path d="M508.253 469.385C507.353 469.385 506.558 468.784 506.389 467.925C506.199 466.957 506.88 466.025 507.911 465.85L525.057 462.888C526.09 462.704 527.076 463.35 527.266 464.318C527.455 465.287 526.775 466.216 525.741 466.394L508.599 469.355C508.483 469.376 508.368 469.385 508.253 469.385Z" fill="#94D3D3"/>
<path d="M444.426 381.693L443.107 378.897L445.804 371.406L447.122 374.202L444.426 381.693Z" fill="#BCF5F7"/>
<path d="M451.67 361.563L449.731 360.489L451.595 355.313L453.531 356.385L451.67 361.563Z" fill="#BCF5F7"/>
<path d="M514.725 277.436C514.725 277.436 524.376 274.069 531.167 289.905L539.916 287.651C539.916 287.651 535.639 274.982 526.28 273.982C526.28 273.982 520.865 273.57 514.725 277.436Z" fill="#395248"/>
<path d="M610.185 373.237C610.185 375.715 608.344 377.854 605.647 378.478C599.819 379.815 588.69 381.955 574.583 382.703C565.316 383.202 558.366 381.758 554.987 369.636C550.429 353.323 537.897 326.261 529.314 300.821C526.523 292.567 520.636 274.454 544.01 269.016C544.029 269.016 544.029 268.998 544.051 268.998C544.752 268.839 545.492 268.678 546.271 268.553C546.29 268.535 546.309 268.535 546.309 268.535C546.707 268.463 547.125 268.392 547.544 268.321C550.145 267.911 552.764 267.43 555.347 267.02C558.005 266.592 560.626 266.183 563.189 265.807C569.95 264.827 579.538 263.74 585.196 266.432C592.071 269.729 594.54 277.556 596.76 284.687C604.716 310.109 610.128 350.917 610.185 373.237Z" fill="#354C43"/>
<path d="M568.258 265.044C565.695 265.418 563.074 265.827 560.416 266.253C537.921 272.128 540.498 284.759 545.89 297.863C557.179 325.299 566.576 350.455 571.562 366.66C576.286 382.012 581.979 381.6 591.228 381.1C598.692 380.709 605.422 379.171 610.717 377.713C613.413 377.091 615.254 374.95 615.254 372.471C615.198 350.152 609.786 309.345 601.83 283.922C599.608 276.792 597.139 268.966 590.265 265.667C587.609 264.403 584.088 263.971 580.399 263.971C576.23 263.974 571.846 264.523 568.258 265.044Z" fill="url(#paint15_linear)"/>
<path d="M574.269 331.843C574.269 331.843 567.189 332.65 570.253 342.679C573.321 352.707 578.079 369.422 580.209 373.209C582.338 376.997 616.828 371.18 618.89 369.312C621.979 366.513 621.026 332.095 615.254 328.64C614.17 327.991 611.044 327.7 606.916 327.7C597.001 327.7 581.307 329.383 574.269 331.843Z" fill="url(#paint16_linear)"/>
<path d="M622.775 369.101C620.705 370.972 586.812 377.676 584.096 373.005C582.767 370.705 580.469 363.521 578.211 355.997C577.697 354.339 577.203 352.663 576.71 351.023C575.798 347.957 574.926 344.997 574.146 342.466C571.071 332.447 574.506 331.538 577.488 330.861C587.818 328.489 615.446 326.225 619.148 328.436C621.845 330.04 623.478 338.348 624.142 347.048C624.276 348.812 624.389 350.613 624.447 352.361C624.711 360.507 624.142 367.87 622.775 369.101Z" fill="#FFC340"/>
<path d="M535.866 341.707C535.866 341.707 540.242 363.583 556.627 367.192L553.145 354.45C553.145 354.45 542.335 352.512 535.866 341.707Z" fill="#354C43"/>
<path d="M572.941 271.816C564.958 272.944 548.427 275.605 555.788 297.496C560.374 311.131 565.248 326.424 566.912 327.7C568.573 328.975 613.712 323.87 615.254 322.621C616.797 321.372 610.418 283.762 608.209 279.059C605.866 274.065 598.746 270.78 586.331 270.78C582.402 270.78 577.946 271.108 572.941 271.816Z" fill="url(#paint17_linear)"/>
<path d="M619.679 322.249C618.142 323.497 573.444 328.205 571.373 327.83C570.082 327.616 567.937 321.341 565.41 313.389C564.918 311.785 564.386 310.127 563.853 308.415C562.676 304.69 561.461 300.803 560.227 297.131C560.131 296.828 560.037 296.542 559.941 296.257C559.372 294.474 558.973 292.834 558.726 291.301C555.936 274.703 569.931 272.314 577.127 271.298C597.957 268.356 607.964 271.744 611.135 278.804C611.629 279.891 612.426 282.762 613.355 286.505V286.523C613.774 288.182 614.211 289.999 614.647 291.942C615.502 295.687 616.394 299.805 617.191 303.763C617.552 305.634 617.913 307.471 618.237 309.2C619.507 316.223 620.268 321.786 619.679 322.249Z" fill="#FFC340"/>
<path d="M546.386 321.822C545.739 322.571 545.226 321.43 545.075 321.144C545.075 321.144 521.531 278.234 544.01 269.016C544.029 269.016 544.029 268.998 544.049 268.998C544.752 268.838 545.492 268.678 546.271 268.553C545.625 268.838 532.585 273.486 536.026 291.982C537.682 300.884 539.165 304.252 541.581 310.59C544.296 317.757 546.954 321.144 546.386 321.822Z" fill="#385E4D"/>
<path d="M614.647 291.942C607.793 293.315 583.981 297.594 559.941 296.257C559.372 294.474 558.973 292.834 558.726 291.301C558.726 291.301 591.767 293.173 613.358 286.505V286.523C613.774 288.181 614.211 289.999 614.647 291.942Z" fill="#395248"/>
<path d="M624.445 352.361C615.179 353.983 597.065 356.585 578.209 355.997C577.696 354.339 577.203 352.663 576.71 351.023C585.367 351.273 607.299 351.38 624.142 347.047C624.275 348.812 624.389 350.613 624.445 352.361Z" fill="#395248"/>
<path d="M618.237 309.2C610.566 310.679 588.198 314.512 565.412 313.389C564.918 311.785 564.386 310.127 563.854 308.415C568.697 308.63 597.464 309.664 617.192 303.763C617.553 305.634 617.914 307.471 618.237 309.2Z" fill="#395248"/>
<path d="M241.396 657.269C242.647 659.273 243.214 666.487 241.76 673.385C240.264 672.985 238.729 672.331 237.215 671.36C234.932 669.905 232.913 668.85 231.015 668.091C230.711 668.028 228.792 667.732 228.832 670.726C228.873 673.996 236.124 677.731 232.043 684.206C231.277 685.409 230.328 686.549 229.257 687.561C224.046 688.004 213.887 687.139 207.686 682.372C202.435 678.342 204.536 673.302 205.586 669.441C205.788 668.723 205.95 668.048 206.029 667.416C206.112 666.762 206.09 666.171 205.908 665.643C204.738 662.205 202.678 663.386 202.375 663.598C201.244 664.631 200.091 665.812 198.92 667.183C198.173 668.048 197.407 668.998 196.637 670.032C186.458 683.447 168.907 676.803 167.514 669.103C166.12 661.403 182.925 653.768 180.258 650.265C178.624 648.135 175.109 649.633 172.603 651.109C171.674 651.763 170.766 652.375 169.876 652.966C169.857 652.987 169.817 653.008 169.817 653.008V652.987C163.575 657.1 157.881 659.822 153.861 659.526C140.025 658.556 163.455 642.65 161.152 640.436C158.83 638.22 136.572 651.152 128.029 647.375C119.465 643.6 120.475 630.859 128.776 628.538C137.097 626.239 157.456 615.333 156.002 611.135C154.547 606.916 149.134 611.494 146.489 612.886C146.489 612.886 130.634 622.126 123.706 609.869C116.799 597.593 132.21 588.753 131.078 586.729C129.948 584.704 115.365 590.949 105.225 585.653C95.0873 580.38 94.8443 568.672 101.832 565.317C108.821 561.964 121.142 566.416 121.02 563.124C120.878 559.854 98.6217 549.223 98.8435 540.553C99.0855 531.883 113.405 521.99 127.261 532.495C141.116 542.98 148.448 565.845 150.608 564.284C152.77 562.723 155.759 544.054 164.222 542.704C172.705 541.354 187.368 546.08 182.582 566.289C177.794 586.517 182.601 585.695 184.621 585.716C186.662 585.716 197.204 569.073 207.768 567.997C211.201 567.639 214.655 568.503 217.583 570.085C223.702 573.419 227.5 579.979 223.764 585.59C222.935 586.834 221.986 587.932 220.955 588.88C217.118 592.55 212.25 594.47 209.202 596.347C207.666 597.297 206.595 598.247 206.334 599.407C205.687 602.36 211.464 601.116 217.159 599.723C219.32 599.196 221.461 598.647 223.238 598.31C223.843 598.183 224.551 598.056 225.339 597.909C232.933 596.539 247.656 594.997 247.434 610.396C247.192 625.817 222.228 619.699 211.806 621.345C211.767 621.345 208.171 622.673 211.262 625.859C214.352 629.086 236.245 622.885 245.597 626.872C254.927 630.859 249.596 645.582 231.479 651.573C230.953 651.742 230.468 651.89 229.964 652.059C229.944 652.059 229.944 652.059 229.923 652.08C224.651 654.485 238.972 653.43 241.396 657.269Z" fill="#87E56C"/>
<path d="M127.953 550.294C127.953 550.294 228.014 636.431 250.112 730.651H243.919C243.919 730.651 233.651 653.304 124.251 550.294C124.251 550.294 115.92 543.877 111.753 540.712C109.515 539.013 118.949 542.558 127.953 550.294Z" fill="#70CC52"/>
<path d="M168.086 593.085C154.798 593.085 126.221 605.294 132.203 603.578C134.793 602.832 158.717 593.541 171.185 595.357" fill="#70CC52"/>
<path d="M196.191 630.092C183.278 633.36 158.256 652.258 163.683 649.115C166.032 647.757 187.188 632.841 199.714 631.539" fill="#70CC52"/>
<path d="M209.908 648.725C191.154 650.931 171.972 670.892 177.4 667.749C179.749 666.39 198.602 648.725 213.432 650.173" fill="#70CC52"/>
<path d="M148.234 572.882C135.233 570.022 102.952 575.898 109.145 575.506C111.825 575.335 139.447 572.024 151.286 576.485" fill="#70CC52"/>
<path d="M161.025 586.154C159.816 572.335 168.659 546.233 167.566 552.612C167.092 555.373 160.417 575.023 163.285 587.825" fill="#70CC52"/>
<path d="M183.747 611.907C189.387 586.419 215.127 575.468 210.003 579.122C206.555 581.583 187.703 595.566 185.01 612.697" fill="#70CC52"/>
<path d="M189.744 619.535C208.611 602.329 235.614 609.202 229.411 609.029C225.234 608.914 202.271 609.076 190.481 621.311" fill="#70CC52"/>
<path d="M206.444 641.268C225.105 627.346 249.124 636.123 243.486 635.389C239.693 634.893 218.753 632.904 206.964 642.956" fill="#70CC52"/>
<path d="M189.197 620.741C162.436 620.741 125.552 639.984 134.14 637.365C137.858 636.23 174.407 618.412 193.701 624.674" fill="#70CC52"/>
<g opacity="0.220001">
<g opacity="0.220001">
<path opacity="0.220001" d="M219.684 586.876C214.997 579.662 215.26 574.051 217.583 570.084C223.702 573.417 227.5 579.978 223.764 585.59C222.935 586.834 221.986 587.93 220.955 588.88C220.572 588.247 220.149 587.572 219.684 586.876Z" fill="#4B8E32"/>
</g>
<g opacity="0.220001">
<path opacity="0.220001" d="M241.396 657.269C242.647 659.272 243.212 666.486 241.76 673.385C240.264 672.985 238.729 672.331 237.215 671.36C234.932 669.905 232.913 668.85 231.014 668.091C230.711 668.028 228.792 667.732 228.832 670.726C228.873 673.996 236.124 677.731 232.043 684.206C231.277 685.409 230.328 686.549 229.257 687.561C224.046 688.004 213.887 687.139 207.686 682.372C202.435 678.342 204.536 673.302 205.586 669.441C207.544 668.302 208.656 667.542 206.535 667.395H206.495C206.333 667.395 206.192 667.416 206.029 667.416C206.111 666.762 206.09 666.171 205.908 665.643C204.738 662.205 202.678 663.386 202.374 663.598C201.244 664.631 200.091 665.812 198.92 667.183C187.468 665.516 182.257 657.607 187.509 652.586C193.649 646.7 212.27 644.95 213.806 641.553C215.32 638.157 212.17 638.2 212.15 638.2C203.626 640.035 185.975 652.249 181.571 640.393C176.723 627.315 191.61 624.762 196.981 623.792C202.354 622.843 212.17 622.484 210.352 619.615C208.555 616.725 199.627 618.898 193.084 614.13C186.56 609.342 192.174 598.056 200.658 595.736C203.262 595.019 206.251 595.44 209.2 596.347C207.666 597.297 206.595 598.247 206.333 599.406C205.687 602.36 211.462 601.115 217.159 599.723C220.39 601.369 222.794 602.782 223.42 602.529C224.39 602.127 226.289 601.664 225.339 597.909C232.933 596.539 247.656 594.997 247.434 610.396C247.192 625.817 222.228 619.699 211.806 621.345C211.766 621.345 208.171 622.673 211.262 625.859C214.351 629.086 236.244 622.885 245.597 626.872C254.927 630.859 249.595 645.582 231.479 651.573C230.953 651.742 230.468 651.89 229.964 652.058C229.944 652.058 229.944 652.058 229.923 652.08C224.651 654.485 238.972 653.43 241.396 657.269Z" fill="#4B8E32"/>
</g>
</g>
<path d="M217.23 661.133C217.216 661.133 217.209 661.129 217.197 661.129C216.761 661.154 216.345 661.184 215.888 661.207C200.229 661.996 192.058 652.183 198.2 646.307C204.342 640.431 222.973 638.688 224.495 635.278C226.015 631.881 222.857 631.931 222.833 631.931C214.318 633.774 196.67 645.984 192.268 634.114C187.418 621.042 202.312 618.491 207.681 617.528C213.047 616.564 222.854 616.217 221.055 613.337C219.252 610.456 210.312 612.624 203.78 607.852C197.247 603.081 202.861 591.785 211.348 589.456C219.837 587.129 232.562 596.884 234.111 596.254C235.663 595.626 239.616 594.822 230.367 580.61C221.119 566.398 231.179 558.358 238.105 556.869C245.031 555.379 252.456 568.938 254.553 569.499C256.65 570.062 256.069 550.18 263.917 537.918C271.764 525.658 285.555 529.039 288.113 535.68C290.67 542.321 276.347 557.188 277.144 559.771C277.941 562.355 286.259 555.22 292.588 555.728C298.917 556.236 301.938 565.361 295.539 572.486C289.14 579.609 276.143 579.128 275.822 581.033C275.5 582.937 289.851 585.18 287.858 596.735C285.865 608.291 271.059 605.886 271.059 605.886C268.637 605.595 263.191 603.675 263.219 607.366C263.245 611.055 281.981 613.404 289.049 612.713C296.121 612.02 300.389 621.569 294.795 627.048C289.204 632.526 268.439 629.171 267.259 631.575C266.08 633.98 288.564 639.294 278.136 644.181C275.104 645.603 269.942 645.196 263.985 643.895C263.987 643.895 263.996 643.902 263.996 643.902C263.996 643.902 263.963 643.89 263.94 643.884C263.082 643.697 262.211 643.492 261.326 643.27C258.983 642.87 255.845 642.767 255.167 644.903C254.056 648.398 269.161 649.285 270.188 655.663C271.217 662.042 259.454 672.423 247.909 665.081C245.62 663.629 243.6 662.578 241.706 661.818C241.413 661.755 239.493 661.454 239.525 664.464C239.56 667.723 246.812 671.465 242.73 677.948C238.648 684.43 228.902 688.398 225.668 688.815C215.388 690.142 208.963 672.292 209.777 668.59C210.592 664.888 221.971 661.43 217.23 661.133Z" fill="#AEF6C9"/>
<path d="M268.259 551.906C268.259 551.906 214.419 648.458 223.125 727.975L227.918 726.124C227.918 726.124 214.678 663.202 271.126 550.801C271.126 550.801 275.815 543.346 278.173 539.652C279.438 537.667 273.11 543.23 268.259 551.906Z" fill="#87E56C"/>
<path d="M248.923 597.012C259.206 593.041 284.664 593.953 279.565 594.409C277.357 594.608 256.299 594.565 247.148 599.697" fill="#87E56C"/>
<path d="M240.162 624.719C260.871 616.725 294.683 620.596 287.319 621.136C284.132 621.368 250.968 618.499 237.753 629.11" fill="#87E56C"/>
<path d="M237.311 634.047C248.199 632.718 272.736 639.866 267.677 639.057C265.485 638.706 245.029 633.484 234.98 636.22" fill="#87E56C"/>
<path d="M231.799 652.565C246.916 648.669 267.225 658.384 262.165 657.574C259.975 657.224 240.548 649.187 229.468 654.738" fill="#87E56C"/>
<path d="M258.751 575.446C268.028 569.347 294.62 564.252 289.721 565.797C287.599 566.466 265.318 572.155 257.376 579.146" fill="#87E56C"/>
<path d="M252.488 589.539C249.64 578.484 235.648 560.927 238.241 565.538C239.361 567.531 249.908 580.742 251.196 591.507" fill="#87E56C"/>
<path d="M241.957 616.256C230.614 598.217 207.694 597.434 212.661 598.732C216.005 599.605 234.423 604.794 241.199 617.246" fill="#87E56C"/>
<path d="M239.407 623.95C220.095 616.272 201.081 629.661 205.834 627.674C209.032 626.335 226.848 619.6 239.324 625.545" fill="#87E56C"/>
<path d="M232.436 645.759C214.184 640.56 198 654.53 202.161 652.277C204.961 650.759 220.621 642.964 232.498 647.221" fill="#87E56C"/>
<ellipse rx="110.643" ry="128.775" transform="matrix(0.512369 -0.858765 0.883704 0.468046 159.489 4.28918)" fill="#BCF5F7"/>
</g>
<defs>
<linearGradient id="paint0_linear" x1="354.76" y1="576.487" x2="720.021" y2="576.487" gradientUnits="userSpaceOnUse">
<stop stop-color="#2480C2"/>
<stop offset="1" stop-color="#2480C2"/>
</linearGradient>
<linearGradient id="paint1_linear" x1="345.899" y1="419.411" x2="720.021" y2="419.411" gradientUnits="userSpaceOnUse">
<stop stop-color="#2480C2"/>
<stop offset="1" stop-color="#2480C2"/>
</linearGradient>
<linearGradient id="paint2_linear" x1="518.978" y1="444.756" x2="518.978" y2="350.64" gradientUnits="userSpaceOnUse">
<stop stop-color="#FFA488"/>
<stop offset="0.491393" stop-color="#F1BA9B"/>
<stop offset="1" stop-color="#F1BA9B"/>
</linearGradient>
<linearGradient id="paint3_linear" x1="486.289" y1="405.559" x2="530.476" y2="405.559" gradientUnits="userSpaceOnUse">
<stop stop-color="white"/>
<stop offset="0.491393" stop-color="#F1BA9B"/>
<stop offset="1" stop-color="#F1BA9B"/>
</linearGradient>
<linearGradient id="paint4_linear" x1="499.359" y1="514.494" x2="499.359" y2="429.961" gradientUnits="userSpaceOnUse">
<stop stop-color="#FFA488"/>
<stop offset="0.491393" stop-color="#F1BA9B"/>
<stop offset="1" stop-color="#F1BA9B"/>
</linearGradient>
<linearGradient id="paint5_linear" x1="476.55" y1="420.939" x2="476.55" y2="523.81" gradientUnits="userSpaceOnUse">
<stop stop-color="white"/>
<stop offset="0.491393" stop-color="#F1BA9B"/>
<stop offset="1" stop-color="#F1BA9B"/>
</linearGradient>
<linearGradient id="paint6_linear" x1="552.841" y1="417.158" x2="591.538" y2="417.158" gradientUnits="userSpaceOnUse">
<stop stop-color="#FFB63C"/>
<stop offset="0.491393" stop-color="#FF9F3C"/>
<stop offset="1" stop-color="#FF9F3C"/>
</linearGradient>
<linearGradient id="paint7_linear" x1="488.054" y1="408.14" x2="604.052" y2="408.14" gradientUnits="userSpaceOnUse">
<stop stop-color="#252640"/>
<stop offset="0.491393" stop-color="#252655"/>
<stop offset="1" stop-color="#252655"/>
</linearGradient>
<linearGradient id="paint8_linear" x1="458.381" y1="316.603" x2="577.13" y2="316.603" gradientUnits="userSpaceOnUse">
<stop stop-color="#FFA488"/>
<stop offset="0.491393" stop-color="#F1BA9B"/>
<stop offset="1" stop-color="#F1BA9B"/>
</linearGradient>
<linearGradient id="paint9_linear" x1="510.177" y1="326.983" x2="551.804" y2="326.983" gradientUnits="userSpaceOnUse">
<stop stop-color="white"/>
<stop offset="0.491393" stop-color="#F1BA9B"/>
<stop offset="1" stop-color="#F1BA9B"/>
</linearGradient>
<linearGradient id="paint10_linear" x1="397.09" y1="327.474" x2="518.74" y2="327.474" gradientUnits="userSpaceOnUse">
<stop stop-color="#FFA488"/>
<stop offset="0.491393" stop-color="#F1BA9B"/>
<stop offset="1" stop-color="#F1BA9B"/>
</linearGradient>
<linearGradient id="paint11_linear" x1="485.502" y1="327.623" x2="485.502" y2="351.494" gradientUnits="userSpaceOnUse">
<stop stop-color="#FFA488"/>
<stop offset="0.491393" stop-color="#F1BA9B"/>
<stop offset="1" stop-color="#F1BA9B"/>
</linearGradient>
<linearGradient id="paint12_linear" x1="443.006" y1="333.824" x2="483.262" y2="333.824" gradientUnits="userSpaceOnUse">
<stop stop-color="white"/>
<stop offset="0.491393" stop-color="#F1BA9B"/>
<stop offset="1" stop-color="#F1BA9B"/>
</linearGradient>
<linearGradient id="paint13_linear" x1="510.918" y1="228.499" x2="553.888" y2="228.499" gradientUnits="userSpaceOnUse">
<stop stop-color="#FFB63C"/>
<stop offset="0.491393" stop-color="#FF923C"/>
<stop offset="1" stop-color="#FF923C"/>
</linearGradient>
<linearGradient id="paint14_linear" x1="548.427" y1="325.292" x2="548.427" y2="371.792" gradientUnits="userSpaceOnUse">
<stop stop-color="#FFB63C"/>
<stop offset="0.491393" stop-color="#FF9F3C"/>
<stop offset="1" stop-color="#FF9F3C"/>
</linearGradient>
<linearGradient id="paint15_linear" x1="542.184" y1="322.621" x2="615.254" y2="322.621" gradientUnits="userSpaceOnUse">
<stop stop-color="#395248"/>
<stop offset="1" stop-color="#393648"/>
</linearGradient>
<linearGradient id="paint16_linear" x1="610.742" y1="351.083" x2="575.964" y2="351.083" gradientUnits="userSpaceOnUse">
<stop stop-color="#FFB63C"/>
<stop offset="0.491393" stop-color="#FF923C"/>
<stop offset="1" stop-color="#FF923C"/>
</linearGradient>
<linearGradient id="paint17_linear" x1="595.56" y1="299.341" x2="548.993" y2="299.341" gradientUnits="userSpaceOnUse">
<stop stop-color="#FFB63C"/>
<stop offset="0.491393" stop-color="#FF923C"/>
<stop offset="1" stop-color="#FF923C"/>
</linearGradient>
<clipPath id="clip0">
<rect width="1107" height="777" fill="white" transform="translate(-387)"/>
</clipPath>
</defs>
</svg>
