<svg width="778" height="761" viewBox="0 0 778 761" fill="none" xmlns="http://www.w3.org/2000/svg">
<g clip-path="url(#clip0)">
<path d="M1152.1 -60.7001H-705.457V812.707H1152.1V-60.7001Z" fill="white"/>
<path d="M863.896 -9H-332.161V761.092H863.896V-9Z" fill="white"/>
<path d="M373.768 752.442C198.095 759.941 139.564 654.51 132.26 600.856V590.309L286.106 452.006H466.69L738.445 600.856L828.301 689.542C749.982 707.384 549.442 744.941 373.768 752.442Z" fill="#BCF5F7"/>
<path d="M550.911 713.957C737.046 713.957 887.938 659.834 887.938 593.071C887.938 526.307 737.046 472.184 550.911 472.184C364.774 472.184 213.879 526.307 213.879 593.071C213.879 659.834 364.774 713.957 550.911 713.957Z" fill="#00C3C3"/>
<path d="M320.965 195C491.664 195 630.044 113.74 630.044 13.5C630.044 -86.7397 491.664 -168 320.965 -168C150.265 -168 11.886 -86.7397 11.886 13.5C11.886 113.74 150.265 195 320.965 195Z" fill="#ABF4F4"/>
<path d="M778.023 -0.720093V659.632H153.843C68.284 484.387 178.137 417.534 283.085 384.963C302.536 378.92 321.823 374.052 339.675 369.899C439.185 346.722 426.013 325.953 388.405 315.969C313.842 296.181 283.044 271.722 322.049 258.12C331.343 254.874 344.598 252.253 362.161 250.453C484.365 237.92 517.421 232.625 505.868 215.689C503.734 212.57 496.122 210.555 484.408 209.146H484.365C456.03 205.759 403.771 205.956 347.203 202.889C317.76 201.302 287.168 198.842 258.176 194.528C227.77 190.017 199.106 183.474 175.387 173.795C25.2572 112.592 95.5311 -0.720093 95.5311 -0.720093H778.023Z" fill="#BCF5F7"/>
<path d="M487.608 101.29L347.203 202.889C317.76 201.302 287.168 198.842 258.176 194.528C227.77 190.017 199.106 183.474 175.387 173.795C25.2572 112.592 95.5311 -0.719971 95.5311 -0.719971H126.555C119.209 31.0845 117.977 78.3451 167.283 96.5476C244.532 125.072 272.395 75.1542 347.368 72.7655C422.36 70.3944 487.608 101.29 487.608 101.29Z" fill="#ABF4F4"/>
<path d="M191.954 110C260.994 110 316.961 69.4818 316.961 19.5C316.961 -30.4818 260.994 -71 191.954 -71C122.914 -71 66.9468 -30.4818 66.9468 19.5C66.9468 69.4818 122.914 110 191.954 110Z" fill="#BCF5F7"/>
<path d="M778.022 -0.720093V216.687L322.049 258.12C331.342 254.874 344.598 252.253 362.161 250.453C484.365 237.92 517.419 232.625 505.868 215.689C503.735 212.57 496.122 210.555 484.407 209.146H484.365C441.299 203.994 342.936 207.115 258.176 194.528C227.77 190.017 199.105 183.474 175.387 173.795C175.387 173.795 245.846 173.795 278.017 161.904C310.188 150.031 367.865 120.311 425.211 120.311C482.539 120.311 463.376 77.5254 504.412 69.1998C545.467 60.8921 559.236 83.4619 585.867 84.6562C612.479 85.8504 634.371 -0.720093 684.99 -0.720093H778.022Z" fill="#EEFFFF"/>
<path d="M778.023 30.4427V574.898C757.517 571.492 710.267 563.684 655.135 554.414C534.942 534.25 377.222 507.295 377.222 504.746C377.222 503.944 372.298 497.223 364.357 486.937C349.234 467.344 323.197 434.773 299.582 405.446C293.879 398.351 288.317 391.452 283.085 384.963C284.726 384.446 286.369 383.946 288.011 383.465C305.778 378.099 323.341 373.696 339.674 369.899C439.186 346.721 426.013 325.953 388.403 315.969C296.072 291.456 270.856 259.812 362.161 250.453C484.365 237.92 517.42 232.625 505.868 215.689C503.734 212.57 496.122 210.555 484.408 209.147H484.365C454 205.509 396.139 205.992 334.934 202.176C309.349 200.589 283.168 198.237 258.176 194.528C281.813 182.993 319.586 165.505 347.367 157.162C390.887 144.076 447.762 152.401 472.672 146.465C497.578 140.511 529.224 104.861 575.568 81.0908C604.073 66.4706 676.782 66.1516 693.197 63.5131C708.421 61.0884 733.066 34.3113 778.023 30.4427Z" fill="#32BE8E"/>
<path d="M317.371 172.457C317.371 172.457 321.475 104.712 329.681 94.4614C337.887 84.211 352.252 168.891 352.252 168.891" fill="#32BE8E"/>
<path d="M389.184 156.858C389.184 156.858 391.849 112.815 397.186 106.151C402.521 99.4857 411.859 154.54 411.859 154.54" fill="#32BE8E"/>
<path d="M494.804 140.368C494.804 140.368 497.468 96.3249 502.806 89.6603C508.142 82.9949 517.479 138.05 517.479 138.05" fill="#32BE8E"/>
<path d="M584.767 77.2673C584.767 77.2673 587.435 33.2242 592.772 26.5602C598.106 19.8945 607.444 74.9496 607.444 74.9496" fill="#96E882"/>
<path d="M468.927 170.417C468.927 170.417 471.594 126.373 476.931 119.71C482.265 113.044 491.603 168.099 491.603 168.099" fill="#96E882"/>
<path d="M359.175 191.635C359.175 191.635 362.707 133.355 369.767 124.535C376.827 115.716 389.184 188.566 389.184 188.566" fill="#96E882"/>
<path d="M668.044 68.1658C668.044 68.1658 669.544 43.3694 672.549 39.6186C675.552 35.8658 680.809 66.8608 680.809 66.8608" fill="#32BE8E"/>
<path d="M739.511 42.0188C739.511 42.0188 741.013 17.2223 744.018 13.4715C747.024 9.71873 752.276 40.7137 752.276 40.7137" fill="#32BE8E"/>
<path d="M447.633 94.4613C443.051 100.184 438.431 133.16 437.783 142.456C437.69 143.772 438.896 144.869 440.411 144.869H447.633V150.135H451.438V144.869H459.205C460.479 144.869 461.457 143.895 461.27 142.802C459.534 132.587 452.358 88.5586 447.633 94.4613Z" fill="#32BE8E"/>
<path d="M619.27 35.2768C616.625 38.5802 613.958 57.6166 613.583 62.9845C613.531 63.7439 614.225 64.3769 615.101 64.3769H619.27V67.4182H621.466V64.3769H625.951C626.684 64.3769 627.249 63.8153 627.142 63.1823C626.141 57.2868 621.998 31.8699 619.27 35.2768Z" fill="#96E882"/>
<path d="M728.528 35.2768C725.882 38.5802 723.217 57.6166 722.841 62.9845C722.789 63.7439 723.485 64.3769 724.359 64.3769H728.528V67.4182H730.727V64.3769H735.211C735.945 64.3769 736.507 63.8153 736.403 63.1823C735.394 57.2868 731.254 31.8699 728.528 35.2768Z" fill="#96E882"/>
<path d="M691.859 10.1016C687.276 15.8243 682.656 48.8 682.008 58.0971C681.916 59.411 683.119 60.5075 684.637 60.5075H691.859V65.7754H695.664V60.5075H703.431C704.704 60.5075 705.683 59.5358 705.496 58.4412C703.76 48.2278 696.584 4.19899 691.859 10.1016Z" fill="#32BE8E"/>
<path d="M778.023 39.303V582.937L655.135 554.414L574.029 535.588L364.358 486.937L340.166 481.321C340.166 481.321 319.176 442.474 299.582 405.447C295.602 397.941 291.682 390.49 288.011 383.465C305.778 378.099 323.341 373.695 339.674 369.899C439.186 346.722 426.013 325.953 388.403 315.969C296.072 291.456 270.856 259.812 362.161 250.453C396.877 246.888 424.392 243.928 445.73 241.094H445.752C499.549 233.98 514.137 227.812 505.869 215.689C503.734 212.57 496.122 210.555 484.408 209.146H484.365C460.545 206.295 419.776 205.974 373.754 204.137C361.135 203.62 348.106 202.996 334.934 202.176C348.866 192.532 377.037 175.559 410.727 169.338C458.943 160.424 479.811 171.032 507.181 163.901C534.53 156.768 542.371 88.8104 588.863 68.6115C611.885 58.6102 675.859 73.9597 698.716 71.2857C721.573 68.6115 778.023 39.303 778.023 39.303Z" fill="#AEF6C9"/>
<path d="M778.022 140.368V347.049L408.675 303.763C408.675 303.763 444.747 241.219 445.73 241.094H445.751C499.549 233.98 514.137 227.812 505.868 215.689C503.734 212.57 496.122 210.555 484.406 209.147C484.406 209.147 505.754 196.078 529.047 190.433C549.469 185.484 591.273 191.471 606.416 195.411C621.539 199.351 641.36 151.693 680.804 133.022C729.625 109.913 778.022 140.368 778.022 140.368Z" fill="#96E882"/>
<path d="M778.023 277.052V498.114L776.658 498.06L776.004 498.026L661.886 493.443L488.695 486.472L413.805 321.14L394.313 288.854L372.257 263.966L507.837 229.649C507.837 229.649 519.329 216.242 520.724 223.997C525.381 250.008 481.184 257.46 455.189 260.561C425.214 264.128 434.672 275.268 450.593 278.532C489.721 286.554 519.103 279.602 547.15 281.936C575.177 284.272 602.241 303.758 669.825 303.758C694.961 303.758 731.323 281.385 778.023 277.052Z" fill="#008C97"/>
<path d="M778.023 39.303V49.2988C778.023 49.2988 721.36 86.1684 702.593 82.4278C631.039 68.1658 650.358 95.0554 622.359 99.3195C587.236 104.668 552.976 161.722 537.423 178.943C521.87 196.183 490.745 187.269 451.926 190.245C427.776 192.081 391.501 192.532 373.754 204.137C361.136 203.62 348.106 202.996 334.934 202.175C348.866 192.532 377.037 175.559 410.727 169.338C458.943 160.424 479.811 171.032 507.181 163.9C534.53 156.768 542.371 88.8104 588.863 68.6115C611.885 58.6102 675.859 73.9598 698.716 71.2857C721.573 68.6115 778.023 39.303 778.023 39.303Z" fill="#96E882"/>
<path d="M778.023 444.828V495.957C777.3 497.151 776.784 497.864 776.658 498.06C776.646 498.096 776.623 498.114 776.623 498.114L776.004 498.026L652.203 481.766C652.203 481.766 643.954 460.873 662.585 453.492C680.189 446.52 690.755 465.33 691.903 467.433C690.941 465.205 679.542 444.916 693.105 439.871C702.932 436.216 710.473 446.592 712.36 453.492C710.247 441.672 708.996 423.558 722.599 420.706C739.522 417.158 744.064 436.074 744.064 436.074C744.064 436.074 748.468 419.637 760.533 423.149C772.335 426.589 761.198 447.147 760.808 447.788C761.347 447.646 771.211 440.781 778.023 444.828Z" fill="#96E882"/>
<path d="M674.817 493.342C674.817 493.342 663.453 476.79 674.817 472.815C686.179 468.841 692.335 481.766 692.335 481.766C692.335 481.766 687.129 468.53 698.71 465.454C710.288 462.379 712.084 479.399 712.084 479.399C712.084 479.399 706.184 455.525 720.033 453.493C733.88 451.46 735.164 468.172 735.164 468.172C735.164 468.172 734.706 444.113 744.913 444.113C758.503 444.113 751.84 469.385 751.84 469.385C751.84 469.385 763.916 456.581 770.304 471.026C776.681 485.474 767.736 499.737 767.736 499.737" fill="#86DB6E"/>
<path d="M587.168 201.403C587.168 201.403 589.835 157.36 595.171 150.696C600.506 144.03 609.843 199.085 609.843 199.085" fill="#96E882"/>
<path d="M705.518 144.782C705.518 144.782 708.186 100.739 713.522 94.0756C718.858 87.4102 728.195 142.465 728.195 142.465" fill="#96E882"/>
<path d="M740.394 166.001C740.394 166.001 743.067 121.958 748.399 115.294C753.744 108.628 763.08 163.684 763.08 163.684" fill="#96E882"/>
<path d="M562.688 194.385C562.688 194.385 564.165 170.002 567.12 166.312C570.075 162.621 575.244 193.103 575.244 193.103" fill="#96E882"/>
<path d="M641.54 170.417C641.54 170.417 645.848 99.2932 654.464 88.5307C663.081 77.7705 678.16 166.674 678.16 166.674" fill="#96E882"/>
<path d="M778.023 486.473V659.632H254.996L215.827 578.981C207.99 562.846 202.904 545.858 199.393 528.599C173.746 402.581 303.809 378.9 306.864 378.099C308.342 377.689 333.867 371.252 339.674 369.899C439.186 346.722 426.011 325.953 388.403 315.969C296.073 291.456 270.856 259.812 362.161 250.453C484.365 237.92 517.42 232.625 505.868 215.689C503.735 212.57 496.122 210.555 484.406 209.146C486.275 209.164 532.932 210.449 517.769 233.552C504.021 254.446 369.446 260.865 400.816 279.565C416.369 288.854 590.033 301.992 592.597 344.333C595.161 386.675 534.512 417.23 576.162 448.019C643.954 498.114 778.023 486.473 778.023 486.473Z" fill="#00C3C3"/>
<path opacity="0.300003" d="M769.355 486.875V661H246.903L207.778 579.899C199.948 563.674 194.869 546.591 191.36 529.236C165.741 402.514 295.66 378.701 298.716 377.896C300.19 377.484 325.687 371.011 331.487 369.65C430.891 346.344 417.733 325.459 380.164 315.419C287.934 290.769 262.746 258.949 353.95 249.538C476.021 236.935 509.039 231.61 497.501 214.58C495.37 211.443 487.765 209.417 476.062 208C477.927 208.018 524.535 209.31 509.389 232.542C495.656 253.553 361.226 260.008 392.564 278.812C408.1 288.153 581.573 301.364 584.135 343.941C586.696 386.52 526.113 417.245 567.719 448.206C635.436 498.581 769.355 486.875 769.355 486.875Z" fill="#00C3C3"/>
<path d="M724.993 291.509C724.993 291.509 710.576 287.718 713.707 281.387C716.829 275.077 727.727 284.92 727.727 284.92C727.727 284.92 717.854 271.958 723.88 268.281C729.912 264.603 735.038 281.875 735.038 281.875C735.038 281.875 732.492 268.388 740.165 268.998C747.986 269.619 741.449 281.54 741.449 281.54C741.449 281.54 746.45 275.074 750.166 277.418C755.223 280.602 746.45 288.854 746.45 288.854" fill="#008C97"/>
<path d="M494.826 284.683C494.826 284.683 485.911 281.146 488.563 277.302C491.207 273.469 497.251 280.64 497.251 280.64C497.251 280.64 492.18 271.534 496.437 269.62C500.692 267.705 502.268 279.229 502.268 279.229C502.268 279.229 501.976 270.342 506.865 271.315C511.847 272.307 506.437 279.497 506.437 279.497C506.437 279.497 510.312 275.708 512.473 277.5C515.411 279.937 508.929 284.593 508.929 284.593" fill="#008C97"/>
<g opacity="0.320007">
<g opacity="0.320007">
<g opacity="0.320007">
<g opacity="0.320007">
<g opacity="0.320007">
<g opacity="0.320007">
<path opacity="0.320007" d="M422.012 504.388C394.187 485.348 371.983 490.074 389.642 525.194C403.41 552.579 470.605 628.635 527.368 659.632H778.023C778.023 659.632 585.86 616.512 422.012 504.388Z" fill="url(#paint0_linear)"/>
</g>
</g>
</g>
</g>
</g>
</g>
<g opacity="0.199997">
<g opacity="0.199997">
<g opacity="0.199997">
<g opacity="0.199997">
<g opacity="0.199997">
<g opacity="0.199997">
<path opacity="0.199997" d="M778.023 486.472V615.769C687.73 596.907 627.135 536.961 616.191 512.578C602.787 482.715 485.576 423.808 490.234 392.183C494.891 360.557 550.927 381.469 552.752 352.82C554.579 324.188 438.939 334.457 435.388 319.535C431.84 304.614 448.93 310.853 447.147 296.519C445.361 282.186 377.118 288.104 374.184 276.303C371.229 264.501 384.053 262.487 404.059 261.15C424.063 259.812 446.849 247.228 468.935 246.138C512.289 244 520.374 225.066 520.539 223.053C521.236 225.923 520.498 229.38 517.77 233.553C504.022 254.446 369.446 260.865 400.816 279.566C416.369 288.854 590.033 301.992 592.597 344.334C595.161 386.675 534.51 417.23 576.162 448.019C643.954 498.114 778.023 486.472 778.023 486.472Z" fill="url(#paint1_linear)"/>
</g>
</g>
</g>
</g>
</g>
</g>
<path d="M531.633 688C666.504 688 775.839 673.225 775.839 655C775.839 636.775 666.504 622 531.633 622C396.762 622 287.428 636.775 287.428 655C287.428 673.225 396.762 688 531.633 688Z" fill="#00C3C3"/>
<path d="M260.842 657.269C262.193 659.273 262.806 666.487 261.235 673.385C259.618 672.985 257.96 672.331 256.324 671.36C253.857 669.905 251.675 668.85 249.624 668.091C249.296 668.028 247.222 667.732 247.265 670.726C247.31 673.996 255.145 677.731 250.735 684.206C249.907 685.409 248.882 686.549 247.725 687.561C242.094 688.004 231.117 687.139 224.416 682.372C218.742 678.342 221.012 673.302 222.147 669.441C222.365 668.723 222.54 668.048 222.626 667.416C222.715 666.762 222.691 666.171 222.495 665.643C221.231 662.205 219.005 663.386 218.677 663.598C217.455 664.631 216.209 665.812 214.944 667.183C214.137 668.048 213.309 668.998 212.477 670.032C201.478 683.447 182.513 676.803 181.008 669.103C179.502 661.403 197.66 653.768 194.779 650.265C193.013 648.135 189.215 649.633 186.507 651.109C185.503 651.763 184.522 652.375 183.56 652.966C183.54 652.987 183.496 653.008 183.496 653.008V652.987C176.752 657.1 170.599 659.822 166.255 659.526C151.305 658.556 176.622 642.65 174.133 640.436C171.624 638.22 147.573 651.152 138.342 647.375C129.088 643.6 130.18 630.859 139.149 628.538C148.141 626.239 170.14 615.333 168.569 611.135C166.996 606.916 161.147 611.494 158.289 612.886C158.289 612.886 141.157 622.126 133.671 609.869C126.208 597.593 142.86 588.753 141.637 586.729C140.416 584.704 124.658 590.949 113.701 585.653C102.747 580.38 102.484 568.672 110.035 565.317C117.587 561.964 130.9 566.416 130.769 563.124C130.615 559.854 106.566 549.223 106.806 540.553C107.067 531.883 122.54 521.99 137.512 532.495C152.483 542.98 160.406 565.845 162.74 564.284C165.076 562.723 168.306 544.054 177.451 542.704C186.617 541.354 202.461 546.08 197.29 566.289C192.116 586.517 197.31 585.695 199.493 585.716C201.698 585.716 213.09 569.073 224.505 567.997C228.214 567.639 231.946 568.503 235.11 570.085C241.722 573.419 245.826 579.979 241.789 585.59C240.893 586.834 239.868 587.932 238.754 588.88C234.608 592.55 229.348 594.47 226.054 596.347C224.394 597.297 223.237 598.247 222.955 599.407C222.256 602.36 228.498 601.116 234.652 599.723C236.987 599.196 239.301 598.647 241.221 598.31C241.875 598.183 242.64 598.056 243.491 597.909C251.697 596.539 267.606 594.997 267.366 610.396C267.104 625.817 240.13 619.699 228.868 621.345C228.826 621.345 224.94 622.673 228.28 625.859C231.619 629.086 255.276 622.885 265.381 626.872C275.463 630.859 269.702 645.582 250.126 651.573C249.557 651.742 249.033 651.89 248.489 652.059C248.467 652.059 248.467 652.059 248.444 652.08C242.748 654.485 258.222 653.43 260.842 657.269Z" fill="#87E56C"/>
<path d="M138.26 550.294C138.26 550.294 246.382 636.431 270.26 730.651H263.568C263.568 730.651 252.473 653.304 134.26 550.294C134.26 550.294 125.258 543.877 120.755 540.712C118.337 539.013 128.531 542.558 138.26 550.294Z" fill="#70CC52"/>
<path d="M181.626 593.085C167.268 593.085 136.389 605.294 142.853 603.578C145.651 602.832 171.502 593.541 184.975 595.357" fill="#70CC52"/>
<path d="M211.995 630.092C198.042 633.36 171.004 652.258 176.869 649.115C179.407 647.757 202.267 632.841 215.802 631.539" fill="#70CC52"/>
<path d="M226.817 648.725C206.552 650.931 185.825 670.892 191.69 667.749C194.229 666.39 214.6 648.725 230.625 650.173" fill="#70CC52"/>
<path d="M160.175 572.882C146.127 570.022 111.245 575.898 117.937 575.506C120.833 575.335 150.68 572.024 163.473 576.485" fill="#70CC52"/>
<path d="M173.996 586.154C172.69 572.335 182.245 546.233 181.064 552.612C180.552 555.373 173.339 575.023 176.438 587.825" fill="#70CC52"/>
<path d="M198.549 611.907C204.643 586.419 232.457 575.468 226.92 579.122C223.194 581.583 202.823 595.566 199.913 612.697" fill="#70CC52"/>
<path d="M205.029 619.535C225.416 602.329 254.594 609.202 247.891 609.029C243.378 608.914 218.565 609.076 205.825 621.311" fill="#70CC52"/>
<path d="M223.074 641.268C243.238 627.346 269.192 636.123 263.1 635.389C259.001 634.893 236.375 632.904 223.636 642.956" fill="#70CC52"/>
<path d="M204.438 620.741C175.521 620.741 135.666 639.984 144.946 637.365C148.963 636.23 188.456 618.412 209.305 624.674" fill="#70CC52"/>
<g opacity="0.220001">
<g opacity="0.220001">
<path opacity="0.220001" d="M237.381 586.876C232.316 579.662 232.6 574.051 235.11 570.084C241.722 573.417 245.826 579.978 241.789 585.59C240.893 586.834 239.868 587.93 238.754 588.88C238.34 588.247 237.883 587.572 237.381 586.876Z" fill="#4B8E32"/>
</g>
<g opacity="0.220001">
<path opacity="0.220001" d="M260.842 657.269C262.193 659.272 262.804 666.486 261.235 673.385C259.618 672.985 257.96 672.331 256.324 671.36C253.857 669.905 251.675 668.85 249.623 668.091C249.296 668.028 247.222 667.732 247.266 670.726C247.31 673.996 255.145 677.731 250.735 684.206C249.908 685.409 248.882 686.549 247.725 687.561C242.094 688.004 231.117 687.139 224.416 682.372C218.742 678.342 221.012 673.302 222.147 669.441C224.263 668.302 225.464 667.542 223.172 667.395H223.129C222.954 667.395 222.802 667.416 222.626 667.416C222.714 666.762 222.692 666.171 222.495 665.643C221.231 662.205 219.005 663.386 218.676 663.598C217.455 664.631 216.209 665.812 214.944 667.183C202.569 665.516 196.939 657.607 202.614 652.586C209.248 646.7 229.369 644.95 231.029 641.553C232.665 638.157 229.261 638.2 229.24 638.2C220.029 640.035 200.956 652.249 196.197 640.393C190.959 627.315 207.045 624.762 212.849 623.792C218.655 622.843 229.261 622.484 227.297 619.615C225.355 616.725 215.708 618.898 208.638 614.13C201.588 609.342 207.655 598.056 216.822 595.736C219.636 595.019 222.866 595.44 226.052 596.347C224.395 597.297 223.237 598.247 222.954 599.406C222.256 602.36 228.496 601.115 234.652 599.723C238.143 601.369 240.741 602.782 241.418 602.529C242.466 602.127 244.518 601.664 243.491 597.909C251.697 596.539 267.606 594.997 267.366 610.396C267.105 625.817 240.13 619.699 228.868 621.345C228.825 621.345 224.94 622.673 228.28 625.859C231.618 629.086 255.275 622.885 265.381 626.872C275.463 630.859 269.701 645.582 250.126 651.573C249.557 651.742 249.033 651.89 248.489 652.058C248.467 652.058 248.467 652.058 248.444 652.08C242.748 654.485 258.222 653.43 260.842 657.269Z" fill="#4B8E32"/>
</g>
</g>
<path d="M234.729 661.133C234.714 661.133 234.706 661.129 234.693 661.129C234.222 661.154 233.773 661.184 233.279 661.207C216.358 661.996 207.529 652.183 214.166 646.307C220.803 640.431 240.935 638.688 242.579 635.278C244.222 631.881 240.809 631.931 240.783 631.931C231.582 633.774 212.513 645.984 207.756 634.114C202.515 621.042 218.609 618.491 224.411 617.528C230.209 616.564 240.806 616.217 238.862 613.337C236.914 610.456 227.254 612.624 220.195 607.852C213.136 603.081 219.202 591.785 228.373 589.456C237.546 587.129 251.296 596.884 252.97 596.254C254.647 595.626 258.918 594.822 248.924 580.61C238.931 566.398 249.802 558.358 257.286 556.869C264.769 555.379 272.793 568.938 275.059 569.499C277.324 570.062 276.697 550.18 285.177 537.918C293.656 525.658 308.558 529.039 311.322 535.68C314.085 542.321 298.608 557.188 299.469 559.771C300.331 562.355 309.319 555.22 316.157 555.728C322.996 556.236 326.261 565.361 319.346 572.486C312.432 579.609 298.388 579.128 298.041 581.033C297.693 582.937 313.2 585.18 311.046 596.735C308.893 608.291 292.894 605.886 292.894 605.886C290.277 605.595 284.392 603.675 284.423 607.366C284.451 611.055 304.696 613.404 312.333 612.713C319.975 612.02 324.587 621.569 318.542 627.048C312.501 632.526 290.063 629.171 288.788 631.575C287.514 633.98 311.809 639.294 300.541 644.181C297.265 645.603 291.687 645.196 285.25 643.895C285.252 643.895 285.262 643.902 285.262 643.902C285.262 643.902 285.227 643.89 285.202 643.884C284.275 643.697 283.333 643.492 282.377 643.27C279.845 642.87 276.455 642.767 275.722 644.903C274.521 648.398 290.843 649.285 291.953 655.663C293.065 662.042 280.354 672.423 267.879 665.081C265.406 663.629 263.223 662.578 261.177 661.818C260.86 661.755 258.785 661.454 258.82 664.464C258.858 667.723 266.694 671.465 262.283 677.948C257.872 684.43 247.341 688.398 243.847 688.815C232.739 690.142 225.796 672.292 226.676 668.59C227.556 664.888 239.852 661.43 234.729 661.133Z" fill="#AEF6C9"/>
<path d="M289.869 551.906C289.869 551.906 231.691 648.458 241.099 727.975L246.278 726.124C246.278 726.124 231.971 663.202 292.967 550.801C292.967 550.801 298.033 543.346 300.581 539.652C301.948 537.667 295.11 543.23 289.869 551.906Z" fill="#87E56C"/>
<path d="M268.975 597.012C280.086 593.041 307.595 593.953 302.085 594.409C299.7 594.608 276.945 594.565 267.057 599.697" fill="#87E56C"/>
<path d="M259.508 624.719C281.886 616.725 318.421 620.596 310.464 621.136C307.02 621.368 271.185 618.499 256.905 629.11" fill="#87E56C"/>
<path d="M256.428 634.047C268.193 632.718 294.706 639.866 289.24 639.057C286.871 638.706 264.767 633.484 253.909 636.22" fill="#87E56C"/>
<path d="M250.472 652.565C266.806 648.669 288.751 658.384 283.284 657.574C280.917 657.224 259.925 649.187 247.953 654.738" fill="#87E56C"/>
<path d="M279.595 575.446C289.619 569.347 318.353 564.252 313.059 565.797C310.767 566.466 286.691 572.155 278.109 579.146" fill="#87E56C"/>
<path d="M272.827 589.539C269.75 578.484 254.631 560.927 257.432 565.538C258.643 567.531 270.039 580.742 271.431 591.507" fill="#87E56C"/>
<path d="M261.448 616.256C249.191 598.217 224.425 597.434 229.792 598.732C233.405 599.605 253.307 604.794 260.629 617.246" fill="#87E56C"/>
<path d="M258.692 623.95C237.825 616.272 217.279 629.661 222.415 627.674C225.871 626.335 245.122 619.6 258.603 625.545" fill="#87E56C"/>
<path d="M251.16 645.759C231.438 640.56 213.95 654.53 218.446 652.277C221.472 650.759 238.393 642.964 251.227 647.221" fill="#87E56C"/>
<path d="M295.303 64.5619C329.134 12.0858 301.506 -57.4395 233.593 -90.7271C165.681 -124.015 83.2017 -108.459 49.3705 -55.9834C15.5393 -3.5073 43.1676 66.0179 111.08 99.3056C178.992 132.593 261.472 117.038 295.303 64.5619Z" fill="#BCF5F7"/>
<g opacity="0.320007">
<g opacity="0.320007">
<g opacity="0.320007">
<g opacity="0.320007">
<g opacity="0.320007">
<g opacity="0.320007">
<path opacity="0.320007" d="M371.607 526.679C347.037 507.385 327.43 512.174 343.023 547.764C355.181 575.515 414.517 652.589 464.643 684H685.981C685.981 684 516.294 640.303 371.607 526.679Z" fill="url(#paint2_linear)"/>
</g>
</g>
</g>
</g>
</g>
</g>
<g opacity="0.199997">
<g opacity="0.199997">
<g opacity="0.199997">
<g opacity="0.199997">
<g opacity="0.199997">
<g opacity="0.199997">
<path opacity="0.199997" d="M685.981 508.524V639.551C606.253 620.436 552.743 559.688 543.079 534.979C531.242 504.716 427.738 445.022 431.851 412.973C435.964 380.924 485.446 402.115 487.058 373.083C488.671 344.068 386.555 354.475 383.42 339.353C380.286 324.233 395.378 330.556 393.802 316.03C392.226 301.505 331.964 307.503 329.373 295.543C326.764 283.584 338.088 281.542 355.753 280.188C373.419 278.833 393.54 266.08 413.044 264.975C451.328 262.808 458.467 243.621 458.612 241.58C459.228 244.489 458.576 247.993 456.166 252.221C444.027 273.394 325.188 279.898 352.891 298.849C366.625 308.262 519.979 321.577 522.244 364.484C524.509 407.391 470.951 438.356 507.731 469.556C567.595 520.321 685.981 508.524 685.981 508.524Z" fill="url(#paint3_linear)"/>
</g>
</g>
</g>
</g>
</g>
</g>
<path d="M471.803 372.776C466.149 374.745 460.478 381.628 464.102 403.452C467.182 421.988 487.493 474.957 489.576 480.395C489.703 480.684 489.758 480.847 489.758 480.847L490.338 480.576L491.225 480.161L497.168 477.378C497.168 477.378 495.574 459.475 495.954 438.319C496.189 425.456 493.327 415.231 491.026 409.161C497.277 413.93 525.342 429.034 525.342 429.034L523.495 383.615C523.495 383.615 516.537 380.797 508.547 378.177L509.29 377.274C509.29 377.274 507.677 376.894 505.122 376.353C498.311 374.895 484.698 372.21 476.627 372.21C474.609 372.21 472.935 372.378 471.803 372.776Z" fill="url(#paint4_linear)"/>
<g opacity="0.369995">
<g opacity="0.369995">
<g opacity="0.369995">
<g opacity="0.369995">
<g opacity="0.369995">
<g opacity="0.369995">
<path opacity="0.369995" d="M467.418 395.178C468.39 415.081 488.906 472.537 491.225 480.161C491.352 480.612 491.425 480.847 491.425 480.847L490.338 480.576L489.576 480.395C487.493 474.958 467.182 421.988 464.102 403.452C460.478 381.628 466.149 374.745 471.803 372.776C477.455 370.789 496.607 374.528 505.122 376.353C503.89 378.936 502.622 381.249 502.622 381.249C502.622 381.249 481.315 374.926 475.426 377.635C469.555 380.345 466.965 385.908 467.418 395.178Z" fill="url(#paint5_linear)"/>
</g>
</g>
</g>
</g>
</g>
</g>
<path d="M490.7 413.221C490.7 413.221 495.318 382.593 502.791 375.354L566.736 386.841L516.705 419.683L490.7 413.221Z" fill="#17193A"/>
<path d="M398.332 564.999C397.643 565.125 396.954 565.234 396.266 565.288H396.176C395.85 565.343 395.542 565.36 395.215 565.378H395.034C394.508 565.414 393.983 565.432 393.458 565.432H393.313C393.113 565.432 392.932 565.432 392.733 565.414C382.37 564.98 372.169 557.971 363.816 545.487C354.412 531.415 348.578 512.264 347.364 491.542C346.169 470.802 349.756 451.11 357.474 436.061C364.867 421.627 375.14 413.334 386.355 412.684C386.569 412.668 386.783 412.673 386.997 412.668C387.296 412.661 387.595 412.652 387.894 412.653C388.519 412.657 389.142 412.678 389.767 412.729C389.772 412.729 389.78 412.729 389.787 412.731C399.834 413.551 409.652 420.483 417.736 432.575C422.447 439.603 426.253 447.913 429.043 457.054C431.833 466.195 433.59 476.168 434.188 486.538C436.525 526.717 420.708 560.771 398.44 564.981C398.405 564.999 398.368 564.999 398.332 564.999ZM441.436 486.105C440.149 464.118 433.881 443.685 423.77 428.564C413.28 412.864 399.781 404.663 385.939 405.476C372.042 406.271 359.648 415.954 351.024 432.773C342.726 448.942 338.867 469.972 340.135 491.958C341.404 513.944 347.691 534.377 357.801 549.498C367.82 564.493 380.54 572.659 393.766 572.659C394.382 572.659 395.016 572.641 395.632 572.605C423.553 570.997 444.099 532.191 441.436 486.105Z" fill="#BCF5F7"/>
<path d="M386.997 412.668C387.296 412.66 387.595 412.652 387.894 412.653C387.852 412.653 387.81 412.648 387.768 412.648C387.511 412.648 387.254 412.662 386.997 412.668ZM389.787 412.731C389.78 412.731 389.772 412.731 389.767 412.729C389.772 412.731 389.78 412.731 389.787 412.731ZM353.379 437.633C345.625 452.411 342.02 471.615 343.197 491.704C344.393 511.794 350.245 530.457 359.703 544.277C368.925 557.754 380.575 565.198 392.733 565.414C382.369 564.98 372.168 557.971 363.816 545.487C354.412 531.414 348.578 512.264 347.364 491.542C346.169 470.802 349.756 451.11 357.474 436.061C364.867 421.626 375.14 413.334 386.356 412.684C386.569 412.668 386.783 412.673 386.997 412.668C386.662 412.675 386.328 412.665 385.993 412.684C373.002 413.424 361.424 422.277 353.379 437.633ZM437.83 486.375C436.634 466.286 430.782 447.605 421.324 433.803C412.484 420.866 401.372 413.522 389.787 412.731C399.834 413.552 409.652 420.483 417.737 432.575C422.448 439.602 426.252 447.913 429.042 457.054C431.833 466.195 433.591 476.168 434.188 486.538C436.526 526.717 420.708 560.771 398.44 564.98C422.774 560.771 440.203 526.609 437.83 486.375ZM387.894 412.653C388.519 412.657 389.142 412.678 389.767 412.729C389.142 412.687 388.519 412.657 387.894 412.653Z" fill="#94D3D3"/>
<path d="M566.345 652.529C536.431 654.263 510.05 618.763 507.423 573.436C504.796 528.108 526.955 489.826 556.814 488.109C557.503 488.055 558.192 488.037 558.898 488.037C572.36 488.037 585.478 495.589 596.023 509.464C607.455 524.477 614.45 544.981 615.736 567.185C618.363 612.531 596.204 650.813 566.345 652.529ZM622.983 566.769C621.606 543.138 614.087 521.243 601.802 505.091C596.856 498.606 591.384 493.349 585.55 489.392C585.532 489.375 585.514 489.375 585.496 489.356C576.436 483.25 566.508 480.305 556.398 480.883C522.534 482.834 497.331 524.549 500.194 573.851C502.314 610.309 519.182 640.877 541.522 653.523C548.661 657.587 556.362 659.809 564.297 659.809C565.113 659.809 565.946 659.791 566.761 659.737C600.625 657.786 625.828 616.09 622.983 566.769Z" fill="#94D3D3"/>
<path d="M566.345 652.529C536.431 654.263 510.05 618.764 507.423 573.436C504.796 528.108 526.955 489.826 556.814 488.11C557.503 488.055 558.191 488.037 558.898 488.037C572.36 488.037 585.478 495.589 596.023 509.464C607.455 524.477 614.449 544.981 615.735 567.185C618.363 612.531 596.204 650.813 566.345 652.529ZM622.983 566.769C621.606 543.139 614.086 521.243 601.802 505.092C596.856 498.606 591.384 493.349 585.55 489.392C585.532 489.375 585.514 489.375 585.495 489.356C577.488 484.858 568.917 482.744 560.202 483.232C526.339 485.183 501.136 526.897 503.981 576.2C505.974 610.562 521.084 639.702 541.522 653.523C548.661 657.587 556.361 659.81 564.297 659.81C565.113 659.81 565.946 659.791 566.761 659.737C600.625 657.786 625.828 616.09 622.983 566.769Z" fill="#BCF5F7"/>
<path d="M492.557 475.966C492.557 475.966 495.258 474.432 497.204 475.455C499.152 476.475 498.449 478.266 499.627 479.695C500.806 481.126 502.138 484.089 498.705 486.592C495.273 489.096 488.558 493.626 487.127 494.469C481.981 497.506 476.217 494.444 477.084 492.144C478.08 489.5 484.756 482.734 486.92 481.28C489.031 479.861 490.129 477.141 492.557 475.966Z" fill="#4F2411"/>
<path d="M478.844 514.604L557.779 564.694L535.545 444.087L416.346 373.953L478.844 514.604ZM565.381 575.938L474.541 518.299L474.207 517.549L404.509 360.698L540.443 440.674L565.381 575.938Z" fill="#BCF5F7"/>
<path d="M541.404 447.439L484.268 521.966L479.956 518.677L481.858 516.202L535.706 445.962L538.58 447.269L541.404 447.439Z" fill="#96EAEA"/>
<path d="M538.581 447.27L484.269 518.046L481.858 516.203L535.707 445.962L538.581 447.27Z" fill="#BCF5F7"/>
<path d="M574.689 569.56C575.312 580.315 569.949 589.372 562.709 589.789C555.469 590.206 549.095 581.825 548.472 571.072C547.847 560.318 553.212 551.261 560.452 550.844C567.692 550.427 574.066 558.805 574.689 569.56Z" fill="#BCF5F7"/>
<path d="M403.862 490.208C402.895 500.936 396.254 509.108 389.032 508.461C381.809 507.813 376.739 498.591 377.706 487.863C378.674 477.133 385.312 468.962 392.536 469.609C399.759 470.255 404.83 479.478 403.862 490.208Z" fill="#BCF5F7"/>
<path d="M399.288 489.797C398.659 496.772 394.341 502.087 389.645 501.665C384.949 501.243 381.651 495.247 382.282 488.272C382.91 481.297 387.227 475.982 391.924 476.403C396.619 476.826 399.916 482.822 399.288 489.797Z" fill="#94D3D3"/>
<path d="M497.033 519.254C497.912 534.4 490.358 547.155 480.16 547.744C469.964 548.331 460.984 536.528 460.107 521.382C459.228 506.237 466.782 493.481 476.979 492.893C487.176 492.306 496.154 504.107 497.033 519.254Z" fill="#BCF5F7"/>
<path d="M468.096 566.841C467.953 566.841 467.806 566.825 467.661 566.79C466.69 566.551 466.096 565.572 466.335 564.603L485.133 488.6C485.372 487.631 486.358 487.035 487.326 487.279C488.297 487.517 488.893 488.497 488.652 489.465L469.854 565.467C469.649 566.29 468.91 566.841 468.096 566.841Z" fill="#BCF5F7"/>
<path d="M435.474 365.567L393.349 489.898C392.969 491.036 391.918 491.741 390.777 491.741C390.486 491.741 390.196 491.705 389.907 491.596C389.69 491.524 389.508 491.434 389.327 491.307C388.294 490.675 387.805 489.375 388.204 488.164L430.329 363.833C430.637 362.93 431.379 362.28 432.249 362.081C432.72 361.936 433.264 361.954 433.771 362.135C435.203 362.604 435.964 364.14 435.474 365.567Z" fill="#96EAEA"/>
<path d="M433.373 365.224L391.248 489.555C390.939 490.458 390.196 491.108 389.327 491.307C388.294 490.675 387.805 489.375 388.204 488.164L430.329 363.833C430.637 362.93 431.38 362.28 432.249 362.081C433.282 362.731 433.771 364.032 433.373 365.224Z" fill="#BCF5F7"/>
<path d="M488.432 519.75C488.901 527.839 484.866 534.654 479.42 534.967C473.973 535.281 469.178 528.978 468.708 520.886C468.239 512.796 472.274 505.983 477.72 505.669C483.167 505.354 487.963 511.66 488.432 519.75Z" fill="#94D3D3"/>
<path d="M541.039 443.737L534.646 440.335L549.292 412.978L555.686 416.38L541.039 443.737Z" fill="#6A2F32"/>
<path d="M569.682 569.849C570.069 576.495 566.753 582.092 562.279 582.35C557.804 582.609 553.863 577.429 553.479 570.782C553.093 564.136 556.409 558.539 560.882 558.281C565.358 558.022 569.296 563.202 569.682 569.849Z" fill="#94D3D3"/>
<path d="M468.396 431.003C467.889 431.292 467.363 431.599 466.819 431.924C466.819 431.924 460.985 434.724 454.571 438.988C448.157 443.233 441.182 448.925 438.863 454.723C437.232 458.843 438.428 464.894 439.026 470.459C441.091 490.169 460.732 552.931 460.732 552.931C460.732 552.931 461.076 553.4 460.732 555.334C460.623 556.002 460.261 556.598 459.772 557.176C458.883 558.278 457.598 559.254 456.891 560.302C456.021 561.548 453.865 565.486 454.009 566.046C454.173 566.625 462.435 565.721 463.902 564.24C465.37 562.776 470.099 560.753 470.588 558.043C471.077 555.334 467.236 553.689 467.381 552.082C467.381 552.082 470.081 524.025 469.972 502.852C469.9 485.49 464.265 473.006 462.235 469.086C465.37 468.544 471.349 467.405 476.585 465.816C484.068 463.558 512.823 449.556 512.823 449.556L474.918 427.335C474.918 427.335 472.201 428.781 468.396 431.003Z" fill="url(#paint6_linear)"/>
<g opacity="0.369995">
<g opacity="0.369995">
<g opacity="0.369995">
<g opacity="0.369995">
<g opacity="0.369995">
<g opacity="0.369995">
<path opacity="0.369995" d="M452.542 512.029C456.456 527.999 462.96 557.646 462.96 557.646L459.772 557.177C460.261 556.598 460.623 556.002 460.732 555.334C461.076 553.4 460.732 552.931 460.732 552.931C460.732 552.931 441.091 490.17 439.026 470.459C438.428 464.894 437.232 458.843 438.863 454.723C441.182 448.925 448.157 443.233 454.571 438.988C460.985 434.724 466.819 431.924 466.819 431.924C467.363 431.599 467.888 431.292 468.396 431.003L469.296 437.438C469.296 437.438 444.563 450.126 443.628 457.912C442.119 470.495 448.61 496.077 452.542 512.029Z" fill="url(#paint7_linear)"/>
</g>
</g>
</g>
</g>
</g>
</g>
<path d="M537.86 447.611C527.967 444.485 518.944 436.428 518.944 436.428L526.463 435.47L546.448 432.923L559.113 439.083C559.113 439.083 562.428 440.131 563.388 441.649C563.425 441.685 563.461 441.739 563.479 441.775C567.121 448.352 543.93 449.525 537.86 447.611Z" fill="#FFC340"/>
<g opacity="0.600006">
<g opacity="0.600006">
<g opacity="0.600006">
<g opacity="0.600006">
<g opacity="0.600006">
<path opacity="0.600006" d="M563.389 441.649C557.392 443.998 544.999 444.052 540.723 442.95C535.668 441.667 530.215 438.181 526.464 435.471L546.448 432.924L559.114 439.084C559.114 439.084 562.429 440.131 563.389 441.649Z" fill="url(#paint8_linear)"/>
</g>
</g>
</g>
</g>
</g>
<path d="M518.963 399.324C506.896 404.742 464.644 432.78 464.644 432.78C467.491 447.268 479.682 465.597 479.682 465.597C479.682 465.597 521.464 452.96 543.079 440.567C547.428 440.205 554.282 440.867 558.377 439.369C568.215 435.756 573.754 427.794 574.732 421.904C577.558 405.049 569.405 392.691 569.405 392.691C552.192 397.21 518.963 399.324 518.963 399.324Z" fill="url(#paint9_linear)"/>
<path d="M500.031 349.037V349.055C490.229 347.032 472.056 346.652 458.703 346.689H458.54C455.623 346.689 455.043 346.201 453.974 345.496C453.086 344.9 447.252 341.648 444.027 342.009C442.505 342.19 441.236 342.443 440.222 342.768C437.541 343.599 436.471 344.954 436.363 346.706C436.217 349.109 436.454 352.379 439.244 354.294C442.034 356.209 448.284 353.843 447.832 353.083C449.372 353.589 452.651 354.602 454.626 355.198C467.309 359.226 486.37 364.501 498.745 364.501C501.498 364.501 503.927 364.248 505.865 363.652C524.002 358.142 549.64 322.66 549.64 322.66L521.882 308.262C521.882 308.262 507.477 333.121 500.031 349.037Z" fill="url(#paint10_linear)"/>
<g opacity="0.369995">
<g opacity="0.369995">
<g opacity="0.369995">
<g opacity="0.369995">
<g opacity="0.369995">
<g opacity="0.369995">
<path opacity="0.369995" d="M500.031 349.055C499.505 350.175 499.451 351.819 499.451 351.819C494.415 350.808 457.615 349.796 454.735 349.001C451.836 348.224 452.071 347.194 448.665 345.008C445.44 342.912 440.693 342.786 440.222 342.768C441.236 342.443 442.505 342.19 444.026 342.009C447.252 341.648 453.086 344.9 453.974 345.496C455.043 346.201 455.623 346.689 458.54 346.689H458.703C472.056 346.652 490.229 347.032 500.031 349.055Z" fill="url(#paint11_linear)"/>
</g>
</g>
</g>
</g>
</g>
</g>
<path d="M527.175 295.023L511.051 324.393C511.051 324.393 521.754 335.342 535.35 340.981C535.35 340.981 554.644 322.62 552.396 308.923C550.149 295.225 541.476 283.953 527.175 295.023Z" fill="#FFB63C"/>
<path d="M501.231 285.147C501.231 285.147 504.86 293.134 507.69 297.876C509.775 301.37 522.529 301.661 524.673 298.501C526.814 295.341 516.405 277.048 516.405 277.048" fill="#F1BA9B"/>
<path d="M543.21 440.556L543.079 440.567C563.661 434.695 558.787 409.096 558.461 407.813C561.292 413.28 560.893 418.21 560.838 422.653C560.722 432.002 552.553 439.75 543.21 440.556Z" fill="#1E2049"/>
<path d="M444.371 349.633C444.389 349.904 444.371 350.175 444.299 350.428C444.045 351.566 443.066 352.433 441.853 352.524L384.073 356.534H383.873C382.46 356.534 381.264 355.451 381.173 354.023C381.065 352.524 382.188 351.223 383.692 351.133L384.163 351.097L441.472 347.122C442.994 347.013 444.262 348.134 444.371 349.633Z" fill="#96EAEA"/>
<path d="M444.371 349.633C444.389 349.904 444.371 350.175 444.299 350.428L386.99 354.384C386.935 354.403 386.863 354.403 386.809 354.403C385.395 354.403 384.2 353.301 384.091 351.873C384.073 351.603 384.091 351.35 384.164 351.097L441.472 347.122C442.994 347.013 444.262 348.134 444.371 349.633Z" fill="#BCF5F7"/>
<path d="M441.979 358.937C432.177 355.884 415.78 354.963 402.408 353.716C399.908 353.5 397.589 352.452 395.705 350.825C394.889 350.139 389.453 346.255 386.228 346.255C385.449 346.255 384.743 346.273 384.09 346.345C380.068 346.652 378.437 347.971 378.075 350.031C377.659 352.433 377.55 355.053 380.105 357.275C382.659 359.497 389.109 358.485 388.747 357.69C399.346 362.442 422.447 372.053 437.576 374.005C440.983 374.456 443.991 374.492 446.364 374.022C459.246 371.439 477.075 354.909 486.841 344.972C491.189 340.546 493.925 337.438 493.925 337.438L467.689 320.438C467.689 320.438 450.93 343.798 441.979 358.937Z" fill="url(#paint12_linear)"/>
<g opacity="0.199997">
<g opacity="0.199997">
<g opacity="0.199997">
<g opacity="0.199997">
<g opacity="0.199997">
<path opacity="0.199997" d="M486.841 344.972C477.075 354.909 459.247 371.439 446.364 374.022C443.991 374.492 440.983 374.456 437.576 374.005C437.722 373.986 437.884 373.968 438.047 373.95C456.619 372.125 479.267 346.255 479.267 346.255L486.841 344.972Z" fill="url(#paint13_linear)"/>
</g>
</g>
</g>
</g>
</g>
<g opacity="0.369995">
<g opacity="0.369995">
<g opacity="0.369995">
<g opacity="0.369995">
<g opacity="0.369995">
<g opacity="0.369995">
<path opacity="0.369995" d="M441.979 358.937L440.837 361.412C431.779 358.323 412.681 357.347 401.955 355.162C391.229 352.975 394.98 351.892 390.631 349.399C388.475 348.17 386.192 347.158 384.09 346.345C384.743 346.273 385.449 346.255 386.228 346.255C389.453 346.255 394.889 350.139 395.705 350.825C397.589 352.452 399.908 353.5 402.409 353.716C415.78 354.963 432.178 355.884 441.979 358.937Z" fill="url(#paint14_linear)"/>
</g>
</g>
</g>
</g>
</g>
</g>
<path d="M570.295 391.438C570.186 392.251 569.406 392.685 569.406 392.685C564.624 395.72 558.391 397.563 551.959 398.647C551.904 398.647 551.832 398.665 551.759 398.682C551.071 398.791 550.364 398.9 549.676 398.99H549.64C534.474 401.104 518.965 399.315 518.965 399.315C518.965 399.315 516.591 399.423 515.83 397.888C515.359 396.912 516.41 394.69 516.338 393.227C516.011 387.5 517.733 379.099 516.7 375.685C514.29 367.681 502.695 348.387 499.035 342.407C498.31 341.215 497.513 340.094 496.624 339.028C496.063 338.342 495.465 337.656 494.867 336.951C489.087 345.027 481.351 351.35 481.351 351.35C471.748 346.219 463.794 338.179 460.279 334.331C459.047 332.958 458.358 332.127 458.358 332.127L477.256 304.468C477.256 304.45 477.274 304.45 477.292 304.432C479.032 301.758 483.633 299.193 489.54 296.898C489.577 296.88 489.594 296.863 489.631 296.844C503.872 291.388 525.632 287.576 533.659 288.209C534.836 288.299 535.96 288.461 537.029 288.678C545.273 290.322 552.212 295.778 556.398 303.041C573.284 332.524 571.346 373.138 569.987 387.445C569.824 389.198 570.403 390.553 570.295 391.438Z" fill="#FFC340"/>
<path d="M489.54 296.898C489.504 296.934 489.45 296.952 489.395 296.971C486.713 298.054 482.639 301.019 479.223 305.521C476.837 308.664 460.278 334.331 460.278 334.331C459.047 332.958 458.358 332.127 458.358 332.127L477.256 304.468C477.256 304.45 477.273 304.45 477.292 304.432C479.032 301.758 483.633 299.193 489.54 296.898Z" fill="#FFE5B6"/>
<path d="M480.687 256.711C480.687 256.711 483.328 273.959 482.044 280.883C480.759 287.808 488.175 293.223 500.992 288.982C500.992 288.982 513.938 283.974 518.991 276.529C525.692 266.658 530.134 245.843 512.619 237.281C498.43 230.345 477.821 241.12 480.687 256.711Z" fill="#F1BA9B"/>
<path d="M482.281 266.336C482.281 266.336 480.19 270.83 480.416 272.573C480.643 274.316 484.243 274.39 484.243 274.39" fill="#F1BA9B"/>
<path d="M523.2 245.018C520.091 237.785 514.613 234.553 508.977 233.422V233.421C508.977 233.421 508.908 233.406 508.788 233.383C507.42 233.119 506.045 232.979 504.692 232.934C498.33 232.638 486.095 233.724 476.394 244.566C476.394 244.566 473.562 252.513 487.73 256.668C488.461 258.222 489.09 260.039 489.53 262.18C491.945 273.923 497.808 283.931 501.457 286.08C505.106 288.228 518.132 285.22 520.094 284.014C522.056 282.812 529.994 260.825 523.2 245.018Z" fill="#4A3204"/>
<path d="M488.839 263.83C488.839 263.83 490.325 259.571 493.87 261.315C497.416 263.056 494.965 273.997 491.154 272.417" fill="#F1BA9B"/>
<path d="M483.559 256.02C483.559 256.02 485.964 270.991 491.441 274.187C498.444 278.273 507.729 260.395 507.729 260.395L505.348 259.955C505.348 259.955 498.581 273.82 492.988 272.946C488.196 272.196 485.308 255.165 485.308 255.165" fill="#354C43"/>
<path d="M493.77 273.954C493.77 273.954 491.634 289.238 498.963 289.588C498.963 289.588 498.503 290.481 496.45 290.481C494.235 290.481 490.151 286.542 491.805 273.238" fill="#354C43"/>
<path d="M526.973 262.808C526.973 262.808 501.969 262.609 486.533 257.189C486.478 257.171 486.46 257.153 486.46 257.153C483.869 256.25 481.568 255.184 479.684 253.955C477.618 252.6 476.151 251.101 475.154 249.529C469.791 241.11 477.6 230.704 477.6 230.704C482.365 225.953 490.863 219.973 511.047 227.76C511.21 227.832 511.373 227.886 511.536 227.976C511.627 228.013 511.681 228.03 511.717 228.03L511.735 228.048C513.928 228.952 515.812 230.09 517.442 231.373V231.391C530.724 241.833 526.973 262.808 526.973 262.808Z" fill="#FFC340"/>
<path d="M514.6 252.299C507.345 259.865 486.461 257.153 486.461 257.153C486.461 257.153 486.479 257.171 486.533 257.189C501.97 262.609 526.973 262.808 526.973 262.808C526.973 262.808 530.724 241.833 517.443 231.391C520.858 236.764 522.306 244.261 514.6 252.299Z" fill="url(#paint15_linear)"/>
<path d="M511.536 227.976C509.598 227.29 494.46 222.385 484.993 227.488C472.694 234.119 475.154 249.529 475.154 249.529C469.791 241.11 477.6 230.704 477.6 230.704C482.365 225.953 490.863 219.973 511.047 227.76C511.21 227.832 511.374 227.886 511.536 227.976Z" fill="#FFE5B6"/>
<path d="M383.402 355.143C383.33 355.902 382.587 356.372 381.88 356.661L377.332 356.968H377.133C375.72 356.968 374.524 355.884 374.434 354.457C374.397 353.879 374.524 353.336 374.813 352.885C375.248 352.145 376.028 351.62 376.951 351.566L378.238 351.476C380.014 351.35 381.753 352.108 382.786 353.517C383.076 353.897 383.275 354.258 383.366 354.602C383.42 354.8 383.438 354.981 383.402 355.143Z" fill="#96EAEA"/>
<path d="M383.402 355.143L378.238 355.486H377.984C376.426 355.486 375.086 354.384 374.814 352.885C375.249 352.145 376.028 351.62 376.952 351.566L378.238 351.476C380.014 351.35 381.754 352.108 382.786 353.517C383.076 353.897 383.276 354.258 383.366 354.602C383.42 354.8 383.438 354.98 383.402 355.143Z" fill="#BCF5F7"/>
<g opacity="0.309998">
<g opacity="0.309998">
<g opacity="0.309998">
<g opacity="0.309998">
<g opacity="0.309998">
<path opacity="0.309998" d="M549.638 398.995C534.473 401.109 518.963 399.32 518.963 399.32C518.963 399.32 516.589 399.428 515.829 397.893C515.357 396.917 516.408 394.696 516.336 393.232C516.01 387.505 517.731 379.105 516.698 375.69C514.288 367.687 502.692 348.392 499.032 342.412C498.308 341.22 497.511 340.099 496.623 339.034C496.061 338.347 495.463 337.661 494.865 336.957C494.865 336.957 498.906 331.79 500.681 328.935C500.681 328.935 515.883 353.324 521.627 367.326C527.352 381.326 522.677 393.521 523.728 395.779C524.707 397.839 541.811 399.718 549.638 398.995Z" fill="url(#paint16_linear)"/>
</g>
</g>
</g>
</g>
</g>
<path d="M463.069 551.471C463.069 551.471 465.771 549.937 467.716 550.959C469.665 551.98 468.961 553.77 470.139 555.199C471.319 556.63 472.651 559.593 469.217 562.097C465.785 564.601 459.07 569.13 457.639 569.974C452.493 573.011 446.73 569.949 447.596 567.649C448.593 565.003 455.27 558.238 457.433 556.783C459.544 555.366 460.642 552.644 463.069 551.471Z" fill="#4F2411"/>
<path d="M455.713 569.063C454.854 569.063 454.092 568.454 453.933 567.584C453.752 566.602 454.401 565.659 455.386 565.48L471.745 562.478C472.731 562.29 473.673 562.948 473.854 563.929C474.034 564.909 473.383 565.853 472.4 566.031L456.042 569.032C455.932 569.054 455.821 569.063 455.713 569.063Z" fill="#94D3D3"/>
<path d="M483.918 491.208C483.059 491.208 482.3 490.599 482.139 489.728C481.958 488.748 482.608 487.804 483.592 487.626L499.951 484.625C500.938 484.437 501.879 485.092 502.06 486.073C502.24 487.055 501.591 487.998 500.605 488.177L484.248 491.177C484.137 491.199 484.027 491.208 483.918 491.208Z" fill="#94D3D3"/>
<path d="M423.014 402.343L421.755 399.51L424.328 391.919L425.587 394.751L423.014 402.343Z" fill="#BCF5F7"/>
<path d="M429.926 381.943L428.076 380.856L429.855 375.61L431.704 376.697L429.926 381.943Z" fill="#BCF5F7"/>
<path d="M490.094 296.692C490.094 296.692 499.302 293.279 505.782 309.327L514.131 307.043C514.131 307.043 510.05 294.204 501.12 293.192C501.12 293.192 495.953 292.774 490.094 296.692Z" fill="#395248"/>
<path d="M581.181 393.774C581.181 396.285 579.423 398.453 576.85 399.085C571.288 400.44 560.671 402.608 547.209 403.367C538.367 403.872 531.735 402.409 528.51 390.124C524.162 373.594 512.204 346.17 504.014 320.389C501.351 312.024 495.734 293.669 518.038 288.159C518.056 288.159 518.056 288.141 518.074 288.141C518.745 287.979 519.451 287.816 520.194 287.69C520.213 287.671 520.23 287.671 520.23 287.671C520.611 287.599 521.009 287.527 521.408 287.454C523.89 287.039 526.39 286.551 528.855 286.136C531.391 285.702 533.892 285.287 536.338 284.907C542.788 283.914 551.938 282.812 557.337 285.54C563.896 288.882 566.251 296.813 568.371 304.039C575.963 329.801 581.126 371.155 581.181 393.774Z" fill="#354C43"/>
<path d="M541.174 284.133C538.728 284.513 536.228 284.928 533.691 285.359C512.226 291.312 514.687 304.112 519.83 317.393C530.602 345.194 539.569 370.687 544.327 387.11C548.835 402.666 554.267 402.249 563.092 401.743C570.213 401.346 576.636 399.788 581.688 398.31C584.261 397.678 586.018 395.51 586.018 392.997C585.964 370.38 580.8 329.027 573.208 303.263C571.088 296.039 568.732 288.107 562.174 284.765C559.639 283.484 556.28 283.047 552.759 283.047C548.781 283.049 544.597 283.606 541.174 284.133Z" fill="url(#paint17_linear)"/>
<path d="M546.909 351.826C546.909 351.826 540.155 352.645 543.079 362.807C546.005 372.969 550.546 389.908 552.578 393.745C554.61 397.584 587.52 391.689 589.487 389.796C592.434 386.96 591.525 352.081 586.018 348.58C584.983 347.923 581.999 347.628 578.062 347.628C568.6 347.628 553.625 349.333 546.909 351.826Z" fill="url(#paint18_linear)"/>
<path d="M593.194 389.582C591.219 391.479 558.878 398.272 556.286 393.539C555.018 391.208 552.826 383.927 550.67 376.304C550.181 374.623 549.709 372.926 549.239 371.263C548.369 368.156 547.535 365.157 546.792 362.591C543.857 352.438 547.136 351.517 549.982 350.831C559.838 348.428 586.201 346.133 589.734 348.374C592.306 349.999 593.865 358.418 594.498 367.234C594.625 369.023 594.734 370.847 594.789 372.618C595.042 380.874 594.498 388.335 593.194 389.582Z" fill="#FFC340"/>
<path d="M510.265 361.822C510.265 361.822 514.442 383.991 530.076 387.649L526.753 374.736C526.753 374.736 516.438 372.772 510.265 361.822Z" fill="#354C43"/>
<path d="M545.642 290.997C538.026 292.14 522.252 294.835 529.276 317.02C533.652 330.838 538.303 346.334 539.89 347.628C541.475 348.919 584.546 343.747 586.017 342.481C587.491 341.216 581.403 303.103 579.296 298.336C577.059 293.275 570.265 289.946 558.419 289.946C554.671 289.946 550.419 290.279 545.642 290.997Z" fill="url(#paint19_linear)"/>
<path d="M590.24 342.105C588.773 343.369 546.122 348.139 544.147 347.759C542.915 347.542 540.867 341.183 538.457 333.126C537.986 331.5 537.48 329.82 536.972 328.085C535.848 324.31 534.689 320.371 533.512 316.65C533.421 316.343 533.33 316.053 533.239 315.764C532.696 313.958 532.315 312.296 532.08 310.742C529.417 293.922 542.77 291.502 549.637 290.471C569.513 287.491 579.061 290.923 582.087 298.077C582.558 299.179 583.319 302.088 584.207 305.882V305.9C584.605 307.581 585.022 309.423 585.439 311.392C586.254 315.186 587.105 319.36 587.867 323.37C588.211 325.267 588.555 327.128 588.863 328.88C590.077 335.998 590.802 341.635 590.24 342.105Z" fill="#FFC340"/>
<path d="M520.303 341.671C519.687 342.43 519.197 341.274 519.053 340.984C519.053 340.984 496.586 297.5 518.038 288.159C518.056 288.159 518.056 288.141 518.074 288.141C518.745 287.979 519.451 287.816 520.194 287.69C519.578 287.979 507.135 292.688 510.418 311.432C511.999 320.453 513.414 323.865 515.719 330.29C518.31 337.552 520.846 340.984 520.303 341.671Z" fill="#385E4D"/>
<path d="M585.439 311.392C578.898 312.783 556.178 317.119 533.239 315.764C532.696 313.958 532.315 312.296 532.08 310.742C532.08 310.742 563.606 312.639 584.207 305.882V305.9C584.605 307.58 585.022 309.423 585.439 311.392Z" fill="#395248"/>
<path d="M594.788 372.618C585.946 374.262 568.661 376.9 550.669 376.304C550.18 374.623 549.709 372.925 549.238 371.263C557.5 371.516 578.427 371.625 594.498 367.234C594.625 369.023 594.733 370.847 594.788 372.618Z" fill="#395248"/>
<path d="M588.863 328.88C581.544 330.38 560.2 334.264 538.458 333.126C537.987 331.5 537.48 329.82 536.972 328.085C541.592 328.302 569.042 329.35 587.867 323.37C588.211 325.267 588.555 327.128 588.863 328.88Z" fill="#395248"/>
</g>
<defs>
<linearGradient id="paint0_linear" x1="383.338" y1="576.487" x2="778.023" y2="576.487" gradientUnits="userSpaceOnUse">
<stop stop-color="#2480C2"/>
<stop offset="1" stop-color="#2480C2"/>
</linearGradient>
<linearGradient id="paint1_linear" x1="373.763" y1="419.411" x2="778.023" y2="419.411" gradientUnits="userSpaceOnUse">
<stop stop-color="#2480C2"/>
<stop offset="1" stop-color="#2480C2"/>
</linearGradient>
<linearGradient id="paint2_linear" x1="337.455" y1="599.743" x2="685.981" y2="599.743" gradientUnits="userSpaceOnUse">
<stop stop-color="#2480C2"/>
<stop offset="1" stop-color="#2480C2"/>
</linearGradient>
<linearGradient id="paint3_linear" x1="329" y1="440.566" x2="685.981" y2="440.566" gradientUnits="userSpaceOnUse">
<stop stop-color="#2480C2"/>
<stop offset="1" stop-color="#2480C2"/>
</linearGradient>
<linearGradient id="paint4_linear" x1="494.152" y1="466.249" x2="494.152" y2="370.875" gradientUnits="userSpaceOnUse">
<stop stop-color="#FFA488"/>
<stop offset="0.491393" stop-color="#F1BA9B"/>
<stop offset="1" stop-color="#F1BA9B"/>
</linearGradient>
<linearGradient id="paint5_linear" x1="462.961" y1="426.529" x2="505.122" y2="426.529" gradientUnits="userSpaceOnUse">
<stop stop-color="white"/>
<stop offset="0.491393" stop-color="#F1BA9B"/>
<stop offset="1" stop-color="#F1BA9B"/>
</linearGradient>
<linearGradient id="paint6_linear" x1="475.431" y1="536.921" x2="475.431" y2="451.257" gradientUnits="userSpaceOnUse">
<stop stop-color="#FFA488"/>
<stop offset="0.491393" stop-color="#F1BA9B"/>
<stop offset="1" stop-color="#F1BA9B"/>
</linearGradient>
<linearGradient id="paint7_linear" x1="453.668" y1="442.114" x2="453.668" y2="546.361" gradientUnits="userSpaceOnUse">
<stop stop-color="white"/>
<stop offset="0.491393" stop-color="#F1BA9B"/>
<stop offset="1" stop-color="#F1BA9B"/>
</linearGradient>
<linearGradient id="paint8_linear" x1="526.464" y1="438.283" x2="563.388" y2="438.283" gradientUnits="userSpaceOnUse">
<stop stop-color="#FFB63C"/>
<stop offset="0.491393" stop-color="#FF9F3C"/>
<stop offset="1" stop-color="#FF9F3C"/>
</linearGradient>
<linearGradient id="paint9_linear" x1="464.644" y1="429.144" x2="575.328" y2="429.144" gradientUnits="userSpaceOnUse">
<stop stop-color="#252640"/>
<stop offset="0.491393" stop-color="#252655"/>
<stop offset="1" stop-color="#252655"/>
</linearGradient>
<linearGradient id="paint10_linear" x1="436.33" y1="336.382" x2="549.64" y2="336.382" gradientUnits="userSpaceOnUse">
<stop stop-color="#FFA488"/>
<stop offset="0.491393" stop-color="#F1BA9B"/>
<stop offset="1" stop-color="#F1BA9B"/>
</linearGradient>
<linearGradient id="paint11_linear" x1="485.754" y1="346.9" x2="525.474" y2="346.9" gradientUnits="userSpaceOnUse">
<stop stop-color="white"/>
<stop offset="0.491393" stop-color="#F1BA9B"/>
<stop offset="1" stop-color="#F1BA9B"/>
</linearGradient>
<linearGradient id="paint12_linear" x1="377.846" y1="347.399" x2="493.925" y2="347.399" gradientUnits="userSpaceOnUse">
<stop stop-color="#FFA488"/>
<stop offset="0.491393" stop-color="#F1BA9B"/>
<stop offset="1" stop-color="#F1BA9B"/>
</linearGradient>
<linearGradient id="paint13_linear" x1="462.209" y1="347.551" x2="462.209" y2="371.74" gradientUnits="userSpaceOnUse">
<stop stop-color="#FFA488"/>
<stop offset="0.491393" stop-color="#F1BA9B"/>
<stop offset="1" stop-color="#F1BA9B"/>
</linearGradient>
<linearGradient id="paint14_linear" x1="421.659" y1="353.833" x2="460.072" y2="353.833" gradientUnits="userSpaceOnUse">
<stop stop-color="white"/>
<stop offset="0.491393" stop-color="#F1BA9B"/>
<stop offset="1" stop-color="#F1BA9B"/>
</linearGradient>
<linearGradient id="paint15_linear" x1="486.461" y1="247.1" x2="527.462" y2="247.1" gradientUnits="userSpaceOnUse">
<stop stop-color="#FFB63C"/>
<stop offset="0.491393" stop-color="#FF923C"/>
<stop offset="1" stop-color="#FF923C"/>
</linearGradient>
<linearGradient id="paint16_linear" x1="522.251" y1="345.188" x2="522.251" y2="392.309" gradientUnits="userSpaceOnUse">
<stop stop-color="#FFB63C"/>
<stop offset="0.491393" stop-color="#FF9F3C"/>
<stop offset="1" stop-color="#FF9F3C"/>
</linearGradient>
<linearGradient id="paint17_linear" x1="516.294" y1="342.481" x2="586.018" y2="342.481" gradientUnits="userSpaceOnUse">
<stop stop-color="#395248"/>
<stop offset="1" stop-color="#393648"/>
</linearGradient>
<linearGradient id="paint18_linear" x1="581.713" y1="371.323" x2="548.527" y2="371.323" gradientUnits="userSpaceOnUse">
<stop stop-color="#FFB63C"/>
<stop offset="0.491393" stop-color="#FF923C"/>
<stop offset="1" stop-color="#FF923C"/>
</linearGradient>
<linearGradient id="paint19_linear" x1="567.225" y1="318.89" x2="522.792" y2="318.89" gradientUnits="userSpaceOnUse">
<stop stop-color="#FFB63C"/>
<stop offset="0.491393" stop-color="#FF923C"/>
<stop offset="1" stop-color="#FF923C"/>
</linearGradient>
<clipPath id="clip0">
<rect width="778" height="761" fill="white"/>
</clipPath>
</defs>
</svg>
