<svg width="25" height="25" viewBox="0 0 25 25" fill="none" xmlns="http://www.w3.org/2000/svg">
<path d="M12.5003 5.64832C8.93412 5.64832 6.03271 8.54973 6.03271 12.1159C6.03271 13.5754 6.51128 14.9545 7.41601 16.1033C7.5946 16.3307 7.78225 16.5483 7.98092 16.7788L7.99184 16.7914C8.59965 17.4966 9.22809 18.226 9.46279 19.0849C9.51584 19.2817 9.52338 19.6591 9.52032 19.9498V20.4439C9.52032 20.896 9.88689 21.2626 10.339 21.2626H14.626C15.0782 21.2626 15.4447 20.896 15.4447 20.4439V19.944C15.442 19.5644 15.4617 19.2873 15.5013 19.1435C15.7373 18.2903 16.4337 17.4711 17.0538 16.7419L17.0805 16.7104C17.2594 16.5002 17.4285 16.3016 17.5825 16.1059C18.4885 14.9564 18.9674 13.5767 18.9674 12.1159C18.9673 8.54973 16.0662 5.64832 12.5003 5.64832ZM16.2958 15.0931C16.161 15.2646 16.002 15.4514 15.8337 15.6491L15.8007 15.6878C15.0764 16.5397 14.2555 17.5052 13.9228 18.708C13.8758 18.8787 13.8235 19.1342 13.8102 19.6252H11.1562C11.1449 19.1037 11.0917 18.8363 11.0431 18.6561C10.7102 17.4375 9.89071 16.4865 9.23213 15.7223L9.22111 15.7094C9.03499 15.4936 8.85924 15.2897 8.70303 15.091C8.02732 14.233 7.67014 13.2042 7.67014 12.1159C7.67014 9.4526 9.837 7.28574 12.5003 7.28574C15.1633 7.28574 17.3299 9.4526 17.3299 12.1159C17.3299 13.2054 16.9725 14.2345 16.2958 15.0931Z" fill="#2F373D"/>
<path d="M14.626 21.495H10.3391C9.88695 21.495 9.52039 21.8616 9.52039 22.3137C9.52039 22.7659 9.88695 23.1324 10.3391 23.1324H14.6261C15.0782 23.1324 15.4448 22.7659 15.4448 22.3137C15.4448 21.8616 15.0781 21.495 14.626 21.495Z" fill="#2F373D"/>
<path d="M13.5542 23.3625H11.4108C10.9586 23.3625 10.592 23.7291 10.592 24.1813C10.592 24.6334 10.9586 25 11.4108 25H13.5542C14.0063 25 14.3729 24.6334 14.3729 24.1813C14.3729 23.7291 14.0063 23.3625 13.5542 23.3625Z" fill="#2F373D"/>
<path d="M23.7972 11.2972H20.9729C20.5207 11.2972 20.1542 11.6638 20.1542 12.116C20.1542 12.5681 20.5207 12.9347 20.9729 12.9347H23.7972C24.2494 12.9347 24.6159 12.5681 24.6159 12.116C24.6159 11.6638 24.2494 11.2972 23.7972 11.2972Z" fill="#2F373D"/>
<path d="M4.84613 12.116C4.84613 11.6638 4.47956 11.2972 4.02741 11.2972H1.20275C0.750598 11.2972 0.384033 11.6638 0.384033 12.116C0.384033 12.5681 0.750598 12.9347 1.20275 12.9347H4.02741C4.47956 12.9347 4.84613 12.5681 4.84613 12.116Z" fill="#2F373D"/>
<path d="M12.5001 4.46264C12.9523 4.46264 13.3188 4.09608 13.3188 3.64393V0.818713C13.3188 0.366565 12.9523 0 12.5001 0C12.048 0 11.6814 0.366565 11.6814 0.818713V3.64393C11.6814 4.09608 12.048 4.46264 12.5001 4.46264Z" fill="#2F373D"/>
<path d="M19.0698 17.5281C18.7501 17.2083 18.2318 17.2082 17.912 17.528C17.5922 17.8477 17.5921 18.366 17.9119 18.6858L19.9091 20.6836C20.069 20.8435 20.2785 20.9234 20.4881 20.9234C20.6976 20.9234 20.907 20.8435 21.067 20.6837C21.3867 20.364 21.3868 19.8457 21.0671 19.5258L19.0698 17.5281Z" fill="#2F373D"/>
<path d="M5.92939 6.7034C6.08931 6.86332 6.29879 6.94334 6.50838 6.94334C6.71787 6.94334 6.92735 6.86343 7.08716 6.70362C7.407 6.38388 7.40701 5.86558 7.08738 5.54585L5.09092 3.54863C4.77118 3.22878 4.25288 3.22878 3.93315 3.54841C3.6133 3.86814 3.6133 4.38644 3.93293 4.70618L5.92939 6.7034Z" fill="#2F373D"/>
<path d="M5.93019 17.528L3.93286 19.5258C3.61313 19.8455 3.61324 20.3639 3.93297 20.6836C4.09278 20.8434 4.30237 20.9233 4.51186 20.9233C4.72134 20.9233 4.93093 20.8434 5.09085 20.6834L7.08818 18.6857C7.40792 18.3659 7.40781 17.8475 7.08807 17.5279C6.76834 17.2083 6.24993 17.2083 5.93019 17.528Z" fill="#2F373D"/>
<path d="M18.4912 6.94321C18.7007 6.94321 18.9103 6.8633 19.0702 6.70338L21.067 4.70627C21.3868 4.38654 21.3866 3.86813 21.0669 3.5485C20.7472 3.22877 20.2288 3.22877 19.9091 3.54861L17.9124 5.54572C17.5926 5.86546 17.5927 6.38387 17.9125 6.70349C18.0722 6.86341 18.2816 6.94321 18.4912 6.94321Z" fill="#2F373D"/>
</svg>
