<svg width="213" height="38" viewBox="0 0 213 38" fill="none" xmlns="http://www.w3.org/2000/svg">
<path d="M20.5032 2.92987C21.3102 3.35218 21.7139 4.02526 21.7139 4.9491C21.7139 5.5034 21.5186 6.04449 21.1281 6.5724C20.7114 7.1267 20.1776 7.40385 19.5269 7.40385C19.0841 7.40385 18.6416 7.28507 18.199 7.04752C16.9232 6.44042 15.5433 6.13688 14.0593 6.13688C12.2368 6.13688 10.6486 6.53281 9.29475 7.32467C7.9409 8.09012 6.89947 9.18553 6.17046 10.6109C5.44147 12.0098 5.07696 13.6199 5.07696 15.4412C5.07696 18.5558 5.89708 20.9182 7.53734 22.5284C9.20363 24.1384 11.3776 24.9435 14.0593 24.9435C15.6475 24.9435 17.0274 24.6399 18.199 24.0329C18.6677 23.8216 19.0841 23.7161 19.4488 23.7161C20.1256 23.7161 20.6985 24.0064 21.1671 24.5872C21.5576 25.0886 21.7529 25.6297 21.7529 26.2105C21.7529 26.6327 21.6487 27.0155 21.4405 27.3587C21.2321 27.7017 20.9328 27.9657 20.5423 28.1505C18.5115 29.18 16.3504 29.6947 14.0593 29.6947C11.5078 29.6947 9.16457 29.1535 7.02964 28.0714C4.89472 26.9628 3.18938 25.3395 1.91362 23.2014C0.637875 21.0634 0 18.4766 0 15.4412C0 12.7489 0.598821 10.3337 1.79646 8.19571C3.02015 6.0577 4.69945 4.3948 6.83437 3.20702C8.96931 1.99283 11.3776 1.38575 14.0593 1.38575C16.3765 1.38575 18.5244 1.90046 20.5032 2.92987ZM40.9653 8.11652C41.6424 8.11652 42.2021 8.35408 42.6446 8.82919C43.0874 9.2779 43.3085 9.8454 43.3085 10.5317V27.3587C43.3085 30.7899 42.3973 33.2843 40.5748 34.8417C38.7524 36.4254 36.3179 37.2173 33.2718 37.2173C32.3867 37.2173 31.4753 37.1381 30.538 36.9797C29.6268 36.8476 28.8848 36.663 28.312 36.4254C27.0363 35.8711 26.3983 35.1056 26.3983 34.129C26.3983 33.9442 26.4374 33.7331 26.5155 33.4956C26.6717 32.9148 26.9321 32.4662 27.2966 32.1494C27.6871 31.8589 28.1037 31.7139 28.5463 31.7139C28.8067 31.7139 29.054 31.7535 29.2883 31.8327C29.4706 31.9119 29.783 32.0438 30.2256 32.2286C30.6942 32.4132 31.176 32.5585 31.6706 32.6641C32.1914 32.796 32.725 32.8621 33.2718 32.8621C35.1204 32.8621 36.4742 32.4528 37.3333 31.6347C38.2186 30.8429 38.6612 29.4702 38.6612 27.5171V27.1211C37.3074 28.8368 35.1985 29.6947 32.3345 29.6947C30.9807 29.6947 29.783 29.3779 28.7415 28.7444C27.7002 28.0845 26.8931 27.187 26.3202 26.0521C25.7476 24.8906 25.4611 23.5709 25.4611 22.0928V10.5317C25.4611 9.8454 25.6824 9.2779 26.125 8.82919C26.5677 8.35408 27.1274 8.11652 27.8043 8.11652C28.4813 8.11652 29.041 8.35408 29.4836 8.82919C29.9263 9.2779 30.1475 9.8454 30.1475 10.5317V20.6675C30.1475 22.3304 30.499 23.5313 31.2019 24.2704C31.931 24.9831 32.9854 25.3395 34.3653 25.3395C35.7192 25.3395 36.7607 24.9435 37.4896 24.1517C38.2447 23.3334 38.6221 22.172 38.6221 20.6675V10.5317C38.6221 9.8454 38.8435 9.2779 39.286 8.82919C39.7287 8.35408 40.2885 8.11652 40.9653 8.11652ZM57.291 7.7206C59.5041 7.7206 61.2876 8.07693 62.6413 8.7896C63.9952 9.47587 64.6721 10.3997 64.6721 11.5611C64.6721 12.1418 64.5029 12.6565 64.1644 13.1052C63.826 13.5275 63.3833 13.7387 62.8366 13.7387C62.4201 13.7387 62.0816 13.6859 61.8212 13.5803C61.5609 13.4483 61.3005 13.29 61.0401 13.1052C60.8058 12.894 60.5715 12.7225 60.3371 12.5905C60.0769 12.4585 59.6864 12.3397 59.1655 12.2342C58.671 12.1286 58.2673 12.0758 57.9549 12.0758C56.0022 12.0758 54.4661 12.6961 53.3466 13.9367C52.2531 15.1508 51.7063 16.7478 51.7063 18.7275C51.7063 20.6279 52.2662 22.2116 53.3856 23.4786C54.5052 24.7191 55.9372 25.3395 57.6815 25.3395C58.9573 25.3395 59.9076 25.1811 60.5324 24.8643C60.6886 24.7852 60.897 24.6531 61.1573 24.4684C61.4438 24.2571 61.704 24.0988 61.9383 23.9933C62.1727 23.8877 62.4592 23.8349 62.7975 23.8349C63.4485 23.8349 63.9562 24.046 64.3206 24.4684C64.7111 24.8906 64.9064 25.4318 64.9064 26.0917C64.9064 26.7252 64.542 27.3191 63.8129 27.8734C63.084 28.4277 62.1206 28.8763 60.9229 29.2195C59.7254 29.5363 58.4496 29.6947 57.0957 29.6947C55.091 29.6947 53.3206 29.2195 51.7844 28.2693C50.2745 27.3191 49.1028 26.0125 48.2696 24.3496C47.4365 22.6603 47.0199 20.7863 47.0199 18.7275C47.0199 16.5894 47.4495 14.6889 48.3086 13.026C49.1939 11.3631 50.4175 10.0698 51.9797 9.14594C53.5418 8.19571 55.3124 7.7206 57.291 7.7206ZM73.3674 26.8836C73.3674 27.5698 73.1331 28.1505 72.6644 28.6257C72.2219 29.0743 71.662 29.2987 70.9851 29.2987C70.3342 29.2987 69.7874 29.0743 69.3449 28.6257C68.9023 28.1505 68.6809 27.5698 68.6809 26.8836V2.41516C68.6809 1.72888 68.9023 1.16139 69.3449 0.712674C69.8135 0.23756 70.3863 0 71.0632 0C71.7142 0 72.2609 0.23756 72.7035 0.712674C73.146 1.16139 73.3674 1.72888 73.3674 2.41516V26.8836ZM83.2296 26.8836C83.2296 27.5698 83.0083 28.1505 82.5657 28.6257C82.123 29.0743 81.5633 29.2987 80.8864 29.2987C80.2094 29.2987 79.6497 29.0743 79.2071 28.6257C78.7644 28.1505 78.5432 27.5698 78.5432 26.8836V10.5317C78.5432 9.8454 78.7644 9.2779 79.2071 8.82919C79.6497 8.35408 80.2094 8.11652 80.8864 8.11652C81.5633 8.11652 82.123 8.35408 82.5657 8.82919C83.0083 9.2779 83.2296 9.8454 83.2296 10.5317V26.8836ZM80.8474 5.54299C79.9621 5.54299 79.3372 5.39781 78.9728 5.10747C78.6082 4.81711 78.4261 4.30241 78.4261 3.56335V2.81109C78.4261 2.07202 78.6213 1.55731 79.0119 1.26697C79.4024 0.976614 80.0273 0.831452 80.8864 0.831452C81.7976 0.831452 82.4354 0.976614 82.8001 1.26697C83.1645 1.55731 83.3468 2.07202 83.3468 2.81109V3.56335C83.3468 4.32881 83.1515 4.85671 82.761 5.14706C82.3964 5.411 81.7586 5.54299 80.8474 5.54299ZM99.2153 7.7206C101.871 7.7206 103.707 8.52564 104.722 10.1358C105.737 11.7195 106.245 13.9235 106.245 16.7478V26.8836C106.245 27.5698 106.024 28.1505 105.581 28.6257C105.139 29.0743 104.579 29.2987 103.902 29.2987C103.225 29.2987 102.665 29.0743 102.222 28.6257C101.78 28.1505 101.559 27.5698 101.559 26.8836V16.7478C101.559 15.296 101.259 14.161 100.66 13.3428C100.062 12.4981 99.033 12.0758 97.5751 12.0758C96.065 12.0758 94.8804 12.5245 94.0212 13.422C93.162 14.293 92.7324 15.4016 92.7324 16.7478V26.8836C92.7324 27.5698 92.5111 28.1505 92.0685 28.6257C91.626 29.0743 91.0661 29.2987 90.3892 29.2987C89.7124 29.2987 89.1525 29.0743 88.7099 28.6257C88.2674 28.1505 88.046 27.5698 88.046 26.8836V10.5317C88.046 9.8454 88.2674 9.2779 88.7099 8.82919C89.1525 8.35408 89.7124 8.11652 90.3892 8.11652C91.0661 8.11652 91.626 8.35408 92.0685 8.82919C92.5111 9.2779 92.7324 9.8454 92.7324 10.5317V11.2048C93.4354 10.2545 94.3466 9.43628 95.4662 8.75001C96.6117 8.06372 97.8614 7.7206 99.2153 7.7206ZM128.611 7.7206C129.288 7.7206 129.848 7.94494 130.29 8.39367C130.733 8.84239 130.954 9.42308 130.954 10.1358V27.7546C130.954 30.9748 129.965 33.3503 127.986 34.8813C126.034 36.4386 123.547 37.2173 120.527 37.2173C119.746 37.2173 118.665 37.0852 117.286 36.8214C115.932 36.5573 114.968 36.2933 114.396 36.0295C113.12 35.4752 112.482 34.7096 112.482 33.7331C112.482 33.5483 112.521 33.3372 112.599 33.0996C112.755 32.5189 113.016 32.0702 113.38 31.7535C113.771 31.463 114.187 31.318 114.63 31.318C114.89 31.318 115.138 31.3576 115.372 31.4367C115.476 31.463 116.114 31.7006 117.286 32.1494C118.483 32.6245 119.564 32.8621 120.527 32.8621C122.454 32.8621 123.886 32.4662 124.823 31.6743C125.786 30.9087 126.268 29.8134 126.268 28.3881V26.4876C125.695 27.3058 124.823 28.0449 123.651 28.7048C122.506 29.3646 121.269 29.6947 119.941 29.6947C118.119 29.6947 116.452 29.2327 114.942 28.3089C113.458 27.3587 112.287 26.0521 111.428 24.3892C110.568 22.7263 110.139 20.839 110.139 18.7275C110.139 16.6157 110.555 14.7285 111.389 13.0656C112.248 11.3763 113.406 10.0698 114.864 9.14594C116.348 8.19571 117.989 7.7206 119.785 7.7206C121.113 7.7206 122.349 7.99774 123.495 8.55204C124.641 9.10634 125.565 9.77942 126.268 10.5713V10.1358C126.268 9.44947 126.489 8.88198 126.932 8.43327C127.374 7.95815 127.934 7.7206 128.611 7.7206ZM120.527 25.3395C122.271 25.3395 123.69 24.7191 124.784 23.4786C125.903 22.2116 126.463 20.6279 126.463 18.7275C126.463 16.827 125.903 15.2432 124.784 13.9763C123.69 12.7093 122.271 12.0758 120.527 12.0758C118.783 12.0758 117.364 12.7093 116.27 13.9763C115.177 15.2432 114.63 16.827 114.63 18.7275C114.63 20.6279 115.177 22.2116 116.27 23.4786C117.364 24.7191 118.783 25.3395 120.527 25.3395ZM152.242 6.13688V13.1052H160.678C161.354 13.1052 161.914 13.3296 162.357 13.7783C162.825 14.2006 163.06 14.7549 163.06 15.4412C163.06 16.0219 162.825 16.5365 162.357 16.9854C161.914 17.434 161.354 17.6585 160.678 17.6585H152.242V26.8836C152.242 27.5698 151.994 28.1505 151.5 28.6257C151.031 29.0743 150.471 29.2987 149.821 29.2987C149.092 29.2987 148.493 29.0743 148.024 28.6257C147.581 28.1768 147.36 27.5962 147.36 26.8836V3.99887C147.36 3.31259 147.581 2.7451 148.024 2.29638C148.493 1.82127 149.065 1.58371 149.743 1.58371H162.435C163.112 1.58371 163.672 1.80806 164.114 2.25679C164.583 2.6791 164.817 3.2334 164.817 3.91969C164.817 4.50037 164.583 5.01508 164.114 5.46381C163.672 5.91252 163.112 6.13688 162.435 6.13688H152.242ZM173.312 26.8836C173.312 27.5698 173.091 28.1505 172.648 28.6257C172.206 29.0743 171.646 29.2987 170.969 29.2987C170.292 29.2987 169.732 29.0743 169.29 28.6257C168.847 28.1505 168.626 27.5698 168.626 26.8836V10.5317C168.626 9.8454 168.847 9.2779 169.29 8.82919C169.732 8.35408 170.292 8.11652 170.969 8.11652C171.646 8.11652 172.206 8.35408 172.648 8.82919C173.091 9.2779 173.312 9.8454 173.312 10.5317V26.8836ZM170.93 5.54299C170.045 5.54299 169.42 5.39781 169.055 5.10747C168.691 4.81711 168.509 4.30241 168.509 3.56335V2.81109C168.509 2.07202 168.704 1.55731 169.094 1.26697C169.485 0.976614 170.11 0.831452 170.969 0.831452C171.88 0.831452 172.518 0.976614 172.883 1.26697C173.247 1.55731 173.429 2.07202 173.429 2.81109V3.56335C173.429 4.32881 173.234 4.85671 172.844 5.14706C172.479 5.411 171.841 5.54299 170.93 5.54299ZM191.445 24.9435C192.07 24.9435 192.592 25.1546 193.007 25.577C193.424 25.9729 193.632 26.4876 193.632 27.1211C193.632 27.7282 193.424 28.2429 193.007 28.6652C192.592 29.0874 192.07 29.2987 191.445 29.2987H178.87C178.272 29.2987 177.764 29.0874 177.347 28.6652C176.957 28.2164 176.762 27.7413 176.762 27.2399C176.762 26.7911 176.814 26.4216 176.918 26.1313C177.022 25.8146 177.217 25.4582 177.503 25.0623L186.798 12.8677H179.221C178.597 12.8677 178.076 12.6565 177.659 12.2342C177.244 11.8118 177.034 11.2839 177.034 10.6505C177.034 10.0434 177.244 9.54186 177.659 9.14594C178.076 8.72361 178.597 8.51245 179.221 8.51245H191.25C191.823 8.51245 192.304 8.72361 192.695 9.14594C193.112 9.54186 193.32 10.0434 193.32 10.6505C193.32 11.0464 193.281 11.3895 193.203 11.6799C193.124 11.9438 192.943 12.2606 192.656 12.6301L183.283 24.9435H191.445ZM210.363 24.9435C210.988 24.9435 211.508 25.1546 211.925 25.577C212.341 25.9729 212.55 26.4876 212.55 27.1211C212.55 27.7282 212.341 28.2429 211.925 28.6652C211.508 29.0874 210.988 29.2987 210.363 29.2987H197.788C197.188 29.2987 196.68 29.0874 196.265 28.6652C195.874 28.2164 195.679 27.7413 195.679 27.2399C195.679 26.7911 195.73 26.4216 195.835 26.1313C195.938 25.8146 196.133 25.4582 196.421 25.0623L205.716 12.8677H198.139C197.514 12.8677 196.993 12.6565 196.577 12.2342C196.16 11.8118 195.952 11.2839 195.952 10.6505C195.952 10.0434 196.16 9.54186 196.577 9.14594C196.993 8.72361 197.514 8.51245 198.139 8.51245H210.168C210.739 8.51245 211.222 8.72361 211.613 9.14594C212.028 9.54186 212.238 10.0434 212.238 10.6505C212.238 11.0464 212.199 11.3895 212.121 11.6799C212.042 11.9438 211.86 12.2606 211.574 12.6301L202.201 24.9435H210.363Z" fill="url(#paint0_linear)"/>
<defs>
<linearGradient id="paint0_linear" x1="237.016" y1="0" x2="29.8182" y2="0" gradientUnits="userSpaceOnUse">
<stop stop-color="#FF923C"/>
<stop offset="1" stop-color="#FFC340"/>
</linearGradient>
</defs>
</svg>
