<svg width="845" height="122" viewBox="0 0 845 122" fill="none" xmlns="http://www.w3.org/2000/svg">
<path d="M213.363 10.4369C216.013 11.8022 217.338 13.9782 217.338 16.9649C217.338 18.7569 216.697 20.5062 215.415 22.2129C214.046 24.0049 212.294 24.9009 210.156 24.9009C208.703 24.9009 207.249 24.5169 205.796 23.7489C201.606 21.7862 197.075 20.8049 192.201 20.8049C186.217 20.8049 181.001 22.0849 176.555 24.6449C172.109 27.1195 168.689 30.6609 166.295 35.2689C163.901 39.7915 162.704 44.9969 162.704 50.8849C162.704 60.954 165.398 68.5916 170.784 73.7971C176.256 79.002 183.395 81.6051 192.201 81.6051C197.417 81.6051 201.948 80.6236 205.796 78.6611C207.335 77.978 208.703 77.6371 209.9 77.6371C212.123 77.6371 214.004 78.5756 215.543 80.4531C216.825 82.074 217.467 83.8236 217.467 85.7011C217.467 87.066 217.124 88.3036 216.441 89.4131C215.756 90.522 214.773 91.3756 213.491 91.9731C206.822 95.3011 199.725 96.9651 192.201 96.9651C183.823 96.9651 176.128 95.2156 169.117 91.7171C162.106 88.1331 156.506 82.8851 152.316 75.9731C148.127 69.0611 146.032 60.698 146.032 50.8849C146.032 42.1809 147.999 34.3729 151.932 27.4609C155.95 20.5489 161.465 15.1729 168.476 11.3329C175.487 7.4075 183.395 5.44486 192.201 5.44486C199.811 5.44486 206.865 7.10886 213.363 10.4369ZM280.558 27.2049C282.782 27.2049 284.62 27.9729 286.073 29.5089C287.527 30.9595 288.253 32.7942 288.253 35.0129V89.4131C288.253 100.506 285.261 108.57 279.276 113.605C273.291 118.725 265.297 121.285 255.293 121.285C252.387 121.285 249.394 121.029 246.316 120.517C243.324 120.09 240.887 119.493 239.006 118.725C234.817 116.933 232.722 114.458 232.722 111.301C232.722 110.704 232.85 110.021 233.106 109.253C233.619 107.376 234.475 105.925 235.671 104.901C236.954 103.962 238.322 103.493 239.775 103.493C240.631 103.493 241.443 103.621 242.212 103.877C242.811 104.133 243.837 104.56 245.29 105.157C246.829 105.754 248.411 106.224 250.035 106.565C251.746 106.992 253.498 107.205 255.293 107.205C261.364 107.205 265.81 105.882 268.631 103.237C271.538 100.677 272.992 96.2396 272.992 89.9251V88.6451C268.546 94.1916 261.621 96.9651 252.215 96.9651C247.77 96.9651 243.837 95.9411 240.417 93.8931C236.997 91.7596 234.346 88.858 232.465 85.1891C230.585 81.434 229.644 77.1676 229.644 72.3891V35.0129C229.644 32.7942 230.371 30.9595 231.824 29.5089C233.278 27.9729 235.116 27.2049 237.339 27.2049C239.562 27.2049 241.4 27.9729 242.853 29.5089C244.307 30.9595 245.034 32.7942 245.034 35.0129V67.7811C245.034 73.1571 246.188 77.0396 248.496 79.4291C250.89 81.7331 254.353 82.8851 258.884 82.8851C263.33 82.8851 266.751 81.6051 269.144 79.0451C271.624 76.3996 272.863 72.6451 272.863 67.7811V35.0129C272.863 32.7942 273.59 30.9595 275.044 29.5089C276.497 27.9729 278.335 27.2049 280.558 27.2049ZM334.17 25.9249C341.438 25.9249 347.294 27.0769 351.74 29.3809C356.186 31.5995 358.409 34.5862 358.409 38.3409C358.409 40.2182 357.853 41.8822 356.742 43.3329C355.631 44.6982 354.177 45.3809 352.381 45.3809C351.014 45.3809 349.902 45.2102 349.047 44.8689C348.192 44.4422 347.337 43.9302 346.482 43.3329C345.712 42.6502 344.943 42.0955 344.173 41.6689C343.319 41.2422 342.036 40.8582 340.326 40.5169C338.702 40.1755 337.376 40.0049 336.35 40.0049C329.938 40.0049 324.894 42.0102 321.217 46.0209C317.626 49.9462 315.831 55.1091 315.831 61.5091C315.831 67.6531 317.669 72.7731 321.345 76.8691C325.022 80.8796 329.724 82.8851 335.452 82.8851C339.642 82.8851 342.763 82.3731 344.815 81.3491C345.328 81.0931 346.012 80.666 346.867 80.0691C347.807 79.386 348.662 78.874 349.432 78.5331C350.201 78.1916 351.142 78.0211 352.253 78.0211C354.391 78.0211 356.058 78.7036 357.255 80.0691C358.537 81.434 359.178 83.1836 359.178 85.3171C359.178 87.3651 357.982 89.2851 355.587 91.0771C353.194 92.8691 350.03 94.3196 346.097 95.4291C342.164 96.4531 337.975 96.9651 333.529 96.9651C326.946 96.9651 321.132 95.4291 316.087 92.3571C311.128 89.2851 307.281 85.0611 304.545 79.6851C301.809 74.2236 300.441 68.1651 300.441 61.5091C300.441 54.5971 301.851 48.4529 304.673 43.0769C307.58 37.7009 311.598 33.5195 316.728 30.5329C321.858 27.4609 327.672 25.9249 334.17 25.9249ZM386.963 87.8771C386.963 90.0956 386.194 91.9731 384.655 93.5091C383.202 94.9596 381.363 95.6851 379.14 95.6851C377.002 95.6851 375.207 94.9596 373.754 93.5091C372.3 91.9731 371.574 90.0956 371.574 87.8771V8.77286C371.574 6.55415 372.3 4.7195 373.754 3.26886C375.293 1.73286 377.174 0.964844 379.397 0.964844C381.534 0.964844 383.33 1.73286 384.783 3.26886C386.236 4.7195 386.963 6.55415 386.963 8.77286V87.8771ZM419.35 87.8771C419.35 90.0956 418.623 91.9731 417.17 93.5091C415.716 94.9596 413.878 95.6851 411.655 95.6851C409.432 95.6851 407.594 94.9596 406.14 93.5091C404.687 91.9731 403.96 90.0956 403.96 87.8771V35.0129C403.96 32.7942 404.687 30.9595 406.14 29.5089C407.594 27.9729 409.432 27.2049 411.655 27.2049C413.878 27.2049 415.716 27.9729 417.17 29.5089C418.623 30.9595 419.35 32.7942 419.35 35.0129V87.8771ZM411.527 18.8849C408.62 18.8849 406.568 18.4155 405.371 17.4769C404.174 16.5382 403.575 14.8742 403.575 12.4849V10.0529C403.575 7.6635 404.217 5.9995 405.499 5.06086C406.782 4.12215 408.834 3.65286 411.655 3.65286C414.647 3.65286 416.742 4.12215 417.939 5.06086C419.136 5.9995 419.735 7.6635 419.735 10.0529V12.4849C419.735 14.9595 419.094 16.6662 417.811 17.6049C416.614 18.4582 414.519 18.8849 411.527 18.8849ZM471.845 25.9249C480.566 25.9249 486.594 28.5275 489.928 33.7329C493.263 38.8529 494.93 45.9782 494.93 55.1091V87.8771C494.93 90.0956 494.203 91.9731 492.75 93.5091C491.297 94.9596 489.458 95.6851 487.235 95.6851C485.012 95.6851 483.174 94.9596 481.721 93.5091C480.267 91.9731 479.54 90.0956 479.54 87.8771V55.1091C479.54 50.4155 478.557 46.7462 476.591 44.1009C474.624 41.3702 471.247 40.0049 466.459 40.0049C461.5 40.0049 457.61 41.4555 454.788 44.3569C451.967 47.1729 450.556 50.7569 450.556 55.1091V87.8771C450.556 90.0956 449.829 91.9731 448.376 93.5091C446.923 94.9596 445.084 95.6851 442.861 95.6851C440.639 95.6851 438.8 94.9596 437.347 93.5091C435.893 91.9731 435.166 90.0956 435.166 87.8771V35.0129C435.166 32.7942 435.893 30.9595 437.347 29.5089C438.8 27.9729 440.639 27.2049 442.861 27.2049C445.084 27.2049 446.923 27.9729 448.376 29.5089C449.829 30.9595 450.556 32.7942 450.556 35.0129V37.1889C452.865 34.1169 455.857 31.4715 459.534 29.2529C463.295 27.0342 467.399 25.9249 471.845 25.9249ZM568.378 25.9249C570.601 25.9249 572.439 26.6502 573.893 28.1009C575.346 29.5515 576.073 31.4289 576.073 33.7329V90.6931C576.073 101.104 572.824 108.784 566.326 113.733C559.914 118.768 551.749 121.285 541.831 121.285C539.266 121.285 535.718 120.858 531.186 120.005C526.74 119.152 523.577 118.298 521.696 117.445C517.506 115.653 515.412 113.178 515.412 110.021C515.412 109.424 515.54 108.741 515.797 107.973C516.31 106.096 517.164 104.645 518.362 103.621C519.644 102.682 521.012 102.213 522.466 102.213C523.32 102.213 524.133 102.341 524.902 102.597C525.244 102.682 527.339 103.45 531.186 104.901C535.119 106.437 538.667 107.205 541.831 107.205C548.158 107.205 552.86 105.925 555.938 103.365C559.101 100.89 560.683 97.3491 560.683 92.7411V86.5971C558.802 89.242 555.938 91.6316 552.091 93.7651C548.329 95.898 544.268 96.9651 539.907 96.9651C533.922 96.9651 528.45 95.4716 523.492 92.4851C518.618 89.4131 514.771 85.1891 511.949 79.8131C509.128 74.4371 507.717 68.3356 507.717 61.5091C507.717 54.682 509.085 48.5809 511.821 43.2049C514.642 37.7435 518.447 33.5195 523.235 30.5329C528.108 27.4609 533.495 25.9249 539.394 25.9249C543.755 25.9249 547.816 26.8209 551.578 28.6129C555.34 30.4049 558.375 32.5809 560.683 35.1409V33.7329C560.683 31.5142 561.41 29.6795 562.864 28.2289C564.317 26.6929 566.155 25.9249 568.378 25.9249ZM541.831 82.8851C547.559 82.8851 552.219 80.8796 555.81 76.8691C559.486 72.7731 561.325 67.6531 561.325 61.5091C561.325 55.3651 559.486 50.2449 555.81 46.1489C552.219 42.0529 547.559 40.0049 541.831 40.0049C536.102 40.0049 531.443 42.0529 527.852 46.1489C524.261 50.2449 522.466 55.3651 522.466 61.5091C522.466 67.6531 524.261 72.7731 527.852 76.8691C531.443 80.8796 536.102 82.8851 541.831 82.8851ZM645.979 20.8049V43.3329H673.681C675.904 43.3329 677.742 44.0582 679.196 45.5089C680.735 46.8742 681.504 48.6662 681.504 50.8849C681.504 52.7622 680.735 54.426 679.196 55.8771C677.742 57.3276 675.904 58.0531 673.681 58.0531H645.979V87.8771C645.979 90.0956 645.167 91.9731 643.543 93.5091C642.004 94.9596 640.165 95.6851 638.028 95.6851C635.634 95.6851 633.668 94.9596 632.129 93.5091C630.675 92.058 629.948 90.1811 629.948 87.8771V13.8929C629.948 11.6742 630.675 9.8395 632.129 8.38886C633.668 6.85286 635.548 6.08486 637.772 6.08486H679.452C681.675 6.08486 683.513 6.81015 684.967 8.26086C686.506 9.62615 687.275 11.4182 687.275 13.6369C687.275 15.5142 686.506 17.1782 684.967 18.6289C683.513 20.0795 681.675 20.8049 679.452 20.8049H645.979ZM715.172 87.8771C715.172 90.0956 714.445 91.9731 712.992 93.5091C711.538 94.9596 709.7 95.6851 707.477 95.6851C705.254 95.6851 703.416 94.9596 701.963 93.5091C700.509 91.9731 699.782 90.0956 699.782 87.8771V35.0129C699.782 32.7942 700.509 30.9595 701.963 29.5089C703.416 27.9729 705.254 27.2049 707.477 27.2049C709.7 27.2049 711.538 27.9729 712.992 29.5089C714.445 30.9595 715.172 32.7942 715.172 35.0129V87.8771ZM707.349 18.8849C704.442 18.8849 702.39 18.4155 701.193 17.4769C699.996 16.5382 699.398 14.8742 699.398 12.4849V10.0529C699.398 7.6635 700.039 5.9995 701.321 5.06086C702.604 4.12215 704.656 3.65286 707.477 3.65286C710.47 3.65286 712.564 4.12215 713.762 5.06086C714.958 5.9995 715.557 7.6635 715.557 10.0529V12.4849C715.557 14.9595 714.916 16.6662 713.633 17.6049C712.436 18.4582 710.341 18.8849 707.349 18.8849ZM774.719 81.6051C776.771 81.6051 778.485 82.2876 779.849 83.6531C781.219 84.9331 781.901 86.5971 781.901 88.6451C781.901 90.6076 781.219 92.2716 779.849 93.6371C778.485 95.002 776.771 95.6851 774.719 95.6851H733.423C731.459 95.6851 729.791 95.002 728.421 93.6371C727.141 92.186 726.5 90.65 726.5 89.0291C726.5 87.578 726.671 86.3836 727.013 85.4451C727.355 84.4211 727.996 83.2691 728.934 81.9891L759.457 42.5649H734.577C732.525 42.5649 730.817 41.8822 729.447 40.5169C728.083 39.1515 727.395 37.4449 727.395 35.3969C727.395 33.4342 728.083 31.8129 729.447 30.5329C730.817 29.1675 732.525 28.4849 734.577 28.4849H774.078C775.961 28.4849 777.54 29.1675 778.823 30.5329C780.193 31.8129 780.875 33.4342 780.875 35.3969C780.875 36.6769 780.747 37.7862 780.49 38.7249C780.234 39.5782 779.639 40.6022 778.695 41.7969L747.915 81.6051H774.719ZM836.843 81.6051C838.895 81.6051 840.603 82.2876 841.973 83.6531C843.337 84.9331 844.025 86.5971 844.025 88.6451C844.025 90.6076 843.337 92.2716 841.973 93.6371C840.603 95.002 838.895 95.6851 836.843 95.6851H795.548C793.577 95.6851 791.91 95.002 790.546 93.6371C789.263 92.186 788.622 90.65 788.622 89.0291C788.622 87.578 788.791 86.3836 789.135 85.4451C789.473 84.4211 790.115 83.2691 791.059 81.9891L821.582 42.5649H796.702C794.65 42.5649 792.936 41.8822 791.572 40.5169C790.202 39.1515 789.52 37.4449 789.52 35.3969C789.52 33.4342 790.202 31.8129 791.572 30.5329C792.936 29.1675 794.65 28.4849 796.702 28.4849H836.202C838.079 28.4849 839.665 29.1675 840.947 30.5329C842.312 31.8129 842.999 33.4342 842.999 35.3969C842.999 36.6769 842.871 37.7862 842.615 38.7249C842.358 39.5782 841.758 40.6022 840.819 41.7969L810.04 81.6051H836.843Z" fill="url(#paint0_linear)"/>
<path d="M107.764 31.9802C110.172 49.1098 98.2388 64.9477 81.1093 67.3559C63.9797 69.7642 48.1418 57.8307 45.7335 40.7011C43.3252 23.5715 55.2587 7.73359 72.3883 5.32533C89.5179 2.91707 105.356 14.8506 107.764 31.9802Z" fill="url(#paint1_linear)"/>
<path d="M42.4202 90.4207C43.6242 98.9848 37.6568 106.905 29.0927 108.109C20.5287 109.313 12.6089 103.345 11.4048 94.7812C10.2008 86.2172 16.1682 78.2974 24.7323 77.0933C33.2963 75.8893 41.2161 81.8567 42.4202 90.4207Z" fill="url(#paint2_linear)"/>
<path d="M21.913 41.8908C22.3946 45.3164 20.0076 48.4843 16.582 48.9659C13.1564 49.4475 9.98847 47.0606 9.50686 43.635C9.02525 40.2093 11.4122 37.0414 14.8378 36.5598C18.2634 36.0782 21.4314 38.4651 21.913 41.8908Z" fill="url(#paint3_linear)"/>
<defs>
<linearGradient id="paint0_linear" x1="146.032" y1="61.125" x2="844.025" y2="61.125" gradientUnits="userSpaceOnUse">
<stop stop-color="#536976"/>
<stop offset="1" stop-color="#292E49"/>
</linearGradient>
<linearGradient id="paint1_linear" x1="45.7335" y1="40.7011" x2="107.764" y2="31.9802" gradientUnits="userSpaceOnUse">
<stop stop-color="#536976"/>
<stop offset="1" stop-color="#292E49"/>
</linearGradient>
<linearGradient id="paint2_linear" x1="11.4048" y1="94.7812" x2="42.4202" y2="90.4207" gradientUnits="userSpaceOnUse">
<stop stop-color="#536976"/>
<stop offset="1" stop-color="#292E49"/>
</linearGradient>
<linearGradient id="paint3_linear" x1="9.50686" y1="43.635" x2="21.913" y2="41.8908" gradientUnits="userSpaceOnUse">
<stop stop-color="#536976"/>
<stop offset="1" stop-color="#292E49"/>
</linearGradient>
</defs>
</svg>
