<svg width="845" height="121" viewBox="0 0 845 121" fill="none" xmlns="http://www.w3.org/2000/svg">
<path d="M213.604 10.0462C216.254 11.4115 217.58 13.5875 217.58 16.5742C217.58 18.3662 216.938 20.1155 215.656 21.8222C214.288 23.6142 212.535 24.5102 210.398 24.5102C208.944 24.5102 207.491 24.1262 206.037 23.3582C201.848 21.3955 197.316 20.4142 192.443 20.4142C186.458 20.4142 181.242 21.6942 176.796 24.2542C172.351 26.7289 168.931 30.2702 166.537 34.8782C164.143 39.4009 162.946 44.6062 162.946 50.4942C162.946 60.5634 165.639 68.2009 171.025 73.4065C176.497 78.6114 183.636 81.2145 192.443 81.2145C197.658 81.2145 202.19 80.2329 206.037 78.2705C207.576 77.5874 208.944 77.2465 210.141 77.2465C212.364 77.2465 214.245 78.1849 215.784 80.0625C217.067 81.6834 217.708 83.4329 217.708 85.3105C217.708 86.6754 217.366 87.9129 216.682 89.0225C215.997 90.1314 215.015 90.9849 213.732 91.5825C207.063 94.9105 199.967 96.5745 192.443 96.5745C184.064 96.5745 176.369 94.8249 169.358 91.3265C162.347 87.7425 156.747 82.4945 152.558 75.5825C148.368 68.6705 146.273 60.3074 146.273 50.4942C146.273 41.7902 148.24 33.9822 152.173 27.0702C156.191 20.1582 161.706 14.7822 168.717 10.9422C175.728 7.01688 183.636 5.05423 192.443 5.05423C200.052 5.05423 207.106 6.71823 213.604 10.0462ZM280.799 26.8142C283.023 26.8142 284.861 27.5822 286.314 29.1182C287.768 30.5689 288.494 32.4035 288.494 34.6222V89.0225C288.494 100.115 285.502 108.179 279.517 113.214C273.532 118.334 265.538 120.894 255.535 120.894C252.628 120.894 249.635 120.638 246.557 120.126C243.565 119.699 241.128 119.102 239.247 118.334C235.058 116.542 232.963 114.067 232.963 110.91C232.963 110.313 233.091 109.63 233.348 108.862C233.861 106.985 234.716 105.534 235.913 104.51C237.195 103.571 238.563 103.102 240.017 103.102C240.872 103.102 241.684 103.23 242.453 103.486C243.052 103.742 244.078 104.169 245.531 104.766C247.07 105.363 248.652 105.833 250.276 106.174C251.987 106.601 253.739 106.814 255.535 106.814C261.605 106.814 266.051 105.491 268.872 102.846C271.78 100.286 273.233 95.8489 273.233 89.5345V88.2545C268.787 93.8009 261.862 96.5745 252.457 96.5745C248.011 96.5745 244.078 95.5505 240.658 93.5025C237.238 91.3689 234.588 88.4674 232.706 84.7985C230.826 81.0434 229.885 76.7769 229.885 71.9985V34.6222C229.885 32.4035 230.612 30.5689 232.065 29.1182C233.519 27.5822 235.357 26.8142 237.58 26.8142C239.803 26.8142 241.641 27.5822 243.095 29.1182C244.548 30.5689 245.275 32.4035 245.275 34.6222V67.3905C245.275 72.7665 246.429 76.6489 248.737 79.0385C251.132 81.3425 254.594 82.4945 259.126 82.4945C263.572 82.4945 266.992 81.2145 269.385 78.6545C271.865 76.0089 273.105 72.2545 273.105 67.3905V34.6222C273.105 32.4035 273.831 30.5689 275.285 29.1182C276.739 27.5822 278.577 26.8142 280.799 26.8142ZM334.411 25.5342C341.679 25.5342 347.536 26.6862 351.981 28.9902C356.427 31.2089 358.65 34.1955 358.65 37.9502C358.65 39.8275 358.095 41.4915 356.983 42.9422C355.872 44.3075 354.418 44.9902 352.622 44.9902C351.255 44.9902 350.143 44.8195 349.288 44.4782C348.433 44.0515 347.578 43.5395 346.723 42.9422C345.954 42.2595 345.184 41.7049 344.415 41.2782C343.56 40.8515 342.277 40.4675 340.567 40.1262C338.943 39.7849 337.617 39.6142 336.591 39.6142C330.179 39.6142 325.135 41.6195 321.458 45.6302C317.867 49.5555 316.072 54.7185 316.072 61.1185C316.072 67.2625 317.91 72.3825 321.586 76.4785C325.263 80.4889 329.966 82.4945 335.694 82.4945C339.883 82.4945 343.004 81.9825 345.056 80.9585C345.569 80.7025 346.253 80.2754 347.108 79.6785C348.049 78.9954 348.903 78.4834 349.673 78.1425C350.442 77.8009 351.383 77.6305 352.494 77.6305C354.632 77.6305 356.299 78.3129 357.496 79.6785C358.778 81.0434 359.42 82.7929 359.42 84.9265C359.42 86.9745 358.223 88.8945 355.829 90.6865C353.435 92.4785 350.271 93.9289 346.338 95.0385C342.406 96.0625 338.216 96.5745 333.77 96.5745C327.187 96.5745 321.373 95.0385 316.328 91.9665C311.37 88.8945 307.522 84.6705 304.786 79.2945C302.05 73.8329 300.682 67.7745 300.682 61.1185C300.682 54.2065 302.093 48.0622 304.914 42.6862C307.821 37.3102 311.84 33.1289 316.969 30.1422C322.099 27.0702 327.914 25.5342 334.411 25.5342ZM387.205 87.4865C387.205 89.7049 386.435 91.5825 384.896 93.1185C383.443 94.5689 381.604 95.2945 379.381 95.2945C377.244 95.2945 375.448 94.5689 373.995 93.1185C372.542 91.5825 371.815 89.7049 371.815 87.4865V8.38223C371.815 6.16353 372.542 4.32888 373.995 2.87823C375.534 1.34223 377.415 0.574219 379.638 0.574219C381.776 0.574219 383.571 1.34223 385.024 2.87823C386.478 4.32888 387.205 6.16353 387.205 8.38223V87.4865ZM419.591 87.4865C419.591 89.7049 418.864 91.5825 417.411 93.1185C415.957 94.5689 414.119 95.2945 411.896 95.2945C409.673 95.2945 407.835 94.5689 406.382 93.1185C404.928 91.5825 404.201 89.7049 404.201 87.4865V34.6222C404.201 32.4035 404.928 30.5689 406.382 29.1182C407.835 27.5822 409.673 26.8142 411.896 26.8142C414.119 26.8142 415.957 27.5822 417.411 29.1182C418.864 30.5689 419.591 32.4035 419.591 34.6222V87.4865ZM411.768 18.4942C408.861 18.4942 406.809 18.0249 405.612 17.0862C404.415 16.1475 403.817 14.4835 403.817 12.0942V9.66223C403.817 7.27288 404.458 5.60888 405.74 4.67023C407.023 3.73153 409.075 3.26223 411.896 3.26223C414.889 3.26223 416.983 3.73153 418.18 4.67023C419.377 5.60888 419.976 7.27288 419.976 9.66223V12.0942C419.976 14.5689 419.335 16.2755 418.052 17.2142C416.855 18.0675 414.76 18.4942 411.768 18.4942ZM472.087 25.5342C480.808 25.5342 486.835 28.1369 490.17 33.3422C493.504 38.4622 495.171 45.5875 495.171 54.7185V87.4865C495.171 89.7049 494.444 91.5825 492.991 93.1185C491.538 94.5689 489.699 95.2945 487.476 95.2945C485.254 95.2945 483.415 94.5689 481.962 93.1185C480.508 91.5825 479.782 89.7049 479.782 87.4865V54.7185C479.782 50.0249 478.798 46.3555 476.832 43.7102C474.866 40.9795 471.488 39.6142 466.7 39.6142C461.741 39.6142 457.851 41.0649 455.03 43.9662C452.208 46.7822 450.797 50.3662 450.797 54.7185V87.4865C450.797 89.7049 450.071 91.5825 448.617 93.1185C447.164 94.5689 445.325 95.2945 443.103 95.2945C440.88 95.2945 439.041 94.5689 437.588 93.1185C436.135 91.5825 435.408 89.7049 435.408 87.4865V34.6222C435.408 32.4035 436.135 30.5689 437.588 29.1182C439.041 27.5822 440.88 26.8142 443.103 26.8142C445.325 26.8142 447.164 27.5822 448.617 29.1182C450.071 30.5689 450.797 32.4035 450.797 34.6222V36.7982C453.106 33.7262 456.098 31.0809 459.775 28.8622C463.537 26.6435 467.641 25.5342 472.087 25.5342ZM568.62 25.5342C570.842 25.5342 572.68 26.2595 574.134 27.7102C575.588 29.1609 576.314 31.0382 576.314 33.3422V90.3025C576.314 100.713 573.065 108.393 566.568 113.342C560.155 118.377 551.99 120.894 542.072 120.894C539.507 120.894 535.959 120.467 531.428 119.614C526.981 118.761 523.818 117.907 521.937 117.054C517.748 115.262 515.653 112.787 515.653 109.63C515.653 109.033 515.781 108.35 516.038 107.582C516.551 105.705 517.405 104.254 518.603 103.23C519.885 102.291 521.253 101.822 522.707 101.822C523.561 101.822 524.374 101.95 525.143 102.206C525.485 102.291 527.58 103.059 531.428 104.51C535.36 106.046 538.909 106.814 542.072 106.814C548.399 106.814 553.102 105.534 556.179 102.974C559.343 100.499 560.925 96.9585 560.925 92.3505V86.2065C559.044 88.8514 556.18 91.2409 552.332 93.3745C548.57 95.5074 544.509 96.5745 540.148 96.5745C534.163 96.5745 528.691 95.0809 523.733 92.0945C518.859 89.0225 515.012 84.7985 512.19 79.4225C509.369 74.0465 507.958 67.9449 507.958 61.1185C507.958 54.2914 509.326 48.1902 512.062 42.8142C514.884 37.3529 518.688 33.1289 523.476 30.1422C528.35 27.0702 533.736 25.5342 539.636 25.5342C543.996 25.5342 548.057 26.4302 551.819 28.2222C555.581 30.0142 558.616 32.1902 560.925 34.7502V33.3422C560.925 31.1235 561.651 29.2889 563.105 27.8382C564.558 26.3022 566.396 25.5342 568.62 25.5342ZM542.072 82.4945C547.8 82.4945 552.46 80.4889 556.051 76.4785C559.727 72.3825 561.566 67.2625 561.566 61.1185C561.566 54.9745 559.727 49.8542 556.051 45.7582C552.46 41.6622 547.8 39.6142 542.072 39.6142C536.344 39.6142 531.684 41.6622 528.093 45.7582C524.502 49.8542 522.707 54.9745 522.707 61.1185C522.707 67.2625 524.502 72.3825 528.093 76.4785C531.684 80.4889 536.344 82.4945 542.072 82.4945ZM646.221 20.4142V42.9422H673.922C676.145 42.9422 677.983 43.6675 679.437 45.1182C680.976 46.4835 681.745 48.2755 681.745 50.4942C681.745 52.3715 680.976 54.0354 679.437 55.4865C677.983 56.9369 676.145 57.6625 673.922 57.6625H646.221V87.4865C646.221 89.7049 645.408 91.5825 643.784 93.1185C642.245 94.5689 640.406 95.2945 638.269 95.2945C635.875 95.2945 633.909 94.5689 632.37 93.1185C630.916 91.6674 630.19 89.7905 630.19 87.4865V13.5022C630.19 11.2835 630.916 9.44888 632.37 7.99823C633.909 6.46223 635.789 5.69423 638.013 5.69423H679.693C681.916 5.69423 683.754 6.41952 685.208 7.87023C686.747 9.23553 687.517 11.0275 687.517 13.2462C687.517 15.1235 686.747 16.7875 685.208 18.2382C683.754 19.6889 681.916 20.4142 679.693 20.4142H646.221ZM715.413 87.4865C715.413 89.7049 714.686 91.5825 713.233 93.1185C711.779 94.5689 709.941 95.2945 707.719 95.2945C705.495 95.2945 703.657 94.5689 702.204 93.1185C700.75 91.5825 700.024 89.7049 700.024 87.4865V34.6222C700.024 32.4035 700.75 30.5689 702.204 29.1182C703.657 27.5822 705.495 26.8142 707.719 26.8142C709.941 26.8142 711.779 27.5822 713.233 29.1182C714.686 30.5689 715.413 32.4035 715.413 34.6222V87.4865ZM707.59 18.4942C704.683 18.4942 702.631 18.0249 701.434 17.0862C700.237 16.1475 699.639 14.4835 699.639 12.0942V9.66223C699.639 7.27288 700.28 5.60888 701.563 4.67023C702.845 3.73153 704.897 3.26223 707.719 3.26223C710.711 3.26223 712.805 3.73153 714.003 4.67023C715.2 5.60888 715.798 7.27288 715.798 9.66223V12.0942C715.798 14.5689 715.157 16.2755 713.874 17.2142C712.677 18.0675 710.583 18.4942 707.59 18.4942ZM774.96 81.2145C777.012 81.2145 778.726 81.8969 780.09 83.2625C781.46 84.5425 782.142 86.2065 782.142 88.2545C782.142 90.2169 781.46 91.8809 780.09 93.2465C778.726 94.6114 777.012 95.2945 774.96 95.2945H733.664C731.7 95.2945 730.033 94.6114 728.663 93.2465C727.382 91.7954 726.741 90.2594 726.741 88.6385C726.741 87.1874 726.912 85.9929 727.254 85.0545C727.596 84.0305 728.237 82.8785 729.176 81.5985L759.699 42.1742H734.819C732.767 42.1742 731.059 41.4915 729.689 40.1262C728.325 38.7609 727.637 37.0542 727.637 35.0062C727.637 33.0435 728.325 31.4222 729.689 30.1422C731.059 28.7769 732.767 28.0942 734.819 28.0942H774.319C776.202 28.0942 777.782 28.7769 779.064 30.1422C780.434 31.4222 781.116 33.0435 781.116 35.0062C781.116 36.2862 780.988 37.3955 780.731 38.3342C780.475 39.1875 779.88 40.2115 778.936 41.4062L748.156 81.2145H774.96ZM837.085 81.2145C839.137 81.2145 840.845 81.8969 842.215 83.2625C843.579 84.5425 844.267 86.2065 844.267 88.2545C844.267 90.2169 843.579 91.8809 842.215 93.2465C840.845 94.6114 839.137 95.2945 837.085 95.2945H795.789C793.818 95.2945 792.151 94.6114 790.787 93.2465C789.505 91.7954 788.863 90.2594 788.863 88.6385C788.863 87.1874 789.033 85.9929 789.376 85.0545C789.715 84.0305 790.356 82.8785 791.3 81.5985L821.823 42.1742H796.943C794.891 42.1742 793.177 41.4915 791.813 40.1262C790.443 38.7609 789.761 37.0542 789.761 35.0062C789.761 33.0435 790.443 31.4222 791.813 30.1422C793.177 28.7769 794.891 28.0942 796.943 28.0942H836.443C838.321 28.0942 839.906 28.7769 841.189 30.1422C842.553 31.4222 843.241 33.0435 843.241 35.0062C843.241 36.2862 843.112 37.3955 842.856 38.3342C842.599 39.1875 841.999 40.2115 841.06 41.4062L810.281 81.2145H837.085Z" fill="url(#paint0_linear)"/>
<path d="M108.005 31.5895C110.414 48.7191 98.4801 64.557 81.3505 66.9653C64.2209 69.3736 48.383 57.44 45.9747 40.3105C43.5665 23.1809 55.5 7.34297 72.6295 4.9347C89.7591 2.52644 105.597 14.4599 108.005 31.5895Z" fill="url(#paint1_linear)"/>
<path d="M42.6614 90.0301C43.8654 98.5941 37.898 106.514 29.3339 107.718C20.7699 108.922 12.8501 102.955 11.6461 94.3906C10.442 85.8265 16.4094 77.9067 24.9735 76.7027C33.5375 75.4987 41.4573 81.4661 42.6614 90.0301Z" fill="url(#paint2_linear)"/>
<path d="M22.1542 41.5001C22.6358 44.9258 20.2488 48.0937 16.8232 48.5753C13.3976 49.0569 10.2297 46.6699 9.74807 43.2443C9.26646 39.8187 11.6534 36.6508 15.079 36.1692C18.5047 35.6876 21.6726 38.0745 22.1542 41.5001Z" fill="url(#paint3_linear)"/>
<defs>
<linearGradient id="paint0_linear" x1="924.611" y1="0.574219" x2="244.193" y2="0.574219" gradientUnits="userSpaceOnUse">
<stop stop-color="#FF923C"/>
<stop offset="1" stop-color="#FFC340"/>
</linearGradient>
<linearGradient id="paint1_linear" x1="96.4589" y1="52.0789" x2="44.9037" y2="32.6927" gradientUnits="userSpaceOnUse">
<stop stop-color="#73D9C1"/>
<stop offset="1" stop-color="#E6F9DC"/>
</linearGradient>
<linearGradient id="paint2_linear" x1="36.8882" y1="100.275" x2="11.1106" y2="90.5817" gradientUnits="userSpaceOnUse">
<stop stop-color="#27CECE"/>
<stop offset="1" stop-color="#BCF5F7"/>
</linearGradient>
<linearGradient id="paint3_linear" x1="19.8449" y1="45.598" x2="9.53387" y2="41.7208" gradientUnits="userSpaceOnUse">
<stop stop-color="#FF9F3C"/>
<stop offset="1" stop-color="#FFE5B6"/>
</linearGradient>
</defs>
</svg>
