<svg width="342" height="61" viewBox="0 0 342 61" fill="none" xmlns="http://www.w3.org/2000/svg">
<path d="M217.781 24.0014L214.231 23.9887C213.578 23.9864 213.046 24.5143 213.044 25.1677C213.042 25.8212 213.569 26.3529 214.223 26.3552L217.773 26.3679L217.781 24.0014Z" fill="#57565C"/>
<path d="M217.773 26.3682L221.323 26.3808L221.314 28.7473L217.765 28.7347L217.773 26.3682Z" fill="#FFBF00"/>
<path d="M224.197 50.059C219.949 50.0438 216.518 46.5877 216.533 42.3396C216.548 38.0914 220.004 34.6599 224.252 34.675C228.5 34.6902 231.932 38.1463 231.917 42.3945C231.896 46.6406 228.444 50.0689 224.197 50.059ZM224.244 37.0418C221.303 37.0313 218.91 39.4069 218.9 42.348C218.889 45.2891 221.265 47.6817 224.206 47.6922C227.147 47.7027 229.54 45.3271 229.55 42.386C229.557 39.4463 227.183 37.0555 224.244 37.0418Z" fill="#57565C"/>
<path d="M201.713 49.9788C197.465 49.9636 194.034 46.5075 194.049 42.2594C194.064 38.0112 197.52 34.5797 201.768 34.5948C206.016 34.61 209.448 38.0661 209.433 42.3143C209.412 46.5604 205.959 49.9887 201.713 49.9788ZM201.76 36.9616C198.819 36.9511 196.426 39.3267 196.415 42.2678C196.405 45.2089 198.781 47.6015 201.722 47.612C204.663 47.6225 207.055 45.2469 207.066 42.3058C207.073 39.3661 204.699 36.9753 201.76 36.9616Z" fill="#57565C"/>
<path d="M201.658 26.3106L204.595 32.2381L199.232 42.8695L212.453 42.9167L217.762 34.4898L223.23 43.006L225.22 41.728L218.937 31.9403L218.965 24.0056L216.598 23.9972L216.573 31.0975L206.654 31.062L205.479 28.6911L201.658 26.3106ZM211.15 40.5453L203.07 40.5164L206.645 33.4288L215.618 33.4608L211.15 40.5453Z" fill="#E5E5E5"/>
<path d="M201.656 26.3105L207.123 26.3301C207.776 26.3324 208.304 26.8641 208.302 27.5177C208.3 28.1712 207.768 28.6992 207.114 28.6968L202.83 28.6815L201.656 26.3105Z" fill="#FFBF00"/>
<circle cx="207.435" cy="12.5" r="1.5" fill="#7B7373"/>
<circle cx="218.435" cy="15.5" r="1.5" fill="#7B7373"/>
<circle cx="214.435" cy="6.5" r="1.5" fill="#7B7373"/>
<path d="M17.85 47.5C13.0833 47.5 9.35 46.35 6.65 44.05C3.98333 41.7167 2.56667 38.35 2.4 33.95C2.36667 33.05 2.35 31.5833 2.35 29.55C2.35 27.4833 2.36667 25.9833 2.4 25.05C2.56667 20.7167 4.01667 17.3833 6.75 15.05C9.48333 12.6833 13.1833 11.5 17.85 11.5C20.7833 11.5 23.4167 12 25.75 13C28.0833 13.9667 29.9167 15.3667 31.25 17.2C32.6167 19 33.3167 21.1167 33.35 23.55V23.65C33.35 23.9167 33.2333 24.15 33 24.35C32.8 24.5167 32.5667 24.6 32.3 24.6H25.55C25.1167 24.6 24.7833 24.5167 24.55 24.35C24.3167 24.15 24.1167 23.8 23.95 23.3C23.4833 21.6 22.75 20.4167 21.75 19.75C20.75 19.05 19.4333 18.7 17.8 18.7C13.8667 18.7 11.8333 20.9 11.7 25.3C11.6667 26.2 11.65 27.5833 11.65 29.45C11.65 31.3167 11.6667 32.7333 11.7 33.7C11.8333 38.1 13.8667 40.3 17.8 40.3C19.4333 40.3 20.7667 39.95 21.8 39.25C22.8333 38.5167 23.55 37.3333 23.95 35.7C24.0833 35.2 24.2667 34.8667 24.5 34.7C24.7333 34.5 25.0833 34.4 25.55 34.4H32.3C32.6 34.4 32.85 34.5 33.05 34.7C33.2833 34.9 33.3833 35.15 33.35 35.45C33.3167 37.8833 32.6167 40.0167 31.25 41.85C29.9167 43.65 28.0833 45.05 25.75 46.05C23.4167 47.0167 20.7833 47.5 17.85 47.5ZM42.9074 56.5C42.6074 56.5 42.3574 56.4 42.1574 56.2C41.9574 56 41.8574 55.75 41.8574 55.45C41.8574 55.2167 41.9074 55 42.0074 54.8L45.9074 45.4L36.3074 22.7C36.2074 22.4333 36.1574 22.2333 36.1574 22.1C36.2241 21.8 36.3574 21.55 36.5574 21.35C36.7574 21.1167 37.0074 21 37.3074 21H43.0074C43.7074 21 44.1908 21.35 44.4574 22.05L50.1574 36.6L56.0074 22.05C56.3408 21.35 56.8408 21 57.5074 21H63.1074C63.4074 21 63.6574 21.1167 63.8574 21.35C64.0908 21.55 64.2074 21.7833 64.2074 22.05C64.2074 22.1833 64.1574 22.4 64.0574 22.7L49.9074 55.45C49.6408 56.15 49.1408 56.5 48.4074 56.5H42.9074ZM78.8648 47.5C75.0982 47.5 72.0482 46.5 69.7148 44.5C67.3815 42.4667 66.1315 39.65 65.9648 36.05L65.9148 34.05L65.9648 32C66.0982 28.4 67.3315 25.5833 69.6648 23.55C72.0315 21.5167 75.0982 20.5 78.8648 20.5C81.6982 20.5 84.0815 21.0167 86.0148 22.05C87.9815 23.05 89.4315 24.2667 90.3648 25.7C91.3315 27.1 91.8482 28.3833 91.9148 29.55C91.9482 29.8833 91.8315 30.1833 91.5648 30.45C91.3315 30.6833 91.0315 30.8 90.6648 30.8H84.3148C83.9482 30.8 83.6648 30.7167 83.4648 30.55C83.2648 30.3833 83.0815 30.1333 82.9148 29.8C82.5148 28.7667 81.9982 28.0333 81.3648 27.6C80.7648 27.1667 79.9815 26.95 79.0148 26.95C76.2815 26.95 74.8648 28.7167 74.7648 32.25L74.7148 34.15L74.7648 35.8C74.8315 37.6 75.2148 38.9333 75.9148 39.8C76.6482 40.6333 77.6815 41.05 79.0148 41.05C80.0482 41.05 80.8648 40.8333 81.4648 40.4C82.0648 39.9667 82.5482 39.2333 82.9148 38.2C83.0815 37.8667 83.2648 37.6167 83.4648 37.45C83.6648 37.2833 83.9482 37.2 84.3148 37.2H90.6648C90.9982 37.2 91.2815 37.3167 91.5148 37.55C91.7815 37.75 91.9148 38.0167 91.9148 38.35C91.9148 39.4167 91.4482 40.6667 90.5148 42.1C89.6148 43.5333 88.1815 44.8 86.2148 45.9C84.2482 46.9667 81.7982 47.5 78.8648 47.5ZM97.657 47C97.3237 47 97.0237 46.8833 96.757 46.65C96.5237 46.3833 96.407 46.0833 96.407 45.75V12.75C96.407 12.3833 96.5237 12.0833 96.757 11.85C97.0237 11.6167 97.3237 11.5 97.657 11.5H103.557C103.924 11.5 104.224 11.6167 104.457 11.85C104.69 12.0833 104.807 12.3833 104.807 12.75V45.75C104.807 46.1167 104.69 46.4167 104.457 46.65C104.224 46.8833 103.924 47 103.557 47H97.657ZM111.914 17.25C111.547 17.25 111.247 17.1333 111.014 16.9C110.78 16.6667 110.664 16.3667 110.664 16V11.5C110.664 11.1333 110.78 10.8333 111.014 10.6C111.247 10.3667 111.547 10.25 111.914 10.25H117.914C118.28 10.25 118.58 10.3667 118.814 10.6C119.047 10.8333 119.164 11.1333 119.164 11.5V16C119.164 16.3667 119.047 16.6667 118.814 16.9C118.58 17.1333 118.28 17.25 117.914 17.25H111.914ZM111.964 47C111.597 47 111.297 46.8833 111.064 46.65C110.83 46.4167 110.714 46.1167 110.714 45.75V22.25C110.714 21.8833 110.83 21.5833 111.064 21.35C111.297 21.1167 111.597 21 111.964 21H117.864C118.23 21 118.53 21.1167 118.764 21.35C118.997 21.5833 119.114 21.8833 119.114 22.25V45.75C119.114 46.0833 118.997 46.3833 118.764 46.65C118.53 46.8833 118.23 47 117.864 47H111.964ZM126.27 47C125.904 47 125.604 46.8833 125.37 46.65C125.137 46.4167 125.02 46.1167 125.02 45.75V22.25C125.02 21.8833 125.137 21.5833 125.37 21.35C125.604 21.1167 125.904 21 126.27 21H132.02C132.387 21 132.687 21.1167 132.92 21.35C133.187 21.5833 133.32 21.8833 133.32 22.25V24.15C134.22 23.05 135.37 22.1667 136.77 21.5C138.204 20.8333 139.82 20.5 141.62 20.5C144.554 20.5 146.937 21.5 148.77 23.5C150.604 25.4667 151.52 28.2333 151.52 31.8V45.75C151.52 46.0833 151.404 46.3833 151.17 46.65C150.937 46.8833 150.637 47 150.27 47H143.97C143.637 47 143.337 46.8833 143.07 46.65C142.837 46.3833 142.72 46.0833 142.72 45.75V32.1C142.72 30.5333 142.337 29.3333 141.57 28.5C140.804 27.6333 139.704 27.2 138.27 27.2C136.87 27.2 135.77 27.6333 134.97 28.5C134.17 29.3333 133.77 30.5333 133.77 32.1V45.75C133.77 46.0833 133.654 46.3833 133.42 46.65C133.187 46.8833 132.887 47 132.52 47H126.27ZM169.899 58C166.733 58 164.166 57.4833 162.199 56.45C160.233 55.4167 158.816 54.2333 157.949 52.9C157.116 51.5667 156.699 50.45 156.699 49.55C156.699 49.25 156.833 48.9833 157.099 48.75C157.366 48.5167 157.666 48.4 157.999 48.4H164.349C164.683 48.4 164.933 48.4667 165.099 48.6C165.299 48.7667 165.483 49.0333 165.649 49.4C165.983 50.1667 166.433 50.7667 166.999 51.2C167.566 51.6667 168.449 51.9 169.649 51.9C171.183 51.9 172.316 51.5167 173.049 50.75C173.783 50.0167 174.149 48.7667 174.149 47V43.65C172.449 45.5167 170.016 46.45 166.849 46.45C163.483 46.45 160.899 45.4667 159.099 43.5C157.333 41.5 156.366 38.6167 156.199 34.85L156.149 33.5C156.149 29.4667 157.049 26.3 158.849 24C160.649 21.6667 163.316 20.5 166.849 20.5C168.549 20.5 170.049 20.8333 171.349 21.5C172.649 22.1333 173.749 23 174.649 24.1V22.25C174.649 21.8833 174.766 21.5833 174.999 21.35C175.266 21.1167 175.566 21 175.899 21H181.649C182.016 21 182.316 21.1333 182.549 21.4C182.816 21.6333 182.949 21.9167 182.949 22.25V46.3C182.949 50.1 181.816 53 179.549 55C177.283 57 174.066 58 169.899 58ZM169.549 39.95C171.049 39.95 172.166 39.5 172.899 38.6C173.633 37.6667 174.049 36.5 174.149 35.1C174.183 34.8667 174.199 34.35 174.199 33.55C174.199 32.7833 174.183 32.2833 174.149 32.05C174.083 30.65 173.666 29.5 172.899 28.6C172.166 27.6667 171.049 27.2 169.549 27.2C167.983 27.2 166.849 27.6667 166.149 28.6C165.449 29.5333 165.066 30.8167 164.999 32.45L164.949 33.55C164.949 35.5167 165.283 37.0833 165.949 38.25C166.616 39.3833 167.816 39.95 169.549 39.95ZM243.861 47C243.528 47 243.228 46.8833 242.961 46.65C242.728 46.3833 242.611 46.0833 242.611 45.75V13.25C242.611 12.8833 242.728 12.5833 242.961 12.35C243.228 12.1167 243.528 12 243.861 12H266.861C267.228 12 267.528 12.1167 267.761 12.35C267.995 12.5833 268.111 12.8833 268.111 13.25V18.3C268.111 18.6333 267.995 18.9333 267.761 19.2C267.528 19.4333 267.228 19.55 266.861 19.55H251.411V26.9H265.861C266.228 26.9 266.528 27.0333 266.761 27.3C266.995 27.5333 267.111 27.8333 267.111 28.2V33.2C267.111 33.5333 266.995 33.8333 266.761 34.1C266.528 34.3333 266.228 34.45 265.861 34.45H251.411V45.75C251.411 46.1167 251.295 46.4167 251.061 46.65C250.828 46.8833 250.528 47 250.161 47H243.861ZM274.17 17.25C273.803 17.25 273.503 17.1333 273.27 16.9C273.036 16.6667 272.92 16.3667 272.92 16V11.5C272.92 11.1333 273.036 10.8333 273.27 10.6C273.503 10.3667 273.803 10.25 274.17 10.25H280.17C280.536 10.25 280.836 10.3667 281.07 10.6C281.303 10.8333 281.42 11.1333 281.42 11.5V16C281.42 16.3667 281.303 16.6667 281.07 16.9C280.836 17.1333 280.536 17.25 280.17 17.25H274.17ZM274.22 47C273.853 47 273.553 46.8833 273.32 46.65C273.086 46.4167 272.97 46.1167 272.97 45.75V22.25C272.97 21.8833 273.086 21.5833 273.32 21.35C273.553 21.1167 273.853 21 274.22 21H280.12C280.486 21 280.786 21.1167 281.02 21.35C281.253 21.5833 281.37 21.8833 281.37 22.25V45.75C281.37 46.0833 281.253 46.3833 281.02 46.65C280.786 46.8833 280.486 47 280.12 47H274.22ZM287.476 47C287.143 47 286.843 46.8833 286.576 46.65C286.343 46.3833 286.226 46.0833 286.226 45.75V41.85C286.226 41.25 286.493 40.6833 287.026 40.15L298.726 27.45H287.926C287.56 27.45 287.243 27.3333 286.976 27.1C286.743 26.8667 286.626 26.5667 286.626 26.2V22.25C286.626 21.8833 286.743 21.5833 286.976 21.35C287.243 21.1167 287.56 21 287.926 21H308.026C308.393 21 308.693 21.1167 308.926 21.35C309.16 21.5833 309.276 21.8833 309.276 22.25V26.5C309.276 26.9667 309.043 27.4667 308.576 28L297.176 40.55H309.026C309.393 40.55 309.693 40.6667 309.926 40.9C310.193 41.1333 310.326 41.4333 310.326 41.8V45.75C310.326 46.1167 310.193 46.4167 309.926 46.65C309.693 46.8833 309.393 47 309.026 47H287.476ZM315.113 47C314.78 47 314.48 46.8833 314.213 46.65C313.98 46.3833 313.863 46.0833 313.863 45.75V41.85C313.863 41.25 314.13 40.6833 314.663 40.15L326.363 27.45H315.563C315.196 27.45 314.88 27.3333 314.613 27.1C314.38 26.8667 314.263 26.5667 314.263 26.2V22.25C314.263 21.8833 314.38 21.5833 314.613 21.35C314.88 21.1167 315.196 21 315.563 21H335.663C336.03 21 336.33 21.1167 336.563 21.35C336.796 21.5833 336.913 21.8833 336.913 22.25V26.5C336.913 26.9667 336.68 27.4667 336.213 28L324.813 40.55H336.663C337.03 40.55 337.33 40.6667 337.563 40.9C337.83 41.1333 337.963 41.4333 337.963 41.8V45.75C337.963 46.1167 337.83 46.4167 337.563 46.65C337.33 46.8833 337.03 47 336.663 47H315.113Z" fill="url(#paint0_linear)"/>
<defs>
<linearGradient id="paint0_linear" x1="170.556" y1="18" x2="170.556" y2="71.5" gradientUnits="userSpaceOnUse">
<stop offset="0.270833" stop-color="#FF923C"/>
<stop offset="1" stop-color="#FFC340"/>
</linearGradient>
</defs>
</svg>
