<svg width="835" height="122" viewBox="0 0 835 122" fill="none" xmlns="http://www.w3.org/2000/svg">
<path d="M12.8712 41.8912C13.3528 45.3168 10.9658 48.4847 7.54022 48.9663C4.11462 49.4479 0.946723 47.061 0.465093 43.6354C-0.0165169 40.2097 2.37042 37.0418 5.79602 36.5602C9.22172 36.0786 12.3896 38.4655 12.8712 41.8912Z" fill="url(#paint0_linear)"/>
<path d="M204.32 10.4373C206.97 11.8026 208.296 13.9786 208.296 16.9653C208.296 18.7573 207.655 20.5066 206.372 22.2133C205.004 24.0053 203.251 24.9013 201.114 24.9013C199.66 24.9013 198.207 24.5173 196.753 23.7493C192.564 21.7866 188.032 20.8053 183.159 20.8053C177.174 20.8053 171.959 22.0853 167.513 24.6453C163.067 27.1199 159.647 30.6613 157.253 35.2693C154.859 39.7919 153.662 44.9973 153.662 50.8853C153.662 60.9544 156.355 68.592 161.741 73.7975C167.213 79.0024 174.353 81.6055 183.159 81.6055C188.374 81.6055 192.906 80.624 196.753 78.6615C198.292 77.9784 199.66 77.6375 200.857 77.6375C203.08 77.6375 204.961 78.576 206.5 80.4535C207.783 82.0744 208.424 83.824 208.424 85.7015C208.424 87.0664 208.082 88.304 207.398 89.4135C206.714 90.5224 205.731 91.376 204.448 91.9735C197.779 95.3015 190.683 96.9655 183.159 96.9655C174.78 96.9655 167.085 95.216 160.074 91.7175C153.063 88.1335 147.463 82.8855 143.274 75.9735C139.084 69.0615 136.99 60.6984 136.99 50.8853C136.99 42.1813 138.956 34.3733 142.889 27.4613C146.908 20.5493 152.422 15.1733 159.433 11.3333C166.444 7.40787 174.353 5.44523 183.159 5.44523C190.768 5.44523 197.822 7.10923 204.32 10.4373ZM271.516 27.2053C273.739 27.2053 275.577 27.9733 277.03 29.5093C278.484 30.9599 279.211 32.7946 279.211 35.0133V89.4135C279.211 100.506 276.218 108.57 270.233 113.605C264.249 118.725 256.254 121.285 246.251 121.285C243.344 121.285 240.351 121.029 237.273 120.517C234.281 120.09 231.844 119.493 229.963 118.725C225.774 116.933 223.679 114.458 223.679 111.301C223.679 110.704 223.807 110.021 224.064 109.253C224.577 107.376 225.432 105.925 226.629 104.901C227.911 103.962 229.279 103.493 230.733 103.493C231.588 103.493 232.4 103.621 233.169 103.877C233.768 104.133 234.794 104.56 236.247 105.157C237.786 105.754 239.369 106.224 240.993 106.565C242.703 106.992 244.455 107.205 246.251 107.205C252.322 107.205 256.767 105.882 259.589 103.237C262.496 100.677 263.949 96.24 263.949 89.9255V88.6455C259.503 94.192 252.578 96.9655 243.173 96.9655C238.727 96.9655 234.794 95.9415 231.374 93.8935C227.954 91.76 225.304 88.8584 223.423 85.1895C221.542 81.4344 220.601 77.168 220.601 72.3895V35.0133C220.601 32.7946 221.328 30.9599 222.781 29.5093C224.235 27.9733 226.073 27.2053 228.296 27.2053C230.519 27.2053 232.357 27.9733 233.811 29.5093C235.265 30.9599 235.991 32.7946 235.991 35.0133V67.7815C235.991 73.1575 237.145 77.04 239.454 79.4295C241.848 81.7335 245.31 82.8855 249.842 82.8855C254.288 82.8855 257.708 81.6055 260.102 79.0455C262.581 76.4 263.821 72.6455 263.821 67.7815V35.0133C263.821 32.7946 264.548 30.9599 266.001 29.5093C267.455 27.9733 269.293 27.2053 271.516 27.2053ZM325.127 25.9253C332.395 25.9253 338.252 27.0773 342.697 29.3813C347.144 31.5999 349.366 34.5866 349.366 38.3413C349.366 40.2186 348.811 41.8826 347.699 43.3333C346.588 44.6986 345.134 45.3813 343.339 45.3813C341.971 45.3813 340.859 45.2106 340.004 44.8693C339.15 44.4426 338.294 43.9306 337.439 43.3333C336.67 42.6506 335.9 42.0959 335.131 41.6693C334.276 41.2426 332.994 40.8586 331.283 40.5173C329.659 40.1759 328.334 40.0053 327.308 40.0053C320.895 40.0053 315.851 42.0106 312.174 46.0213C308.583 49.9466 306.788 55.1095 306.788 61.5095C306.788 67.6535 308.627 72.7735 312.303 76.8695C315.979 80.88 320.682 82.8855 326.41 82.8855C330.6 82.8855 333.72 82.3735 335.772 81.3495C336.285 81.0935 336.969 80.6664 337.824 80.0695C338.765 79.3864 339.619 78.8744 340.389 78.5335C341.158 78.192 342.099 78.0215 343.21 78.0215C345.348 78.0215 347.015 78.704 348.212 80.0695C349.495 81.4344 350.136 83.184 350.136 85.3175C350.136 87.3655 348.939 89.2855 346.545 91.0775C344.151 92.8695 340.988 94.32 337.054 95.4295C333.122 96.4535 328.932 96.9655 324.486 96.9655C317.903 96.9655 312.089 95.4295 307.044 92.3575C302.086 89.2855 298.238 85.0615 295.502 79.6855C292.766 74.224 291.398 68.1655 291.398 61.5095C291.398 54.5975 292.809 48.4533 295.63 43.0773C298.537 37.7013 302.556 33.5199 307.686 30.5333C312.816 27.4613 318.63 25.9253 325.127 25.9253ZM377.921 87.8775C377.921 90.096 377.151 91.9735 375.612 93.5095C374.159 94.96 372.32 95.6855 370.098 95.6855C367.96 95.6855 366.164 94.96 364.711 93.5095C363.258 91.9735 362.531 90.096 362.531 87.8775V8.77323C362.531 6.55452 363.258 4.71987 364.711 3.26923C366.25 1.73323 368.131 0.96521 370.354 0.96521C372.492 0.96521 374.287 1.73323 375.741 3.26923C377.194 4.71987 377.921 6.55452 377.921 8.77323V87.8775ZM410.307 87.8775C410.307 90.096 409.58 91.9735 408.127 93.5095C406.673 94.96 404.835 95.6855 402.613 95.6855C400.389 95.6855 398.551 94.96 397.098 93.5095C395.644 91.9735 394.918 90.096 394.918 87.8775V35.0133C394.918 32.7946 395.644 30.9599 397.098 29.5093C398.551 27.9733 400.389 27.2053 402.613 27.2053C404.835 27.2053 406.673 27.9733 408.127 29.5093C409.58 30.9599 410.307 32.7946 410.307 35.0133V87.8775ZM402.484 18.8853C399.577 18.8853 397.525 18.4159 396.328 17.4773C395.131 16.5386 394.533 14.8746 394.533 12.4853V10.0533C394.533 7.66387 395.174 5.99987 396.457 5.06123C397.739 4.12252 399.791 3.65323 402.613 3.65323C405.605 3.65323 407.699 4.12252 408.897 5.06123C410.093 5.99987 410.692 7.66387 410.692 10.0533V12.4853C410.692 14.9599 410.051 16.6666 408.768 17.6053C407.571 18.4586 405.477 18.8853 402.484 18.8853ZM462.803 25.9253C471.524 25.9253 477.551 28.5279 480.886 33.7333C484.22 38.8533 485.887 45.9786 485.887 55.1095V87.8775C485.887 90.096 485.161 91.9735 483.707 93.5095C482.254 94.96 480.415 95.6855 478.193 95.6855C475.97 95.6855 474.131 94.96 472.678 93.5095C471.225 91.9735 470.498 90.096 470.498 87.8775V55.1095C470.498 50.4159 469.514 46.7466 467.548 44.1013C465.582 41.3706 462.204 40.0053 457.416 40.0053C452.457 40.0053 448.567 41.4559 445.746 44.3573C442.924 47.1733 441.514 50.7573 441.514 55.1095V87.8775C441.514 90.096 440.787 91.9735 439.333 93.5095C437.88 94.96 436.042 95.6855 433.819 95.6855C431.596 95.6855 429.757 94.96 428.304 93.5095C426.851 91.9735 426.124 90.096 426.124 87.8775V35.0133C426.124 32.7946 426.851 30.9599 428.304 29.5093C429.757 27.9733 431.596 27.2053 433.819 27.2053C436.042 27.2053 437.88 27.9733 439.333 29.5093C440.787 30.9599 441.514 32.7946 441.514 35.0133V37.1893C443.822 34.1173 446.814 31.4719 450.491 29.2533C454.253 27.0346 458.357 25.9253 462.803 25.9253ZM559.336 25.9253C561.559 25.9253 563.397 26.6506 564.85 28.1013C566.304 29.5519 567.031 31.4293 567.031 33.7333V90.6935C567.031 101.104 563.781 108.784 557.284 113.733C550.871 118.768 542.706 121.285 532.788 121.285C530.223 121.285 526.675 120.858 522.144 120.005C517.698 119.152 514.534 118.298 512.653 117.445C508.464 115.653 506.369 113.178 506.369 110.021C506.369 109.424 506.498 108.741 506.754 107.973C507.267 106.096 508.122 104.645 509.319 103.621C510.601 102.682 511.969 102.213 513.423 102.213C514.278 102.213 515.09 102.341 515.86 102.597C516.201 102.682 518.296 103.45 522.144 104.901C526.076 106.437 529.625 107.205 532.788 107.205C539.115 107.205 543.818 105.925 546.896 103.365C550.059 100.89 551.641 97.3495 551.641 92.7415V86.5975C549.76 89.2424 546.896 91.632 543.048 93.7655C539.286 95.8984 535.225 96.9655 530.865 96.9655C524.88 96.9655 519.407 95.472 514.449 92.4855C509.575 89.4135 505.728 85.1895 502.907 79.8135C500.085 74.4375 498.674 68.336 498.674 61.5095C498.674 54.6824 500.042 48.5813 502.778 43.2053C505.6 37.7439 509.404 33.5199 514.192 30.5333C519.066 27.4613 524.452 25.9253 530.352 25.9253C534.712 25.9253 538.773 26.8213 542.535 28.6133C546.297 30.4053 549.332 32.5813 551.641 35.1413V33.7333C551.641 31.5146 552.367 29.6799 553.821 28.2293C555.274 26.6933 557.112 25.9253 559.336 25.9253ZM532.788 82.8855C538.516 82.8855 543.177 80.88 546.767 76.8695C550.444 72.7735 552.282 67.6535 552.282 61.5095C552.282 55.3655 550.444 50.2453 546.767 46.1493C543.177 42.0533 538.516 40.0053 532.788 40.0053C527.06 40.0053 522.4 42.0533 518.809 46.1493C515.218 50.2453 513.423 55.3655 513.423 61.5095C513.423 67.6535 515.218 72.7735 518.809 76.8695C522.4 80.88 527.06 82.8855 532.788 82.8855ZM636.937 20.8053V43.3333H664.638C666.861 43.3333 668.699 44.0586 670.153 45.5093C671.692 46.8746 672.462 48.6666 672.462 50.8853C672.462 52.7626 671.692 54.4264 670.153 55.8775C668.699 57.328 666.861 58.0535 664.638 58.0535H636.937V87.8775C636.937 90.096 636.124 91.9735 634.5 93.5095C632.961 94.96 631.123 95.6855 628.986 95.6855C626.591 95.6855 624.625 94.96 623.086 93.5095C621.632 92.0584 620.906 90.1815 620.906 87.8775V13.8933C620.906 11.6746 621.632 9.83987 623.086 8.38923C624.625 6.85323 626.506 6.08523 628.729 6.08523H670.41C672.632 6.08523 674.47 6.81052 675.924 8.26123C677.463 9.62652 678.233 11.4186 678.233 13.6373C678.233 15.5146 677.463 17.1786 675.924 18.6293C674.47 20.0799 672.632 20.8053 670.41 20.8053H636.937ZM706.13 87.8775C706.13 90.096 705.403 91.9735 703.949 93.5095C702.496 94.96 700.658 95.6855 698.435 95.6855C696.211 95.6855 694.373 94.96 692.92 93.5095C691.466 91.9735 690.74 90.096 690.74 87.8775V35.0133C690.74 32.7946 691.466 30.9599 692.92 29.5093C694.373 27.9733 696.211 27.2053 698.435 27.2053C700.658 27.2053 702.496 27.9733 703.949 29.5093C705.403 30.9599 706.13 32.7946 706.13 35.0133V87.8775ZM698.307 18.8853C695.399 18.8853 693.347 18.4159 692.151 17.4773C690.953 16.5386 690.355 14.8746 690.355 12.4853V10.0533C690.355 7.66387 690.996 5.99987 692.279 5.06123C693.561 4.12252 695.613 3.65323 698.435 3.65323C701.427 3.65323 703.522 4.12252 704.719 5.06123C705.916 5.99987 706.514 7.66387 706.514 10.0533V12.4853C706.514 14.9599 705.873 16.6666 704.591 17.6053C703.393 18.4586 701.299 18.8853 698.307 18.8853ZM765.676 81.6055C767.728 81.6055 769.442 82.288 770.806 83.6535C772.176 84.9335 772.858 86.5975 772.858 88.6455C772.858 90.608 772.176 92.272 770.806 93.6375C769.442 95.0024 767.728 95.6855 765.676 95.6855H724.381C722.416 95.6855 720.749 95.0024 719.379 93.6375C718.099 92.1864 717.457 90.6504 717.457 89.0295C717.457 87.5784 717.628 86.384 717.97 85.4455C718.312 84.4215 718.953 83.2695 719.892 81.9895L750.415 42.5653H725.535C723.483 42.5653 721.775 41.8826 720.405 40.5173C719.041 39.1519 718.353 37.4453 718.353 35.3973C718.353 33.4346 719.041 31.8133 720.405 30.5333C721.775 29.1679 723.483 28.4853 725.535 28.4853H765.035C766.918 28.4853 768.498 29.1679 769.78 30.5333C771.15 31.8133 771.832 33.4346 771.832 35.3973C771.832 36.6773 771.704 37.7866 771.448 38.7253C771.191 39.5786 770.596 40.6026 769.652 41.7973L738.873 81.6055H765.676ZM827.801 81.6055C829.853 81.6055 831.561 82.288 832.931 83.6535C834.295 84.9335 834.983 86.5975 834.983 88.6455C834.983 90.608 834.295 92.272 832.931 93.6375C831.561 95.0024 829.853 95.6855 827.801 95.6855H786.505C784.535 95.6855 782.867 95.0024 781.503 93.6375C780.221 92.1864 779.58 90.6504 779.58 89.0295C779.58 87.5784 779.749 86.384 780.093 85.4455C780.431 84.4215 781.072 83.2695 782.016 81.9895L812.539 42.5653H787.659C785.607 42.5653 783.893 41.8826 782.529 40.5173C781.159 39.1519 780.477 37.4453 780.477 35.3973C780.477 33.4346 781.159 31.8133 782.529 30.5333C783.893 29.1679 785.607 28.4853 787.659 28.4853H827.16C829.037 28.4853 830.622 29.1679 831.905 30.5333C833.269 31.8133 833.957 33.4346 833.957 35.3973C833.957 36.6773 833.829 37.7866 833.572 38.7253C833.316 39.5786 832.715 40.6026 831.777 41.7973L800.997 81.6055H827.801Z" fill="#57565C"/>
<path d="M98.7218 31.9805C101.131 49.1101 89.1971 64.948 72.0675 67.3562C54.9379 69.7645 39.1 57.831 36.6917 40.7014C34.2835 23.5718 46.217 7.73392 63.3465 5.32566C80.4761 2.9174 96.3138 14.8509 98.7218 31.9805Z" fill="url(#paint1_linear)"/>
<path d="M33.3778 90.421C34.5818 98.9851 28.6144 106.905 20.0503 108.109C11.4863 109.313 3.56646 103.345 2.36246 94.7815C1.15836 86.2175 7.12576 78.2977 15.6899 77.0936C24.2539 75.8896 32.1737 81.857 33.3778 90.421Z" fill="url(#paint2_linear)"/>
<defs>
<linearGradient id="paint0_linear" x1="0.465093" y1="43.6354" x2="12.8712" y2="41.8912" gradientUnits="userSpaceOnUse">
<stop stop-color="#71777A"/>
<stop offset="1" stop-color="#57565C"/>
</linearGradient>
<linearGradient id="paint1_linear" x1="36.6917" y1="40.7014" x2="98.7218" y2="31.9805" gradientUnits="userSpaceOnUse">
<stop stop-color="#71777A"/>
<stop offset="1" stop-color="#57565C"/>
</linearGradient>
<linearGradient id="paint2_linear" x1="2.36246" y1="94.7815" x2="33.3778" y2="90.421" gradientUnits="userSpaceOnUse">
<stop stop-color="#71777A"/>
<stop offset="1" stop-color="#57565C"/>
</linearGradient>
</defs>
</svg>
