<svg width="150" height="27" viewBox="0 0 150 27" fill="none" xmlns="http://www.w3.org/2000/svg">
<path d="M14.4694 2.06766C15.0389 2.36569 15.3238 2.84069 15.3238 3.49266C15.3238 3.88384 15.186 4.26569 14.9104 4.63825C14.6164 5.02943 14.2397 5.22502 13.7804 5.22502C13.468 5.22502 13.1557 5.14119 12.8433 4.97355C11.943 4.5451 10.9692 4.3309 9.92186 4.3309C8.6357 4.3309 7.51489 4.61031 6.55945 5.16913C5.60402 5.70933 4.86906 6.48237 4.35459 7.48826C3.84013 8.47551 3.58289 9.61179 3.58289 10.8971C3.58289 13.0951 4.16167 14.7623 5.31922 15.8986C6.49515 17.0348 8.02937 17.603 9.92186 17.603C11.0427 17.603 12.0165 17.3888 12.8433 16.9604C13.1741 16.8113 13.468 16.7369 13.7253 16.7369C14.203 16.7369 14.6072 16.9417 14.938 17.3516C15.2136 17.7054 15.3514 18.0873 15.3514 18.4972C15.3514 18.7951 15.2778 19.0653 15.1309 19.3075C14.9838 19.5495 14.7726 19.7358 14.497 19.8663C13.0638 20.5928 11.5388 20.956 9.92186 20.956C8.12123 20.956 6.46759 20.5741 4.96093 19.8104C3.45428 19.028 2.25079 17.8825 1.35047 16.3736C0.450158 14.8648 0 13.0392 0 10.8971C0 8.99709 0.422598 7.29267 1.26779 5.78384C2.13137 4.27501 3.31648 3.10148 4.82312 2.26324C6.32978 1.40637 8.02937 0.977946 9.92186 0.977946C11.5571 0.977946 13.073 1.34118 14.4694 2.06766ZM28.9099 5.72796C29.3877 5.72796 29.7827 5.89561 30.095 6.2309C30.4074 6.54757 30.5635 6.94805 30.5635 7.43238V19.3075C30.5635 21.729 29.9205 23.4892 28.6343 24.5884C27.3482 25.706 25.6302 26.2648 23.4804 26.2648C22.8558 26.2648 22.2126 26.2089 21.5512 26.0972C20.9081 26.004 20.3845 25.8737 19.9802 25.706C19.08 25.3148 18.6297 24.7745 18.6297 24.0854C18.6297 23.955 18.6573 23.806 18.7124 23.6384C18.8227 23.2285 19.0064 22.9119 19.2636 22.6884C19.5392 22.4834 19.8333 22.381 20.1456 22.381C20.3293 22.381 20.5039 22.4089 20.6692 22.4648C20.7979 22.5207 21.0184 22.6138 21.3307 22.7442C21.6614 22.8745 22.0014 22.977 22.3504 23.0516C22.718 23.1447 23.0946 23.1913 23.4804 23.1913C24.785 23.1913 25.7404 22.9025 26.3467 22.3251C26.9715 21.7663 27.2838 20.7976 27.2838 19.4192V19.1398C26.3284 20.3506 24.8402 20.956 22.819 20.956C21.8636 20.956 21.0184 20.7325 20.2834 20.2854C19.5485 19.8197 18.9789 19.1863 18.5746 18.3854C18.1705 17.5657 17.9683 16.6344 17.9683 15.5913V7.43238C17.9683 6.94805 18.1245 6.54757 18.4368 6.2309C18.7492 5.89561 19.1442 5.72796 19.6219 5.72796C20.0997 5.72796 20.4947 5.89561 20.807 6.2309C21.1195 6.54757 21.2756 6.94805 21.2756 7.43238V14.5854C21.2756 15.7589 21.5236 16.6064 22.0197 17.128C22.5342 17.631 23.2783 17.8825 24.2521 17.8825C25.2076 17.8825 25.9426 17.603 26.457 17.0442C26.9899 16.4667 27.2562 15.6472 27.2562 14.5854V7.43238C27.2562 6.94805 27.4125 6.54757 27.7248 6.2309C28.0372 5.89561 28.4322 5.72796 28.9099 5.72796ZM40.4311 5.44855C41.993 5.44855 43.2516 5.70002 44.207 6.20296C45.1625 6.68727 45.6401 7.33923 45.6401 8.15885C45.6401 8.56865 45.5207 8.93188 45.2818 9.24856C45.0431 9.54659 44.7306 9.69562 44.3448 9.69562C44.0509 9.69562 43.812 9.65835 43.6282 9.58385C43.4445 9.49071 43.2608 9.37894 43.077 9.24856C42.9116 9.09953 42.7463 8.97845 42.5809 8.88532C42.3972 8.79218 42.1216 8.70835 41.7541 8.63385C41.405 8.55934 41.1202 8.52209 40.8997 8.52209C39.5216 8.52209 38.4376 8.95982 37.6475 9.83532C36.8758 10.6922 36.49 11.8192 36.49 13.2163C36.49 14.5574 36.8851 15.6751 37.6751 16.5692C38.4652 17.4447 39.4758 17.8825 40.7068 17.8825C41.6071 17.8825 42.2777 17.7707 42.7187 17.5472C42.8289 17.4913 42.976 17.3981 43.1597 17.2677C43.3619 17.1186 43.5455 17.0069 43.7109 16.9325C43.8762 16.8579 44.0784 16.8207 44.3172 16.8207C44.7766 16.8207 45.1349 16.9697 45.3921 17.2677C45.6677 17.5657 45.8055 17.9476 45.8055 18.4133C45.8055 18.8604 45.5483 19.2795 45.0338 19.6707C44.5194 20.0619 43.8395 20.3785 42.9943 20.6207C42.1492 20.8442 41.2488 20.956 40.2933 20.956C38.8786 20.956 37.6292 20.6207 36.5451 19.9501C35.4795 19.2795 34.6527 18.3575 34.0646 17.1839C33.4767 15.9917 33.1827 14.6692 33.1827 13.2163C33.1827 11.7074 33.4858 10.3662 34.0922 9.19268C34.7169 8.01914 35.5805 7.10639 36.6829 6.45443C37.7853 5.78384 39.0348 5.44855 40.4311 5.44855ZM51.7765 18.9722C51.7765 19.4564 51.6112 19.8663 51.2804 20.2016C50.9681 20.5182 50.573 20.6766 50.0953 20.6766C49.6359 20.6766 49.2501 20.5182 48.9378 20.2016C48.6255 19.8663 48.4692 19.4564 48.4692 18.9722V1.70442C48.4692 1.2201 48.6255 0.819608 48.9378 0.502945C49.2685 0.16765 49.6728 0 50.1504 0C50.6098 0 50.9957 0.16765 51.308 0.502945C51.6203 0.819608 51.7765 1.2201 51.7765 1.70442V18.9722ZM58.7365 18.9722C58.7365 19.4564 58.5803 19.8663 58.268 20.2016C57.9555 20.5182 57.5605 20.6766 57.0828 20.6766C56.605 20.6766 56.21 20.5182 55.8977 20.2016C55.5853 19.8663 55.4292 19.4564 55.4292 18.9722V7.43238C55.4292 6.94805 55.5853 6.54757 55.8977 6.2309C56.21 5.89561 56.605 5.72796 57.0828 5.72796C57.5605 5.72796 57.9555 5.89561 58.268 6.2309C58.5803 6.54757 58.7365 6.94805 58.7365 7.43238V18.9722ZM57.0553 3.91178C56.4305 3.91178 55.9896 3.80932 55.7324 3.60442C55.4751 3.39951 55.3465 3.03628 55.3465 2.51472V1.98383C55.3465 1.46226 55.4843 1.09902 55.7599 0.894123C56.0355 0.689212 56.4765 0.586769 57.0828 0.586769C57.7259 0.586769 58.176 0.689212 58.4333 0.894123C58.6905 1.09902 58.8192 1.46226 58.8192 1.98383V2.51472C58.8192 3.05491 58.6814 3.42745 58.4058 3.63237C58.1484 3.81863 57.6983 3.91178 57.0553 3.91178ZM70.0179 5.44855C71.892 5.44855 73.1873 6.01668 73.9039 7.15296C74.6205 8.27061 74.9788 9.826 74.9788 11.8192V18.9722C74.9788 19.4564 74.8226 19.8663 74.5103 20.2016C74.1979 20.5182 73.8028 20.6766 73.3251 20.6766C72.8475 20.6766 72.4523 20.5182 72.14 20.2016C71.8277 19.8663 71.6715 19.4564 71.6715 18.9722V11.8192C71.6715 10.7946 71.4602 9.99365 71.0376 9.4162C70.615 8.82012 69.8892 8.52209 68.8603 8.52209C67.7946 8.52209 66.9586 8.83875 66.3523 9.47209C65.7459 10.0868 65.4428 10.8691 65.4428 11.8192V18.9722C65.4428 19.4564 65.2865 19.8663 64.9742 20.2016C64.6619 20.5182 64.2668 20.6766 63.7891 20.6766C63.3114 20.6766 62.9163 20.5182 62.604 20.2016C62.2917 19.8663 62.1355 19.4564 62.1355 18.9722V7.43238C62.1355 6.94805 62.2917 6.54757 62.604 6.2309C62.9163 5.89561 63.3114 5.72796 63.7891 5.72796C64.2668 5.72796 64.6619 5.89561 64.9742 6.2309C65.2865 6.54757 65.4428 6.94805 65.4428 7.43238V7.90738C65.9389 7.23679 66.5819 6.65933 67.372 6.17502C68.1804 5.6907 69.0624 5.44855 70.0179 5.44855ZM90.763 5.44855C91.2406 5.44855 91.6356 5.60687 91.9481 5.92355C92.2604 6.24021 92.4166 6.65002 92.4166 7.15296V19.5869C92.4166 21.8594 91.7183 23.5359 90.322 24.6163C88.9439 25.7153 87.1892 26.2648 85.0579 26.2648C84.5067 26.2648 83.7441 26.1716 82.7703 25.9854C81.8149 25.7991 81.135 25.6128 80.7308 25.4266C79.8305 25.0354 79.3804 24.4951 79.3804 23.806C79.3804 23.6756 79.4079 23.5266 79.463 23.3589C79.5733 22.9491 79.7569 22.6325 80.0143 22.4089C80.2899 22.204 80.5838 22.1016 80.8962 22.1016C81.0799 22.1016 81.2545 22.1295 81.4199 22.1854C81.4933 22.204 81.9435 22.3716 82.7703 22.6884C83.6154 23.0236 84.378 23.1913 85.0579 23.1913C86.4175 23.1913 87.4281 22.9119 88.0896 22.3531C88.7693 21.8128 89.1093 21.0398 89.1093 20.0339V18.6928C88.705 19.2701 88.0896 19.7917 87.2627 20.2575C86.4542 20.7231 85.5815 20.956 84.6445 20.956C83.3583 20.956 82.1823 20.63 81.1167 19.978C80.0694 19.3075 79.2426 18.3854 78.6362 17.2119C78.0299 16.0383 77.7267 14.7064 77.7267 13.2163C77.7267 11.726 78.0206 10.3941 78.6087 9.22062C79.215 8.02845 80.0326 7.10639 81.0616 6.45443C82.1089 5.78384 83.2664 5.44855 84.5342 5.44855C85.4713 5.44855 86.344 5.64414 87.1525 6.03531C87.9609 6.42649 88.6132 6.90149 89.1093 7.46032V7.15296C89.1093 6.66864 89.2654 6.26815 89.5778 5.95149C89.8902 5.61619 90.2851 5.44855 90.763 5.44855ZM85.0579 17.8825C86.2888 17.8825 87.2903 17.4447 88.062 16.5692C88.852 15.6751 89.2471 14.5574 89.2471 13.2163C89.2471 11.8751 88.852 10.7574 88.062 9.86327C87.2903 8.96915 86.2888 8.52209 85.0579 8.52209C83.8268 8.52209 82.8255 8.96915 82.0538 9.86327C81.2821 10.7574 80.8962 11.8751 80.8962 13.2163C80.8962 14.5574 81.2821 15.6751 82.0538 16.5692C82.8255 17.4447 83.8268 17.8825 85.0579 17.8825ZM107.44 4.3309V9.24856H113.393C113.87 9.24856 114.265 9.40688 114.578 9.72356C114.909 10.0216 115.074 10.4128 115.074 10.8971C115.074 11.3069 114.909 11.6701 114.578 11.9869C114.265 12.3035 113.87 12.4619 113.393 12.4619H107.44V18.9722C107.44 19.4564 107.265 19.8663 106.916 20.2016C106.585 20.5182 106.19 20.6766 105.731 20.6766C105.216 20.6766 104.794 20.5182 104.463 20.2016C104.151 19.8848 103.994 19.4751 103.994 18.9722V2.82207C103.994 2.33775 104.151 1.93726 104.463 1.6206C104.794 1.2853 105.198 1.11765 105.676 1.11765H114.633C115.111 1.11765 115.506 1.27598 115.818 1.59265C116.149 1.89069 116.314 2.28186 116.314 2.76619C116.314 3.17598 116.149 3.53922 115.818 3.8559C115.506 4.17256 115.111 4.3309 114.633 4.3309H107.44ZM122.309 18.9722C122.309 19.4564 122.153 19.8663 121.841 20.2016C121.528 20.5182 121.133 20.6766 120.656 20.6766C120.178 20.6766 119.783 20.5182 119.47 20.2016C119.158 19.8663 119.002 19.4564 119.002 18.9722V7.43238C119.002 6.94805 119.158 6.54757 119.47 6.2309C119.783 5.89561 120.178 5.72796 120.656 5.72796C121.133 5.72796 121.528 5.89561 121.841 6.2309C122.153 6.54757 122.309 6.94805 122.309 7.43238V18.9722ZM120.628 3.91178C120.003 3.91178 119.562 3.80932 119.305 3.60442C119.048 3.39951 118.919 3.03628 118.919 2.51472V1.98383C118.919 1.46226 119.057 1.09902 119.333 0.894123C119.608 0.689212 120.049 0.586769 120.656 0.586769C121.299 0.586769 121.749 0.689212 122.006 0.894123C122.263 1.09902 122.392 1.46226 122.392 1.98383V2.51472C122.392 3.05491 122.254 3.42745 121.978 3.63237C121.721 3.81863 121.271 3.91178 120.628 3.91178ZM135.106 17.603C135.547 17.603 135.915 17.752 136.208 18.0501C136.503 18.3295 136.649 18.6928 136.649 19.1398C136.649 19.5682 136.503 19.9314 136.208 20.2295C135.915 20.5275 135.547 20.6766 135.106 20.6766H126.231C125.809 20.6766 125.451 20.5275 125.157 20.2295C124.881 19.9128 124.744 19.5775 124.744 19.2236C124.744 18.9069 124.78 18.6461 124.854 18.4413C124.927 18.2177 125.065 17.9663 125.267 17.6869L131.826 9.08091H126.479C126.038 9.08091 125.671 8.93188 125.377 8.63385C125.084 8.33581 124.936 7.96326 124.936 7.5162C124.936 7.08776 125.084 6.73384 125.377 6.45443C125.671 6.15639 126.038 6.00737 126.479 6.00737H134.968C135.373 6.00737 135.712 6.15639 135.988 6.45443C136.282 6.73384 136.429 7.08776 136.429 7.5162C136.429 7.79561 136.401 8.03776 136.346 8.24267C136.291 8.42894 136.163 8.65247 135.96 8.91326L129.346 17.603H135.106ZM148.457 17.603C148.898 17.603 149.265 17.752 149.559 18.0501C149.852 18.3295 150 18.6928 150 19.1398C150 19.5682 149.852 19.9314 149.559 20.2295C149.265 20.5275 148.898 20.6766 148.457 20.6766H139.582C139.159 20.6766 138.8 20.5275 138.507 20.2295C138.232 19.9128 138.094 19.5775 138.094 19.2236C138.094 18.9069 138.13 18.6461 138.204 18.4413C138.277 18.2177 138.414 17.9663 138.617 17.6869L145.177 9.08091H139.83C139.389 9.08091 139.021 8.93188 138.728 8.63385C138.433 8.33581 138.287 7.96326 138.287 7.5162C138.287 7.08776 138.433 6.73384 138.728 6.45443C139.021 6.15639 139.389 6.00737 139.83 6.00737H148.319C148.722 6.00737 149.063 6.15639 149.339 6.45443C149.632 6.73384 149.78 7.08776 149.78 7.5162C149.78 7.79561 149.752 8.03776 149.697 8.24267C149.642 8.42894 149.513 8.65247 149.311 8.91326L142.696 17.603H148.457Z" fill="#57565C"/>
</svg>
