<svg width="25" height="25" viewBox="0 0 25 25" fill="none" xmlns="http://www.w3.org/2000/svg">
<path d="M15.0864 5.59148C16.2424 6.31624 17.0529 7.54268 17.2005 8.9663C17.6719 9.18657 18.1951 9.31324 18.7498 9.31324C20.775 9.31324 22.4164 7.67185 22.4164 5.64701C22.4164 3.62186 20.775 1.98047 18.7498 1.98047C16.744 1.98109 15.117 3.59316 15.0864 5.59148ZM12.6844 13.0987C14.7095 13.0987 16.3509 11.4569 16.3509 9.43211C16.3509 7.40728 14.7092 5.76588 12.6844 5.76588C10.6596 5.76588 9.01722 7.40759 9.01722 9.43242C9.01722 11.4573 10.6596 13.0987 12.6844 13.0987ZM14.2397 13.3486H11.1285C8.53987 13.3486 6.43392 15.4548 6.43392 18.0434V21.8482L6.44359 21.9078L6.70567 21.9898C9.17603 22.7617 11.3222 23.0191 13.0887 23.0191C16.5391 23.0191 18.5389 22.0354 18.6622 21.9727L18.9071 21.8488H18.9333V18.0434C18.9342 15.4548 16.8283 13.3486 14.2397 13.3486ZM20.3058 9.56346H17.2186C17.1852 10.7986 16.6579 11.9109 15.824 12.7108C18.1249 13.395 19.8084 15.5288 19.8084 18.049V19.2215C22.8566 19.1098 24.6131 18.2459 24.7289 18.1879L24.9738 18.0637H25V14.2577C25 11.6694 22.894 9.56346 20.3058 9.56346ZM6.25078 9.31386C6.96805 9.31386 7.63541 9.10452 8.20074 8.74791C8.38044 7.57575 9.0088 6.55148 9.9064 5.85386C9.91015 5.78522 9.9167 5.71721 9.9167 5.64795C9.9167 3.6228 8.27499 1.9814 6.25078 1.9814C4.22532 1.9814 2.58424 3.6228 2.58424 5.64795C2.58424 7.67216 4.22532 9.31386 6.25078 9.31386ZM9.54356 12.7108C8.71365 11.915 8.18826 10.8086 8.14988 9.58093C8.03538 9.57251 7.92213 9.56346 7.80544 9.56346H4.69456C2.10595 9.56346 0 11.6694 0 14.2577V18.0631L0.00967178 18.1217L0.271746 18.2044C2.25353 18.8231 4.02221 19.1083 5.55847 19.1981V18.049C5.55909 15.5288 7.24198 13.3957 9.54356 12.7108Z" fill="#2F373D"/>
</svg>
