<svg width="25" height="25" viewBox="0 0 25 25" fill="none" xmlns="http://www.w3.org/2000/svg">
<path d="M15.8925 21.1426H3.85742C2.53813 21.1426 1.46484 20.0693 1.46484 18.75C1.46484 17.4307 2.53813 16.3574 3.85742 16.3574H8.54492C10.6719 16.3574 12.4023 14.627 12.4023 12.5C12.4023 10.373 10.6719 8.64258 8.54492 8.64258H5.98252C6.02954 8.87959 6.05469 9.12437 6.05469 9.375C6.05469 9.62563 6.02954 9.87041 5.98252 10.1074H8.54492C9.86421 10.1074 10.9375 11.1807 10.9375 12.5C10.9375 13.8193 9.86421 14.8926 8.54492 14.8926H3.85742C1.73042 14.8926 0 16.623 0 18.75C0 20.877 1.73042 22.6074 3.85742 22.6074H15.8925C15.8455 22.3704 15.8203 22.1256 15.8203 21.875C15.8203 21.6244 15.8455 21.3796 15.8925 21.1426Z" fill="#2F373D"/>
<path d="M19.5801 19.5801C18.3146 19.5801 17.2852 20.6096 17.2852 21.875C17.2852 23.1404 18.3146 24.1699 19.5801 24.1699C20.8455 24.1699 21.875 23.1404 21.875 21.875C21.875 20.6096 20.8455 19.5801 19.5801 19.5801Z" fill="#2F373D"/>
<path d="M6.98242 0.830078H2.29492C1.89043 0.830078 1.5625 1.15801 1.5625 1.5625C1.5625 2.16743 1.5625 6.58882 1.5625 7.20063C0.655273 7.50708 0 8.36567 0 9.375C0 10.6404 1.02949 11.6699 2.29492 11.6699C3.56035 11.6699 4.58984 10.6404 4.58984 9.375C4.58984 8.36567 3.93457 7.50708 3.02734 7.20063V5.41992H6.98242C7.38691 5.41992 7.71484 5.09199 7.71484 4.6875V1.5625C7.71484 1.15801 7.38691 0.830078 6.98242 0.830078Z" fill="#2F373D"/>
<path d="M19.5801 2.39258C16.5915 2.39258 14.1602 4.82393 14.1602 7.8125C14.1602 9.42632 14.8632 10.9299 16.095 11.9636L18.9275 17.5201C19.1988 18.0523 19.9614 18.0522 20.2326 17.5201L23.0651 11.9636C24.2969 10.9299 25 9.42632 25 7.8125C25 4.82393 22.5687 2.39258 19.5801 2.39258ZM19.5801 10.1074C18.3146 10.1074 17.2852 9.07793 17.2852 7.8125C17.2852 6.54707 18.3146 5.51758 19.5801 5.51758C20.8455 5.51758 21.875 6.54707 21.875 7.8125C21.875 9.07793 20.8455 10.1074 19.5801 10.1074Z" fill="#2F373D"/>
</svg>
