<svg width="25" height="25" viewBox="0 0 25 25" fill="none" xmlns="http://www.w3.org/2000/svg">
<g clip-path="url(#clip0)">
<path d="M23.1474 2.3562H5.99327C4.96402 2.3562 4.14062 3.20247 4.14062 4.20885V14.8673C4.14062 15.8965 4.9869 16.7199 5.99327 16.7199H17.8182L20.4942 19.4189C20.6086 19.5332 20.7458 19.6018 20.9059 19.6018C21.2262 19.6018 21.5006 19.3502 21.5006 19.0072V16.7199H23.1474C24.1767 16.7199 25.0001 15.8737 25.0001 14.8673V4.20885C25.0001 3.1796 24.1538 2.3562 23.1474 2.3562ZM8.62358 11.528C7.68582 11.528 6.90816 10.7503 6.90816 9.81254C6.90816 8.87478 7.68582 8.09712 8.62358 8.09712C9.56134 8.09712 10.339 8.87478 10.339 9.81254C10.339 10.7503 9.58421 11.528 8.62358 11.528ZM14.639 11.528C13.7012 11.528 12.9235 10.7503 12.9235 9.81254C12.9235 8.87478 13.7012 8.09712 14.639 8.09712C15.5767 8.09712 16.3544 8.87478 16.3544 9.81254C16.3544 10.7503 15.5767 11.528 14.639 11.528ZM20.6315 11.528C19.6937 11.528 18.9161 10.7503 18.9161 9.81254C18.9161 8.87478 19.6937 8.09712 20.6315 8.09712C21.5692 8.09712 22.3469 8.87478 22.3469 9.81254C22.3469 10.7503 21.5692 11.528 20.6315 11.528Z" fill="#2F373D"/>
<path d="M3.08844 14.913V11.2764H1.21292C0.549622 11.2764 0.000689683 11.8253 0.000689683 12.4886V19.4875C-0.0221825 20.1965 0.52675 20.7455 1.21292 20.7455H2.28791V22.255C2.28791 22.4609 2.47089 22.6438 2.67674 22.6438C2.7911 22.6438 2.88259 22.5981 2.9512 22.5295L4.71236 20.7683H12.4889C13.1522 20.7683 13.7011 20.2194 13.7011 19.5561V17.8178H5.99321C4.39215 17.8178 3.08844 16.5141 3.08844 14.913Z" fill="#2F373D"/>
</g>
<defs>
<clipPath id="clip0">
<rect width="25" height="25" fill="white"/>
</clipPath>
</defs>
</svg>
