<svg width="25" height="25" viewBox="0 0 25 25" fill="none" xmlns="http://www.w3.org/2000/svg">
<path d="M23.6111 9.72222H19.4445V8.19444C21.8056 7.63889 23.6111 5.41667 23.6111 2.77778H19.4445V1.38889C19.4445 0.555556 18.8889 0 18.0556 0H6.94447C6.11114 0 5.55558 0.555556 5.55558 1.38889V2.77778H1.38892C1.38892 5.41667 3.19447 7.5 5.55558 8.19444V9.72222H1.38892C1.38892 12.3611 3.19447 14.4444 5.55558 15.1389V16.6667H1.38892C1.38892 19.3056 3.19447 21.3889 5.55558 22.0833V23.6111C5.55558 24.4444 6.11114 25 6.94447 25H18.0556C18.8889 25 19.4445 24.4444 19.4445 23.6111V22.0833C21.8056 21.5278 23.6111 19.3056 23.6111 16.6667H19.4445V15.1389C21.8056 14.4444 23.6111 12.3611 23.6111 9.72222ZM12.5 22.2222C10.9722 22.2222 9.72225 20.9722 9.72225 19.4444C9.72225 17.9167 10.9722 16.6667 12.5 16.6667C14.0278 16.6667 15.2778 17.9167 15.2778 19.4444C15.2778 20.9722 14.0278 22.2222 12.5 22.2222ZM12.5 15.2778C10.9722 15.2778 9.72225 14.0278 9.72225 12.5C9.72225 10.9722 10.9722 9.72222 12.5 9.72222C14.0278 9.72222 15.2778 10.9722 15.2778 12.5C15.2778 14.0278 14.0278 15.2778 12.5 15.2778ZM12.5 8.33333C10.9722 8.33333 9.72225 7.08333 9.72225 5.55556C9.72225 4.02778 10.9722 2.77778 12.5 2.77778C14.0278 2.77778 15.2778 4.02778 15.2778 5.55556C15.2778 7.08333 14.0278 8.33333 12.5 8.33333Z" fill="#2F373D"/>
</svg>
