<svg width="26" height="24" viewBox="0 0 26 24" fill="none" xmlns="http://www.w3.org/2000/svg">
<path d="M10.4796 20.5147H3.21887C2.94936 20.5147 2.73059 20.2961 2.73059 20.0264V17.4977C2.73059 17.2282 2.94936 17.0094 3.21887 17.0094H10.4796C10.7491 17.0094 10.9679 17.2282 10.9679 17.4977V20.0264C10.9679 20.2961 10.7493 20.5147 10.4796 20.5147ZM3.70715 19.5382H9.99129V17.986H3.70715V19.5382Z" fill="#2F373D"/>
<path d="M25.5391 3.08701C25.5368 2.9575 25.4834 2.83429 25.3903 2.74426L23.5352 0.949825C23.3414 0.762333 23.0322 0.767483 22.8447 0.961269L13.1594 10.9739V5.75119C13.1594 4.26785 11.9526 3.06107 10.4693 3.06107H3.22919C1.74584 3.06107 0.539062 4.26785 0.539062 5.75119V22.6991C0.539062 22.9688 0.757645 23.1874 1.02734 23.1874H16.239C16.5085 23.1874 16.7273 22.9688 16.7273 22.6991C16.7273 22.4296 16.5085 22.2108 16.239 22.2108H13.1594V13.3392C13.1594 12.6457 13.7072 12.0777 14.3927 12.0451C14.3979 12.0451 14.4032 12.0449 14.4083 12.0445C14.4238 12.0439 14.4394 12.0437 14.4551 12.0437C15.1696 12.0437 15.7507 12.6249 15.7507 13.3392V18.2558C15.7507 18.5255 15.9693 18.7441 16.239 18.7441C16.5085 18.7441 16.7273 18.5255 16.7273 18.2558V13.3392C16.7273 13.0615 16.6771 12.7952 16.5854 12.5488L25.4017 3.43472C25.4918 3.34164 25.5412 3.21652 25.5391 3.08701V3.08701ZM20.6622 6.92994L19.9067 7.71099L20.5595 4.72828L21.6671 3.58349L21.0139 6.5662L20.6622 6.92994ZM16.8959 10.8234L17.5492 7.84031L19.2675 6.064L18.6144 9.04671L16.8959 10.8234ZM1.51562 5.75119C1.51562 4.80629 2.28429 4.03763 3.22919 4.03763H10.4693C11.4142 4.03763 12.1829 4.80629 12.1829 5.75119V14.3369H11.2063V5.50248C11.2063 5.23278 10.9877 5.01419 10.718 5.01419H2.98047C2.71077 5.01419 2.49219 5.23278 2.49219 5.50248V14.3369H1.51562V5.75119ZM10.2297 14.3369H3.46875V5.99076H10.2297V14.3369ZM1.51562 15.3135H12.1829V22.2108H1.51562V15.3135ZM14.9731 11.1267L15.1495 10.3212L16.257 9.17641L15.7534 11.4755C15.5211 11.3132 15.2573 11.1932 14.9731 11.1267ZM22.3061 5.2303L22.9592 2.24759L23.2071 1.99124L24.3603 3.10666L22.3061 5.2303Z" fill="#2F373D"/>
<path d="M14.4551 15.1307C14.1854 15.1307 13.9668 14.9121 13.9668 14.6424V13.8287C13.9668 13.559 14.1854 13.3405 14.4551 13.3405C14.7248 13.3405 14.9434 13.559 14.9434 13.8287V14.6424C14.9434 14.9121 14.7248 15.1307 14.4551 15.1307Z" fill="#2F373D"/>
<path d="M16.2392 21.023C16.2069 21.023 16.1753 21.0196 16.1434 21.0133C16.1121 21.0068 16.0814 20.9976 16.0522 20.9854C16.0229 20.9732 15.9941 20.9582 15.9677 20.9404C15.9414 20.9229 15.916 20.9025 15.8935 20.88C15.871 20.8574 15.8504 20.8325 15.8329 20.8058C15.8153 20.7792 15.8003 20.7504 15.7881 20.7213C15.7759 20.6919 15.7665 20.6612 15.7602 20.6299C15.7539 20.5986 15.7505 20.5664 15.7505 20.5347C15.7505 20.5031 15.7539 20.4708 15.7602 20.439C15.7665 20.4077 15.7759 20.377 15.7881 20.3478C15.8003 20.3184 15.8153 20.2902 15.8329 20.2633C15.8504 20.237 15.871 20.212 15.8935 20.1895C15.916 20.1666 15.9414 20.1466 15.9677 20.1285C15.9941 20.1109 16.0229 20.0959 16.0522 20.0836C16.0814 20.0714 16.1123 20.0621 16.1434 20.0558C16.3021 20.0241 16.4707 20.0758 16.5844 20.1895C16.6069 20.212 16.6269 20.237 16.6448 20.2633C16.6626 20.2902 16.6777 20.3184 16.6899 20.3478C16.7021 20.377 16.7114 20.4077 16.7177 20.439C16.724 20.4706 16.7274 20.5031 16.7274 20.5347C16.7274 20.5666 16.724 20.5986 16.7177 20.6299C16.7114 20.6612 16.7021 20.6919 16.6899 20.7213C16.6777 20.7506 16.6626 20.7792 16.6448 20.8058C16.6269 20.8325 16.6069 20.8574 16.5844 20.88C16.5619 20.9025 16.5365 20.9229 16.5102 20.9404C16.4833 20.958 16.4551 20.9732 16.4257 20.9854C16.3963 20.9976 16.3656 21.007 16.3343 21.0133C16.3027 21.0196 16.271 21.023 16.2392 21.023V21.023Z" fill="#2F373D"/>
</svg>
