<svg width="30" height="16" viewBox="0 0 30 16" fill="none" xmlns="http://www.w3.org/2000/svg">
<path d="M26.9096 8.20579C26.4643 8.20579 26.0456 8.30889 25.6602 8.50036L25.3545 7.41045L24.7829 5.37056C24.7098 5.11281 24.4572 4.96553 24.2246 5.04654C23.992 5.12754 23.8591 5.40738 23.9322 5.66513L24.0984 6.26163L20.7687 10.5697L13.2654 10.3414C13.1591 7.73448 12.9796 3.32331 12.9796 2.14503C12.9796 1.5338 12.8002 1.03303 12.4479 0.657459C11.8033 -0.0274133 10.8396 -0.0053213 10.7333 0.00204292C10.4874 0.0167714 10.2946 0.245062 10.3079 0.517539C10.3212 0.790015 10.5272 1.00358 10.7731 0.98885C10.9459 0.981485 11.5175 1.03303 11.8365 1.37179C12.0093 1.55589 12.0957 1.80628 12.0957 2.14503C12.0957 2.65316 12.1289 3.74307 12.1688 5.00971L6.62605 4.58995C6.62605 4.58995 6.62605 4.58995 6.61941 4.58995L6.61276 4.56786L6.20071 3.60315L7.35046 3.55896C7.36376 3.55896 7.38369 3.55896 7.39699 3.55896C7.64953 3.55896 7.86221 3.36749 7.88879 3.10975C7.91537 2.83727 7.716 2.59425 7.44351 2.57216L4.34648 2.27022C4.07399 2.24077 3.83474 2.4396 3.80815 2.71208C3.78157 2.98455 4.06735 3.63261 4.33983 3.66206L5.23039 3.63261C5.23704 3.6547 5.24369 3.66943 5.25033 3.69152L5.96145 5.3411L5.09083 7.32944C4.69871 7.1748 4.27337 7.09379 3.83474 7.09379C1.72131 7.09379 0 9.00112 0 11.3429C0 13.6848 1.72131 15.5921 3.83474 15.5921C5.52282 15.5921 6.95835 14.377 7.47009 12.698L9.1914 12.9852C9.57022 13.0294 9.91582 12.8452 10.1351 12.536L12.8666 12.8379C12.8733 12.8379 12.8866 12.8379 12.8932 12.8379H12.8999L21.4067 13.1177C21.4134 13.1177 21.4134 13.1325 21.42 13.1325C21.4533 13.1325 21.4865 13.1177 21.5131 13.1104C21.5197 13.1104 21.5264 13.0956 21.5397 13.0956C21.5596 13.0883 21.5862 13.0809 21.6061 13.0662C21.6194 13.0588 21.6261 13.0514 21.6327 13.0441C21.6526 13.0367 21.6659 13.022 21.6859 13.0073C21.6925 12.9999 21.7058 12.9925 21.7124 12.9852C21.7324 12.9704 21.7457 12.9483 21.759 12.9336C21.7656 12.9263 21.7723 12.9263 21.7723 12.9189L24.763 8.63291L24.8826 9.0674C24.2313 9.69336 23.8192 10.6213 23.8192 11.6522C23.8192 13.5449 25.2082 15.0766 26.9096 15.0766C28.611 15.0766 30 13.5375 30 11.6522C30 9.767 28.611 8.20579 26.9096 8.20579ZM3.83474 14.5758C2.21311 14.5758 0.890563 13.1177 0.890563 11.3209C0.890563 9.52398 2.21311 8.0585 3.83474 8.0585C4.13381 8.0585 4.42623 8.11005 4.69872 8.20579L3.59548 10.7391C3.35623 10.8054 3.16349 11.0263 3.13691 11.3135C3.10368 11.6743 3.34293 11.9984 3.66859 12.0352L6.56624 12.5212C6.13425 13.729 5.07089 14.5758 3.83474 14.5758ZM4.59903 10.7023L5.50288 8.63291C6.11431 9.10422 6.56624 9.82592 6.7191 10.6654L4.59903 10.7023ZM7.6163 10.6507C7.44351 9.42825 6.7922 8.38253 5.88835 7.74184L6.44661 6.46047L8.25432 10.6433L7.6163 10.6507ZM10.3345 11.5491C10.2415 11.0557 9.8693 10.6728 9.39743 10.6213H9.24457L7.0514 5.55467L12.1954 5.96706C12.2751 8.18369 12.3815 10.6728 12.4346 11.7774L10.3345 11.5491ZM21.2007 12.0941L13.3319 11.8437C13.3252 11.6964 13.3186 11.5197 13.3119 11.3209L20.9615 11.5565H20.9681V11.5639H20.9747C21.008 11.5639 21.0346 11.5565 21.0678 11.5491C21.0744 11.5491 21.0811 11.5418 21.0877 11.5418C21.1077 11.5344 21.1342 11.5271 21.1542 11.5197C21.1675 11.5123 21.1741 11.505 21.1808 11.505C21.2007 11.4976 21.214 11.4829 21.2273 11.4755C21.2406 11.4681 21.2472 11.4608 21.2539 11.4534C21.2672 11.4387 21.2805 11.424 21.2938 11.4092C21.3004 11.4019 21.3004 11.4019 21.307 11.3945L24.4107 7.381L24.4373 7.46936L21.2007 12.0941ZM26.9096 14.0751C25.6934 14.0751 24.7098 12.9852 24.7098 11.6375C24.7098 11.0705 24.8892 10.5476 25.1817 10.1352L25.3943 10.9085C25.4475 11.1294 25.6801 11.6964 26.7634 12.1088C26.8099 12.1309 26.8631 12.1383 26.9096 12.1383C27.0957 12.1383 27.2685 12.0131 27.3283 11.8069C27.4081 11.5491 27.2818 11.2693 27.0492 11.1809C26.4245 10.9453 26.2782 10.7023 26.2517 10.6581L25.9194 9.47243C26.2184 9.31042 26.5507 9.21469 26.903 9.21469C28.1192 9.21469 29.1028 10.3046 29.1028 11.6522C29.1094 12.9778 28.1192 14.0751 26.9096 14.0751Z" fill="#2F373D"/>
<path d="M20.2832 10.3619L23.7929 5.76026C21.2242 4.32319 18.0833 3.22118 13.4481 2.96057L13.6198 10.0566L20.2832 10.3619Z" fill="#2F373D"/>
</svg>
