<svg width="25" height="25" viewBox="0 0 25 25" fill="none" xmlns="http://www.w3.org/2000/svg">
<path d="M24.9998 24.023C24.9998 24.5624 24.5626 24.9996 24.0232 24.9996H0.976746C0.43754 24.9996 0.000185244 24.5624 0.000185244 24.023C0.000185244 23.4836 0.43754 23.0465 0.976746 23.0465H24.0232C24.5626 23.0465 24.9998 23.4836 24.9998 24.023ZM0.977509 7.81251C1.1259 7.81251 1.27658 7.77875 1.41792 7.70704L12.5471 2.07217L23.5792 7.70551C24.0598 7.95099 24.6479 7.76025 24.893 7.27998C25.1382 6.79971 24.9477 6.21149 24.4674 5.9662L12.993 0.106837C12.7151 -0.0350699 12.3861 -0.0356421 12.1076 0.105311L0.535577 5.96468C0.0545446 6.20824 -0.138097 6.7959 0.105471 7.27693C0.277704 7.61682 0.621026 7.81251 0.977509 7.81251ZM13.7695 14.2576H12.2558C11.7166 14.2576 11.2793 14.6948 11.2793 15.2342C11.2793 15.7736 11.7166 16.2107 12.2558 16.2107H13.7695C16.4619 16.2107 18.6523 14.0204 18.6523 11.3279C18.6523 8.63553 16.4619 6.44533 13.7695 6.44533H8.34978C7.81038 6.44533 7.37322 6.88249 7.37322 7.4217C7.37322 7.47167 7.37818 7.52031 7.38524 7.56818C7.37818 7.61625 7.37322 7.66488 7.37322 7.71467V20.1168C7.37322 20.6562 7.81038 21.0934 8.34978 21.0934C8.88899 21.0934 9.32634 20.6562 9.32634 20.1168V8.39826H13.7695C15.385 8.39826 16.6992 9.71261 16.6992 11.3279C16.6992 12.9433 15.385 14.2576 13.7695 14.2576Z" fill="#2F373D"/>
</svg>
