<svg width="19" height="21" viewBox="0 0 19 21" fill="none" xmlns="http://www.w3.org/2000/svg">
<g clip-path="url(#clip0)">
<path d="M0.526231 14.4375H11.2863C11.3554 14.4376 11.4238 14.424 11.4877 14.3976C11.5516 14.3711 11.6096 14.3324 11.6585 14.2835C11.7074 14.2346 11.7461 14.1766 11.7726 14.1127C11.799 14.0488 11.8126 13.9804 11.8125 13.9113V12.3387C11.8126 12.2696 11.799 12.2012 11.7726 12.1373C11.7461 12.0734 11.7074 12.0154 11.6585 11.9665C11.6096 11.9176 11.5516 11.8789 11.4877 11.8524C11.4238 11.826 11.3554 11.8124 11.2863 11.8125H0.526231C0.45711 11.8124 0.388657 11.826 0.324787 11.8524C0.260918 11.8789 0.202885 11.9176 0.154009 11.9665C0.105133 12.0154 0.0663737 12.0734 0.0399472 12.1373C0.0135208 12.2012 -5.37773e-05 12.2696 1.60107e-07 12.3387V13.9113C-5.37773e-05 13.9804 0.0135208 14.0488 0.0399472 14.1127C0.0663737 14.1766 0.105133 14.2346 0.154009 14.2835C0.202885 14.3324 0.260918 14.3711 0.324787 14.3976C0.388657 14.424 0.45711 14.4376 0.526231 14.4375ZM0.526231 3.9375H11.2863C11.3554 3.93755 11.4238 3.92398 11.4877 3.89755C11.5516 3.87113 11.6096 3.83237 11.6585 3.78349C11.7074 3.73462 11.7461 3.67658 11.7726 3.61271C11.799 3.54884 11.8126 3.48039 11.8125 3.41127V1.83873C11.8126 1.76961 11.799 1.70116 11.7726 1.63729C11.7461 1.57342 11.7074 1.51538 11.6585 1.46651C11.6096 1.41763 11.5516 1.37887 11.4877 1.35245C11.4238 1.32602 11.3554 1.31245 11.2863 1.3125H0.526231C0.45711 1.31245 0.388657 1.32602 0.324787 1.35245C0.260918 1.37887 0.202885 1.41763 0.154009 1.46651C0.105133 1.51538 0.0663737 1.57342 0.0399472 1.63729C0.0135208 1.70116 -5.37773e-05 1.76961 1.60107e-07 1.83873V3.41127C-5.37773e-05 3.48039 0.0135208 3.54884 0.0399472 3.61271C0.0663737 3.67658 0.105133 3.73462 0.154009 3.78349C0.202885 3.83237 0.260918 3.87113 0.324787 3.89755C0.388657 3.92398 0.45711 3.93755 0.526231 3.9375ZM17.7188 6.5625H0.65625C0.482202 6.5625 0.315282 6.63164 0.192211 6.75471C0.0691406 6.87778 1.60107e-07 7.0447 1.60107e-07 7.21875V8.53125C1.60107e-07 8.7053 0.0691406 8.87222 0.192211 8.99529C0.315282 9.11836 0.482202 9.1875 0.65625 9.1875H17.7188C17.8928 9.1875 18.0597 9.11836 18.1828 8.99529C18.3059 8.87222 18.375 8.7053 18.375 8.53125V7.21875C18.375 7.0447 18.3059 6.87778 18.1828 6.75471C18.0597 6.63164 17.8928 6.5625 17.7188 6.5625ZM17.7188 17.0625H0.65625C0.482202 17.0625 0.315282 17.1316 0.192211 17.2547C0.0691406 17.3778 1.60107e-07 17.5447 1.60107e-07 17.7188V19.0312C1.60107e-07 19.2053 0.0691406 19.3722 0.192211 19.4953C0.315282 19.6184 0.482202 19.6875 0.65625 19.6875H17.7188C17.8928 19.6875 18.0597 19.6184 18.1828 19.4953C18.3059 19.3722 18.375 19.2053 18.375 19.0312V17.7188C18.375 17.5447 18.3059 17.3778 18.1828 17.2547C18.0597 17.1316 17.8928 17.0625 17.7188 17.0625Z" fill="#2F373D"/>
</g>
<defs>
<clipPath id="clip0">
<rect width="18.375" height="21" fill="white"/>
</clipPath>
</defs>
</svg>
