<svg width="27" height="27" viewBox="0 0 27 27" fill="none" xmlns="http://www.w3.org/2000/svg">
<path d="M10.0522 25.1665C9.96147 25.0757 9.8355 25.0234 9.70703 25.0234C9.57861 25.0234 9.45264 25.0757 9.36187 25.1665C9.27104 25.2573 9.21875 25.3833 9.21875 25.5117C9.21875 25.6401 9.271 25.7661 9.36187 25.8569C9.45264 25.9478 9.57861 26 9.70703 26C9.8355 26 9.96147 25.9478 10.0522 25.8569C10.1431 25.7661 10.1953 25.6401 10.1953 25.5117C10.1953 25.3833 10.1431 25.2573 10.0522 25.1665Z" fill="#2F373D" stroke="#2F373D" stroke-width="0.5"/>
<path d="M18.3302 21.272C18.0605 21.272 17.8419 21.4906 17.8419 21.7603C17.8419 22.6688 17.1027 23.4081 16.1941 23.4081C15.9245 23.4081 15.7058 23.6267 15.7058 23.8964C15.7058 24.1661 15.9245 24.3847 16.1941 24.3847C17.6412 24.3847 18.8185 23.2074 18.8185 21.7603C18.8185 21.4906 18.5998 21.272 18.3302 21.272Z" fill="#2F373D" stroke="#2F373D" stroke-width="0.5"/>
<path d="M21.8984 1C19.6369 1 17.7969 2.83994 17.7969 5.10156V10.9609C17.7969 13.0572 19.378 14.7901 21.4101 15.0324V19.3105H19.6527C18.8837 18.2281 17.62 17.5205 16.1941 17.5205C15.8207 17.5205 15.4585 17.5692 15.1134 17.6602L13.4848 13.5H15.4705C15.5852 13.5 15.686 13.5732 15.7215 13.6824C15.7577 13.7936 15.7136 13.8785 15.684 13.9191C15.6545 13.9598 15.5875 14.0279 15.4705 14.0279H14.9713C14.7017 14.0279 14.4831 14.2465 14.4831 14.5162C14.4831 14.7859 14.7017 15.0045 14.9713 15.0045H15.4705C15.8722 15.0045 16.238 14.8181 16.4742 14.493C16.7102 14.168 16.7744 13.7624 16.6502 13.3805C16.4836 12.8679 16.0095 12.5234 15.4704 12.5234H12.7692C12.6078 12.5234 12.4569 12.6032 12.3659 12.7365C12.2748 12.8698 12.2557 13.0394 12.3145 13.1897L13.2315 15.5322H9.17358L8.8061 14.6916L8.66728 14.3378C8.59394 14.1509 8.41362 14.0279 8.21274 14.0279H6.0896C5.67915 14.0279 5.29599 14.2304 5.06479 14.5695C4.83354 14.9087 4.78501 15.3393 4.93496 15.7214C5.12265 16.1997 5.57588 16.5087 6.0896 16.5087H7.70786L6.92246 17.8691C6.4063 17.645 5.8373 17.5205 5.2397 17.5205C2.90195 17.5205 1 19.4225 1 21.7602C1 23.0713 1.59819 24.2451 2.53594 25.0234H1.48828C1.21865 25.0234 1 25.242 1 25.5117C1 25.7814 1.21865 26 1.48828 26H5.23974C7.4124 26 9.2083 24.3572 9.45122 22.2485H11.3634C11.5282 22.2485 11.6818 22.1654 11.772 22.0276C11.8623 21.8897 11.8768 21.7156 11.8108 21.5647L9.60053 16.5088H13.6139L14.2044 18.0173C12.8668 18.7312 11.9543 20.1411 11.9543 21.7602C11.9543 23.0713 12.5525 24.2451 13.4902 25.0234H11.7578C11.4882 25.0234 11.2695 25.242 11.2695 25.5117C11.2695 25.7814 11.4882 26 11.7578 26H16.194C18.5318 26 20.4338 24.098 20.4338 21.7602C20.4338 21.2425 20.3403 20.7462 20.1697 20.2871H23.6725C23.9421 20.2871 24.1607 20.0685 24.1607 19.7989C24.1607 19.5292 23.9421 19.3106 23.6725 19.3106H22.3867V15.0325C24.4188 14.7902 26 13.0573 26 10.961V5.10156C26 2.83994 24.16 1 21.8984 1ZM6.0896 15.5322C5.98032 15.5322 5.88393 15.4664 5.84399 15.3647C5.7997 15.2518 5.84228 15.1627 5.87163 15.1197C5.90097 15.0767 5.96826 15.0045 6.0896 15.0045H7.87983L8.08691 15.5322H6.0896V15.5322ZM5.23974 25.0234C3.44038 25.0234 1.97656 23.5596 1.97656 21.7602C1.97656 19.9609 3.44038 18.4971 5.23974 18.4971C5.65957 18.4971 6.06069 18.5776 6.42968 18.7227L4.81689 21.5161C4.72969 21.6672 4.72969 21.8533 4.81689 22.0044C4.9041 22.1555 5.06533 22.2485 5.23974 22.2485H6.81372C6.60512 22.9195 5.97842 23.4081 5.23974 23.4081C4.97012 23.4081 4.75146 23.6267 4.75146 23.8964C4.75146 24.1661 4.97012 24.3847 5.23974 24.3847C6.51997 24.3847 7.58833 23.463 7.81792 22.2485H8.46631C8.22993 23.817 6.87314 25.0234 5.23974 25.0234ZM6.08545 21.272L7.27475 19.2121C7.90215 19.7142 8.34121 20.4421 8.46631 21.272H6.08545ZM10.617 21.272H9.45122C9.31411 20.0819 8.68256 19.0403 7.76753 18.3585L8.6643 16.8053L10.617 21.272ZM16.1941 25.0234C14.3947 25.0234 12.9309 23.5596 12.9309 21.7602C12.9309 20.5545 13.5887 19.5002 14.5638 18.9353L15.7394 21.9383C15.8148 22.1309 15.9991 22.2487 16.1942 22.2487C16.2534 22.2487 16.3136 22.2378 16.3721 22.2149C16.6232 22.1166 16.7471 21.8334 16.6487 21.5822L15.4728 18.5784C15.705 18.5257 15.9462 18.497 16.1941 18.497C17.9934 18.497 19.4573 19.9609 19.4573 21.7602C19.4573 23.5595 17.9934 25.0234 16.1941 25.0234ZM25.0234 10.9609C25.0234 12.518 23.8787 13.8124 22.3867 14.0476V12.0171L23.6878 10.628C23.8722 10.4311 23.862 10.1222 23.6652 9.93784C23.4685 9.75351 23.1595 9.76362 22.975 9.9604L22.3867 10.5885V9.01757L23.6878 7.62846C23.8722 7.43164 23.862 7.12265 23.6652 6.93828C23.4685 6.75395 23.1595 6.76406 22.975 6.96084L22.3867 7.58901V6.7373C22.3867 6.46762 22.1681 6.24902 21.8984 6.24902C21.6288 6.24902 21.4101 6.46762 21.4101 6.7373V8.93593L20.9075 8.39926C20.7231 8.20244 20.4141 8.19238 20.2173 8.37671C20.0205 8.56103 20.0103 8.87006 20.1947 9.06684L21.4101 10.3645V14.0475C19.9182 13.8123 18.7734 12.5179 18.7734 10.9609V5.10156C18.7734 3.37842 20.1753 1.97656 21.8984 1.97656C23.6216 1.97656 25.0234 3.37842 25.0234 5.10156V10.9609Z" fill="#2F373D" stroke="#2F373D" stroke-width="0.5"/>
<path d="M25.5118 19.3105H25.5054C25.2357 19.3105 25.0171 19.5292 25.0171 19.7988C25.0171 20.0685 25.2357 20.2871 25.5054 20.2871H25.5118C25.7814 20.2871 26 20.0685 26 19.7988C26 19.5292 25.7814 19.3105 25.5118 19.3105Z" fill="#2F373D" stroke="#2F373D" stroke-width="0.5"/>
<path d="M12.6618 7.7708H11.8516C12.0438 7.38027 12.1473 6.94712 12.1473 6.50444C12.1473 4.92314 10.8608 3.63672 9.27954 3.63672C8.102 3.63672 7.07119 4.35483 6.63452 5.39629C6.35444 5.26157 6.04487 5.18926 5.72817 5.18926C4.57495 5.18921 3.63672 6.12744 3.63672 7.28066C3.63672 7.74692 3.78726 8.18838 4.07197 8.55737C4.16445 8.67715 4.30718 8.74736 4.45854 8.74736H12.6618C12.9314 8.74736 13.15 8.52876 13.15 8.25908C13.15 7.9894 12.9314 7.7708 12.6618 7.7708ZM10.6836 7.77075H4.72646C4.652 7.61948 4.61328 7.45327 4.61328 7.28066C4.61328 6.66592 5.11343 6.16577 5.72817 6.16577C6.04326 6.16577 6.34521 6.30019 6.55654 6.53462C6.68452 6.67656 6.88345 6.73081 7.06577 6.67339C7.24804 6.61601 7.38013 6.45762 7.40376 6.26797C7.52114 5.32461 8.32754 4.61323 9.27949 4.61323C10.3223 4.61323 11.1707 5.46162 11.1707 6.50439C11.1707 6.97265 10.995 7.425 10.6836 7.77075Z" fill="#2F373D" stroke="#2F373D" stroke-width="0.5"/>
</svg>
