<svg width="25" height="21" viewBox="0 0 25 21" fill="none" xmlns="http://www.w3.org/2000/svg">
<path d="M0.695167 15.2937H11.8178C12.2071 15.2937 12.513 14.9878 12.513 14.5985C12.513 14.5151 12.4852 14.4317 12.4574 14.3483L11.8456 11.8457L12.4852 9.95483C12.5686 9.70457 12.513 9.4265 12.3184 9.23186L11.3173 8.23082L12.4018 6.61803C12.5408 6.39558 12.5686 6.11751 12.4296 5.89506C12.2906 5.6726 12.0681 5.53357 11.8178 5.53357H0.695167C0.305874 5.56138 0 5.86725 0 6.25654V14.5985C0 14.9878 0.305874 15.2937 0.695167 15.2937ZM1.39033 6.95171H10.5109L9.84357 7.95275C9.64892 8.23082 9.70453 8.5923 9.92699 8.84256L11.0114 9.92703L10.4553 11.5954C10.3997 11.7345 10.3997 11.8457 10.4275 11.9847L10.9002 13.9034H1.39033V6.95171Z" fill="#2F373D"/>
<path d="M24.3309 5.56128H14.5985C14.3761 5.56128 14.1536 5.67251 14.0146 5.86715L12.6242 7.95265C12.4296 8.23072 12.4852 8.59221 12.7077 8.84247L13.7921 9.92693L13.236 11.5953C13.1804 11.7344 13.1804 11.8456 13.2082 11.9846L13.9034 14.7653C13.9868 15.0712 14.2648 15.2936 14.5707 15.2936H24.3031C24.6924 15.2936 24.9982 14.9877 24.9982 14.5985V6.25645C25.026 5.86715 24.7202 5.56128 24.3309 5.56128ZM23.6357 13.9033H15.1547L14.6263 11.8456L15.2659 9.95474C15.3493 9.70447 15.2937 9.42641 15.099 9.23176L14.098 8.23072L14.96 6.92381H23.6357V13.9033Z" fill="#2F373D"/>
<path d="M13.2082 4.171C13.5975 4.171 13.9034 3.86513 13.9034 3.47584V0.695167C13.9034 0.305874 13.5975 0 13.2082 0C12.8189 0 12.5131 0.305874 12.5131 0.695167V3.47584C12.5131 3.86513 12.8189 4.171 13.2082 4.171Z" fill="#2F373D"/>
<path d="M13.2082 20.855C13.5975 20.855 13.9034 20.5491 13.9034 20.1598V17.3791C13.9034 16.9898 13.5975 16.684 13.2082 16.684C12.8189 16.684 12.5131 16.9898 12.5131 17.3791V20.1598C12.5131 20.5491 12.8189 20.855 13.2082 20.855Z" fill="#2F373D"/>
<path d="M10.7334 3.89293C10.8168 4.1988 11.0949 4.42126 11.4007 4.42126C11.4564 4.42126 11.512 4.42126 11.5676 4.39345C11.9291 4.28222 12.1515 3.92074 12.0681 3.53144L11.3451 0.834194C11.2339 0.472707 10.8724 0.250254 10.4831 0.333674C10.1216 0.444901 9.89918 0.806387 9.9826 1.19568L10.7334 3.89293Z" fill="#2F373D"/>
<path d="M15.7386 20.5214C15.7942 20.5214 15.8499 20.5214 15.9055 20.4935C16.267 20.3823 16.4894 20.0208 16.406 19.6315L15.683 16.9343C15.5718 16.5728 15.2103 16.3504 14.821 16.4338C14.4595 16.545 14.2371 16.9065 14.3205 17.2958L15.0435 19.993C15.1269 20.3267 15.4328 20.5214 15.7386 20.5214Z" fill="#2F373D"/>
<path d="M14.821 4.39346C14.8766 4.42127 14.9322 4.42127 14.9878 4.42127C15.2937 4.42127 15.5718 4.22662 15.6552 3.89294L16.3782 1.19569C16.4894 0.834206 16.2669 0.444912 15.8776 0.333686C15.5162 0.222459 15.1269 0.444912 15.0156 0.834206L14.2927 3.53145C14.2371 3.89294 14.4595 4.28223 14.821 4.39346Z" fill="#2F373D"/>
<path d="M10.7334 16.962L10.0104 19.6592C9.89922 20.0207 10.1217 20.41 10.511 20.5213C10.5666 20.5491 10.6222 20.5491 10.6778 20.5491C10.9837 20.5491 11.2617 20.3544 11.3452 20.0207L12.0681 17.3235C12.1794 16.962 11.9569 16.5727 11.5676 16.4615C11.2061 16.3781 10.8446 16.6005 10.7334 16.962Z" fill="#2F373D"/>
</svg>
