<svg width="24" height="18" viewBox="0 0 24 18" fill="none" xmlns="http://www.w3.org/2000/svg">
<path d="M23.5879 14.6994L18.3182 1.50615C18.2507 1.34605 18.1412 1.20707 17.9897 1.08924C17.8379 0.971145 17.6777 0.912231 17.5093 0.912231H13.2253C13.3347 0.912231 13.4316 0.952157 13.5158 1.03214C13.6 1.11234 13.6464 1.20693 13.6549 1.31644L13.8445 3.74296C13.853 3.86092 13.8194 3.95781 13.7438 4.0335C13.6678 4.10933 13.5752 4.14717 13.4655 4.14717H11.3678C11.2583 4.14717 11.1657 4.10933 11.0898 4.0335C11.014 3.95786 10.9803 3.86092 10.9889 3.74296L11.1784 1.31644C11.1868 1.20693 11.233 1.11234 11.3174 1.03214C11.4017 0.952289 11.4985 0.912231 11.6081 0.912231H7.32397C7.1555 0.912231 6.9954 0.971145 6.84372 1.08924C6.69216 1.20693 6.58274 1.34605 6.51524 1.50615L1.24537 14.6994C1.02631 15.2217 0.916809 15.7103 0.916809 16.1653C0.916809 16.7804 1.11055 17.0878 1.49816 17.0878H10.3948C10.2853 17.0878 10.1927 17.0478 10.1168 16.9679C10.041 16.8876 10.0073 16.7931 10.0158 16.6834L10.2685 13.4487C10.2769 13.339 10.3233 13.2443 10.4075 13.1642C10.4917 13.084 10.5886 13.0444 10.6982 13.0444H14.1353C14.245 13.0444 14.3416 13.084 14.4261 13.1642C14.5104 13.2443 14.5567 13.339 14.5651 13.4487L14.818 16.6834C14.8267 16.7931 14.7926 16.8876 14.717 16.9679C14.6413 17.0478 14.5486 17.0878 14.4389 17.0878H23.3354C23.7229 17.0878 23.9168 16.7804 23.9168 16.1653C23.9168 15.7105 23.8071 15.2218 23.5879 14.6994ZM14.3251 10.2636C14.3333 10.3648 14.2997 10.449 14.2239 10.5163C14.1483 10.5838 14.0596 10.6174 13.9586 10.6174H10.875C10.7739 10.6174 10.6853 10.5838 10.6096 10.5163C10.5337 10.4487 10.5001 10.3645 10.5084 10.2636V10.213L10.8118 6.16936C10.8202 6.0598 10.8666 5.96508 10.9508 5.88501C11.035 5.80494 11.132 5.76497 11.2415 5.76497H13.5918C13.7015 5.76497 13.7984 5.80481 13.8826 5.88501C13.9668 5.96508 14.0132 6.0598 14.0217 6.16936L14.325 10.213V10.2636H14.3251Z" fill="#2F373D"/>
</svg>
