<svg width="21" height="21" viewBox="0 0 21 21" fill="none" xmlns="http://www.w3.org/2000/svg">
<path d="M10.5 0.328125C4.88086 0.328125 0.328125 4.88086 0.328125 10.5C0.328125 16.1191 4.88086 20.6719 10.5 20.6719C16.1191 20.6719 20.6719 16.1191 20.6719 10.5C20.6719 4.88086 16.1191 0.328125 10.5 0.328125ZM10.5 18.7031C5.96777 18.7031 2.29688 15.0322 2.29688 10.5C2.29688 5.96777 5.96777 2.29688 10.5 2.29688C15.0322 2.29688 18.7031 5.96777 18.7031 10.5C18.7031 15.0322 15.0322 18.7031 10.5 18.7031ZM13.0348 14.4211L9.55254 11.8904C9.42539 11.7961 9.35156 11.6484 9.35156 11.4926V4.75781C9.35156 4.48711 9.57305 4.26562 9.84375 4.26562H11.1562C11.427 4.26562 11.6484 4.48711 11.6484 4.75781V10.5697L14.3883 12.5631C14.6098 12.723 14.6549 13.0307 14.4949 13.2521L13.7238 14.3145C13.5639 14.5318 13.2562 14.5811 13.0348 14.4211Z" fill="#2F373D"/>
</svg>
