<svg width="26" height="24" viewBox="0 0 26 24" fill="none" xmlns="http://www.w3.org/2000/svg">
<path d="M8 13.25L20.2877 20.125H3.98584L8 13.25Z" fill="#2F373D"/>
<path d="M21.6381 19.9686C21.638 19.9683 21.6379 19.968 21.6377 19.9677L13.0528 4.36616C12.9669 4.21016 12.803 4.11328 12.625 4.11328C12.447 4.11328 12.283 4.2102 12.1972 4.36616C12.0012 4.72236 3.98221 19.2953 3.61224 19.9677C3.52899 20.119 3.53187 20.303 3.61971 20.4516C3.70755 20.6002 3.86737 20.6914 4.04002 20.6914H21.2079C21.5752 20.6914 21.818 20.2978 21.6381 19.9686V19.9686ZM12.625 5.6144L20.0025 19.0217L8.54139 13.036L12.625 5.6144ZM8.07049 13.8917L19.2202 19.7148H4.86605L8.07049 13.8917Z" fill="#2F373D"/>
<path d="M12.625 23.6211C12.8947 23.6211 13.1133 23.4025 13.1133 23.1328C13.1133 22.8631 12.8947 22.6445 12.625 22.6445C12.3553 22.6445 12.1367 22.8631 12.1367 23.1328C12.1367 23.4025 12.3553 23.6211 12.625 23.6211Z" fill="#2F373D"/>
<path d="M14.9875 1.78711C14.5174 0.918506 13.6121 0.378906 12.625 0.378906C11.6379 0.378906 10.7326 0.918506 10.2639 1.78452L0.448242 19.6578C0.236768 20.0476 0.125 20.4895 0.125 20.9355C0.125 22.4164 1.32974 23.6211 2.81055 23.6211H10.4277C10.6974 23.6211 10.916 23.4025 10.916 23.1328C10.916 22.8631 10.6974 22.6445 10.4277 22.6445H2.81055C1.86821 22.6445 1.10156 21.8779 1.10156 20.9355C1.10156 20.6516 1.17246 20.3708 1.30542 20.1257L11.1213 2.25195C11.4206 1.69897 11.9968 1.35547 12.625 1.35547C13.2532 1.35547 13.8294 1.69897 14.1301 2.25459L23.9434 20.1235C24.0775 20.3708 24.1484 20.6516 24.1484 20.9355C24.1484 21.8779 23.3818 22.6445 22.4395 22.6445H14.8223C14.5526 22.6445 14.334 22.8631 14.334 23.1328C14.334 23.4025 14.5526 23.6211 14.8223 23.6211H22.4395C23.9203 23.6211 25.125 22.4164 25.125 20.9355C25.125 20.4895 25.0132 20.0476 24.8005 19.6556L14.9875 1.78711Z" fill="#2F373D"/>
</svg>
