<svg width="23" height="23" viewBox="0 0 23 23" fill="none" xmlns="http://www.w3.org/2000/svg">
<path d="M16.6527 0H6.34703C2.84728 0 0 2.84742 0 6.34717V16.6528C0 20.1527 2.84728 23 6.34703 23H16.6527C20.1527 23 23 20.1526 23 16.6528V6.34717C23.0001 2.84742 20.1527 0 16.6527 0ZM20.9595 16.6528C20.9595 19.0275 19.0275 20.9593 16.6528 20.9593H6.34703C3.97251 20.9595 2.04067 19.0275 2.04067 16.6528V6.34717C2.04067 3.97264 3.97251 2.04067 6.34703 2.04067H16.6527C19.0274 2.04067 20.9593 3.97264 20.9593 6.34717V16.6528H20.9595Z" fill="#CE2F89"/>
<path d="M11.5 5.57385C8.23207 5.57385 5.57349 8.23244 5.57349 11.5004C5.57349 14.7682 8.23207 17.4266 11.5 17.4266C14.7679 17.4266 17.4265 14.7682 17.4265 11.5004C17.4265 8.23244 14.7679 5.57385 11.5 5.57385ZM11.5 15.3858C9.35743 15.3858 7.61416 13.6428 7.61416 11.5002C7.61416 9.35753 9.3573 7.61439 11.5 7.61439C13.6427 7.61439 15.3858 9.35753 15.3858 11.5002C15.3858 13.6428 13.6426 15.3858 11.5 15.3858Z" fill="#CE2F89"/>
<path d="M17.6752 3.84351C17.282 3.84351 16.8958 4.00268 16.6181 4.28156C16.3391 4.55909 16.1787 4.94545 16.1787 5.33998C16.1787 5.73328 16.3392 6.1195 16.6181 6.39839C16.8957 6.67591 17.282 6.83645 17.6752 6.83645C18.0697 6.83645 18.4547 6.67591 18.7336 6.39839C19.0125 6.1195 19.1717 5.73314 19.1717 5.33998C19.1717 4.94545 19.0125 4.55909 18.7336 4.28156C18.4561 4.00268 18.0697 3.84351 17.6752 3.84351Z" fill="#CE2F89"/>
</svg>
