<svg width="25" height="25" viewBox="0 0 25 25" fill="none" xmlns="http://www.w3.org/2000/svg">
<path d="M12.5004 5.64832C8.93418 5.64832 6.03278 8.54973 6.03278 12.1159C6.03278 13.5754 6.51134 14.9545 7.41607 16.1033C7.59466 16.3307 7.78231 16.5483 7.98098 16.7788L7.9919 16.7914C8.59971 17.4966 9.22816 18.226 9.46285 19.0849C9.51591 19.2817 9.52344 19.6591 9.52038 19.9498V20.4439C9.52038 20.896 9.88695 21.2626 10.3391 21.2626H14.6261C15.0782 21.2626 15.4448 20.896 15.4448 20.4439V19.944C15.4421 19.5644 15.4617 19.2873 15.5013 19.1435C15.7374 18.2903 16.4338 17.4711 17.0538 16.7419L17.0806 16.7104C17.2595 16.5002 17.4286 16.3016 17.5825 16.1059C18.4886 14.9564 18.9675 13.5767 18.9675 12.1159C18.9673 8.54973 16.0663 5.64832 12.5004 5.64832ZM16.2958 15.0931C16.161 15.2646 16.0021 15.4514 15.8337 15.6491L15.8008 15.6878C15.0765 16.5397 14.2556 17.5052 13.9229 18.708C13.8758 18.8787 13.8235 19.1342 13.8102 19.6252H11.1563C11.1449 19.1037 11.0918 18.8363 11.0432 18.6561C10.7102 17.4375 9.89077 16.4865 9.23219 15.7223L9.22117 15.7094C9.03505 15.4936 8.8593 15.2897 8.70309 15.091C8.02738 14.233 7.6702 13.2042 7.6702 12.1159C7.6702 9.4526 9.83706 7.28574 12.5004 7.28574C15.1634 7.28574 17.3299 9.4526 17.3299 12.1159C17.3299 13.2054 16.9725 14.2345 16.2958 15.0931Z" fill="#2F373D"/>
<path d="M14.626 21.495H10.3392C9.88701 21.495 9.52045 21.8616 9.52045 22.3137C9.52045 22.7659 9.88701 23.1324 10.3392 23.1324H14.6262C15.0783 23.1324 15.4449 22.7659 15.4449 22.3137C15.4449 21.8616 15.0782 21.495 14.626 21.495Z" fill="#2F373D"/>
<path d="M13.5542 23.3625H11.4108C10.9587 23.3625 10.5921 23.7291 10.5921 24.1813C10.5921 24.6334 10.9587 25 11.4108 25H13.5542C14.0064 25 14.3729 24.6334 14.3729 24.1813C14.3729 23.7291 14.0064 23.3625 13.5542 23.3625Z" fill="#2F373D"/>
<path d="M23.7973 11.2972H20.9729C20.5208 11.2972 20.1542 11.6638 20.1542 12.116C20.1542 12.5681 20.5208 12.9347 20.9729 12.9347H23.7973C24.2494 12.9347 24.616 12.5681 24.616 12.116C24.616 11.6638 24.2494 11.2972 23.7973 11.2972Z" fill="#2F373D"/>
<path d="M4.84619 12.116C4.84619 11.6638 4.47962 11.2972 4.02748 11.2972H1.20281C0.750659 11.2972 0.384094 11.6638 0.384094 12.116C0.384094 12.5681 0.750659 12.9347 1.20281 12.9347H4.02748C4.47962 12.9347 4.84619 12.5681 4.84619 12.116Z" fill="#2F373D"/>
<path d="M12.5001 4.46264C12.9523 4.46264 13.3188 4.09608 13.3188 3.64393V0.818713C13.3188 0.366565 12.9523 0 12.5001 0C12.048 0 11.6814 0.366565 11.6814 0.818713V3.64393C11.6814 4.09608 12.048 4.46264 12.5001 4.46264Z" fill="#2F373D"/>
<path d="M19.0698 17.5281C18.7501 17.2083 18.2318 17.2082 17.912 17.528C17.5922 17.8477 17.5921 18.366 17.9119 18.6858L19.9091 20.6836C20.069 20.8435 20.2785 20.9234 20.4881 20.9234C20.6976 20.9234 20.907 20.8435 21.067 20.6837C21.3867 20.364 21.3868 19.8457 21.0671 19.5258L19.0698 17.5281Z" fill="#2F373D"/>
<path d="M5.92945 6.7034C6.08937 6.86332 6.29885 6.94334 6.50845 6.94334C6.71793 6.94334 6.92741 6.86343 7.08722 6.70362C7.40707 6.38388 7.40707 5.86558 7.08744 5.54585L5.09098 3.54863C4.77124 3.22878 4.25294 3.22878 3.93321 3.54841C3.61336 3.86814 3.61336 4.38644 3.93299 4.70618L5.92945 6.7034Z" fill="#2F373D"/>
<path d="M5.93032 17.528L3.93298 19.5258C3.61325 19.8455 3.61336 20.3639 3.93309 20.6836C4.09291 20.8434 4.3025 20.9233 4.51198 20.9233C4.72146 20.9233 4.93105 20.8434 5.09097 20.6834L7.0883 18.6857C7.40804 18.3659 7.40793 17.8475 7.08819 17.5279C6.76846 17.2083 6.25005 17.2083 5.93032 17.528Z" fill="#2F373D"/>
<path d="M18.4913 6.94321C18.7008 6.94321 18.9104 6.8633 19.0703 6.70338L21.0671 4.70627C21.3868 4.38654 21.3867 3.86813 21.067 3.5485C20.7472 3.22877 20.2288 3.22877 19.9092 3.54861L17.9124 5.54572C17.5927 5.86546 17.5928 6.38387 17.9125 6.70349C18.0722 6.86341 18.2817 6.94321 18.4913 6.94321Z" fill="#2F373D"/>
</svg>
