<svg width="20" height="22" viewBox="0 0 20 22" fill="none" xmlns="http://www.w3.org/2000/svg">
<g clip-path="url(#clip0)">
<path d="M19.25 14.9577V3.4375C19.25 2.2984 18.3266 1.375 17.1875 1.375H2.0625C0.923398 1.375 0 2.2984 0 3.4375V18.562C0 19.7011 0.923398 20.6245 2.0625 20.6245H13.5832C14.1302 20.6245 14.6548 20.4072 15.0416 20.0204L18.6459 16.4161C19.0327 16.0293 19.25 15.5047 19.25 14.9577ZM13.75 18.3952V15.1245H17.0207L13.75 18.3952ZM17.1875 3.4375V13.062H12.7188C12.1492 13.062 11.6875 13.5237 11.6875 14.0932V18.562H2.0625V3.4375H17.1875Z" fill="#2F373D"/>
</g>
<defs>
<clipPath id="clip0">
<rect width="19.25" height="22" fill="white"/>
</clipPath>
</defs>
</svg>
