<svg width="27" height="17" viewBox="0 0 27 17" fill="none" xmlns="http://www.w3.org/2000/svg">
<path d="M24.3334 14.7511H6.41675V16.4178H24.3334V14.7511Z" fill="#2F373D" stroke="#2F373D" stroke-width="0.5"/>
<path d="M6.41676 13.9203H7.25009V11.4178H8.50009V13.9203H9.33343V11.4178H13.9168V13.9178H14.7501V11.4178H16.0001V13.9178H16.8334V11.4178H20.5834V9.75113H16.8272C16.8216 9.6658 16.8077 9.58122 16.7855 9.49863L14.8426 1.97238C14.7883 1.77489 14.6887 1.59276 14.5518 1.4404C14.415 1.28804 14.2445 1.16964 14.0539 1.09456C13.8633 1.01949 13.6579 0.989813 13.4539 1.00788C13.2499 1.02594 13.0528 1.09125 12.8784 1.19863C12.744 1.28508 12.6265 1.39536 12.5318 1.52405C12.3647 1.30421 12.1328 1.14245 11.8688 1.06164C11.6047 0.980833 11.322 0.985068 11.0605 1.07375C10.7991 1.16243 10.5721 1.33106 10.4117 1.55581C10.2513 1.78055 10.1656 2.05003 10.1668 2.32613V8.9178H11.0001V2.32613C10.9993 2.20862 11.0411 2.0948 11.1177 2.0057C11.1944 1.9166 11.3006 1.85823 11.4169 1.84136C11.5332 1.8245 11.6517 1.85029 11.7505 1.91397C11.8492 1.97765 11.9216 2.07491 11.9543 2.1878L12.2501 3.33446V8.9178H13.0834V6.5578L13.8988 9.71321C13.9022 9.72571 13.9013 9.73863 13.9038 9.75113H9.32676C9.3211 9.66663 9.30715 9.5829 9.28509 9.50113L7.34259 1.97488C7.29325 1.79671 7.20714 1.63084 7.0898 1.48796C6.97247 1.34508 6.82652 1.22835 6.66134 1.1453C6.38903 1.00337 6.07486 0.963791 5.77586 1.03374C5.47685 1.1037 5.21285 1.27855 5.03176 1.52655C4.86469 1.30668 4.63272 1.14491 4.36866 1.06411C4.10461 0.983311 3.82183 0.98758 3.56033 1.07631C3.29883 1.16504 3.07185 1.33375 2.9115 1.55856C2.75114 1.78337 2.66553 2.05291 2.66676 2.32905V8.9203H3.50009V2.32905C3.49956 2.24583 3.52035 2.16386 3.5605 2.09096C3.60064 2.01805 3.6588 1.95666 3.72941 1.91262C3.80002 1.86858 3.88075 1.84336 3.96387 1.83938C4.047 1.8354 4.12976 1.85279 4.20426 1.88988C4.26443 1.91996 4.31771 1.96218 4.36074 2.01389C4.40377 2.0656 4.43562 2.12566 4.45426 2.1903L4.75009 3.33446V8.9178H5.58343V6.56071L6.39884 9.7153C6.40176 9.72738 6.40134 9.73905 6.40343 9.75113H2.66676V11.4178H6.41676V13.9203ZM13.0834 3.22738V2.32613C13.0827 2.20862 13.1245 2.0948 13.2011 2.0057C13.2777 1.9166 13.384 1.85823 13.5003 1.84136C13.6166 1.8245 13.735 1.85029 13.8338 1.91397C13.9326 1.97765 14.0049 2.07491 14.0376 2.1878L15.9822 9.71321C15.9855 9.72571 15.9847 9.73863 15.9872 9.75113H14.7438C14.7383 9.6658 14.7243 9.58122 14.7022 9.49863L13.0834 3.22738ZM5.58343 3.22988V2.32905C5.58289 2.24583 5.60369 2.16386 5.64383 2.09096C5.68397 2.01805 5.74213 1.95666 5.81274 1.91262C5.88336 1.86858 5.96408 1.84336 6.04721 1.83938C6.13033 1.8354 6.21309 1.85279 6.28759 1.88988C6.34776 1.91996 6.40105 1.96218 6.44408 2.01389C6.48711 2.0656 6.51895 2.12566 6.53759 2.1903L8.48218 9.7153C8.48509 9.72738 8.48468 9.73905 8.48676 9.75113H7.24343C7.23777 9.66663 7.22381 9.5829 7.20176 9.50113L5.58343 3.22988Z" fill="#2F373D" stroke="#2F373D" stroke-width="0.5"/>
<path d="M24.3334 9.8478C24.3334 9.73057 24.3179 9.61386 24.2872 9.50071L22.3426 1.97488C22.2932 1.79671 22.2071 1.63084 22.0898 1.48796C21.9725 1.34508 21.8265 1.22835 21.6613 1.1453C21.389 1.00337 21.0749 0.963791 20.7759 1.03374C20.4769 1.1037 20.2128 1.27855 20.0318 1.52655C19.8647 1.30668 19.6327 1.14491 19.3687 1.06411C19.1046 0.983311 18.8218 0.98758 18.5603 1.07631C18.2988 1.16504 18.0719 1.33375 17.9115 1.55856C17.7511 1.78337 17.6655 2.05291 17.6668 2.32905V8.9203H18.5001V2.32905C18.4996 2.24583 18.5204 2.16386 18.5605 2.09096C18.6006 2.01805 18.6588 1.95666 18.7294 1.91262C18.8 1.86858 18.8807 1.84336 18.9639 1.83938C19.047 1.8354 19.1298 1.85279 19.2043 1.88988C19.2644 1.91996 19.3177 1.96218 19.3607 2.01389C19.4038 2.0656 19.4356 2.12566 19.4543 2.1903L19.7501 3.33446V8.9178H20.5834V6.56071L21.3988 9.7153C21.4105 9.7585 21.4165 9.80304 21.4168 9.8478V13.9203H22.2501V9.8478C22.2501 9.73057 22.2345 9.61386 22.2038 9.50071L20.5834 3.22988V2.32905C20.5829 2.24583 20.6037 2.16386 20.6438 2.09096C20.684 2.01805 20.7421 1.95666 20.8127 1.91262C20.8834 1.86858 20.9641 1.84336 21.0472 1.83938C21.1303 1.8354 21.2131 1.85279 21.2876 1.88988C21.3478 1.91996 21.401 1.96218 21.4441 2.01389C21.4871 2.0656 21.5189 2.12566 21.5376 2.1903L23.4822 9.7153C23.4939 9.7585 23.4999 9.80304 23.5001 9.8478V13.9203H24.3334V9.8478Z" fill="#2F373D" stroke="#2F373D" stroke-width="0.5"/>
<path d="M1.83333 9.7511H1V11.4178H1.83333V9.7511Z" fill="#2F373D" stroke="#2F373D" stroke-width="0.5"/>
<path d="M5.58333 14.7511H4.75V16.4178H5.58333V14.7511Z" fill="#2F373D" stroke="#2F373D" stroke-width="0.5"/>
<path d="M26.0001 14.7511H25.1667V16.4178H26.0001V14.7511Z" fill="#2F373D" stroke="#2F373D" stroke-width="0.5"/>
</svg>
