<svg width="21" height="21" viewBox="0 0 21 21" fill="none" xmlns="http://www.w3.org/2000/svg">
<g clip-path="url(#clip0)">
<path d="M20.2373 1.00906L15.9717 0.0246867C15.5082 -0.0819539 15.0324 0.160038 14.8437 0.594804L12.875 5.18855C12.7027 5.59051 12.8176 6.06219 13.158 6.33699L15.6435 8.37137C14.167 11.5173 11.5871 14.1341 8.37557 15.6393L6.3412 13.1538C6.06229 12.8134 5.59471 12.6985 5.19276 12.8708L0.599011 14.8395C0.160144 15.0323 -0.0818482 15.5081 0.0247924 15.9716L1.00917 20.2372C1.11171 20.6802 1.50546 21.0001 1.96893 21.0001C12.473 21.0001 21.0002 12.4893 21.0002 1.96883C21.0002 1.50945 20.6844 1.1116 20.2373 1.00906Z" fill="#2F373D"/>
</g>
<defs>
<clipPath id="clip0">
<rect width="21" height="21" fill="white"/>
</clipPath>
</defs>
</svg>
