<svg width="28" height="28" viewBox="0 0 28 28" fill="none" xmlns="http://www.w3.org/2000/svg">
<path d="M7.89381 26.8449H1.11703C1.0242 26.8449 0.935179 26.8081 0.869541 26.7424C0.803904 26.6768 0.767029 26.5878 0.767029 26.4949C0.767029 26.4021 0.803904 26.3131 0.869541 26.2475C0.935179 26.1818 1.0242 26.1449 1.11703 26.1449H7.89381C8.09136 26.1445 8.28068 26.0658 8.42022 25.9259C8.55977 25.7861 8.63814 25.5966 8.63814 25.3991V20.1296C8.64691 19.7508 8.80355 19.3905 9.07455 19.1257C9.34556 18.8609 9.70941 18.7126 10.0883 18.7126C10.4672 18.7126 10.8311 18.8609 11.1021 19.1257C11.3731 19.3905 11.5297 19.7508 11.5385 20.1296V25.3866C11.5423 25.5848 11.6234 25.7737 11.7645 25.9131C11.9055 26.0524 12.0954 26.1311 12.2937 26.1325H26.7845C26.8773 26.1325 26.9663 26.1694 27.032 26.235C27.0976 26.3007 27.1345 26.3897 27.1345 26.4825C27.1345 26.5753 27.0976 26.6644 27.032 26.73C26.9663 26.7956 26.8773 26.8325 26.7845 26.8325H12.2929C11.9083 26.8333 11.5391 26.6816 11.2663 26.4105C10.9935 26.1394 10.8393 25.7712 10.8377 25.3866V20.1296C10.8338 19.9314 10.7528 19.7425 10.6117 19.6032C10.4706 19.4638 10.2807 19.3851 10.0825 19.3837C9.88472 19.3839 9.69511 19.4626 9.55528 19.6024C9.41544 19.7423 9.33679 19.9319 9.33659 20.1296V25.3991C9.33638 25.7819 9.18441 26.1491 8.91397 26.4201C8.64353 26.6912 8.27668 26.8439 7.89381 26.8449Z" fill="#2F373D" stroke="#2F373D" stroke-width="0.7"/>
<path d="M5.73909 10.3008C5.45773 10.3008 5.18269 10.2174 4.94876 10.0611C4.71482 9.90475 4.53248 9.68257 4.42481 9.42264C4.31714 9.1627 4.28897 8.87667 4.34386 8.60072C4.39875 8.32477 4.53424 8.0713 4.73319 7.87235C4.93213 7.6734 5.18561 7.53791 5.46156 7.48302C5.73751 7.42813 6.02354 7.45631 6.28348 7.56398C6.54341 7.67165 6.76559 7.85398 6.9219 8.08792C7.07821 8.32185 7.16164 8.59689 7.16164 8.87825C7.16123 9.25541 7.01122 9.617 6.74453 9.88369C6.47784 10.1504 6.11625 10.3004 5.73909 10.3008ZM5.73909 8.15569C5.59618 8.15569 5.45648 8.19807 5.33766 8.27746C5.21883 8.35686 5.12622 8.46971 5.07153 8.60174C5.01684 8.73377 5.00253 8.87905 5.03041 9.01921C5.05829 9.15937 5.12711 9.28812 5.22816 9.38917C5.32921 9.49022 5.45796 9.55904 5.59812 9.58692C5.73828 9.6148 5.88357 9.60049 6.0156 9.5458C6.14763 9.49111 6.26047 9.3985 6.33987 9.27968C6.41927 9.16085 6.46164 9.02115 6.46164 8.87825C6.46144 8.68668 6.38524 8.50301 6.24978 8.36755C6.11432 8.23209 5.93066 8.1559 5.73909 8.15569Z" fill="#2F373D" stroke="#2F373D" stroke-width="0.7"/>
<path d="M7.89603 14.6659C7.80321 14.6659 7.71418 14.629 7.64855 14.5633C7.58291 14.4977 7.54603 14.4087 7.54603 14.3159V12.6172C7.54583 12.3264 7.43022 12.0476 7.2246 11.8419C7.01898 11.6363 6.74016 11.5207 6.44937 11.5205H4.9817C4.68664 11.5209 4.40378 11.6383 4.19515 11.847C3.98651 12.0556 3.86911 12.3385 3.8687 12.6335V14.3151C3.8687 14.4079 3.83183 14.4969 3.76619 14.5626C3.70055 14.6282 3.61153 14.6651 3.5187 14.6651C3.42588 14.6651 3.33685 14.6282 3.27121 14.5626C3.20558 14.4969 3.1687 14.4079 3.1687 14.3151V12.6343C3.16932 12.1536 3.36053 11.6929 3.7004 11.353C4.04027 11.0131 4.50105 10.8219 4.9817 10.8213H6.44937C6.92575 10.8217 7.3825 11.0111 7.71935 11.348C8.0562 11.6848 8.24562 12.1416 8.24603 12.618V14.3166C8.24583 14.4093 8.20886 14.4981 8.14325 14.5636C8.07763 14.6291 7.98872 14.6659 7.89603 14.6659Z" fill="#2F373D" stroke="#2F373D" stroke-width="0.7"/>
<path d="M9.05102 13.9852H2.42202C2.3292 13.9852 2.24017 14.0221 2.17453 14.0877C2.1089 14.1534 2.07202 14.2424 2.07202 14.3352C2.07202 14.4281 2.1089 14.5171 2.17453 14.5827C2.24017 14.6484 2.3292 14.6852 2.42202 14.6852H5.36669V16.2035C5.05259 16.2799 4.77311 16.4593 4.57281 16.713C4.3725 16.9667 4.2629 17.2802 4.26147 17.6035C4.26147 17.6035 4.26147 19.9834 4.26147 20.2588C4.26147 20.3516 4.29834 20.4406 4.36398 20.5063C4.42962 20.5719 4.51864 20.6088 4.61147 20.6088C4.70429 20.6088 4.79332 20.5719 4.85895 20.5063C4.92459 20.4406 4.96147 20.3516 4.96147 20.2588C4.96147 19.9834 4.96147 17.6027 4.96147 17.6035C4.95824 17.5035 4.97513 17.404 5.01114 17.3107C5.04716 17.2174 5.10155 17.1324 5.1711 17.0605C5.24064 16.9887 5.32392 16.9316 5.41597 16.8926C5.50803 16.8536 5.60699 16.8335 5.70697 16.8335C5.80695 16.8335 5.9059 16.8536 5.99796 16.8926C6.09002 16.9316 6.17329 16.9887 6.24284 17.0605C6.31238 17.1324 6.36678 17.2174 6.40279 17.3107C6.4388 17.404 6.4557 17.5035 6.45247 17.6035L6.47113 20.2588C6.47175 20.3512 6.5089 20.4396 6.57447 20.5048C6.64004 20.5699 6.72871 20.6065 6.82113 20.6064C6.8671 20.6061 6.91255 20.5968 6.9549 20.5789C6.99724 20.561 7.03566 20.535 7.06794 20.5023C7.10022 20.4696 7.12575 20.4308 7.14305 20.3882C7.16036 20.3457 7.16911 20.3001 7.1688 20.2541L7.15558 17.6073C7.15519 17.2862 7.04799 16.9744 6.85084 16.7209C6.6537 16.4674 6.37783 16.2868 6.06669 16.2073V14.6852H9.04791C9.09387 14.6854 9.13943 14.6766 9.18197 14.6592C9.22451 14.6418 9.26321 14.6162 9.29586 14.5838C9.3285 14.5515 9.35445 14.513 9.37223 14.4706C9.39001 14.4282 9.39926 14.3827 9.39947 14.3368C9.39967 14.2908 9.39082 14.2453 9.37342 14.2027C9.35602 14.1602 9.33041 14.1215 9.29805 14.0888C9.2657 14.0562 9.22723 14.0302 9.18484 14.0125C9.14246 13.9947 9.09699 13.9854 9.05102 13.9852Z" fill="#2F373D" stroke="#2F373D" stroke-width="0.7"/>
<path d="M5.70742 17.3164C5.6146 17.3164 5.52557 17.3533 5.45993 17.4189C5.3943 17.4846 5.35742 17.5736 5.35742 17.6664V22.9895C5.35742 23.0823 5.3943 23.1714 5.45993 23.237C5.52557 23.3026 5.6146 23.3395 5.70742 23.3395C5.80025 23.3395 5.88927 23.3026 5.95491 23.237C6.02055 23.1714 6.05742 23.0823 6.05742 22.9895V17.6664C6.05742 17.5736 6.02055 17.4846 5.95491 17.4189C5.88927 17.3533 5.80025 17.3164 5.70742 17.3164Z" fill="#2F373D" stroke="#2F373D" stroke-width="0.7"/>
<path d="M16.1507 16.52C15.8692 16.52 15.594 16.6035 15.3599 16.7599C15.1259 16.9163 14.9434 17.1386 14.8357 17.3987C14.728 17.6587 14.6998 17.9449 14.7547 18.221C14.8096 18.4971 14.9452 18.7507 15.1442 18.9498C15.3433 19.1489 15.5969 19.2844 15.873 19.3393C16.1491 19.3943 16.4353 19.3661 16.6954 19.2583C16.9555 19.1506 17.1778 18.9682 17.3341 18.7341C17.4905 18.5 17.574 18.2249 17.574 17.9434C17.5736 17.566 17.4235 17.2042 17.1567 16.9374C16.8898 16.6705 16.5281 16.5204 16.1507 16.52ZM16.1507 18.6659C16.0076 18.6659 15.8678 18.6235 15.7488 18.544C15.6299 18.4645 15.5372 18.3516 15.4824 18.2194C15.4277 18.0872 15.4133 17.9418 15.4413 17.8015C15.4692 17.6611 15.5381 17.5323 15.6392 17.4311C15.7404 17.3299 15.8693 17.261 16.0096 17.2331C16.1499 17.2052 16.2953 17.2196 16.4275 17.2743C16.5597 17.329 16.6726 17.4218 16.7521 17.5407C16.8316 17.6597 16.874 17.7995 16.874 17.9426C16.874 18.1345 16.7978 18.3185 16.6622 18.4543C16.5266 18.5901 16.3426 18.6665 16.1507 18.6667V18.6659Z" fill="#2F373D" stroke="#2F373D" stroke-width="0.7"/>
<path d="M22.915 16.52C22.6335 16.52 22.3583 16.6035 22.1242 16.7599C21.8901 16.9163 21.7077 17.1386 21.6 17.3987C21.4923 17.6587 21.4641 17.9449 21.519 18.221C21.5739 18.4971 21.7095 18.7507 21.9085 18.9498C22.1076 19.1489 22.3612 19.2844 22.6373 19.3393C22.9134 19.3943 23.1996 19.3661 23.4597 19.2583C23.7197 19.1506 23.942 18.9682 24.0984 18.7341C24.2548 18.5 24.3383 18.2249 24.3383 17.9434C24.3379 17.566 24.1878 17.2042 23.921 16.9374C23.6541 16.6705 23.2923 16.5204 22.915 16.52ZM22.915 18.6659C22.7719 18.6659 22.6321 18.6235 22.5131 18.544C22.3942 18.4645 22.3014 18.3516 22.2467 18.2194C22.192 18.0872 22.1776 17.9418 22.2055 17.8015C22.2334 17.6611 22.3023 17.5323 22.4035 17.4311C22.5047 17.3299 22.6335 17.261 22.7739 17.2331C22.9142 17.2052 23.0596 17.2196 23.1918 17.2743C23.324 17.329 23.4369 17.4218 23.5164 17.5407C23.5959 17.6597 23.6383 17.7995 23.6383 17.9426C23.6383 18.1345 23.5621 18.3185 23.4265 18.4543C23.2909 18.5901 23.1069 18.6665 22.915 18.6667V18.6659Z" fill="#2F373D" stroke="#2F373D" stroke-width="0.7"/>
<path d="M18.5413 9.48882H20.5239C20.6167 9.48882 20.7058 9.45194 20.7714 9.38631C20.837 9.32067 20.8739 9.23164 20.8739 9.13882C20.8739 9.04599 20.837 8.95697 20.7714 8.89133C20.7058 8.82569 20.6167 8.78882 20.5239 8.78882H18.5413C18.4485 8.78882 18.3595 8.82569 18.2939 8.89133C18.2282 8.95697 18.1913 9.04599 18.1913 9.13882C18.1913 9.23164 18.2282 9.32067 18.2939 9.38631C18.3595 9.45194 18.4485 9.48882 18.5413 9.48882Z" fill="#2F373D" stroke="#2F373D" stroke-width="0.7"/>
<path d="M27.2103 13.1171C27.2099 12.8318 27.0962 12.5583 26.8942 12.3567C26.6922 12.1552 26.4185 12.0421 26.1331 12.0423H25.3102C25.0851 12.0422 24.8657 12.1132 24.6833 12.2453L23.6318 8.51192C23.55 8.21583 23.3735 7.95468 23.1292 7.76842C22.885 7.58217 22.5864 7.48107 22.2792 7.48059H16.8426C16.5381 7.48147 16.2421 7.58112 15.999 7.76456C15.756 7.948 15.579 8.20533 15.4947 8.49792L14.398 12.2577C14.2134 12.1198 13.9891 12.0454 13.7587 12.0454H12.9334C12.7898 12.0415 12.6468 12.0665 12.513 12.1188C12.3792 12.1711 12.2572 12.2496 12.1542 12.3499C12.0512 12.4501 11.9694 12.57 11.9135 12.7023C11.8576 12.8347 11.8289 12.977 11.8289 13.1206C11.8289 13.2643 11.8576 13.4066 11.9135 13.539C11.9694 13.6713 12.0512 13.7912 12.1542 13.8914C12.2572 13.9916 12.3792 14.0702 12.513 14.1225C12.6468 14.1748 12.7898 14.1998 12.9334 14.1959H13.2943C13.0865 14.3388 12.9165 14.53 12.7991 14.7532C12.6816 14.9764 12.6201 15.2247 12.62 15.4769V20.7363C12.6202 20.8579 12.6686 20.9745 12.7546 21.0605C12.8406 21.1465 12.9572 21.1949 13.0789 21.1951H14.7737V22.9304C14.7737 23.0541 14.8228 23.1728 14.9103 23.2604C14.9979 23.3479 15.1166 23.397 15.2403 23.397H17.2104C17.3342 23.397 17.4529 23.3479 17.5404 23.2604C17.6279 23.1728 17.6771 23.0541 17.6771 22.9304V21.1913H21.3412V22.9265C21.3412 23.0502 21.3904 23.1689 21.4779 23.2565C21.5654 23.344 21.6841 23.3931 21.8079 23.3931H23.778C23.9018 23.3931 24.0205 23.344 24.108 23.2565C24.1955 23.1689 24.2447 23.0502 24.2447 22.9265V21.1913H25.9908C26.1124 21.1911 26.229 21.1426 26.315 21.0566C26.401 20.9706 26.4495 20.854 26.4497 20.7324V15.473C26.4495 15.2208 26.3881 14.9725 26.2706 14.7493C26.1531 14.5262 25.9831 14.3349 25.7753 14.192H26.1331C26.4185 14.1922 26.6922 14.0791 26.8942 13.8776C27.0962 13.676 27.2099 13.4025 27.2103 13.1171ZM16.9748 22.6916H15.4737V21.1913H16.9748V22.6916ZM23.54 22.6916H22.0389V21.1913H23.54V22.6916ZM24.9353 13.1171C24.9353 13.0175 24.9749 12.922 25.0454 12.8515C25.1158 12.7811 25.2114 12.7415 25.311 12.7415H26.1331C26.1838 12.7392 26.2345 12.7472 26.282 12.765C26.3296 12.7828 26.373 12.8101 26.4097 12.8451C26.4464 12.8802 26.4756 12.9224 26.4956 12.9691C26.5156 13.0157 26.5259 13.066 26.5259 13.1168C26.5259 13.1675 26.5156 13.2178 26.4956 13.2645C26.4756 13.3111 26.4464 13.3533 26.4097 13.3884C26.373 13.4234 26.3296 13.4507 26.282 13.4685C26.2345 13.4863 26.1838 13.4943 26.1331 13.492H25.3102C25.2408 13.4918 25.1728 13.4722 25.1139 13.4355C25.055 13.3989 25.0074 13.3465 24.9765 13.2844L24.9384 13.149C24.9369 13.1389 24.9345 13.128 24.9345 13.1171H24.9353ZM16.1667 8.68848C16.2088 8.5418 16.2974 8.41276 16.4191 8.32075C16.5408 8.22874 16.6892 8.17873 16.8418 8.17826H22.2784C22.4325 8.17875 22.5822 8.22976 22.7046 8.32345C22.827 8.41715 22.9152 8.54838 22.9559 8.69704L24.2485 13.2859C24.2616 13.3717 24.2851 13.4555 24.3185 13.5356L24.4617 14.0443L22.9528 14.6144H15.9847L14.5987 14.0699L14.7706 13.4819C14.7871 13.437 14.8006 13.391 14.811 13.3443L16.1667 8.68848ZM12.5578 13.1171C12.5578 13.0175 12.5974 12.922 12.6678 12.8515C12.7383 12.7811 12.8338 12.7415 12.9334 12.7415H13.7587C13.8136 12.7409 13.868 12.7524 13.9179 12.7754C13.9678 12.7984 14.012 12.8321 14.0473 12.8743C14.0826 12.9164 14.108 12.9658 14.1219 13.019C14.1357 13.0721 14.1376 13.1277 14.1273 13.1817L14.1032 13.2657C14.0742 13.3331 14.0261 13.3904 13.9649 13.4308C13.9037 13.4712 13.832 13.4927 13.7587 13.4928H12.9334C12.8338 13.4928 12.7383 13.4532 12.6678 13.3828C12.5974 13.3123 12.5578 13.2168 12.5578 13.1171ZM25.7442 20.4913H13.32V15.473C13.3203 15.2598 13.4002 15.0543 13.5441 14.8969C13.6879 14.7395 13.8854 14.6415 14.0978 14.6221L15.7723 15.2825C15.8261 15.3037 15.8833 15.3145 15.9411 15.3144H23.0002C23.0555 15.3145 23.1103 15.3045 23.162 15.2848L24.9299 14.6167H24.9431C25.1609 14.63 25.3653 14.726 25.5147 14.885C25.664 15.044 25.747 15.2541 25.7465 15.4723V20.4897L25.7442 20.4913Z" fill="#2F373D" stroke="#2F373D" stroke-width="0.7"/>
</svg>
