<svg width="25" height="16" viewBox="0 0 25 16" fill="none" xmlns="http://www.w3.org/2000/svg">
<path d="M10.4167 8.61414C9.65071 8.61414 9.02795 9.2321 9.02795 9.99246C9.02795 10.7523 9.65071 11.3705 10.4167 11.3705C11.1827 11.3705 11.8057 10.7526 11.8057 9.99246C11.8055 9.2321 11.1825 8.61414 10.4167 8.61414Z" fill="#2F373D"/>
<path d="M4.514 8.61414C3.748 8.61414 3.125 9.2321 3.125 9.99246C3.125 10.7523 3.748 11.3705 4.514 11.3705C5.28 11.3705 5.903 10.7526 5.903 9.99246C5.90275 9.2321 5.28 8.61414 4.514 8.61414Z" fill="#2F373D"/>
<path d="M17.361 0C15.5143 0 13.8207 0.650465 12.5 1.73284C11.179 0.650465 9.48525 0 7.63875 0C3.42075 0 0 3.39373 0 7.58032C0 11.7662 3.42075 15.1606 7.63875 15.1606C9.48525 15.1606 11.179 14.5102 12.5 13.4276C13.821 14.5102 15.5142 15.1606 17.3612 15.1606C21.58 15.1604 25 11.7662 25 7.58032C25 3.39373 21.58 0 17.361 0ZM17.4912 3.101C17.8747 3.101 18.1857 3.40961 18.1857 3.79016C18.1857 4.17072 17.8747 4.47933 17.4912 4.47933C17.108 4.47933 16.797 4.17072 16.797 3.79016C16.797 3.40961 17.108 3.101 17.4912 3.101ZM6.59725 3.101C6.98075 3.101 7.29175 3.40961 7.29175 3.79016C7.29175 4.17072 6.98075 4.47933 6.59725 4.47933C6.21375 4.47933 5.903 4.17072 5.903 3.79016C5.903 3.40961 6.21375 3.101 6.59725 3.101ZM4.514 12.0594C3.36525 12.0594 2.43075 11.1321 2.43075 9.99215C2.43075 8.85198 3.36525 7.92466 4.514 7.92466C5.66275 7.92466 6.59725 8.85198 6.59725 9.99215C6.59725 11.1321 5.66275 12.0594 4.514 12.0594ZM7.986 10.1646C7.986 10.4496 7.75275 10.6813 7.46525 10.6813C7.17775 10.6813 6.9445 10.4496 6.9445 10.1646V7.75249C6.9445 7.55824 7.05375 7.39104 7.213 7.30297L7.212 7.30098L8.3735 6.65895L7.46475 5.72295L6.94625 6.44461C6.8675 6.55575 6.744 6.63266 6.597 6.63266H4.861C4.62125 6.63266 4.427 6.44015 4.427 6.20199C4.427 5.96384 4.62125 5.77133 4.861 5.77133H6.373L7.2265 4.57682C7.35375 4.42996 7.54 4.3347 7.75075 4.3347C7.9475 4.3347 8.12375 4.41656 8.25025 4.54656L8.251 4.54581L9.87525 6.21911L9.87425 6.2201C9.9945 6.34389 10.0695 6.5116 10.0695 6.69716C10.0695 6.98493 9.8915 7.23078 9.63875 7.33398L7.986 8.24716V10.1646V10.1646ZM10.4167 12.0594C9.268 12.0594 8.3335 11.1321 8.3335 9.99215C8.3335 8.85198 9.268 7.92466 10.4167 7.92466C11.5655 7.92466 12.5 8.85223 12.5 9.99215C12.5 11.1321 11.5655 12.0594 10.4167 12.0594ZM20.356 7.58032C20.356 7.81823 20.1618 8.01099 19.922 8.01099C19.6823 8.01099 19.488 7.81823 19.488 7.58032V6.91076L18.8803 6.36771V7.92317L20.2283 11.3415C20.2283 11.3415 20.2283 11.3415 20.2288 11.3415L20.2335 11.3544L20.2325 11.3546C20.2558 11.4132 20.269 11.4762 20.269 11.5429C20.269 11.8279 20.0357 12.0596 19.7482 12.0596C19.5277 12.0596 19.34 11.923 19.264 11.7309L19.2633 11.7312L17.9578 8.42082L16.0347 11.7972L16.0327 11.7959C15.9432 11.9525 15.7758 12.0594 15.5813 12.0594C15.2938 12.0594 15.0605 11.8277 15.0605 11.5427C15.0605 11.4501 15.0868 11.364 15.13 11.2894L15.1278 11.2884L17.1435 7.74902V6.59892L16.088 7.85569L16.0835 7.85172C16.0042 7.94674 15.8888 8.01074 15.7545 8.01074C15.5148 8.01074 15.3208 7.81798 15.3208 7.58007C15.3208 7.47514 15.363 7.38285 15.4257 7.30818L15.4213 7.30446L17.1572 5.23721C17.6082 4.78967 18.1205 4.62966 18.4753 4.84822L20.2113 6.39872L20.2087 6.40145C20.2972 6.48009 20.355 6.59173 20.355 6.71874V7.58032H20.356Z" fill="#2F373D"/>
</svg>
