<svg width="25" height="15" viewBox="0 0 25 15" fill="none" xmlns="http://www.w3.org/2000/svg">
<path d="M0.976562 0.419922C0.437207 0.419922 0 0.857129 0 1.39648V13.6035C0 14.1429 0.437207 14.5801 0.976562 14.5801C1.51592 14.5801 1.95312 14.1429 1.95312 13.6035V1.39648C1.95312 0.857129 1.51592 0.419922 0.976562 0.419922Z" fill="#2F373D"/>
<path d="M24.0234 0.419922C23.4841 0.419922 23.0469 0.857129 23.0469 1.39648V13.6035C23.0469 14.1429 23.4841 14.5801 24.0234 14.5801C24.5628 14.5801 25 14.1429 25 13.6035V1.39648C25 0.857129 24.5628 0.419922 24.0234 0.419922Z" fill="#2F373D"/>
<path d="M17.1387 6.52342H4.43433L7.23066 3.74998C7.61362 3.3702 7.61616 2.75189 7.23633 2.36893C6.85664 1.98607 6.23828 1.98343 5.85527 2.36327L2.82002 5.37371C2.26099 5.92816 1.95312 6.66595 1.95312 7.45116C1.95312 8.23636 2.26099 8.97415 2.82002 9.52865L5.85527 12.539C6.0457 12.7279 6.29434 12.8222 6.54292 12.8222C6.79419 12.8222 7.04541 12.7259 7.23633 12.5334C7.61611 12.1504 7.61362 11.5321 7.23066 11.1523L4.53281 8.47655H17.1387C17.678 8.47655 18.1152 8.03934 18.1152 7.49998C18.1152 6.96063 17.678 6.52342 17.1387 6.52342Z" fill="#2F373D"/>
<path d="M22.18 5.37368L19.1447 2.36328C18.7618 1.98345 18.1435 1.98604 17.7637 2.36895C17.3839 2.75191 17.3864 3.37022 17.7694 3.75L20.8046 6.7604C20.991 6.94536 21.0938 7.19072 21.0938 7.45117C21.0938 7.71162 20.991 7.95698 20.8046 8.14189L17.7694 11.1523C17.3864 11.5321 17.3839 12.1504 17.7637 12.5334C17.9546 12.7259 18.2058 12.8223 18.4571 12.8223C18.7056 12.8223 18.9544 12.7279 19.1447 12.5391L22.18 9.52861C22.739 8.97416 23.0469 8.23637 23.0469 7.45117C23.0469 6.66596 22.739 5.92817 22.18 5.37368Z" fill="#2F373D"/>
</svg>
