<svg width="26" height="15" viewBox="0 0 26 15" fill="none" xmlns="http://www.w3.org/2000/svg">
<path d="M1.47656 0.419922C0.937207 0.419922 0.5 0.857129 0.5 1.39648V13.6035C0.5 14.1429 0.937207 14.5801 1.47656 14.5801C2.01592 14.5801 2.45312 14.1429 2.45312 13.6035V1.39648C2.45312 0.857129 2.01592 0.419922 1.47656 0.419922Z" fill="#2F373D"/>
<path d="M24.5234 0.419922C23.9841 0.419922 23.5469 0.857129 23.5469 1.39648V13.6035C23.5469 14.1429 23.9841 14.5801 24.5234 14.5801C25.0628 14.5801 25.5 14.1429 25.5 13.6035V1.39648C25.5 0.857129 25.0628 0.419922 24.5234 0.419922Z" fill="#2F373D"/>
<path d="M17.6387 6.52342H4.93433L7.73066 3.74998C8.11362 3.3702 8.11616 2.75189 7.73633 2.36893C7.35664 1.98607 6.73828 1.98343 6.35527 2.36327L3.32002 5.37371C2.76099 5.92816 2.45312 6.66595 2.45312 7.45116C2.45312 8.23636 2.76099 8.97415 3.32002 9.52865L6.35527 12.539C6.5457 12.7279 6.79434 12.8222 7.04292 12.8222C7.29419 12.8222 7.54541 12.7259 7.73633 12.5334C8.11611 12.1504 8.11362 11.5321 7.73066 11.1523L5.03281 8.47655H17.6387C18.178 8.47655 18.6152 8.03934 18.6152 7.49998C18.6152 6.96063 18.178 6.52342 17.6387 6.52342Z" fill="#2F373D"/>
<path d="M22.68 5.37368L19.6447 2.36328C19.2618 1.98345 18.6435 1.98604 18.2637 2.36895C17.8839 2.75191 17.8864 3.37022 18.2694 3.75L21.3046 6.7604C21.491 6.94536 21.5938 7.19072 21.5938 7.45117C21.5938 7.71162 21.491 7.95698 21.3046 8.14189L18.2694 11.1523C17.8864 11.5321 17.8839 12.1504 18.2637 12.5334C18.4546 12.7259 18.7058 12.8223 18.9571 12.8223C19.2056 12.8223 19.4544 12.7279 19.6447 12.5391L22.68 9.52861C23.239 8.97416 23.5469 8.23637 23.5469 7.45117C23.5469 6.66596 23.239 5.92817 22.68 5.37368Z" fill="#2F373D"/>
</svg>
