<svg width="27" height="23" viewBox="0 0 27 23" fill="none" xmlns="http://www.w3.org/2000/svg">
<path d="M25.9993 9.21771C25.9893 8.98924 25.862 8.5657 25.1215 8.29622L5.37969 1.11785C4.36772 0.74964 3.24468 1.27317 2.87632 2.28519L2.34189 3.7534C2.34189 3.7534 2.34185 3.75355 2.3418 3.75364L1.1395 7.05701C0.771191 8.06907 1.29482 9.19202 2.30698 9.56043L8.06069 11.6522C7.95137 12.3172 8.13374 12.9743 8.53071 13.477L7.30503 16.8443C7.24863 16.9993 7.0998 17.1034 6.93472 17.1034H3.34375V15.9316C3.34375 15.2854 2.81807 14.7597 2.17188 14.7597H1.39062C1.1749 14.7597 1 14.9346 1 15.1503V21.4003C1 21.616 1.1749 21.7909 1.39062 21.7909H2.17188C2.81807 21.7909 3.34375 21.2652 3.34375 20.6191V19.4472H6.93472C8.08159 19.4472 9.11548 18.7232 9.50742 17.6456L10.7073 14.3491C11.394 14.2527 12.018 13.8517 12.3884 13.2256L19.1122 15.67C19.332 15.75 19.5569 15.7879 19.7783 15.7879C20.4497 15.7879 21.0877 15.4388 21.445 14.8563L22.2166 15.1371C22.3037 15.1688 22.394 15.1846 22.4841 15.1846C22.5966 15.1846 22.7086 15.16 22.8136 15.1111C23.0026 15.0229 23.1459 14.8664 23.2172 14.6705L24.2864 11.7329C24.4165 11.3757 24.2681 10.9841 23.953 10.796L25.2052 10.2121C25.9194 9.87913 26.0092 9.44617 25.9993 9.21771ZM2.5625 20.6191C2.5625 20.8345 2.38726 21.0097 2.17188 21.0097H1.78125V15.5409H2.17188C2.38726 15.5409 2.5625 15.7162 2.5625 15.9316V20.6191ZM8.77329 17.3785C8.49316 18.1486 7.7543 18.6659 6.93472 18.6659H3.34375V17.8847H6.93472C7.427 17.8847 7.8708 17.574 8.03916 17.1116L9.1605 14.0308C9.28916 14.1081 9.427 14.1744 9.57339 14.2277C9.67729 14.2656 9.78213 14.2955 9.88716 14.3182L8.77329 17.3785ZM10.4289 13.5887C10.4199 13.5887 10.4109 13.5887 10.4019 13.5892C10.2159 13.5917 10.0261 13.5611 9.84058 13.4936C9.62344 13.4145 9.43408 13.2929 9.27895 13.1414C9.26475 13.1241 9.24897 13.1081 9.23174 13.0934C8.94082 12.7835 8.78506 12.3629 8.81455 11.9263L11.6348 12.9515C11.3494 13.3434 10.9027 13.5741 10.4289 13.5887ZM23.5524 11.4658L22.4839 14.403L21.7492 14.1356L22.7627 11.3511L22.9702 11.2544L23.5524 11.4658ZM24.8751 9.50408L22.7869 10.4778C22.7867 10.4779 22.7865 10.478 22.7863 10.4781L22.2862 10.7113C22.286 10.7114 22.2858 10.7115 22.2856 10.7116L21.6993 10.9849C21.0112 11.3058 19.8271 11.3575 19.1135 11.0977L7.81421 6.99222C7.61152 6.91863 7.38735 7.02322 7.31367 7.22596C7.23999 7.42874 7.34463 7.65281 7.54741 7.72654L18.8465 11.832C19.2396 11.9751 19.7243 12.0448 20.2188 12.0448C20.7595 12.0448 21.3115 11.961 21.7684 11.7989L20.8816 14.2354C20.6606 14.8427 19.9868 15.1568 19.3794 14.9358L2.57402 8.82625C1.9668 8.60525 1.65264 7.93148 1.87363 7.32425L2.54199 5.48792C2.76489 5.8306 3.09639 6.10652 3.50928 6.25682L3.87646 6.39041C4.079 6.46424 4.30332 6.35965 4.3771 6.15692C4.45088 5.95423 4.34634 5.73006 4.1436 5.65628L3.77646 5.52269C3.16934 5.30169 2.85513 4.62806 3.07598 4.02088L3.20967 3.65355C3.20967 3.65355 3.20972 3.65345 3.20972 3.6534L3.61045 2.55237C3.83149 1.94515 4.50527 1.63084 5.1126 1.85198L24.8544 9.0304C25.1052 9.12166 25.198 9.21678 25.2168 9.25184C25.2011 9.28846 25.117 9.39124 24.8751 9.50408Z" fill="black" stroke="#2F373D" stroke-width="0.5"/>
<path d="M6.34586 6.45785L5.61163 6.19057C5.40894 6.11669 5.18477 6.22133 5.11094 6.42401C5.03717 6.6267 5.14166 6.85087 5.34439 6.9247L6.07862 7.19198C6.12271 7.20805 6.16783 7.21561 6.21222 7.21561C6.37179 7.21561 6.52154 7.11708 6.57931 6.95849C6.65314 6.75585 6.54859 6.53168 6.34586 6.45785Z" fill="black" stroke="#2F373D" stroke-width="0.5"/>
</svg>
