<svg width="23" height="21" viewBox="0 0 23 21" fill="none" xmlns="http://www.w3.org/2000/svg">
<path d="M23 2.36911C22.1537 2.77093 21.2444 3.04255 20.2899 3.16467C21.264 2.53938 22.0123 1.54927 22.3646 0.3694C21.4528 0.948463 20.443 1.3689 19.3681 1.59544C18.5074 0.613502 17.281 0 15.9238 0C13.3178 0 11.2051 2.26204 11.2051 5.05226C11.2051 5.44826 11.2468 5.83387 11.3273 6.2037C7.40563 5.99293 3.92863 3.98153 1.60133 0.924702C1.19514 1.67091 0.962404 2.53881 0.962404 3.46476C0.962404 5.21768 1.79543 6.76415 3.0616 7.67019C2.28809 7.64393 1.56049 7.41666 0.924356 7.03822C0.923906 7.05929 0.923906 7.08045 0.923906 7.10176C0.923906 9.54971 2.55048 11.5917 4.70906 12.056C4.31317 12.1713 3.89625 12.2333 3.4659 12.2333C3.16182 12.2333 2.86623 12.2015 2.57806 12.1425C3.17858 14.1496 4.92118 15.6106 6.98606 15.6512C5.37112 17.0065 3.33648 17.8141 1.12565 17.8141C0.744758 17.8141 0.369167 17.7903 0 17.7434C2.08823 19.177 4.56859 20.0135 7.23335 20.0135C15.9127 20.0135 20.659 12.3147 20.659 5.63806C20.659 5.41902 20.6544 5.20113 20.6453 4.9844C21.5674 4.2721 22.3674 3.38227 23 2.36911Z" fill="#0CBBFF"/>
</svg>
