<svg width="23" height="23" viewBox="0 0 23 23" fill="none" xmlns="http://www.w3.org/2000/svg">
<path fill-rule="evenodd" clip-rule="evenodd" d="M2.69881 1C1.76574 1 1 1.7689 1 2.70244V8.89291C1 9.82646 1.76574 10.5954 2.69881 10.5954H8.87084C9.80393 10.5954 10.5696 9.82645 10.5696 8.89291V2.70244C10.5696 1.76891 9.80393 1 8.87084 1H2.69881ZM2.69881 1.95455H8.87084C9.28337 1.95455 9.6151 2.28637 9.6151 2.70244V8.89291C9.6151 9.30899 9.28337 9.64081 8.87084 9.64081H2.69881C2.2863 9.64081 1.95455 9.30898 1.95455 8.89291V2.70244C1.95455 2.28638 2.2863 1.95455 2.69881 1.95455Z" fill="#2F373D" stroke="#2F373D"/>
<path fill-rule="evenodd" clip-rule="evenodd" d="M14.129 1C13.1973 1 12.4302 1.76778 12.4302 2.70244V8.89291C12.4302 9.82758 13.1973 10.5954 14.129 10.5954H20.3034C21.235 10.5954 21.9999 9.82645 21.9999 8.89291V2.70244C21.9999 1.76891 21.235 1 20.3034 1H14.129ZM14.129 1.95455H20.3034C20.7126 1.95455 21.0453 2.28637 21.0453 2.70244V8.89291C21.0453 9.30899 20.7126 9.64081 20.3034 9.64081H14.129C13.7197 9.64081 13.3847 9.30786 13.3847 8.89291V2.70244C13.3847 2.2875 13.7197 1.95455 14.129 1.95455Z" fill="#2F373D" stroke="#2F373D"/>
<path fill-rule="evenodd" clip-rule="evenodd" d="M2.69881 12.4023C1.76459 12.4023 1 13.1727 1 14.1048V20.2976C1 21.2297 1.76459 22.0001 2.69881 22.0001H8.87084C9.80508 22.0001 10.5696 21.2297 10.5696 20.2976V14.1048C10.5696 13.1727 9.80508 12.4023 8.87084 12.4023H2.69881ZM2.69881 13.3569H8.87084C9.28225 13.3569 9.6151 13.692 9.6151 14.1048V20.2976C9.6151 20.7104 9.28225 21.0455 8.87084 21.0455H2.69881C2.28745 21.0455 1.95455 20.7104 1.95455 20.2976V14.1048C1.95455 13.6921 2.28745 13.3569 2.69881 13.3569Z" fill="#2F373D" stroke="#2F373D"/>
<path fill-rule="evenodd" clip-rule="evenodd" d="M14.129 12.4023C13.1962 12.4023 12.4302 13.1716 12.4302 14.1048V20.2976C12.4302 21.2308 13.1962 22.0001 14.129 22.0001H20.3034C21.2362 22.0001 21.9999 21.2297 21.9999 20.2976V14.1048C21.9999 13.1727 21.2362 12.4023 20.3034 12.4023H14.129ZM14.129 13.3569H20.3034C20.7115 13.3569 21.0453 13.692 21.0453 14.1048V20.2976C21.0453 20.7104 20.7115 21.0455 20.3034 21.0455H14.129C13.7209 21.0455 13.3847 20.7093 13.3847 20.2976V14.1048C13.3847 13.6932 13.7209 13.3569 14.129 13.3569Z" fill="#2F373D" stroke="#2F373D"/>
</svg>
