<svg width="26" height="26" viewBox="0 0 26 26" fill="none" xmlns="http://www.w3.org/2000/svg">
<path d="M25.778 12.9909C23.5058 10.2226 18.6952 6.99194 13.4449 6.99194C8.17568 6.99194 3.36485 10.2445 1.11166 12.9909C0.889211 13.262 0.889211 13.6525 1.11166 13.9237C3.43774 16.759 8.25965 19.9227 13.4449 19.9227C18.8143 19.9227 23.6045 16.5718 25.778 13.9237C26.0005 13.6525 26.0005 13.262 25.778 12.9909ZM18.4396 13.4573C18.4396 16.2114 16.199 18.4521 13.4448 18.4521C10.6906 18.4521 8.45 16.2113 8.45 13.4573C8.45 10.7032 10.6906 8.46248 13.4448 8.46248C16.1992 8.46253 18.4396 10.7035 18.4396 13.4573ZM2.67338 13.4575C3.50098 12.5973 5.49647 10.741 8.29769 9.54959C6.53975 11.8595 6.53907 15.0532 8.29686 17.3639C6.16701 16.4612 4.18848 15.035 2.67338 13.4575ZM18.592 17.365C20.35 15.055 20.3506 11.8614 18.5928 9.55067C20.7226 10.4534 22.7012 11.8796 24.2163 13.457C23.3887 14.3173 21.3932 16.1735 18.592 17.365Z" fill="#2F373D"/>
<path d="M10.9449 13.4573C10.9449 14.8358 12.0664 15.9573 13.4449 15.9573C14.8234 15.9573 15.9449 14.8358 15.9449 13.4573C15.9449 12.0787 14.8234 10.9573 13.4449 10.9573C12.0664 10.9573 10.9449 12.0787 10.9449 13.4573ZM14.4744 13.4573C14.4744 14.0249 14.0125 14.4867 13.4449 14.4867C12.8773 14.4867 12.4155 14.0249 12.4155 13.4573C12.4155 12.8896 12.8773 12.4279 13.4449 12.4279C14.0125 12.4279 14.4744 12.8896 14.4744 13.4573Z" fill="#2F373D"/>
<path d="M13.4449 4.14355C13.851 4.14355 14.1802 3.81433 14.1802 3.40826V1.69257C14.1802 1.28649 13.851 0.957275 13.4449 0.957275C13.0388 0.957275 12.7096 1.28649 12.7096 1.69257V3.40826C12.7096 3.81433 13.0388 4.14355 13.4449 4.14355Z" fill="#2F373D"/>
<path d="M17.8322 5.12696C18.1847 5.32804 18.6339 5.20544 18.8352 4.8525L19.8137 3.13681C20.0149 2.78407 19.8921 2.33505 19.5393 2.13382C19.1864 1.93265 18.7375 2.05544 18.5363 2.40828L17.5578 4.12397C17.3566 4.47667 17.4794 4.92573 17.8322 5.12696Z" fill="#2F373D"/>
<path d="M8.0546 4.85249C8.25578 5.20524 8.7048 5.32808 9.05759 5.1269C9.41034 4.92573 9.53318 4.47666 9.33201 4.12391L8.35348 2.40823C8.1523 2.05548 7.70318 1.93264 7.35049 2.13381C6.99774 2.33499 6.8749 2.78406 7.07608 3.1368L8.0546 4.85249Z" fill="#2F373D"/>
<path d="M13.4449 22.771C13.0388 22.771 12.7096 23.1002 12.7096 23.5063V25.222C12.7096 25.6281 13.0388 25.9573 13.4449 25.9573C13.851 25.9573 14.1802 25.6281 14.1802 25.222V23.5063C14.1802 23.1002 13.851 22.771 13.4449 22.771Z" fill="#2F373D"/>
<path d="M9.05759 21.7876C8.70485 21.5865 8.25583 21.7093 8.0546 22.062L7.07607 23.7777C6.8749 24.1304 6.99774 24.5795 7.35049 24.7807C7.70328 24.9819 8.1523 24.859 8.35348 24.5063L9.33201 22.7906C9.53323 22.4378 9.41034 21.9888 9.05759 21.7876V21.7876Z" fill="#2F373D"/>
<path d="M18.8352 22.062C18.634 21.7092 18.1848 21.5865 17.8322 21.7876C17.4794 21.9888 17.3566 22.4378 17.5578 22.7906L18.5363 24.5062C18.7374 24.859 19.1864 24.9819 19.5393 24.7807C19.892 24.5795 20.0149 24.1305 19.8137 23.7777L18.8352 22.062Z" fill="#2F373D"/>
</svg>
