<svg width="25" height="25" viewBox="0 0 25 25" fill="none" xmlns="http://www.w3.org/2000/svg">
<path d="M12.5 25C19.4036 25 25 19.4036 25 12.5C25 5.59643 19.4036 0 12.5 0C5.59643 0 0 5.59643 0 12.5C0 19.4036 5.59643 25 12.5 25ZM12.5 1.5625C18.5309 1.5625 23.4375 6.46908 23.4375 12.5C23.4375 18.531 18.5309 23.4375 12.5 23.4375C6.46908 23.4375 1.5625 18.531 1.5625 12.5C1.5625 6.46908 6.46908 1.5625 12.5 1.5625Z" fill="#57565C"/>
<path d="M6.54555 11.3723L7.45269 14.7765H8.42774L9.53402 10.2233H8.60856L7.90968 13.404L7.11091 10.2233H6.01759L5.18524 13.3506L4.49861 10.2233H3.55713L4.64432 14.7765H5.64147L6.54555 11.3723Z" fill="#57565C"/>
<path d="M11.6459 14.7765L12.5499 11.3723L13.4571 14.7765H14.4321L15.5384 10.2233H14.613L13.9141 13.404L13.1153 10.2233H12.022L11.1896 13.3506L10.503 10.2233H9.56152L10.6487 14.7765H11.6459Z" fill="#57565C"/>
<path d="M17.6505 14.7765L18.5546 11.3723L19.4617 14.7765H20.4368L21.543 10.2233H20.6176L19.9187 13.404L19.1199 10.2233H18.0266L17.1943 13.3506L16.5076 10.2233H15.5662L16.6534 14.7765H17.6505Z" fill="#57565C"/>
</svg>
