<svg width="26" height="17" viewBox="0 0 26 17" fill="none" xmlns="http://www.w3.org/2000/svg">
<path d="M25.9854 6.18624C25.976 5.7318 25.9346 5.15721 25.8623 4.46301C25.7896 3.76842 25.6855 3.14767 25.5503 2.60072C25.3955 1.98638 25.0593 1.4687 24.5419 1.04787C24.0245 0.626942 23.4223 0.38294 22.7354 0.315505C20.5879 0.105242 17.3428 0 12.9999 0C8.65706 0 5.4119 0.105242 3.26457 0.315505C2.57771 0.382895 1.9779 0.626942 1.4654 1.04787C0.952692 1.46857 0.618968 1.98624 0.464175 2.60072C0.319241 3.14784 0.210286 3.76855 0.137769 4.46301C0.0653524 5.15721 0.0241895 5.73158 0.0145849 6.18624C0.00477693 6.64073 0 7.27192 0 8.07998C0 8.88796 0.00477693 9.51932 0.0146357 9.97372C0.0242404 10.4285 0.0654032 11.0027 0.137819 11.6969C0.210337 12.3915 0.314362 13.0122 0.449793 13.5592C0.604586 14.1738 0.940648 14.6913 1.45813 15.112C1.97572 15.5328 2.57796 15.7769 3.26462 15.8443C5.41195 16.0548 8.65691 16.16 13 16.16C17.3432 16.16 20.5879 16.0548 22.7354 15.8443C23.4224 15.7769 24.0219 15.5328 24.5347 15.112C25.0474 14.6913 25.3809 14.1735 25.5357 13.5592C25.6807 13.0122 25.7896 12.3915 25.8623 11.6969C25.9346 11.0028 25.9757 10.4282 25.9854 9.97372C25.9951 9.51932 26 8.88796 26 8.07998C26 7.27192 25.9952 6.64073 25.9854 6.18624ZM18.1362 8.76175L10.7077 12.8016C10.5723 12.8857 10.4077 12.9278 10.2143 12.9278C10.0693 12.9278 9.91939 12.894 9.76465 12.8267C9.44551 12.6754 9.28599 12.4396 9.28599 12.1199V4.04014C9.28599 3.72048 9.44556 3.48471 9.76465 3.33325C10.0936 3.18154 10.4079 3.19003 10.7077 3.3585L18.1363 7.39838C18.4263 7.54121 18.5714 7.76859 18.5714 8.08002C18.5714 8.39133 18.4263 8.61879 18.1362 8.76175Z" fill="#E5241D"/>
</svg>
