<svg width="794" height="777" viewBox="0 0 794 777" fill="none" xmlns="http://www.w3.org/2000/svg">
<path d="M557.618 777H0.855347V4.63128e-05H552.227C555.56 7.60219 557.096 15.826 556.151 24.2626C553.761 45.5959 537.066 61.986 522.947 78.1554C508.194 95.0474 495.525 116.48 503.203 139.417C509.641 158.659 527.47 167.495 542.17 179.689C559.17 193.793 575.57 207.905 594.006 220.685C634.075 248.466 675.649 274.901 709.98 309.9C769.173 370.247 802.786 457.025 791.551 541.656C780.284 626.528 714.41 698.453 642.185 740.085C629.946 747.14 617.316 753.516 604.396 759.226C589.096 765.988 573.481 771.859 557.618 777ZM67.7162 709.674C54.7481 709.674 41.8545 710.653 29.1801 713.432C11.3246 717.348 30.7015 724.067 38.083 724.801C47.7691 725.766 57.5033 726.248 67.2376 726.248C85.9881 726.248 104.737 724.461 123.147 720.904C125.149 720.518 127.478 719.832 128.128 717.903C130.198 711.76 116.75 712.698 113.941 712.443C98.6066 711.055 83.1086 709.674 67.7162 709.674ZM553.584 718.212C551.323 718.236 549.063 718.335 546.811 718.625C546.023 718.727 545.197 718.87 544.583 719.373C540.131 723.028 558.698 723.785 563.212 723.785C563.591 723.785 563.871 723.779 564.03 723.769C566.49 723.623 581.677 723.989 580.535 720.976C580.238 720.19 579.54 719.628 578.818 719.197C577.7 718.531 576.584 718.109 575.464 717.858C577.083 715.477 578.97 712.228 579.378 711.608C581.187 708.868 582.858 706.038 584.404 703.143C584.729 702.535 585.049 701.925 585.361 701.312C588.991 694.219 591.904 686.774 594.343 679.198C595.478 675.676 596.205 670.391 591.989 668.536C591.452 668.299 590.875 668.196 590.28 668.196C588.009 668.196 585.479 669.682 583.902 670.896C580.752 673.187 578.204 676.377 576.027 679.57C574.947 681.152 571.91 684.789 571.181 687.343C572.186 674.218 573.386 661.024 573.147 647.855C573.026 641.145 573.065 627.472 564.626 625.331C564.131 625.207 563.626 625.149 563.119 625.149C561.806 625.149 560.483 625.535 559.301 626.129C552.685 629.448 552.354 636.846 551.525 643.431C550.743 649.641 550.566 655.928 551.007 662.17C550.746 662.646 550.505 663.129 550.283 663.62C549.103 660.849 547.512 658.252 545.571 655.948C544.002 654.085 542.16 652.381 539.921 651.421C538.799 650.941 537.562 650.669 536.339 650.669C535.125 650.669 533.927 650.937 532.869 651.531C526.451 655.137 526.12 664.535 527.416 670.748C528.149 674.267 529.4 677.628 530.962 680.858C530.828 681.027 530.703 681.211 530.586 681.412C529.738 682.876 530.064 684.712 530.494 686.347C532.965 695.735 538.219 704.327 545.259 710.985C546.802 712.443 550.065 715.49 553.584 718.212ZM331.736 660.674C328.759 660.674 325.78 660.786 322.824 660.91C310.372 661.432 297.649 662.147 285.247 663.259C280.445 663.69 274.142 664.321 270.533 667.956C265.994 672.528 274.972 674.871 278.156 675.16C292.774 676.481 307.461 677.348 322.132 677.348C330.647 677.348 339.153 677.058 347.643 676.392C351.568 676.084 355.565 675.679 359.175 674.106C368.294 670.139 349.786 662.811 346.662 662.104C341.77 660.991 336.754 660.674 331.736 660.674ZM125.269 560.104C125.023 560.146 124.774 560.187 124.529 560.231C122.538 560.573 120.372 561.034 119.174 562.425C114.248 568.142 143.991 567.914 147.665 567.933C149.941 567.944 152.215 567.95 154.49 567.95C156.978 567.95 159.466 567.943 161.952 567.93C183.604 567.815 205.222 567.168 226.826 566.337C230.1 566.337 233.376 566.338 236.65 566.34C277.584 566.372 318.516 566.588 359.449 566.823C363.166 566.845 366.878 566.854 370.594 566.854C387.741 566.854 404.858 566.649 421.972 566.442C439.069 566.237 456.163 566.031 473.29 566.031C474.706 566.031 476.123 566.032 477.54 566.035C479.5 566.04 481.458 566.041 483.419 566.041C512.166 566.041 540.915 565.603 569.643 564.728C574.855 564.57 580.062 564.511 585.268 564.511C592.981 564.511 600.69 564.641 608.399 564.772C616.11 564.901 623.82 565.031 631.542 565.031C640.808 565.031 650.089 564.843 659.389 564.245C663.137 564.001 680.813 560.571 671.602 554.881C669.854 553.801 667.571 553.623 665.411 553.493C645.366 552.271 625.318 551.849 605.257 551.849C582.601 551.849 559.932 552.389 537.267 552.929C514.599 553.468 491.93 554.009 469.264 554.009C454.19 554.009 439.116 553.769 424.047 553.132C416.252 552.803 408.42 552.677 400.566 552.677C376.303 552.677 351.842 553.883 327.714 554.045C320.996 554.09 314.277 554.132 307.559 554.172C312.196 552.543 316.414 550.189 321.965 546.77C323.122 546.057 324.313 545.302 325.059 544.166C326.599 541.816 325.584 538.348 323.245 536.792C322.269 536.142 321.121 535.931 319.896 535.931C318.731 535.931 317.495 536.124 316.275 536.315C315.055 536.508 313.851 536.7 312.745 536.7C310.426 536.7 308.544 535.853 307.873 532.385C307.388 529.872 308.961 527.429 310.725 525.575C318.191 517.726 329.275 514.705 336.987 507.084C344.488 499.667 339.001 496.178 331.293 496.178C330.754 496.178 330.204 496.195 329.646 496.23C326.655 496.413 316.118 498.94 308.011 498.94C302.302 498.94 297.795 497.686 297.983 493.477C298.094 491.003 299.415 488.753 300.883 486.761C305.382 480.672 311.522 476.029 317.571 471.477C321.014 468.887 324.457 466.296 327.899 463.707C332.788 460.028 351.888 454.233 344.499 444.484C342.644 442.038 339.408 441.501 336.221 441.501C335.394 441.501 334.571 441.536 333.775 441.585C321.814 442.315 309.851 443.045 297.888 443.774C303.847 422.236 328.207 410.728 337.315 390.32C338.639 387.355 339.616 383.945 338.488 380.899C337.023 376.946 333.184 375.527 328.844 375.527C325.326 375.527 321.48 376.461 318.305 377.732C315.587 378.82 304.958 385.516 299.466 385.516C297.491 385.516 296.181 384.652 296.137 382.351C296.089 379.739 297.857 377.493 299.441 375.414C301.026 373.335 302.589 370.843 302.055 368.284C301.324 364.784 297.509 363.58 293.686 363.58C292.457 363.58 291.228 363.704 290.1 363.917C288.188 364.278 286.061 364.621 284.045 364.621C281.166 364.621 278.513 363.919 277.043 361.561C276.168 360.157 275.971 358.444 275.87 356.792C275.015 342.834 279.456 329.058 279.657 315.073C279.711 311.338 279.284 307.313 277.935 303.852C281.164 288.921 282.822 273.647 282.854 258.37C282.88 243.972 278.739 226.16 264.734 222.811C263.351 222.48 261.983 222.325 260.641 222.325C248.666 222.325 238.596 234.777 234.922 246.928C229.764 263.986 231.108 282.412 231.744 300.536C227.066 302.457 222.478 304.076 218.544 304.076C214.838 304.076 211.716 302.637 209.66 298.651C207.247 293.976 207.878 288.38 208.572 283.165C211.031 264.642 213.491 246.118 215.949 227.594C217.223 217.994 218.484 208.104 216.042 198.73C213.603 189.358 206.529 180.511 196.961 179.007C195.974 178.853 194.993 178.778 194.021 178.778C184.058 178.778 175.02 186.589 169.791 195.392C159.258 213.117 158.987 234.96 160.265 255.538C160.799 264.127 166.708 326.138 152.213 326.138C151.861 326.138 151.495 326.101 151.118 326.026C149.562 325.717 148.37 324.509 147.248 323.389C144.274 320.413 140.838 317.512 136.672 316.935C136.176 316.867 135.685 316.834 135.2 316.834C128.203 316.834 122.4 323.732 120.771 330.764C118.537 340.411 121.555 350.508 125.671 359.515C129.788 368.522 135.056 377.086 137.716 386.624C138.815 390.567 139.452 394.742 138.635 398.753C137.683 403.409 135.329 407.15 132.061 407.15C130.83 407.15 129.471 406.618 128.007 405.406C122.378 400.747 117.606 395.74 110.557 393.142C107.847 392.144 104.889 391.622 101.955 391.622C95.8747 391.622 89.9027 393.868 86.4917 398.784C79.6929 408.59 86.2212 421.815 92.7107 431.829C99.0976 441.684 105.486 451.543 111.873 461.398C111.561 464.455 111.433 467.533 111.471 470.592C111.583 479.866 113.123 489.052 115.157 498.08C115.996 501.815 118.291 505.154 114.384 506.64C113.834 506.85 113.163 506.932 112.412 506.932C110.966 506.932 109.224 506.623 107.475 506.315C105.73 506.006 103.979 505.696 102.513 505.696C102.111 505.696 101.73 505.72 101.377 505.773C96.3471 506.525 91.3246 509.49 89.5887 514.27C87.006 521.372 92.3269 528.735 97.5235 534.223C105.561 542.713 114.697 553.333 125.269 560.104ZM458.367 436.43L454.438 500.261H470.849L494.027 418.385C494.375 416.815 494.41 415.26 494.205 413.737L528.442 410.171L569.658 489.473L575.343 486.52L532.331 403.765L492.17 407.683C490.644 404.787 488.501 402.158 486.382 399.984C481.403 394.868 476.381 389.794 471.198 384.885C460.856 375.084 449.84 365.886 437.598 358.539C430.883 354.511 418.97 346.833 409.969 346.833C408.925 346.833 407.921 346.935 406.968 347.159C397.593 349.366 390.406 360.901 389.685 371.086C389.646 371.636 389.626 372.181 389.626 372.721C389.623 374.649 389.871 376.506 390.397 378.214C391.441 381.603 393.405 384.641 395.629 387.404C398.403 390.856 401.567 393.906 404.987 396.673H392.996C390.168 396.673 387.874 398.965 387.874 401.793V402.777C387.874 405.606 390.168 407.899 392.996 407.899H422.263C424.981 409.398 427.727 410.847 430.456 412.281C431.217 412.68 431.978 413.081 432.74 413.479L408.219 415.871L359.236 485.179L364.993 487.989L412.224 422.276L438.811 419.507C427.907 432.972 412.345 453.67 408.564 459.922C411.205 462.343 416.752 468.003 419.394 470.424C432.008 458.672 445.004 447.327 458.367 436.43ZM94.6191 71.0862V90.9136H229.812V71.0862H94.6191Z" fill="url(#paint0_linear)"/>
<path d="M591.226 167.608C570.856 167.608 551.366 158.895 538.355 140.499C534.661 135.277 531.697 129.313 531.256 122.931C530.586 113.242 535.742 104.137 541.481 96.2999C563.739 65.9067 597.876 44.4631 634.917 37.6084C639.896 36.6868 645.076 36.056 650.188 36.056C658.008 36.056 665.668 37.5307 672.201 41.6923C684.684 49.6488 689.913 65.9845 688.047 80.6682C686.18 95.3519 678.385 108.618 669.531 120.48C658.188 135.67 644.536 149.555 627.738 158.343C616.067 164.449 603.486 167.608 591.226 167.608ZM620.684 74.2564V85.0318H658.925V74.2564H620.684Z" fill="url(#paint1_linear)"/>
<path d="M736.477 763.175C725.434 767.421 712.474 767.926 702.124 762.198C691.775 756.468 685.085 743.679 688.472 732.347C691.846 721.067 703.282 714.417 714.087 709.741C730.603 702.591 766.749 690.201 774.597 715.474C781.326 737.216 753.26 756.723 736.477 763.175Z" fill="url(#paint2_linear)"/>
<path d="M758.062 662.231C757.689 667.485 760.253 673.313 765.21 675.089C768.707 676.338 772.685 675.356 775.809 673.35C778.917 671.344 781.325 668.42 783.579 665.484C786.858 661.241 789.997 656.79 791.784 651.74C793.571 646.691 793.866 640.913 791.551 636.085C781.838 615.93 758.746 652.338 758.062 662.231Z" fill="url(#paint3_linear)"/>
<path d="M154.49 567.95C152.215 567.95 149.941 567.943 147.665 567.933C143.991 567.914 114.248 568.142 119.174 562.425C120.372 561.034 122.538 560.573 124.529 560.231C124.774 560.187 125.023 560.146 125.269 560.104C127.014 561.222 128.799 562.236 130.625 563.117C134.448 563.395 138.269 563.687 142.089 563.975C143.36 563.971 144.631 563.968 145.903 563.968C145.906 564.023 145.909 564.076 145.912 564.128C145.979 565.163 146.824 565.682 147.632 565.682C148.439 565.682 149.21 565.166 149.144 564.128C149.14 564.077 149.136 564.024 149.133 563.973C153.317 563.981 157.5 564.007 161.685 564.041C166.07 562.455 170.249 560.234 174.021 557.487C176.627 560.265 179.601 561.967 183.651 562.108C183.654 562.2 183.655 562.287 183.659 562.379C183.687 563.417 184.509 563.937 185.317 563.937C186.125 563.937 186.916 563.418 186.889 562.379C186.885 562.222 186.88 562.074 186.877 561.919C189.317 561.569 192.106 560.753 195.348 559.398C198.465 558.094 201.54 556.654 204.568 555.092C206.465 558.225 208.524 561.019 210.76 563.294C215.76 563.449 220.762 563.813 225.802 563.947C228.922 564.031 232.038 564.054 235.147 564.088C239.122 563.844 243.102 563.673 247.084 563.552C250.735 561.386 254.24 558.817 257.458 556.065C264.167 557.266 270.975 557.757 277.794 557.757C282.902 557.757 288.016 557.48 293.094 557.02C299.048 556.481 303.467 555.609 307.559 554.172C314.277 554.132 320.996 554.09 327.714 554.045C351.842 553.883 376.303 552.677 400.566 552.677C408.42 552.677 416.252 552.803 424.047 553.132C439.116 553.769 454.19 554.009 469.264 554.009C491.93 554.009 514.598 553.468 537.267 552.929C559.932 552.389 582.601 551.849 605.257 551.849C625.318 551.849 645.366 552.271 665.411 553.493C667.571 553.623 669.854 553.801 671.602 554.881C680.813 560.571 663.137 564.001 659.389 564.245C650.089 564.843 640.808 565.031 631.542 565.031C623.82 565.031 616.11 564.901 608.399 564.772C600.69 564.641 592.981 564.511 585.268 564.511C580.062 564.511 574.855 564.57 569.643 564.728C540.915 565.603 512.166 566.041 483.419 566.041C481.458 566.041 479.5 566.04 477.54 566.035C476.123 566.032 474.706 566.031 473.29 566.031C456.163 566.031 439.069 566.237 421.972 566.442C404.858 566.649 387.741 566.854 370.594 566.854C366.878 566.854 363.166 566.845 359.449 566.823C318.516 566.588 277.584 566.372 236.65 566.34C233.376 566.338 230.1 566.337 226.826 566.337C205.222 567.168 183.604 567.815 161.952 567.93C159.466 567.943 156.978 567.95 154.49 567.95Z" fill="url(#paint4_linear)"/>
<ellipse cx="476.083" cy="389.914" rx="99.5236" ry="114.139" transform="rotate(91.7251 476.083 389.914)" fill="#B2E2B6"/>
<ellipse cx="473" cy="483" rx="137" ry="65" fill="#A2DBA8"/>
<ellipse cx="573.197" cy="425.307" rx="32.4896" ry="42.312" transform="rotate(-39.7369 573.197 425.307)" fill="#ACDFB0"/>
<ellipse cx="586.743" cy="464.732" rx="30" ry="11" transform="rotate(13.5704 586.743 464.732)" fill="#A7DDAC"/>
<path d="M535.223 313.691L497.636 289.154C495.588 288.006 487.142 289.933 485.518 291.629C483.132 294.123 483.707 298.831 483.707 298.831L530.976 321.349L535.223 313.691Z" fill="#72452B"/>
<path d="M535.433 313.67L543.277 314.033C544.742 314.1 546.145 314.647 547.26 315.602C548.933 317.039 549.319 318.278 550.306 320.56C550.306 320.56 553.722 323.044 555.586 323.954C556.847 324.569 557.442 326.036 556.916 327.339C555.618 330.566 552.117 334.988 542.99 330.431C529.686 323.787 525.573 314.481 525.573 314.481L535.433 313.67Z" fill="#72452B"/>
<path d="M509.396 296.83L516.327 314.37L505.573 309.803L509.396 296.83Z" fill="#141214"/>
<path d="M596.009 480.032C596.009 484.313 592.538 487.784 588.258 487.784C583.977 487.784 580.506 484.313 580.506 480.032C580.506 475.753 583.977 472.282 588.258 472.282C592.538 472.282 596.009 475.753 596.009 480.032Z" fill="#141214"/>
<path d="M347.818 480.032C347.818 484.313 344.347 487.784 340.066 487.784C335.786 487.784 332.315 484.313 332.315 480.032C332.315 475.753 335.786 472.282 340.066 472.282C344.347 472.282 347.818 475.753 347.818 480.032Z" fill="#141214"/>
<path d="M586.932 404.173C627.608 404.173 660.702 437.266 660.702 477.94C660.702 518.617 627.608 551.71 586.932 551.71C546.258 551.71 513.165 518.617 513.165 477.94C513.165 437.266 546.258 404.173 586.932 404.173ZM586.932 557.009C630.53 557.009 666 521.54 666 477.94C666 434.343 630.53 398.874 586.932 398.874C543.336 398.874 507.866 434.343 507.866 477.94C507.866 521.54 543.336 557.009 586.932 557.009Z" fill="#141214"/>
<path d="M588.258 482.685C588.589 482.685 588.925 482.622 589.25 482.489C590.606 481.941 591.262 480.398 590.714 479.041L533.337 337.063C532.787 335.706 531.243 335.053 529.888 335.6C528.529 336.147 527.874 337.693 528.424 339.05L585.801 481.027C586.218 482.058 587.209 482.685 588.258 482.685Z" fill="#A685EC"/>
<path d="M456.473 484.382C457.188 484.382 457.879 484.093 458.383 483.57L551.651 386.563C552.665 385.507 552.631 383.829 551.577 382.816C550.523 381.802 548.843 381.834 547.83 382.889L457.329 477.022L401.454 347.231C400.874 345.887 399.315 345.266 397.972 345.846C396.628 346.424 396.007 347.982 396.584 349.327L454.04 482.781C454.391 483.595 455.126 484.182 455.999 484.34C456.156 484.369 456.316 484.382 456.473 484.382Z" fill="#A685EC"/>
<path d="M456.473 484.382C457.919 484.382 459.102 483.222 459.123 481.772C459.143 480.308 457.975 479.105 456.511 479.084L343.523 477.453L410.104 373.311H544.055C545.519 373.311 546.705 372.124 546.705 370.66C546.705 369.197 545.519 368.012 544.055 368.012H408.656C407.752 368.012 406.911 368.472 406.422 369.233L336.496 478.607C335.98 479.417 335.939 480.442 336.396 481.289C336.851 482.136 337.728 482.669 338.69 482.683L456.435 484.382H456.473Z" fill="#A685EC"/>
<path d="M340.066 404.173C380.744 404.173 413.836 437.266 413.836 477.94C413.836 518.617 380.744 551.71 340.066 551.71C299.392 551.71 266.299 518.617 266.299 477.94C266.299 437.266 299.392 404.173 340.066 404.173ZM340.066 557.009C383.665 557.009 419.134 521.54 419.134 477.94C419.134 434.343 383.665 398.874 340.066 398.874C296.47 398.874 261 434.343 261 477.94C261 521.54 296.47 557.009 340.066 557.009Z" fill="#141214"/>
<path d="M426.683 341.841C429.305 339.304 427.35 334.842 423.702 334.866C415.582 334.919 397.051 334.565 380.982 330.798C359.696 325.809 367.126 347.705 382.977 349.755C406.268 352.767 419.154 349.124 426.683 341.841Z" fill="#252655"/>
<path d="M522.872 323.111C523.32 322.377 524.093 321.901 524.949 321.831L560.937 319.01C567.213 318.622 572.703 323.015 573.687 329.242C574.229 332.665 573.276 336.167 571.075 338.847C568.877 341.527 565.629 343.141 562.164 343.279L552.495 343.659L552.388 343.662C550.967 343.66 549.789 342.538 549.732 341.105C549.674 339.637 550.818 338.401 552.285 338.343L561.955 337.963C563.902 337.886 565.727 336.977 566.966 335.472C568.201 333.965 568.735 331.997 568.431 330.071C567.878 326.572 564.78 324.095 561.258 324.321L529.064 326.891L535.218 341.729L530.251 343.79L522.685 325.541C522.355 324.748 522.425 323.844 522.872 323.111Z" fill="#252655"/>
<path d="M417.516 474.471L395.981 499.505L382.925 487.366L403.837 461.209L417.516 474.471Z" fill="#72452B"/>
<path d="M398.145 496.24L411.697 525.566C412.528 527.554 411.887 529.851 410.149 531.122L370.831 497.322L384.576 484.29L398.145 496.24Z" fill="#FFDA7E"/>
<path d="M366.502 500.955L407.012 535.783L410.648 531.554L370.137 496.725L366.502 500.955Z" fill="#131112"/>
<path d="M382.071 493.686L382.65 494.167C382.055 494.884 381.766 495.747 381.766 496.612C381.768 497.712 382.235 498.799 383.146 499.558C383.863 500.153 384.726 500.442 385.59 500.442C386.691 500.442 387.777 499.973 388.535 499.062C389.132 498.345 389.419 497.482 389.421 496.618C389.419 495.517 388.952 494.431 388.041 493.673C387.322 493.077 386.46 492.789 385.596 492.789C384.494 492.789 383.409 493.256 382.65 494.167L382.071 493.686L381.492 493.203C382.545 491.937 384.067 491.28 385.596 491.28C386.795 491.28 388.01 491.688 389.004 492.515C390.271 493.567 390.929 495.091 390.928 496.618C390.928 497.818 390.522 499.032 389.694 500.026C388.641 501.293 387.117 501.95 385.59 501.949C384.389 501.95 383.176 501.543 382.182 500.716C380.915 499.662 380.258 498.139 380.259 496.612C380.258 495.411 380.665 494.199 381.492 493.204L382.071 493.686Z" fill="#131112"/>
<path d="M404.074 505.334L398.652 505.417C398.236 505.422 397.894 505.091 397.886 504.674C397.881 504.258 398.214 503.915 398.629 503.91L404.051 503.827C404.467 503.821 404.81 504.153 404.815 504.57C404.822 504.985 404.49 505.328 404.074 505.334Z" fill="#131112"/>
<path d="M405.755 509.203L400.3 509.285C399.885 509.29 399.542 508.959 399.536 508.542C399.529 508.126 399.862 507.783 400.277 507.778L405.734 507.696C406.149 507.691 406.492 508.023 406.498 508.439C406.503 508.855 406.172 509.197 405.755 509.203Z" fill="#131112"/>
<path d="M407.45 513.378L401.754 513.464C401.337 513.47 400.996 513.137 400.989 512.721C400.983 512.305 401.316 511.963 401.731 511.957L407.428 511.871C407.843 511.865 408.186 512.197 408.193 512.614C408.199 513.03 407.866 513.372 407.45 513.378Z" fill="#131112"/>
<path d="M460.961 328.614L443.84 390.271L380.369 470.436L419.423 499.143L472.258 423.252C475.914 418.623 478.915 413.51 481.171 408.058L496.032 372.131L460.961 328.614Z" fill="#373852"/>
<path d="M458.352 349.207L476.399 417.51L495.899 379.463L458.352 349.207Z" fill="#141214"/>
<path d="M526.186 501.27L531.66 536.271L513.846 535.577L507.166 500.133L526.186 501.27Z" fill="#72452B"/>
<path d="M531.173 532.385L560.568 545.787C562.494 546.754 563.506 548.913 563.015 551.012H511.167L513.094 532.168L531.173 532.385Z" fill="#FFDA7E"/>
<path d="M510.251 556.588H563.675V551.012H510.251V556.588Z" fill="#131112"/>
<path d="M517.32 540.926L518.073 540.915C518.106 543.006 519.814 544.678 521.899 544.678H521.965H521.962C524.053 544.644 525.727 542.936 525.727 540.852L525.726 540.793V540.789C525.693 538.698 523.985 537.024 521.902 537.024L521.842 537.025H521.836C519.747 537.058 518.073 538.765 518.073 540.849V540.916V540.915L517.32 540.926L516.566 540.936V540.849C516.566 537.942 518.898 535.566 521.813 535.519H521.809L521.902 535.517C524.809 535.519 527.184 537.85 527.232 540.765V540.761L527.234 540.852C527.232 543.759 524.903 546.137 521.986 546.185H521.983H521.899C518.993 546.185 516.613 543.854 516.566 540.939V540.936L517.32 540.926Z" fill="#131112"/>
<path d="M541.597 535.416L537.539 539.012C537.228 539.288 536.752 539.259 536.477 538.948C536.2 538.637 536.228 538.16 536.54 537.884L540.597 534.287C540.909 534.012 541.386 534.04 541.662 534.352C541.937 534.663 541.909 535.14 541.597 535.416Z" fill="#131112"/>
<path d="M545.394 537.253L541.312 540.87C541 541.148 540.523 541.118 540.247 540.806C539.972 540.495 540 540.019 540.312 539.744L544.395 536.124C544.707 535.848 545.182 535.877 545.458 536.188C545.734 536.5 545.705 536.977 545.394 537.253Z" fill="#131112"/>
<path d="M549.402 539.312L545.138 543.093C544.827 543.369 544.35 543.34 544.074 543.029C543.798 542.717 543.827 542.242 544.138 541.965L548.402 538.185C548.713 537.91 549.19 537.938 549.466 538.25C549.742 538.561 549.713 539.037 549.402 539.312Z" fill="#131112"/>
<path d="M459.827 316.385L505.582 305.87C505.582 315.702 524.881 381.128 532.194 400.512C534.378 406.304 535.877 412.323 536.659 418.463L546.078 522.002L497.313 522.661L489.81 421.63L465.909 368.5C449.345 338.11 459.827 316.385 459.827 316.385Z" fill="#3F405D"/>
<path d="M491.807 238.734C491.807 238.734 503.342 248.354 505.582 261.563C507.822 274.771 510.34 304.779 510.701 320.379C510.701 320.379 499.883 323.098 487.781 323.967C469.85 325.251 459.827 316.385 459.827 316.385L458.856 264.169C458.856 264.169 453.655 240.831 476.62 233.127L491.807 238.734Z" fill="white"/>
<path d="M439.661 283.559L448.175 295.015L449.319 285.846L439.661 283.559Z" fill="#141214"/>
<path d="M454.155 298.171L463.014 301.185L463.631 299.452L451.314 287.993L454.155 298.171Z" fill="#141214"/>
<path d="M443.177 338.267L457.806 295.833C458.417 293.565 454.49 285.845 452.45 284.684C449.448 282.977 445.023 284.684 445.023 284.684L434.716 336.019L443.177 338.267Z" fill="#72452B"/>
<path d="M443.248 338.467L444.81 346.161C445.102 347.6 444.914 349.094 444.258 350.406C443.274 352.38 442.167 353.057 440.195 354.571C440.195 354.571 438.618 358.491 438.191 360.519C437.901 361.892 436.623 362.827 435.233 362.636C431.786 362.163 426.643 359.846 428.837 349.884C432.035 335.362 440.058 329.102 440.058 329.102L443.248 338.467Z" fill="#72452B"/>
<path d="M439.66 283.559C454.182 288.807 463.182 300.712 463.182 300.712C463.182 300.712 474.769 271.35 481.633 256.497C483.649 252.139 482.76 246.99 479.434 243.526C474.067 237.937 465.179 239.216 460.921 245.692C454.426 255.57 439.66 283.559 439.66 283.559Z" fill="white"/>
<path d="M458.26 297.6L462.921 300.002L476.651 266.498C476.758 266.237 477.057 266.112 477.318 266.219C477.58 266.327 477.705 266.625 477.598 266.887L463.656 300.906C463.602 301.039 463.495 301.142 463.359 301.192C463.224 301.242 463.076 301.233 462.948 301.166L457.792 298.508C457.54 298.38 457.442 298.071 457.572 297.82C457.7 297.568 458.009 297.47 458.26 297.6Z" fill="#141214"/>
<path d="M502.778 183.781C502.778 183.781 484.363 179.954 477.898 189.241C471.294 198.728 463.645 227.139 481.191 230.48L490.689 230.576L496.064 234.129L513.491 236.882C513.491 236.882 519.017 229.652 510.87 218.245L512.118 212.694C512.118 212.694 519.874 208.23 518.483 196.904C517.33 187.52 502.778 183.781 502.778 183.781Z" fill="url(#paint5_linear)"/>
<path d="M490.303 212.023L500.747 223.42L492.1 242.918C479.687 241.504 476.936 233.267 476.936 233.267L490.303 212.023Z" fill="#72452B"/>
<path d="M500.878 188.186C500.878 188.186 511.529 190.205 512.458 199.404C513.389 208.602 513.426 226.195 506.617 225.978C499.809 225.759 494.757 223.894 494.757 223.894L486.252 212.592L500.878 188.186Z" fill="#72452B"/>
<path d="M511.068 207.547L515.123 213.617C515.475 214.143 515.099 214.85 514.468 214.853L510.447 214.873L511.068 207.547Z" fill="#72452B"/>
<path d="M506.792 201.774C506.792 201.774 509.91 201.118 510.217 202.523C510.217 202.523 510.4 203.479 507.667 203.993C504.935 204.506 504.172 204.37 503.745 203.503C503.317 202.636 505.305 201.958 506.792 201.774Z" fill="#141214"/>
<path d="M507.009 208.291C506.903 209.044 507.409 209.736 508.137 209.839C508.866 209.944 509.541 209.416 509.647 208.665C509.751 207.912 509.246 207.218 508.519 207.115C507.79 207.011 507.113 207.538 507.009 208.291Z" fill="#141214"/>
<path d="M510.296 217.002C510.268 217.011 509.998 217.097 509.56 217.097C509.019 217.098 508.219 216.962 507.333 216.392C507.175 216.291 507.129 216.081 507.23 215.922C507.332 215.765 507.542 215.72 507.7 215.821C508.472 216.314 509.129 216.417 509.56 216.417C509.734 216.417 509.871 216.4 509.961 216.384L510.06 216.362L510.081 216.357C510.258 216.297 510.451 216.394 510.511 216.572C510.57 216.751 510.473 216.942 510.296 217.002Z" fill="#141214"/>
<path d="M499.953 225.236C499.953 225.236 496.846 224.412 495.899 223.705L497.578 230.666L499.953 225.236Z" fill="#141214"/>
<path d="M508.834 192.202C508.834 192.202 505.476 198.013 494.587 203.45L489.87 205.787L489.942 193.065L497.713 185.876L506.439 188.797L508.834 192.202Z" fill="url(#paint6_linear)"/>
<path d="M490.116 207.752C490.116 207.752 489.211 220.923 494.094 231.101C494.094 231.101 482.002 232.618 476.936 228.813L478.847 210.215L490.116 207.752Z" fill="url(#paint7_linear)"/>
<path d="M484.279 208.01C484.606 210.635 487.001 212.499 489.628 212.17C492.254 211.842 494.117 209.447 493.788 206.821C493.461 204.195 491.066 202.331 488.439 202.659C485.813 202.988 483.949 205.383 484.279 208.01Z" fill="#72452B"/>
<path d="M490.932 208.372L490.88 208.278C490.757 208.058 490.41 207.488 489.918 206.99C489.423 206.487 488.798 206.081 488.129 206.084C487.719 206.086 487.268 206.225 486.751 206.63C486.604 206.745 486.39 206.72 486.274 206.573C486.157 206.425 486.183 206.211 486.331 206.096C486.94 205.614 487.555 205.403 488.129 205.404C489.215 205.411 490.056 206.11 490.63 206.757C491.206 207.411 491.53 208.049 491.537 208.064C491.623 208.231 491.556 208.437 491.389 208.521C491.222 208.606 491.016 208.539 490.932 208.372Z" fill="#141214"/>
<path d="M221.418 461.484C222.79 459.874 222.608 457.49 222.26 455.403C220.964 447.619 218.429 440.045 214.779 433.05C211.948 427.627 208.322 421.791 209.778 415.849C211.89 407.238 223.62 404.61 231.823 407.972C233.506 408.663 235.227 409.543 237.035 409.359C240.206 409.038 242.086 405.729 243.256 402.767C249.836 386.124 249.265 368.014 248.634 350.453C248.123 336.237 244.173 313.672 253.657 301.591C258 296.06 266.338 293.224 272.361 296.851C278.238 300.39 279.755 308.214 279.657 315.073C279.456 329.058 275.015 342.834 275.87 356.792C275.971 358.444 276.168 360.157 277.043 361.561C279.542 365.571 285.458 364.792 290.1 363.917C294.74 363.044 301.09 363.661 302.055 368.284C302.589 370.843 301.026 373.334 299.441 375.414C297.857 377.493 296.089 379.738 296.137 382.351C296.299 391.053 314.609 379.212 318.305 377.732C325.394 374.893 335.834 373.74 338.488 380.899C339.616 383.945 338.639 387.355 337.315 390.32C328.207 410.728 303.847 422.236 297.888 443.774C309.851 443.045 321.814 442.315 333.775 441.585C337.635 441.35 342.163 441.403 344.499 444.484C351.888 454.233 332.788 460.027 327.899 463.707C324.457 466.296 321.014 468.887 317.571 471.477C311.522 476.029 305.382 480.672 300.883 486.761C299.415 488.753 298.094 491.003 297.983 493.477C297.529 503.659 324.549 496.542 329.646 496.229C338.168 495.709 345.014 499.148 336.987 507.084C329.275 514.705 318.191 517.726 310.725 525.575C308.961 527.429 307.388 529.872 307.873 532.385C308.864 537.508 312.498 536.912 316.275 536.315C318.777 535.92 321.341 535.525 323.245 536.792C325.584 538.348 326.599 541.816 325.059 544.166C324.313 545.302 323.122 546.057 321.965 546.77C311.514 553.205 305.794 555.87 293.094 557.02C279.231 558.276 265.111 558.161 251.529 554.806C235.38 550.817 220.383 542.264 208.725 530.396C206.81 528.447 204.922 526.301 204.218 523.659C203.514 521.016 204.372 517.766 206.816 516.543C209.599 515.151 213.356 516.745 215.873 514.918C216.305 514.602 201.68 496.862 200.406 495.25C197.219 491.218 194.01 486.877 193.275 481.788C191.78 471.429 202.487 461.889 212.913 462.795C215.898 463.055 219.474 463.762 221.418 461.484Z" fill="#376E5C"/>
<path d="M92.7108 431.829C86.2212 421.815 79.693 408.59 86.4917 398.784C91.5484 391.496 102.232 390.076 110.557 393.142C117.606 395.74 122.378 400.747 128.007 405.406C133.356 409.836 137.326 405.162 138.635 398.753C139.452 394.742 138.815 390.567 137.716 386.624C135.056 377.086 129.788 368.522 125.671 359.515C121.555 350.508 118.537 340.411 120.771 330.764C122.513 323.244 129.026 315.877 136.672 316.935C140.838 317.512 144.274 320.413 147.248 323.389C148.37 324.509 149.562 325.717 151.118 326.026C166.997 329.19 160.812 264.335 160.265 255.538C158.987 234.96 159.258 213.117 169.791 195.392C175.53 185.731 185.858 177.263 196.961 179.007C206.529 180.511 213.603 189.358 216.042 198.73C218.484 208.104 217.223 217.994 215.949 227.594C213.491 246.118 211.031 264.641 208.572 283.165C207.878 288.38 207.247 293.976 209.66 298.651C214.392 307.824 224.768 303.512 234.931 299.199C247.018 294.071 258.804 288.943 260.439 306.492C260.922 311.7 259.373 316.873 257.556 321.777C253.231 333.465 247.318 344.498 242.655 356.056C238.485 366.396 232.807 381.407 235.596 392.759C237.819 401.811 248.611 403.972 256.6 403.508C264.63 403.044 273.853 401.883 279.634 407.474C285.199 412.856 284.178 421.215 281.789 427.83C278.866 435.923 273.098 440.003 266.826 445.715C252.156 459.075 237.861 472.846 223.966 487.011C220.512 490.529 216.91 494.411 216.182 499.289C214.802 508.551 221.035 508.357 227.23 508.163C229.976 508.076 232.714 507.99 234.779 508.728C240.793 510.877 245.784 517.33 243.99 523.459C243.084 526.553 240.695 528.958 238.328 531.146C225.822 542.71 211.108 552.807 195.348 559.398C174.692 568.032 172.406 554.809 161.57 538.088C138.616 502.669 115.665 467.247 92.7108 431.829Z" fill="#55B08C"/>
<path d="M286.128 425.922C288.348 416.048 287.309 405.467 283.206 396.212C277.446 383.216 265.803 372.503 264.302 358.366C263.287 348.82 267.163 339.533 270.37 330.486C278.564 307.383 282.804 282.884 282.854 258.37C282.88 243.972 278.739 226.16 264.734 222.811C251.004 219.527 239.007 233.415 234.922 246.927C224.53 281.294 240.53 321.207 223.952 353.053C217.792 364.887 207.503 374.556 203.433 387.261C197.062 407.157 207.419 429.625 200.686 449.398C196.569 461.485 186.433 471.19 184.157 483.752C182.673 491.953 184.759 500.352 187.202 508.32C191.312 521.723 198.29 550.612 210.76 563.294C215.76 563.449 220.762 563.813 225.802 563.947C228.922 564.031 232.038 564.054 235.147 564.088C239.122 563.844 243.102 563.673 247.084 563.552C257.77 557.213 267.197 547.428 271.859 539.639C283.028 520.982 284.836 497.827 280.763 476.467C279.408 469.358 277.43 462.236 277.903 455.014C278.563 444.929 283.91 435.782 286.128 425.922Z" fill="#3F8E90"/>
<path d="M185.317 563.937C184.509 563.937 183.687 563.417 183.659 562.379C183.655 562.287 183.654 562.2 183.651 562.108C183.834 562.116 184.019 562.119 184.206 562.119C185.048 562.119 185.937 562.054 186.877 561.919C186.88 562.074 186.885 562.222 186.889 562.379C186.916 563.418 186.125 563.937 185.317 563.937Z" fill="url(#paint8_linear)"/>
<path d="M184.206 562.119C184.019 562.119 183.834 562.116 183.651 562.108C183.531 557.6 183.415 553.087 183.303 548.577C184.44 547.129 185.485 545.612 186.422 544.035C186.566 549.993 186.718 555.961 186.877 561.919C185.937 562.054 185.048 562.119 184.206 562.119ZM186.139 531.912C185.192 531.008 184.061 530.27 182.861 529.755C180.739 434.161 180.504 338.54 182.157 242.935C182.175 241.896 182.992 241.375 183.799 241.375C184.607 241.375 185.405 241.896 185.388 242.935C184.022 321.877 183.945 400.828 185.154 479.771C184.74 481.069 184.403 482.394 184.157 483.752C183.032 489.968 183.959 496.299 185.536 502.469C185.718 512.282 185.918 522.099 186.139 531.912Z" fill="#94D2B4"/>
<path d="M185.536 502.469C183.958 496.299 183.032 489.968 184.157 483.752C184.403 482.394 184.74 481.069 185.154 479.771C185.269 487.334 185.397 494.905 185.536 502.469Z" fill="#81BDB8"/>
<path d="M182.271 529.524C178.718 528.248 174.821 528.52 171.057 528.812C174.083 526.808 177.2 524.707 179.116 521.625C181.031 518.543 181.394 514.181 178.967 511.484C175.321 507.431 168.703 509.532 163.798 511.912C168.464 501.431 172.445 490.644 175.705 479.644C177.497 473.608 178.739 466.174 174.226 461.782C170.028 457.696 160.742 458.528 157.242 463.221C158.265 455.097 159.909 447.027 157.915 438.885C155.951 430.864 149.749 423.274 141.539 422.373C133.054 421.44 125.357 427.732 120.701 434.888C113.896 445.341 111.32 458.119 111.471 470.592C111.583 479.866 113.123 489.052 115.157 498.08C115.996 501.815 118.291 505.154 114.384 506.64C112.77 507.254 110.13 506.784 107.475 506.315C105.252 505.92 103.018 505.527 101.377 505.773C96.3471 506.525 91.3246 509.49 89.5887 514.27C87.006 521.372 92.3269 528.735 97.5235 534.223C106.888 544.116 117.744 556.898 130.625 563.117C134.448 563.395 138.269 563.687 142.089 563.975C148.621 563.954 155.152 563.989 161.685 564.041C172.272 560.212 181.645 552.686 187.034 542.969C187.92 541.376 188.726 539.668 188.799 537.847C188.951 534.077 185.823 530.8 182.271 529.524Z" fill="#6FCC92"/>
<path d="M249.977 292.68C241.848 383.108 233.718 473.538 225.59 563.965C225.404 566.034 228.635 566.004 228.819 563.947C236.95 473.519 245.079 383.091 253.206 292.662C253.394 290.593 250.162 290.624 249.977 292.68Z" fill="#35797D"/>
<path d="M147.632 565.682C146.824 565.682 145.979 565.163 145.912 564.128C145.909 564.076 145.906 564.023 145.903 563.968C145.934 563.968 145.965 563.968 145.994 563.968C147.04 563.968 148.087 563.97 149.133 563.973C149.136 564.024 149.14 564.077 149.144 564.128C149.21 565.166 148.439 565.682 147.632 565.682Z" fill="url(#paint9_linear)"/>
<path d="M149.133 563.973C148.088 563.97 147.04 563.968 145.994 563.968C145.965 563.968 145.934 563.968 145.903 563.968C143.312 523.613 140.72 483.252 138.129 442.895C138.063 441.857 138.835 441.341 139.64 441.341C140.45 441.341 141.293 441.861 141.36 442.895C143.951 483.254 146.541 523.613 149.133 563.973Z" fill="#A7DFB8"/>
<path d="M132.462 482.037C132.112 482.037 131.75 481.913 131.422 481.619C129.161 479.582 126.9 477.547 124.639 475.512C123.468 474.458 124.563 472.882 125.811 472.882C126.161 472.882 126.523 473.007 126.851 473.3C129.113 475.336 131.374 477.37 133.635 479.406C134.807 480.461 133.71 482.037 132.462 482.037Z" fill="#A7DFB8"/>
<path d="M157.702 484.038C156.569 484.038 155.477 482.926 156.313 481.782C158.131 479.302 159.949 476.82 161.767 474.338C162.117 473.861 162.602 473.662 163.079 473.662C164.212 473.662 165.304 474.775 164.467 475.917C162.65 478.399 160.832 480.879 159.014 483.362C158.664 483.839 158.179 484.038 157.702 484.038Z" fill="#A7DFB8"/>
<path d="M158.428 531.019C157.31 531.019 156.269 529.452 157.236 528.279C158.864 526.298 160.756 524.598 162.858 523.131C163.14 522.935 163.418 522.85 163.677 522.85C164.952 522.85 165.797 524.882 164.436 525.832C162.557 527.145 160.902 528.721 159.446 530.491C159.14 530.864 158.779 531.019 158.428 531.019Z" fill="#A7DFB8"/>
<path d="M213.875 505.535C210.98 503.097 208.732 500.183 207.112 496.763C206.223 494.884 203.436 496.522 204.322 498.393C206.047 502.032 208.51 505.226 211.59 507.818C213.172 509.149 215.467 506.874 213.875 505.535Z" fill="#35797D"/>
<path d="M223.248 415.484C221.379 412.45 219.508 409.417 217.637 406.383C216.549 404.617 213.753 406.237 214.847 408.014C216.718 411.047 218.589 414.08 220.46 417.115C221.548 418.882 224.344 417.261 223.248 415.484Z" fill="#35797D"/>
<path d="M263.853 405.673C262.142 408.175 260.14 410.418 257.882 412.435C256.33 413.826 258.622 416.104 260.168 414.721C262.63 412.519 264.779 410.029 266.642 407.305C267.817 405.583 265.02 403.965 263.853 405.673Z" fill="#35797D"/>
<path d="M256.397 498.514C253.887 501.603 251.098 504.421 248.031 506.961C246.431 508.29 248.728 510.564 250.316 509.246C253.382 506.705 256.171 503.888 258.681 500.798C259.98 499.198 257.708 496.899 256.397 498.514Z" fill="#35797D"/>
<path d="M234.439 365.408C233.272 363.773 232.103 362.138 230.936 360.503C229.739 358.826 226.936 360.438 228.146 362.135C229.314 363.768 230.482 365.403 231.649 367.038C232.849 368.716 235.652 367.103 234.439 365.408Z" fill="#35797D"/>
<path d="M267.279 304.484C265.644 306.236 264.011 307.986 262.376 309.737C260.959 311.255 263.239 313.546 264.661 312.021C266.294 310.27 267.929 308.519 269.564 306.767C270.981 305.249 268.701 302.96 267.279 304.484Z" fill="#35797D"/>
<path d="M252.431 261.492C252.249 266.513 252.069 271.535 251.889 276.558C251.812 278.637 255.043 278.634 255.118 276.558C255.3 271.535 255.48 266.513 255.662 261.492C255.736 259.412 252.505 259.415 252.431 261.492Z" fill="#35797D"/>
<path d="M219.268 466.014C216.784 462.534 214.3 459.053 211.819 455.572C210.62 453.895 207.817 455.507 209.029 457.204C211.511 460.683 213.994 464.163 216.479 467.645C217.676 469.322 220.478 467.712 219.268 466.014Z" fill="#35797D"/>
<path d="M253.71 458.343C251.256 460.794 248.802 463.243 246.345 465.692C244.872 467.162 247.157 469.446 248.63 467.976L255.993 460.627C257.467 459.157 255.183 456.871 253.71 458.343Z" fill="#35797D"/>
<path d="M322.132 677.348C307.461 677.348 292.774 676.481 278.156 675.16C274.972 674.871 265.994 672.528 270.533 667.956C274.142 664.321 280.445 663.69 285.247 663.259C297.649 662.147 310.372 661.432 322.824 660.91C325.78 660.786 328.759 660.674 331.736 660.674C336.754 660.674 341.77 660.991 346.662 662.104C349.786 662.811 368.294 670.139 359.175 674.106C355.565 675.679 351.568 676.084 347.643 676.393C339.153 677.058 330.647 677.348 322.132 677.348Z" fill="url(#paint10_linear)"/>
<path d="M292.193 634.175C286.164 631.738 279.802 630.119 273.34 629.378C269.798 628.971 265.52 629.168 263.626 632.187C261.584 635.437 263.708 639.66 266.078 642.68C274.638 653.595 286.566 661.196 298.505 668.349C307.842 668.36 317.18 668.275 326.518 668.165C341.994 656.427 344.726 626.865 345.282 608.905C345.413 604.738 345.32 600.419 343.576 596.633C341.831 592.846 338.035 589.715 333.875 589.981C330.77 590.178 328.066 592.163 325.862 594.36C322.145 598.071 319.279 602.635 317.554 607.595C320.631 583.984 314 559.25 299.52 540.346C297.941 538.284 296.083 536.166 293.547 535.602C289.108 534.615 285.192 538.834 283.471 543.042C280.207 551.028 280.969 560.043 282.303 568.565C283.892 578.71 286.218 588.738 289.259 598.545C284.572 591.165 275.551 586.781 266.855 587.654C265.113 587.83 263.228 588.298 262.195 589.71C260.448 592.099 262.131 595.407 263.825 597.832C272.628 610.438 282.101 622.576 292.193 634.175Z" fill="#55B08C"/>
<path d="M368.953 619.985C367.55 618.484 364.866 617.996 362.53 618.335C360.193 618.677 358.122 619.698 356.153 620.741C358.014 617.762 359.747 614.733 361.346 611.661C362.493 609.46 363.585 607.177 363.61 604.798C363.638 602.399 361.78 599.569 358.715 599.617C357.52 599.637 356.417 600.104 355.414 600.61C351.309 602.691 347.983 605.704 345.948 609.187C347.368 603.647 348.146 598.052 347.927 592.435C347.77 588.469 347.899 583.762 346.213 579.976C345.023 577.303 342.993 574.797 340.423 572.879C335.707 569.364 329.183 567.832 322.723 570.902C318.027 573.135 314.902 576.941 312.655 580.867C305.234 593.846 305.99 608.898 310.339 622.707C307.968 620.169 304.49 617.316 300.65 618.231C298.041 618.851 296.586 621.013 295.778 623.053C291.857 632.958 295.553 646.868 301.676 655.869C304.875 660.571 309.32 664.682 314.342 668.289C324.42 668.2 334.496 668.062 344.574 667.981C347.502 665.656 350.1 662.94 352.216 660.208C356.658 654.472 361.474 649.435 364.608 643.081C367.474 637.272 369.31 631.151 370.005 624.949C370.196 623.241 370.247 621.37 368.953 619.985Z" fill="#3F8E90"/>
<path d="M331.38 596.638C330.44 619.165 328.756 641.928 328.961 664.496C328.986 667.282 332.145 667.194 332.044 664.496C331.169 641.347 333.085 619.18 333.397 596.638C333.422 594.832 331.455 594.857 331.38 596.638Z" fill="#35797D"/>
<path d="M67.2375 726.248C57.5033 726.248 47.769 725.766 38.0829 724.801C30.7014 724.068 11.3246 717.348 29.1801 713.432C41.8545 710.653 54.748 709.674 67.7162 709.674C83.1085 709.674 98.6066 711.055 113.941 712.443C116.75 712.698 130.198 711.76 128.128 717.903C127.478 719.832 125.149 720.518 123.147 720.904C104.737 724.461 85.9881 726.248 67.2375 726.248Z" fill="url(#paint11_linear)"/>
<path d="M46.5213 685.563C54.5119 692.557 62.5026 699.553 70.4932 706.549C76.3254 711.656 80.1653 715.698 85.7302 717.808C86.2943 718.023 86.9548 718.139 87.5577 718.312C93.2516 718.226 98.947 718.161 104.641 718.107C123.794 700.765 138.475 669.99 146.52 648.315C150.21 638.367 153.146 627.616 150.956 617.235C150.583 615.463 149.976 613.595 148.516 612.522C147.197 611.552 145.444 611.437 143.808 611.502C138.903 611.698 132.795 613.25 128.507 615.741C127.208 616.498 126.122 617.586 125.07 618.706C125.567 617.449 126.061 616.222 126.56 615.036C130.057 606.753 136.302 596.666 134.08 587.51C133.168 583.748 128.963 582.641 125.825 584.152C120.38 586.773 115.48 592.657 111.828 598.957C114.279 587.219 117.407 575.595 118.523 563.664C119.761 550.404 118.227 536.351 110.93 525.21C107.427 519.861 101.847 518.907 95.9866 520.506C82.7869 524.108 74.0737 536.766 69.1273 549.522C61.334 569.617 60.5383 591.244 65.3899 612.114C64.0411 606.312 56.4498 597.194 52.0768 593.285C46.9082 588.665 38.355 584.385 31.3495 586.574C24.8554 588.602 21.0605 595.594 20.2291 602.344C19.8577 605.35 19.9385 608.41 20.4669 611.39C22.3332 621.93 29.505 631.577 34.5524 640.823C40.5803 651.861 46.6067 662.898 52.6331 673.937C49.853 671.068 46.5383 668.719 42.9129 667.044C41.8701 666.563 40.7435 666.128 39.6029 666.268C35.7552 666.739 35.6215 672.486 37.5733 675.836C39.8002 679.659 43.1911 682.645 46.5213 685.563Z" fill="#3F8E90"/>
<path d="M96.818 701.743C94.4373 653.457 92.1032 605.633 92.644 556.71C92.6626 555.107 91.3526 555.101 91.3184 556.7C90.257 604.856 90.4637 654.602 94.6549 702.514C95.3666 702.197 96.0892 701.943 96.818 701.743Z" fill="#35797D"/>
<path d="M77.8965 661.698C84.975 673.788 93.0371 685.3 101.977 696.088L94.4574 691.264C92.1327 689.774 88.9889 688.301 86.8289 690.023C85.4971 691.086 85.1754 693.053 85.6323 694.696C86.0876 696.338 87.1754 697.721 88.2819 699.017C94.5942 706.403 102.31 712.383 110.237 718.051C120.787 717.948 131.337 717.811 141.884 717.519C142.14 717.272 142.4 717.022 142.65 716.782C145.884 713.676 171.146 688.9 163.144 685.376C160.131 684.702 156.773 686.103 153.996 687.724C150.154 689.967 146.544 692.607 143.244 695.587C148.796 690.575 152.557 679.853 155.323 673.065C158.405 665.508 161.054 657.6 161.073 649.358C161.074 648.079 161.004 646.767 160.501 645.59C159.673 643.653 157.722 642.33 155.652 641.929C153.582 641.53 151.419 641.962 149.481 642.792C146.027 644.273 143.203 646.972 141.009 650.025C139.331 652.363 138.115 654.989 136.663 657.424C136.86 648.59 137.258 640.015 136.053 631.199C135.244 625.269 132.091 617.886 126.126 618.4C122.945 618.674 120.504 621.278 118.614 623.853C109.245 636.632 105.455 653.357 108.401 668.924C106.981 661.418 100.683 653.799 96.9656 647.313C93.6043 641.452 89.797 636.31 82.1482 636.524C80.6797 636.568 79.1754 636.848 77.9353 637.636C76.4202 638.6 75.4473 640.229 74.7776 641.898C74.4823 642.634 74.2368 643.39 74.041 644.159C73.2547 647.236 73.2717 650.516 74.1109 653.581C74.9003 656.468 76.3829 659.113 77.8965 661.698Z" fill="#74CD8D"/>
<path d="M125.314 653.872C125.373 652.33 122.83 652.314 122.903 653.872C123.886 674.933 122.448 696.677 125.503 717.499C125.536 717.73 125.918 717.735 125.932 717.501C126.984 698.043 124.38 678.015 125.314 653.872Z" fill="#35797D"/>
<path d="M563.212 723.785C558.698 723.785 540.131 723.028 544.583 719.373C545.197 718.87 546.024 718.727 546.812 718.625C549.063 718.335 551.323 718.236 553.584 718.212C554.787 719.143 556.019 720.035 557.222 720.815C559.514 720.75 561.808 720.683 564.1 720.621C567.13 720.542 570.16 720.489 573.189 720.451C573.581 720.447 574.473 719.316 575.464 717.858C576.585 718.109 577.7 718.531 578.818 719.197C579.54 719.628 580.238 720.19 580.535 720.976C581.677 723.989 566.49 723.623 564.03 723.769C563.871 723.779 563.592 723.785 563.212 723.785Z" fill="url(#paint12_linear)"/>
<path d="M584.404 703.143C584.729 702.535 585.049 701.925 585.361 701.312C588.992 694.219 591.904 686.774 594.344 679.198C595.478 675.676 596.205 670.391 591.989 668.536C589.403 667.399 585.893 669.364 583.902 670.896C580.752 673.187 578.204 676.377 576.027 679.57C574.947 681.152 571.91 684.789 571.181 687.343C572.187 674.218 573.386 661.024 573.147 647.855C573.026 641.145 573.065 627.472 564.626 625.331C562.849 624.88 560.94 625.307 559.301 626.128C552.685 629.448 552.355 636.846 551.525 643.431C550.546 651.208 550.516 659.106 551.458 666.886C550.275 662.888 548.258 659.138 545.571 655.948C544.002 654.085 542.16 652.381 539.921 651.421C537.683 650.462 534.993 650.338 532.869 651.531C526.451 655.137 526.12 664.535 527.416 670.748C529.152 679.07 533.781 686.518 538.563 693.414C542.85 699.594 547.184 706.086 552.177 711.723C553.963 713.739 556.137 714.301 558.109 716.102C559.66 717.518 560.894 719.477 562.661 720.66C566.17 720.56 569.68 720.495 573.189 720.451C574.222 720.439 578.718 712.609 579.379 711.607C581.187 708.868 582.858 706.038 584.404 703.143Z" fill="#3F8E90"/>
<path d="M545.259 710.985C547.331 712.942 552.499 717.757 557.222 720.815C560.915 720.709 564.609 720.599 568.305 720.515C572.283 716.95 575.702 712.706 578.603 708.263C580.108 705.962 581.164 703.215 580.779 700.488C580.078 695.524 574.7 693.424 570.777 696.498C569.703 697.339 568.86 698.436 568.027 699.519C567.7 698.826 567.708 698.03 567.716 697.263C567.804 688.139 567.607 678.38 565.989 669.381C565.138 664.649 562.717 654.748 555.854 657.306C553.893 658.035 552.445 659.732 551.374 661.53C548.675 666.054 547.86 671.475 547.901 676.742C547.943 682.009 548.777 687.235 549.138 692.49C548.917 689.238 542.721 683.951 540.459 681.898C538.101 679.76 532.766 677.647 530.586 681.412C529.738 682.876 530.064 684.712 530.495 686.347C532.965 695.735 538.219 704.327 545.259 710.985Z" fill="#6FCC92"/>
<path d="M562.367 720.004C561.689 719.963 561.012 719.924 560.333 719.887C559.7 714.408 559.338 708.865 558.897 703.352C558.184 694.477 556.912 685.269 557.341 676.355C557.357 676.049 557.543 675.872 557.728 675.872C557.873 675.872 558.016 675.982 558.07 676.224C559.728 683.723 560.025 691.744 560.709 699.497C561.309 706.298 562.047 713.149 562.367 720.004Z" fill="#A7DFB8"/>
<path d="M549.088 705.281C548.83 705.281 548.575 705.213 548.356 705.059C546.859 704.009 545.361 702.96 543.867 701.909C543.177 701.426 542.855 700.559 543.309 699.782C543.581 699.319 544.151 699.003 544.704 699.003C544.962 699.003 545.217 699.072 545.435 699.225C546.931 700.276 548.428 701.326 549.926 702.375C550.614 702.858 550.936 703.726 550.482 704.503C550.21 704.967 549.641 705.281 549.088 705.281Z" fill="#A7DFB8"/>
<path d="M568.513 709.848C567.953 709.848 567.366 709.522 567.107 709.063C566.657 708.277 566.984 707.443 567.663 706.938L573.071 702.913C573.282 702.756 573.532 702.688 573.79 702.688C574.35 702.688 574.936 703.014 575.197 703.473C575.644 704.259 575.318 705.092 574.639 705.599C572.836 706.939 571.035 708.28 569.232 709.623C569.021 709.78 568.769 709.848 568.513 709.848Z" fill="#A7DFB8"/>
<path d="M614.184 87.5H669.17V72.0071H614.184V87.5Z" fill="url(#paint13_linear)"/>
<path d="M52.6322 115.041H297.511V59.9592H52.6322V115.041Z" fill="url(#paint14_linear)"/>
<defs>
<linearGradient id="paint0_linear" x1="339.486" y1="-95.3208" x2="331.434" y2="846.744" gradientUnits="userSpaceOnUse">
<stop stop-color="#E0F3DB"/>
<stop offset="0.995531" stop-color="#81CF8D"/>
<stop offset="1" stop-color="#81CF8D"/>
</linearGradient>
<linearGradient id="paint1_linear" x1="579.525" y1="-41.6021" x2="664.452" y2="346.635" gradientUnits="userSpaceOnUse">
<stop stop-color="#E0F3DB"/>
<stop offset="0.995531" stop-color="#81CF8D"/>
<stop offset="1" stop-color="#81CF8D"/>
</linearGradient>
<linearGradient id="paint2_linear" x1="709.483" y1="632.444" x2="737.792" y2="757.812" gradientUnits="userSpaceOnUse">
<stop stop-color="#E0F3DB"/>
<stop offset="0.995531" stop-color="#81CF8D"/>
<stop offset="1" stop-color="#81CF8D"/>
</linearGradient>
<linearGradient id="paint3_linear" x1="740.937" y1="552.085" x2="788.119" y2="689.586" gradientUnits="userSpaceOnUse">
<stop stop-color="#E0F3DB"/>
<stop offset="0.995531" stop-color="#81CF8D"/>
<stop offset="1" stop-color="#81CF8D"/>
</linearGradient>
<linearGradient id="paint4_linear" x1="339.486" y1="-95.3207" x2="331.434" y2="846.743" gradientUnits="userSpaceOnUse">
<stop stop-color="#C7E7CA"/>
<stop offset="0.995531" stop-color="#76BB86"/>
<stop offset="1" stop-color="#76BB86"/>
</linearGradient>
<linearGradient id="paint5_linear" x1="464.865" y1="236.882" x2="511.883" y2="236.882" gradientUnits="userSpaceOnUse">
<stop stop-color="#FF923C"/>
<stop offset="1" stop-color="#FFC340"/>
</linearGradient>
<linearGradient id="paint6_linear" x1="487.688" y1="205.787" x2="506.174" y2="205.787" gradientUnits="userSpaceOnUse">
<stop stop-color="#FF923C"/>
<stop offset="1" stop-color="#FFC340"/>
</linearGradient>
<linearGradient id="paint7_linear" x1="474.96" y1="231.4" x2="491.687" y2="231.4" gradientUnits="userSpaceOnUse">
<stop stop-color="#FF923C"/>
<stop offset="1" stop-color="#FFC340"/>
</linearGradient>
<linearGradient id="paint8_linear" x1="339.485" y1="-95.3203" x2="331.433" y2="846.743" gradientUnits="userSpaceOnUse">
<stop stop-color="#DEF0DF"/>
<stop offset="0.995531" stop-color="#ABD7B1"/>
<stop offset="1" stop-color="#ABD7B1"/>
</linearGradient>
<linearGradient id="paint9_linear" x1="339.489" y1="-95.3226" x2="331.437" y2="846.744" gradientUnits="userSpaceOnUse">
<stop stop-color="#DEF0DF"/>
<stop offset="0.995531" stop-color="#ABD7B1"/>
<stop offset="1" stop-color="#ABD7B1"/>
</linearGradient>
<linearGradient id="paint10_linear" x1="339.486" y1="-95.3207" x2="331.434" y2="846.744" gradientUnits="userSpaceOnUse">
<stop stop-color="#C7E7CA"/>
<stop offset="0.995531" stop-color="#76BB86"/>
<stop offset="1" stop-color="#76BB86"/>
</linearGradient>
<linearGradient id="paint11_linear" x1="339.486" y1="-95.3209" x2="331.434" y2="846.744" gradientUnits="userSpaceOnUse">
<stop stop-color="#C7E7CA"/>
<stop offset="0.995531" stop-color="#76BB86"/>
<stop offset="1" stop-color="#76BB86"/>
</linearGradient>
<linearGradient id="paint12_linear" x1="339.486" y1="-95.3206" x2="331.434" y2="846.743" gradientUnits="userSpaceOnUse">
<stop stop-color="#C7E7CA"/>
<stop offset="0.995531" stop-color="#76BB86"/>
<stop offset="1" stop-color="#76BB86"/>
</linearGradient>
<linearGradient id="paint13_linear" x1="555.002" y1="-94.5853" x2="677.117" y2="463.656" gradientUnits="userSpaceOnUse">
<stop stop-color="#E0F3DB"/>
<stop offset="0.995531" stop-color="#81CF8D"/>
<stop offset="1" stop-color="#81CF8D"/>
</linearGradient>
<linearGradient id="paint14_linear" x1="496.163" y1="-402.328" x2="461.86" y2="2214.52" gradientUnits="userSpaceOnUse">
<stop stop-color="#E0F3DB"/>
<stop offset="0.995531" stop-color="#81CF8D"/>
<stop offset="1" stop-color="#81CF8D"/>
</linearGradient>
</defs>
</svg>
