<svg width="1288" height="1347" viewBox="0 0 1288 1347" fill="none" xmlns="http://www.w3.org/2000/svg">
<path d="M903.821 1346.16H0V84.8138H895.07C900.481 97.1548 902.974 110.505 901.44 124.2C897.56 158.832 870.459 185.439 847.538 211.687C823.59 239.109 803.022 273.902 815.487 311.137C825.938 342.373 854.881 356.717 878.743 376.512C906.341 399.408 932.963 422.317 962.892 443.063C1027.94 488.161 1095.43 531.075 1151.16 587.891C1247.25 685.854 1301.82 826.726 1283.58 964.112C1265.29 1101.89 1158.35 1218.65 1041.1 1286.23C1021.23 1297.68 1000.73 1308.03 979.759 1317.3C954.921 1328.28 929.573 1337.81 903.821 1346.16ZM108.539 1236.86C87.4868 1236.86 66.5561 1238.45 45.981 1242.97C16.9954 1249.32 48.4508 1260.23 60.4335 1261.42C76.1575 1262.99 91.9595 1263.77 107.762 1263.77C138.2 1263.77 168.637 1260.87 198.523 1255.09C201.772 1254.47 205.554 1253.35 206.608 1250.22C209.968 1240.25 188.137 1241.77 183.579 1241.36C158.685 1239.11 133.526 1236.86 108.539 1236.86ZM897.272 1250.72C893.602 1250.76 889.934 1250.92 886.279 1251.4C885 1251.56 883.657 1251.79 882.661 1252.61C875.433 1258.54 905.575 1259.77 912.903 1259.77C913.519 1259.77 913.973 1259.76 914.23 1259.75C918.223 1259.51 942.878 1260.1 941.023 1255.21C940.542 1253.94 939.409 1253.02 938.236 1252.32C936.422 1251.24 934.611 1250.56 932.792 1250.15C935.421 1246.29 938.483 1241.01 939.146 1240C942.083 1235.56 944.795 1230.96 947.305 1226.26C947.832 1225.28 948.352 1224.28 948.859 1223.29C954.752 1211.77 959.479 1199.69 963.44 1187.39C965.281 1181.67 966.462 1173.09 959.618 1170.08C958.745 1169.7 957.809 1169.53 956.843 1169.53C953.157 1169.53 949.051 1171.94 946.49 1173.91C941.377 1177.63 937.239 1182.81 933.705 1188C931.952 1190.56 927.022 1196.47 925.839 1200.61C927.471 1179.31 929.419 1157.89 929.03 1136.51C928.834 1125.62 928.897 1103.42 915.199 1099.95C914.394 1099.74 913.574 1099.65 912.752 1099.65C910.62 1099.65 908.473 1100.28 906.553 1101.24C895.814 1106.63 895.277 1118.64 893.93 1129.33C892.661 1139.41 892.373 1149.61 893.09 1159.75C892.666 1160.52 892.275 1161.3 891.914 1162.1C889.999 1157.6 887.416 1153.39 884.265 1149.65C881.717 1146.62 878.728 1143.86 875.093 1142.3C873.271 1141.52 871.263 1141.08 869.278 1141.08C867.308 1141.08 865.363 1141.51 863.645 1142.48C853.226 1148.33 852.689 1163.59 854.793 1173.67C855.983 1179.39 858.014 1184.84 860.55 1190.09C860.333 1190.36 860.128 1190.66 859.939 1190.99C858.562 1193.36 859.092 1196.34 859.79 1199C863.801 1214.24 872.331 1228.18 883.758 1238.99C886.263 1241.36 891.561 1246.3 897.272 1250.72ZM537.136 1157.32C532.302 1157.32 527.466 1157.5 522.668 1157.7C502.454 1158.55 481.801 1159.71 461.667 1161.52C453.872 1162.22 443.64 1163.24 437.782 1169.14C430.413 1176.56 444.987 1180.37 450.156 1180.84C473.887 1182.98 497.729 1184.39 521.546 1184.39C535.367 1184.39 549.177 1183.92 562.958 1182.84C569.33 1182.33 575.819 1181.68 581.679 1179.13C596.482 1172.68 566.437 1160.79 561.366 1159.64C553.425 1157.83 545.282 1157.32 537.136 1157.32ZM201.966 994.059C201.568 994.127 201.164 994.195 200.766 994.266C197.534 994.821 194.017 995.57 192.072 997.828C184.075 1007.11 232.36 1006.74 238.323 1006.77C242.019 1006.79 245.71 1006.8 249.403 1006.8C253.442 1006.8 257.481 1006.79 261.517 1006.76C296.666 1006.58 331.759 1005.53 366.829 1004.18C372.145 1004.18 377.462 1004.18 382.778 1004.18C449.228 1004.24 515.675 1004.59 582.123 1004.97C588.157 1005 594.184 1005.02 600.216 1005.02C628.051 1005.02 655.839 1004.68 683.621 1004.35C711.375 1004.02 739.125 1003.68 766.928 1003.68C769.226 1003.68 771.526 1003.68 773.827 1003.69C777.008 1003.7 780.187 1003.7 783.37 1003.7C830.038 1003.7 876.707 1002.99 923.342 1001.57C931.803 1001.31 940.256 1001.21 948.707 1001.21C961.228 1001.21 973.743 1001.42 986.258 1001.64C998.775 1001.85 1011.29 1002.06 1023.83 1002.06C1038.87 1002.06 1053.93 1001.75 1069.03 1000.78C1075.12 1000.39 1103.81 994.818 1088.86 985.58C1086.02 983.827 1082.31 983.539 1078.81 983.327C1046.27 981.344 1013.72 980.658 981.157 980.658C944.379 980.658 907.578 981.536 870.784 982.411C833.986 983.287 797.187 984.165 760.391 984.165C735.921 984.165 711.451 983.776 686.989 982.742C674.335 982.207 661.62 982.003 648.871 982.003C609.484 982.003 569.774 983.96 530.607 984.223C519.702 984.296 508.793 984.364 497.888 984.43C505.416 981.786 512.262 977.964 521.273 972.414C523.153 971.256 525.085 970.03 526.296 968.186C528.796 964.372 527.149 958.741 523.352 956.216C521.768 955.161 519.903 954.818 517.916 954.818C516.024 954.818 514.018 955.131 512.038 955.441C510.057 955.754 508.102 956.067 506.306 956.067C502.542 956.067 499.487 954.692 498.397 949.062C497.61 944.982 500.163 941.017 503.027 938.007C515.148 925.265 533.14 920.361 545.66 907.99C557.837 895.949 548.929 890.285 536.417 890.285C535.542 890.285 534.649 890.313 533.743 890.369C528.887 890.666 511.783 894.768 498.622 894.768C489.354 894.768 482.038 892.732 482.343 885.901C482.522 881.885 484.667 878.232 487.05 874.998C494.354 865.114 504.321 857.576 514.142 850.187C519.729 845.982 525.32 841.777 530.907 837.574C538.844 831.6 569.85 822.193 557.855 806.368C554.843 802.397 549.59 801.525 544.416 801.525C543.074 801.525 541.737 801.583 540.446 801.661C521.028 802.847 501.609 804.032 482.189 805.215C491.861 770.251 531.407 751.57 546.192 718.44C548.342 713.627 549.928 708.092 548.097 703.147C545.718 696.73 539.487 694.426 532.441 694.426C526.73 694.426 520.486 695.943 515.332 698.006C510.92 699.772 493.665 710.642 484.75 710.642C481.543 710.642 479.417 709.24 479.346 705.504C479.268 701.263 482.139 697.618 484.709 694.242C487.282 690.867 489.82 686.823 488.953 682.668C487.767 676.987 481.574 675.032 475.368 675.032C473.372 675.032 471.377 675.234 469.545 675.579C466.443 676.165 462.989 676.722 459.717 676.722C455.043 676.722 450.736 675.582 448.35 671.755C446.93 669.474 446.609 666.694 446.445 664.013C445.058 641.354 452.268 618.99 452.593 596.289C452.681 590.224 451.988 583.69 449.798 578.072C455.04 553.835 457.732 529.039 457.782 504.238C457.825 480.866 451.102 451.951 428.368 446.514C426.122 445.977 423.903 445.725 421.723 445.725C402.283 445.725 385.936 465.939 379.972 485.664C371.6 513.355 373.782 543.267 374.813 572.689C367.22 575.807 359.771 578.436 353.386 578.436C347.369 578.436 342.301 576.1 338.964 569.629C335.046 562.041 336.07 552.957 337.198 544.49C341.189 514.42 345.182 484.35 349.173 454.279C351.241 438.694 353.287 422.64 349.324 407.423C345.364 392.208 333.88 377.847 318.348 375.405C316.746 375.155 315.154 375.034 313.575 375.034C297.402 375.034 282.73 387.713 274.241 402.004C257.143 430.778 256.704 466.237 258.777 499.642C259.645 513.585 269.237 614.25 245.707 614.25C245.135 614.25 244.542 614.19 243.929 614.069C241.404 613.567 239.469 611.607 237.647 609.788C232.819 604.957 227.241 600.247 220.478 599.311C219.673 599.2 218.876 599.147 218.089 599.147C206.729 599.147 197.31 610.345 194.666 621.76C191.038 637.421 195.937 653.811 202.62 668.433C209.302 683.054 217.854 696.957 222.173 712.441C223.957 718.841 224.991 725.619 223.664 732.131C222.12 739.688 218.298 745.761 212.993 745.761C210.995 745.761 208.788 744.898 206.411 742.93C197.274 735.367 189.527 727.239 178.084 723.021C173.685 721.402 168.884 720.554 164.121 720.554C154.25 720.554 144.555 724.199 139.018 732.181C127.981 748.099 138.579 769.567 149.114 785.823C159.482 801.822 169.853 817.826 180.221 833.825C179.714 838.787 179.507 843.785 179.568 848.749C179.749 863.805 182.249 878.716 185.551 893.373C186.914 899.435 190.64 904.856 184.298 907.268C183.405 907.609 182.315 907.742 181.096 907.742C178.748 907.742 175.92 907.24 173.082 906.741C170.249 906.239 167.406 905.737 165.027 905.737C164.373 905.737 163.755 905.775 163.183 905.86C155.017 907.081 146.863 911.895 144.046 919.655C139.853 931.183 148.491 943.136 156.926 952.046C169.974 965.827 184.805 983.067 201.966 994.059ZM742.702 793.293L736.325 896.913H762.964L800.59 764C801.156 761.452 801.213 758.926 800.88 756.454L856.458 750.665L923.367 879.4L932.595 874.607L862.772 740.266L797.576 746.626C795.099 741.926 791.62 737.658 788.181 734.128C780.099 725.824 771.945 717.587 763.532 709.618C746.744 693.707 728.86 678.776 708.986 666.848C698.086 660.31 678.747 647.845 664.136 647.845C662.44 647.845 660.811 648.011 659.264 648.375C644.045 651.957 632.377 670.683 631.207 687.217C631.144 688.11 631.111 688.995 631.111 689.87C631.106 693.001 631.51 696.016 632.362 698.788C634.058 704.29 637.246 709.222 640.856 713.707C645.359 719.31 650.495 724.262 656.048 728.753H636.583C631.991 728.753 628.268 732.474 628.268 737.065V738.662C628.268 743.256 631.991 746.977 636.583 746.977H684.093C688.505 749.411 692.962 751.762 697.392 754.09C698.628 754.739 699.864 755.39 701.101 756.035L661.295 759.918L581.777 872.43L591.124 876.991L667.796 770.316L710.957 765.821C693.255 787.68 667.993 821.28 661.855 831.429C666.141 835.359 675.147 844.547 679.436 848.477C699.912 829.4 721.01 810.982 742.702 793.293ZM152.211 200.212V232.399H371.678V200.212H152.211Z" fill="url(#paint0_linear)"/>
<path d="M1194.17 1323.72C1176.25 1330.61 1155.21 1331.43 1138.41 1322.13C1121.61 1312.83 1110.74 1292.07 1116.24 1273.67C1121.72 1255.36 1140.29 1244.56 1157.83 1236.97C1184.64 1225.37 1243.31 1205.25 1256.05 1246.28C1266.98 1281.57 1221.42 1313.24 1194.17 1323.72Z" fill="url(#paint1_linear)"/>
<path d="M1229.21 1159.85C1228.61 1168.38 1232.77 1177.84 1240.82 1180.72C1246.49 1182.75 1252.95 1181.15 1258.02 1177.9C1263.07 1174.64 1266.98 1169.89 1270.64 1165.13C1275.96 1158.24 1281.05 1151.02 1283.95 1142.82C1286.86 1134.62 1287.34 1125.24 1283.58 1117.4C1267.81 1084.68 1230.32 1143.79 1229.21 1159.85Z" fill="url(#paint2_linear)"/>
<path d="M249.403 1006.8C245.71 1006.8 242.019 1006.79 238.324 1006.77C232.36 1006.74 184.076 1007.11 192.072 997.828C194.017 995.57 197.534 994.821 200.766 994.266C201.164 994.195 201.568 994.127 201.967 994.059C204.8 995.875 207.698 997.52 210.662 998.95C216.868 999.402 223.071 999.876 229.272 1000.34C231.336 1000.34 233.399 1000.33 235.463 1000.33C235.468 1000.42 235.473 1000.51 235.478 1000.59C235.586 1002.27 236.959 1003.12 238.271 1003.12C239.58 1003.12 240.831 1002.28 240.725 1000.59C240.718 1000.51 240.712 1000.42 240.707 1000.34C247.498 1000.35 254.29 1000.4 261.083 1000.45C268.202 997.876 274.986 994.271 281.108 989.811C285.339 994.321 290.167 997.083 296.741 997.313C296.746 997.462 296.749 997.603 296.754 997.752C296.799 999.437 298.134 1000.28 299.446 1000.28C300.758 1000.28 302.042 999.44 301.999 997.752C301.991 997.497 301.984 997.257 301.979 997.005C305.939 996.438 310.467 995.113 315.73 992.913C320.79 990.797 325.783 988.458 330.697 985.923C333.777 991.009 337.12 995.545 340.75 999.238C348.865 999.49 356.986 1000.08 365.167 1000.3C370.232 1000.43 375.29 1000.47 380.338 1000.53C386.791 1000.13 393.252 999.853 399.715 999.657C405.643 996.14 411.332 991.97 416.557 987.502C427.447 989.452 438.499 990.249 449.568 990.249C457.86 990.249 466.163 989.8 474.407 989.054C484.071 988.178 491.246 986.763 497.888 984.43C508.794 984.364 519.702 984.296 530.607 984.223C569.774 983.96 609.484 982.003 648.871 982.003C661.621 982.003 674.335 982.207 686.989 982.742C711.451 983.776 735.921 984.165 760.391 984.165C797.187 984.165 833.986 983.287 870.784 982.411C907.578 981.536 944.379 980.658 981.157 980.658C1013.72 980.658 1046.27 981.344 1078.81 983.327C1082.31 983.539 1086.02 983.827 1088.86 985.58C1103.81 994.818 1075.12 1000.39 1069.03 1000.78C1053.93 1001.75 1038.87 1002.06 1023.83 1002.06C1011.29 1002.06 998.775 1001.85 986.258 1001.64C973.743 1001.42 961.228 1001.21 948.708 1001.21C940.256 1001.21 931.803 1001.31 923.342 1001.57C876.708 1002.99 830.038 1003.7 783.37 1003.7C780.187 1003.7 777.008 1003.7 773.827 1003.69C771.526 1003.68 769.226 1003.68 766.928 1003.68C739.125 1003.68 711.376 1004.02 683.621 1004.35C655.839 1004.68 628.051 1005.02 600.216 1005.02C594.184 1005.02 588.157 1005 582.123 1004.97C515.676 1004.59 449.228 1004.24 382.778 1004.18C377.462 1004.18 372.145 1004.18 366.829 1004.18C331.759 1005.53 296.666 1006.58 261.517 1006.76C257.481 1006.79 253.442 1006.8 249.403 1006.8Z" fill="url(#paint3_linear)"/>
<ellipse cx="753.194" cy="697.715" rx="155.882" ry="178.774" transform="rotate(91.7251 753.194 697.715)" fill="#B2E2B6"/>
<ellipse cx="748.365" cy="843.514" rx="214.58" ry="101.808" fill="#A2DBA8"/>
<ellipse cx="905.303" cy="753.15" rx="50.8878" ry="66.2725" transform="rotate(-39.7369 905.303 753.15)" fill="#ACDFB0"/>
<ellipse cx="984.761" cy="303.003" rx="184.675" ry="240.507" transform="rotate(-39.7369 984.761 303.003)" fill="url(#paint4_linear)"/>
<ellipse cx="926.519" cy="814.901" rx="46.9884" ry="17.2291" transform="rotate(13.5704 926.519 814.901)" fill="#A7DDAC"/>
<path d="M996.544 597.539L935.528 557.706C932.203 555.842 918.493 558.97 915.857 561.724C911.982 565.773 912.917 573.415 912.917 573.415L989.651 609.969L996.544 597.539Z" fill="#72452B"/>
<path d="M996.885 597.504L1009.62 598.093C1012 598.202 1014.28 599.09 1016.09 600.641C1018.8 602.973 1019.43 604.984 1021.03 608.689C1021.03 608.689 1026.58 612.721 1029.6 614.198C1031.65 615.197 1032.61 617.579 1031.76 619.693C1029.65 624.931 1023.97 632.11 1009.15 624.713C987.557 613.927 980.879 598.821 980.879 598.821L996.885 597.504Z" fill="#72452B"/>
<path d="M954.618 570.167L965.871 598.64L948.413 591.227L954.618 570.167Z" fill="#141214"/>
<path d="M1095.22 867.569C1095.22 874.518 1089.59 880.152 1082.64 880.152C1075.69 880.152 1070.06 874.518 1070.06 867.569C1070.06 860.622 1075.69 854.988 1082.64 854.988C1089.59 854.988 1095.22 860.622 1095.22 867.569Z" fill="#141214"/>
<path d="M692.321 867.569C692.321 874.518 686.686 880.152 679.737 880.152C672.788 880.152 667.154 874.518 667.154 867.569C667.154 860.622 672.788 854.988 679.737 854.988C686.686 854.988 692.321 860.622 692.321 867.569Z" fill="#141214"/>
<path d="M1080.49 744.422C1146.52 744.422 1200.24 798.143 1200.24 864.172C1200.24 930.205 1146.52 983.927 1080.49 983.927C1014.46 983.927 960.737 930.205 960.737 864.172C960.737 798.143 1014.46 744.422 1080.49 744.422ZM1080.49 992.529C1151.26 992.529 1208.84 934.949 1208.84 864.172C1208.84 793.399 1151.26 735.819 1080.49 735.819C1009.71 735.819 952.135 793.399 952.135 864.172C952.135 934.949 1009.71 992.529 1080.49 992.529Z" fill="#141214"/>
<path d="M1082.64 871.875C1083.18 871.875 1083.72 871.772 1084.25 871.557C1086.45 870.666 1087.52 868.162 1086.63 865.96L993.484 635.479C992.591 633.276 990.085 632.217 987.884 633.105C985.679 633.993 984.615 636.501 985.508 638.704L1078.65 869.183C1079.33 870.857 1080.94 871.875 1082.64 871.875Z" fill="#A685EC"/>
<path d="M868.707 874.629C869.866 874.629 870.988 874.161 871.807 873.312L1023.21 715.835C1024.86 714.121 1024.8 711.397 1023.09 709.753C1021.38 708.107 1018.66 708.158 1017.01 709.871L870.096 862.681L779.391 651.986C778.45 649.804 775.918 648.795 773.739 649.736C771.557 650.675 770.548 653.205 771.485 655.387L864.756 872.03C865.326 873.351 866.52 874.304 867.937 874.562C868.192 874.608 868.452 874.629 868.707 874.629Z" fill="#A685EC"/>
<path d="M868.707 874.629C871.053 874.629 872.973 872.746 873.008 870.393C873.04 868.016 871.143 866.064 868.767 866.029L685.348 863.381L793.433 694.322H1010.88C1013.26 694.322 1015.18 692.395 1015.18 690.019C1015.18 687.644 1013.26 685.72 1010.88 685.72H791.082C789.614 685.72 788.249 686.467 787.456 687.702L673.94 865.255C673.103 866.569 673.036 868.234 673.778 869.609C674.518 870.984 675.941 871.849 677.502 871.872L868.644 874.629H868.707Z" fill="#A685EC"/>
<path d="M679.737 744.422C745.77 744.422 799.492 798.143 799.492 864.172C799.492 930.205 745.77 983.927 679.737 983.927C613.708 983.927 559.987 930.205 559.987 864.172C559.987 798.143 613.708 744.422 679.737 744.422ZM679.737 992.529C750.512 992.529 808.092 934.949 808.092 864.172C808.092 793.399 750.512 735.819 679.737 735.819C608.964 735.819 551.385 793.399 551.385 864.172C551.385 934.949 608.964 992.529 679.737 992.529Z" fill="#141214"/>
<path d="M820.346 643.235C824.603 639.117 821.429 631.873 815.507 631.913C802.325 631.999 772.243 631.424 746.158 625.309C711.602 617.21 723.664 652.755 749.397 656.083C787.205 660.973 808.124 655.058 820.346 643.235Z" fill="#252655"/>
<path d="M976.495 612.83C977.223 611.638 978.477 610.866 979.866 610.753L1038.29 606.173C1048.48 605.543 1057.39 612.675 1058.99 622.782C1059.86 628.34 1058.32 634.025 1054.75 638.375C1051.18 642.725 1045.9 645.345 1040.28 645.57L1024.58 646.187L1024.41 646.191C1022.1 646.189 1020.19 644.366 1020.1 642.041C1020 639.657 1021.86 637.652 1024.24 637.557L1039.94 636.94C1043.1 636.815 1046.06 635.34 1048.07 632.896C1050.08 630.45 1050.95 627.255 1050.45 624.129C1049.56 618.448 1044.53 614.428 1038.81 614.794L986.546 618.965L996.537 643.054L988.473 646.4L976.191 616.774C975.655 615.487 975.769 614.02 976.495 612.83Z" fill="#252655"/>
<path d="M805.465 858.54L770.506 899.179L749.311 879.473L783.259 837.011L805.465 858.54Z" fill="#72452B"/>
<path d="M774.019 893.879L796.019 941.486C797.368 944.713 796.327 948.442 793.505 950.505L729.679 895.636L751.992 874.481L774.019 893.879Z" fill="#FFDA7E"/>
<path d="M722.651 901.533L788.413 958.071L794.317 951.206L728.552 894.667L722.651 901.533Z" fill="#131112"/>
<path d="M747.925 889.733L748.866 890.514C747.899 891.678 747.431 893.079 747.431 894.484C747.433 896.269 748.191 898.034 749.67 899.265C750.834 900.232 752.235 900.7 753.638 900.7C755.426 900.7 757.188 899.94 758.419 898.46C759.388 897.296 759.854 895.896 759.856 894.493C759.854 892.705 759.096 890.943 757.617 889.712C756.45 888.745 755.05 888.277 753.647 888.277C751.859 888.277 750.097 889.035 748.866 890.514L747.925 889.733L746.986 888.949C748.694 886.895 751.166 885.828 753.647 885.828C755.595 885.828 757.566 886.489 759.179 887.832C761.236 889.54 762.305 892.014 762.303 894.493C762.303 896.441 761.644 898.412 760.299 900.025C758.59 902.082 756.116 903.149 753.638 903.146C751.688 903.149 749.719 902.488 748.105 901.145C746.049 899.434 744.982 896.962 744.984 894.484C744.982 892.534 745.643 890.565 746.986 888.951L747.925 889.733Z" fill="#131112"/>
<path d="M783.644 908.642L774.842 908.776C774.167 908.786 773.611 908.248 773.599 907.571C773.59 906.896 774.13 906.339 774.805 906.33L783.607 906.196C784.281 906.186 784.838 906.724 784.847 907.401C784.859 908.076 784.318 908.632 783.644 908.642Z" fill="#131112"/>
<path d="M786.373 914.923L777.518 915.055C776.843 915.064 776.286 914.527 776.277 913.85C776.266 913.175 776.806 912.618 777.481 912.609L786.338 912.477C787.013 912.468 787.569 913.008 787.578 913.683C787.588 914.357 787.05 914.914 786.373 914.923Z" fill="#131112"/>
<path d="M789.125 921.7L779.878 921.84C779.201 921.849 778.647 921.309 778.636 920.634C778.626 919.959 779.166 919.403 779.841 919.393L789.088 919.254C789.763 919.245 790.319 919.783 790.331 920.46C790.34 921.135 789.8 921.691 789.125 921.7Z" fill="#131112"/>
<path d="M875.992 621.764L848.198 721.854L745.163 851.99L808.56 898.593L894.33 775.395C900.266 767.88 905.138 759.579 908.799 750.728L932.925 692.407L875.992 621.764Z" fill="#373852"/>
<path d="M871.756 655.192L901.052 766.073L932.709 704.309L871.756 655.192Z" fill="#141214"/>
<path d="M981.874 902.045L990.761 958.864L961.843 957.737L950.999 900.199L981.874 902.045Z" fill="#72452B"/>
<path d="M989.971 952.555L1037.69 974.311C1040.81 975.881 1042.46 979.387 1041.66 982.793H957.493L960.621 952.203L989.971 952.555Z" fill="#FFDA7E"/>
<path d="M956.007 991.845H1042.73V982.793H956.007V991.845Z" fill="#131112"/>
<path d="M967.482 966.421L968.704 966.402C968.757 969.797 971.53 972.512 974.916 972.512H975.022H975.018C978.412 972.456 981.13 969.683 981.13 966.3L981.127 966.205V966.198C981.074 962.804 978.301 960.086 974.92 960.086L974.823 960.088H974.813C971.421 960.142 968.704 962.913 968.704 966.295V966.404V966.402L967.482 966.421L966.258 966.437V966.295C966.258 961.577 970.044 957.719 974.776 957.642H974.769L974.92 957.64C979.639 957.642 983.495 961.426 983.573 966.159V966.152L983.576 966.3C983.573 971.019 979.792 974.879 975.057 974.958H975.052H974.916C970.197 974.958 966.334 971.174 966.258 966.442V966.437L967.482 966.421Z" fill="#131112"/>
<path d="M1006.89 957.475L1000.31 963.314C999.8 963.761 999.027 963.715 998.58 963.209C998.13 962.704 998.177 961.929 998.682 961.482L1005.27 955.644C1005.77 955.196 1006.55 955.242 1007 955.748C1007.44 956.253 1007.4 957.028 1006.89 957.475Z" fill="#131112"/>
<path d="M1013.06 960.457L1006.43 966.33C1005.92 966.78 1005.15 966.731 1004.7 966.226C1004.25 965.72 1004.3 964.948 1004.81 964.501L1011.43 958.625C1011.94 958.178 1012.71 958.224 1013.16 958.73C1013.61 959.235 1013.56 960.009 1013.06 960.457Z" fill="#131112"/>
<path d="M1019.56 963.8L1012.64 969.938C1012.13 970.386 1011.36 970.339 1010.91 969.834C1010.47 969.328 1010.51 968.556 1011.02 968.106L1017.94 961.971C1018.44 961.524 1019.22 961.57 1019.67 962.075C1020.11 962.581 1020.07 963.353 1019.56 963.8Z" fill="#131112"/>
<path d="M874.151 601.911L948.427 584.841C948.427 600.803 979.757 707.012 991.628 738.479C995.174 747.881 997.606 757.652 998.877 767.62L1014.17 935.701L935.004 936.769L922.824 772.76L884.024 686.513C857.134 637.178 874.151 601.911 874.151 601.911Z" fill="#3F405D"/>
<path d="M926.066 475.857C926.066 475.857 944.792 491.473 948.427 512.916C952.063 534.357 956.151 583.07 956.737 608.395C956.737 608.395 939.176 612.809 919.53 614.219C890.421 616.304 874.151 601.912 874.151 601.912L872.574 517.146C872.574 517.146 864.132 479.261 901.412 466.754L926.066 475.857Z" fill="white"/>
<path d="M841.414 548.624L855.235 567.22L857.092 552.336L841.414 548.624Z" fill="#141214"/>
<path d="M864.943 572.344L879.324 577.236L880.325 574.424L860.331 555.821L864.943 572.344Z" fill="#141214"/>
<path d="M847.122 637.434L870.87 568.548C871.863 564.866 865.486 552.334 862.175 550.449C857.301 547.678 850.118 550.449 850.118 550.449L833.387 633.784L847.122 637.434Z" fill="#72452B"/>
<path d="M847.238 637.758L849.772 650.249C850.248 652.584 849.942 655.009 848.877 657.14C847.28 660.344 845.483 661.443 842.281 663.901C842.281 663.901 839.721 670.264 839.028 673.556C838.557 675.784 836.482 677.303 834.226 676.992C828.631 676.225 820.281 672.464 823.842 656.291C829.034 632.717 842.058 622.555 842.058 622.555L847.238 637.758Z" fill="#72452B"/>
<path d="M841.413 548.624C864.987 557.143 879.597 576.469 879.597 576.469C879.597 576.469 898.406 528.804 909.55 504.692C912.821 497.618 911.379 489.259 905.979 483.636C897.268 474.563 882.838 476.638 875.927 487.151C865.384 503.187 841.413 548.624 841.413 548.624Z" fill="white"/>
<path d="M871.607 571.416L879.173 575.316L901.462 520.927C901.636 520.503 902.121 520.301 902.545 520.475C902.97 520.649 903.174 521.134 903 521.558L880.367 576.784C880.279 577 880.105 577.167 879.885 577.248C879.665 577.329 879.426 577.315 879.217 577.206L870.847 572.891C870.439 572.682 870.279 572.182 870.49 571.773C870.698 571.365 871.199 571.205 871.607 571.416Z" fill="#141214"/>
<path d="M943.876 386.648C943.876 386.648 913.981 380.437 903.487 395.513C892.765 410.913 880.349 457.034 908.831 462.457L924.25 462.613L932.976 468.382L961.266 472.85C961.266 472.85 970.237 461.112 957.011 442.596L959.038 433.585C959.038 433.585 971.628 426.337 969.369 407.952C967.498 392.719 943.876 386.648 943.876 386.648Z" fill="url(#paint5_linear)"/>
<path d="M923.625 432.495L940.579 450.996L926.541 482.648C906.39 480.353 901.924 466.981 901.924 466.981L923.625 432.495Z" fill="#72452B"/>
<path d="M940.791 393.799C940.791 393.799 958.082 397.078 959.589 412.01C961.101 426.942 961.161 455.501 950.108 455.149C939.055 454.794 930.854 451.766 930.854 451.766L917.048 433.418L940.791 393.799Z" fill="#72452B"/>
<path d="M957.333 425.228L963.916 435.083C964.486 435.936 963.876 437.084 962.851 437.088L956.324 437.121L957.333 425.228Z" fill="#72452B"/>
<path d="M950.391 415.857C950.391 415.857 955.453 414.792 955.951 417.074C955.951 417.074 956.248 418.625 951.812 419.46C947.377 420.292 946.139 420.072 945.445 418.665C944.75 417.257 947.977 416.156 950.391 415.857Z" fill="#141214"/>
<path d="M950.743 426.437C950.572 427.659 951.393 428.783 952.575 428.95C953.758 429.119 954.854 428.264 955.026 427.044C955.195 425.822 954.374 424.695 953.194 424.528C952.012 424.359 950.913 425.215 950.743 426.437Z" fill="#141214"/>
<path d="M956.079 440.578C956.035 440.592 955.597 440.731 954.885 440.731C954.006 440.734 952.708 440.513 951.27 439.588C951.013 439.424 950.938 439.083 951.103 438.825C951.268 438.57 951.609 438.496 951.866 438.661C953.118 439.461 954.185 439.628 954.885 439.628C955.168 439.628 955.39 439.6 955.536 439.574L955.696 439.54L955.731 439.53C956.019 439.433 956.332 439.591 956.429 439.88C956.524 440.17 956.366 440.481 956.079 440.578Z" fill="#141214"/>
<path d="M939.289 453.945C939.289 453.945 934.246 452.608 932.709 451.46L935.433 462.759L939.289 453.945Z" fill="#141214"/>
<path d="M953.707 400.319C953.707 400.319 948.255 409.752 930.578 418.579L922.922 422.372L923.037 401.72L935.653 390.05L949.818 394.791L953.707 400.319Z" fill="url(#paint6_linear)"/>
<path d="M923.321 425.563C923.321 425.563 921.851 446.943 929.778 463.466C929.778 463.466 910.148 465.928 901.924 459.751L905.026 429.56L923.321 425.563Z" fill="url(#paint7_linear)"/>
<path d="M913.844 425.98C914.375 430.242 918.264 433.268 922.528 432.734C926.792 432.201 929.815 428.313 929.282 424.051C928.751 419.787 924.863 416.761 920.599 417.294C916.335 417.828 913.309 421.716 913.844 425.98Z" fill="#72452B"/>
<path d="M924.645 426.569L924.561 426.416C924.362 426.059 923.798 425.133 922.998 424.324C922.196 423.508 921.18 422.85 920.095 422.854C919.43 422.857 918.697 423.084 917.858 423.74C917.619 423.928 917.271 423.886 917.083 423.647C916.893 423.408 916.935 423.061 917.176 422.873C918.164 422.091 919.163 421.748 920.095 421.75C921.858 421.762 923.223 422.896 924.155 423.946C925.09 425.008 925.616 426.045 925.628 426.068C925.767 426.339 925.658 426.673 925.387 426.81C925.115 426.949 924.781 426.84 924.645 426.569Z" fill="#141214"/>
<path d="M358.05 833.964C360.278 831.35 359.983 827.481 359.418 824.093C357.314 811.456 353.199 799.161 347.273 787.806C342.677 779.002 336.791 769.529 339.155 759.883C342.584 745.904 361.625 741.639 374.942 747.095C377.674 748.218 380.467 749.646 383.403 749.348C388.55 748.826 391.602 743.455 393.502 738.647C404.183 711.629 403.257 682.229 402.233 653.723C401.403 630.645 394.99 594.013 410.386 574.402C417.437 565.424 430.971 560.82 440.749 566.708C450.29 572.452 452.752 585.154 452.593 596.289C452.268 618.99 445.058 641.354 446.445 664.013C446.609 666.695 446.93 669.475 448.35 671.755C452.406 678.264 462.01 677 469.545 675.579C477.078 674.162 487.386 675.163 488.953 682.668C489.82 686.823 487.282 690.867 484.709 694.242C482.139 697.618 479.268 701.263 479.346 705.504C479.608 719.631 509.333 700.408 515.332 698.006C526.841 693.397 543.788 691.525 548.097 703.147C549.928 708.092 548.342 713.627 546.192 718.44C531.407 751.57 491.861 770.251 482.189 805.215C501.609 804.032 521.028 802.847 540.446 801.661C546.712 801.28 554.063 801.366 557.855 806.368C569.85 822.193 538.844 831.6 530.907 837.574C525.32 841.777 519.729 845.982 514.142 850.187C504.321 857.576 494.354 865.114 487.05 874.998C484.666 878.232 482.522 881.885 482.343 885.901C481.606 902.43 525.468 890.876 533.743 890.369C547.577 889.524 558.69 895.106 545.66 907.99C533.14 920.361 515.148 925.265 503.027 938.007C500.163 941.017 497.61 944.982 498.397 949.062C500.007 957.379 505.905 956.41 512.038 955.441C516.099 954.801 520.262 954.16 523.352 956.216C527.149 958.741 528.796 964.372 526.296 968.186C525.085 970.03 523.153 971.256 521.273 972.414C504.308 982.861 495.022 987.187 474.407 989.054C451.902 991.092 428.981 990.905 406.932 985.459C380.717 978.983 356.37 965.098 337.445 945.833C334.337 942.669 331.272 939.185 330.129 934.897C328.986 930.606 330.379 925.331 334.347 923.345C338.865 921.085 344.963 923.673 349.049 920.707C349.751 920.194 326.009 891.395 323.941 888.779C318.767 882.233 313.558 875.187 312.364 866.925C309.938 850.109 327.319 834.622 344.243 836.093C349.09 836.514 354.894 837.662 358.05 833.964Z" fill="#376E5C"/>
<path d="M149.114 785.823C138.579 769.567 127.981 748.099 139.018 732.181C147.227 720.35 164.57 718.044 178.084 723.021C189.527 727.239 197.274 735.367 206.412 742.93C215.095 750.122 221.54 742.534 223.664 732.131C224.991 725.62 223.957 718.841 222.173 712.441C217.854 696.957 209.302 683.054 202.62 668.433C195.937 653.811 191.038 637.421 194.666 621.76C197.494 609.553 208.066 597.593 220.478 599.311C227.241 600.247 232.819 604.957 237.647 609.788C239.469 611.607 241.404 613.567 243.929 614.069C269.706 619.205 259.666 513.923 258.778 499.642C256.704 466.237 257.143 430.778 274.242 402.004C283.558 386.32 300.324 372.574 318.348 375.405C333.88 377.847 345.364 392.208 349.324 407.423C353.287 422.64 351.242 438.694 349.173 454.279C345.182 484.35 341.189 514.42 337.198 544.49C336.07 552.957 335.046 562.041 338.964 569.629C346.645 584.521 363.489 577.52 379.988 570.52C399.609 562.195 418.741 553.87 421.395 582.359C422.18 590.812 419.664 599.21 416.715 607.172C409.695 626.145 400.096 644.056 392.525 662.817C385.757 679.603 376.539 703.972 381.067 722.401C384.675 737.095 402.195 740.602 415.164 739.85C428.199 739.096 443.171 737.211 452.555 746.288C461.589 755.024 459.932 768.594 456.054 779.333C451.309 792.471 441.945 799.093 431.763 808.366C407.949 830.054 384.743 852.41 362.188 875.404C356.58 881.116 350.732 887.417 349.551 895.336C347.311 910.371 357.43 910.056 367.485 909.74C371.943 909.599 376.388 909.46 379.74 910.659C389.503 914.148 397.606 924.622 394.692 934.571C393.222 939.594 389.344 943.499 385.502 947.051C365.2 965.822 341.315 982.215 315.73 992.913C282.198 1006.93 278.487 985.464 260.897 958.32C223.634 900.823 186.376 843.321 149.114 785.823Z" fill="#55B08C"/>
<path d="M463.097 776.235C466.702 760.206 465.015 743.029 458.355 728.006C449.003 706.909 430.103 689.517 427.666 666.568C426.019 651.072 432.311 635.996 437.517 621.309C450.82 583.804 457.702 544.034 457.782 504.239C457.825 480.866 451.102 451.951 428.368 446.514C406.08 441.184 386.605 463.729 379.972 485.664C363.103 541.453 389.077 606.246 362.165 657.943C352.165 677.154 335.462 692.85 328.855 713.475C318.512 745.773 335.326 782.246 324.395 814.345C317.712 833.966 301.257 849.721 297.564 870.114C295.155 883.426 298.54 897.061 302.506 909.995C309.178 931.753 320.505 978.65 340.75 999.238C348.865 999.49 356.986 1000.08 365.167 1000.3C370.232 1000.43 375.29 1000.47 380.338 1000.53C386.791 1000.13 393.252 999.853 399.715 999.657C417.063 989.367 432.366 973.481 439.934 960.838C458.065 930.55 461.001 892.962 454.389 858.288C452.189 846.746 448.978 835.185 449.745 823.462C450.817 807.09 459.498 792.241 463.097 776.235Z" fill="#3F8E90"/>
<path d="M299.446 1000.28C298.134 1000.28 296.799 999.437 296.754 997.752C296.749 997.603 296.746 997.462 296.741 997.313C297.039 997.326 297.339 997.331 297.642 997.331C299.009 997.331 300.452 997.225 301.978 997.005C301.983 997.257 301.991 997.497 301.998 997.752C302.041 999.44 300.757 1000.28 299.446 1000.28Z" fill="url(#paint8_linear)"/>
<path d="M297.642 997.331C297.339 997.331 297.039 997.326 296.741 997.313C296.547 989.995 296.358 982.669 296.176 975.348C298.023 972.997 299.718 970.535 301.239 967.974C301.474 977.646 301.721 987.333 301.978 997.005C300.452 997.225 299.009 997.331 297.642 997.331ZM300.78 948.295C299.244 946.826 297.407 945.628 295.46 944.793C292.014 789.61 291.633 634.384 294.317 479.183C294.345 477.495 295.672 476.65 296.981 476.65C298.293 476.65 299.589 477.495 299.562 479.183C297.344 607.333 297.218 735.498 299.181 863.651C298.51 865.757 297.962 867.909 297.564 870.114C295.737 880.205 297.241 890.482 299.801 900.497C300.096 916.428 300.422 932.364 300.78 948.295Z" fill="#94D2B4"/>
<path d="M299.801 900.497C297.241 890.482 295.737 880.205 297.564 870.114C297.962 867.909 298.51 865.757 299.181 863.651C299.367 875.929 299.577 888.219 299.801 900.497Z" fill="#81BDB8"/>
<path d="M294.501 944.417C288.734 942.346 282.407 942.788 276.297 943.262C281.209 940.008 286.269 936.597 289.38 931.594C292.488 926.592 293.078 919.511 289.138 915.131C283.22 908.552 272.475 911.963 264.514 915.828C272.087 898.812 278.55 881.302 283.843 863.444C286.751 853.646 288.767 841.577 281.441 834.448C274.627 827.816 259.552 829.166 253.871 836.784C255.531 823.596 258.2 810.495 254.963 797.279C251.774 784.257 241.706 771.936 228.379 770.473C214.605 768.959 202.11 779.174 194.552 790.791C183.505 807.758 179.323 828.502 179.567 848.749C179.749 863.805 182.249 878.716 185.551 893.373C186.913 899.435 190.639 904.856 184.297 907.268C181.676 908.265 177.39 907.503 173.082 906.741C169.472 906.1 165.846 905.462 163.182 905.86C155.016 907.081 146.863 911.895 144.045 919.654C139.853 931.183 148.49 943.136 156.926 952.046C172.128 968.105 189.751 988.854 210.662 998.95C216.868 999.402 223.071 999.876 229.272 1000.34C239.875 1000.31 250.478 1000.37 261.083 1000.45C278.27 994.235 293.484 982.018 302.233 966.244C303.671 963.658 304.98 960.885 305.099 957.929C305.346 951.809 300.268 946.488 294.501 944.417Z" fill="#6FCC92"/>
<path d="M404.412 559.937C391.216 706.732 378.017 853.532 364.824 1000.33C364.521 1003.69 369.766 1003.64 370.066 1000.3C383.264 853.502 396.461 706.704 409.654 559.907C409.959 556.549 404.712 556.599 404.412 559.937Z" fill="#35797D"/>
<path d="M238.27 1003.12C236.959 1003.12 235.586 1002.27 235.478 1000.59C235.473 1000.51 235.468 1000.42 235.463 1000.33C235.513 1000.33 235.564 1000.33 235.612 1000.33C237.309 1000.33 239.01 1000.34 240.707 1000.34C240.712 1000.42 240.717 1000.51 240.725 1000.59C240.831 1002.28 239.58 1003.12 238.27 1003.12Z" fill="url(#paint9_linear)"/>
<path d="M240.708 1000.34C239.01 1000.34 237.31 1000.33 235.612 1000.33C235.564 1000.33 235.513 1000.33 235.463 1000.33C231.258 934.821 227.05 869.302 222.844 803.788C222.736 802.102 223.99 801.265 225.296 801.265C226.611 801.265 227.981 802.11 228.089 803.788C232.294 869.304 236.5 934.821 240.708 1000.34Z" fill="#A7DFB8"/>
<path d="M213.644 867.329C213.076 867.329 212.489 867.127 211.956 866.65C208.286 863.343 204.615 860.041 200.945 856.736C199.043 855.026 200.821 852.468 202.847 852.468C203.414 852.468 204.002 852.67 204.535 853.146C208.208 856.451 211.878 859.753 215.549 863.058C217.451 864.771 215.67 867.329 213.644 867.329Z" fill="#A7DFB8"/>
<path d="M254.617 870.578C252.778 870.578 251.005 868.772 252.362 866.915C255.314 862.889 258.265 858.86 261.217 854.831C261.784 854.057 262.572 853.734 263.346 853.734C265.185 853.734 266.958 855.54 265.599 857.395C262.65 861.423 259.698 865.449 256.747 869.481C256.179 870.255 255.392 870.578 254.617 870.578Z" fill="#A7DFB8"/>
<path d="M255.796 946.844C253.982 946.844 252.292 944.301 253.861 942.397C256.504 939.18 259.575 936.42 262.988 934.039C263.444 933.721 263.896 933.582 264.317 933.582C266.386 933.582 267.758 936.882 265.548 938.423C262.498 940.555 259.812 943.113 257.448 945.986C256.951 946.592 256.366 946.844 255.796 946.844Z" fill="#A7DFB8"/>
<path d="M345.805 905.475C341.105 901.516 337.458 896.786 334.826 891.234C333.384 888.184 328.86 890.843 330.298 893.88C333.098 899.788 337.097 904.973 342.097 909.18C344.665 911.342 348.391 907.649 345.805 905.475Z" fill="#35797D"/>
<path d="M361.022 759.29C357.987 754.365 354.95 749.441 351.913 744.517C350.147 741.649 345.608 744.28 347.384 747.163C350.422 752.088 353.459 757.012 356.496 761.939C358.262 764.807 362.8 762.176 361.022 759.29Z" fill="#35797D"/>
<path d="M426.937 743.364C424.16 747.426 420.911 751.066 417.245 754.34C414.725 756.598 418.446 760.296 420.956 758.051C424.952 754.476 428.441 750.435 431.465 746.013C433.373 743.218 428.832 740.592 426.937 743.364Z" fill="#35797D"/>
<path d="M414.834 894.077C410.759 899.092 406.231 903.666 401.254 907.79C398.656 909.947 402.384 913.638 404.962 911.499C409.94 907.374 414.468 902.8 418.542 897.785C420.651 895.187 416.963 891.456 414.834 894.077Z" fill="#35797D"/>
<path d="M379.188 677.999C377.293 675.345 375.396 672.691 373.502 670.037C371.559 667.315 367.008 669.931 368.973 672.686C370.868 675.337 372.765 677.991 374.66 680.645C376.607 683.369 381.158 680.751 379.188 677.999Z" fill="#35797D"/>
<path d="M432.5 579.099C429.846 581.942 427.195 584.783 424.541 587.626C422.24 590.091 425.941 593.809 428.249 591.334C430.9 588.491 433.554 585.648 436.208 582.805C438.509 580.34 434.808 576.624 432.5 579.099Z" fill="#35797D"/>
<path d="M408.396 509.307C408.101 517.457 407.808 525.611 407.515 533.764C407.392 537.139 412.636 537.134 412.757 533.764C413.053 525.611 413.345 517.457 413.64 509.307C413.761 505.931 408.517 505.936 408.396 509.307Z" fill="#35797D"/>
<path d="M354.561 841.317C350.528 835.669 346.496 830.018 342.468 824.368C340.523 821.646 335.972 824.262 337.939 827.016C341.968 832.665 345.999 838.313 350.033 843.966C351.976 846.688 356.524 844.075 354.561 841.317Z" fill="#35797D"/>
<path d="M410.472 828.865C406.489 832.844 402.505 836.819 398.517 840.795C396.125 843.182 399.834 846.89 402.225 844.504L414.178 832.574C416.572 830.187 412.863 826.476 410.472 828.865Z" fill="#35797D"/>
<path d="M521.545 1184.39C497.729 1184.39 473.887 1182.98 450.156 1180.84C444.987 1180.37 430.413 1176.56 437.782 1169.14C443.64 1163.24 453.872 1162.22 461.667 1161.52C481.801 1159.71 502.454 1158.55 522.668 1157.7C527.466 1157.5 532.302 1157.32 537.136 1157.32C545.282 1157.32 553.425 1157.83 561.366 1159.64C566.437 1160.79 596.482 1172.68 581.679 1179.13C575.819 1181.68 569.33 1182.34 562.958 1182.84C549.177 1183.92 535.367 1184.39 521.545 1184.39Z" fill="url(#paint10_linear)"/>
<path d="M472.944 1114.3C463.156 1110.35 452.828 1107.72 442.338 1106.52C436.589 1105.85 429.644 1106.17 426.569 1111.08C423.254 1116.35 426.703 1123.21 430.55 1128.11C444.445 1145.83 463.809 1158.17 483.191 1169.78C498.347 1169.8 513.506 1169.66 528.665 1169.48C553.788 1150.42 558.223 1102.44 559.126 1073.28C559.338 1066.52 559.187 1059.5 556.356 1053.36C553.523 1047.21 547.36 1042.13 540.607 1042.56C535.567 1042.88 531.177 1046.1 527.6 1049.67C521.566 1055.69 516.914 1063.1 514.114 1071.15C519.109 1032.82 508.345 992.674 484.838 961.985C482.275 958.638 479.258 955.199 475.141 954.284C467.936 952.682 461.579 959.531 458.784 966.362C453.486 979.326 454.722 993.96 456.889 1007.79C459.467 1024.26 463.244 1040.54 468.181 1056.46C460.572 1044.48 445.928 1037.37 431.811 1038.78C428.983 1039.07 425.923 1039.83 424.246 1042.12C421.41 1046 424.142 1051.37 426.892 1055.3C441.183 1075.77 456.561 1095.47 472.944 1114.3Z" fill="#55B08C"/>
<path d="M597.552 1091.27C595.274 1088.83 590.917 1088.04 587.125 1088.59C583.331 1089.14 579.969 1090.8 576.772 1092.49C579.794 1087.66 582.607 1082.74 585.203 1077.75C587.065 1074.18 588.838 1070.48 588.879 1066.61C588.924 1062.72 585.907 1058.12 580.932 1058.2C578.992 1058.24 577.201 1058.99 575.574 1059.82C568.909 1063.19 563.511 1068.08 560.206 1073.74C562.512 1064.74 563.775 1055.66 563.42 1046.54C563.165 1040.11 563.374 1032.46 560.637 1026.32C558.705 1021.98 555.41 1017.91 551.238 1014.8C543.581 1009.09 532.991 1006.6 522.504 1011.59C514.881 1015.21 509.808 1021.39 506.16 1027.76C494.114 1048.83 495.34 1073.27 502.401 1095.69C498.551 1091.57 492.906 1086.93 486.672 1088.42C482.436 1089.43 480.075 1092.94 478.763 1096.25C472.399 1112.33 478.398 1134.91 488.337 1149.52C493.531 1157.15 500.746 1163.83 508.899 1169.68C525.259 1169.54 541.616 1169.31 557.976 1169.18C562.729 1165.41 566.947 1161 570.382 1156.56C577.592 1147.25 585.41 1139.08 590.498 1128.76C595.15 1119.33 598.132 1109.39 599.26 1099.33C599.57 1096.55 599.653 1093.52 597.552 1091.27Z" fill="#3F8E90"/>
<path d="M536.558 1053.37C535.032 1089.94 532.297 1126.89 532.63 1163.53C532.671 1168.05 537.799 1167.9 537.635 1163.53C536.215 1125.94 539.326 1089.96 539.833 1053.37C539.873 1050.44 536.679 1050.48 536.558 1053.37Z" fill="#35797D"/>
<path d="M107.762 1263.77C91.9595 1263.77 76.1574 1262.99 60.4335 1261.42C48.4507 1260.23 16.9953 1249.32 45.981 1242.97C66.5561 1238.45 87.4868 1236.86 108.539 1236.86C133.526 1236.86 158.685 1239.11 183.579 1241.36C188.137 1241.77 209.968 1240.25 206.608 1250.22C205.554 1253.35 201.772 1254.47 198.523 1255.09C168.637 1260.87 138.2 1263.77 107.762 1263.77Z" fill="url(#paint11_linear)"/>
<path d="M74.1318 1197.72C87.1035 1209.08 100.075 1220.43 113.047 1231.79C122.514 1240.08 128.748 1246.64 137.782 1250.07C138.697 1250.42 139.77 1250.61 140.748 1250.89C149.992 1250.75 159.237 1250.64 168.48 1250.55C199.573 1222.4 223.404 1172.44 236.464 1137.26C242.456 1121.11 247.221 1103.65 243.666 1086.8C243.061 1083.93 242.075 1080.89 239.706 1079.15C237.564 1077.58 234.719 1077.39 232.062 1077.5C224.101 1077.81 214.184 1080.33 207.224 1084.38C205.115 1085.61 203.351 1087.37 201.644 1089.19C202.451 1087.15 203.253 1085.16 204.063 1083.23C209.739 1069.79 219.878 1053.41 216.27 1038.55C214.789 1032.44 207.963 1030.65 202.87 1033.1C194.03 1037.35 186.076 1046.9 180.148 1057.13C184.126 1038.08 189.204 1019.21 191.015 999.838C193.026 978.312 190.536 955.499 178.69 937.414C173.003 928.731 163.944 927.182 154.431 929.778C133.004 935.626 118.859 956.173 110.829 976.882C98.178 1009.5 96.8865 1044.61 104.762 1078.49C102.573 1069.07 90.2493 1054.27 83.1505 1047.92C74.76 1040.42 60.875 1033.48 49.5028 1037.03C38.9604 1040.32 32.8 1051.67 31.4504 1062.63C30.8475 1067.51 30.9787 1072.48 31.8364 1077.32C34.8662 1094.42 46.5084 1110.08 54.7021 1125.09C64.4876 1143.01 74.2705 1160.93 84.0535 1178.85C79.5404 1174.19 74.1595 1170.38 68.2741 1167.66C66.5814 1166.88 64.7525 1166.17 62.9008 1166.4C56.6547 1167.17 56.4377 1176.49 59.6062 1181.93C63.2212 1188.14 68.7257 1192.99 74.1318 1197.72Z" fill="#3F8E90"/>
<path d="M155.781 1223.99C151.916 1145.6 148.127 1067.97 149.005 988.549C149.036 985.948 146.909 985.938 146.853 988.534C145.13 1066.71 145.466 1147.46 152.27 1225.24C153.425 1224.73 154.598 1224.31 155.781 1223.99Z" fill="#35797D"/>
<path d="M125.065 1158.98C136.556 1178.61 149.643 1197.3 164.156 1214.81L151.949 1206.98C148.175 1204.56 143.072 1202.17 139.565 1204.96C137.403 1206.69 136.881 1209.88 137.623 1212.55C138.362 1215.22 140.128 1217.46 141.924 1219.56C152.171 1231.55 164.696 1241.26 177.565 1250.46C194.691 1250.3 211.818 1250.07 228.939 1249.6C229.355 1249.2 229.777 1248.79 230.183 1248.4C235.432 1243.36 276.441 1203.14 263.452 1197.42C258.56 1196.33 253.109 1198.6 248.601 1201.23C242.365 1204.87 236.505 1209.16 231.146 1214C240.16 1205.86 246.265 1188.45 250.755 1177.44C255.758 1165.17 260.059 1152.33 260.089 1138.95C260.092 1136.87 259.978 1134.74 259.161 1132.83C257.816 1129.69 254.65 1127.54 251.29 1126.89C247.93 1126.24 244.418 1126.94 241.272 1128.29C235.665 1130.69 231.081 1135.08 227.519 1140.03C224.794 1143.83 222.821 1148.09 220.463 1152.04C220.783 1137.7 221.429 1123.78 219.474 1109.47C218.16 1099.84 213.041 1087.86 203.359 1088.69C198.195 1089.14 194.232 1093.37 191.164 1097.55C175.955 1118.29 169.802 1145.44 174.585 1170.71C172.279 1158.53 162.055 1146.16 156.021 1135.63C150.564 1126.12 144.384 1117.77 131.967 1118.12C129.583 1118.19 127.141 1118.64 125.128 1119.92C122.668 1121.49 121.089 1124.13 120.002 1126.84C119.522 1128.03 119.124 1129.26 118.806 1130.51C117.53 1135.51 117.557 1140.83 118.92 1145.81C120.201 1150.49 122.608 1154.79 125.065 1158.98Z" fill="#74CD8D"/>
<path d="M202.04 1146.28C202.136 1143.78 198.008 1143.75 198.127 1146.28C199.721 1180.47 197.388 1215.77 202.347 1249.57C202.4 1249.94 203.021 1249.95 203.044 1249.57C204.752 1217.98 200.524 1185.47 202.04 1146.28Z" fill="#35797D"/>
<path d="M912.903 1259.77C905.575 1259.77 875.433 1258.54 882.661 1252.61C883.657 1251.79 885 1251.56 886.279 1251.4C889.934 1250.92 893.602 1250.76 897.273 1250.72C899.225 1252.24 901.225 1253.68 903.178 1254.95C906.899 1254.84 910.623 1254.74 914.344 1254.63C919.263 1254.51 924.182 1254.42 929.099 1254.36C929.734 1254.35 931.183 1252.52 932.792 1250.15C934.611 1250.56 936.422 1251.24 938.236 1252.32C939.409 1253.02 940.542 1253.94 941.024 1255.21C942.878 1260.1 918.223 1259.51 914.23 1259.75C913.973 1259.76 913.519 1259.77 912.903 1259.77Z" fill="url(#paint12_linear)"/>
<path d="M947.305 1226.26C947.832 1225.28 948.352 1224.28 948.859 1223.29C954.752 1211.77 959.479 1199.69 963.44 1187.39C965.281 1181.67 966.462 1173.09 959.618 1170.08C955.42 1168.24 949.722 1171.43 946.49 1173.91C941.377 1177.63 937.239 1182.81 933.705 1188C931.952 1190.56 927.022 1196.47 925.839 1200.61C927.471 1179.31 929.419 1157.89 929.031 1136.51C928.834 1125.62 928.897 1103.42 915.199 1099.95C912.313 1099.21 909.215 1099.91 906.553 1101.24C895.814 1106.63 895.277 1118.64 893.93 1129.33C892.341 1141.95 892.293 1154.77 893.821 1167.4C891.902 1160.91 888.627 1154.83 884.265 1149.65C881.718 1146.62 878.728 1143.86 875.093 1142.3C871.46 1140.74 867.093 1140.54 863.645 1142.48C853.226 1148.33 852.689 1163.59 854.793 1173.67C857.611 1187.18 865.126 1199.27 872.888 1210.47C879.848 1220.5 886.884 1231.04 894.989 1240.19C897.888 1243.46 901.417 1244.38 904.618 1247.3C907.136 1249.6 909.139 1252.78 912.007 1254.7C917.704 1254.54 923.402 1254.43 929.099 1254.36C930.776 1254.34 938.074 1241.63 939.146 1240C942.083 1235.56 944.795 1230.96 947.305 1226.26Z" fill="#3F8E90"/>
<path d="M883.758 1238.99C887.121 1242.17 895.511 1249.99 903.178 1254.95C909.174 1254.78 915.171 1254.6 921.17 1254.46C927.628 1248.68 933.178 1241.79 937.888 1234.57C940.33 1230.84 942.045 1226.38 941.42 1221.95C940.282 1213.89 931.551 1210.49 925.183 1215.47C923.44 1216.84 922.07 1218.62 920.718 1220.38C920.189 1219.25 920.201 1217.96 920.214 1216.72C920.358 1201.91 920.037 1186.06 917.411 1171.45C916.029 1163.77 912.098 1147.7 900.958 1151.85C897.774 1153.04 895.423 1155.79 893.685 1158.71C889.303 1166.05 887.981 1174.85 888.047 1183.4C888.115 1191.95 889.47 1200.44 890.055 1208.97C889.697 1203.69 879.639 1195.11 875.966 1191.77C872.139 1188.3 863.479 1184.87 859.939 1190.99C858.562 1193.36 859.092 1196.34 859.79 1199C863.801 1214.24 872.331 1228.18 883.758 1238.99Z" fill="#6FCC92"/>
<path d="M911.531 1253.63C910.431 1253.57 909.331 1253.5 908.229 1253.44C907.202 1244.55 906.614 1235.55 905.898 1226.6C904.74 1212.19 902.676 1197.25 903.372 1182.78C903.398 1182.28 903.7 1181.99 904.001 1181.99C904.235 1181.99 904.467 1182.17 904.555 1182.56C907.247 1194.74 907.729 1207.76 908.839 1220.34C909.813 1231.38 911.011 1242.51 911.531 1253.63Z" fill="#A7DFB8"/>
<path d="M889.974 1229.73C889.555 1229.73 889.142 1229.62 888.786 1229.37C886.357 1227.67 883.925 1225.96 881.498 1224.26C880.378 1223.47 879.856 1222.07 880.592 1220.81C881.034 1220.05 881.96 1219.54 882.858 1219.54C883.276 1219.54 883.69 1219.65 884.043 1219.9C886.473 1221.61 888.902 1223.31 891.334 1225.02C892.452 1225.8 892.974 1227.21 892.237 1228.47C891.795 1229.22 890.872 1229.73 889.974 1229.73Z" fill="#A7DFB8"/>
<path d="M921.508 1237.15C920.6 1237.15 919.646 1236.62 919.225 1235.87C918.496 1234.6 919.026 1233.24 920.128 1232.42L928.907 1225.89C929.25 1225.63 929.656 1225.52 930.075 1225.52C930.983 1225.52 931.934 1226.05 932.358 1226.8C933.084 1228.07 932.555 1229.43 931.452 1230.25C928.526 1232.43 925.602 1234.6 922.676 1236.78C922.333 1237.04 921.924 1237.15 921.508 1237.15Z" fill="#A7DFB8"/>
<path d="M152.211 232.398H371.679V200.212H152.211V232.398Z" fill="url(#paint13_linear)"/>
<defs>
<linearGradient id="paint0_linear" x1="549.716" y1="-69.9254" x2="536.645" y2="1459.38" gradientUnits="userSpaceOnUse">
<stop stop-color="#E0F3DB"/>
<stop offset="0.995531" stop-color="#81CF8D"/>
<stop offset="1" stop-color="#81CF8D"/>
</linearGradient>
<linearGradient id="paint1_linear" x1="1150.35" y1="1111.49" x2="1196.31" y2="1315.01" gradientUnits="userSpaceOnUse">
<stop stop-color="#E0F3DB"/>
<stop offset="0.995531" stop-color="#81CF8D"/>
<stop offset="1" stop-color="#81CF8D"/>
</linearGradient>
<linearGradient id="paint2_linear" x1="1201.41" y1="981.042" x2="1278.01" y2="1204.25" gradientUnits="userSpaceOnUse">
<stop stop-color="#E0F3DB"/>
<stop offset="0.995531" stop-color="#81CF8D"/>
<stop offset="1" stop-color="#81CF8D"/>
</linearGradient>
<linearGradient id="paint3_linear" x1="549.717" y1="-69.9254" x2="536.646" y2="1459.38" gradientUnits="userSpaceOnUse">
<stop stop-color="#C7E7CA"/>
<stop offset="0.995531" stop-color="#76BB86"/>
<stop offset="1" stop-color="#76BB86"/>
</linearGradient>
<linearGradient id="paint4_linear" x1="984.761" y1="62.4961" x2="750.886" y2="402.471" gradientUnits="userSpaceOnUse">
<stop stop-color="#D2EECF"/>
<stop offset="1" stop-color="#BAE5BC"/>
</linearGradient>
<linearGradient id="paint5_linear" x1="882.329" y1="472.85" x2="958.656" y2="472.85" gradientUnits="userSpaceOnUse">
<stop stop-color="#FF923C"/>
<stop offset="1" stop-color="#FFC340"/>
</linearGradient>
<linearGradient id="paint6_linear" x1="919.378" y1="422.372" x2="949.388" y2="422.372" gradientUnits="userSpaceOnUse">
<stop stop-color="#FF923C"/>
<stop offset="1" stop-color="#FFC340"/>
</linearGradient>
<linearGradient id="paint7_linear" x1="898.718" y1="463.951" x2="925.87" y2="463.951" gradientUnits="userSpaceOnUse">
<stop stop-color="#FF923C"/>
<stop offset="1" stop-color="#FFC340"/>
</linearGradient>
<linearGradient id="paint8_linear" x1="549.715" y1="-69.9471" x2="536.643" y2="1459.39" gradientUnits="userSpaceOnUse">
<stop stop-color="#DEF0DF"/>
<stop offset="0.995531" stop-color="#ABD7B1"/>
<stop offset="1" stop-color="#ABD7B1"/>
</linearGradient>
<linearGradient id="paint9_linear" x1="549.722" y1="-69.9279" x2="536.651" y2="1459.38" gradientUnits="userSpaceOnUse">
<stop stop-color="#DEF0DF"/>
<stop offset="0.995531" stop-color="#ABD7B1"/>
<stop offset="1" stop-color="#ABD7B1"/>
</linearGradient>
<linearGradient id="paint10_linear" x1="549.716" y1="-69.9254" x2="536.645" y2="1459.38" gradientUnits="userSpaceOnUse">
<stop stop-color="#C7E7CA"/>
<stop offset="0.995531" stop-color="#76BB86"/>
<stop offset="1" stop-color="#76BB86"/>
</linearGradient>
<linearGradient id="paint11_linear" x1="549.716" y1="-69.9221" x2="536.646" y2="1459.38" gradientUnits="userSpaceOnUse">
<stop stop-color="#C7E7CA"/>
<stop offset="0.995531" stop-color="#76BB86"/>
<stop offset="1" stop-color="#76BB86"/>
</linearGradient>
<linearGradient id="paint12_linear" x1="549.715" y1="-69.931" x2="536.644" y2="1459.38" gradientUnits="userSpaceOnUse">
<stop stop-color="#C7E7CA"/>
<stop offset="0.995531" stop-color="#76BB86"/>
<stop offset="1" stop-color="#76BB86"/>
</linearGradient>
<linearGradient id="paint13_linear" x1="549.717" y1="-69.9251" x2="536.646" y2="1459.37" gradientUnits="userSpaceOnUse">
<stop stop-color="#E0F3DB"/>
<stop offset="0.995531" stop-color="#81CF8D"/>
<stop offset="1" stop-color="#81CF8D"/>
</linearGradient>
</defs>
</svg>
