<svg width="40" height="46" viewBox="0 0 40 46" fill="none" xmlns="http://www.w3.org/2000/svg">
<path d="M39.5804 25.9237C39.5804 28.502 37.7002 30.6375 35.2727 30.9652C34.8581 39.0967 28.2768 45.5819 20.246 45.5819C12.2153 45.5819 5.63397 39.0967 5.21934 30.9651C2.79187 30.6375 0.911621 28.5019 0.911621 25.9237C0.911621 24.4297 1.5434 23.0845 2.54711 22.1535C3.2065 21.5412 4.02601 21.1086 4.93274 20.9306C5.02083 20.9133 5.10891 20.8987 5.19795 20.8859V20.2534C5.19795 11.7431 11.9492 4.81985 20.246 4.81985C28.5429 4.81985 35.2933 11.7431 35.2933 20.2534V20.8859C35.3822 20.8987 35.4704 20.9133 35.5585 20.9306C36.4732 21.1104 37.3008 21.5494 37.9628 22.17C38.9567 23.1009 39.5804 24.4389 39.5804 25.9237Z" fill="#FFDECF"/>
<path d="M37.9628 22.1701C37.3008 21.5495 36.4732 21.1105 35.5585 20.9307C35.4704 20.9134 35.3823 20.8988 35.2933 20.886V20.2536C35.2933 11.7751 28.5933 4.87278 20.3391 4.8212V45.5808C28.3275 45.5308 34.8597 39.0653 35.2727 30.9652C37.7002 30.6376 39.5804 28.502 39.5804 25.9238C39.5805 24.4389 38.9568 23.101 37.9628 22.1701Z" fill="#FFCDBE"/>
<path d="M37.9628 22.1701V26.2295H35.2932V20.9308H35.5584C36.4732 21.1106 37.3007 21.5495 37.9628 22.1701Z" fill="#FAA68E"/>
<path d="M5.21692 20.9308V26.2295H2.54724V22.1537C3.20666 21.5413 4.02621 21.1087 4.93298 20.9308H5.21692Z" fill="#FFBEAA"/>
<path d="M23.5454 36.9715H20.8758C20.8758 36.3099 20.351 35.7717 19.706 35.7717H16.95V33.0338H19.706C21.823 33.0338 23.5454 34.8002 23.5454 36.9715Z" fill="#FFBEAA"/>
<path d="M21.2942 30.2049H20.3447V27.4669H21.2942C21.793 27.4669 22.1987 27.0508 22.1987 26.5393V24.6131C22.1987 22.3673 23.9535 20.4908 26.1105 20.4303C27.2058 20.3994 28.2433 20.814 29.0286 21.5976C29.814 22.3814 30.2466 23.432 30.2466 24.5558H27.577C27.577 24.1775 27.4314 23.8239 27.167 23.56C26.9027 23.2963 26.5535 23.158 26.1837 23.1672C25.4584 23.1877 24.8682 23.8363 24.8682 24.6132V26.5394C24.8683 28.5605 23.265 30.2049 21.2942 30.2049Z" fill="#FAA68E"/>
<path d="M18.447 24.5334H15.7775C15.7775 23.7798 15.1797 23.1667 14.4448 23.1667C13.71 23.1667 13.1122 23.7798 13.1122 24.5334H10.4426C10.4426 22.2701 12.238 20.4287 14.4447 20.4287C16.6515 20.4287 18.447 22.2701 18.447 24.5334Z" fill="#FFBEAA"/>
<path d="M20.3447 33.0894V35.9676C20.6642 36.182 20.8761 36.5516 20.8761 36.9716H23.5455C23.5455 35.0234 22.1587 33.4021 20.3447 33.0894Z" fill="#FAA68E"/>
<path d="M11.7599 13.4118H8.40647V12.0486C8.40647 10.2449 9.39196 8.61479 10.9784 7.79446C11.7427 7.3992 12.205 6.60834 12.1848 5.73049C12.1575 4.54499 11.1947 3.56176 10.0385 3.53867C9.29163 3.5254 8.59308 3.89543 8.1744 4.53296L5.71838 2.6226C6.74201 1.06352 8.44771 0.153997 10.2782 0.19116C11.662 0.218767 12.9679 0.789308 13.9554 1.79784C14.943 2.80647 15.5047 4.14345 15.5373 5.56255C15.5859 7.67731 14.4274 9.65907 12.586 10.6113C12.0765 10.8748 11.76 11.3905 11.76 11.9573V13.4118H11.7599Z" fill="#FF808C"/>
<path d="M10.3466 20.0281C11.2886 20.0281 12.0522 19.2449 12.0522 18.2787C12.0522 17.3125 11.2886 16.5293 10.3466 16.5293C9.40463 16.5293 8.64099 17.3125 8.64099 18.2787C8.64099 19.2449 9.40463 20.0281 10.3466 20.0281Z" fill="#FF808C"/>
<path d="M15.5372 5.56215C15.5047 4.14305 14.9429 2.80607 13.9553 1.79744C12.9679 0.788908 11.6619 0.218278 10.2782 0.190671C9.63032 0.177487 8.99829 0.283491 8.40637 0.494347V4.23755C8.82764 3.7831 9.41593 3.52712 10.0385 3.53818C11.1947 3.56127 12.1575 4.5445 12.1848 5.73001C12.2049 6.60794 11.7427 7.3988 10.9784 7.79397C9.39195 8.6143 8.40646 10.2444 8.40646 12.0481V13.4113H11.7599V11.9568C11.7599 11.39 12.0765 10.8743 12.5859 10.6108C14.4273 9.65867 15.5859 7.67691 15.5372 5.56215Z" fill="#FF636E"/>
<path d="M10.3468 16.5293V20.0281C11.2888 20.0281 12.0525 19.2449 12.0525 18.2787C12.0525 17.3126 11.2889 16.5293 10.3468 16.5293Z" fill="#FF636E"/>
</svg>
