<svg width="44" height="42" viewBox="0 0 44 42" fill="none" xmlns="http://www.w3.org/2000/svg">
<path d="M33.3141 12.5619V28.7627C33.3141 30.8486 31.6651 32.5399 29.6313 32.5399L16.8763 32.5943L9.40455 41.0238V32.5943H4.12129C2.08749 32.5943 0.438477 30.903 0.438477 28.8171V12.6164C0.438477 10.5304 2.08749 8.83917 4.12129 8.83917L29.6305 8.78476C31.6651 8.78476 33.3141 10.476 33.3141 12.5619Z" fill="#27CECE"/>
<path d="M16.8764 17.2143H7.16319C6.75 17.2143 6.41602 16.871 6.41602 16.448C6.41602 16.025 6.75 15.6817 7.16319 15.6817H16.8764C17.2896 15.6817 17.6236 16.025 17.6236 16.448C17.6236 16.871 17.2896 17.2143 16.8764 17.2143Z" fill="white"/>
<path d="M26.5898 21.8122H7.16319C6.75 21.8122 6.41602 21.4689 6.41602 21.0459C6.41602 20.6228 6.75 20.2795 7.16319 20.2795H26.5898C27.003 20.2795 27.337 20.6228 27.337 21.0459C27.337 21.4689 27.003 21.8122 26.5898 21.8122Z" fill="white"/>
<path d="M26.5898 26.4101H7.16319C6.75 26.4101 6.41602 26.0668 6.41602 25.6438C6.41602 25.2208 6.75 24.8775 7.16319 24.8775H26.5898C27.003 24.8775 27.337 25.2208 27.337 25.6438C27.337 26.0668 27.003 26.4101 26.5898 26.4101Z" fill="white"/>
<path d="M40.0918 0.408958L14.5824 0.355316C12.5478 0.355316 10.8988 2.04658 10.8988 4.13249V8.82388L29.6313 8.78404C31.6651 8.78404 33.3142 10.4753 33.3142 12.562V26.6936L38.5444 32.5943V24.1648H40.0918C42.1256 24.1648 43.7747 22.4735 43.7747 20.3876V4.1869C43.7747 2.10022 42.1256 0.408958 40.0918 0.408958Z" fill="#A685EC"/>
</svg>
