<svg width="33" height="40" viewBox="0 0 33 40" fill="none" xmlns="http://www.w3.org/2000/svg">
<path d="M32.6971 3.71783H24.1095V12.9871C31.8143 12.5034 32.6971 3.71783 32.6971 3.71783Z" fill="#435B6C"/>
<path d="M24.1095 24.5131C31.8143 24.0295 32.6971 15.2439 32.6971 15.2439H24.1095V24.5131Z" fill="#435B6C"/>
<path d="M24.1095 35.9585C31.8143 35.4749 32.6971 26.6893 32.6971 26.6893H24.1095V35.9585Z" fill="#435B6C"/>
<path d="M9.02051 12.987V3.71783H0.432739C0.432739 3.71783 1.31557 12.5034 9.02051 12.987Z" fill="#435B6C"/>
<path d="M9.02051 24.5131V15.1633H0.432739C0.432739 15.1633 1.31557 23.9489 9.02051 24.5131Z" fill="#435B6C"/>
<path d="M9.02051 35.9585V26.6893H0.432739C0.432739 26.6893 1.31557 35.4749 9.02051 35.9585Z" fill="#435B6C"/>
<path d="M24.1096 12.987C25.5543 12.9064 26.7581 12.5034 27.8015 11.9391V3.71777H24.1096V12.987Z" fill="#354B5E"/>
<path d="M24.1096 24.5131C25.5543 24.4325 26.7581 24.0295 27.8015 23.4653V15.1633H24.1096V24.5131Z" fill="#354B5E"/>
<path d="M24.1096 26.6893V35.9585C25.5543 35.8779 26.7581 35.4749 27.8015 34.9107V26.6893H24.1096Z" fill="#354B5E"/>
<path d="M9.02063 3.71875H5.32861V11.9401C6.37203 12.5044 7.57594 12.9073 9.02063 12.988V3.71875Z" fill="#354B5E"/>
<path d="M9.02063 15.1633H5.32861V23.3846C6.37203 23.9489 7.57594 24.3519 9.02063 24.4325V15.1633Z" fill="#354B5E"/>
<path d="M9.02063 26.6893H5.32861V34.9107C6.37203 35.4749 7.57594 35.8779 9.02063 35.9585V26.6893Z" fill="#354B5E"/>
<path d="M23.1462 0.493774H9.98347C8.298 0.493774 6.93359 1.86398 6.93359 3.47606V36.1197C6.93359 37.8124 8.298 39.1826 9.90326 39.1826H23.0659C24.7514 39.1826 26.0356 37.8124 26.0356 36.1197V3.47606C26.1961 1.86398 24.8317 0.493774 23.1462 0.493774Z" fill="#435B6C"/>
<path d="M16.5649 12.9064C19.0915 12.9064 21.1396 10.8495 21.1396 8.31213C21.1396 5.77477 19.0915 3.71783 16.5649 3.71783C14.0383 3.71783 11.9901 5.77477 11.9901 8.31213C11.9901 10.8495 14.0383 12.9064 16.5649 12.9064Z" fill="#F3705B"/>
<path d="M16.5649 24.4325C19.0915 24.4325 21.1396 22.3756 21.1396 19.8382C21.1396 17.3008 19.0915 15.2439 16.5649 15.2439C14.0383 15.2439 11.9901 17.3008 11.9901 19.8382C11.9901 22.3756 14.0383 24.4325 16.5649 24.4325Z" fill="#FFD15D"/>
<path d="M16.5649 35.9585C19.0915 35.9585 21.1396 33.9015 21.1396 31.3642C21.1396 28.8268 19.0915 26.7699 16.5649 26.7699C14.0383 26.7699 11.9901 28.8268 11.9901 31.3642C11.9901 33.9015 14.0383 35.9585 16.5649 35.9585Z" fill="#67C6B9"/>
<path d="M16.5649 11.2944C14.3176 11.2944 12.3914 9.68241 12.0704 7.50616C11.9901 7.74797 11.9901 8.0704 11.9901 8.31221C11.9901 10.8914 14.0768 12.9065 16.5649 12.9065C19.1331 12.9065 21.1396 10.8109 21.1396 8.31221C21.1396 8.0704 21.1396 7.74797 21.0594 7.50616C20.7384 9.68241 18.8122 11.2944 16.5649 11.2944Z" fill="#F15741"/>
<path d="M16.5649 22.8205C14.3176 22.8205 12.3914 21.2085 12.0704 19.0322C11.9901 19.274 11.9901 19.5965 11.9901 19.8383C11.9901 22.4175 14.0768 24.4326 16.5649 24.4326C19.1331 24.4326 21.1396 22.3369 21.1396 19.8383C21.1396 19.5965 21.1396 19.274 21.0594 19.0322C20.7384 21.2084 18.8122 22.8205 16.5649 22.8205Z" fill="#F6B64C"/>
<path d="M16.5649 34.3465C14.3176 34.3465 12.3914 32.7345 12.0704 30.5582C11.9901 30.8 11.9901 31.1225 11.9901 31.3643C11.9901 33.9435 14.0768 35.9586 16.5649 35.9586C19.1331 35.9586 21.1396 33.8629 21.1396 31.3643C21.1396 31.1225 21.1396 30.8 21.0594 30.5582C20.7384 32.7345 18.8122 34.3465 16.5649 34.3465Z" fill="#4ABAA5"/>
</svg>
