<svg width="25" height="25" viewBox="0 0 25 25" fill="none" xmlns="http://www.w3.org/2000/svg">
<g clip-path="url(#clip0)">
<path d="M5.00584 8.4845C2.54647 8.4845 0.553162 10.4724 0.553162 12.9247C0.553162 15.377 2.54647 17.365 5.00584 17.365C7.46496 17.365 9.45847 15.3771 9.45847 12.9247C9.45847 10.4724 7.46496 8.4845 5.00584 8.4845ZM5.00584 8.4845C2.54647 8.4845 0.553162 10.4724 0.553162 12.9247C0.553162 15.377 2.54647 17.365 5.00584 17.365C7.46496 17.365 9.45847 15.3771 9.45847 12.9247C9.45847 10.4724 7.46496 8.4845 5.00584 8.4845Z" fill="#BAEEC3"/>
<path d="M6.9873 8.94836L2.88452 16.8296C3.51518 17.171 4.23779 17.365 5.00586 17.365C7.46498 17.365 9.45848 15.3771 9.45848 12.9247C9.45848 11.1824 8.45175 9.67546 6.9873 8.94836Z" fill="#9FD7C5"/>
<path d="M19.994 17.3647C22.4531 17.3647 24.4466 15.3767 24.4466 12.9244C24.4466 10.4721 22.4531 8.48413 19.994 8.48413C17.5349 8.48413 15.5414 10.4721 15.5414 12.9244C15.5414 15.3767 17.5349 17.3647 19.994 17.3647Z" fill="#BAEEC3"/>
<path d="M21.9753 8.94836L17.8726 16.8296C18.5032 17.171 19.2259 17.3649 19.9939 17.3649C22.4531 17.3649 24.4465 15.377 24.4465 12.9247C24.4465 11.1824 23.4398 9.67546 21.9753 8.94836Z" fill="#9FD7C5"/>
<path d="M22.2938 21.918H3.72153C3.41557 21.918 3.16757 21.67 3.16757 21.364C3.16757 21.0581 3.41557 20.8101 3.72153 20.8101H22.2938C22.5997 20.8101 22.8477 21.0581 22.8477 21.364C22.8477 21.67 22.5997 21.918 22.2938 21.918ZM19.9937 17.9321C17.4202 17.9321 15.2942 15.9804 15.0176 13.4795H12.1654C12.1529 13.4795 12.1406 13.4791 12.1283 13.4783C12.0307 13.4851 11.9311 13.4663 11.8382 13.4188C11.5657 13.2796 11.4577 12.9459 11.597 12.6735L14.229 7.52411H8.38934L7.76336 8.74857C9.1179 9.64549 10.0127 11.1829 10.0127 12.9256C10.0127 15.6862 7.76693 17.932 5.00639 17.932C2.24585 17.932 0 15.6862 0 12.9257C0 10.1651 2.24585 7.91932 5.00639 7.91932C5.62963 7.91932 6.22679 8.03387 6.77762 8.2429L9.25745 3.39155C9.26404 3.37812 9.27122 3.36494 9.27894 3.35214C9.33778 3.25331 9.42347 3.1788 9.52171 3.13334C9.55413 3.11826 9.58826 3.10624 9.62376 3.09765C9.67181 3.08593 9.72225 3.0809 9.77137 3.08207H11.7416C12.0475 3.08207 12.2955 3.33007 12.2955 3.63603C12.2955 3.94199 12.0475 4.18998 11.7416 4.18998H10.0936L8.95565 6.4162H14.7955L15.486 5.06523H15.212C14.906 5.06523 14.658 4.81723 14.658 4.51127C14.658 4.20531 14.906 3.95732 15.212 3.95732H18.2858C18.5917 3.95732 18.8397 4.20531 18.8397 4.51127C18.8397 4.81723 18.5917 5.06523 18.2858 5.06523H16.7302L16.0397 6.4162H16.9794C17.0167 6.41522 17.0538 6.4181 17.0902 6.4245C17.1505 6.4351 17.2076 6.45546 17.2595 6.48387C17.3405 6.52802 17.4111 6.59261 17.4629 6.67499C17.474 6.69271 17.4843 6.71112 17.4934 6.73021L18.2501 8.23241C18.7933 8.02992 19.3808 7.91922 19.9938 7.91922C22.7543 7.91922 25.0001 10.1651 25.0001 12.9256C25 15.6862 22.7542 17.9321 19.9937 17.9321ZM16.1344 13.4796C16.4042 15.3678 18.032 16.8242 19.9937 16.8242C22.1433 16.8242 23.892 15.0754 23.892 12.9257C23.892 10.7761 22.1433 9.02728 19.9937 9.02728C19.5599 9.02728 19.1423 9.09847 18.7523 9.22991L20.4834 12.6666C20.5049 12.7072 20.5215 12.7507 20.5325 12.7965C20.5483 12.8625 20.5517 12.9298 20.5433 12.9952C20.5333 13.0754 20.5062 13.1503 20.4656 13.216C20.4249 13.2824 20.3697 13.3408 20.3019 13.3861C20.2478 13.4224 20.1869 13.4494 20.1214 13.4649C20.0754 13.4758 20.0294 13.4805 19.9825 13.4797H16.1344V13.4796ZM5.00639 9.02723C2.85673 9.02723 1.10791 10.7761 1.10791 12.9257C1.10791 15.0753 2.85673 16.8242 5.00639 16.8242C7.15599 16.8242 8.90482 15.0753 8.90482 12.9257C8.90482 11.6129 8.25262 10.4496 7.25521 9.7428L5.4994 13.1777C5.36019 13.4501 5.0267 13.5582 4.75404 13.4188C4.48163 13.2796 4.37367 12.9459 4.51293 12.6735L6.26937 9.23714C5.87308 9.10111 5.44828 9.02723 5.00639 9.02723ZM16.1344 12.3717H19.0944L17.7635 9.72967C16.899 10.3347 16.2902 11.2811 16.1344 12.3717ZM12.9956 12.3717H15.0177C15.186 10.8498 16.0392 9.53148 17.2612 8.73241L16.6527 7.52411H15.4734L12.9956 12.3717Z" fill="#2F373D"/>
</g>
<defs>
<clipPath id="clip0">
<rect width="25" height="25" fill="white"/>
</clipPath>
</defs>
</svg>
