<svg width="21" height="21" viewBox="0 0 21 21" fill="none" xmlns="http://www.w3.org/2000/svg">
<g clip-path="url(#clip0)">
<path d="M1.75 9.44989V19.2499H19.2499V9.44989C19.2499 9.25667 19.0932 9.09998 18.9 9.09998H2.09991C1.90669 9.09998 1.75 9.25667 1.75 9.44989Z" fill="#A29BF0"/>
<path d="M1.75016 9.44989L1.75 19.2499H18.2003L18.2001 9.44989C18.2058 9.2626 18.0585 9.1059 17.8711 9.09998H2.07909C1.89163 9.1059 1.74455 9.2626 1.75016 9.44989Z" fill="#C1BCFA"/>
<path d="M17.1499 12.5999V19.2499H12.95V12.5999C12.9504 12.4069 13.1068 12.2505 13.2999 12.25H16.8C16.993 12.2505 17.1494 12.4069 17.1499 12.5999Z" fill="#9790E3"/>
<path d="M16.1 12.5999V19.2499H12.95V12.5999C12.9504 12.4069 13.1068 12.2505 13.2999 12.25H15.7499C15.943 12.2505 16.0993 12.4069 16.1 12.5999Z" fill="#9790E3"/>
<path d="M10.5001 12.5999V17.8499H3.5V12.5999C3.49984 12.5616 3.50705 12.5237 3.52099 12.4879C3.56826 12.3463 3.70075 12.2505 3.85008 12.25H10.15C10.3432 12.2505 10.4996 12.4069 10.5001 12.5999Z" fill="#76CEF6"/>
<path d="M9.44999 12.5999V17.8499H3.5V12.5999C3.49984 12.5616 3.50705 12.5237 3.52099 12.4879C3.56826 12.3463 3.70075 12.2505 3.85008 12.25H9.10008C9.29314 12.2505 9.44951 12.4069 9.44999 12.5999Z" fill="#91D8F8"/>
<path d="M14.3501 13.65H15.7501C15.9433 13.65 16.1001 13.8067 16.1001 13.9999V14.6999C16.1001 14.8933 15.9433 15.05 15.7501 15.05H14.3501C14.1567 15.05 14 14.8933 14 14.6999V13.9999C14 13.8067 14.1567 13.65 14.3501 13.65Z" fill="#B0D3F0"/>
<path d="M17.4999 6.64999C17.4999 8.00319 16.4029 9.10004 15.0499 9.10004C13.6969 9.10004 12.5999 8.00319 12.5999 6.64999C12.5999 5.29696 13.6969 4.19995 15.0499 4.19995C16.4029 4.19995 17.4999 5.29696 17.4999 6.64999Z" fill="#ECF0F1"/>
<path d="M7.70013 6.64999C7.70013 8.00319 6.60313 9.10004 5.25009 9.10004C3.89706 9.10004 2.80005 8.00319 2.80005 6.64999C2.80005 5.29696 3.89706 4.19995 5.25009 4.19995C6.60313 4.19995 7.70013 5.29696 7.70013 6.64999Z" fill="#ECF0F1"/>
<path d="M0.700012 19.25H20.3C20.4933 19.25 20.6499 19.4067 20.6499 19.6001V20.3001C20.6499 20.4933 20.4933 20.65 20.3 20.65H0.700012C0.50679 20.65 0.350098 20.4933 0.350098 20.3001V19.6001C0.350098 19.4067 0.50679 19.25 0.700012 19.25Z" fill="#9790E3"/>
<path d="M0.700012 19.25H19.25C19.4434 19.25 19.6 19.4067 19.6 19.6001V20.3001C19.6 20.4933 19.4434 20.65 19.25 20.65H0.700012C0.50679 20.65 0.350098 20.4933 0.350098 20.3001V19.6001C0.350098 19.4067 0.50679 19.25 0.700012 19.25Z" fill="#9790E3"/>
<path d="M19.2499 9.44989V10.5H1.75V9.44989C1.75048 9.25683 1.90685 9.10046 2.09991 9.09998H18.9C19.093 9.10046 19.2494 9.25683 19.2499 9.44989Z" fill="#9790E3"/>
<path d="M18.2001 9.44989L18.2003 10.5H1.75L1.75016 9.44989C1.74503 9.26276 1.89195 9.10654 2.07909 9.09998H17.8711C18.0584 9.10654 18.2051 9.26276 18.2001 9.44989Z" fill="#9790E3"/>
<path d="M19.2499 19.6001H1.74998C1.55659 19.6001 1.3999 19.4434 1.3999 19.25V9.44999C1.40038 9.06371 1.71345 8.75048 2.09989 8.75H18.9C19.2864 8.75048 19.5995 9.06371 19.5999 9.44999V19.25C19.5999 19.4434 19.4433 19.6001 19.2499 19.6001ZM2.09989 18.9001H18.9V9.44999H2.09989V18.9001Z" fill="black"/>
<path d="M17.1499 19.6001H12.9499C12.7565 19.6001 12.5999 19.4434 12.5999 19.25V12.6C12.6003 12.2136 12.9134 11.9005 13.2998 11.9H16.7999C17.1862 11.9005 17.4995 12.2136 17.4999 12.6V19.25C17.4999 19.4434 17.3432 19.6001 17.1499 19.6001ZM13.2998 18.9001H16.7999V12.6H13.2998V18.9001Z" fill="black"/>
<path d="M10.5001 18.2001H3.50006C3.30684 18.2001 3.15015 18.0434 3.15015 17.85V12.6C3.15063 12.2136 3.46369 11.9005 3.85014 11.9H10.15C10.5365 11.9005 10.8497 12.2136 10.8502 12.6V17.85C10.8502 18.0434 10.6933 18.2001 10.5001 18.2001ZM3.85014 17.5001H10.15V12.6H3.85014V17.5001Z" fill="black"/>
<path d="M10.8502 18.2H3.15012C2.95674 18.2 2.80005 18.0433 2.80005 17.8499C2.80005 17.6567 2.95674 17.5 3.15012 17.5H10.8502C11.0434 17.5 11.2001 17.6567 11.2001 17.8499C11.2001 18.0433 11.0434 18.2 10.8502 18.2Z" fill="black"/>
<path d="M10.4999 17.2025C10.4114 17.2027 10.3262 17.1692 10.2616 17.1088L9.56162 16.4578C9.46821 16.3732 9.42736 16.2447 9.45507 16.1217C9.48263 15.9986 9.57444 15.8999 9.69508 15.8634C9.81573 15.8269 9.94679 15.8581 10.0381 15.9451L10.7381 16.5961C10.8435 16.6941 10.8783 16.8465 10.8256 16.9804C10.773 17.1144 10.6437 17.2025 10.4999 17.2025Z" fill="black"/>
<path d="M8.74994 15.5751C8.65958 15.5751 8.57274 15.5402 8.50769 15.4775L5.41021 12.5025C5.31681 12.4166 5.27723 12.287 5.30671 12.1636C5.33619 12.0402 5.43008 11.9425 5.552 11.9081C5.67409 11.8736 5.80531 11.9079 5.89487 11.9976L8.99235 14.9727C9.09537 15.0715 9.12789 15.2231 9.07454 15.3556C9.02135 15.4883 8.89286 15.5749 8.74994 15.5751Z" fill="black"/>
<path d="M8.72226 18.2C8.63382 18.2002 8.54859 18.1667 8.48402 18.1063L5.71195 15.5303C5.61854 15.4457 5.57784 15.3172 5.6054 15.1942C5.63312 15.0711 5.72476 14.9724 5.84541 14.9359C5.96621 14.8994 6.09727 14.9306 6.18843 15.0176L8.9605 17.5936C9.06593 17.6915 9.10053 17.844 9.04798 17.978C8.99527 18.1119 8.86614 18.2 8.72226 18.2Z" fill="black"/>
<path d="M4.95399 14.7C4.86331 14.7001 4.77631 14.6651 4.71126 14.6021L3.25729 13.2021C3.16292 13.1162 3.12287 12.9861 3.15235 12.8621C3.18183 12.7383 3.27635 12.6401 3.39908 12.6059C3.52181 12.5718 3.65335 12.6071 3.74259 12.6981L5.19656 14.098C5.29942 14.1971 5.33162 14.3486 5.27827 14.481C5.22492 14.6133 5.09658 14.7 4.95399 14.7Z" fill="black"/>
<path d="M19.2499 10.8501H5.24998C5.05676 10.8501 4.8999 10.6932 4.8999 10.5C4.8999 10.3068 5.05676 10.1499 5.24998 10.1499H19.2499C19.4433 10.1499 19.6 10.3068 19.6 10.5C19.6 10.6932 19.4433 10.8501 19.2499 10.8501Z" fill="black"/>
<path d="M3.49987 10.8501H1.74998C1.55659 10.8501 1.3999 10.6932 1.3999 10.5C1.3999 10.3068 1.55659 10.1499 1.74998 10.1499H3.49987C3.69325 10.1499 3.84995 10.3068 3.84995 10.5C3.84995 10.6932 3.69325 10.8501 3.49987 10.8501Z" fill="black"/>
<path d="M15.4 15.3999H14.7C14.3137 15.3996 14.0005 15.0863 14 14.6999V13.9999C14.0005 13.6136 14.3137 13.3004 14.7 13.2999H15.4C15.7864 13.3004 16.0996 13.6136 16.1001 13.9999V14.6999C16.0996 15.0863 15.7864 15.3996 15.4 15.3999ZM14.7 13.9999V14.6999H15.4005L15.4 13.9999H14.7Z" fill="black"/>
<path d="M14.7 16.8001H14.3501C14.1567 16.8001 14 16.6434 14 16.45C14 16.2568 14.1567 16.1001 14.3501 16.1001H14.7C14.8934 16.1001 15.0501 16.2568 15.0501 16.45C15.0501 16.6434 14.8934 16.8001 14.7 16.8001Z" fill="black"/>
<path d="M15.05 9.44989C13.5035 9.44989 12.25 8.19635 12.25 6.64993C12.25 5.10352 13.5035 3.84998 15.05 3.84998C16.5964 3.84998 17.8499 5.10352 17.8499 6.64993C17.8482 8.19555 16.5956 9.44813 15.05 9.44989ZM15.05 4.54996C13.8901 4.54996 12.95 5.49012 12.95 6.64993C12.95 7.80975 13.8901 8.7499 15.05 8.7499C16.2098 8.7499 17.1499 7.80975 17.1499 6.64993C17.1486 5.49076 16.2093 4.55125 15.05 4.54996Z" fill="black"/>
<path d="M5.24991 9.44989C3.70349 9.44989 2.44995 8.19635 2.44995 6.64993C2.44995 5.10352 3.70349 3.84998 5.24991 3.84998C6.79633 3.84998 8.04987 5.10352 8.04987 6.64993C8.0481 8.19555 6.79552 9.44813 5.24991 9.44989ZM5.24991 4.54996C4.0901 4.54996 3.14994 5.49012 3.14994 6.64993C3.14994 7.80975 4.0901 8.7499 5.24991 8.7499C6.40972 8.7499 7.34988 7.80975 7.34988 6.64993C7.34859 5.49076 6.40924 4.55125 5.24991 4.54996Z" fill="black"/>
<path d="M10.15 7.0001H5.59811C5.34256 6.99914 5.10785 6.85927 4.98576 6.63496C4.86352 6.41066 4.87313 6.13765 5.01092 5.92248L7.75383 1.56361C7.81792 1.46187 7.92975 1.40002 8.05007 1.40002H12.9498C13.0745 1.40002 13.1898 1.46651 13.2525 1.57434C13.3151 1.68233 13.3154 1.81531 13.2536 1.92361L10.454 6.8237C10.3916 6.93281 10.2756 7.0001 10.15 7.0001ZM8.24329 2.10001L5.60212 6.29739L9.94704 6.30011L12.3468 2.10001H8.24329Z" fill="black"/>
<path d="M10.1501 7.00021C10.0102 7.00005 9.88366 6.91658 9.82854 6.78793L7.72858 1.88784L7.29039 1.01289C7.18192 0.795959 7.19362 0.53817 7.32115 0.33197C7.44868 0.12561 7.67395 0 7.91652 0H9.1002C9.29342 0 9.45011 0.156692 9.45011 0.350075C9.45011 0.543297 9.29342 0.699989 9.1002 0.699989H7.91652L8.3632 1.59352L10.4718 6.51203C10.518 6.62018 10.5067 6.74435 10.442 6.84256C10.3773 6.94061 10.2677 6.99989 10.1501 7.00021Z" fill="black"/>
<path d="M15.0503 7.00021C14.9103 7.00005 14.7837 6.91658 14.7288 6.78793L12.6287 1.88784L12.1905 1.01289C12.0822 0.795959 12.0937 0.53817 12.2212 0.33197C12.3488 0.12561 12.5742 0 12.8168 0H14.0003C14.1937 0 14.3504 0.156692 14.3504 0.350075C14.3504 0.543297 14.1937 0.699989 14.0003 0.699989H12.8168L13.2634 1.59352L15.3719 6.51203C15.418 6.62018 15.4068 6.74435 15.3423 6.84256C15.2775 6.94061 15.1679 6.99989 15.0503 7.00021Z" fill="black"/>
<path d="M20.3 21H0.699989C0.313545 20.9995 0.000480654 20.6864 0 20.3V19.6C0.000480654 19.2136 0.313545 18.9005 0.699989 18.9H20.3C20.6865 18.9005 20.9995 19.2136 21 19.6V20.3C20.9995 20.6864 20.6865 20.9995 20.3 21ZM0.699989 19.6V20.3H20.3003L20.3 19.6H0.699989Z" fill="black"/>
</g>
<defs>
<clipPath id="clip0">
<rect width="21" height="21" fill="white"/>
</clipPath>
</defs>
</svg>
