<svg width="76" height="76" viewBox="0 0 76 76" fill="none" xmlns="http://www.w3.org/2000/svg">
<g filter="url(#filter0_d)">
<circle cx="38" cy="34" r="18" fill="white"/>
</g>
<g clip-path="url(#clip0)">
<path d="M31.0822 30.2933C28.812 30.2933 26.972 32.1283 26.972 34.392C26.972 36.6557 28.812 38.4907 31.0822 38.4907C33.3522 38.4907 35.1923 36.6557 35.1923 34.392C35.1923 32.1283 33.3522 30.2933 31.0822 30.2933ZM31.0822 30.2933C28.812 30.2933 26.972 32.1283 26.972 34.392C26.972 36.6557 28.812 38.4907 31.0822 38.4907C33.3522 38.4907 35.1923 36.6557 35.1923 34.392C35.1923 32.1283 33.3522 30.2933 31.0822 30.2933Z" fill="#BAEEC3"/>
<path d="M32.9113 30.7216L29.1241 37.9966C29.7063 38.3117 30.3733 38.4907 31.0823 38.4907C33.3523 38.4907 35.1924 36.6557 35.1924 34.392C35.1924 32.7838 34.2631 31.3927 32.9113 30.7216Z" fill="#9FD7C5"/>
<path d="M44.9175 38.4904C47.1874 38.4904 49.0276 36.6553 49.0276 34.3917C49.0276 32.128 47.1874 30.293 44.9175 30.293C42.6476 30.293 40.8074 32.128 40.8074 34.3917C40.8074 36.6553 42.6476 38.4904 44.9175 38.4904Z" fill="#BAEEC3"/>
<path d="M46.7464 30.7216L42.9592 37.9965C43.5414 38.3116 44.2084 38.4907 44.9174 38.4907C47.1874 38.4907 49.0275 36.6557 49.0275 34.392C49.0275 32.7838 48.0982 31.3927 46.7464 30.7216Z" fill="#9FD7C5"/>
<path d="M47.0403 42.6935H29.8967C29.6143 42.6935 29.3854 42.4646 29.3854 42.1822C29.3854 41.8998 29.6143 41.6708 29.8967 41.6708H47.0403C47.3228 41.6708 47.5517 41.8998 47.5517 42.1822C47.5517 42.4647 47.3228 42.6935 47.0403 42.6935ZM44.9172 39.0143C42.5417 39.0143 40.5792 37.2127 40.3239 34.9042H37.6911C37.6796 34.9042 37.6682 34.9038 37.6568 34.9031C37.5667 34.9094 37.4748 34.892 37.389 34.8482C37.1375 34.7197 37.0378 34.4116 37.1664 34.1601L39.596 29.4069H34.2055L33.6277 30.5372C34.878 31.3651 35.704 32.7843 35.704 34.3929C35.704 36.9411 33.631 39.0142 31.0828 39.0142C28.5346 39.0142 26.4615 36.9412 26.4615 34.3929C26.4615 31.8447 28.5346 29.7717 31.0828 29.7717C31.6581 29.7717 32.2093 29.8774 32.7178 30.0704L35.0068 25.5922C35.0129 25.5798 35.0195 25.5677 35.0267 25.5558C35.081 25.4646 35.1601 25.3958 35.2508 25.3539C35.2807 25.3399 35.3122 25.3289 35.345 25.3209C35.3893 25.3101 35.4359 25.3055 35.4812 25.3065H37.2999C37.5823 25.3065 37.8112 25.5355 37.8112 25.8179C37.8112 26.1003 37.5823 26.3292 37.2999 26.3292H35.7786L34.7282 28.3842H40.1189L40.7563 27.1371H40.5033C40.2209 27.1371 39.992 26.9082 39.992 26.6258C39.992 26.3434 40.2209 26.1145 40.5033 26.1145H43.3406C43.6231 26.1145 43.852 26.3434 43.852 26.6258C43.852 26.9082 43.6231 27.1371 43.3406 27.1371H41.9048L41.2674 28.3842H42.1348C42.1692 28.3833 42.2035 28.386 42.2371 28.3919C42.2927 28.4016 42.3454 28.4204 42.3934 28.4467C42.4681 28.4874 42.5333 28.547 42.581 28.6231C42.5914 28.6394 42.6008 28.6564 42.6092 28.6741L43.3077 30.0607C43.8092 29.8738 44.3515 29.7716 44.9173 29.7716C47.4655 29.7716 49.5385 31.8447 49.5385 34.3928C49.5384 36.9412 47.4653 39.0143 44.9172 39.0143ZM41.3548 34.9042C41.6038 36.6472 43.1065 37.9916 44.9172 37.9916C46.9014 37.9916 48.5157 36.3773 48.5157 34.393C48.5157 32.4087 46.9014 30.7944 44.9172 30.7944C44.5168 30.7944 44.1313 30.8601 43.7713 30.9815L45.3692 34.1538C45.3891 34.1912 45.4044 34.2314 45.4145 34.2737C45.4292 34.3346 45.4323 34.3968 45.4246 34.4571C45.4153 34.5311 45.3903 34.6003 45.3528 34.661C45.3152 34.7222 45.2643 34.7761 45.2017 34.818C45.1517 34.8515 45.0955 34.8764 45.0351 34.8907C44.9926 34.9008 44.9502 34.9051 44.9069 34.9044H41.3548V34.9042ZM31.0828 30.7944C29.0985 30.7944 27.4842 32.4087 27.4842 34.3929C27.4842 36.3772 29.0985 37.9916 31.0828 37.9916C33.067 37.9916 34.6813 36.3772 34.6813 34.3929C34.6813 33.1811 34.0793 32.1073 33.1586 31.4549L31.5379 34.6256C31.4094 34.877 31.1015 34.9768 30.8498 34.8482C30.5984 34.7197 30.4987 34.4116 30.6273 34.1601L32.2486 30.9881C31.8828 30.8626 31.4907 30.7944 31.0828 30.7944ZM41.3548 33.8815H44.0871L42.8586 31.4428C42.0606 32.0013 41.4986 32.8749 41.3548 33.8815ZM38.4575 33.8815H40.324C40.4793 32.4768 41.2669 31.2598 42.3949 30.5222L41.8332 29.4069H40.7446L38.4575 33.8815Z" fill="#2F373D"/>
</g>
<defs>
<filter id="filter0_d" x="0" y="0" width="76" height="76" filterUnits="userSpaceOnUse" color-interpolation-filters="sRGB">
<feFlood flood-opacity="0" result="BackgroundImageFix"/>
<feColorMatrix in="SourceAlpha" type="matrix" values="0 0 0 0 0 0 0 0 0 0 0 0 0 0 0 0 0 0 127 0"/>
<feOffset dy="4"/>
<feGaussianBlur stdDeviation="10"/>
<feColorMatrix type="matrix" values="0 0 0 0 0 0 0 0 0 0 0 0 0 0 0 0 0 0 0.25 0"/>
<feBlend mode="normal" in2="BackgroundImageFix" result="effect1_dropShadow"/>
<feBlend mode="normal" in="SourceGraphic" in2="effect1_dropShadow" result="shape"/>
</filter>
<clipPath id="clip0">
<rect x="26.4615" y="22.4615" width="23.0769" height="23.0769" fill="white"/>
</clipPath>
</defs>
</svg>
