<svg width="76" height="76" viewBox="0 0 76 76" fill="none" xmlns="http://www.w3.org/2000/svg">
<g filter="url(#filter0_d)">
<circle cx="38" cy="34" r="18" fill="white"/>
</g>
<g clip-path="url(#clip0)">
<path d="M28.75 31.4499V41.2499H46.2499V31.4499C46.2499 31.2567 46.0932 31.1 45.9 31.1H29.0999C28.9067 31.1 28.75 31.2567 28.75 31.4499Z" fill="#A29BF0"/>
<path d="M28.7502 31.4499L28.75 41.2499H45.2003L45.2001 31.4499C45.2058 31.2626 45.0585 31.1059 44.8711 31.1H29.0791C28.8916 31.1059 28.7446 31.2626 28.7502 31.4499Z" fill="#C1BCFA"/>
<path d="M44.1499 34.5999V41.2499H39.95V34.5999C39.9504 34.4069 40.1068 34.2505 40.2999 34.25H43.8C43.993 34.2505 44.1494 34.4069 44.1499 34.5999Z" fill="#9790E3"/>
<path d="M43.1 34.5999V41.2499H39.95V34.5999C39.9504 34.4069 40.1068 34.2505 40.2999 34.25H42.7499C42.943 34.2505 43.0993 34.4069 43.1 34.5999Z" fill="#9790E3"/>
<path d="M37.5001 34.5999V39.8499H30.5V34.5999C30.4998 34.5616 30.5071 34.5237 30.521 34.4879C30.5683 34.3463 30.7008 34.2505 30.8501 34.25H37.15C37.3432 34.2505 37.4996 34.4069 37.5001 34.5999Z" fill="#76CEF6"/>
<path d="M36.45 34.5999V39.8499H30.5V34.5999C30.4998 34.5616 30.5071 34.5237 30.521 34.4879C30.5683 34.3463 30.7008 34.2505 30.8501 34.25H36.1001C36.2931 34.2505 36.4495 34.4069 36.45 34.5999Z" fill="#91D8F8"/>
<path d="M41.3501 35.65H42.7501C42.9433 35.65 43.1001 35.8067 43.1001 35.9999V36.6999C43.1001 36.8933 42.9433 37.05 42.7501 37.05H41.3501C41.1567 37.05 41 36.8933 41 36.6999V35.9999C41 35.8067 41.1567 35.65 41.3501 35.65Z" fill="#B0D3F0"/>
<path d="M44.4999 28.65C44.4999 30.0032 43.4029 31.1 42.0499 31.1C40.6969 31.1 39.5999 30.0032 39.5999 28.65C39.5999 27.297 40.6969 26.2 42.0499 26.2C43.4029 26.2 44.4999 27.297 44.4999 28.65Z" fill="#ECF0F1"/>
<path d="M34.7001 28.65C34.7001 30.0032 33.6031 31.1 32.2501 31.1C30.8971 31.1 29.8 30.0032 29.8 28.65C29.8 27.297 30.8971 26.2 32.2501 26.2C33.6031 26.2 34.7001 27.297 34.7001 28.65Z" fill="#ECF0F1"/>
<path d="M27.7 41.25H47.3C47.4933 41.25 47.6499 41.4067 47.6499 41.6001V42.3001C47.6499 42.4933 47.4933 42.65 47.3 42.65H27.7C27.5068 42.65 27.3501 42.4933 27.3501 42.3001V41.6001C27.3501 41.4067 27.5068 41.25 27.7 41.25Z" fill="#9790E3"/>
<path d="M27.7 41.25H46.25C46.4434 41.25 46.6 41.4067 46.6 41.6001V42.3001C46.6 42.4933 46.4434 42.65 46.25 42.65H27.7C27.5068 42.65 27.3501 42.4933 27.3501 42.3001V41.6001C27.3501 41.4067 27.5068 41.25 27.7 41.25Z" fill="#9790E3"/>
<path d="M46.2499 31.4499V32.5H28.75V31.4499C28.7505 31.2568 28.9069 31.1005 29.0999 31.1H45.9C46.093 31.1005 46.2494 31.2568 46.2499 31.4499Z" fill="#9790E3"/>
<path d="M45.2001 31.4499L45.2003 32.5H28.75L28.7502 31.4499C28.745 31.2628 28.892 31.1065 29.0791 31.1H44.8711C45.0584 31.1065 45.2051 31.2628 45.2001 31.4499Z" fill="#9790E3"/>
<path d="M46.2499 41.6001H28.75C28.5566 41.6001 28.3999 41.4434 28.3999 41.25V31.45C28.4004 31.0637 28.7134 30.7505 29.0999 30.75H45.9C46.2864 30.7505 46.5995 31.0637 46.5999 31.45V41.25C46.5999 41.4434 46.4433 41.6001 46.2499 41.6001ZM29.0999 40.9001H45.9V31.45H29.0999V40.9001Z" fill="black"/>
<path d="M44.1499 41.6001H39.9499C39.7565 41.6001 39.5999 41.4434 39.5999 41.25V34.6C39.6003 34.2136 39.9134 33.9005 40.2998 33.9H43.7999C44.1862 33.9005 44.4995 34.2136 44.4999 34.6V41.25C44.4999 41.4434 44.3432 41.6001 44.1499 41.6001ZM40.2998 40.9001H43.7999V34.6H40.2998V40.9001Z" fill="black"/>
<path d="M37.5001 40.2001H30.5001C30.3068 40.2001 30.1501 40.0434 30.1501 39.85V34.6C30.1506 34.2136 30.4637 33.9005 30.8501 33.9H37.15C37.5365 33.9005 37.8497 34.2136 37.8502 34.6V39.85C37.8502 40.0434 37.6933 40.2001 37.5001 40.2001ZM30.8501 39.5001H37.15V34.6H30.8501V39.5001Z" fill="black"/>
<path d="M37.8502 40.2H30.1501C29.9567 40.2 29.8 40.0433 29.8 39.8499C29.8 39.6567 29.9567 39.5 30.1501 39.5H37.8502C38.0434 39.5 38.2001 39.6567 38.2001 39.8499C38.2001 40.0433 38.0434 40.2 37.8502 40.2Z" fill="black"/>
<path d="M37.4999 39.2025C37.4114 39.2027 37.3262 39.1692 37.2616 39.1088L36.5616 38.4578C36.4682 38.3732 36.4274 38.2447 36.4551 38.1217C36.4826 37.9986 36.5744 37.8999 36.6951 37.8634C36.8157 37.8269 36.9468 37.8581 37.0381 37.9451L37.7381 38.5961C37.8435 38.6941 37.8783 38.8465 37.8256 38.9804C37.773 39.1144 37.6437 39.2025 37.4999 39.2025Z" fill="black"/>
<path d="M35.7499 37.5751C35.6596 37.5751 35.5727 37.5402 35.5077 37.4775L32.4102 34.5025C32.3168 34.4166 32.2772 34.287 32.3067 34.1636C32.3362 34.0402 32.4301 33.9425 32.552 33.9081C32.6741 33.8736 32.8053 33.9079 32.8949 33.9976L35.9924 36.9727C36.0954 37.0715 36.1279 37.2231 36.0745 37.3556C36.0213 37.4883 35.8929 37.5749 35.7499 37.5751Z" fill="black"/>
<path d="M35.7223 40.2C35.6338 40.2002 35.5486 40.1667 35.484 40.1063L32.7119 37.5303C32.6185 37.4457 32.5778 37.3172 32.6054 37.1942C32.6331 37.0711 32.7248 36.9724 32.8454 36.9359C32.9662 36.8994 33.0973 36.9306 33.1884 37.0176L35.9605 39.5936C36.0659 39.6915 36.1005 39.844 36.048 39.978C35.9953 40.1119 35.8661 40.2 35.7223 40.2Z" fill="black"/>
<path d="M31.954 36.7C31.8633 36.7001 31.7763 36.6651 31.7113 36.6021L30.2573 35.2021C30.1629 35.1162 30.1229 34.9861 30.1523 34.8621C30.1818 34.7383 30.2764 34.6401 30.3991 34.6059C30.5218 34.5718 30.6533 34.6071 30.7426 34.6981L32.1966 36.098C32.2994 36.1971 32.3316 36.3486 32.2783 36.481C32.2249 36.6133 32.0966 36.7 31.954 36.7Z" fill="black"/>
<path d="M46.2499 32.8501H32.25C32.0568 32.8501 31.8999 32.6932 31.8999 32.5C31.8999 32.3068 32.0568 32.1499 32.25 32.1499H46.2499C46.4433 32.1499 46.6 32.3068 46.6 32.5C46.6 32.6932 46.4433 32.8501 46.2499 32.8501Z" fill="black"/>
<path d="M30.4999 32.8501H28.75C28.5566 32.8501 28.3999 32.6932 28.3999 32.5C28.3999 32.3068 28.5566 32.1499 28.75 32.1499H30.4999C30.6933 32.1499 30.8499 32.3068 30.8499 32.5C30.8499 32.6932 30.6933 32.8501 30.4999 32.8501Z" fill="black"/>
<path d="M42.4 37.3999H41.7C41.3137 37.3996 41.0005 37.0863 41 36.6999V35.9999C41.0005 35.6136 41.3137 35.3004 41.7 35.2999H42.4C42.7864 35.3004 43.0996 35.6136 43.1001 35.9999V36.6999C43.0996 37.0863 42.7864 37.3996 42.4 37.3999ZM41.7 35.9999V36.6999H42.4005L42.4 35.9999H41.7Z" fill="black"/>
<path d="M41.7 38.8001H41.3501C41.1567 38.8001 41 38.6434 41 38.45C41 38.2568 41.1567 38.1001 41.3501 38.1001H41.7C41.8934 38.1001 42.0501 38.2568 42.0501 38.45C42.0501 38.6434 41.8934 38.8001 41.7 38.8001Z" fill="black"/>
<path d="M42.05 31.4499C40.5035 31.4499 39.25 30.1964 39.25 28.6499C39.25 27.1035 40.5035 25.85 42.05 25.85C43.5964 25.85 44.8499 27.1035 44.8499 28.6499C44.8482 30.1955 43.5956 31.4481 42.05 31.4499ZM42.05 26.55C40.8901 26.55 39.95 27.4901 39.95 28.6499C39.95 29.8097 40.8901 30.7499 42.05 30.7499C43.2098 30.7499 44.1499 29.8097 44.1499 28.6499C44.1486 27.4908 43.2093 26.5512 42.05 26.55Z" fill="black"/>
<path d="M32.2499 31.4499C30.7035 31.4499 29.45 30.1964 29.45 28.6499C29.45 27.1035 30.7035 25.85 32.2499 25.85C33.7963 25.85 35.0499 27.1035 35.0499 28.6499C35.0481 30.1955 33.7955 31.4481 32.2499 31.4499ZM32.2499 26.55C31.0901 26.55 30.1499 27.4901 30.1499 28.6499C30.1499 29.8097 31.0901 30.7499 32.2499 30.7499C33.4097 30.7499 34.3499 29.8097 34.3499 28.6499C34.3486 27.4908 33.4092 26.5512 32.2499 26.55Z" fill="black"/>
<path d="M37.15 29.0001H32.5981C32.3426 28.9991 32.1078 28.8593 31.9858 28.635C31.8635 28.4107 31.8731 28.1376 32.0109 27.9225L34.7538 23.5636C34.8179 23.4619 34.9297 23.4 35.0501 23.4H39.9498C40.0745 23.4 40.1898 23.4665 40.2525 23.5743C40.3151 23.6823 40.3154 23.8153 40.2536 23.9236L37.454 28.8237C37.3916 28.9328 37.2756 29.0001 37.15 29.0001ZM35.2433 24.1L32.6021 28.2974L36.947 28.3001L39.3468 24.1H35.2433Z" fill="black"/>
<path d="M37.1501 29.0002C37.0102 29.0001 36.8837 28.9166 36.8285 28.7879L34.7286 23.8878L34.2904 23.0129C34.1819 22.796 34.1936 22.5382 34.3211 22.332C34.4487 22.1256 34.6739 22 34.9165 22H36.1002C36.2934 22 36.4501 22.1567 36.4501 22.3501C36.4501 22.5433 36.2934 22.7 36.1002 22.7H34.9165L35.3632 23.5935L37.4718 28.512C37.518 28.6202 37.5067 28.7443 37.442 28.8426C37.3773 28.9406 37.2677 28.9999 37.1501 29.0002Z" fill="black"/>
<path d="M42.0503 29.0002C41.9103 29.0001 41.7837 28.9166 41.7288 28.7879L39.6287 23.8878L39.1905 23.0129C39.0822 22.796 39.0937 22.5382 39.2212 22.332C39.3488 22.1256 39.5742 22 39.8168 22H41.0003C41.1937 22 41.3504 22.1567 41.3504 22.3501C41.3504 22.5433 41.1937 22.7 41.0003 22.7H39.8168L40.2634 23.5935L42.3719 28.512C42.418 28.6202 42.4068 28.7443 42.3423 28.8426C42.2775 28.9406 42.1679 28.9999 42.0503 29.0002Z" fill="black"/>
<path d="M47.3 43H27.7C27.3135 42.9995 27.0005 42.6864 27 42.3V41.6C27.0005 41.2136 27.3135 40.9005 27.7 40.9H47.3C47.6865 40.9005 47.9995 41.2136 48 41.6V42.3C47.9995 42.6864 47.6865 42.9995 47.3 43ZM27.7 41.6V42.3H47.3003L47.3 41.6H27.7Z" fill="black"/>
</g>
<defs>
<filter id="filter0_d" x="0" y="0" width="76" height="76" filterUnits="userSpaceOnUse" color-interpolation-filters="sRGB">
<feFlood flood-opacity="0" result="BackgroundImageFix"/>
<feColorMatrix in="SourceAlpha" type="matrix" values="0 0 0 0 0 0 0 0 0 0 0 0 0 0 0 0 0 0 127 0"/>
<feOffset dy="4"/>
<feGaussianBlur stdDeviation="10"/>
<feColorMatrix type="matrix" values="0 0 0 0 0 0 0 0 0 0 0 0 0 0 0 0 0 0 0.25 0"/>
<feBlend mode="normal" in2="BackgroundImageFix" result="effect1_dropShadow"/>
<feBlend mode="normal" in="SourceGraphic" in2="effect1_dropShadow" result="shape"/>
</filter>
<clipPath id="clip0">
<rect x="27" y="22" width="21" height="21" fill="white"/>
</clipPath>
</defs>
</svg>
