<svg width="76" height="76" viewBox="0 0 76 76" fill="none" xmlns="http://www.w3.org/2000/svg">
<g filter="url(#filter0_d)">
<circle cx="38" cy="34" r="18" fill="white"/>
</g>
<g clip-path="url(#clip0)">
<path d="M35.3529 38.9141C35.3529 41.415 33.3256 43.4424 30.8246 43.4424C28.3237 43.4424 26.2964 41.415 26.2964 38.9141C26.2964 36.4132 28.3237 34.3857 30.8246 34.3857C33.3256 34.3857 35.3529 36.4132 35.3529 38.9141Z" fill="#BAEEC3"/>
<path d="M48.6134 38.9141C48.6134 41.415 46.5861 43.4424 44.0852 43.4424C41.5842 43.4424 39.5569 41.415 39.5569 38.9141C39.5569 36.4132 41.5842 34.3857 44.0852 34.3857C46.5861 34.3857 48.6134 36.4132 48.6134 38.9141Z" fill="#BAEEC3"/>
<path d="M32.7033 35.1428L29.2856 42.3219C29.811 42.6328 30.4129 42.8095 31.0527 42.8095C33.1012 42.8095 34.7618 40.9987 34.7618 38.7649C34.7618 37.1778 33.9232 35.8051 32.7033 35.1428Z" fill="#9FD7C5"/>
<path d="M45.8461 35.1428L42.4285 42.3219C42.9538 42.6328 43.5558 42.8095 44.1956 42.8095C46.244 42.8095 47.9047 40.9987 47.9047 38.7649C47.9047 37.1778 47.066 35.8051 45.8461 35.1428Z" fill="#9FD7C5"/>
<path d="M44.0853 34.0442C43.403 34.0442 42.7534 34.1853 42.1635 34.4397L40.7021 31.6044H42.7443C42.9865 31.6044 43.1835 31.8013 43.1835 32.0434C43.1835 32.2856 42.9865 32.4827 42.7443 32.4827H42.3279C42.1393 32.4827 41.9863 32.6357 41.9863 32.8243C41.9863 33.0129 42.1393 33.1658 42.3279 33.1658H42.7443C43.3632 33.1658 43.8667 32.6623 43.8667 32.0434C43.8667 31.4247 43.3632 30.9213 42.7443 30.9213H40.1418C40.0227 30.9213 39.9121 30.9832 39.8502 31.085C39.7881 31.1866 39.7837 31.3135 39.8382 31.4193L40.574 32.8471H34.7233L34.0893 31.6044H35.093C35.2816 31.6044 35.4347 31.4514 35.4347 31.2627C35.4347 31.0741 35.2816 30.9213 35.093 30.9213H32.4905C32.3019 30.9213 32.149 31.0741 32.149 31.2627C32.149 31.4514 32.3019 31.6044 32.4905 31.6044H33.3223L34.1232 33.1742L33.1719 34.6482C32.4753 34.2634 31.6753 34.0442 30.8249 34.0442C28.1398 34.0442 25.9551 36.2287 25.9551 38.914C25.9551 39.6065 26.0976 40.2756 26.3785 40.9027C26.4555 41.0749 26.6575 41.1519 26.8298 41.0749C27.002 40.9978 27.079 40.7957 27.002 40.6235C26.7607 40.0846 26.6382 39.5096 26.6382 38.914C26.6382 36.6055 28.5163 34.7273 30.8249 34.7273C31.5389 34.7273 32.2117 34.907 32.8004 35.2236L30.538 38.7287C30.4701 38.8338 30.4652 38.9676 30.525 39.0774C30.5848 39.1873 30.7 39.2555 30.8249 39.2555H34.9977C34.8233 41.4049 33.0185 43.1007 30.8249 43.1007C29.5745 43.1007 28.3989 42.548 27.6 41.5841C27.4794 41.4388 27.2641 41.4186 27.119 41.5392C26.9737 41.6595 26.9535 41.8749 27.0739 42.0201C28.0031 43.1411 29.3704 43.7839 30.8249 43.7839C33.3953 43.7839 35.5068 41.7822 35.6826 39.2557H36.9729L36.4938 40.8145C36.4914 40.8222 36.4898 40.8299 36.4879 40.8376H36.1855C35.9969 40.8376 35.8439 40.9906 35.8439 41.1793C35.8439 41.3679 35.9969 41.5209 36.1855 41.5209H37.6139C37.8025 41.5209 37.9556 41.3679 37.9556 41.1793C37.9556 40.9906 37.8025 40.8376 37.6139 40.8376H37.2014L37.7478 39.0599L41.1052 33.8775L41.5565 34.7535C40.1538 35.6091 39.2153 37.154 39.2153 38.914C39.2153 41.5994 41.4 43.7839 44.0851 43.7839C46.7704 43.7839 48.9551 41.5994 48.9551 38.914C48.9551 36.2287 46.7704 34.0442 44.0853 34.0442ZM34.4822 33.8777L36.8774 38.5724H35.6828C35.5817 37.1219 34.843 35.8444 33.7454 35.0193L34.4822 33.8777ZM33.3739 35.5949C34.2842 36.2958 34.8995 37.3621 34.9977 38.5724H31.4521L33.3739 35.5949ZM37.4705 38.2314L35.072 33.5302H40.5163L37.4705 38.2314ZM44.0853 43.1007C41.7767 43.1007 39.8984 41.2226 39.8984 38.914C39.8984 37.4181 40.6872 36.1031 41.8706 35.3626L43.7816 39.0706C43.8423 39.1881 43.9616 39.2557 44.0855 39.2557C44.1381 39.2557 44.1916 39.2434 44.2417 39.2176C44.4094 39.1313 44.4752 38.9253 44.3889 38.7575L42.4772 35.0485C42.9726 34.8416 43.5157 34.7272 44.0851 34.7272C46.3937 34.7272 48.272 36.6053 48.272 38.9139C48.272 41.2224 46.3939 43.1007 44.0853 43.1007Z" fill="black"/>
<path d="M33.3431 25.6411C35.6104 23.374 39.2993 23.374 41.5666 25.6411C41.6333 25.7078 41.7207 25.7413 41.8081 25.7413C41.8955 25.7413 41.9831 25.708 42.0497 25.6411C42.1831 25.5078 42.1831 25.2914 42.0497 25.1582C40.8242 23.9327 39.1924 23.2578 37.4549 23.2578C35.7173 23.2578 34.0856 23.9327 32.86 25.1582C32.7267 25.2916 32.7267 25.5078 32.86 25.6411C32.9934 25.7747 33.2098 25.7747 33.3431 25.6411Z" fill="#2F373D"/>
<path d="M40.6968 26.8525C40.7842 26.8525 40.8716 26.8192 40.9382 26.7525C41.0716 26.6191 41.0716 26.4028 40.9382 26.2694C40.436 25.7672 39.8459 25.3873 39.1844 25.1404C39.0077 25.0742 38.8108 25.1641 38.7448 25.3408C38.6788 25.5175 38.7687 25.7144 38.9454 25.7804C39.5146 25.9929 40.0226 26.32 40.4552 26.7525C40.5218 26.8192 40.6092 26.8525 40.6968 26.8525Z" fill="#2F373D"/>
<path d="M37.7771 25.5241C37.9652 25.538 38.1291 25.3972 38.1433 25.2091C38.1575 25.0212 38.0164 24.8571 37.8283 24.8429C36.3921 24.7348 34.9865 25.2546 33.9714 26.2695C33.838 26.4031 33.838 26.6192 33.9714 26.7526C34.038 26.8193 34.1256 26.8526 34.213 26.8526C34.3004 26.8526 34.3878 26.8193 34.4544 26.7526C35.3287 25.8786 36.5396 25.4306 37.7771 25.5241Z" fill="#2F373D"/>
<path d="M39.5855 27.9641C39.6729 27.9641 39.7603 27.9308 39.8269 27.8641C39.9605 27.7307 39.9605 27.5144 39.8269 27.381C38.5191 26.0732 36.3909 26.0732 35.0829 27.381C34.9496 27.5144 34.9496 27.7307 35.0829 27.8641C35.2165 27.9975 35.4327 27.9975 35.566 27.8641C36.0696 27.3605 36.7405 27.0831 37.455 27.0831C38.1694 27.0831 38.8402 27.3605 39.3439 27.8641C39.4105 27.9308 39.4981 27.9641 39.5855 27.9641Z" fill="#2F373D"/>
<path d="M36.1945 28.4924C36.0611 28.6258 36.0611 28.8422 36.1945 28.9755C36.3279 29.1089 36.5442 29.1089 36.6776 28.9755C36.8854 28.7678 37.1614 28.6533 37.4551 28.6533C37.7489 28.6533 38.0249 28.7678 38.2325 28.9755C38.2992 29.0422 38.3867 29.0755 38.4741 29.0755C38.5615 29.0755 38.6489 29.0422 38.7156 28.9755C38.8489 28.842 38.8489 28.6258 38.7156 28.4924C38.3788 28.1557 37.9312 27.9702 37.4551 27.9702C36.9789 27.9702 36.5312 28.1557 36.1945 28.4924Z" fill="#2F373D"/>
</g>
<defs>
<filter id="filter0_d" x="0" y="0" width="76" height="76" filterUnits="userSpaceOnUse" color-interpolation-filters="sRGB">
<feFlood flood-opacity="0" result="BackgroundImageFix"/>
<feColorMatrix in="SourceAlpha" type="matrix" values="0 0 0 0 0 0 0 0 0 0 0 0 0 0 0 0 0 0 127 0"/>
<feOffset dy="4"/>
<feGaussianBlur stdDeviation="10"/>
<feColorMatrix type="matrix" values="0 0 0 0 0 0 0 0 0 0 0 0 0 0 0 0 0 0 0.25 0"/>
<feBlend mode="normal" in2="BackgroundImageFix" result="effect1_dropShadow"/>
<feBlend mode="normal" in="SourceGraphic" in2="effect1_dropShadow" result="shape"/>
</filter>
<clipPath id="clip0">
<rect x="26" y="22" width="23" height="23" fill="white"/>
</clipPath>
</defs>
</svg>
