<svg width="76" height="76" viewBox="0 0 76 76" fill="none" xmlns="http://www.w3.org/2000/svg">
<g filter="url(#filter0_d)">
<circle cx="38" cy="34" r="18" fill="white"/>
</g>
<path d="M42.5159 41.0968V42.8172H41.2256V41.0968L41.8707 40.0813L42.5159 41.0968Z" fill="#69A8FF"/>
<path d="M34.7741 41.0968V42.8172H33.4838V41.0968L34.1289 40.0813L34.7741 41.0968Z" fill="#69A8FF"/>
<path d="M34.7741 41.0967V35.4193C34.7741 34.1954 34.206 33.1045 33.3193 32.3951L30.5833 30.21C29.9665 29.7166 29.6128 28.9816 29.6128 28.1934C29.6128 26.7705 30.7705 25.6128 32.1934 25.6128C32.7856 25.6128 33.3423 25.8078 33.8035 26.1768L40.2552 31.3381C40.872 31.8316 41.2257 32.5666 41.2257 33.3547V41.0967H42.516V33.3548C42.516 32.1309 41.9479 31.04 41.0612 30.3306L34.6097 25.1693C33.9474 24.6395 33.1075 24.3225 32.1935 24.3225C30.0556 24.3225 28.3225 26.0556 28.3225 28.1935C28.3225 29.4173 28.8906 30.5083 29.7773 31.2177L32.5133 33.4027C33.1301 33.8962 33.4838 34.6312 33.4838 35.4193V41.0968H34.7741V41.0967Z" fill="#9BC5FF"/>
<path d="M47.6774 41.0968V42.8172H46.3871V41.0968L47.0322 40.0813L47.6774 41.0968Z" fill="#9BC5FF"/>
<path d="M47.6775 42.3871V43.6774H46.3872L45.3119 43.0322L46.3872 42.3871H47.6775Z" fill="#CDE2FF"/>
<path d="M39.9353 41.0968V42.8172H38.645V41.0968L39.2902 40.0813L39.9353 41.0968Z" fill="#9BC5FF"/>
<path d="M46.387 42.3871H28.3225V43.6774H46.387V42.3871Z" fill="#E6F1FF"/>
<path d="M39.9354 41.0967V35.4193C39.9354 34.1954 39.3673 33.1045 38.4806 32.3951L35.7445 30.21C35.1278 29.7166 34.774 28.9816 34.774 28.1934C34.774 26.7705 35.9317 25.6128 37.3547 25.6128C37.9469 25.6128 38.5036 25.8078 38.9648 26.1768L45.4164 31.3381C46.0333 31.8316 46.387 32.5666 46.387 33.3547V41.0967H47.6773V33.3548C47.6773 32.1309 47.1092 31.04 46.2225 30.3306L39.7709 25.1693C39.1087 24.6395 38.2688 24.3225 37.3547 24.3225C35.2169 24.3225 33.4838 26.0556 33.4838 28.1935C33.4838 29.4173 34.0519 30.5083 34.9386 31.2177L37.6745 33.4027C38.2913 33.8962 38.6451 34.6312 38.6451 35.4193V41.0968H39.9354V41.0967Z" fill="#CDE2FF"/>
<path d="M40.9032 41.0968C40.9032 41.275 41.0476 41.4194 41.2258 41.4194C41.404 41.4194 41.5484 41.275 41.5484 41.0968V33.3549C41.5484 32.4682 41.1505 31.6414 40.4568 31.0864L36.2806 27.7455C36.1415 27.6342 35.9385 27.6568 35.8272 27.7959C35.7159 27.935 35.7384 28.138 35.8775 28.2493L40.0536 31.5902C40.5936 32.0221 40.9032 32.6653 40.9032 33.3549V41.0968H40.9032Z" fill="black"/>
<path d="M46.4241 30.0788L39.9725 24.9175C39.233 24.3259 38.3034 24 37.3548 24C36.3828 24 35.4869 24.3325 34.775 24.8898C34.0413 24.3161 33.1268 24 32.1936 24C29.8812 24 28 25.8812 28 28.1936C28 29.4743 28.5744 30.6684 29.5761 31.4698L32.3118 33.6547C32.8517 34.0866 33.1613 34.7298 33.1613 35.4194V41.0968C33.1613 41.275 33.3057 41.4194 33.4839 41.4194C33.662 41.4194 33.8064 41.275 33.8064 41.0968V35.4193C33.8064 34.5327 33.4086 33.7058 32.7146 33.1507L29.9789 30.9658C29.1313 30.2877 28.6452 29.2773 28.6452 28.1935C28.6452 26.237 30.237 24.6451 32.1936 24.6451C32.9587 24.6451 33.6811 24.8823 34.2921 25.3323C34.1451 25.4896 34.0099 25.6581 33.8882 25.8365C33.3932 25.4789 32.8105 25.2903 32.1936 25.2903C30.5927 25.2903 29.2904 26.5927 29.2904 28.1935C29.2904 29.0802 29.6882 29.907 30.3821 30.4621L33.1179 32.6471C33.9655 33.3252 34.4516 34.3356 34.4516 35.4193V42.0645H28.3226C28.1444 42.0645 28 42.2089 28 42.3871V43.6774C28 43.8556 28.1444 44 28.3226 44H47.6774C47.8556 44 48 43.8556 48 43.6774V33.3548C48 32.074 47.4256 30.88 46.4241 30.0788ZM33.5207 32.1431L30.785 29.9582C30.2451 29.5263 29.9355 28.8831 29.9355 28.1935C29.9355 26.9484 30.9484 25.9355 32.1936 25.9355C32.6958 25.9355 33.1687 26.0963 33.5647 26.4001C33.3062 26.9442 33.1613 27.5522 33.1613 28.1936C33.1613 29.4743 33.7357 30.6684 34.7374 31.4698L37.4731 33.6547C38.013 34.0866 38.3226 34.7298 38.3226 35.4194V42.0645H35.0968V35.4193C35.0968 34.1386 34.5224 32.9445 33.5207 32.1431ZM47.3548 43.3548H28.6452V42.7097H47.3548V43.3548ZM38.682 32.1431L35.9462 29.9582C35.4064 29.5263 35.0968 28.8831 35.0968 28.1935C35.0968 26.9484 36.1097 25.9355 37.3548 25.9355C37.873 25.9355 38.36 26.1061 38.7634 26.4288L45.215 31.5901C45.7549 32.022 46.0645 32.6652 46.0645 33.3548V42.0645H42.8387V33.3548C42.8387 32.074 42.2643 30.88 41.2628 30.0788L37.0884 26.7393C36.9493 26.6279 36.7463 26.6505 36.635 26.7896C36.5237 26.9287 36.5463 27.1317 36.6854 27.243L40.8597 30.5826C41.7074 31.2606 42.1935 32.2711 42.1935 33.3548V42.0645H40.258V35.4193C40.258 34.1386 39.6837 32.9445 38.682 32.1431ZM47.3548 42.0645H46.7097V33.3548C46.7097 32.4682 46.3118 31.6413 45.6181 31.0864L39.1664 25.925C38.6474 25.5098 38.021 25.2903 37.3548 25.2903C35.754 25.2903 34.4516 26.5927 34.4516 28.1936C34.4516 29.0802 34.8495 29.9071 35.5434 30.4622L38.2791 32.6471C39.1268 33.3252 39.6129 34.3356 39.6129 35.4194V42.0645H38.9677V35.4193C38.9677 34.5327 38.5698 33.7058 37.8759 33.1507L35.1402 30.9658C34.2925 30.2877 33.8064 29.2772 33.8064 28.1935C33.8064 26.237 35.3982 24.6451 37.3548 24.6451C38.1691 24.6451 38.9348 24.9135 39.5695 25.4212L46.0211 30.5826C46.8687 31.2606 47.3548 32.2711 47.3548 33.3548V42.0645Z" fill="black"/>
<defs>
<filter id="filter0_d" x="0" y="0" width="76" height="76" filterUnits="userSpaceOnUse" color-interpolation-filters="sRGB">
<feFlood flood-opacity="0" result="BackgroundImageFix"/>
<feColorMatrix in="SourceAlpha" type="matrix" values="0 0 0 0 0 0 0 0 0 0 0 0 0 0 0 0 0 0 127 0"/>
<feOffset dy="4"/>
<feGaussianBlur stdDeviation="10"/>
<feColorMatrix type="matrix" values="0 0 0 0 0 0 0 0 0 0 0 0 0 0 0 0 0 0 0.25 0"/>
<feBlend mode="normal" in2="BackgroundImageFix" result="effect1_dropShadow"/>
<feBlend mode="normal" in="SourceGraphic" in2="effect1_dropShadow" result="shape"/>
</filter>
</defs>
</svg>
