<svg width="23" height="23" viewBox="0 0 23 23" fill="none" xmlns="http://www.w3.org/2000/svg">
<g clip-path="url(#clip0)">
<path d="M9.3529 16.9141C9.3529 19.415 7.32562 21.4424 4.82456 21.4424C2.32367 21.4424 0.296387 19.415 0.296387 16.9141C0.296387 14.4132 2.32367 12.3857 4.82456 12.3857C7.32562 12.3857 9.3529 14.4132 9.3529 16.9141Z" fill="#BAEEC3"/>
<path d="M22.6134 16.9141C22.6134 19.415 20.5861 21.4424 18.0852 21.4424C15.5842 21.4424 13.5569 19.415 13.5569 16.9141C13.5569 14.4132 15.5842 12.3857 18.0852 12.3857C20.5861 12.3857 22.6134 14.4132 22.6134 16.9141Z" fill="#BAEEC3"/>
<path d="M6.70331 13.1428L3.28564 20.3219C3.81099 20.6328 4.41293 20.8095 5.05274 20.8095C7.10122 20.8095 8.76184 18.9987 8.76184 16.7649C8.76184 15.1778 7.92321 13.8051 6.70331 13.1428Z" fill="#9FD7C5"/>
<path d="M19.8461 13.1428L16.4285 20.3219C16.9538 20.6328 17.5558 20.8095 18.1956 20.8095C20.244 20.8095 21.9047 18.9987 21.9047 16.7649C21.9047 15.1778 21.066 13.8051 19.8461 13.1428Z" fill="#9FD7C5"/>
<path d="M18.0853 12.0442C17.403 12.0442 16.7534 12.1853 16.1635 12.4397L14.7021 9.60439H16.7443C16.9865 9.60439 17.1835 9.80128 17.1835 10.0434C17.1835 10.2856 16.9865 10.4827 16.7443 10.4827H16.3279C16.1393 10.4827 15.9863 10.6357 15.9863 10.8243C15.9863 11.0129 16.1393 11.1658 16.3279 11.1658H16.7443C17.3632 11.1658 17.8667 10.6623 17.8667 10.0434C17.8667 9.42471 17.3632 8.92126 16.7443 8.92126H14.1418C14.0227 8.92126 13.9121 8.98321 13.8502 9.08498C13.7881 9.18658 13.7837 9.31345 13.8382 9.41927L14.574 10.8471H8.72328L8.08929 9.60439H9.09301C9.28165 9.60439 9.43467 9.45138 9.43467 9.26274C9.43467 9.0741 9.28165 8.92126 9.09301 8.92126H6.49052C6.30188 8.92126 6.14904 9.0741 6.14904 9.26274C6.14904 9.45138 6.30188 9.60439 6.49052 9.60439H7.32228L8.12315 11.1742L7.1719 12.6482C6.47526 12.2634 5.67526 12.0442 4.8249 12.0442C2.13976 12.0442 -0.0449219 14.2287 -0.0449219 16.914C-0.0449219 17.6065 0.097565 18.2756 0.378503 18.9027C0.455537 19.0749 0.65751 19.1519 0.829828 19.0749C1.00197 18.9978 1.079 18.7957 1.00197 18.6235C0.76069 18.0846 0.638208 17.5096 0.638208 16.914C0.638208 14.6055 2.51633 12.7273 4.8249 12.7273C5.53891 12.7273 6.21169 12.907 6.80041 13.2236L4.538 16.7287C4.47009 16.8338 4.46517 16.9676 4.52501 17.0774C4.58485 17.1873 4.69996 17.2555 4.8249 17.2555H8.99773C8.82331 19.4049 7.01853 21.1007 4.8249 21.1007C3.57445 21.1007 2.39894 20.548 1.59999 19.5841C1.47944 19.4388 1.26413 19.4186 1.11901 19.5392C0.973719 19.6595 0.953539 19.8749 1.07392 20.0201C2.00306 21.1411 3.37038 21.7839 4.8249 21.7839C7.39528 21.7839 9.50679 19.7822 9.68261 17.2557H10.9729L10.4938 18.8145C10.4914 18.8222 10.4898 18.8299 10.4879 18.8376H10.1855C9.99689 18.8376 9.84388 18.9906 9.84388 19.1793C9.84388 19.3679 9.99689 19.5209 10.1855 19.5209H11.6139C11.8025 19.5209 11.9556 19.3679 11.9556 19.1793C11.9556 18.9906 11.8025 18.8376 11.6139 18.8376H11.2014L11.7478 17.0599L15.1052 11.8775L15.5565 12.7535C14.1538 13.6091 13.2153 15.154 13.2153 16.914C13.2153 19.5994 15.4 21.7839 18.0851 21.7839C20.7704 21.7839 22.9551 19.5994 22.9551 16.914C22.9551 14.2287 20.7704 12.0442 18.0853 12.0442ZM8.48218 11.8777L10.8774 16.5724H9.68279C9.58171 15.1219 8.84296 13.8444 7.74535 13.0193L8.48218 11.8777ZM7.37387 13.5949C8.28424 14.2958 8.89946 15.3621 8.99773 16.5724H5.45205L7.37387 13.5949ZM11.4705 16.2314L9.07196 11.5302H14.5163L11.4705 16.2314ZM18.0853 21.1007C15.7767 21.1007 13.8984 19.2226 13.8984 16.914C13.8984 15.4181 14.6872 14.1031 15.8706 13.3626L17.7816 17.0706C17.8423 17.1881 17.9616 17.2557 18.0855 17.2557C18.1381 17.2557 18.1916 17.2434 18.2417 17.2176C18.4094 17.1313 18.4752 16.9253 18.3889 16.7575L16.4772 13.0485C16.9726 12.8416 17.5157 12.7272 18.0851 12.7272C20.3937 12.7272 22.272 14.6053 22.272 16.9139C22.272 19.2224 20.3939 21.1007 18.0853 21.1007Z" fill="black"/>
<path d="M7.34312 3.64114C9.61045 1.37398 13.2993 1.37398 15.5666 3.64114C15.6333 3.70782 15.7207 3.74133 15.8081 3.74133C15.8955 3.74133 15.9831 3.70799 16.0497 3.64114C16.1831 3.50777 16.1831 3.29141 16.0497 3.15823C14.8242 1.9327 13.1924 1.25781 11.4549 1.25781C9.71731 1.25781 8.08556 1.9327 6.86003 3.15823C6.72667 3.29159 6.72667 3.50777 6.86003 3.64114C6.99339 3.77467 7.20976 3.77467 7.34312 3.64114Z" fill="#2F373D"/>
<path d="M14.6968 4.85253C14.7842 4.85253 14.8716 4.81919 14.9382 4.7525C15.0716 4.61914 15.0716 4.40278 14.9382 4.26942C14.436 3.76721 13.8459 3.3873 13.1844 3.1404C13.0077 3.07425 12.8108 3.16409 12.7448 3.3408C12.6788 3.5175 12.7687 3.71439 12.9454 3.78037C13.5146 3.99287 14.0226 4.31996 14.4552 4.7525C14.5218 4.81919 14.6092 4.85253 14.6968 4.85253Z" fill="#2F373D"/>
<path d="M11.7771 3.5241C11.9652 3.53796 12.1291 3.39723 12.1433 3.20912C12.1575 3.02118 12.0164 2.85711 11.8283 2.8429C10.3921 2.73481 8.98649 3.25457 7.97136 4.26952C7.838 4.40306 7.838 4.61925 7.97136 4.75261C8.03804 4.81929 8.1256 4.85263 8.21299 4.85263C8.30038 4.85263 8.38776 4.81929 8.45445 4.75261C9.32867 3.87856 10.5396 3.43057 11.7771 3.5241Z" fill="#2F373D"/>
<path d="M13.5855 5.96412C13.6729 5.96412 13.7603 5.93078 13.8269 5.8641C13.9605 5.73074 13.9605 5.51438 13.8269 5.38102C12.5191 4.07319 10.3909 4.07319 9.08293 5.38102C8.94957 5.51438 8.94957 5.73074 9.08293 5.8641C9.21647 5.99746 9.43266 5.99746 9.56602 5.8641C10.0696 5.36049 10.7405 5.08306 11.455 5.08306C12.1694 5.08306 12.8402 5.36049 13.3439 5.8641C13.4105 5.93078 13.4981 5.96412 13.5855 5.96412Z" fill="#2F373D"/>
<path d="M10.1945 6.49243C10.0611 6.62579 10.0611 6.84215 10.1945 6.97551C10.3279 7.10888 10.5442 7.10888 10.6776 6.97551C10.8854 6.76775 11.1614 6.65334 11.4551 6.65334C11.7489 6.65334 12.0249 6.76775 12.2325 6.97551C12.2992 7.04219 12.3867 7.07553 12.4741 7.07553C12.5615 7.07553 12.6489 7.04219 12.7156 6.97551C12.8489 6.84198 12.8489 6.62579 12.7156 6.49243C12.3788 6.15569 11.9312 5.97021 11.4551 5.97021C10.9789 5.97021 10.5312 6.15569 10.1945 6.49243Z" fill="#2F373D"/>
</g>
<defs>
<clipPath id="clip0">
<rect width="23" height="23" fill="white"/>
</clipPath>
</defs>
</svg>
