<svg width="21" height="20" viewBox="0 0 21 20" fill="none" xmlns="http://www.w3.org/2000/svg">
<g clip-path="url(#clip0)">
<path d="M15.0159 17.0968V18.8172H13.7256V17.0968L14.3707 16.0813L15.0159 17.0968Z" fill="#69A8FF"/>
<path d="M7.27408 17.0968V18.8172H5.98376V17.0968L6.62892 16.0813L7.27408 17.0968Z" fill="#69A8FF"/>
<path d="M7.27411 17.0967V11.4193C7.27411 10.1954 6.70603 9.10446 5.81931 8.39509L3.08329 6.21001C2.46653 5.71657 2.11278 4.98157 2.11278 4.19345C2.11278 2.77048 3.27048 1.61278 4.69345 1.61278C5.2856 1.61278 5.84231 1.80778 6.30353 2.17677L12.7552 7.3381C13.372 7.83157 13.7257 8.56657 13.7257 9.3547V17.0967H15.016V9.35478C15.016 8.13095 14.4479 7.03997 13.5612 6.3306L7.10966 1.16931C6.44743 0.639502 5.60755 0.32251 4.69349 0.32251C2.5556 0.32251 0.82251 2.0556 0.82251 4.19349C0.82251 5.41732 1.3906 6.50829 2.27731 7.21767L5.01325 9.40275C5.63009 9.89622 5.9838 10.6312 5.9838 11.4193V17.0968H7.27411V17.0967Z" fill="#9BC5FF"/>
<path d="M20.1774 17.0968V18.8172H18.8871V17.0968L19.5322 16.0813L20.1774 17.0968Z" fill="#9BC5FF"/>
<path d="M20.1775 18.3871V19.6774H18.8872L17.8119 19.0322L18.8872 18.3871H20.1775Z" fill="#CDE2FF"/>
<path d="M12.4353 17.0968V18.8172H11.145V17.0968L11.7902 16.0813L12.4353 17.0968Z" fill="#9BC5FF"/>
<path d="M18.887 18.3871H0.82251V19.6774H18.887V18.3871Z" fill="#E6F1FF"/>
<path d="M12.4354 17.0967V11.4193C12.4354 10.1954 11.8673 9.10446 10.9806 8.39509L8.24455 6.21001C7.62779 5.71657 7.27404 4.98157 7.27404 4.19345C7.27404 2.77048 8.43173 1.61278 9.8547 1.61278C10.4469 1.61278 11.0036 1.80778 11.4648 2.17677L17.9164 7.3381C18.5333 7.83157 18.887 8.56657 18.887 9.3547V17.0967H20.1773V9.35478C20.1773 8.13095 19.6092 7.03997 18.7225 6.3306L12.2709 1.16931C11.6087 0.639502 10.7688 0.32251 9.85474 0.32251C7.71685 0.32251 5.98376 2.0556 5.98376 4.19349C5.98376 5.41732 6.55185 6.50829 7.43857 7.21767L10.1745 9.40275C10.7913 9.89622 11.1451 10.6312 11.1451 11.4193V17.0968H12.4354V17.0967Z" fill="#CDE2FF"/>
<path d="M13.4032 17.0968C13.4032 17.275 13.5476 17.4194 13.7258 17.4194C13.904 17.4194 14.0484 17.275 14.0484 17.0968V9.35487C14.0484 8.46819 13.6505 7.64136 12.9568 7.0864L8.78063 3.7455C8.64153 3.63417 8.43848 3.65683 8.32719 3.79585C8.21586 3.93495 8.23844 4.13796 8.37754 4.24929L12.5536 7.59019C13.0936 8.0221 13.4032 8.66526 13.4032 9.35487V17.0968H13.4032Z" fill="black"/>
<path d="M18.9241 6.07879L12.4725 0.9175C11.733 0.325859 10.8034 0 9.85484 0C8.88277 0 7.98691 0.3325 7.27496 0.889766C6.54133 0.316094 5.6268 0 4.69355 0C2.38121 0 0.5 1.88121 0.5 4.19355C0.5 5.47434 1.07438 6.66844 2.07609 7.46977L4.81184 9.65469C5.35168 10.0866 5.66129 10.7298 5.66129 11.4194V17.0968C5.66129 17.275 5.8057 17.4194 5.98387 17.4194C6.16203 17.4194 6.30645 17.275 6.30645 17.0968V11.4193C6.30645 10.5327 5.90859 9.70582 5.21461 9.1507L2.47887 6.96578C1.63125 6.28766 1.14516 5.27727 1.14516 4.19352C1.14516 2.23695 2.73695 0.645117 4.69355 0.645117C5.45871 0.645117 6.18109 0.882266 6.79215 1.33227C6.64508 1.48957 6.50992 1.65809 6.3882 1.83652C5.8932 1.47891 5.31051 1.29027 4.69359 1.29027C3.09273 1.29027 1.79035 2.59266 1.79035 4.19352C1.79035 5.08019 2.1882 5.90703 2.88215 6.46215L5.61793 8.64707C6.46555 9.3252 6.95164 10.3356 6.95164 11.4193V18.0645H0.822578C0.644414 18.0645 0.5 18.2089 0.5 18.3871V19.6774C0.5 19.8556 0.644414 20 0.822578 20H20.1774C20.3556 20 20.5 19.8556 20.5 19.6774V9.35484C20.5 8.07402 19.9256 6.87996 18.9241 6.07879ZM6.0207 8.14313L3.28496 5.9582C2.74512 5.52633 2.43551 4.88312 2.43551 4.19352C2.43551 2.94844 3.44844 1.93547 4.69355 1.93547C5.19582 1.93547 5.66871 2.09625 6.06469 2.40012C5.80621 2.94418 5.66129 3.55219 5.66129 4.19355C5.66129 5.47434 6.23566 6.66844 7.23738 7.46977L9.97312 9.65469C10.513 10.0866 10.8226 10.7298 10.8226 11.4194V18.0645H7.59676V11.4193C7.59676 10.1386 7.02242 8.94449 6.0207 8.14313ZM19.8548 19.3548H1.14516V18.7097H19.8548V19.3548ZM11.182 8.14313L8.44625 5.9582C7.90641 5.52633 7.5968 4.88312 7.5968 4.19352C7.5968 2.94844 8.60973 1.93547 9.85484 1.93547C10.373 1.93547 10.86 2.10605 11.2634 2.42879L17.715 7.59012C18.2549 8.02203 18.5645 8.6652 18.5645 9.3548V18.0645H15.3387V9.35484C15.3387 8.07402 14.7643 6.87996 13.7628 6.07879L9.58844 2.73926C9.4493 2.62793 9.24633 2.65051 9.135 2.78961C9.02367 2.92871 9.04625 3.13172 9.18535 3.24305L13.3597 6.58258C14.2074 7.26063 14.6935 8.27109 14.6935 9.35484V18.0645H12.758V11.4193C12.758 10.1386 12.1837 8.94449 11.182 8.14313ZM19.8548 18.0645H19.2097V9.35484C19.2097 8.46816 18.8118 7.64133 18.1181 7.08637L11.6664 1.92504C11.1474 1.5098 10.521 1.29031 9.85484 1.29031C8.25398 1.29031 6.9516 2.5927 6.9516 4.19355C6.9516 5.08023 7.34945 5.90707 8.0434 6.46219L10.7791 8.64711C11.6268 9.32516 12.1129 10.3356 12.1129 11.4194V18.0645H11.4677V11.4193C11.4677 10.5327 11.0698 9.70582 10.3759 9.1507L7.64016 6.96578C6.79254 6.28766 6.30645 5.27723 6.30645 4.19352C6.30645 2.23695 7.89824 0.645117 9.85484 0.645117C10.6691 0.645117 11.4348 0.913516 12.0695 1.42125L18.5211 6.58258C19.3687 7.26063 19.8548 8.27109 19.8548 9.35484V18.0645Z" fill="black"/>
</g>
<defs>
<clipPath id="clip0">
<rect width="20" height="20" fill="white" transform="translate(0.5)"/>
</clipPath>
</defs>
</svg>
