<svg width="23" height="24" viewBox="0 0 23 24" fill="none" xmlns="http://www.w3.org/2000/svg">
<g clip-path="url(#clip0)">
<path d="M22.5508 12C22.5508 18.1032 17.6032 23.0508 11.5 23.0508C5.39677 23.0508 0.449219 18.1032 0.449219 12C0.449219 5.89677 5.39677 0.949219 11.5 0.949219C17.6032 0.949219 22.5508 5.89677 22.5508 12Z" fill="#F9F9F9"/>
<path d="M22.5508 12C22.5508 18.1032 17.6032 23.0508 11.5 23.0508C5.39677 23.0508 0.449219 18.1032 0.449219 12C0.449219 5.89677 5.39677 0.949219 11.5 0.949219C17.6032 0.949219 22.5508 5.89677 22.5508 12Z" fill="#587CFC"/>
<path d="M11.5 21.2539C6.39733 21.2539 2.24609 17.1027 2.24609 12C2.24609 6.89733 6.39733 2.74609 11.5 2.74609C16.6027 2.74609 20.7539 6.89733 20.7539 12C20.7539 17.1027 16.6027 21.2539 11.5 21.2539Z" fill="#F9F9F9"/>
<path d="M19.6317 3.86826C17.4597 1.69622 14.5717 0.5 11.5 0.5C9.55011 0.5 7.62286 0.99765 5.92653 1.93943C5.70964 2.05981 5.63138 2.3332 5.75175 2.55026C5.87213 2.76715 6.1457 2.84541 6.36259 2.72486C7.9259 1.85713 9.70225 1.39844 11.5 1.39844C14.3318 1.39844 16.9942 2.50113 18.9965 4.50349C20.9989 6.50584 22.1016 9.16817 22.1016 12C22.1016 14.8318 20.9989 17.4942 18.9965 19.4965C16.9942 21.4989 14.3318 22.6016 11.5 22.6016C8.66817 22.6016 6.00584 21.4989 4.00349 19.4965C2.00113 17.4942 0.898438 14.8318 0.898438 12C0.898438 9.51684 1.77512 7.10194 3.36686 5.20013C3.52619 5.00991 3.5011 4.72669 3.31071 4.56736C3.12049 4.4082 2.83727 4.4333 2.67794 4.62351C0.95108 6.68676 0 9.30644 0 12C0 15.0717 1.19622 17.9597 3.36826 20.1317C5.54031 22.3038 8.42829 23.5 11.5 23.5C14.5717 23.5 17.4597 22.3038 19.6317 20.1317C21.8038 17.9597 23 15.0717 23 12C23 8.92829 21.8038 6.04031 19.6317 3.86826V3.86826Z" fill="black"/>
<path d="M17.9249 19.2649C20.0081 17.4205 21.2031 14.7725 21.2031 12C21.2031 6.64973 16.8503 2.29688 11.5 2.29688C6.14973 2.29688 1.79688 6.64973 1.79688 12C1.79688 17.3503 6.14973 21.7031 11.5 21.7031C12.4235 21.7031 13.3388 21.5724 14.2208 21.3143C14.4589 21.2446 14.5954 20.9951 14.5257 20.757C14.4561 20.5188 14.2067 20.3821 13.9684 20.452C13.1686 20.6861 12.3381 20.8047 11.5 20.8047C6.6451 20.8047 2.69531 16.8549 2.69531 12C2.69531 7.1451 6.6451 3.19531 11.5 3.19531C16.3549 3.19531 20.3047 7.1451 20.3047 12C20.3047 14.5153 19.2202 16.9181 17.3293 18.5923C17.1435 18.7567 17.1261 19.0406 17.2907 19.2263C17.4551 19.4121 17.7391 19.4293 17.9249 19.2649V19.2649Z" fill="black"/>
<path d="M19.0199 13.736C19.0199 12.3316 17.8773 11.1891 16.473 11.1891C15.9806 11.1891 15.5209 11.3298 15.1308 11.5727L13.2567 9.49033L13.5185 8.28008H13.9111C14.2032 8.28008 14.4547 8.10144 14.5517 7.82507C14.6481 7.55062 14.5638 7.25617 14.3375 7.07508C14.148 6.92329 13.9098 6.84644 13.6298 6.84644C13.2078 6.84644 12.9117 7.007 12.7422 7.1358L11.9598 7.16773C11.9542 7.16791 11.9485 7.16826 11.9431 7.16879C11.6553 7.19125 11.43 7.43498 11.43 7.72346C11.43 8.03037 11.6795 8.28008 11.9864 8.28008H12.5994L12.4132 9.14079H8.31601L8.57326 8.15707C8.87525 8.08319 9.32587 8.18128 9.52925 8.25358C9.76228 8.33728 10.0194 8.21655 10.1036 7.98352C10.188 7.75014 10.0671 7.49254 9.8337 7.40831C9.72894 7.37041 8.87174 7.07719 8.17738 7.3418C7.76361 7.22897 7.41213 7.41322 7.36703 7.43849C7.15032 7.55922 7.07259 7.83296 7.19349 8.0495C7.28017 8.20532 7.446 8.28867 7.61288 8.27867L7.29965 9.47647C7.29948 9.47647 7.29948 9.47665 7.29948 9.47665L6.85043 11.1975C6.78498 11.1925 6.719 11.1891 6.65232 11.1891C5.24781 11.1891 4.10529 12.3316 4.10529 13.736C4.10529 15.1405 5.24781 16.283 6.65232 16.283C8.05666 16.283 9.19918 15.1405 9.19918 13.736C9.19918 12.7128 8.59221 11.8291 7.71974 11.4244L7.97085 10.4623L11.5613 14.0536C11.5716 14.0641 11.5827 14.0739 11.5941 14.0834C11.5972 14.0861 11.6007 14.0883 11.6039 14.0908C11.6123 14.0973 11.6206 14.1038 11.6295 14.1096C11.633 14.112 11.6365 14.114 11.6402 14.1161C11.6492 14.1217 11.6581 14.1273 11.6674 14.1324C11.6706 14.134 11.6737 14.1354 11.6769 14.1369C11.6869 14.142 11.6969 14.1469 11.7073 14.1512C11.7101 14.1524 11.7131 14.1533 11.716 14.1543C11.7267 14.1585 11.7374 14.1626 11.7485 14.1659C11.7518 14.1669 11.7553 14.1676 11.7588 14.1685C11.7694 14.1715 11.7799 14.1743 11.7908 14.1764C11.7968 14.1777 11.8029 14.1784 11.809 14.1792C11.8175 14.1806 11.8257 14.1822 11.8341 14.1829C11.8489 14.1845 11.864 14.1852 11.8789 14.1852H11.8792H13.9665C14.1794 15.376 15.2219 16.283 16.4728 16.283C17.8773 16.283 19.0199 15.1403 19.0199 13.736V13.736ZM8.30074 13.736C8.30074 14.6449 7.56129 15.3846 6.65232 15.3846C5.74335 15.3846 5.00372 14.6449 5.00372 13.736C5.00372 12.8384 5.72475 12.1067 6.61793 12.0884L6.21767 13.6226C6.15502 13.8627 6.29874 14.108 6.53879 14.1706C6.57687 14.1806 6.61512 14.1854 6.65267 14.1854C6.85201 14.1854 7.03433 14.0515 7.08697 13.8495L7.48724 12.3155C7.97348 12.6024 8.30074 13.1316 8.30074 13.736V13.736ZM15.4644 13.2868H14.8872C14.9306 13.1337 14.9955 12.9897 15.0787 12.8581L15.4644 13.2868ZM14.4633 12.1742C14.2146 12.4933 14.0406 12.8728 13.9665 13.2868H12.4357L13.0226 10.5732L14.4633 12.1742ZM11.6141 12.8356L8.81857 10.0392H12.2189L11.6141 12.8356ZM14.8872 14.1852H16.473C16.6504 14.1852 16.8112 14.0808 16.8835 13.9188C16.9556 13.7567 16.9256 13.5673 16.8069 13.4356L15.7462 12.2569C15.9657 12.1486 16.2123 12.0876 16.473 12.0876C17.382 12.0876 18.1214 12.827 18.1214 13.736C18.1214 14.6449 17.382 15.3846 16.473 15.3846C15.7197 15.3846 15.0832 14.8764 14.8872 14.1852Z" fill="black"/>
<path d="M16.3924 19.8237C16.2862 19.6659 16.0866 19.5898 15.9025 19.6394C15.7233 19.6879 15.5907 19.8444 15.5717 20.029C15.5528 20.2124 15.6551 20.395 15.8204 20.4759C15.9914 20.5596 16.2018 20.5254 16.3368 20.3907C16.4861 20.2412 16.5096 19.9994 16.3924 19.8237V19.8237Z" fill="black"/>
<path d="M4.06863 3.63428C4.14057 3.80695 4.31745 3.92101 4.50521 3.91119C4.69034 3.90153 4.85371 3.77624 4.91039 3.59989C4.96777 3.42196 4.90565 3.21999 4.75667 3.1061C4.60523 2.99064 4.39256 2.98344 4.23393 3.0889C4.05775 3.20595 3.98738 3.43933 4.06863 3.63428Z" fill="black"/>
</g>
<defs>
<clipPath id="clip0">
<rect width="23" height="23" fill="white" transform="translate(0 0.5)"/>
</clipPath>
</defs>
</svg>
