<svg width="20" height="20" viewBox="0 0 20 20" fill="none" xmlns="http://www.w3.org/2000/svg">
<path d="M14.516 17.0968V18.8172H13.2257V17.0968L13.8709 16.0813L14.516 17.0968Z" fill="#69A8FF"/>
<path d="M6.77414 17.0968V18.8172H5.48383V17.0968L6.12898 16.0813L6.77414 17.0968Z" fill="#69A8FF"/>
<path d="M6.77417 17.0967V11.4193C6.77417 10.1954 6.20609 9.10446 5.31937 8.39509L2.58335 6.21001C1.96659 5.71657 1.61284 4.98157 1.61284 4.19345C1.61284 2.77048 2.77054 1.61278 4.19351 1.61278C4.78566 1.61278 5.34238 1.80778 5.80359 2.17677L12.2552 7.3381C12.8721 7.83157 13.2258 8.56657 13.2258 9.3547V17.0967H14.5161V9.35478C14.5161 8.13095 13.948 7.03997 13.0613 6.3306L6.60972 1.16931C5.94749 0.639502 5.10761 0.32251 4.19355 0.32251C2.05566 0.32251 0.322571 2.0556 0.322571 4.19349C0.322571 5.41732 0.890657 6.50829 1.77738 7.21767L4.51331 9.40275C5.13015 9.89622 5.48386 10.6312 5.48386 11.4193V17.0968H6.77417V17.0967Z" fill="#9BC5FF"/>
<path d="M19.6775 17.0968V18.8172H18.3871V17.0968L19.0323 16.0813L19.6775 17.0968Z" fill="#9BC5FF"/>
<path d="M19.6774 18.3871V19.6774H18.3871L17.3118 19.0322L18.3871 18.3871H19.6774Z" fill="#CDE2FF"/>
<path d="M11.9354 17.0968V18.8172H10.6451V17.0968L11.2902 16.0813L11.9354 17.0968Z" fill="#9BC5FF"/>
<path d="M18.3871 18.3871H0.322571V19.6774H18.3871V18.3871Z" fill="#E6F1FF"/>
<path d="M11.9354 17.0967V11.4193C11.9354 10.1954 11.3673 9.10446 10.4806 8.39509L7.74461 6.21001C7.12785 5.71657 6.7741 4.98157 6.7741 4.19345C6.7741 2.77048 7.93179 1.61278 9.35476 1.61278C9.94691 1.61278 10.5036 1.80778 10.9648 2.17677L17.4165 7.3381C18.0333 7.83157 18.387 8.56657 18.387 9.3547V17.0967H19.6773V9.35478C19.6773 8.13095 19.1093 7.03997 18.2225 6.3306L11.771 1.16931C11.1087 0.639502 10.2689 0.32251 9.3548 0.32251C7.21691 0.32251 5.48383 2.0556 5.48383 4.19349C5.48383 5.41732 6.05191 6.50829 6.93863 7.21767L9.67457 9.40275C10.2914 9.89622 10.6451 10.6312 10.6451 11.4193V17.0968H11.9354V17.0967Z" fill="#CDE2FF"/>
<path d="M12.9032 17.0968C12.9032 17.275 13.0476 17.4194 13.2258 17.4194C13.404 17.4194 13.5484 17.275 13.5484 17.0968V9.35487C13.5484 8.46819 13.1505 7.64136 12.4568 7.0864L8.28063 3.7455C8.14153 3.63417 7.93848 3.65683 7.82719 3.79585C7.71586 3.93495 7.73844 4.13796 7.87754 4.24929L12.0536 7.59019C12.5936 8.0221 12.9032 8.66526 12.9032 9.35487V17.0968H12.9032Z" fill="black"/>
<path d="M18.4241 6.07879L11.9725 0.9175C11.233 0.325859 10.3034 0 9.35484 0C8.38277 0 7.48691 0.3325 6.77496 0.889766C6.04133 0.316094 5.1268 0 4.19355 0C1.88121 0 0 1.88121 0 4.19355C0 5.47434 0.574375 6.66844 1.57609 7.46977L4.31184 9.65469C4.85168 10.0866 5.16129 10.7298 5.16129 11.4194V17.0968C5.16129 17.275 5.3057 17.4194 5.48387 17.4194C5.66203 17.4194 5.80645 17.275 5.80645 17.0968V11.4193C5.80645 10.5327 5.40859 9.70582 4.71461 9.1507L1.97887 6.96578C1.13125 6.28766 0.645156 5.27727 0.645156 4.19352C0.645156 2.23695 2.23695 0.645117 4.19355 0.645117C4.95871 0.645117 5.68109 0.882266 6.29215 1.33227C6.14508 1.48957 6.00992 1.65809 5.8882 1.83652C5.3932 1.47891 4.81051 1.29027 4.19359 1.29027C2.59273 1.29027 1.29035 2.59266 1.29035 4.19352C1.29035 5.08019 1.6882 5.90703 2.38215 6.46215L5.11793 8.64707C5.96555 9.3252 6.45164 10.3356 6.45164 11.4193V18.0645H0.322578C0.144414 18.0645 0 18.2089 0 18.3871V19.6774C0 19.8556 0.144414 20 0.322578 20H19.6774C19.8556 20 20 19.8556 20 19.6774V9.35484C20 8.07402 19.4256 6.87996 18.4241 6.07879ZM5.5207 8.14313L2.78496 5.9582C2.24512 5.52633 1.93551 4.88312 1.93551 4.19352C1.93551 2.94844 2.94844 1.93547 4.19355 1.93547C4.69582 1.93547 5.16871 2.09625 5.56469 2.40012C5.30621 2.94418 5.16129 3.55219 5.16129 4.19355C5.16129 5.47434 5.73566 6.66844 6.73738 7.46977L9.47312 9.65469C10.013 10.0866 10.3226 10.7298 10.3226 11.4194V18.0645H7.09676V11.4193C7.09676 10.1386 6.52242 8.94449 5.5207 8.14313ZM19.3548 19.3548H0.645156V18.7097H19.3548V19.3548ZM10.682 8.14313L7.94625 5.9582C7.40641 5.52633 7.0968 4.88312 7.0968 4.19352C7.0968 2.94844 8.10973 1.93547 9.35484 1.93547C9.87297 1.93547 10.36 2.10605 10.7634 2.42879L17.215 7.59012C17.7549 8.02203 18.0645 8.6652 18.0645 9.3548V18.0645H14.8387V9.35484C14.8387 8.07402 14.2643 6.87996 13.2628 6.07879L9.08844 2.73926C8.9493 2.62793 8.74633 2.65051 8.635 2.78961C8.52367 2.92871 8.54625 3.13172 8.68535 3.24305L12.8597 6.58258C13.7074 7.26063 14.1935 8.27109 14.1935 9.35484V18.0645H12.258V11.4193C12.258 10.1386 11.6837 8.94449 10.682 8.14313ZM19.3548 18.0645H18.7097V9.35484C18.7097 8.46816 18.3118 7.64133 17.6181 7.08637L11.1664 1.92504C10.6474 1.5098 10.021 1.29031 9.35484 1.29031C7.75398 1.29031 6.4516 2.5927 6.4516 4.19355C6.4516 5.08023 6.84945 5.90707 7.5434 6.46219L10.2791 8.64711C11.1268 9.32516 11.6129 10.3356 11.6129 11.4194V18.0645H10.9677V11.4193C10.9677 10.5327 10.5698 9.70582 9.8759 9.1507L7.14016 6.96578C6.29254 6.28766 5.80645 5.27723 5.80645 4.19352C5.80645 2.23695 7.39824 0.645117 9.35484 0.645117C10.1691 0.645117 10.9348 0.913516 11.5695 1.42125L18.0211 6.58258C18.8687 7.26063 19.3548 8.27109 19.3548 9.35484V18.0645Z" fill="black"/>
</svg>
