<svg width="18" height="18" viewBox="0 0 18 18" fill="none" xmlns="http://www.w3.org/2000/svg">
<path d="M17.4131 16.0062L12.7696 11.4284C13.5988 10.284 14.0963 8.8943 14.0963 7.42287C14.0963 3.58079 10.9454 0.474487 7.04819 0.474487C3.15099 0.474487 0 3.58083 0 7.42287C0 11.2649 3.15094 14.3712 7.04814 14.3712C8.5407 14.3712 9.95035 13.8808 11.1112 13.0633L15.7547 17.6411C16.1693 18.0498 16.9156 18.0498 17.4131 17.6411C17.9106 17.1507 17.9106 16.4966 17.4131 16.0062ZM7.04814 12.7364C4.06304 12.7364 1.65839 10.3657 1.65839 7.42291C1.65839 4.48006 4.06304 2.10945 7.04814 2.10945C10.0332 2.10945 12.4379 4.48006 12.4379 7.42291C12.4379 10.3657 10.0332 12.7364 7.04814 12.7364Z" fill="#838788"/>
</svg>
