<svg width="24" height="27" viewBox="0 0 24 27" fill="none" xmlns="http://www.w3.org/2000/svg">
<path d="M18.6555 8.71288C20.5935 8.71288 22.1645 7.14181 22.1645 5.20379C22.1645 3.26577 20.5935 1.6947 18.6555 1.6947C16.7174 1.6947 15.1464 3.26577 15.1464 5.20379C15.1464 7.14181 16.7174 8.71288 18.6555 8.71288Z" stroke="white" stroke-width="2" stroke-linecap="round" stroke-linejoin="round"/>
<path d="M4.61907 16.9007C6.55709 16.9007 8.12816 15.3297 8.12816 13.3917C8.12816 11.4536 6.55709 9.88257 4.61907 9.88257C2.68106 9.88257 1.10999 11.4536 1.10999 13.3917C1.10999 15.3297 2.68106 16.9007 4.61907 16.9007Z" stroke="white" stroke-width="2" stroke-linecap="round" stroke-linejoin="round"/>
<path d="M18.6555 25.0886C20.5935 25.0886 22.1645 23.5175 22.1645 21.5795C22.1645 19.6415 20.5935 18.0704 18.6555 18.0704C16.7174 18.0704 15.1464 19.6415 15.1464 21.5795C15.1464 23.5175 16.7174 25.0886 18.6555 25.0886Z" stroke="white" stroke-width="2" stroke-linecap="round" stroke-linejoin="round"/>
<path d="M7.64856 15.158L15.6376 19.8133" stroke="white" stroke-width="2" stroke-linecap="round" stroke-linejoin="round"/>
<path d="M15.6259 6.97009L7.64856 11.6255" stroke="white" stroke-width="2" stroke-linecap="round" stroke-linejoin="round"/>
</svg>
