<svg width="21" height="21" viewBox="0 0 21 21" fill="none" xmlns="http://www.w3.org/2000/svg">
<g clip-path="url(#clip0)">
<path d="M1.75006 9.44989V19.2499H19.25V9.44989C19.25 9.25667 19.0933 9.09998 18.9 9.09998H2.09998C1.90675 9.09998 1.75006 9.25667 1.75006 9.44989Z" fill="#A29BF0"/>
<path d="M1.75004 9.44989L1.74988 19.2499H18.2002L18.2 9.44989C18.2056 9.2626 18.0584 9.1059 17.8709 9.09998H2.07896C1.89151 9.1059 1.74443 9.2626 1.75004 9.44989Z" fill="#C1BCFA"/>
<path d="M17.15 12.5999V19.2499H12.9501V12.5999C12.9506 12.4069 13.1069 12.2505 13.3 12.25H16.8001C16.9932 12.2505 17.1495 12.4069 17.15 12.5999Z" fill="#9790E3"/>
<path d="M16.1001 12.5999V19.2499H12.9501V12.5999C12.9506 12.4069 13.1069 12.2505 13.3 12.25H15.75C15.9431 12.2505 16.0995 12.4069 16.1001 12.5999Z" fill="#9790E3"/>
<path d="M10.4999 12.5999V17.8499H3.49988V12.5999C3.49972 12.5616 3.50693 12.5237 3.52087 12.4879C3.56813 12.3463 3.70063 12.2505 3.84996 12.25H10.1499C10.3431 12.2505 10.4995 12.4069 10.4999 12.5999Z" fill="#76CEF6"/>
<path d="M9.44987 12.5999V17.8499H3.49988V12.5999C3.49972 12.5616 3.50693 12.5237 3.52087 12.4879C3.56813 12.3463 3.70063 12.2505 3.84996 12.25H9.09996C9.29302 12.2505 9.44939 12.4069 9.44987 12.5999Z" fill="#91D8F8"/>
<path d="M14.35 13.65H15.75C15.9432 13.65 16.1001 13.8067 16.1001 13.9999V14.6999C16.1001 14.8933 15.9432 15.05 15.75 15.05H14.35C14.1566 15.05 13.9999 14.8933 13.9999 14.6999V13.9999C13.9999 13.8067 14.1566 13.65 14.35 13.65Z" fill="#B0D3F0"/>
<path d="M17.5001 6.64999C17.5001 8.00319 16.4031 9.10004 15.05 9.10004C13.697 9.10004 12.6 8.00319 12.6 6.64999C12.6 5.29696 13.697 4.19995 15.05 4.19995C16.4031 4.19995 17.5001 5.29696 17.5001 6.64999Z" fill="#ECF0F1"/>
<path d="M7.70001 6.64999C7.70001 8.00319 6.603 9.10004 5.24997 9.10004C3.89693 9.10004 2.79993 8.00319 2.79993 6.64999C2.79993 5.29696 3.89693 4.19995 5.24997 4.19995C6.603 4.19995 7.70001 5.29696 7.70001 6.64999Z" fill="#ECF0F1"/>
<path d="M0.700012 19.25H20.3C20.4933 19.25 20.6499 19.4067 20.6499 19.6001V20.3001C20.6499 20.4933 20.4933 20.65 20.3 20.65H0.700012C0.50679 20.65 0.350098 20.4933 0.350098 20.3001V19.6001C0.350098 19.4067 0.50679 19.25 0.700012 19.25Z" fill="#9790E3"/>
<path d="M0.700012 19.25H19.25C19.4434 19.25 19.6 19.4067 19.6 19.6001V20.3001C19.6 20.4933 19.4434 20.65 19.25 20.65H0.700012C0.50679 20.65 0.350098 20.4933 0.350098 20.3001V19.6001C0.350098 19.4067 0.50679 19.25 0.700012 19.25Z" fill="#9790E3"/>
<path d="M19.25 9.44989V10.5H1.75006V9.44989C1.75054 9.25683 1.90691 9.10046 2.09998 9.09998H18.9C19.0931 9.10046 19.2495 9.25683 19.25 9.44989Z" fill="#9790E3"/>
<path d="M18.2 9.44989L18.2002 10.5H1.74988L1.75004 9.44989C1.74491 9.26276 1.89183 9.10654 2.07896 9.09998H17.8709C18.0582 9.10654 18.205 9.26276 18.2 9.44989Z" fill="#9790E3"/>
<path d="M19.2499 19.6001H1.75004C1.55666 19.6001 1.39996 19.4434 1.39996 19.25V9.44999C1.40044 9.06371 1.71351 8.75048 2.09995 8.75H18.9C19.2865 8.75048 19.5995 9.06371 19.6 9.44999V19.25C19.6 19.4434 19.4433 19.6001 19.2499 19.6001ZM2.09995 18.9001H18.9V9.44999H2.09995V18.9001Z" fill="black"/>
<path d="M17.15 19.6001H12.9501C12.7567 19.6001 12.6 19.4434 12.6 19.25V12.6C12.6005 12.2136 12.9135 11.9005 13.3 11.9H16.8001C17.1864 11.9005 17.4996 12.2136 17.5001 12.6V19.25C17.5001 19.4434 17.3434 19.6001 17.15 19.6001ZM13.3 18.9001H16.8001V12.6H13.3V18.9001Z" fill="black"/>
<path d="M10.5 18.2001H3.49994C3.30672 18.2001 3.15002 18.0434 3.15002 17.85V12.6C3.15051 12.2136 3.46357 11.9005 3.85001 11.9H10.1499C10.5364 11.9005 10.8496 12.2136 10.8501 12.6V17.85C10.8501 18.0434 10.6932 18.2001 10.5 18.2001ZM3.85001 17.5001H10.1499V12.6H3.85001V17.5001Z" fill="black"/>
<path d="M10.85 18.2H3.15C2.95662 18.2 2.79993 18.0433 2.79993 17.8499C2.79993 17.6567 2.95662 17.5 3.15 17.5H10.85C11.0433 17.5 11.2 17.6567 11.2 17.8499C11.2 18.0433 11.0433 18.2 10.85 18.2Z" fill="black"/>
<path d="M10.4998 17.2025C10.4114 17.2027 10.3261 17.1692 10.2616 17.1088L9.56156 16.4578C9.46815 16.3732 9.42729 16.2447 9.45501 16.1217C9.48257 15.9986 9.57438 15.8999 9.69502 15.8634C9.81566 15.8269 9.94672 15.8581 10.038 15.9451L10.738 16.5961C10.8435 16.6941 10.8782 16.8465 10.8255 16.9804C10.773 17.1144 10.6437 17.2025 10.4998 17.2025Z" fill="black"/>
<path d="M8.74994 15.5751C8.65958 15.5751 8.57274 15.5402 8.50769 15.4775L5.41021 12.5025C5.31681 12.4166 5.27723 12.287 5.30671 12.1636C5.33619 12.0402 5.43008 11.9425 5.552 11.9081C5.67409 11.8736 5.80531 11.9079 5.89487 11.9976L8.99235 14.9727C9.09537 15.0715 9.12789 15.2231 9.07454 15.3556C9.02135 15.4883 8.89286 15.5749 8.74994 15.5751Z" fill="black"/>
<path d="M8.72214 18.2C8.6337 18.2002 8.54846 18.1667 8.4839 18.1063L5.71182 15.5303C5.61842 15.4457 5.57772 15.3172 5.60528 15.1942C5.633 15.0711 5.72464 14.9724 5.84528 14.9359C5.96609 14.8994 6.09715 14.9306 6.18831 15.0176L8.96038 17.5936C9.06581 17.6915 9.10041 17.844 9.04786 17.978C8.99515 18.1119 8.86601 18.2 8.72214 18.2Z" fill="black"/>
<path d="M4.95405 14.7C4.86337 14.7001 4.77637 14.6651 4.71132 14.6021L3.25735 13.2021C3.16298 13.1162 3.12293 12.9861 3.15241 12.8621C3.18189 12.7383 3.27642 12.6401 3.39914 12.6059C3.52187 12.5718 3.65341 12.6071 3.74265 12.6981L5.19662 14.098C5.29948 14.1971 5.33168 14.3486 5.27833 14.481C5.22498 14.6133 5.09664 14.7 4.95405 14.7Z" fill="black"/>
<path d="M19.2499 10.8501H5.24998C5.05676 10.8501 4.8999 10.6932 4.8999 10.5C4.8999 10.3068 5.05676 10.1499 5.24998 10.1499H19.2499C19.4433 10.1499 19.6 10.3068 19.6 10.5C19.6 10.6932 19.4433 10.8501 19.2499 10.8501Z" fill="black"/>
<path d="M3.49993 10.8501H1.75004C1.55666 10.8501 1.39996 10.6932 1.39996 10.5C1.39996 10.3068 1.55666 10.1499 1.75004 10.1499H3.49993C3.69331 10.1499 3.85001 10.3068 3.85001 10.5C3.85001 10.6932 3.69331 10.8501 3.49993 10.8501Z" fill="black"/>
<path d="M15.3999 15.3999H14.6999C14.3136 15.3996 14.0004 15.0863 13.9999 14.6999V13.9999C14.0004 13.6136 14.3136 13.3004 14.6999 13.2999H15.3999C15.7864 13.3004 16.0996 13.6136 16.1001 13.9999V14.6999C16.0996 15.0863 15.7864 15.3996 15.3999 15.3999ZM14.6999 13.9999V14.6999H15.4004L15.3999 13.9999H14.6999Z" fill="black"/>
<path d="M14.6999 16.8001H14.35C14.1566 16.8001 13.9999 16.6434 13.9999 16.45C13.9999 16.2568 14.1566 16.1001 14.35 16.1001H14.6999C14.8933 16.1001 15.05 16.2568 15.05 16.45C15.05 16.6434 14.8933 16.8001 14.6999 16.8001Z" fill="black"/>
<path d="M15.05 9.44989C13.5036 9.44989 12.2501 8.19635 12.2501 6.64993C12.2501 5.10352 13.5036 3.84998 15.05 3.84998C16.5964 3.84998 17.85 5.10352 17.85 6.64993C17.8482 8.19555 16.5956 9.44813 15.05 9.44989ZM15.05 4.54996C13.8902 4.54996 12.9501 5.49012 12.9501 6.64993C12.9501 7.80975 13.8902 8.7499 15.05 8.7499C16.2098 8.7499 17.15 7.80975 17.15 6.64993C17.1487 5.49076 16.2094 4.55125 15.05 4.54996Z" fill="black"/>
<path d="M5.25003 9.44989C3.70361 9.44989 2.45007 8.19635 2.45007 6.64993C2.45007 5.10352 3.70361 3.84998 5.25003 3.84998C6.79645 3.84998 8.04999 5.10352 8.04999 6.64993C8.04823 8.19555 6.79565 9.44813 5.25003 9.44989ZM5.25003 4.54996C4.09022 4.54996 3.15006 5.49012 3.15006 6.64993C3.15006 7.80975 4.09022 8.7499 5.25003 8.7499C6.40984 8.7499 7.35 7.80975 7.35 6.64993C7.34872 5.49076 6.40936 4.55125 5.25003 4.54996Z" fill="black"/>
<path d="M10.15 7.0001H5.59811C5.34256 6.99914 5.10785 6.85927 4.98576 6.63496C4.86352 6.41066 4.87313 6.13765 5.01092 5.92248L7.75383 1.56361C7.81792 1.46187 7.92975 1.40002 8.05007 1.40002H12.9498C13.0745 1.40002 13.1898 1.46651 13.2525 1.57434C13.3151 1.68233 13.3154 1.81531 13.2536 1.92361L10.454 6.8237C10.3916 6.93281 10.2756 7.0001 10.15 7.0001ZM8.24329 2.10001L5.60212 6.29739L9.94704 6.30011L12.3468 2.10001H8.24329Z" fill="black"/>
<path d="M10.15 7.00021C10.0102 7.00005 9.8836 6.91658 9.82848 6.78793L7.72852 1.88784L7.29033 1.01289C7.18186 0.795959 7.19356 0.53817 7.32109 0.33197C7.44862 0.12561 7.67389 0 7.91645 0H9.10014C9.29336 0 9.45005 0.156692 9.45005 0.350075C9.45005 0.543297 9.29336 0.699989 9.10014 0.699989H7.91645L8.36314 1.59352L10.4718 6.51203C10.5179 6.62018 10.5067 6.74435 10.442 6.84256C10.3772 6.94061 10.2676 6.99989 10.15 7.00021Z" fill="black"/>
<path d="M15.0502 7.00021C14.9102 7.00005 14.7836 6.91658 14.7287 6.78793L12.6285 1.88784L12.1903 1.01289C12.082 0.795959 12.0936 0.53817 12.2211 0.33197C12.3486 0.12561 12.5741 0 12.8166 0H14.0002C14.1935 0 14.3502 0.156692 14.3502 0.350075C14.3502 0.543297 14.1935 0.699989 14.0002 0.699989H12.8166L13.2633 1.59352L15.3718 6.51203C15.4179 6.62018 15.4067 6.74435 15.3421 6.84256C15.2774 6.94061 15.1678 6.99989 15.0502 7.00021Z" fill="black"/>
<path d="M20.3 21H0.699989C0.313545 20.9995 0.000480654 20.6864 0 20.3V19.6C0.000480654 19.2136 0.313545 18.9005 0.699989 18.9H20.3C20.6865 18.9005 20.9995 19.2136 21 19.6V20.3C20.9995 20.6864 20.6865 20.9995 20.3 21ZM0.699989 19.6V20.3H20.3003L20.3 19.6H0.699989Z" fill="black"/>
</g>
<defs>
<clipPath id="clip0">
<rect width="21" height="21" fill="white"/>
</clipPath>
</defs>
</svg>
