<svg width="488" height="102" viewBox="0 0 488 102" fill="none" xmlns="http://www.w3.org/2000/svg">
<path d="M20.1396 99.7722C17.8066 99.7722 15.6396 99.2302 13.6396 98.1472C11.7236 97.0632 10.0566 95.6052 8.63965 93.7722C7.38965 92.0222 6.26465 89.8132 5.26465 87.1472C4.26465 84.3972 3.51465 81.5632 3.01465 78.6472C2.01465 73.7302 1.34865 67.2722 1.01465 59.2722C0.931648 57.3552 0.889648 54.0634 0.889648 49.3967V41.5217C0.973648 39.2717 1.01465 36.9384 1.01465 34.5217C1.01465 29.6051 1.30665 25.7301 1.88965 22.8967C1.63965 21.6467 1.51465 20.3551 1.51465 19.0217C1.51465 14.0217 3.38965 9.98013 7.13965 6.89673C10.8896 3.81343 15.6396 2.27173 21.3896 2.27173C23.5566 2.27173 25.5566 2.85513 27.3896 4.02173C29.2236 5.18843 30.1396 6.64673 30.1396 8.39673C30.1396 9.23013 29.8066 9.89673 29.1396 10.3967C28.4736 10.8967 27.6396 11.1467 26.6396 11.1467C25.8066 11.1467 24.8896 11.0217 23.8896 10.7717C22.9736 10.5217 22.3896 10.1467 22.1396 9.64673H20.5146V9.39673C17.4316 9.39673 14.8486 10.0634 12.7646 11.3967C11.2646 12.4801 10.0986 14.2717 9.26465 16.7717C8.93165 17.6884 8.68165 18.8551 8.51465 20.2717C8.34865 21.6884 8.26465 22.9801 8.26465 24.1467C8.18165 24.8134 8.13965 26.1467 8.13965 28.1467L8.38965 32.5217L8.51465 36.7717C8.51465 38.0217 8.34865 39.4801 8.01465 41.1467C7.59865 43.2301 7.38965 44.6884 7.38965 45.5217V48.5217C7.38965 51.7717 7.51465 56.2302 7.76465 61.8972C7.84865 66.6472 8.38965 71.3972 9.38965 76.1472C10.1396 80.5632 11.5566 84.3132 13.6396 87.3972C15.6396 90.5632 18.3486 92.1472 21.7646 92.1472C23.1816 92.1472 24.9316 91.3972 27.0146 89.8972C29.2646 88.3972 30.8486 87.6472 31.7646 87.6472C32.9316 87.6472 34.1396 88.2722 35.3896 89.5222C35.3896 92.6052 34.2236 94.9802 31.8896 96.6472C29.7236 98.1472 27.1396 99.1052 24.1396 99.5222C22.4736 99.6882 21.1396 99.7722 20.1396 99.7722ZM60.1287 99.2722C59.2957 99.2722 58.5457 98.9802 57.8787 98.3972C57.2957 97.8132 57.0037 97.1052 57.0037 96.2722L57.2537 84.1472C57.5037 78.7302 57.6287 74.6882 57.6287 72.0222C57.6287 69.6052 57.2537 66.0222 56.5037 61.2722C55.6707 56.6052 55.2537 52.9801 55.2537 50.3967C55.2537 47.2301 54.7957 43.6051 53.8787 39.5217C52.9627 35.4384 51.7957 31.5217 50.3787 27.7717C49.0457 24.1884 47.9207 20.3551 47.0037 16.2717C46.0877 12.1051 45.6287 8.48013 45.6287 5.39673C45.6287 4.81343 45.9627 4.31343 46.6287 3.89673C47.2957 3.48013 48.0037 3.27173 48.7537 3.27173C49.6707 3.27173 50.5457 4.23013 51.3787 6.14673C52.3787 8.31343 53.3377 11.3551 54.2537 15.2717C55.1707 19.1884 55.7127 21.5217 55.8787 22.2717L57.5037 30.8967L58.7537 36.3967C59.0037 35.0634 59.2127 33.3134 59.3787 31.1467C59.8787 24.2301 60.5037 18.4801 61.2537 13.8967C61.8377 10.7301 62.5037 8.31343 63.2537 6.64673C64.0877 4.81343 65.0877 3.89673 66.2537 3.89673C68.5037 3.89673 69.6287 4.31343 69.6287 5.14673C69.6287 9.89673 68.6287 16.8967 66.6287 26.1467C64.6287 35.3967 63.6287 42.4384 63.6287 47.2717L63.3787 49.2717C63.2127 50.5217 63.1707 51.2717 63.2537 51.5217V53.5217C63.2537 57.1052 63.3787 62.6052 63.6287 70.0222L63.8787 86.6472L64.1287 89.5222L64.3787 92.5222V95.6472C64.3787 96.6472 63.9627 97.4802 63.1287 98.1472C62.2957 98.8972 61.2957 99.2722 60.1287 99.2722ZM107.836 99.7722C105.502 99.7722 103.336 99.2302 101.336 98.1472C99.4187 97.0632 97.7517 95.6052 96.3357 93.7722C95.0857 92.0222 93.9607 89.8132 92.9607 87.1472C91.9607 84.3972 91.2107 81.5632 90.7107 78.6472C89.7107 73.7302 89.0437 67.2722 88.7107 59.2722C88.6267 57.3552 88.5857 54.0634 88.5857 49.3967V41.5217C88.6687 39.2717 88.7107 36.9384 88.7107 34.5217C88.7107 29.6051 89.0017 25.7301 89.5857 22.8967C89.3357 21.6467 89.2107 20.3551 89.2107 19.0217C89.2107 14.0217 91.0857 9.98013 94.8357 6.89673C98.5857 3.81343 103.336 2.27173 109.086 2.27173C111.252 2.27173 113.252 2.85513 115.086 4.02173C116.919 5.18843 117.836 6.64673 117.836 8.39673C117.836 9.23013 117.502 9.89673 116.836 10.3967C116.169 10.8967 115.336 11.1467 114.336 11.1467C113.502 11.1467 112.586 11.0217 111.586 10.7717C110.669 10.5217 110.086 10.1467 109.836 9.64673H108.211V9.39673C105.127 9.39673 102.544 10.0634 100.461 11.3967C98.9607 12.4801 97.7937 14.2717 96.9607 16.7717C96.6267 17.6884 96.3767 18.8551 96.2107 20.2717C96.0437 21.6884 95.9607 22.9801 95.9607 24.1467C95.8767 24.8134 95.8357 26.1467 95.8357 28.1467L96.0857 32.5217L96.2107 36.7717C96.2107 38.0217 96.0437 39.4801 95.7107 41.1467C95.2937 43.2301 95.0857 44.6884 95.0857 45.5217V48.5217C95.0857 51.7717 95.2107 56.2302 95.4607 61.8972C95.5437 66.6472 96.0857 71.3972 97.0857 76.1472C97.8357 80.5632 99.2517 84.3132 101.336 87.3972C103.336 90.5632 106.044 92.1472 109.461 92.1472C110.877 92.1472 112.627 91.3972 114.711 89.8972C116.961 88.3972 118.544 87.6472 119.461 87.6472C120.627 87.6472 121.836 88.2722 123.086 89.5222C123.086 92.6052 121.919 94.9802 119.586 96.6472C117.419 98.1472 114.836 99.1052 111.836 99.5222C110.169 99.6882 108.836 99.7722 107.836 99.7722ZM144.7 99.1472C143.616 99.1472 142.616 98.7302 141.7 97.8972C140.866 97.1472 140.45 96.2302 140.45 95.1472C140.45 94.3972 140.616 93.4802 140.95 92.3972C141.2 91.2302 141.325 90.3552 141.325 89.7722C141.325 82.3552 140.908 68.1052 140.075 47.0217C139.241 29.0217 138.825 14.8134 138.825 4.39673C138.825 3.64673 139.116 3.06343 139.7 2.64673C140.283 2.14673 140.991 1.89673 141.825 1.89673C142.825 1.89673 143.7 2.27173 144.45 3.02173C145.2 3.68843 145.575 4.52173 145.575 5.52173C145.575 10.5217 145.825 18.0217 146.325 28.0217C146.741 39.1051 146.95 46.6051 146.95 50.5217L147.075 52.0217V53.5217V54.3967V55.0217C147.325 62.2722 147.45 73.1052 147.45 87.5222V90.7722H157.075C158.825 92.0222 159.7 93.2722 159.7 94.5222C159.7 95.4382 159.366 96.2722 158.7 97.0222C158.116 97.6882 157.408 98.0222 156.575 98.0222C156.325 98.0222 155.866 97.9382 155.2 97.7722L154.7 97.6472C154.2 97.7302 153.408 97.7722 152.325 97.7722H150.2C149.616 97.6882 148.95 97.6472 148.2 97.6472C147.366 98.6472 146.2 99.1472 144.7 99.1472ZM184.325 97.6472C177.158 97.6472 173.575 96.3972 173.575 93.8972C173.575 91.8972 174.825 90.8972 177.325 90.8972H178.825C179.158 90.9802 179.533 91.0222 179.95 91.0222C180.616 91.0222 181.075 90.8132 181.325 90.3972C181.658 89.9802 181.825 89.2302 181.825 88.1472C181.825 81.0632 181.408 71.3972 180.575 59.1472C179.825 46.3967 179.45 36.7717 179.45 30.2717C179.45 27.9384 179.491 25.8134 179.575 23.8967L179.7 17.5217C179.7 14.7717 179.575 12.4801 179.325 10.6467C178.408 10.9801 177.45 11.1467 176.45 11.1467C174.533 11.1467 173.575 10.1467 173.575 8.14673C173.575 7.14673 174.158 6.27173 175.325 5.52173C176.575 4.77173 178.158 4.23013 180.075 3.89673C183.575 3.31343 186.533 3.02173 188.95 3.02173C189.95 3.02173 190.783 3.35513 191.45 4.02173C192.2 4.68843 192.575 5.48013 192.575 6.39673C192.575 7.31343 192.283 8.10513 191.7 8.77173C191.2 9.43843 190.533 9.77173 189.7 9.77173C189.2 9.77173 188.783 9.73013 188.45 9.64673H187.45C186.616 9.64673 185.991 9.85513 185.575 10.2717C185.241 10.6051 185.075 11.2717 185.075 12.2717C185.075 21.1051 185.616 33.2717 186.7 48.7717C187.7 65.0222 188.2 77.2302 188.2 85.3972V90.1472C188.783 90.0632 189.616 90.0222 190.7 90.0222C194.2 90.0222 195.95 91.4802 195.95 94.3972V95.1472L192.825 97.2722C192.741 97.2722 192.491 97.3132 192.075 97.3972C191.658 97.3972 190.825 97.3972 189.575 97.3972C186.741 97.5632 184.991 97.6472 184.325 97.6472ZM245.679 99.6472C244.013 99.6472 240.596 91.0632 235.429 73.8972C229.596 53.8134 224.554 35.3551 220.304 18.5217V59.5222C220.304 63.0222 220.638 68.9802 221.304 77.3972C221.888 86.5632 222.179 92.4802 222.179 95.1472C222.179 95.8972 221.721 96.5632 220.804 97.1472C219.888 97.6472 218.846 97.8972 217.679 97.8972C215.929 97.8972 215.054 97.2302 215.054 95.8972L215.304 92.2722C215.471 89.6052 215.554 87.8552 215.554 87.0222C215.554 82.6052 215.304 75.6052 214.804 66.0222C214.304 56.2722 214.054 50.3551 214.054 48.2717V32.2717C214.054 29.6884 214.179 25.8551 214.429 20.7717C214.763 16.3551 214.929 12.5217 214.929 9.27173V8.52173C214.929 4.35513 215.846 2.27173 217.679 2.27173C218.763 2.27173 220.138 4.10513 221.804 7.77173C224.554 13.7717 228.054 24.5217 232.304 40.0217C234.721 49.0217 237.554 60.6052 240.804 74.7722C240.721 74.4382 241.388 77.3132 242.804 83.3972L242.929 84.0222C242.929 75.9382 243.013 68.6882 243.179 62.2722L243.429 40.5217V3.52173C243.763 1.43843 245.096 0.396729 247.429 0.396729C249.679 0.396729 250.804 2.02173 250.804 5.27173V6.02173C250.304 7.02173 250.054 8.23013 250.054 9.64673C250.054 14.7301 249.929 22.3967 249.679 32.6467C249.429 42.9801 249.304 50.7301 249.304 55.8972V94.0222C249.304 95.3552 248.929 96.6052 248.179 97.7722C247.513 99.0222 246.679 99.6472 245.679 99.6472ZM292.568 101.022C287.985 101.022 284.193 99.6472 281.193 96.8972C278.776 94.8972 276.568 91.4802 274.568 86.6472C273.318 83.4802 272.318 79.0222 271.568 73.2722C270.985 68.6052 270.693 64.1882 270.693 60.0222C270.61 58.9382 270.568 57.0632 270.568 54.3967V50.1467V45.1467C270.568 41.5634 270.693 37.2717 270.943 32.2717C271.276 28.0217 271.943 23.6884 272.943 19.2717C274.026 14.9384 275.61 11.2717 277.693 8.27173C279.776 5.10513 282.568 2.85513 286.068 1.52173C288.151 0.938429 290.11 0.646729 291.943 0.646729C295.443 0.646729 297.193 1.81343 297.193 4.14673C297.193 5.06343 296.86 5.81343 296.193 6.39673C295.61 6.89673 294.818 7.14673 293.818 7.14673C293.485 7.14673 292.901 7.02173 292.068 6.77173L290.318 6.52173C288.735 6.52173 287.318 7.02173 286.068 8.02173C284.818 8.93843 283.776 10.3134 282.943 12.1467C281.026 16.1467 279.735 20.5217 279.068 25.2717C278.151 31.1051 277.651 36.1884 277.568 40.5217C277.401 44.2717 277.318 48.2301 277.318 52.3967V55.7717C277.235 56.9382 277.193 58.3972 277.193 60.1472C277.193 64.3972 277.401 68.5632 277.818 72.6472C278.151 77.4802 279.068 81.6472 280.568 85.1472C281.901 89.0632 284.068 91.8132 287.068 93.3972C288.485 94.2302 290.235 94.6472 292.318 94.6472C295.985 94.6472 299.068 92.8972 301.568 89.3972C301.485 86.4802 301.276 83.6472 300.943 80.8972C300.61 78.0632 300.11 76.1472 299.443 75.1472C299.36 75.1472 299.151 75.1882 298.818 75.2722C298.568 75.2722 298.151 75.3132 297.568 75.3972L294.568 75.6472C291.735 75.6472 290.318 74.4382 290.318 72.0222C290.318 71.2722 290.735 70.6052 291.568 70.0222C292.401 69.4382 293.526 69.0222 294.943 68.7722C297.276 68.1882 299.36 67.8972 301.193 67.8972C302.86 67.8972 304.151 68.5222 305.068 69.7722C305.985 71.0222 306.443 72.6052 306.443 74.5222C306.443 77.2722 306.86 81.0222 307.693 85.7722C308.526 90.4382 308.943 94.1472 308.943 96.8972C308.943 97.8132 308.651 98.6052 308.068 99.2722C307.485 99.9382 306.776 100.272 305.943 100.272C303.86 100.272 302.443 99.3972 301.693 97.6472V97.5222L298.943 98.8972C296.443 100.313 294.318 101.022 292.568 101.022ZM360.907 97.8972C358.49 97.8972 357.282 95.2302 357.282 89.8972C357.282 80.2302 356.823 64.7722 355.907 43.5217C355.073 22.2717 354.282 11.0634 353.532 9.89673C353.532 7.56343 354.448 5.77173 356.282 4.52173C356.948 4.10513 357.865 3.77173 359.032 3.52173C360.282 3.18843 361.407 3.02173 362.407 3.02173C362.907 2.93843 363.948 2.89673 365.532 2.89673C367.448 2.89673 368.823 3.23013 369.657 3.89673C370.49 4.48013 370.907 5.56343 370.907 7.14673C370.907 8.06343 370.573 8.77173 369.907 9.27173C369.24 9.68843 368.407 9.89673 367.407 9.89673L366.157 9.77173H364.407C362.073 9.77173 360.907 10.2301 360.907 11.1467C360.907 15.4801 361.198 21.1467 361.782 28.1467C362.282 33.9801 362.615 39.5217 362.782 44.7717C363.365 44.6051 364.448 44.3551 366.032 44.0217C367.698 43.6051 368.948 43.3967 369.782 43.3967C370.698 43.3967 371.49 43.8134 372.157 44.6467C372.823 45.3967 373.157 46.2717 373.157 47.2717C373.157 48.4384 372.615 49.2717 371.532 49.7717C371.365 49.8551 370.948 50.0634 370.282 50.3967C369.698 50.6467 368.907 50.8134 367.907 50.8967C367.157 50.9801 365.907 51.1051 364.157 51.2717H362.782C362.782 56.2722 363.198 63.0632 364.032 71.6472C364.782 80.6472 365.157 87.4382 365.157 92.0222L365.032 92.5222L364.907 92.7722C364.99 93.1052 365.032 93.6472 365.032 94.3972C365.032 95.4802 364.657 96.3552 363.907 97.0222C363.157 97.6052 362.157 97.8972 360.907 97.8972ZM401.488 97.6472C394.321 97.6472 390.738 96.3972 390.738 93.8972C390.738 91.8972 391.988 90.8972 394.488 90.8972H395.988C396.321 90.9802 396.696 91.0222 397.113 91.0222C397.78 91.0222 398.238 90.8132 398.488 90.3972C398.821 89.9802 398.988 89.2302 398.988 88.1472C398.988 81.0632 398.571 71.3972 397.738 59.1472C396.988 46.3967 396.613 36.7717 396.613 30.2717C396.613 27.9384 396.655 25.8134 396.738 23.8967L396.863 17.5217C396.863 14.7717 396.738 12.4801 396.488 10.6467C395.571 10.9801 394.613 11.1467 393.613 11.1467C391.696 11.1467 390.738 10.1467 390.738 8.14673C390.738 7.14673 391.321 6.27173 392.488 5.52173C393.738 4.77173 395.321 4.23013 397.238 3.89673C400.738 3.31343 403.696 3.02173 406.113 3.02173C407.113 3.02173 407.946 3.35513 408.613 4.02173C409.363 4.68843 409.738 5.48013 409.738 6.39673C409.738 7.31343 409.446 8.10513 408.863 8.77173C408.363 9.43843 407.696 9.77173 406.863 9.77173C406.363 9.77173 405.946 9.73013 405.613 9.64673H404.613C403.78 9.64673 403.155 9.85513 402.738 10.2717C402.405 10.6051 402.238 11.2717 402.238 12.2717C402.238 21.1051 402.78 33.2717 403.863 48.7717C404.863 65.0222 405.363 77.2302 405.363 85.3972V90.1472C405.946 90.0632 406.78 90.0222 407.863 90.0222C411.363 90.0222 413.113 91.4802 413.113 94.3972V95.1472L409.988 97.2722C409.905 97.2722 409.655 97.3132 409.238 97.3972C408.821 97.3972 407.988 97.3972 406.738 97.3972C403.905 97.5632 402.155 97.6472 401.488 97.6472ZM431.092 98.8972C429.592 98.8972 428.384 97.8972 427.467 95.8972C429.301 93.0632 431.384 85.5222 433.717 73.2722C436.134 60.9382 438.176 48.1884 439.842 35.0217C441.509 22.1051 442.426 13.5217 442.592 9.27173L438.092 9.64673C437.509 9.73013 436.634 9.77173 435.467 9.77173C430.967 9.77173 428.717 8.48013 428.717 5.89673V5.27173L430.342 3.27173V3.14673C431.342 3.48013 432.551 3.64673 433.967 3.64673C435.301 3.64673 437.259 3.39673 439.842 2.89673C442.759 2.48013 444.717 2.27173 445.717 2.27173C446.717 2.27173 447.509 2.64673 448.092 3.39673C448.759 4.06343 449.092 4.89673 449.092 5.89673C449.092 27.8134 444.467 56.6882 435.217 92.5222L437.967 92.3972C439.051 92.2302 440.342 92.1472 441.842 92.1472C446.259 92.1472 448.467 93.3972 448.467 95.8972V96.5222L446.467 98.3972L438.842 98.6472C436.509 98.8132 433.926 98.8972 431.092 98.8972ZM469.935 98.8972C468.435 98.8972 467.227 97.8972 466.31 95.8972C468.143 93.0632 470.227 85.5222 472.56 73.2722C474.977 60.9382 477.018 48.1884 478.685 35.0217C480.352 22.1051 481.268 13.5217 481.435 9.27173L476.935 9.64673C476.352 9.73013 475.477 9.77173 474.31 9.77173C469.81 9.77173 467.56 8.48013 467.56 5.89673V5.27173L469.185 3.27173V3.14673C470.185 3.48013 471.393 3.64673 472.81 3.64673C474.143 3.64673 476.102 3.39673 478.685 2.89673C481.602 2.48013 483.56 2.27173 484.56 2.27173C485.56 2.27173 486.352 2.64673 486.935 3.39673C487.602 4.06343 487.935 4.89673 487.935 5.89673C487.935 27.8134 483.31 56.6882 474.06 92.5222L476.81 92.3972C477.893 92.2302 479.185 92.1472 480.685 92.1472C485.102 92.1472 487.31 93.3972 487.31 95.8972V96.5222L485.31 98.3972L477.685 98.6472C475.352 98.8132 472.768 98.8972 469.935 98.8972Z" fill="url(#paint0_linear)"/>
<defs>
<linearGradient id="paint0_linear" x1="543.997" y1="0.396729" x2="69.2161" y2="0.396729" gradientUnits="userSpaceOnUse">
<stop stop-color="#FF923C"/>
<stop offset="1" stop-color="#FFC340"/>
</linearGradient>
</defs>
</svg>
