<svg width="766" height="176" viewBox="0 0 766 176" fill="none" xmlns="http://www.w3.org/2000/svg">
<g clip-path="url(#clip0)">
<path d="M102.687 94.3206L74.7397 148.007C79.0358 150.332 83.9581 151.654 89.1901 151.654C105.941 151.654 119.521 138.112 119.521 121.407C119.521 109.539 112.663 99.2735 102.687 94.3206Z" fill="#FFAC57"/>
<path d="M74.9644 148.116L102.912 94.4296C98.6161 92.1043 93.6938 90.7832 88.4618 90.7832C71.7104 90.7832 58.1309 104.325 58.1309 121.03C58.1309 132.898 64.9887 143.163 74.9644 148.116Z" fill="#FFCD60"/>
<path d="M193.085 92.5518L165.138 146.238C169.434 148.564 174.356 149.885 179.588 149.885C196.339 149.885 209.919 136.343 209.919 119.638C209.919 107.77 203.061 97.5047 193.085 92.5518Z" fill="#FFAC57"/>
<path d="M165.362 146.347L193.31 92.6608C189.014 90.3355 184.092 89.0144 178.86 89.0144C162.108 89.0144 148.529 102.556 148.529 119.261C148.529 131.129 155.387 141.394 165.362 146.347Z" fill="#FFCD60"/>
<rect x="93.8726" y="45.4023" width="22.796" height="8.25373" fill="#2F373D"/>
<rect x="69.897" y="77.3489" width="46.7711" height="41.1578" fill="#DFEEFF"/>
<mask id="path-8-inside-1" fill="white">
<path d="M210.017 105.496C209.278 103.96 207.435 103.314 205.898 104.053C205.814 104.093 205.733 104.137 205.654 104.184C204.296 104.992 203.756 106.719 204.455 108.171C209.546 118.757 207.383 131.453 199.072 139.764C193.841 144.996 186.885 147.877 179.488 147.877C172.089 147.877 165.134 144.996 159.903 139.764C149.104 128.965 149.104 111.394 159.903 100.595C161.681 98.8164 163.648 97.3185 165.744 96.1113L176.654 121.402C177.157 122.569 178.294 123.267 179.489 123.267C179.897 123.267 180.311 123.185 180.71 123.014C182.274 122.338 182.996 120.523 182.321 118.958L171.404 93.6508C177.594 91.7533 184.386 92.0705 190.638 94.8176C192.198 95.5039 194.019 94.7939 194.704 93.2336C195.39 91.673 194.68 89.8526 193.12 89.1669C186.943 86.4531 180.155 85.6502 173.489 86.8435C171.945 87.12 170.434 87.5058 168.961 87.9856L153.396 51.9034H170.766C172.422 51.9034 173.905 52.8903 174.544 54.4163L174.619 54.5962C175.158 55.8827 175.024 57.2865 174.251 58.4475C173.479 59.6087 172.235 60.2747 170.841 60.2747C169.136 60.2747 167.755 61.6566 167.755 63.3606C167.755 65.0647 169.136 66.4466 170.841 66.4466C174.286 66.4466 177.481 64.7345 179.389 61.8664C181.298 58.9986 181.642 55.3896 180.312 52.2135L180.237 52.0333C178.634 48.2052 174.916 45.7315 170.766 45.7315H148.704C147.666 45.7315 146.697 46.2539 146.126 47.1217C145.556 47.9895 145.46 49.0859 145.871 50.0398L151.619 63.3649H143.55H127.297H113.371L111.021 58.0753H120.314C122.019 58.0753 123.4 56.6934 123.4 54.9894C123.4 46.4814 116.478 39.5596 107.971 39.5596H98.4041C93.2993 39.5596 89.1462 43.7126 89.1462 48.8174C89.1462 53.9222 93.2993 58.0753 98.4041 58.0753H104.267L107.626 65.6356L104.272 73.145H77.0341C70.0148 73.145 64.3042 78.8555 64.3042 85.8748V97.2454C58.5246 103.514 55.355 111.607 55.355 120.18C55.355 131.613 61.0507 141.741 69.7531 147.877H58.4409C56.7366 147.877 55.355 149.259 55.355 150.963C55.355 152.667 56.7366 154.049 58.4409 154.049H89.2236C102.552 154.049 114.689 146.187 120.143 134.022C120.84 132.466 120.145 130.64 118.59 129.943C117.034 129.245 115.208 129.942 114.511 131.497C110.05 141.447 100.124 147.877 89.2236 147.877C73.9516 147.877 61.5269 135.452 61.5269 120.18C61.5269 115.917 62.4906 111.801 64.3042 108.074V111.385C64.3042 117.936 69.634 123.266 76.1849 123.266H132.738L136.609 131.212H134.547C132.843 131.212 131.461 132.594 131.461 134.298C131.461 136.002 132.843 137.384 134.547 137.384H141.545C142.609 137.384 143.598 136.837 144.162 135.934C144.726 135.032 144.785 133.903 144.319 132.947L138.039 120.055L156.306 74.2312L163.292 90.4285C160.469 91.9677 157.859 93.9107 155.538 96.231C142.333 109.436 142.333 130.923 155.538 144.129C156.925 145.516 158.411 146.767 159.98 147.877H139.64C137.936 147.877 136.554 149.259 136.554 150.963C136.554 152.667 137.936 154.049 139.64 154.049H179.487C188.533 154.049 197.039 150.526 203.435 144.129C213.598 133.966 216.243 118.441 210.017 105.496ZM130.383 69.5365H140.463V73.1446H130.383V69.5365ZM98.4041 51.9034C96.7025 51.9034 95.3181 50.519 95.3181 48.8174C95.3181 47.1158 96.7025 45.7315 98.4041 45.7315H107.971C111.994 45.7315 115.426 48.311 116.7 51.9034H98.4041ZM111.009 73.2505C111.002 73.2496 110.994 73.2483 110.986 73.2474L110.997 73.2224L111.009 73.2505ZM70.4762 88.7513V85.8748C70.4762 82.2587 73.418 79.3169 77.0341 79.3169H109.398C113.014 79.3169 115.956 82.2587 115.956 85.8748V88.7513V89.4629C115.956 91.5851 114.229 93.3117 112.107 93.3117H105.374C105.17 91.8051 103.882 90.6426 102.32 90.6426C100.757 90.6426 99.469 91.8051 99.265 93.3117H87.1669C86.9629 91.8051 85.6751 90.6426 84.1124 90.6426C82.5497 90.6426 81.2619 91.8051 81.0579 93.3117H74.325C72.2028 93.3117 70.4762 91.5851 70.4762 89.4629V88.7513ZM115.956 111.385C115.956 114.533 113.396 117.094 110.248 117.094H109.861H76.1849C73.0372 117.094 70.4762 114.533 70.4762 111.385V98.7137C71.6618 99.2086 72.9619 99.4833 74.325 99.4833H81.0292C81.056 101.165 82.425 102.52 84.1127 102.52C85.8004 102.52 87.1693 101.165 87.1962 99.4833H99.2363C99.2632 101.165 100.632 102.52 102.32 102.52C104.008 102.52 105.376 101.165 105.403 99.4833H112.108C113.471 99.4833 114.77 99.2086 115.956 98.7137V111.385ZM120.663 117.094C121.596 115.398 122.128 113.453 122.128 111.385V98.6914L129.992 117.094H120.663ZM134.568 112.095L122.844 84.6617C122.804 84.5682 122.76 84.4784 122.712 84.3911L116.113 69.5365H124.211V76.2306C124.211 77.9347 125.593 79.3166 127.297 79.3166H143.55C145.254 79.3166 146.636 77.9347 146.636 76.2306V69.5365H151.533L134.568 112.095Z"/>
</mask>
<path d="M210.017 105.496C209.278 103.96 207.435 103.314 205.898 104.053C205.814 104.093 205.733 104.137 205.654 104.184C204.296 104.992 203.756 106.719 204.455 108.171C209.546 118.757 207.383 131.453 199.072 139.764C193.841 144.996 186.885 147.877 179.488 147.877C172.089 147.877 165.134 144.996 159.903 139.764C149.104 128.965 149.104 111.394 159.903 100.595C161.681 98.8164 163.648 97.3185 165.744 96.1113L176.654 121.402C177.157 122.569 178.294 123.267 179.489 123.267C179.897 123.267 180.311 123.185 180.71 123.014C182.274 122.338 182.996 120.523 182.321 118.958L171.404 93.6508C177.594 91.7533 184.386 92.0705 190.638 94.8176C192.198 95.5039 194.019 94.7939 194.704 93.2336C195.39 91.673 194.68 89.8526 193.12 89.1669C186.943 86.4531 180.155 85.6502 173.489 86.8435C171.945 87.12 170.434 87.5058 168.961 87.9856L153.396 51.9034H170.766C172.422 51.9034 173.905 52.8903 174.544 54.4163L174.619 54.5962C175.158 55.8827 175.024 57.2865 174.251 58.4475C173.479 59.6087 172.235 60.2747 170.841 60.2747C169.136 60.2747 167.755 61.6566 167.755 63.3606C167.755 65.0647 169.136 66.4466 170.841 66.4466C174.286 66.4466 177.481 64.7345 179.389 61.8664C181.298 58.9986 181.642 55.3896 180.312 52.2135L180.237 52.0333C178.634 48.2052 174.916 45.7315 170.766 45.7315H148.704C147.666 45.7315 146.697 46.2539 146.126 47.1217C145.556 47.9895 145.46 49.0859 145.871 50.0398L151.619 63.3649H143.55H127.297H113.371L111.021 58.0753H120.314C122.019 58.0753 123.4 56.6934 123.4 54.9894C123.4 46.4814 116.478 39.5596 107.971 39.5596H98.4041C93.2993 39.5596 89.1462 43.7126 89.1462 48.8174C89.1462 53.9222 93.2993 58.0753 98.4041 58.0753H104.267L107.626 65.6356L104.272 73.145H77.0341C70.0148 73.145 64.3042 78.8555 64.3042 85.8748V97.2454C58.5246 103.514 55.355 111.607 55.355 120.18C55.355 131.613 61.0507 141.741 69.7531 147.877H58.4409C56.7366 147.877 55.355 149.259 55.355 150.963C55.355 152.667 56.7366 154.049 58.4409 154.049H89.2236C102.552 154.049 114.689 146.187 120.143 134.022C120.84 132.466 120.145 130.64 118.59 129.943C117.034 129.245 115.208 129.942 114.511 131.497C110.05 141.447 100.124 147.877 89.2236 147.877C73.9516 147.877 61.5269 135.452 61.5269 120.18C61.5269 115.917 62.4906 111.801 64.3042 108.074V111.385C64.3042 117.936 69.634 123.266 76.1849 123.266H132.738L136.609 131.212H134.547C132.843 131.212 131.461 132.594 131.461 134.298C131.461 136.002 132.843 137.384 134.547 137.384H141.545C142.609 137.384 143.598 136.837 144.162 135.934C144.726 135.032 144.785 133.903 144.319 132.947L138.039 120.055L156.306 74.2312L163.292 90.4285C160.469 91.9677 157.859 93.9107 155.538 96.231C142.333 109.436 142.333 130.923 155.538 144.129C156.925 145.516 158.411 146.767 159.98 147.877H139.64C137.936 147.877 136.554 149.259 136.554 150.963C136.554 152.667 137.936 154.049 139.64 154.049H179.487C188.533 154.049 197.039 150.526 203.435 144.129C213.598 133.966 216.243 118.441 210.017 105.496ZM130.383 69.5365H140.463V73.1446H130.383V69.5365ZM98.4041 51.9034C96.7025 51.9034 95.3181 50.519 95.3181 48.8174C95.3181 47.1158 96.7025 45.7315 98.4041 45.7315H107.971C111.994 45.7315 115.426 48.311 116.7 51.9034H98.4041ZM111.009 73.2505C111.002 73.2496 110.994 73.2483 110.986 73.2474L110.997 73.2224L111.009 73.2505ZM70.4762 88.7513V85.8748C70.4762 82.2587 73.418 79.3169 77.0341 79.3169H109.398C113.014 79.3169 115.956 82.2587 115.956 85.8748V88.7513V89.4629C115.956 91.5851 114.229 93.3117 112.107 93.3117H105.374C105.17 91.8051 103.882 90.6426 102.32 90.6426C100.757 90.6426 99.469 91.8051 99.265 93.3117H87.1669C86.9629 91.8051 85.6751 90.6426 84.1124 90.6426C82.5497 90.6426 81.2619 91.8051 81.0579 93.3117H74.325C72.2028 93.3117 70.4762 91.5851 70.4762 89.4629V88.7513ZM115.956 111.385C115.956 114.533 113.396 117.094 110.248 117.094H109.861H76.1849C73.0372 117.094 70.4762 114.533 70.4762 111.385V98.7137C71.6618 99.2086 72.9619 99.4833 74.325 99.4833H81.0292C81.056 101.165 82.425 102.52 84.1127 102.52C85.8004 102.52 87.1693 101.165 87.1962 99.4833H99.2363C99.2632 101.165 100.632 102.52 102.32 102.52C104.008 102.52 105.376 101.165 105.403 99.4833H112.108C113.471 99.4833 114.77 99.2086 115.956 98.7137V111.385ZM120.663 117.094C121.596 115.398 122.128 113.453 122.128 111.385V98.6914L129.992 117.094H120.663ZM134.568 112.095L122.844 84.6617C122.804 84.5682 122.76 84.4784 122.712 84.3911L116.113 69.5365H124.211V76.2306C124.211 77.9347 125.593 79.3166 127.297 79.3166H143.55C145.254 79.3166 146.636 77.9347 146.636 76.2306V69.5365H151.533L134.568 112.095Z" stroke="#2F373D" stroke-width="100" mask="url(#path-8-inside-1)"/>
</g>
<g clip-path="url(#clip1)">
<path d="M62.6787 15.2807C66.3976 20.0124 65.5766 26.8627 60.8449 30.5816C56.1132 34.3005 49.263 33.4795 45.5441 28.7478C41.8252 24.0161 42.6462 17.1658 47.3779 13.4469C52.1096 9.72802 58.9598 10.549 62.6787 15.2807Z" fill="#FFCD60"/>
<path d="M52.2173 44.2921C54.0766 46.6577 53.666 50.0832 51.3004 51.9425C48.9348 53.8018 45.5092 53.3913 43.65 51.0256C41.7907 48.66 42.2012 45.2345 44.5669 43.3752C46.9325 41.5159 50.358 41.9265 52.2173 44.2921Z" fill="#FFAC57"/>
<path d="M76.9455 58.1204C77.6892 59.0667 77.525 60.4369 76.5788 61.1806C75.6325 61.9243 74.2623 61.7601 73.5186 60.8138C72.7749 59.8676 72.9391 58.4974 73.8853 57.7536C74.8316 57.0099 76.2018 57.1741 76.9455 58.1204Z" fill="#FFCD60"/>
<path d="M46.7043 12.5902C41.4995 16.6809 40.5964 24.2163 44.6871 29.4211C48.7779 34.626 56.3133 35.5291 61.5181 31.4383C66.7229 27.3476 67.626 19.8122 63.5353 14.6074C59.4402 9.41003 51.9116 8.50771 46.7043 12.5902ZM60.1714 29.7249C55.9128 33.0719 49.7476 32.333 46.4006 28.0744C43.0536 23.8159 43.7925 17.6507 48.051 14.3037C52.3096 10.9566 58.4748 11.6955 61.8218 15.9541C65.1626 20.2142 64.4242 26.3749 60.1714 29.7249Z" fill="#2F373D"/>
<path d="M48.1139 26.7279L49.8273 25.3811C47.9716 23.014 48.3817 19.5923 50.7442 17.7307L49.3975 16.0172C46.0899 18.623 45.5156 23.4143 48.1139 26.7279Z" fill="#2F373D"/>
<path d="M43.8938 42.5187C41.0551 44.7499 40.5624 48.8605 42.7935 51.6992C45.0247 54.538 49.1353 55.0307 51.974 52.7995C54.8128 50.5684 55.3055 46.4578 53.0743 43.619C50.8409 40.7834 46.7341 40.2912 43.8938 42.5187ZM50.6273 51.0861C48.7348 52.5735 45.9944 52.245 44.507 50.3525C43.0196 48.46 43.348 45.7196 45.2405 44.2322C47.133 42.7448 49.8734 43.0732 51.3609 44.9657C52.8483 46.8582 52.5198 49.5986 50.6273 51.0861Z" fill="#2F373D"/>
<path d="M67.7615 37.6191C64.9227 39.8502 64.4301 43.9608 66.6612 46.7996C68.8923 49.6384 73.0029 50.131 75.8417 47.8999C78.6805 45.6687 79.1731 41.5581 76.942 38.7194C74.7086 35.8837 70.6017 35.3915 67.7615 37.6191ZM74.495 46.1864C72.6025 47.6738 69.8621 47.3454 68.3747 45.4529C66.8872 43.5604 67.2157 40.82 69.1082 39.3325C71.0007 37.8451 73.7411 38.1736 75.2285 40.0661C76.716 41.9586 76.3875 44.699 74.495 46.1864Z" fill="#2F373D"/>
<path d="M73.2113 56.8969C71.7919 58.0125 71.5456 60.0678 72.6612 61.4872C73.7767 62.9066 75.832 63.1529 77.2514 62.0373C78.6708 60.9218 78.9171 58.8665 77.8016 57.4471C76.686 56.0277 74.6307 55.7814 73.2113 56.8969ZM75.9047 60.3239C75.4316 60.6957 74.7465 60.6136 74.3746 60.1405C74.0028 59.6674 74.0849 58.9823 74.558 58.6104C75.0311 58.2385 75.7163 58.3207 76.0881 58.7938C76.46 59.2669 76.3779 59.952 75.9047 60.3239Z" fill="#2F373D"/>
<path d="M60.923 54.9509L60.0896 54.7062C59.6297 54.5711 59.3654 54.0911 59.4997 53.6339C59.6339 53.1771 60.1157 52.9162 60.5757 53.0513L61.4091 53.296C61.869 53.4311 62.1336 53.9112 61.9995 54.368C61.8652 54.8252 61.383 55.086 60.923 54.9509V54.9509Z" fill="#FF9F3C"/>
<path d="M65.089 56.1746L64.2557 55.9298C63.7957 55.7947 63.5315 55.3147 63.6657 54.8575C63.7999 54.4007 64.2817 54.1398 64.7417 54.2749L65.5751 54.5197C66.035 54.6548 66.2993 55.1348 66.1651 55.5916C66.0308 56.0488 65.549 56.3096 65.089 56.1746V56.1746Z" fill="#FF9F3C"/>
<path d="M61.8604 57.9226C61.4004 57.7875 61.1362 57.3075 61.2703 56.8507L61.5134 56.0231C61.6476 55.5662 62.1294 55.3054 62.5893 55.4404C63.0497 55.5757 63.3139 56.0557 63.1798 56.5125L62.9367 57.3401C62.8025 57.7969 62.3207 58.0578 61.8604 57.9226Z" fill="#FFC340"/>
<path d="M63.0751 53.7855C62.6151 53.6504 62.3509 53.1704 62.4852 52.7132L62.7281 51.886C62.8624 51.4288 63.3442 51.1679 63.8042 51.303C64.2646 51.4382 64.5288 51.9182 64.3945 52.3754L64.1515 53.2026C64.0173 53.6598 63.5354 53.9207 63.0751 53.7855Z" fill="#FFC340"/>
</g>
<path d="M75.0385 26.2949L74.2185 26.5814C73.766 26.7395 73.2716 26.5033 73.1144 26.0534C72.9574 25.604 73.1971 25.1113 73.6497 24.9532L74.4697 24.6667C74.9222 24.5086 75.417 24.7447 75.574 25.1941C75.7312 25.644 75.4911 26.1368 75.0385 26.2949V26.2949Z" fill="#FF9F3C"/>
<path d="M79.1381 24.8628L78.3182 25.1493C77.8656 25.3074 77.3712 25.0711 77.2141 24.6213C77.057 24.1719 77.2967 23.6791 77.7493 23.521L78.5693 23.2346C79.0218 23.0764 79.5162 23.3127 79.6732 23.7621C79.8304 24.212 79.5907 24.7047 79.1381 24.8628V24.8628Z" fill="#FF9F3C"/>
<path d="M77.5308 28.1642C77.0782 28.3223 76.5838 28.086 76.4268 27.6366L76.1423 26.8222C75.9853 26.3728 76.2249 25.8801 76.6775 25.722C77.1305 25.5637 77.6248 25.8 77.7819 26.2494L78.0664 27.0637C78.2234 27.5132 77.9837 28.0059 77.5308 28.1642Z" fill="#FFBF00"/>
<path d="M76.109 24.0937C75.6564 24.2519 75.1621 24.0156 75.0049 23.5658L74.7205 22.7518C74.5634 22.302 74.8031 21.8093 75.2556 21.6512C75.7086 21.4929 76.203 21.7292 76.3601 22.179L76.6445 22.9929C76.8016 23.4428 76.562 23.9355 76.109 24.0937Z" fill="#FFBF00"/>
<path d="M271.387 143.978C269.054 143.978 266.887 143.436 264.887 142.353C262.971 141.269 261.304 139.811 259.887 137.978C258.637 136.228 257.512 134.019 256.512 131.353C255.512 128.603 254.762 125.769 254.262 122.853C253.262 117.936 252.596 111.478 252.262 103.478C252.179 101.561 252.137 98.2692 252.137 93.6025V85.7275C252.221 83.4775 252.262 81.1442 252.262 78.7275C252.262 73.8109 252.554 69.9359 253.137 67.1025C252.887 65.8525 252.762 64.5609 252.762 63.2275C252.762 58.2275 254.637 54.1859 258.387 51.1025C262.137 48.0192 266.887 46.4775 272.637 46.4775C274.804 46.4775 276.804 47.0609 278.637 48.2275C280.471 49.3942 281.387 50.8525 281.387 52.6025C281.387 53.4359 281.054 54.1025 280.387 54.6025C279.721 55.1025 278.887 55.3525 277.887 55.3525C277.054 55.3525 276.137 55.2275 275.137 54.9775C274.221 54.7275 273.637 54.3525 273.387 53.8525H271.762V53.6025C268.679 53.6025 266.096 54.2692 264.012 55.6025C262.512 56.6859 261.346 58.4775 260.512 60.9775C260.179 61.8942 259.929 63.0609 259.762 64.4775C259.596 65.8942 259.512 67.1859 259.512 68.3525C259.429 69.0192 259.387 70.3525 259.387 72.3525L259.637 76.7275L259.762 80.9775C259.762 82.2275 259.596 83.6859 259.262 85.3525C258.846 87.4359 258.637 88.8942 258.637 89.7275V92.7275C258.637 95.9775 258.762 100.436 259.012 106.103C259.096 110.853 259.637 115.603 260.637 120.353C261.387 124.769 262.804 128.519 264.887 131.603C266.887 134.769 269.596 136.353 273.012 136.353C274.429 136.353 276.179 135.603 278.262 134.103C280.512 132.603 282.096 131.853 283.012 131.853C284.179 131.853 285.387 132.478 286.637 133.728C286.637 136.811 285.471 139.186 283.137 140.853C280.971 142.353 278.387 143.311 275.387 143.728C273.721 143.894 272.387 143.978 271.387 143.978ZM311.376 143.478C310.543 143.478 309.793 143.186 309.126 142.603C308.543 142.019 308.251 141.311 308.251 140.478L308.501 128.353C308.751 122.936 308.876 118.894 308.876 116.228C308.876 113.811 308.501 110.228 307.751 105.478C306.918 100.811 306.501 97.1859 306.501 94.6025C306.501 91.4359 306.043 87.8109 305.126 83.7275C304.21 79.6442 303.043 75.7275 301.626 71.9775C300.293 68.3942 299.168 64.5609 298.251 60.4775C297.335 56.3109 296.876 52.6859 296.876 49.6025C296.876 49.0192 297.21 48.5192 297.876 48.1025C298.543 47.6859 299.251 47.4775 300.001 47.4775C300.918 47.4775 301.793 48.4359 302.626 50.3525C303.626 52.5192 304.585 55.5609 305.501 59.4775C306.418 63.3942 306.96 65.7275 307.126 66.4775L308.751 75.1025L310.001 80.6025C310.251 79.2692 310.46 77.5192 310.626 75.3525C311.126 68.4359 311.751 62.6859 312.501 58.1025C313.085 54.9359 313.751 52.5192 314.501 50.8525C315.335 49.0192 316.335 48.1025 317.501 48.1025C319.751 48.1025 320.876 48.5192 320.876 49.3525C320.876 54.1025 319.876 61.1025 317.876 70.3525C315.876 79.6025 314.876 86.6442 314.876 91.4775L314.626 93.4775C314.46 94.7275 314.418 95.4775 314.501 95.7275V97.7275C314.501 101.311 314.626 106.811 314.876 114.228L315.126 130.853L315.376 133.728L315.626 136.728V139.853C315.626 140.853 315.21 141.686 314.376 142.353C313.543 143.103 312.543 143.478 311.376 143.478ZM359.083 143.978C356.749 143.978 354.583 143.436 352.583 142.353C350.666 141.269 348.999 139.811 347.583 137.978C346.333 136.228 345.208 134.019 344.208 131.353C343.208 128.603 342.458 125.769 341.958 122.853C340.958 117.936 340.291 111.478 339.958 103.478C339.874 101.561 339.833 98.2692 339.833 93.6025V85.7275C339.916 83.4775 339.958 81.1442 339.958 78.7275C339.958 73.8109 340.249 69.9359 340.833 67.1025C340.583 65.8525 340.458 64.5609 340.458 63.2275C340.458 58.2275 342.333 54.1859 346.083 51.1025C349.833 48.0192 354.583 46.4775 360.333 46.4775C362.499 46.4775 364.499 47.0609 366.333 48.2275C368.166 49.3942 369.083 50.8525 369.083 52.6025C369.083 53.4359 368.749 54.1025 368.083 54.6025C367.416 55.1025 366.583 55.3525 365.583 55.3525C364.749 55.3525 363.833 55.2275 362.833 54.9775C361.916 54.7275 361.333 54.3525 361.083 53.8525H359.458V53.6025C356.374 53.6025 353.791 54.2692 351.708 55.6025C350.208 56.6859 349.041 58.4775 348.208 60.9775C347.874 61.8942 347.624 63.0609 347.458 64.4775C347.291 65.8942 347.208 67.1859 347.208 68.3525C347.124 69.0192 347.083 70.3525 347.083 72.3525L347.333 76.7275L347.458 80.9775C347.458 82.2275 347.291 83.6859 346.958 85.3525C346.541 87.4359 346.333 88.8942 346.333 89.7275V92.7275C346.333 95.9775 346.458 100.436 346.708 106.103C346.791 110.853 347.333 115.603 348.333 120.353C349.083 124.769 350.499 128.519 352.583 131.603C354.583 134.769 357.291 136.353 360.708 136.353C362.124 136.353 363.874 135.603 365.958 134.103C368.208 132.603 369.791 131.853 370.708 131.853C371.874 131.853 373.083 132.478 374.333 133.728C374.333 136.811 373.166 139.186 370.833 140.853C368.666 142.353 366.083 143.311 363.083 143.728C361.416 143.894 360.083 143.978 359.083 143.978ZM395.947 143.353C394.863 143.353 393.863 142.936 392.947 142.103C392.113 141.353 391.697 140.436 391.697 139.353C391.697 138.603 391.863 137.686 392.197 136.603C392.447 135.436 392.572 134.561 392.572 133.978C392.572 126.561 392.155 112.311 391.322 91.2275C390.488 73.2275 390.072 59.0192 390.072 48.6025C390.072 47.8525 390.363 47.2692 390.947 46.8525C391.53 46.3525 392.238 46.1025 393.072 46.1025C394.072 46.1025 394.947 46.4775 395.697 47.2275C396.447 47.8942 396.822 48.7275 396.822 49.7275C396.822 54.7275 397.072 62.2275 397.572 72.2275C397.988 83.3109 398.197 90.8109 398.197 94.7275L398.322 96.2275V97.7275V98.6025V99.2275C398.572 106.478 398.697 117.311 398.697 131.728V134.978H408.322C410.072 136.228 410.947 137.478 410.947 138.728C410.947 139.644 410.613 140.478 409.947 141.228C409.363 141.894 408.655 142.228 407.822 142.228C407.572 142.228 407.113 142.144 406.447 141.978L405.947 141.853C405.447 141.936 404.655 141.978 403.572 141.978H401.447C400.863 141.894 400.197 141.853 399.447 141.853C398.613 142.853 397.447 143.353 395.947 143.353ZM435.572 141.853C428.405 141.853 424.822 140.603 424.822 138.103C424.822 136.103 426.072 135.103 428.572 135.103H430.072C430.405 135.186 430.78 135.228 431.197 135.228C431.863 135.228 432.322 135.019 432.572 134.603C432.905 134.186 433.072 133.436 433.072 132.353C433.072 125.269 432.655 115.603 431.822 103.353C431.072 90.6025 430.697 80.9775 430.697 74.4775C430.697 72.1442 430.738 70.0192 430.822 68.1025L430.947 61.7275C430.947 58.9775 430.822 56.6859 430.572 54.8525C429.655 55.1859 428.697 55.3525 427.697 55.3525C425.78 55.3525 424.822 54.3525 424.822 52.3525C424.822 51.3525 425.405 50.4775 426.572 49.7275C427.822 48.9775 429.405 48.4359 431.322 48.1025C434.822 47.5192 437.78 47.2275 440.197 47.2275C441.197 47.2275 442.03 47.5609 442.697 48.2275C443.447 48.8942 443.822 49.6859 443.822 50.6025C443.822 51.5192 443.53 52.3109 442.947 52.9775C442.447 53.6442 441.78 53.9775 440.947 53.9775C440.447 53.9775 440.03 53.9359 439.697 53.8525H438.697C437.863 53.8525 437.238 54.0609 436.822 54.4775C436.488 54.8109 436.322 55.4775 436.322 56.4775C436.322 65.3109 436.863 77.4775 437.947 92.9775C438.947 109.228 439.447 121.436 439.447 129.603V134.353C440.03 134.269 440.863 134.228 441.947 134.228C445.447 134.228 447.197 135.686 447.197 138.603V139.353L444.072 141.478C443.988 141.478 443.738 141.519 443.322 141.603C442.905 141.603 442.072 141.603 440.822 141.603C437.988 141.769 436.238 141.853 435.572 141.853ZM496.926 143.853C495.26 143.853 491.843 135.269 486.676 118.103C480.843 98.0192 475.801 79.5609 471.551 62.7275V103.728C471.551 107.228 471.885 113.186 472.551 121.603C473.135 130.769 473.426 136.686 473.426 139.353C473.426 140.103 472.968 140.769 472.051 141.353C471.135 141.853 470.093 142.103 468.926 142.103C467.176 142.103 466.301 141.436 466.301 140.103L466.551 136.478C466.718 133.811 466.801 132.061 466.801 131.228C466.801 126.811 466.551 119.811 466.051 110.228C465.551 100.478 465.301 94.5609 465.301 92.4775V76.4775C465.301 73.8942 465.426 70.0609 465.676 64.9775C466.01 60.5609 466.176 56.7275 466.176 53.4775V52.7275C466.176 48.5609 467.093 46.4775 468.926 46.4775C470.01 46.4775 471.385 48.3109 473.051 51.9775C475.801 57.9775 479.301 68.7275 483.551 84.2275C485.968 93.2275 488.801 104.811 492.051 118.978C491.968 118.644 492.635 121.519 494.051 127.603L494.176 128.228C494.176 120.144 494.26 112.894 494.426 106.478L494.676 84.7275V47.7275C495.01 45.6442 496.343 44.6025 498.676 44.6025C500.926 44.6025 502.051 46.2275 502.051 49.4775V50.2275C501.551 51.2275 501.301 52.4359 501.301 53.8525C501.301 58.9359 501.176 66.6025 500.926 76.8525C500.676 87.1859 500.551 94.9359 500.551 100.103V138.228C500.551 139.561 500.176 140.811 499.426 141.978C498.76 143.228 497.926 143.853 496.926 143.853ZM543.815 145.228C539.232 145.228 535.44 143.853 532.44 141.103C530.023 139.103 527.815 135.686 525.815 130.853C524.565 127.686 523.565 123.228 522.815 117.478C522.232 112.811 521.94 108.394 521.94 104.228C521.857 103.144 521.815 101.269 521.815 98.6025V94.3525V89.3525C521.815 85.7692 521.94 81.4775 522.19 76.4775C522.523 72.2275 523.19 67.8942 524.19 63.4775C525.273 59.1442 526.857 55.4775 528.94 52.4775C531.023 49.3109 533.815 47.0609 537.315 45.7275C539.398 45.1442 541.357 44.8525 543.19 44.8525C546.69 44.8525 548.44 46.0192 548.44 48.3525C548.44 49.2692 548.107 50.0192 547.44 50.6025C546.857 51.1025 546.065 51.3525 545.065 51.3525C544.732 51.3525 544.148 51.2275 543.315 50.9775L541.565 50.7275C539.982 50.7275 538.565 51.2275 537.315 52.2275C536.065 53.1442 535.023 54.5192 534.19 56.3525C532.273 60.3525 530.982 64.7275 530.315 69.4775C529.398 75.3109 528.898 80.3942 528.815 84.7275C528.648 88.4775 528.565 92.4359 528.565 96.6025V99.9775C528.482 101.144 528.44 102.603 528.44 104.353C528.44 108.603 528.648 112.769 529.065 116.853C529.398 121.686 530.315 125.853 531.815 129.353C533.148 133.269 535.315 136.019 538.315 137.603C539.732 138.436 541.482 138.853 543.565 138.853C547.232 138.853 550.315 137.103 552.815 133.603C552.732 130.686 552.523 127.853 552.19 125.103C551.857 122.269 551.357 120.353 550.69 119.353C550.607 119.353 550.398 119.394 550.065 119.478C549.815 119.478 549.398 119.519 548.815 119.603L545.815 119.853C542.982 119.853 541.565 118.644 541.565 116.228C541.565 115.478 541.982 114.811 542.815 114.228C543.648 113.644 544.773 113.228 546.19 112.978C548.523 112.394 550.607 112.103 552.44 112.103C554.107 112.103 555.398 112.728 556.315 113.978C557.232 115.228 557.69 116.811 557.69 118.728C557.69 121.478 558.107 125.228 558.94 129.978C559.773 134.644 560.19 138.353 560.19 141.103C560.19 142.019 559.898 142.811 559.315 143.478C558.732 144.144 558.023 144.478 557.19 144.478C555.107 144.478 553.69 143.603 552.94 141.853V141.728L550.19 143.103C547.69 144.519 545.565 145.228 543.815 145.228ZM612.154 142.103C609.737 142.103 608.529 139.436 608.529 134.103C608.529 124.436 608.07 108.978 607.154 87.7275C606.32 66.4775 605.529 55.2692 604.779 54.1025C604.779 51.7692 605.695 49.9775 607.529 48.7275C608.195 48.3109 609.112 47.9775 610.279 47.7275C611.529 47.3942 612.654 47.2275 613.654 47.2275C614.154 47.1442 615.195 47.1025 616.779 47.1025C618.695 47.1025 620.07 47.4359 620.904 48.1025C621.737 48.6859 622.154 49.7692 622.154 51.3525C622.154 52.2692 621.82 52.9775 621.154 53.4775C620.487 53.8942 619.654 54.1025 618.654 54.1025L617.404 53.9775H615.654C613.32 53.9775 612.154 54.4359 612.154 55.3525C612.154 59.6859 612.445 65.3525 613.029 72.3525C613.529 78.1859 613.862 83.7275 614.029 88.9775C614.612 88.8109 615.695 88.5609 617.279 88.2275C618.945 87.8109 620.195 87.6025 621.029 87.6025C621.945 87.6025 622.737 88.0192 623.404 88.8525C624.07 89.6025 624.404 90.4775 624.404 91.4775C624.404 92.6442 623.862 93.4775 622.779 93.9775C622.612 94.0609 622.195 94.2692 621.529 94.6025C620.945 94.8525 620.154 95.0192 619.154 95.1025C618.404 95.1859 617.154 95.3109 615.404 95.4775H614.029C614.029 100.478 614.445 107.269 615.279 115.853C616.029 124.853 616.404 131.644 616.404 136.228L616.279 136.728L616.154 136.978C616.237 137.311 616.279 137.853 616.279 138.603C616.279 139.686 615.904 140.561 615.154 141.228C614.404 141.811 613.404 142.103 612.154 142.103ZM652.735 141.853C645.568 141.853 641.985 140.603 641.985 138.103C641.985 136.103 643.235 135.103 645.735 135.103H647.235C647.568 135.186 647.943 135.228 648.36 135.228C649.027 135.228 649.485 135.019 649.735 134.603C650.068 134.186 650.235 133.436 650.235 132.353C650.235 125.269 649.818 115.603 648.985 103.353C648.235 90.6025 647.86 80.9775 647.86 74.4775C647.86 72.1442 647.902 70.0192 647.985 68.1025L648.11 61.7275C648.11 58.9775 647.985 56.6859 647.735 54.8525C646.818 55.1859 645.86 55.3525 644.86 55.3525C642.943 55.3525 641.985 54.3525 641.985 52.3525C641.985 51.3525 642.568 50.4775 643.735 49.7275C644.985 48.9775 646.568 48.4359 648.485 48.1025C651.985 47.5192 654.943 47.2275 657.36 47.2275C658.36 47.2275 659.193 47.5609 659.86 48.2275C660.61 48.8942 660.985 49.6859 660.985 50.6025C660.985 51.5192 660.693 52.3109 660.11 52.9775C659.61 53.6442 658.943 53.9775 658.11 53.9775C657.61 53.9775 657.193 53.9359 656.86 53.8525H655.86C655.027 53.8525 654.402 54.0609 653.985 54.4775C653.652 54.8109 653.485 55.4775 653.485 56.4775C653.485 65.3109 654.027 77.4775 655.11 92.9775C656.11 109.228 656.61 121.436 656.61 129.603V134.353C657.193 134.269 658.027 134.228 659.11 134.228C662.61 134.228 664.36 135.686 664.36 138.603V139.353L661.235 141.478C661.152 141.478 660.902 141.519 660.485 141.603C660.068 141.603 659.235 141.603 657.985 141.603C655.152 141.769 653.402 141.853 652.735 141.853ZM682.339 143.103C680.839 143.103 679.631 142.103 678.714 140.103C680.548 137.269 682.631 129.728 684.964 117.478C687.381 105.144 689.423 92.3942 691.089 79.2275C692.756 66.3109 693.673 57.7275 693.839 53.4775L689.339 53.8525C688.756 53.9359 687.881 53.9775 686.714 53.9775C682.214 53.9775 679.964 52.6859 679.964 50.1025V49.4775L681.589 47.4775V47.3525C682.589 47.6859 683.798 47.8525 685.214 47.8525C686.548 47.8525 688.506 47.6025 691.089 47.1025C694.006 46.6859 695.964 46.4775 696.964 46.4775C697.964 46.4775 698.756 46.8525 699.339 47.6025C700.006 48.2692 700.339 49.1025 700.339 50.1025C700.339 72.0192 695.714 100.894 686.464 136.728L689.214 136.603C690.298 136.436 691.589 136.353 693.089 136.353C697.506 136.353 699.714 137.603 699.714 140.103V140.728L697.714 142.603L690.089 142.853C687.756 143.019 685.173 143.103 682.339 143.103ZM721.182 143.103C719.682 143.103 718.474 142.103 717.557 140.103C719.39 137.269 721.474 129.728 723.807 117.478C726.224 105.144 728.265 92.3942 729.932 79.2275C731.599 66.3109 732.515 57.7275 732.682 53.4775L728.182 53.8525C727.599 53.9359 726.724 53.9775 725.557 53.9775C721.057 53.9775 718.807 52.6859 718.807 50.1025V49.4775L720.432 47.4775V47.3525C721.432 47.6859 722.64 47.8525 724.057 47.8525C725.39 47.8525 727.349 47.6025 729.932 47.1025C732.849 46.6859 734.807 46.4775 735.807 46.4775C736.807 46.4775 737.599 46.8525 738.182 47.6025C738.849 48.2692 739.182 49.1025 739.182 50.1025C739.182 72.0192 734.557 100.894 725.307 136.728L728.057 136.603C729.14 136.436 730.432 136.353 731.932 136.353C736.349 136.353 738.557 137.603 738.557 140.103V140.728L736.557 142.603L728.932 142.853C726.599 143.019 724.015 143.103 721.182 143.103Z" fill="#2F373D"/>
<defs>
<clipPath id="clip0">
<rect x="55.355" y="17.8042" width="158" height="158" fill="white"/>
</clipPath>
<clipPath id="clip1">
<rect x="2.03125" y="42.1575" width="65.3806" height="65.3806" transform="rotate(-38.1656 2.03125 42.1575)" fill="white"/>
</clipPath>
</defs>
</svg>
