<svg width="488" height="101" viewBox="0 0 488 101" fill="none" xmlns="http://www.w3.org/2000/svg">
<path d="M20.1538 99.6641C17.8205 99.6641 15.6538 99.1224 13.6538 98.0391C11.7371 96.9557 10.0705 95.4974 8.65381 93.6641C7.40381 91.9141 6.27881 89.7057 5.27881 87.0391C4.27881 84.2891 3.52881 81.4557 3.02881 78.5391C2.02881 73.6224 1.36214 67.1641 1.02881 59.1641C0.945476 57.2474 0.903809 53.9557 0.903809 49.2891V41.4141C0.987142 39.1641 1.02881 36.8307 1.02881 34.4141C1.02881 29.4974 1.32048 25.6224 1.90381 22.7891C1.65381 21.5391 1.52881 20.2474 1.52881 18.9141C1.52881 13.9141 3.40381 9.87239 7.15381 6.78906C10.9038 3.70572 15.6538 2.16406 21.4038 2.16406C23.5705 2.16406 25.5705 2.74739 27.4038 3.91406C29.2371 5.08072 30.1538 6.53906 30.1538 8.28906C30.1538 9.12239 29.8205 9.78906 29.1538 10.2891C28.4871 10.7891 27.6538 11.0391 26.6538 11.0391C25.8205 11.0391 24.9038 10.9141 23.9038 10.6641C22.9871 10.4141 22.4038 10.0391 22.1538 9.53906H20.5288V9.28906C17.4455 9.28906 14.8621 9.95573 12.7788 11.2891C11.2788 12.3724 10.1121 14.1641 9.27881 16.6641C8.94548 17.5807 8.69548 18.7474 8.52881 20.1641C8.36214 21.5807 8.27881 22.8724 8.27881 24.0391C8.19548 24.7057 8.15381 26.0391 8.15381 28.0391L8.40381 32.4141L8.52881 36.6641C8.52881 37.9141 8.36214 39.3724 8.02881 41.0391C7.61214 43.1224 7.40381 44.5807 7.40381 45.4141V48.4141C7.40381 51.6641 7.52881 56.1224 7.77881 61.7891C7.86214 66.5391 8.40381 71.2891 9.40381 76.0391C10.1538 80.4557 11.5705 84.2057 13.6538 87.2891C15.6538 90.4557 18.3621 92.0391 21.7788 92.0391C23.1955 92.0391 24.9455 91.2891 27.0288 89.7891C29.2788 88.2891 30.8621 87.5391 31.7788 87.5391C32.9455 87.5391 34.1538 88.1641 35.4038 89.4141C35.4038 92.4974 34.2371 94.8724 31.9038 96.5391C29.7371 98.0391 27.1538 98.9974 24.1538 99.4141C22.4871 99.5807 21.1538 99.6641 20.1538 99.6641ZM60.1431 99.1641C59.3097 99.1641 58.5597 98.8724 57.8931 98.2891C57.3097 97.7057 57.0181 96.9974 57.0181 96.1641L57.2681 84.0391C57.5181 78.6224 57.6431 74.5807 57.6431 71.9141C57.6431 69.4974 57.2681 65.9141 56.5181 61.1641C55.6847 56.4974 55.2681 52.8724 55.2681 50.2891C55.2681 47.1224 54.8097 43.4974 53.8931 39.4141C52.9764 35.3307 51.8097 31.4141 50.3931 27.6641C49.0597 24.0807 47.9347 20.2474 47.0181 16.1641C46.1014 11.9974 45.6431 8.37239 45.6431 5.28906C45.6431 4.70572 45.9764 4.20572 46.6431 3.78906C47.3097 3.37239 48.0181 3.16406 48.7681 3.16406C49.6847 3.16406 50.5597 4.12239 51.3931 6.03906C52.3931 8.20573 53.3514 11.2474 54.2681 15.1641C55.1847 19.0807 55.7264 21.4141 55.8931 22.1641L57.5181 30.7891L58.7681 36.2891C59.0181 34.9557 59.2264 33.2057 59.3931 31.0391C59.8931 24.1224 60.5181 18.3724 61.2681 13.7891C61.8514 10.6224 62.5181 8.20572 63.2681 6.53906C64.1014 4.70572 65.1014 3.78906 66.2681 3.78906C68.5181 3.78906 69.6431 4.20572 69.6431 5.03906C69.6431 9.78906 68.6431 16.7891 66.6431 26.0391C64.6431 35.2891 63.6431 42.3307 63.6431 47.1641L63.3931 49.1641C63.2264 50.4141 63.1847 51.1641 63.2681 51.4141V53.4141C63.2681 56.9974 63.3931 62.4974 63.6431 69.9141L63.8931 86.5391L64.1431 89.4141L64.3931 92.4141V95.5391C64.3931 96.5391 63.9764 97.3724 63.1431 98.0391C62.3097 98.7891 61.3097 99.1641 60.1431 99.1641ZM107.849 99.6641C105.516 99.6641 103.349 99.1224 101.349 98.0391C99.4325 96.9557 97.7658 95.4974 96.3491 93.6641C95.0991 91.9141 93.9741 89.7057 92.9741 87.0391C91.9741 84.2891 91.2241 81.4557 90.7241 78.5391C89.7241 73.6224 89.0575 67.1641 88.7241 59.1641C88.6408 57.2474 88.5991 53.9557 88.5991 49.2891V41.4141C88.6825 39.1641 88.7241 36.8307 88.7241 34.4141C88.7241 29.4974 89.0158 25.6224 89.5991 22.7891C89.3491 21.5391 89.2241 20.2474 89.2241 18.9141C89.2241 13.9141 91.0991 9.87239 94.8491 6.78906C98.5991 3.70572 103.349 2.16406 109.099 2.16406C111.266 2.16406 113.266 2.74739 115.099 3.91406C116.932 5.08072 117.849 6.53906 117.849 8.28906C117.849 9.12239 117.516 9.78906 116.849 10.2891C116.182 10.7891 115.349 11.0391 114.349 11.0391C113.516 11.0391 112.599 10.9141 111.599 10.6641C110.682 10.4141 110.099 10.0391 109.849 9.53906H108.224V9.28906C105.141 9.28906 102.557 9.95573 100.474 11.2891C98.9741 12.3724 97.8075 14.1641 96.9741 16.6641C96.6408 17.5807 96.3908 18.7474 96.2241 20.1641C96.0575 21.5807 95.9741 22.8724 95.9741 24.0391C95.8908 24.7057 95.8491 26.0391 95.8491 28.0391L96.0991 32.4141L96.2241 36.6641C96.2241 37.9141 96.0575 39.3724 95.7241 41.0391C95.3075 43.1224 95.0991 44.5807 95.0991 45.4141V48.4141C95.0991 51.6641 95.2241 56.1224 95.4741 61.7891C95.5575 66.5391 96.0991 71.2891 97.0991 76.0391C97.8491 80.4557 99.2658 84.2057 101.349 87.2891C103.349 90.4557 106.057 92.0391 109.474 92.0391C110.891 92.0391 112.641 91.2891 114.724 89.7891C116.974 88.2891 118.557 87.5391 119.474 87.5391C120.641 87.5391 121.849 88.1641 123.099 89.4141C123.099 92.4974 121.932 94.8724 119.599 96.5391C117.432 98.0391 114.849 98.9974 111.849 99.4141C110.182 99.5807 108.849 99.6641 107.849 99.6641ZM144.713 99.0391C143.63 99.0391 142.63 98.6224 141.713 97.7891C140.88 97.0391 140.463 96.1224 140.463 95.0391C140.463 94.2891 140.63 93.3724 140.963 92.2891C141.213 91.1224 141.338 90.2474 141.338 89.6641C141.338 82.2474 140.922 67.9974 140.088 46.9141C139.255 28.9141 138.838 14.7057 138.838 4.28906C138.838 3.53906 139.13 2.95572 139.713 2.53906C140.297 2.03906 141.005 1.78906 141.838 1.78906C142.838 1.78906 143.713 2.16406 144.463 2.91406C145.213 3.58072 145.588 4.41406 145.588 5.41406C145.588 10.4141 145.838 17.9141 146.338 27.9141C146.755 38.9974 146.963 46.4974 146.963 50.4141L147.088 51.9141V53.4141V54.2891V54.9141C147.338 62.1641 147.463 72.9974 147.463 87.4141V90.6641H157.088C158.838 91.9141 159.713 93.1641 159.713 94.4141C159.713 95.3307 159.38 96.1641 158.713 96.9141C158.13 97.5807 157.422 97.9141 156.588 97.9141C156.338 97.9141 155.88 97.8307 155.213 97.6641L154.713 97.5391C154.213 97.6224 153.422 97.6641 152.338 97.6641H150.213C149.63 97.5807 148.963 97.5391 148.213 97.5391C147.38 98.5391 146.213 99.0391 144.713 99.0391ZM184.338 97.5391C177.172 97.5391 173.588 96.2891 173.588 93.7891C173.588 91.7891 174.838 90.7891 177.338 90.7891H178.838C179.172 90.8724 179.547 90.9141 179.963 90.9141C180.63 90.9141 181.088 90.7057 181.338 90.2891C181.672 89.8724 181.838 89.1224 181.838 88.0391C181.838 80.9557 181.422 71.2891 180.588 59.0391C179.838 46.2891 179.463 36.6641 179.463 30.1641C179.463 27.8307 179.505 25.7057 179.588 23.7891L179.713 17.4141C179.713 14.6641 179.588 12.3724 179.338 10.5391C178.422 10.8724 177.463 11.0391 176.463 11.0391C174.547 11.0391 173.588 10.0391 173.588 8.03906C173.588 7.03906 174.172 6.16406 175.338 5.41406C176.588 4.66406 178.172 4.12239 180.088 3.78906C183.588 3.20573 186.547 2.91406 188.963 2.91406C189.963 2.91406 190.797 3.24739 191.463 3.91406C192.213 4.58072 192.588 5.37239 192.588 6.28906C192.588 7.20573 192.297 7.99739 191.713 8.66406C191.213 9.33072 190.547 9.66406 189.713 9.66406C189.213 9.66406 188.797 9.62239 188.463 9.53906H187.463C186.63 9.53906 186.005 9.74739 185.588 10.1641C185.255 10.4974 185.088 11.1641 185.088 12.1641C185.088 20.9974 185.63 33.1641 186.713 48.6641C187.713 64.9141 188.213 77.1224 188.213 85.2891V90.0391C188.797 89.9557 189.63 89.9141 190.713 89.9141C194.213 89.9141 195.963 91.3724 195.963 94.2891V95.0391L192.838 97.1641C192.755 97.1641 192.505 97.2057 192.088 97.2891C191.672 97.2891 190.838 97.2891 189.588 97.2891C186.755 97.4557 185.005 97.5391 184.338 97.5391ZM245.693 99.5391C244.026 99.5391 240.61 90.9557 235.443 73.7891C229.61 53.7057 224.568 35.2474 220.318 18.4141V59.4141C220.318 62.9141 220.651 68.8724 221.318 77.2891C221.901 86.4557 222.193 92.3724 222.193 95.0391C222.193 95.7891 221.735 96.4557 220.818 97.0391C219.901 97.5391 218.86 97.7891 217.693 97.7891C215.943 97.7891 215.068 97.1224 215.068 95.7891L215.318 92.1641C215.485 89.4974 215.568 87.7474 215.568 86.9141C215.568 82.4974 215.318 75.4974 214.818 65.9141C214.318 56.1641 214.068 50.2474 214.068 48.1641V32.1641C214.068 29.5807 214.193 25.7474 214.443 20.6641C214.776 16.2474 214.943 12.4141 214.943 9.16406V8.41406C214.943 4.24739 215.86 2.16406 217.693 2.16406C218.776 2.16406 220.151 3.99739 221.818 7.66406C224.568 13.6641 228.068 24.4141 232.318 39.9141C234.735 48.9141 237.568 60.4974 240.818 74.6641C240.735 74.3307 241.401 77.2057 242.818 83.2891L242.943 83.9141C242.943 75.8307 243.026 68.5807 243.193 62.1641L243.443 40.4141V3.41406C243.776 1.33073 245.11 0.289057 247.443 0.289057C249.693 0.289057 250.818 1.91406 250.818 5.16406V5.91406C250.318 6.91406 250.068 8.12239 250.068 9.53906C250.068 14.6224 249.943 22.2891 249.693 32.5391C249.443 42.8724 249.318 50.6224 249.318 55.7891V93.9141C249.318 95.2474 248.943 96.4974 248.193 97.6641C247.526 98.9141 246.693 99.5391 245.693 99.5391ZM292.582 100.914C287.998 100.914 284.207 99.5391 281.207 96.7891C278.79 94.7891 276.582 91.3724 274.582 86.5391C273.332 83.3724 272.332 78.9141 271.582 73.1641C270.998 68.4974 270.707 64.0807 270.707 59.9141C270.623 58.8307 270.582 56.9557 270.582 54.2891V50.0391V45.0391C270.582 41.4557 270.707 37.1641 270.957 32.1641C271.29 27.9141 271.957 23.5807 272.957 19.1641C274.04 14.8307 275.623 11.1641 277.707 8.16406C279.79 4.99739 282.582 2.74739 286.082 1.41406C288.165 0.830727 290.123 0.539061 291.957 0.539061C295.457 0.539061 297.207 1.70573 297.207 4.03906C297.207 4.95573 296.873 5.70573 296.207 6.28906C295.623 6.78906 294.832 7.03906 293.832 7.03906C293.498 7.03906 292.915 6.91406 292.082 6.66406L290.332 6.41406C288.748 6.41406 287.332 6.91406 286.082 7.91406C284.832 8.83073 283.79 10.2057 282.957 12.0391C281.04 16.0391 279.748 20.4141 279.082 25.1641C278.165 30.9974 277.665 36.0807 277.582 40.4141C277.415 44.1641 277.332 48.1224 277.332 52.2891V55.6641C277.248 56.8307 277.207 58.2891 277.207 60.0391C277.207 64.2891 277.415 68.4557 277.832 72.5391C278.165 77.3724 279.082 81.5391 280.582 85.0391C281.915 88.9557 284.082 91.7057 287.082 93.2891C288.498 94.1224 290.248 94.5391 292.332 94.5391C295.998 94.5391 299.082 92.7891 301.582 89.2891C301.498 86.3724 301.29 83.5391 300.957 80.7891C300.623 77.9557 300.123 76.0391 299.457 75.0391C299.373 75.0391 299.165 75.0807 298.832 75.1641C298.582 75.1641 298.165 75.2057 297.582 75.2891L294.582 75.5391C291.748 75.5391 290.332 74.3307 290.332 71.9141C290.332 71.1641 290.748 70.4974 291.582 69.9141C292.415 69.3307 293.54 68.9141 294.957 68.6641C297.29 68.0807 299.373 67.7891 301.207 67.7891C302.873 67.7891 304.165 68.4141 305.082 69.6641C305.998 70.9141 306.457 72.4974 306.457 74.4141C306.457 77.1641 306.873 80.9141 307.707 85.6641C308.54 90.3307 308.957 94.0391 308.957 96.7891C308.957 97.7057 308.665 98.4974 308.082 99.1641C307.498 99.8307 306.79 100.164 305.957 100.164C303.873 100.164 302.457 99.2891 301.707 97.5391V97.4141L298.957 98.7891C296.457 100.206 294.332 100.914 292.582 100.914ZM360.92 97.7891C358.504 97.7891 357.295 95.1224 357.295 89.7891C357.295 80.1224 356.837 64.6641 355.92 43.4141C355.087 22.1641 354.295 10.9557 353.545 9.78906C353.545 7.45573 354.462 5.66406 356.295 4.41406C356.962 3.99739 357.879 3.66406 359.045 3.41406C360.295 3.08073 361.42 2.91406 362.42 2.91406C362.92 2.83072 363.962 2.78905 365.545 2.78905C367.462 2.78905 368.837 3.12239 369.67 3.78906C370.504 4.37239 370.92 5.45573 370.92 7.03906C370.92 7.95572 370.587 8.66406 369.92 9.16406C369.254 9.58073 368.42 9.78906 367.42 9.78906L366.17 9.66406H364.42C362.087 9.66406 360.92 10.1224 360.92 11.0391C360.92 15.3724 361.212 21.0391 361.795 28.0391C362.295 33.8724 362.629 39.4141 362.795 44.6641C363.379 44.4974 364.462 44.2474 366.045 43.9141C367.712 43.4974 368.962 43.2891 369.795 43.2891C370.712 43.2891 371.504 43.7057 372.17 44.5391C372.837 45.2891 373.17 46.1641 373.17 47.1641C373.17 48.3307 372.629 49.1641 371.545 49.6641C371.379 49.7474 370.962 49.9557 370.295 50.2891C369.712 50.5391 368.92 50.7057 367.92 50.7891C367.17 50.8724 365.92 50.9974 364.17 51.1641H362.795C362.795 56.1641 363.212 62.9557 364.045 71.5391C364.795 80.5391 365.17 87.3307 365.17 91.9141L365.045 92.4141L364.92 92.6641C365.004 92.9974 365.045 93.5391 365.045 94.2891C365.045 95.3724 364.67 96.2474 363.92 96.9141C363.17 97.4974 362.17 97.7891 360.92 97.7891ZM401.501 97.5391C394.335 97.5391 390.751 96.2891 390.751 93.7891C390.751 91.7891 392.001 90.7891 394.501 90.7891H396.001C396.335 90.8724 396.71 90.9141 397.126 90.9141C397.793 90.9141 398.251 90.7057 398.501 90.2891C398.835 89.8724 399.001 89.1224 399.001 88.0391C399.001 80.9557 398.585 71.2891 397.751 59.0391C397.001 46.2891 396.626 36.6641 396.626 30.1641C396.626 27.8307 396.668 25.7057 396.751 23.7891L396.876 17.4141C396.876 14.6641 396.751 12.3724 396.501 10.5391C395.585 10.8724 394.626 11.0391 393.626 11.0391C391.71 11.0391 390.751 10.0391 390.751 8.03906C390.751 7.03906 391.335 6.16406 392.501 5.41406C393.751 4.66406 395.335 4.12239 397.251 3.78906C400.751 3.20573 403.71 2.91406 406.126 2.91406C407.126 2.91406 407.96 3.24739 408.626 3.91406C409.376 4.58072 409.751 5.37239 409.751 6.28906C409.751 7.20573 409.46 7.99739 408.876 8.66406C408.376 9.33072 407.71 9.66406 406.876 9.66406C406.376 9.66406 405.96 9.62239 405.626 9.53906H404.626C403.793 9.53906 403.168 9.74739 402.751 10.1641C402.418 10.4974 402.251 11.1641 402.251 12.1641C402.251 20.9974 402.793 33.1641 403.876 48.6641C404.876 64.9141 405.376 77.1224 405.376 85.2891V90.0391C405.96 89.9557 406.793 89.9141 407.876 89.9141C411.376 89.9141 413.126 91.3724 413.126 94.2891V95.0391L410.001 97.1641C409.918 97.1641 409.668 97.2057 409.251 97.2891C408.835 97.2891 408.001 97.2891 406.751 97.2891C403.918 97.4557 402.168 97.5391 401.501 97.5391ZM431.106 98.7891C429.606 98.7891 428.398 97.7891 427.481 95.7891C429.314 92.9557 431.398 85.4141 433.731 73.1641C436.148 60.8307 438.189 48.0807 439.856 34.9141C441.523 21.9974 442.439 13.4141 442.606 9.16406L438.106 9.53906C437.523 9.62239 436.648 9.66406 435.481 9.66406C430.981 9.66406 428.731 8.37239 428.731 5.78906V5.16406L430.356 3.16406V3.03906C431.356 3.37239 432.564 3.53906 433.981 3.53906C435.314 3.53906 437.273 3.28906 439.856 2.78905C442.773 2.37239 444.731 2.16406 445.731 2.16406C446.731 2.16406 447.523 2.53906 448.106 3.28906C448.773 3.95572 449.106 4.78906 449.106 5.78906C449.106 27.7057 444.481 56.5807 435.231 92.4141L437.981 92.2891C439.064 92.1224 440.356 92.0391 441.856 92.0391C446.273 92.0391 448.481 93.2891 448.481 95.7891V96.4141L446.481 98.2891L438.856 98.5391C436.523 98.7057 433.939 98.7891 431.106 98.7891ZM469.949 98.7891C468.449 98.7891 467.24 97.7891 466.324 95.7891C468.157 92.9557 470.24 85.4141 472.574 73.1641C474.99 60.8307 477.032 48.0807 478.699 34.9141C480.365 21.9974 481.282 13.4141 481.449 9.16406L476.949 9.53906C476.365 9.62239 475.49 9.66406 474.324 9.66406C469.824 9.66406 467.574 8.37239 467.574 5.78906V5.16406L469.199 3.16406V3.03906C470.199 3.37239 471.407 3.53906 472.824 3.53906C474.157 3.53906 476.115 3.28906 478.699 2.78905C481.615 2.37239 483.574 2.16406 484.574 2.16406C485.574 2.16406 486.365 2.53906 486.949 3.28906C487.615 3.95572 487.949 4.78906 487.949 5.78906C487.949 27.7057 483.324 56.5807 474.074 92.4141L476.824 92.2891C477.907 92.1224 479.199 92.0391 480.699 92.0391C485.115 92.0391 487.324 93.2891 487.324 95.7891V96.4141L485.324 98.2891L477.699 98.5391C475.365 98.7057 472.782 98.7891 469.949 98.7891Z" fill="#2F373D"/>
</svg>
