<svg width="488" height="102" viewBox="0 0 488 102" fill="none" xmlns="http://www.w3.org/2000/svg">
<path d="M20.1797 100.168C17.8467 100.168 15.6797 99.6265 13.6797 98.5435C11.7637 97.4595 10.0967 96.0015 8.67969 94.1685C7.42969 92.4185 6.30469 90.2095 5.30469 87.5435C4.30469 84.7935 3.55469 81.9595 3.05469 79.0435C2.05469 74.1265 1.38869 67.6685 1.05469 59.6685C0.971688 57.7515 0.929688 54.4595 0.929688 49.7935V41.918C1.01369 39.668 1.05469 37.3347 1.05469 34.918C1.05469 30.0014 1.34669 26.1264 1.92969 23.293C1.67969 22.043 1.55469 20.7514 1.55469 19.418C1.55469 14.418 3.42969 10.3764 7.17969 7.29297C10.9297 4.20967 15.6797 2.66797 21.4297 2.66797C23.5967 2.66797 25.5967 3.25137 27.4297 4.41797C29.2637 5.58467 30.1797 7.04297 30.1797 8.79297C30.1797 9.62637 29.8467 10.293 29.1797 10.793C28.5137 11.293 27.6797 11.543 26.6797 11.543C25.8467 11.543 24.9297 11.418 23.9297 11.168C23.0137 10.918 22.4297 10.543 22.1797 10.043H20.5547V9.79297C17.4717 9.79297 14.8887 10.4597 12.8047 11.793C11.3047 12.8764 10.1387 14.668 9.30469 17.168C8.97169 18.0847 8.72169 19.2514 8.55469 20.668C8.38869 22.0847 8.30469 23.3764 8.30469 24.543C8.22169 25.2097 8.17969 26.543 8.17969 28.543L8.42969 32.918L8.55469 37.168C8.55469 38.418 8.38869 39.8764 8.05469 41.543C7.63869 43.6264 7.42969 45.0847 7.42969 45.918V48.9185C7.42969 52.1685 7.55469 56.6265 7.80469 62.2935C7.88869 67.0435 8.42969 71.7935 9.42969 76.5435C10.1797 80.9595 11.5967 84.7095 13.6797 87.7935C15.6797 90.9595 18.3887 92.5435 21.8047 92.5435C23.2217 92.5435 24.9717 91.7935 27.0547 90.2935C29.3047 88.7935 30.8887 88.0435 31.8047 88.0435C32.9717 88.0435 34.1797 88.6685 35.4297 89.9185C35.4297 93.0015 34.2637 95.3765 31.9297 97.0435C29.7637 98.5435 27.1797 99.5015 24.1797 99.9185C22.5137 100.084 21.1797 100.168 20.1797 100.168ZM60.1687 99.6685C59.3357 99.6685 58.5857 99.3765 57.9187 98.7935C57.3357 98.2095 57.0437 97.5015 57.0437 96.6685L57.2937 84.5435C57.5437 79.1265 57.6687 75.0845 57.6687 72.4185C57.6687 70.0015 57.2937 66.4185 56.5437 61.6685C55.7107 57.0015 55.2937 53.3765 55.2937 50.7935C55.2937 47.6264 54.8357 44.0014 53.9187 39.918C53.0027 35.8347 51.8357 31.918 50.4187 28.168C49.0857 24.5847 47.9607 20.7514 47.0437 16.668C46.1277 12.5014 45.6687 8.87637 45.6687 5.79297C45.6687 5.20967 46.0027 4.70967 46.6687 4.29297C47.3357 3.87637 48.0437 3.66797 48.7937 3.66797C49.7107 3.66797 50.5857 4.62637 51.4187 6.54297C52.4187 8.70967 53.3777 11.7514 54.2937 15.668C55.2107 19.5847 55.7527 21.918 55.9187 22.668L57.5437 31.293L58.7937 36.793C59.0437 35.4597 59.2527 33.7097 59.4187 31.543C59.9187 24.6264 60.5437 18.8764 61.2937 14.293C61.8777 11.1264 62.5437 8.70967 63.2937 7.04297C64.1277 5.20967 65.1277 4.29297 66.2937 4.29297C68.5437 4.29297 69.6687 4.70967 69.6687 5.54297C69.6687 10.293 68.6687 17.293 66.6687 26.543C64.6687 35.793 63.6687 42.8347 63.6687 47.668L63.4187 49.6685C63.2527 50.9185 63.2107 51.6685 63.2937 51.9185V53.9185C63.2937 57.5015 63.4187 63.0015 63.6687 70.4185L63.9187 87.0435L64.1687 89.9185L64.4187 92.9185V96.0435C64.4187 97.0435 64.0027 97.8765 63.1687 98.5435C62.3357 99.2935 61.3357 99.6685 60.1687 99.6685ZM107.876 100.168C105.542 100.168 103.376 99.6265 101.376 98.5435C99.4587 97.4595 97.7917 96.0015 96.3757 94.1685C95.1257 92.4185 94.0007 90.2095 93.0007 87.5435C92.0007 84.7935 91.2507 81.9595 90.7507 79.0435C89.7507 74.1265 89.0837 67.6685 88.7507 59.6685C88.6667 57.7515 88.6257 54.4595 88.6257 49.7935V41.918C88.7087 39.668 88.7507 37.3347 88.7507 34.918C88.7507 30.0014 89.0417 26.1264 89.6257 23.293C89.3757 22.043 89.2507 20.7514 89.2507 19.418C89.2507 14.418 91.1257 10.3764 94.8757 7.29297C98.6257 4.20967 103.376 2.66797 109.126 2.66797C111.292 2.66797 113.292 3.25137 115.126 4.41797C116.959 5.58467 117.876 7.04297 117.876 8.79297C117.876 9.62637 117.542 10.293 116.876 10.793C116.209 11.293 115.376 11.543 114.376 11.543C113.542 11.543 112.626 11.418 111.626 11.168C110.709 10.918 110.126 10.543 109.876 10.043H108.251V9.79297C105.167 9.79297 102.584 10.4597 100.501 11.793C99.0007 12.8764 97.8337 14.668 97.0007 17.168C96.6667 18.0847 96.4167 19.2514 96.2507 20.668C96.0837 22.0847 96.0007 23.3764 96.0007 24.543C95.9167 25.2097 95.8757 26.543 95.8757 28.543L96.1257 32.918L96.2507 37.168C96.2507 38.418 96.0837 39.8764 95.7507 41.543C95.3337 43.6264 95.1257 45.0847 95.1257 45.918V48.9185C95.1257 52.1685 95.2507 56.6265 95.5007 62.2935C95.5837 67.0435 96.1257 71.7935 97.1257 76.5435C97.8757 80.9595 99.2917 84.7095 101.376 87.7935C103.376 90.9595 106.084 92.5435 109.501 92.5435C110.917 92.5435 112.667 91.7935 114.751 90.2935C117.001 88.7935 118.584 88.0435 119.501 88.0435C120.667 88.0435 121.876 88.6685 123.126 89.9185C123.126 93.0015 121.959 95.3765 119.626 97.0435C117.459 98.5435 114.876 99.5015 111.876 99.9185C110.209 100.084 108.876 100.168 107.876 100.168ZM144.74 99.5435C143.656 99.5435 142.656 99.1265 141.74 98.2935C140.906 97.5435 140.49 96.6265 140.49 95.5435C140.49 94.7935 140.656 93.8765 140.99 92.7935C141.24 91.6265 141.365 90.7515 141.365 90.1685C141.365 82.7515 140.948 68.5015 140.115 47.418C139.281 29.418 138.865 15.2097 138.865 4.79297C138.865 4.04297 139.156 3.45967 139.74 3.04297C140.323 2.54297 141.031 2.29297 141.865 2.29297C142.865 2.29297 143.74 2.66797 144.49 3.41797C145.24 4.08467 145.615 4.91797 145.615 5.91797C145.615 10.918 145.865 18.418 146.365 28.418C146.781 39.5014 146.99 47.0014 146.99 50.9185L147.115 52.4185V53.9185V54.7935V55.4185C147.365 62.6685 147.49 73.5015 147.49 87.9185V91.1685H157.115C158.865 92.4185 159.74 93.6685 159.74 94.9185C159.74 95.8345 159.406 96.6685 158.74 97.4185C158.156 98.0845 157.448 98.4185 156.615 98.4185C156.365 98.4185 155.906 98.3345 155.24 98.1685L154.74 98.0435C154.24 98.1265 153.448 98.1685 152.365 98.1685H150.24C149.656 98.0845 148.99 98.0435 148.24 98.0435C147.406 99.0435 146.24 99.5435 144.74 99.5435ZM184.365 98.0435C177.198 98.0435 173.615 96.7935 173.615 94.2935C173.615 92.2935 174.865 91.2935 177.365 91.2935H178.865C179.198 91.3765 179.573 91.4185 179.99 91.4185C180.656 91.4185 181.115 91.2095 181.365 90.7935C181.698 90.3765 181.865 89.6265 181.865 88.5435C181.865 81.4595 181.448 71.7935 180.615 59.5435C179.865 46.793 179.49 37.168 179.49 30.668C179.49 28.3347 179.531 26.2097 179.615 24.293L179.74 17.918C179.74 15.168 179.615 12.8764 179.365 11.043C178.448 11.3764 177.49 11.543 176.49 11.543C174.573 11.543 173.615 10.543 173.615 8.54297C173.615 7.54297 174.198 6.66797 175.365 5.91797C176.615 5.16797 178.198 4.62637 180.115 4.29297C183.615 3.70967 186.573 3.41797 188.99 3.41797C189.99 3.41797 190.823 3.75137 191.49 4.41797C192.24 5.08467 192.615 5.87637 192.615 6.79297C192.615 7.70967 192.323 8.50137 191.74 9.16797C191.24 9.83467 190.573 10.168 189.74 10.168C189.24 10.168 188.823 10.1264 188.49 10.043H187.49C186.656 10.043 186.031 10.2514 185.615 10.668C185.281 11.0014 185.115 11.668 185.115 12.668C185.115 21.5014 185.656 33.668 186.74 49.1685C187.74 65.4185 188.24 77.6265 188.24 85.7935V90.5435C188.823 90.4595 189.656 90.4185 190.74 90.4185C194.24 90.4185 195.99 91.8765 195.99 94.7935V95.5435L192.865 97.6685C192.781 97.6685 192.531 97.7095 192.115 97.7935C191.698 97.7935 190.865 97.7935 189.615 97.7935C186.781 97.9595 185.031 98.0435 184.365 98.0435ZM245.719 100.043C244.053 100.043 240.636 91.4595 235.469 74.2935C229.636 54.2095 224.594 35.7514 220.344 18.918V59.9185C220.344 63.4185 220.678 69.3765 221.344 77.7935C221.928 86.9595 222.219 92.8765 222.219 95.5435C222.219 96.2935 221.761 96.9595 220.844 97.5435C219.928 98.0435 218.886 98.2935 217.719 98.2935C215.969 98.2935 215.094 97.6265 215.094 96.2935L215.344 92.6685C215.511 90.0015 215.594 88.2515 215.594 87.4185C215.594 83.0015 215.344 76.0015 214.844 66.4185C214.344 56.6685 214.094 50.7515 214.094 48.6685V32.668C214.094 30.0847 214.219 26.2514 214.469 21.168C214.803 16.7514 214.969 12.918 214.969 9.66797V8.91797C214.969 4.75137 215.886 2.66797 217.719 2.66797C218.803 2.66797 220.178 4.50137 221.844 8.16797C224.594 14.168 228.094 24.918 232.344 40.418C234.761 49.4185 237.594 61.0015 240.844 75.1685C240.761 74.8345 241.428 77.7095 242.844 83.7935L242.969 84.4185C242.969 76.3345 243.053 69.0845 243.219 62.6685L243.469 40.918V3.91797C243.803 1.83467 245.136 0.792969 247.469 0.792969C249.719 0.792969 250.844 2.41797 250.844 5.66797V6.41797C250.344 7.41797 250.094 8.62637 250.094 10.043C250.094 15.1264 249.969 22.793 249.719 33.043C249.469 43.3764 249.344 51.1265 249.344 56.2935V94.4185C249.344 95.7515 248.969 97.0015 248.219 98.1685C247.553 99.4185 246.719 100.043 245.719 100.043ZM292.608 101.418C288.025 101.418 284.233 100.043 281.233 97.2935C278.816 95.2935 276.608 91.8765 274.608 87.0435C273.358 83.8765 272.358 79.4185 271.608 73.6685C271.025 69.0015 270.733 64.5845 270.733 60.4185C270.65 59.3345 270.608 57.4595 270.608 54.7935V50.5435V45.543C270.608 41.9597 270.733 37.668 270.983 32.668C271.316 28.418 271.983 24.0847 272.983 19.668C274.066 15.3347 275.65 11.668 277.733 8.66797C279.816 5.50137 282.608 3.25137 286.108 1.91797C288.191 1.33467 290.15 1.04297 291.983 1.04297C295.483 1.04297 297.233 2.20967 297.233 4.54297C297.233 5.45967 296.9 6.20967 296.233 6.79297C295.65 7.29297 294.858 7.54297 293.858 7.54297C293.525 7.54297 292.941 7.41797 292.108 7.16797L290.358 6.91797C288.775 6.91797 287.358 7.41797 286.108 8.41797C284.858 9.33467 283.816 10.7097 282.983 12.543C281.066 16.543 279.775 20.918 279.108 25.668C278.191 31.5014 277.691 36.5847 277.608 40.918C277.441 44.668 277.358 48.6265 277.358 52.7935V56.1685C277.275 57.3345 277.233 58.7935 277.233 60.5435C277.233 64.7935 277.441 68.9595 277.858 73.0435C278.191 77.8765 279.108 82.0435 280.608 85.5435C281.941 89.4595 284.108 92.2095 287.108 93.7935C288.525 94.6265 290.275 95.0435 292.358 95.0435C296.025 95.0435 299.108 93.2935 301.608 89.7935C301.525 86.8765 301.316 84.0435 300.983 81.2935C300.65 78.4595 300.15 76.5435 299.483 75.5435C299.4 75.5435 299.191 75.5845 298.858 75.6685C298.608 75.6685 298.191 75.7095 297.608 75.7935L294.608 76.0435C291.775 76.0435 290.358 74.8345 290.358 72.4185C290.358 71.6685 290.775 71.0015 291.608 70.4185C292.441 69.8345 293.566 69.4185 294.983 69.1685C297.316 68.5845 299.4 68.2935 301.233 68.2935C302.9 68.2935 304.191 68.9185 305.108 70.1685C306.025 71.4185 306.483 73.0015 306.483 74.9185C306.483 77.6685 306.9 81.4185 307.733 86.1685C308.566 90.8345 308.983 94.5435 308.983 97.2935C308.983 98.2095 308.691 99.0015 308.108 99.6685C307.525 100.334 306.816 100.668 305.983 100.668C303.9 100.668 302.483 99.7935 301.733 98.0435V97.9185L298.983 99.2935C296.483 100.709 294.358 101.418 292.608 101.418ZM360.947 98.2935C358.53 98.2935 357.322 95.6265 357.322 90.2935C357.322 80.6265 356.863 65.1685 355.947 43.918C355.113 22.668 354.322 11.4597 353.572 10.293C353.572 7.95967 354.488 6.16797 356.322 4.91797C356.988 4.50137 357.905 4.16797 359.072 3.91797C360.322 3.58467 361.447 3.41797 362.447 3.41797C362.947 3.33467 363.988 3.29297 365.572 3.29297C367.488 3.29297 368.863 3.62637 369.697 4.29297C370.53 4.87637 370.947 5.95967 370.947 7.54297C370.947 8.45967 370.613 9.16797 369.947 9.66797C369.28 10.0847 368.447 10.293 367.447 10.293L366.197 10.168H364.447C362.113 10.168 360.947 10.6264 360.947 11.543C360.947 15.8764 361.238 21.543 361.822 28.543C362.322 34.3764 362.655 39.918 362.822 45.168C363.405 45.0014 364.488 44.7514 366.072 44.418C367.738 44.0014 368.988 43.793 369.822 43.793C370.738 43.793 371.53 44.2097 372.197 45.043C372.863 45.793 373.197 46.668 373.197 47.668C373.197 48.8345 372.655 49.6685 371.572 50.1685C371.405 50.2515 370.988 50.4595 370.322 50.7935C369.738 51.0435 368.947 51.2095 367.947 51.2935C367.197 51.3765 365.947 51.5015 364.197 51.6685H362.822C362.822 56.6685 363.238 63.4595 364.072 72.0435C364.822 81.0435 365.197 87.8345 365.197 92.4185L365.072 92.9185L364.947 93.1685C365.03 93.5015 365.072 94.0435 365.072 94.7935C365.072 95.8765 364.697 96.7515 363.947 97.4185C363.197 98.0015 362.197 98.2935 360.947 98.2935ZM401.528 98.0435C394.361 98.0435 390.778 96.7935 390.778 94.2935C390.778 92.2935 392.028 91.2935 394.528 91.2935H396.028C396.361 91.3765 396.736 91.4185 397.153 91.4185C397.82 91.4185 398.278 91.2095 398.528 90.7935C398.861 90.3765 399.028 89.6265 399.028 88.5435C399.028 81.4595 398.611 71.7935 397.778 59.5435C397.028 46.793 396.653 37.168 396.653 30.668C396.653 28.3347 396.695 26.2097 396.778 24.293L396.903 17.918C396.903 15.168 396.778 12.8764 396.528 11.043C395.611 11.3764 394.653 11.543 393.653 11.543C391.736 11.543 390.778 10.543 390.778 8.54297C390.778 7.54297 391.361 6.66797 392.528 5.91797C393.778 5.16797 395.361 4.62637 397.278 4.29297C400.778 3.70967 403.736 3.41797 406.153 3.41797C407.153 3.41797 407.986 3.75137 408.653 4.41797C409.403 5.08467 409.778 5.87637 409.778 6.79297C409.778 7.70967 409.486 8.50137 408.903 9.16797C408.403 9.83467 407.736 10.168 406.903 10.168C406.403 10.168 405.986 10.1264 405.653 10.043H404.653C403.82 10.043 403.195 10.2514 402.778 10.668C402.445 11.0014 402.278 11.668 402.278 12.668C402.278 21.5014 402.82 33.668 403.903 49.1685C404.903 65.4185 405.403 77.6265 405.403 85.7935V90.5435C405.986 90.4595 406.82 90.4185 407.903 90.4185C411.403 90.4185 413.153 91.8765 413.153 94.7935V95.5435L410.028 97.6685C409.945 97.6685 409.695 97.7095 409.278 97.7935C408.861 97.7935 408.028 97.7935 406.778 97.7935C403.945 97.9595 402.195 98.0435 401.528 98.0435ZM431.132 99.2935C429.632 99.2935 428.424 98.2935 427.507 96.2935C429.341 93.4595 431.424 85.9185 433.757 73.6685C436.174 61.3345 438.216 48.5845 439.882 35.418C441.549 22.5014 442.466 13.918 442.632 9.66797L438.132 10.043C437.549 10.1264 436.674 10.168 435.507 10.168C431.007 10.168 428.757 8.87637 428.757 6.29297V5.66797L430.382 3.66797V3.54297C431.382 3.87637 432.591 4.04297 434.007 4.04297C435.341 4.04297 437.299 3.79297 439.882 3.29297C442.799 2.87637 444.757 2.66797 445.757 2.66797C446.757 2.66797 447.549 3.04297 448.132 3.79297C448.799 4.45967 449.132 5.29297 449.132 6.29297C449.132 28.2097 444.507 57.0845 435.257 92.9185L438.007 92.7935C439.091 92.6265 440.382 92.5435 441.882 92.5435C446.299 92.5435 448.507 93.7935 448.507 96.2935V96.9185L446.507 98.7935L438.882 99.0435C436.549 99.2095 433.966 99.2935 431.132 99.2935ZM469.975 99.2935C468.475 99.2935 467.267 98.2935 466.35 96.2935C468.183 93.4595 470.267 85.9185 472.6 73.6685C475.017 61.3345 477.058 48.5845 478.725 35.418C480.392 22.5014 481.308 13.918 481.475 9.66797L476.975 10.043C476.392 10.1264 475.517 10.168 474.35 10.168C469.85 10.168 467.6 8.87637 467.6 6.29297V5.66797L469.225 3.66797V3.54297C470.225 3.87637 471.433 4.04297 472.85 4.04297C474.183 4.04297 476.142 3.79297 478.725 3.29297C481.642 2.87637 483.6 2.66797 484.6 2.66797C485.6 2.66797 486.392 3.04297 486.975 3.79297C487.642 4.45967 487.975 5.29297 487.975 6.29297C487.975 28.2097 483.35 57.0845 474.1 92.9185L476.85 92.7935C477.933 92.6265 479.225 92.5435 480.725 92.5435C485.142 92.5435 487.35 93.7935 487.35 96.2935V96.9185L485.35 98.7935L477.725 99.0435C475.392 99.2095 472.808 99.2935 469.975 99.2935Z" fill="#F2F6F8"/>
</svg>
