<svg width="543" height="469" viewBox="0 0 543 469" fill="none" xmlns="http://www.w3.org/2000/svg">
<path fill-rule="evenodd" clip-rule="evenodd" d="M268.609 0.118804C327.162 1.29125 370.837 43.2431 413.181 83.6999C468.85 136.888 551.046 184.941 542.092 261.413C532.726 341.404 446.624 383.025 374.046 417.935C301.527 452.816 221.159 482.772 147.041 451.43C69.2623 418.541 7.67873 344.281 0.81969 260.113C-5.33297 184.613 62.2415 130.528 116.59 77.7611C159.541 36.0607 208.757 -1.07965 268.609 0.118804Z" fill="#ADE0EC"/>
<path d="M177.907 71.6702C177.907 87.9959 164.672 101.231 148.346 101.231C132.02 101.231 118.785 87.9959 118.785 71.6702C118.785 55.3445 132.02 42.1094 148.346 42.1094C164.672 42.1094 177.907 55.3445 177.907 71.6702Z" fill="#E8E0E4"/>
<path d="M173.87 71.6703C173.87 85.7668 162.442 97.1946 148.346 97.1946C134.249 97.1946 122.823 85.7668 122.823 71.6703C122.823 57.5738 134.249 46.146 148.346 46.146C162.442 46.146 173.87 57.5738 173.87 71.6703Z" fill="#F1F1F1"/>
<path d="M148.346 49.1524V54.4142" stroke="#8E3948" stroke-miterlimit="10"/>
<path d="M137.087 52.1695L139.718 56.7266" stroke="#8E3948" stroke-miterlimit="10"/>
<path d="M128.845 60.4112L133.402 63.0426" stroke="#8E3948" stroke-miterlimit="10"/>
<path d="M125.828 71.6703H131.09" stroke="#8E3948" stroke-miterlimit="10"/>
<path d="M128.845 82.9296L133.402 80.2981" stroke="#8E3948" stroke-miterlimit="10"/>
<path d="M137.087 91.1715L139.718 86.6144" stroke="#8E3948" stroke-miterlimit="10"/>
<path d="M148.346 94.1887V88.9269" stroke="#8E3948" stroke-miterlimit="10"/>
<path d="M159.605 91.1715L156.974 86.6144" stroke="#8E3948" stroke-miterlimit="10"/>
<path d="M167.848 82.9296L163.29 80.2981" stroke="#8E3948" stroke-miterlimit="10"/>
<path d="M170.864 71.6703H165.602" stroke="#8E3948" stroke-miterlimit="10"/>
<path d="M167.848 60.4112L163.29 63.0426" stroke="#8E3948" stroke-miterlimit="10"/>
<path d="M159.605 52.1695L156.974 56.7266" stroke="#8E3948" stroke-miterlimit="10"/>
<path d="M148.237 74.9581C147.632 73.027 147.397 71.0959 147.25 69.1648C147.089 67.2337 147.374 65.3014 147.469 63.3714L147.798 57.577C147.946 55.6459 148.061 53.7147 148.237 51.7836H148.456C148.631 53.7147 148.746 55.6459 148.894 57.577L149.223 63.3714C149.318 65.3014 149.603 67.2337 149.442 69.1648C149.294 71.0959 149.061 73.027 148.456 74.9581H148.237Z" fill="#E8E0E4"/>
<path d="M145.058 71.5611C146.536 70.9561 148.014 70.7216 149.492 70.5747C150.97 70.4136 152.448 70.6986 153.925 70.7939L158.358 71.1227C159.836 71.2696 161.314 71.3857 162.791 71.5611V71.7803C161.314 71.9546 159.836 72.0707 158.358 72.2187L153.925 72.5475C152.448 72.6428 150.97 72.9278 149.492 72.7667C148.014 72.6187 146.536 72.3842 145.058 71.7803V71.5611Z" fill="#E8E0E4"/>
<path d="M293.883 101.231H232.454V87.7179H293.883V101.231Z" fill="#78CFD8"/>
<path d="M293.883 87.7179H232.454V74.2045H293.883V87.7179Z" fill="#5AB3B7"/>
<path d="M293.883 74.2045H232.454V60.691H293.883V74.2045Z" fill="#2F3767"/>
<path d="M286.061 99.4712H280.359V89.5636H286.061V99.4712Z" fill="#FFD994"/>
<path d="M286.061 85.915H280.359V76.0074H286.061V85.915Z" fill="#E5AF70"/>
<path d="M286.061 72.3577H280.359V62.45H286.061V72.3577Z" fill="#ED6D2F"/>
<path d="M369.8 110.108H116.356V101.23H369.8V110.108Z" fill="#FFBF69"/>
<path d="M313.883 101.231H300.421V48.5103H313.883V101.231Z" fill="#FC9A80"/>
<path d="M309.957 94.5178C309.957 96.0675 308.701 97.3246 307.151 97.3246C305.601 97.3246 304.345 96.0675 304.345 94.5178C304.345 92.967 305.601 91.711 307.151 91.711C308.701 91.711 309.957 92.967 309.957 94.5178Z" fill="#F1F1F1"/>
<path d="M327.346 101.231H313.883V48.5103H327.346V101.231Z" fill="#D67363"/>
<path d="M323.421 94.5178C323.421 96.0675 322.165 97.3246 320.614 97.3246C319.064 97.3246 317.808 96.0675 317.808 94.5178C317.808 92.967 319.064 91.711 320.614 91.711C322.165 91.711 323.421 92.967 323.421 94.5178Z" fill="#F1F1F1"/>
<path d="M340.809 101.231H327.346V48.5103H340.809V101.231Z" fill="#8E3948"/>
<path d="M336.884 94.5178C336.884 96.0675 335.628 97.3246 334.077 97.3246C332.526 97.3246 331.271 96.0675 331.271 94.5178C331.271 92.967 332.526 91.711 334.077 91.711C335.628 91.711 336.884 92.967 336.884 94.5178Z" fill="#F1F1F1"/>
<path d="M354.272 101.231H340.809V48.5103H354.272V101.231Z" fill="#692332"/>
<path d="M350.346 94.5178C350.346 96.0675 349.09 97.3246 347.539 97.3246C345.989 97.3246 344.733 96.0675 344.733 94.5178C344.733 92.967 345.989 91.711 347.539 91.711C349.09 91.711 350.346 92.967 350.346 94.5178Z" fill="#F1F1F1"/>
<path d="M368.937 172.65C368.937 172.65 368.374 171.905 367.568 170.714C366.769 169.525 365.743 167.845 364.877 165.942C364.009 164.067 363.314 162.024 362.716 160.484C362.111 158.956 361.517 157.946 360.603 158.47C359.841 158.902 359.404 160.998 359.771 163.718C359.953 165.074 360.344 166.574 360.939 168.088C361.536 169.605 362.318 171.008 363.221 172.344C365.029 175.007 367.266 177.156 369.281 178.836C371.306 180.513 373.128 181.79 374.305 182.638C376.773 187.529 379.189 192.624 379.428 198.114C379.679 203.556 377.999 209.076 374.713 213.424L376.004 214.403C379.72 209.466 381.524 203.179 380.975 197.029C380.711 193.94 379.816 190.984 378.69 188.208C377.562 185.425 376.198 182.798 374.893 180.2C374.556 176.817 375.147 172.334 376.227 169.228C377.248 165.971 378.653 164.711 377.693 163.624C377.131 162.973 376.49 162.744 375.745 162.9C375.013 163.054 374.229 163.655 373.604 164.525C372.971 165.389 372.52 166.487 372.279 167.397C372.034 168.318 371.968 169.012 371.968 169.012C371.968 169.012 371.869 168.119 371.834 166.84C371.794 165.572 371.891 163.879 372.196 162.254C372.484 160.618 372.988 159.096 373.406 157.88C373.803 156.652 374.143 155.659 373.774 154.857C373.417 154.072 372.646 153.892 371.548 154.45C370.478 155.001 369.145 156.363 368.275 158.357C367.366 160.332 366.925 162.867 367.077 165.421C367.216 167.995 367.97 170.508 368.937 172.65Z" fill="#216D55"/>
<path d="M391.714 189.815C391.714 189.815 392.914 188.263 394.122 186.701C395.317 185.137 396.564 183.508 395.734 182.995C395.039 182.568 392.764 184.407 390.958 186.916C389.102 189.409 387.801 192.446 387.344 193.91C383.103 197.953 379.847 203.059 378.132 208.679L378.952 208.929C380.728 203.146 384.174 197.909 388.663 193.854C389.479 193.525 390.512 193.354 391.518 193.198C392.57 193.101 393.59 193 394.572 192.99C395.057 192.975 395.511 192.949 395.932 192.913C396.363 192.898 396.756 192.863 397.102 192.798C397.786 192.654 398.313 192.455 398.582 192.02C399.232 190.971 398.197 190.566 396.866 190.477C396.214 190.45 395.517 190.527 394.968 190.595C394.415 190.658 394.052 190.77 394.052 190.77C394.052 190.77 394.494 190.545 395.188 190.252C395.528 190.096 395.927 189.912 396.354 189.716C396.794 189.54 397.258 189.343 397.72 189.131C399.578 188.304 401.528 187.53 401.605 186.595C401.641 186.128 401.302 185.889 400.682 185.83C400.065 185.773 399.159 185.872 398.144 186.205C396.092 186.811 393.57 188.209 391.714 189.815Z" fill="#216D55"/>
<path d="M360.295 191.855C360.295 191.855 358.381 191.047 356.458 190.869C354.526 190.653 352.734 191.033 352.752 192.007C352.752 192.84 354.913 192.983 357.59 193.621C360.254 194.196 363.378 195.46 364.839 196.273C368.428 201.467 370.07 207.968 369.4 214.245L370.326 214.345C371.05 207.467 369.13 200.346 364.945 194.824C364.401 192.897 363.816 190.203 362.72 187.889C361.662 185.573 360.121 183.731 358.697 183.611C356.98 183.515 357.673 184.846 358.542 186.22C359.436 187.598 360.49 189.095 360.49 189.095C360.49 189.095 358.8 187.369 356.596 186.157C354.429 184.884 351.841 184.267 351.223 185.053C350.595 185.858 351.913 186.738 353.81 187.826C355.713 188.926 358.211 190.358 360.295 191.855Z" fill="#216D55"/>
<path d="M370.424 191.417C370.424 191.417 370.567 190.195 370.721 188.883C370.864 187.615 371.019 186.292 370.387 186.284C369.858 186.278 369.199 188.062 369.034 190.063C368.838 192.069 369.137 194.19 369.378 195.153C368.395 198.818 368.338 202.746 369.333 206.42L369.868 206.274C368.851 202.494 368.971 198.43 370.088 194.678C370.8 193.766 372.02 192.893 373.07 192.223C374.102 191.527 374.96 191.011 374.968 190.355C374.98 189.557 374.27 189.675 373.502 190.067C373.132 190.267 372.771 190.544 372.49 190.764C372.203 190.982 372.04 191.165 372.04 191.165C372.04 191.165 372.751 190.094 373.529 189.037C374.284 187.96 375.114 186.887 374.849 186.341C374.601 185.806 373.729 186.238 372.793 187.269C371.852 188.286 370.916 189.905 370.424 191.417Z" fill="#216D55"/>
<path d="M362.422 201.412C362.422 201.412 361.4 201.228 360.443 201.351C359.477 201.457 358.646 201.84 358.762 202.313C358.853 202.719 359.922 202.551 361.297 202.569C362.658 202.557 364.318 202.834 365.122 203.071C367.436 205.214 368.942 208.209 369.291 211.345L369.753 211.295C369.367 207.859 367.657 204.59 365.014 202.352C364.54 201.472 363.959 200.222 363.172 199.212C362.401 198.199 361.447 197.469 360.74 197.566C359.892 197.708 360.377 198.281 360.95 198.855C361.596 199.462 362.216 200.044 362.216 200.044C362.216 200.044 361.203 199.388 359.995 199.038C358.798 198.655 357.467 198.638 357.252 199.09C357.035 199.551 357.775 199.836 358.82 200.157C359.867 200.485 361.242 200.91 362.422 201.412Z" fill="#216D55"/>
<path d="M385.925 177.995C385.925 177.995 386.465 176.422 387.02 174.806C387.559 173.208 388.121 171.541 387.308 171.355C386.626 171.199 385.286 173.319 384.512 175.851C383.694 178.386 383.477 181.209 383.509 182.522C381.187 186.972 379.957 192.014 380.121 197.044L380.856 197.02C380.695 191.841 382.043 186.641 384.565 182.113C385.136 181.621 385.926 181.198 386.698 180.793C387.526 180.425 388.325 180.061 389.119 179.783C389.882 179.478 390.583 179.216 391.117 178.93C391.633 178.624 392.006 178.319 392.104 177.891C392.342 176.861 391.39 176.817 390.286 177.112C389.751 177.269 389.206 177.525 388.78 177.731C388.349 177.934 388.085 178.126 388.085 178.126C388.085 178.126 388.382 177.821 388.864 177.392C389.098 177.172 389.369 176.913 389.662 176.635C389.969 176.372 390.291 176.084 390.608 175.786C391.887 174.602 393.256 173.437 393.063 172.657C392.887 171.898 391.64 172.219 390.146 173.295C388.648 174.351 386.989 176.18 385.925 177.995Z" fill="#216D55"/>
<path d="M376.1 198.323C376.1 198.323 375.448 197.814 374.729 197.524C374.01 197.223 373.284 197.135 373.176 197.511C373.079 197.832 373.903 198.165 374.871 198.717C375.841 199.245 376.945 200.028 377.442 200.465C378.401 202.78 378.716 205.377 378.23 207.842L378.593 207.913C379.119 205.222 378.725 202.396 377.606 199.914C377.562 199.123 377.61 198.04 377.44 197.061C377.293 196.078 376.931 195.223 376.408 195.025C375.789 194.788 375.868 195.383 376.05 195.989C376.217 196.616 376.464 197.29 376.464 197.29C376.464 197.29 376.009 196.457 375.321 195.748C374.649 195.024 373.767 194.468 373.435 194.684C373.095 194.909 373.481 195.407 374.066 196.055C374.66 196.698 375.453 197.531 376.1 198.323Z" fill="#216D55"/>
<path d="M388.725 199.459C388.725 199.459 389.35 198.377 390.063 197.308C390.748 196.233 391.531 195.15 390.972 194.856C390.503 194.609 389.041 195.914 388.03 197.671C386.976 199.424 386.484 201.519 386.386 202.482C384.245 205.551 383.262 209.397 383.657 213.118L384.198 213.059C383.8 209.267 384.878 205.317 387.201 202.289C388.162 201.697 389.596 201.395 390.763 201.244C391.941 201.073 392.866 201.026 393.137 200.462C393.484 199.807 392.822 199.542 392 199.56C391.186 199.569 390.267 199.889 390.267 199.889C390.267 199.889 391.327 199.241 392.462 198.676C393.581 198.074 394.791 197.58 394.832 196.987C394.882 196.406 393.924 196.345 392.621 196.8C391.326 197.254 389.776 198.289 388.725 199.459Z" fill="#216D55"/>
<path d="M370.033 240.342H394.926V206.272H370.033V240.342Z" fill="#8E3948"/>
<path d="M357.586 240.342H382.479V206.272H357.586V240.342Z" fill="#C1380C"/>
<path d="M298.115 177.693L302.256 233.605C302.526 237.242 299.647 240.342 295.999 240.342H288.137H324.412C328.367 240.342 331.256 236.607 330.263 232.78L315.981 177.693H298.115Z" fill="#F1F1F1"/>
<path d="M297.116 177.693L301.258 233.605C301.527 237.242 298.648 240.342 295.001 240.342H287.138H323.413C327.368 240.342 330.256 236.607 329.264 232.78L314.983 177.693H297.116Z" fill="#E8E0E4"/>
<path d="M329.204 236.037H284.047C282.074 236.037 280.476 237.635 280.476 239.607V240.342H322.793C328.581 240.342 329.204 236.037 329.204 236.037Z" fill="#F1F1F1"/>
<path d="M351.159 225.189H250.259C247.406 225.189 245.095 222.877 245.095 220.024V140.782C245.095 137.93 247.406 135.618 250.259 135.618H351.159C354.011 135.618 356.323 137.93 356.323 140.782V220.024C356.323 222.877 354.011 225.189 351.159 225.189Z" fill="#33252F"/>
<path d="M248.136 140.782H353.282V220.024H248.136V140.782Z" fill="#E8E0E4"/>
<g opacity="0.199997">
<path opacity="0.199997" d="M299.942 176.9H257.076V154.294H299.942V176.9Z" fill="#FC9A80"/>
<path opacity="0.199997" d="M344.342 176.9H301.477V154.294H344.342V176.9Z" fill="#F1F1F1"/>
<path opacity="0.199997" d="M344.342 205.891H257.076V180.005H344.342V205.891Z" fill="#FC9A80"/>
<path opacity="0.199997" d="M344.342 149.772H257.076V147.176H344.342V149.772Z" fill="#FC9A80"/>
<g opacity="0.199997">
<path opacity="0.199997" d="M261.089 213.655H258.306C257.627 213.655 257.075 213.105 257.075 212.425V209.642C257.075 208.962 257.627 208.412 258.306 208.412H261.089C261.768 208.412 262.319 208.962 262.319 209.642V212.425C262.319 213.105 261.768 213.655 261.089 213.655Z" fill="#FC9A80"/>
</g>
<g opacity="0.199997">
<path opacity="0.199997" d="M269.292 213.655H266.508C265.829 213.655 265.278 213.105 265.278 212.425V209.642C265.278 208.962 265.829 208.412 266.508 208.412H269.292C269.971 208.412 270.521 208.962 270.521 209.642V212.425C270.521 213.105 269.971 213.655 269.292 213.655Z" fill="#FC9A80"/>
</g>
<g opacity="0.199997">
<path opacity="0.199997" d="M277.493 213.655H274.711C274.031 213.655 273.481 213.105 273.481 212.425V209.642C273.481 208.962 274.031 208.412 274.711 208.412H277.493C278.173 208.412 278.724 208.962 278.724 209.642V212.425C278.724 213.105 278.173 213.655 277.493 213.655Z" fill="#FC9A80"/>
</g>
<g opacity="0.199997">
<path opacity="0.199997" d="M285.696 213.655H282.912C282.234 213.655 281.682 213.105 281.682 212.425V209.642C281.682 208.962 282.234 208.412 282.912 208.412H285.696C286.375 208.412 286.926 208.962 286.926 209.642V212.425C286.926 213.105 286.375 213.655 285.696 213.655Z" fill="#FC9A80"/>
</g>
<g opacity="0.199997">
<path opacity="0.199997" d="M293.898 213.655H291.115C290.435 213.655 289.885 213.105 289.885 212.425V209.642C289.885 208.962 290.435 208.412 291.115 208.412H293.898C294.577 208.412 295.128 208.962 295.128 209.642V212.425C295.128 213.105 294.577 213.655 293.898 213.655Z" fill="#FC9A80"/>
</g>
<g opacity="0.199997">
<path opacity="0.199997" d="M302.1 213.655H299.317C298.638 213.655 298.087 213.105 298.087 212.425V209.642C298.087 208.962 298.638 208.412 299.317 208.412H302.1C302.78 208.412 303.33 208.962 303.33 209.642V212.425C303.33 213.105 302.78 213.655 302.1 213.655Z" fill="#FC9A80"/>
</g>
<g opacity="0.199997">
<path opacity="0.199997" d="M310.303 213.655H307.519C306.84 213.655 306.29 213.105 306.29 212.425V209.642C306.29 208.962 306.84 208.412 307.519 208.412H310.303C310.981 208.412 311.533 208.962 311.533 209.642V212.425C311.533 213.105 310.981 213.655 310.303 213.655Z" fill="#FC9A80"/>
</g>
<g opacity="0.199997">
<path opacity="0.199997" d="M318.505 213.655H315.722C315.043 213.655 314.491 213.105 314.491 212.425V209.642C314.491 208.962 315.043 208.412 315.722 208.412H318.505C319.184 208.412 319.734 208.962 319.734 209.642V212.425C319.734 213.105 319.184 213.655 318.505 213.655Z" fill="#FC9A80"/>
</g>
<g opacity="0.199997">
<path opacity="0.199997" d="M326.707 213.655H323.924C323.244 213.655 322.694 213.105 322.694 212.425V209.642C322.694 208.962 323.244 208.412 323.924 208.412H326.707C327.386 208.412 327.937 208.962 327.937 209.642V212.425C327.937 213.105 327.386 213.655 326.707 213.655Z" fill="#FC9A80"/>
</g>
<g opacity="0.199997">
<path opacity="0.199997" d="M334.909 213.655H332.126C331.447 213.655 330.896 213.105 330.896 212.425V209.642C330.896 208.962 331.447 208.412 332.126 208.412H334.909C335.589 208.412 336.139 208.962 336.139 209.642V212.425C336.139 213.105 335.589 213.655 334.909 213.655Z" fill="#FC9A80"/>
</g>
<g opacity="0.199997">
<path opacity="0.199997" d="M343.112 213.655H340.328C339.649 213.655 339.098 213.105 339.098 212.425V209.642C339.098 208.962 339.649 208.412 340.328 208.412H343.112C343.79 208.412 344.341 208.962 344.341 209.642V212.425C344.341 213.105 343.79 213.655 343.112 213.655Z" fill="#FC9A80"/>
</g>
<g opacity="0.199997">
<path opacity="0.199997" d="M301.476 154.294L344.341 176.9" stroke="#463840" stroke-miterlimit="10"/>
</g>
<g opacity="0.199997">
<path opacity="0.199997" d="M344.342 154.294L301.477 176.9" stroke="#463840" stroke-miterlimit="10"/>
</g>
</g>
<path d="M188.041 177.693L183.9 233.605C183.63 237.242 186.509 240.342 190.157 240.342H198.019H161.744C157.789 240.342 154.9 236.607 155.893 232.78L170.175 177.693H188.041Z" fill="#F1F1F1"/>
<path d="M189.04 177.693L184.898 233.605C184.629 237.242 187.508 240.342 191.155 240.342H199.018H162.743C158.789 240.342 155.899 236.607 156.892 232.78L171.173 177.693H189.04Z" fill="#E8E0E4"/>
<path d="M156.952 236.037H202.11C204.081 236.037 205.679 237.635 205.679 239.607V240.342H163.362C157.576 240.342 156.952 236.037 156.952 236.037Z" fill="#F1F1F1"/>
<path d="M134.997 225.189H235.897C238.749 225.189 241.062 222.877 241.062 220.024V140.782C241.062 137.93 238.749 135.618 235.897 135.618H134.997C132.145 135.618 129.833 137.93 129.833 140.782V220.024C129.833 222.877 132.145 225.189 134.997 225.189Z" fill="#33252F"/>
<path d="M238.02 140.782H132.874V220.024H238.02V140.782Z" fill="#E8E0E4"/>
<g opacity="0.199997">
<g opacity="0.199997">
<path opacity="0.199997" d="M149.427 152.257H143.073L143.072 149.773H149.426L149.427 152.257Z" fill="#78CFD8"/>
</g>
<g opacity="0.199997">
<path opacity="0.199997" d="M165.083 152.257H151.633L151.632 149.773H165.082L165.083 152.257Z" fill="#FF6A66"/>
</g>
<g opacity="0.199997">
<path opacity="0.199997" d="M165.095 192.949H151.646V190.464H165.095V192.949Z" fill="#FF6A66"/>
</g>
<g opacity="0.199997">
<path opacity="0.199997" d="M165.101 211.034H151.651V208.549H165.101V211.034Z" fill="#FF6A66"/>
</g>
<g opacity="0.199997">
<path opacity="0.199997" d="M165.094 188.427H151.644L151.643 185.943H165.093L165.094 188.427Z" fill="#FF6A66"/>
</g>
<g opacity="0.199997">
<path opacity="0.199997" d="M178.419 156.778H155.271L155.27 154.293H178.419V156.778Z" fill="#FFD994"/>
</g>
<g opacity="0.199997">
<path opacity="0.199997" d="M203.118 170.343H160.366L160.364 167.858H203.118V170.343Z" fill="#FFD994"/>
</g>
<g opacity="0.199997">
<path opacity="0.199997" d="M227.809 161.3H194.289L194.288 158.815H227.809V161.3Z" fill="#FFD994"/>
</g>
<g opacity="0.199997">
<path opacity="0.199997" d="M203.113 156.778H179.964V154.293H203.112L203.113 156.778Z" fill="#78CFD8"/>
</g>
<g opacity="0.199997">
<path opacity="0.199997" d="M192.791 161.3H155.272L155.271 158.815H192.79L192.791 161.3Z" fill="#78CFD8"/>
</g>
<g opacity="0.199997">
<path opacity="0.199997" d="M227.814 179.385H160.368L160.367 176.9H227.813L227.814 179.385Z" fill="#78CFD8"/>
</g>
<g opacity="0.199997">
<path opacity="0.199997" d="M227.808 156.778H204.658L204.657 154.293H227.806L227.808 156.778Z" fill="#FC9A80"/>
</g>
<g opacity="0.199997">
<path opacity="0.199997" d="M178.425 174.863H160.366L160.365 172.379H178.424L178.425 174.863Z" fill="#FFD994"/>
</g>
<g opacity="0.199997">
<path opacity="0.199997" d="M203.119 174.863H179.97L179.969 172.379H203.119V174.863Z" fill="#78CFD8"/>
</g>
<g opacity="0.199997">
<path opacity="0.199997" d="M227.813 174.863H204.665L204.664 172.379H227.813V174.863Z" fill="#FC9A80"/>
</g>
<g opacity="0.199997">
<path opacity="0.199997" d="M227.812 170.343H204.663L204.661 167.858H227.811L227.812 170.343Z" fill="#78CFD8"/>
</g>
<g opacity="0.199997">
<path opacity="0.199997" d="M227.81 165.821H155.273L155.272 163.336H227.809L227.81 165.821Z" fill="#FC9A80"/>
</g>
<g opacity="0.199997">
<path opacity="0.199997" d="M178.432 197.47H155.283L155.282 194.985H178.432V197.47Z" fill="#FFD994"/>
</g>
<g opacity="0.199997">
<path opacity="0.199997" d="M227.821 201.991H194.302L194.301 199.507H227.821V201.991Z" fill="#FFD994"/>
</g>
<g opacity="0.199997">
<path opacity="0.199997" d="M203.126 197.47H179.977V194.985H203.126V197.47Z" fill="#78CFD8"/>
</g>
<g opacity="0.199997">
<path opacity="0.199997" d="M192.804 201.991H155.285L155.284 199.507H192.802L192.804 201.991Z" fill="#78CFD8"/>
</g>
<g opacity="0.199997">
<path opacity="0.199997" d="M227.82 197.47H204.671V194.985H227.819L227.82 197.47Z" fill="#FC9A80"/>
</g>
<g opacity="0.199997">
<path opacity="0.199997" d="M227.823 206.513H155.286V204.028H227.823V206.513Z" fill="#FC9A80"/>
</g>
<g opacity="0.199997">
<path opacity="0.199997" d="M227.816 183.906H155.279L155.278 181.421H227.815L227.816 183.906Z" fill="#FC9A80"/>
</g>
<g opacity="0.199997">
<path opacity="0.199997" d="M149.429 156.778H143.073V154.293H149.428L149.429 156.778Z" fill="#78CFD8"/>
</g>
<g opacity="0.199997">
<path opacity="0.199997" d="M149.43 161.3H143.075L143.074 158.815H149.43V161.3Z" fill="#78CFD8"/>
</g>
<g opacity="0.199997">
<path opacity="0.199997" d="M149.432 165.821H143.077L143.076 163.336H149.43L149.432 165.821Z" fill="#78CFD8"/>
</g>
<g opacity="0.199997">
<path opacity="0.199997" d="M149.433 170.343H143.078V167.858H149.432L149.433 170.343Z" fill="#78CFD8"/>
</g>
<g opacity="0.199997">
<path opacity="0.199997" d="M149.434 174.863H143.08L143.079 172.379H149.434V174.863Z" fill="#78CFD8"/>
</g>
<g opacity="0.199997">
<path opacity="0.199997" d="M149.436 179.385H143.081L143.08 176.9H149.435L149.436 179.385Z" fill="#78CFD8"/>
</g>
<g opacity="0.199997">
<path opacity="0.199997" d="M149.438 183.906H143.082V181.421H149.436L149.438 183.906Z" fill="#78CFD8"/>
</g>
<g opacity="0.199997">
<path opacity="0.199997" d="M149.439 188.427H143.084L143.083 185.943H149.439V188.427Z" fill="#78CFD8"/>
</g>
<g opacity="0.199997">
<path opacity="0.199997" d="M149.44 192.949H143.086L143.085 190.464H149.439L149.44 192.949Z" fill="#78CFD8"/>
</g>
<g opacity="0.199997">
<path opacity="0.199997" d="M149.442 197.47H143.086V194.985H149.441L149.442 197.47Z" fill="#78CFD8"/>
</g>
<g opacity="0.199997">
<path opacity="0.199997" d="M149.443 201.991H143.088L143.087 199.507H149.443V201.991Z" fill="#78CFD8"/>
</g>
<g opacity="0.199997">
<path opacity="0.199997" d="M149.444 206.513H143.09L143.089 204.028H149.444V206.513Z" fill="#78CFD8"/>
</g>
<g opacity="0.199997">
<path opacity="0.199997" d="M149.447 211.033H143.092V208.549H149.446L149.447 211.033Z" fill="#78CFD8"/>
</g>
</g>
<path d="M399.834 285.21H86.321V258.178H399.834V285.21Z" fill="#FFBF69"/>
<path d="M399.834 271.693H86.321V258.178H399.834V271.693Z" fill="#FAA019"/>
<path d="M441.03 258.178H45.1253V240.342H441.03V258.178Z" fill="#FFBF69"/>
<path d="M441.03 249.26H45.1253V258.178H441.03V249.26Z" fill="#FAA019"/>
<path d="M86.3212 285.21V468.978C89.893 468.978 92.8916 466.289 93.2807 462.738L112.707 285.21H86.3212Z" fill="#FFBF69"/>
<path d="M399.834 285.21V468.978C396.262 468.978 393.265 466.289 392.876 462.738L373.448 285.21H399.834Z" fill="#FFBF69"/>
<path d="M197.931 433.28C197.018 437.966 195.842 442.554 195.842 442.554C195.842 442.554 177.606 450.227 179.614 444.597C181.62 438.967 181.955 437.18 183.009 433.28C184.064 429.381 188.933 421.457 194.505 423.097C197.079 423.856 197.931 433.28 197.931 433.28Z" fill="#FC9A80"/>
<path d="M193.364 300.716C189.977 314.832 186.373 325.226 187.388 354.684C188.749 394.199 189.988 408.412 183.01 433.28C183.01 433.28 184.327 431.313 186.901 430.004C191.202 427.815 196.727 429.388 197.931 433.28C197.931 433.28 202.857 409.151 206.08 394.483C211.894 368.021 224.54 355.639 218.616 322.483L193.364 300.716Z" fill="#5F67AE"/>
<path d="M187.374 468.978C193.546 468.978 195.56 464.737 195.474 462.248C195.379 459.489 193.789 457.064 194.236 454.067C194.909 449.567 196.87 447.56 196.718 443.149C196.644 440.976 195.274 434.124 189.329 435.13C185.218 435.826 181.88 439.929 179.613 444.597C177.346 449.266 175.402 457.858 175.575 462.899C175.749 467.942 178.235 468.978 187.374 468.978Z" fill="#1F2848"/>
<path d="M282.419 426.679C282.891 431.275 285.308 435.523 286.014 439.298C286.014 439.298 301.71 442.72 299.961 439.298C298.212 435.877 298.28 432.201 297.8 426.679C297.322 421.159 286.792 419.595 284.473 422.191C282.155 424.787 282.419 426.679 282.419 426.679Z" fill="#FC9A80"/>
<path d="M294.73 315.319C297.767 333.219 295.442 407.746 297.8 426.679C297.8 426.679 287.256 420.235 282.419 426.679C282.419 426.679 277.518 390.572 271.35 366.932C265.182 343.289 260.448 337.626 262.117 321.927L294.73 315.319Z" fill="#5F67AE"/>
<path d="M290.269 452.623C287.743 449.407 286.062 447.262 285.682 444.213C285.302 441.165 285.276 440.954 285.067 439.272C284.857 437.59 286.444 433.28 290.691 433.28C294.939 433.28 299.434 438.116 301.505 441.48C303.577 444.844 312.476 452.834 313.445 460.613C314.414 468.393 311.183 468.978 300.801 468.978C290.419 468.978 292.495 455.459 290.269 452.623Z" fill="#1F2848"/>
<path d="M208.033 284.357C190.393 292.681 188.623 314.339 195.665 321.382C202.707 328.423 229.773 326.652 247.126 326.652H279.777C290.511 326.652 304.152 319.678 302.921 307.007C301.689 294.335 289.368 290.99 289.368 290.99L208.033 284.357Z" fill="#838CD8"/>
<path d="M288.119 175.537C297.803 184.72 302.088 209.068 303.371 226.16C304.552 241.901 302.685 254.092 298.121 256.233C294.718 257.83 278.152 257.759 273.333 244.783V235.654C281.457 233.885 284.827 235.654 284.827 235.654C284.827 235.654 281.86 214.751 280.007 207.708C278.152 200.663 288.119 175.537 288.119 175.537Z" fill="#F2F6F8"/>
<path d="M286.091 245.536C285.717 241.992 284.827 235.654 284.827 235.654C284.827 235.654 281.456 233.885 273.333 235.654V237.792C281.931 240.171 286.401 248.483 286.091 245.536Z" fill="#1F2848"/>
<path d="M286.142 187.765C283.34 195.527 278.689 202.7 280.006 207.707C281.165 212.108 283.453 226.555 284.484 233.298C284.133 223.914 293.109 208.503 289.347 185.367C289.347 185.367 287.644 186.845 286.142 187.765Z" fill="#DADDDF"/>
<path d="M208.033 237.301C214.986 236.569 221.939 240.477 221.939 246.589H209.892L208.033 237.301Z" fill="#D67363"/>
<path d="M192.869 258.375C201.099 258.375 212.682 248.339 214.432 246.589C216.182 244.838 215.543 233.511 205.816 236.013L192.869 258.375Z" fill="#2F3767"/>
<path d="M205.816 236.013L203.691 239.686C203.739 241.721 203.62 243.801 203.169 246.16C203.169 246.16 207.403 238.825 213.069 237.571C211.609 235.997 209.297 235.119 205.816 236.013Z" fill="#1F2848"/>
<path d="M221.76 123.874C219.26 121.329 218.693 125.396 220.235 129.848C221.463 133.391 223.477 137.329 225.171 137.728C229.046 138.64 229.958 135.697 229.958 139.789V156.419C229.958 159.154 218.333 166.904 218.333 166.904H269.162C269.162 166.904 254.803 160.521 254.803 155.735V141.375C254.803 140.007 258.799 139.789 259.76 134.208C260.387 133.194 262.244 137.39 264.456 129.783C266.789 121.755 264.522 119.898 261.14 122.759C255.668 125.267 221.76 123.874 221.76 123.874Z" fill="#FC9A80"/>
<path d="M224.391 105.109C221.064 111 220.099 118.215 221.76 124.791C224.214 135.064 232.859 145.148 243.205 145.148C251.659 145.148 259.583 135.504 263.194 127.767C266.806 120.028 265.817 110.425 261.017 103.382C256.939 97.3991 251.068 94.5178 243.188 94.5178C230.8 94.5178 226.162 101.973 224.391 105.109Z" fill="#5A2D14"/>
<path d="M201.1 173.287C213.102 166.904 226.473 164.286 243.168 164.286C259.863 164.286 273.365 163.535 288.119 175.537C288.119 175.537 292.369 194.042 285.868 213.046C279.367 232.05 280.617 245.908 284.867 256.233C289.119 266.558 296.621 289.563 298.121 300.315C298.121 300.315 291.37 315.318 249.61 315.318C207.851 315.318 201.349 303.816 202.85 295.313C204.35 286.812 219.353 267.913 221.103 256.233C222.855 244.553 212.852 233.051 208.101 221.298C203.35 209.545 206.6 190.041 201.1 173.287Z" fill="#F2F6F8"/>
<path d="M202.849 295.314C206.924 281.067 225.088 265.385 223.88 248.97C222.673 232.555 208.003 202.108 207.811 191.016L204.287 190.471C205.316 202.119 204.925 213.441 208.101 221.298C212.851 233.05 222.854 244.553 221.104 256.233C219.354 267.913 204.35 286.812 202.849 295.314Z" fill="#DADDDF"/>
<path d="M229.754 110.025C230.695 111.854 232.323 113.212 233.703 114.736C245.732 128.022 210.486 125.232 214.064 144.624C214.856 148.917 218.136 152.253 221.258 155.303C218.469 152.788 214.05 152.284 210.765 154.107C203.268 158.271 205.301 169.714 213.788 171.026C218.248 171.715 222.797 169.055 227.181 170.35C239.102 173.87 218.664 183.431 238.226 190.848C266.601 201.605 267.53 171.714 251.516 165.052C259.448 169.531 268.436 160.772 264.154 152.725C259.597 144.16 251.261 149.896 248.191 148.924C245.337 148.02 244.764 143.955 246.206 141.333C247.65 138.711 250.328 137.062 252.579 135.091C265.246 123.996 255.247 110.027 246.66 114.758C254.474 111.332 253.131 99.821 243.129 100.324C235.31 93.8972 225.26 101.282 229.754 110.025Z" fill="#6B3314"/>
<path d="M205.816 236.013L208.002 202.108C208.002 202.108 208.891 170.285 201.1 173.28C187.163 178.637 183.579 237.089 183.302 247.853C183.128 254.58 188.093 258.374 192.869 258.374C199.423 258.374 205.244 244.893 205.816 236.013Z" fill="#F2F6F8"/>
<path d="M256.547 282.562H229.61C201.294 282.562 178.34 259.608 178.34 231.291C178.34 225.857 182.744 221.453 188.179 221.453H297.978C303.412 221.453 307.817 225.857 307.817 231.291C307.817 259.608 284.862 282.562 256.547 282.562Z" fill="#FFBF69"/>
<path d="M187.579 338.925L171.156 468.977C175.953 468.977 180.103 465.641 181.135 460.958L205.701 360.445H243.078V338.925H187.579Z" fill="#FFBF69"/>
<path d="M298.577 338.925L314.999 468.977C310.203 468.977 306.053 465.641 305.021 460.958L280.455 360.445H243.078V338.925H298.577Z" fill="#FAA019"/>
<path d="M302.597 338.925H183.558C180.676 338.925 178.339 336.587 178.339 333.705C178.339 329.082 182.087 325.334 186.711 325.334H299.445C304.069 325.334 307.817 329.082 307.817 333.705C307.817 336.587 305.48 338.925 302.597 338.925Z" fill="#463840"/>
<path d="M203.935 261.08L216.863 360.439H209.432L194.351 252.007C199.112 252.007 203.17 255.849 203.935 261.08Z" fill="#FAA019"/>
<path d="M209.431 360.439H203.238L191.164 256.102C190.885 253.941 192.39 252.006 194.35 252.006L209.431 360.439Z" fill="#FFBF69"/>
<path d="M282.221 261.08L269.293 360.439H276.724L291.805 252.007C287.044 252.007 282.986 255.849 282.221 261.08Z" fill="#FFBF69"/>
<path d="M276.725 360.439H282.918L294.993 256.102C295.272 253.941 293.766 252.006 291.805 252.006L276.725 360.439Z" fill="#FAA019"/>
<path d="M102.346 240.342H135.362C137.039 240.342 138.293 238.8 137.952 237.158L128.692 192.631C128.267 190.587 126.465 189.12 124.376 189.12H91.3606C89.6827 189.12 88.4289 190.662 88.7697 192.304L98.0297 236.831C98.4549 238.877 100.257 240.342 102.346 240.342Z" fill="#463840"/>
<path d="M103.23 240.342H136.247C137.923 240.342 139.178 238.8 138.836 237.158L129.578 192.631C129.151 190.587 127.349 189.12 125.262 189.12H92.2452C90.5673 189.12 89.3135 190.662 89.6543 192.304L98.9143 236.831C99.3395 238.877 101.141 240.342 103.23 240.342Z" fill="#F1F1F1"/>
<path d="M128.692 192.631L137.952 237.157L100.684 236.832L91.4253 192.304L128.692 192.631Z" fill="#E8E0E4"/>
<g opacity="0.199997">
<g opacity="0.199997">
<path opacity="0.199997" d="M131.709 226.271H102.702L99.8781 212.708H128.885L131.709 226.271Z" fill="#F1F1F1"/>
</g>
<g opacity="0.199997">
<path opacity="0.199997" d="M125.471 196.307H96.4637L96.0855 194.49H125.092L125.471 196.307Z" fill="#FC9A80"/>
</g>
<g opacity="0.199997">
<path opacity="0.199997" d="M128.749 212.054H99.7425L96.9182 198.49H125.925L128.749 212.054Z" fill="#FC9A80"/>
</g>
<g opacity="0.199997">
<path opacity="0.199997" d="M108.527 234.973H105.743C105.064 234.973 104.399 234.422 104.257 233.742L103.678 230.96C103.536 230.28 103.972 229.729 104.652 229.729H107.436C108.115 229.729 108.779 230.28 108.922 230.96L109.5 233.742C109.643 234.422 109.207 234.973 108.527 234.973Z" fill="#FC9A80"/>
</g>
<g opacity="0.199997">
<path opacity="0.199997" d="M116.448 234.973H113.664C112.986 234.973 112.32 234.422 112.178 233.742L111.599 230.96C111.458 230.28 111.894 229.729 112.572 229.729H115.356C116.036 229.729 116.701 230.28 116.842 230.96L117.422 233.742C117.564 234.422 117.127 234.973 116.448 234.973Z" fill="#FC9A80"/>
</g>
<g opacity="0.199997">
<path opacity="0.199997" d="M124.369 234.973H121.585C120.907 234.973 120.241 234.422 120.099 233.742L119.52 230.96C119.379 230.28 119.815 229.729 120.494 229.729H123.277C123.957 229.729 124.622 230.28 124.764 230.96L125.343 233.742C125.485 234.422 125.049 234.973 124.369 234.973Z" fill="#FC9A80"/>
</g>
<g opacity="0.199997">
<path opacity="0.199997" d="M132.29 234.973H129.507C128.827 234.973 128.162 234.422 128.02 233.742L127.442 230.96C127.3 230.28 127.737 229.729 128.415 229.729H131.199C131.878 229.729 132.544 230.28 132.685 230.96L133.265 233.742C133.406 234.422 132.97 234.973 132.29 234.973Z" fill="#FC9A80"/>
</g>
<g opacity="0.199997">
<path opacity="0.199997" d="M99.8781 212.708L131.709 226.271" stroke="#463840" stroke-miterlimit="10"/>
</g>
<g opacity="0.199997">
<path opacity="0.199997" d="M128.885 212.708L102.702 226.271" stroke="#463840" stroke-miterlimit="10"/>
</g>
</g>
<path d="M364.326 145.657L332.875 125.588C332.264 125.199 332.144 124.357 332.618 123.811L358.768 93.8066C359.153 93.3649 359.804 93.2718 360.297 93.5863L381.795 107.304C382.29 107.619 382.478 108.248 382.24 108.784L366.045 145.141C365.751 145.802 364.937 146.047 364.326 145.657Z" fill="#2F3767"/>
<path d="M372.277 101.231L369.816 99.6596L384.181 77.1459L386.643 78.7176L372.277 101.231Z" fill="#FAA019"/>
<path d="M420.443 122.913C420.443 124.43 419.521 125.66 418.383 125.66C417.247 125.66 416.325 124.43 416.325 122.913C416.325 121.396 417.247 120.167 418.383 120.167C419.521 120.167 420.443 121.396 420.443 122.913Z" fill="#E5AF70"/>
<path d="M413.801 120.167C412.664 120.167 411.742 121.397 411.742 122.913C411.742 124.43 412.664 125.66 413.801 125.66H418.384C417.247 125.66 416.326 124.43 416.326 122.913C416.326 121.397 417.247 120.167 418.384 120.167H413.801Z" fill="#FFD994"/>
<path d="M417.017 120.167L379.545 87.7182L376.914 90.6598L414.278 122.913C414.278 122.913 414.985 123.364 415.501 122.18C416.325 120.284 417.017 120.167 417.017 120.167Z" fill="#FAA019"/>
<path d="M413.01 125.659L393.994 234.69L397.884 235.368L417.016 125.659C417.016 125.659 416.473 124.401 414.287 124.656C413.127 124.791 413.01 125.659 413.01 125.659Z" fill="#FAA019"/>
<path d="M423.815 240.342H370.62V234.69H423.815V240.342Z" fill="#2F3767"/>
<path d="M374.404 239.637L372.877 239.879L368.047 209.347L369.574 209.106L374.404 239.637Z" fill="#2F3767"/>
<path d="M375.956 239.889L374.413 239.967L372.853 209.095L374.396 209.018L375.956 239.889Z" fill="#2F3767"/>
<path d="M382.425 239.965L380.883 239.864L382.742 211.6L384.284 211.702L382.425 239.965Z" fill="#2F3767"/>
<path d="M378.007 238.476L376.645 237.745L391.26 210.508L392.622 211.238L378.007 238.476Z" fill="#2F3767"/>
<path d="M389.545 220.234H367.512C367.01 220.234 366.602 219.826 366.602 219.324C366.602 218.822 367.01 218.416 367.512 218.416H389.545C390.047 218.416 390.454 218.822 390.454 219.324C390.454 219.826 390.047 220.234 389.545 220.234Z" fill="#D67363"/>
<path d="M389.545 220.234L387.277 238.384C387.136 239.503 386.186 240.342 385.058 240.342H371.998C370.871 240.342 369.921 239.503 369.781 238.384L367.512 220.234H389.545Z" fill="#FF6A66"/>
<path d="M351.111 213.655C352.377 213.655 353.405 214.682 353.405 215.948V222.836C353.405 228.28 350.183 229.836 349.711 238.213C349.643 239.404 348.671 240.342 347.479 240.342H337.681C336.489 240.342 335.517 239.404 335.45 238.213C334.975 229.836 331.755 228.28 331.755 222.836V215.948C331.755 214.682 332.781 213.655 334.048 213.655H351.111Z" fill="#3F8E90"/>
<path d="M330.3 225.137C327.263 225.137 324.792 222.665 324.792 219.628V217.456C324.792 216.257 325.766 215.283 326.964 215.283H330.3C331.469 215.283 332.421 216.234 332.421 217.403C332.421 217.771 332.123 218.069 331.755 218.069C331.388 218.069 331.091 217.771 331.091 217.403C331.091 216.967 330.736 216.613 330.3 216.613H326.964C326.5 216.613 326.121 216.991 326.121 217.456V219.628C326.121 221.932 327.996 223.806 330.3 223.806C330.736 223.806 331.091 223.451 331.091 223.016V221.344C331.091 220.975 331.388 220.678 331.755 220.678C332.123 220.678 332.421 220.975 332.421 221.344V223.016C332.421 224.185 331.469 225.137 330.3 225.137Z" fill="#3F8E90"/>
<path d="M101.709 367.056C124.246 289.79 85.3074 246.41 75.2419 204.319C67.6534 172.59 73.678 137.516 91.3331 110.629" stroke="#216D55" stroke-width="2" stroke-miterlimit="10"/>
<path d="M116.888 87.9013C116.77 101.651 88.5736 109.997 81.2886 130.589C83.5277 124.278 89.1029 97.4769 105.24 88.6213C108.893 86.5269 113.235 85.7236 116.888 87.9013Z" fill="#2F8468"/>
<path d="M78.3047 137.718C85.0811 118.843 93.3294 104.367 109.515 92.6524" stroke="#216D55" stroke-width="2" stroke-miterlimit="10" stroke-linecap="round"/>
<path d="M56.1657 105.084C60.2296 104.166 63.911 106.313 66.6235 109.378C79.0092 123.134 73.7178 149.623 73.2465 155.556C75.0275 133.489 51.8398 118.188 56.1657 105.084Z" fill="#216D55"/>
<path d="M72.8714 162.655C74.5866 143.513 72.5524 127.533 61.4502 111.695" stroke="#216D55" stroke-width="2" stroke-miterlimit="10" stroke-linecap="round"/>
<path d="M126.266 111.645C124.573 132.938 81.8132 142.192 73.5222 176.328C75.3787 168.739 81.217 124.977 108.406 111.665C114.215 108.752 120.917 107.822 126.266 111.645Z" fill="#2F8468"/>
<path d="M72.5931 187.461C71.6374 162.268 92.5344 132.183 114.602 118.096" stroke="#216D55" stroke-width="2" stroke-miterlimit="10" stroke-linecap="round"/>
<path d="M37.8364 141.418C40.8339 138.895 44.8792 139.158 48.4575 140.661C63.6402 146.852 67.9145 166.67 71.0084 178.094C65.5998 157.984 39.8245 153.857 37.8364 141.418Z" fill="#216D55"/>
<path d="M72.2747 184.693C70.2208 168.082 59.5515 152.751 45.0418 144.729" stroke="#216D55" stroke-width="2" stroke-miterlimit="10" stroke-linecap="round"/>
<path d="M0.42804 176.376C4.83059 162.223 26.9727 162.769 42.9663 171.615C61.952 181.994 69.5899 198.404 76.9297 213.041C71.6076 202.335 58.2136 191.176 37.0667 187.106C21.552 184.096 8.79475 185.761 0.42804 176.376Z" fill="#2F8468"/>
<path d="M81.5381 224.171C69.297 190.699 43.4593 174.453 14.441 174.793" stroke="#216D55" stroke-width="2" stroke-miterlimit="10" stroke-linecap="round"/>
<path d="M114.4 162.563C117.158 180.706 82.7501 199.492 86.232 230.583C85.3826 222.857 77.6845 184.701 98.9092 166.459C103.298 162.603 108.967 160.327 114.4 162.563Z" fill="#2F8468"/>
<path d="M88.5325 241.119C81.0667 221.735 87.5779 189.963 105.687 170.614" stroke="#216D55" stroke-width="2" stroke-miterlimit="10" stroke-linecap="round"/>
<path d="M114.149 211.405C118.094 224.347 95.0974 239.566 98.073 261.571C97.3891 256.451 90.8285 229.584 103.667 215.545C106.405 212.493 110.123 210.398 114.149 211.405Z" fill="#216D55"/>
<path d="M99.5083 268.552C94.8482 251.364 98.592 232.137 108.791 217.889" stroke="#216D55" stroke-width="2" stroke-miterlimit="10" stroke-linecap="round"/>
<path d="M138.395 233.403C141.646 250.461 109.537 266.147 106.989 294.059C107.77 285.609 106.696 251.939 124.427 237.032C128.41 233.628 133.413 231.568 138.395 233.403Z" fill="#2F8468"/>
<path d="M107.203 303.223C106.704 279.143 114.749 257.899 130.571 240.877" stroke="#216D55" stroke-width="2" stroke-miterlimit="10" stroke-linecap="round"/>
<path d="M19.482 247.509C22.2987 234.674 39.6984 232.016 55.0038 237.204C92.5992 249.915 100.431 287.128 104.896 299.567C89.2214 255.236 38.7559 265.734 19.482 247.509Z" fill="#216D55"/>
<path d="M107.995 313.385C105.567 280.707 74.5843 247.773 36.2458 245.666" stroke="#216D55" stroke-width="2" stroke-miterlimit="10" stroke-linecap="round"/>
<path d="M16.2223 215.922C21.2879 202.057 42.9335 204.51 56.8645 211.995C75.6595 221.986 84.1862 238.376 91.3386 249.82C83.2689 236.828 66.5892 229.635 51.4197 226.884C36.2733 224.116 23.767 225.261 16.2223 215.922Z" fill="#2F8468"/>
<path d="M96.5917 259.978C85.6867 233.837 59.7602 215.349 29.6789 214.909" stroke="#216D55" stroke-width="2" stroke-miterlimit="10" stroke-linecap="round"/>
<path d="M124.839 468.978H86.5333C76.9895 468.978 69.1116 461.513 68.5965 451.983L62.893 346.462C62.6256 341.525 66.558 337.374 71.502 337.374H139.87C144.815 337.374 148.746 341.525 148.479 346.462L142.776 451.983C142.261 461.513 134.383 468.978 124.839 468.978Z" fill="#8E3948"/>
<path d="M380.107 446.661H339.098V337.374H380.107V446.661Z" fill="#E8E0E4"/>
<path d="M380.107 372.075H339.098V370.267H380.107V372.075Z" fill="#463840"/>
<path d="M380.107 357.781H339.098V355.971H380.107V357.781Z" fill="#463840"/>
<path d="M380.107 386.37H339.098V384.562H380.107V386.37Z" fill="#463840"/>
<path d="M380.107 371.884H339.098V370.075H380.107V371.884Z" fill="#F1F1F1"/>
<path d="M380.107 357.589H339.098V355.779H380.107V357.589Z" fill="#F1F1F1"/>
<path d="M380.107 386.18H339.098V384.37H380.107V386.18Z" fill="#F1F1F1"/>
<path d="M366.857 425.348C366.857 428.845 364.021 431.682 360.524 431.682C357.025 431.682 354.19 428.845 354.19 425.348C354.19 421.851 357.025 419.015 360.524 419.015C364.021 419.015 366.857 421.851 366.857 425.348Z" fill="#F1F1F1"/>
<path d="M360.523 341.09H358.681V337.373H360.523V341.09Z" fill="#216D55"/>
<path d="M364.385 341.09H362.543V337.373H364.385V341.09Z" fill="#216D55"/>
<path d="M354.821 341.09H356.663V337.373H354.821V341.09Z" fill="#ED6D2F"/>
<path d="M347.227 382.678H341.66V381.048H347.227V382.678Z" fill="#463840"/>
<path d="M354.49 382.678H348.923V381.048H354.49V382.678Z" fill="#463840"/>
<path d="M361.753 382.678H356.188V381.048H361.753V382.678Z" fill="#463840"/>
<path d="M342.413 456.339H339.066V451.954H342.413V456.339Z" fill="#33252F"/>
<path d="M347.717 461.999C347.717 465.854 344.593 468.977 340.74 468.977C336.886 468.977 333.763 465.854 333.763 461.999C333.763 458.146 336.886 455.022 340.74 455.022C344.593 455.022 347.717 458.146 347.717 461.999Z" fill="#33252F"/>
<path d="M346.643 461.999C346.643 465.261 344 467.903 340.74 467.903C337.48 467.903 334.837 465.261 334.837 461.999C334.837 458.738 337.48 456.096 340.74 456.096C344 456.096 346.643 458.738 346.643 461.999Z" fill="#E5AF70"/>
<path d="M376.792 456.339H380.139V451.954H376.792V456.339Z" fill="#33252F"/>
<path d="M371.488 461.999C371.488 465.854 374.612 468.977 378.465 468.977C382.319 468.977 385.443 465.854 385.443 461.999C385.443 458.146 382.319 455.022 378.465 455.022C374.612 455.022 371.488 458.146 371.488 461.999Z" fill="#33252F"/>
<path d="M372.562 461.999C372.562 465.261 375.206 467.903 378.466 467.903C381.726 467.903 384.368 465.261 384.368 461.999C384.368 458.738 381.726 456.096 378.466 456.096C375.206 456.096 372.562 458.738 372.562 461.999Z" fill="#E5AF70"/>
<path d="M385.721 452.238H333.484V446.66H385.721V452.238Z" fill="#FFD994"/>
<path d="M385.721 452.238H333.484V449.449H385.721V452.238Z" fill="#E5AF70"/>
<path d="M177.604 30.9974H234.664C239.77 30.9974 243.911 35.1369 243.911 40.2442V91.1547L238.677 83.6143C236.163 79.9921 232.035 77.8308 227.624 77.8308H177.604C172.497 77.8308 168.357 73.6924 168.357 68.5851V40.2442C168.357 35.1369 172.497 30.9974 177.604 30.9974Z" fill="#463840"/>
<path d="M186.814 55.7446H188.611L189.133 53.1219H187.337L186.814 55.7446ZM183.364 62.8915L184.438 57.3886H183.241V55.7358H184.762L185.284 53.0934H183.877V51.4494H185.608L186.672 46.146H188.733L187.659 51.4494H189.447L190.511 46.146H192.574L191.518 51.4494H192.688V53.0934H191.196L190.673 55.7358H192.051V57.3886H190.34L189.257 62.8915H187.203L188.277 57.3886H186.491L185.417 62.8915H183.364Z" fill="#78CFD8"/>
<path d="M195.795 62.8915V51.0121H194.693V49.1972H195.804V48.4563C195.804 47.6574 196.012 47.0381 196.428 46.5975C196.842 46.157 197.394 45.9378 198.086 45.9378C198.776 45.9378 199.334 46.0167 199.758 46.1756V47.7527C199.567 47.7275 199.346 47.7143 199.093 47.7143C198.573 47.7143 198.314 47.9872 198.314 48.5319V49.1972H199.758V51.0121H198.314V62.8915H195.795Z" fill="#78CFD8"/>
<path d="M201.849 62.8915V51.0121H200.746V49.1972H201.858V48.4563C201.858 47.6574 202.066 47.0381 202.481 46.5975C202.895 46.157 203.448 45.9378 204.139 45.9378C204.83 45.9378 205.388 46.0167 205.812 46.1756V47.7527C205.621 47.7275 205.4 47.7143 205.146 47.7143C204.627 47.7143 204.367 47.9872 204.367 48.5319V49.1972H205.812V51.0121H204.367V62.8915H201.849Z" fill="#78CFD8"/>
<path d="M207.902 62.8915V51.0121H206.8V49.1972H207.912V48.4563C207.912 47.6574 208.119 47.0381 208.535 46.5975C208.95 46.157 209.502 45.9378 210.193 45.9378C210.883 45.9378 211.441 46.0167 211.865 46.1756V47.7527C211.675 47.7275 211.453 47.7143 211.2 47.7143C210.681 47.7143 210.421 47.9872 210.421 48.5319V49.1972H211.865V51.0121H210.421V62.8915H207.902Z" fill="#78CFD8"/>
<path d="M213.956 62.8915V51.0121H212.853V49.1972H213.966V48.4563C213.966 47.6574 214.173 47.0381 214.588 46.5975C215.004 46.157 215.556 45.9378 216.246 45.9378C216.937 45.9378 217.495 46.0167 217.919 46.1756V47.7527C217.729 47.7275 217.507 47.7143 217.254 47.7143C216.734 47.7143 216.474 47.9872 216.474 48.5319V49.1972H217.919V51.0121H216.474V62.8915H213.956Z" fill="#78CFD8"/>
<path d="M220.01 62.8915V51.0121H218.907V49.1972H220.019V48.4563C220.019 47.6574 220.227 47.0381 220.642 46.5975C221.057 46.157 221.609 45.9378 222.299 45.9378C222.991 45.9378 223.549 46.0167 223.973 46.1756V47.7527C223.782 47.7275 223.561 47.7143 223.308 47.7143C222.788 47.7143 222.528 47.9872 222.528 48.5319V49.1972H223.973V51.0121H222.528V62.8915H220.01Z" fill="#78CFD8"/>
<path d="M226.064 62.8915V51.0121H224.961V49.1972H226.073V48.4563C226.073 47.6574 226.281 47.0381 226.696 46.5975C227.11 46.157 227.663 45.9378 228.354 45.9378C229.045 45.9378 229.602 46.0167 230.027 46.1756V47.7527C229.836 47.7275 229.615 47.7143 229.361 47.7143C228.842 47.7143 228.582 47.9872 228.582 48.5319V49.1972H230.027V51.0121H228.582V62.8915H226.064Z" fill="#78CFD8"/>
</svg>
