<svg width="618" height="549" viewBox="0 0 618 549" fill="none" xmlns="http://www.w3.org/2000/svg">
<mask id="mask0" mask-type="alpha" maskUnits="userSpaceOnUse" x="0" y="0" width="553" height="549">
<path fill-rule="evenodd" clip-rule="evenodd" d="M300.178 8.05748C381.197 12.5427 471.966 9.60925 522.141 73.3798C572.08 136.851 549.357 224.433 532.581 303.434C515.322 384.709 499.626 473.756 428.131 516.088C350.761 561.898 252.21 557.209 171.744 517.084C92.5796 477.609 45.439 399.2 22.4284 313.784C-1.99913 223.108 -18.0486 116.478 45.098 46.9704C105.947 -20.0076 209.825 3.05549 300.178 8.05748Z" fill="#C4C4C4"/>
</mask>
<g mask="url(#mask0)">
<rect x="-21.3272" y="-22.1338" width="662.274" height="625.679" fill="#F2F6F8"/>
<path d="M25.8477 435.575H553.234V435.313H25.8477V435.575Z" fill="#ECECEC"/>
<path d="M81.18 445.621H98.1207V445.357H81.18V445.621Z" fill="#ECECEC"/>
<path d="M206.362 442.758H262.819V442.495H206.362V442.758Z" fill="#ECECEC"/>
<path d="M99.1765 455.415H137.416V455.152H99.1765V455.415Z" fill="#ECECEC"/>
<path d="M425.754 442.627H471.313V442.363H425.754V442.627Z" fill="#ECECEC"/>
<path d="M480.705 442.627H487.385V442.363H480.705V442.627Z" fill="#ECECEC"/>
<path d="M360.211 449.19H417.052V448.927H360.211V449.19Z" fill="#ECECEC"/>
<path d="M497.246 369.371C497.246 369.371 482.529 373.324 467.782 383.689C472.41 355.721 458.151 333.683 458.151 333.683C458.151 333.683 438.844 351.121 428.785 374.668C425.061 370.242 421.238 367.074 418.697 365.199C420.858 356.746 421.318 351.089 421.318 351.089C421.318 351.089 402.521 356.14 383.686 369.377C389.597 333.656 371.385 305.508 371.385 305.508C371.385 305.508 346.726 327.78 333.878 357.856C325.746 348.189 317.202 343.185 317.202 343.185C317.202 343.185 304.196 365.246 302.948 389.189C289.103 386.003 276.707 387.37 276.707 387.37C276.707 387.37 277.22 415.83 295.987 431.355C297.783 432.843 299.685 434.155 301.65 435.312H473.181C486.636 426.565 495.149 414.33 495.149 414.33C495.149 414.33 488.984 412.231 480.03 412.001C495.368 392.472 497.246 369.371 497.246 369.371Z" fill="#D7E5EB"/>
<path d="M330.531 360.486C330.531 360.486 313.831 364.972 297.098 376.734C302.35 344.998 286.17 319.991 286.17 319.991C286.17 319.991 264.262 339.778 252.847 366.498C248.623 361.475 244.284 357.881 241.4 355.754C243.852 346.162 244.374 339.742 244.374 339.742C244.374 339.742 223.045 345.473 201.672 360.494C208.38 319.96 187.714 288.02 187.714 288.02C187.714 288.02 159.733 313.293 145.154 347.42C135.926 336.45 126.231 330.773 126.231 330.773C126.231 330.773 111.473 355.806 110.057 382.975C94.3465 379.361 80.2801 380.912 80.2801 380.912C80.2801 380.912 80.8633 413.206 102.157 430.822C104.196 432.51 106.354 433.999 108.584 435.312H303.224C318.492 425.386 328.153 411.504 328.153 411.504C328.153 411.504 321.157 409.122 310.996 408.862C328.401 386.701 330.531 360.486 330.531 360.486Z" fill="#DFEAEF"/>
<path d="M208.245 85.7087C208.245 103.17 194.091 117.323 176.63 117.323C159.171 117.323 145.017 103.17 145.017 85.7087C145.017 68.2492 159.171 54.0941 176.63 54.0941C194.091 54.0941 208.245 68.2492 208.245 85.7087Z" fill="#DFEAEF"/>
<path d="M61.7714 199.693C71.9093 192.653 86.316 187.862 99.4866 187.862C116.594 187.862 125.828 195.942 121.975 206.556C125.276 205.683 128.695 205.2 131.973 205.2C143.64 205.2 149.304 211.339 144.643 218.898C144.208 219.603 143.687 220.31 143.112 220.987H28.2707C28.4745 219.427 29.0993 217.765 30.1575 216.047C35.2536 207.781 48.807 200.938 61.7714 199.693Z" fill="#DFEAEF"/>
<path d="M411.291 170.814C418.01 166.149 427.56 162.973 436.288 162.973C447.627 162.973 453.748 168.328 451.193 175.363C453.382 174.785 455.647 174.464 457.82 174.464C465.553 174.464 469.307 178.533 466.218 183.542C465.93 184.01 465.584 184.479 465.203 184.927H389.087C389.222 183.893 389.635 182.792 390.337 181.654C393.715 176.176 402.698 171.64 411.291 170.814Z" fill="#DFEAEF"/>
<path d="M71.0349 150.534C70.1841 146.422 65.2189 143.622 57.526 143.622C47.5313 143.622 36.3179 148.342 30.9218 154.543C29.6227 154.032 27.973 153.75 26.0578 153.75C19.2428 153.75 11.5116 157.336 8.78883 161.752C8.53446 162.164 8.33072 162.577 8.17883 162.973H75.2654C76.2706 162.062 77.1041 161.09 77.7227 160.087C80.6999 155.259 77.7116 151.261 71.0349 150.534Z" fill="#DFEAEF"/>
<path d="M575.942 195.144C575.112 191.133 570.269 188.404 562.765 188.404C553.019 188.404 542.081 193.007 536.819 199.055C535.551 198.556 533.944 198.282 532.075 198.282C525.428 198.282 517.887 201.779 515.233 206.087C514.985 206.488 514.785 206.89 514.637 207.276H580.068C581.049 206.388 581.861 205.441 582.464 204.462C585.368 199.752 582.454 195.852 575.942 195.144Z" fill="#DFEAEF"/>
<path d="M448.254 119.153C449.006 119.153 449.724 119.186 450.409 119.253C457.25 114.005 467.61 110.346 477.037 110.346C479.565 110.346 481.843 110.607 483.811 111.095C493.029 104.408 506.481 99.8154 518.76 99.8154C533.737 99.8154 542.046 106.654 539.435 115.789C547.371 116.967 550.817 121.955 547.135 127.926C546.741 128.565 546.269 129.205 545.748 129.818H425.353L425.399 129.743C429.004 123.897 439.241 119.153 448.254 119.153Z" fill="#DFEAEF"/>
<path d="M494.05 471.005C494.05 477.602 402.488 482.949 289.541 482.949C176.594 482.949 85.0321 477.602 85.0321 471.005C85.0321 464.409 176.594 459.062 289.541 459.062C402.488 459.062 494.05 464.409 494.05 471.005Z" fill="#DFEAEF"/>
<path d="M411.801 458.661C412.628 459.158 413.136 460.031 413.739 460.924C417.169 465.998 422.277 459.594 425.414 456.663C425.036 455.437 424.36 454.354 423.492 453.387C421.19 452.372 418.811 451.601 416.222 451.418C413.272 451.21 412.206 455.349 411.801 458.661Z" fill="#BFBEBE"/>
<path d="M398.125 453.894C397.814 451.091 397 448.048 395.09 445.893C393.665 444.285 391.916 443.719 390.055 443.663C386.836 445.428 382.546 449.137 380.068 452.022C379.574 452.597 379.275 453.257 379.114 453.962C382.84 457.023 386.753 459.791 391.074 461.98C392.894 462.901 394.834 463.773 396.858 464.175C398.052 460.91 398.512 457.383 398.125 453.894Z" fill="#D0D0D0"/>
<path d="M413.77 447.448C406.959 444.507 399.718 442.323 392.226 442.744C391.6 442.899 390.86 443.221 390.055 443.663C391.916 443.718 393.665 444.285 395.09 445.893C397 448.048 397.814 451.091 398.125 453.894C398.511 457.382 398.052 460.91 396.858 464.174C397.431 464.288 398.01 464.366 398.595 464.395C401.851 464.552 403.627 462.915 405.71 460.688C406.943 459.37 408.556 458.099 410.48 458.252C411.008 458.294 411.436 458.44 411.802 458.661C412.206 455.349 413.272 451.21 416.222 451.418C418.811 451.6 421.19 452.372 423.492 453.387C421.02 450.635 416.984 448.836 413.77 447.448Z" fill="#BFBEBE"/>
<path d="M400.952 464.146C400.251 464.344 399.479 464.437 398.595 464.394C395.941 464.266 393.409 463.162 391.074 461.979C386.753 459.791 382.84 457.023 379.114 453.962C378.756 455.534 379.091 457.326 379.514 458.876C380.069 460.906 380.709 462.964 381.774 464.794C384.404 469.31 389.325 469.846 394.105 470.407C395.541 470.576 398.356 470.847 401.704 470.873C401.61 469.737 401.498 468.601 401.387 467.466C401.286 466.435 401.376 465.121 400.952 464.146Z" fill="#D0D0D0"/>
<path d="M405.593 463.643C405.641 462.664 405.683 461.628 405.795 460.599C405.767 460.629 405.738 460.659 405.71 460.688C404.192 462.311 402.835 463.616 400.952 464.147C401.376 465.121 401.286 466.435 401.387 467.466C401.498 468.601 401.61 469.737 401.704 470.873C402.979 470.883 404.332 470.855 405.716 470.775C405.708 470.743 405.699 470.712 405.692 470.68C405.207 468.446 405.484 465.905 405.593 463.643Z" fill="#D0D0D0"/>
<path d="M425.414 456.663C422.636 459.259 418.312 464.572 414.977 462.231C414.77 462.85 414.565 463.471 414.356 464.09C413.719 465.984 413.179 467.97 412.492 469.87C415.028 469.298 417.415 468.433 419.35 467.143C421.321 465.828 424.934 463.504 425.5 460.729C425.557 460.655 425.6 460.573 425.615 460.485C425.865 459.074 425.767 457.808 425.414 456.663Z" fill="#BFBEBE"/>
<path d="M409.024 465.754C409.074 464.701 409.294 463.592 409.24 462.543C409.167 461.109 408.615 460.567 407.837 459.701C407.824 459.705 407.811 459.708 407.797 459.712C407.47 459.806 407.27 459.526 407.297 459.269C406.749 459.659 406.248 460.124 405.795 460.599C405.683 461.628 405.641 462.664 405.593 463.643C405.484 465.905 405.207 468.446 405.692 470.68C405.699 470.712 405.708 470.743 405.716 470.775C406.757 470.714 407.816 470.621 408.873 470.49C408.672 468.986 408.96 467.101 409.024 465.754Z" fill="#BFBEBE"/>
<path d="M413.617 461.845C413.895 462.621 414.12 463.48 414.266 464.369C414.297 464.276 414.326 464.182 414.356 464.09C414.565 463.471 414.77 462.85 414.977 462.231C414.547 461.929 414.132 461.505 413.74 460.924C412.869 459.637 412.2 458.388 410.48 458.252C409.642 458.185 408.864 458.39 408.15 458.75C410.786 458.048 412.621 459.062 413.617 461.845Z" fill="#827D83"/>
<path d="M414.267 464.368C414.12 463.479 413.895 462.621 413.617 461.844C412.621 459.062 410.786 458.048 408.15 458.749C407.854 458.899 407.57 459.074 407.297 459.268C407.27 459.526 407.471 459.806 407.797 459.712C407.811 459.707 407.824 459.705 407.837 459.701C408.615 460.567 409.167 461.108 409.24 462.543C409.294 463.591 409.074 464.7 409.024 465.754C408.96 467.101 408.672 468.986 408.873 470.49C410.091 470.339 411.308 470.138 412.492 469.87C413.145 468.062 413.669 466.178 414.267 464.368Z" fill="#BFBEBE"/>
<path d="M420.058 460.266C419.349 460.745 418.671 461.269 417.966 461.754C416.792 462.561 415.553 462.826 414.786 461.449C414.541 461.009 413.864 459.044 412.653 458.116C412.066 457.666 411.116 457.81 410.399 457.903C408.924 458.095 407.576 458.876 406.405 459.749C405.703 460.272 403.668 462.206 401.59 462.913C399.512 463.62 397.394 463.337 396.493 463.225C394.633 462.993 392.278 461.751 390.318 460.696C388.236 459.574 386.706 458.178 386.092 457.901C384.99 457.405 381.697 456.096 380.216 454.617C379.381 453.784 379.835 452.323 379.83 452.329C378.751 453.492 378.694 454.604 380.193 455.964C381.845 457.462 384.017 458.278 385.166 459.22C385.847 459.778 386.646 461.079 387.824 461.532C388.729 461.88 390.307 461.761 391.016 461.945C391.192 462.075 391.376 462.146 391.601 462.168C392.13 462.454 392.708 462.789 392.882 463.1C393.026 463.356 393.769 465.826 394.148 466.844C394.212 467.055 394.283 467.267 394.371 467.483C394.552 467.926 394.396 464.811 394.399 464.296C394.629 464.415 394.914 464.492 395.147 464.554C396.863 465.009 398.693 464.702 400.333 464.093C400.674 465.424 401.524 468.903 401.526 468.901C401.767 466.962 401.944 465.418 401.665 464.546C402.445 463.472 403.799 462.725 404.568 462.138C405.982 461.06 407.445 459.272 410.146 459.443C411.793 459.546 413.364 461.12 413.687 462.698C414.049 464.469 413.289 466.688 413.126 467.987C414.285 466.76 416.288 464.539 417.531 463.398C419.108 461.95 422.454 460.495 423.894 458.153C424.176 457.696 420.849 459.649 420.058 460.266Z" fill="#BFBEBE"/>
<path d="M394.661 469.342C394.056 469.074 393.949 468.382 393.34 468.155C392.43 467.816 391.474 467.771 390.52 467.665C389.631 467.567 389.628 466.983 389.371 466.576C388.808 465.681 388.126 464.641 387.226 464.638C386.894 464.637 386.778 465.029 386.975 465.257C387.436 465.792 388.255 467.402 387.518 467.397C387.152 467.394 386.275 466.688 385.952 466.608C385.025 466.312 383.44 466.137 381.747 463.708C381.256 463.004 380.887 461.438 380.111 460.909C380.696 462.664 381.071 463.735 381.605 464.657C381.753 465.024 381.95 465.369 382.258 465.658C382.881 466.5 383.833 467.358 384.76 467.936C386.948 469.298 388.191 469.547 388.778 469.715C390.116 470.1 396.635 470.747 398.063 470.77C397.725 469.966 395.662 469.785 394.661 469.342Z" fill="#D0D0D0"/>
<path d="M413.77 447.448C410.078 445.222 405.109 443.539 400.851 442.834C398.824 442.498 396.725 442.417 394.678 442.567C392.84 442.703 390.31 442.654 388.861 443.861C387.948 444.622 386.587 445.731 385.5 446.828C387.569 446.154 388.122 445.449 389.398 444.949C390.042 444.971 390.699 444.267 391.374 444.304C392.709 444.377 393.798 445.959 394.657 446.84C396.852 449.094 398.001 452.261 398.253 455.392C398.971 453.838 398.756 451.576 398.433 449.891C398.21 448.732 397.776 447.258 398.754 446.333C399.22 445.893 400.367 445.644 400.989 445.518C404.948 444.715 411.88 447.961 413.77 447.448Z" fill="#D0D0D0"/>
<path d="M162.173 287.511C126.185 278.393 89.6193 300.175 80.501 336.162C71.3827 372.15 93.1648 408.716 129.152 417.834C165.14 426.953 201.706 405.17 210.824 369.183C219.943 333.195 198.16 296.629 162.173 287.511ZM160.1 295.691C191.52 303.652 210.606 335.69 202.645 367.11C194.684 398.53 162.644 417.615 131.225 409.655C99.8057 401.694 80.7199 369.654 88.6807 338.235C96.6418 306.815 128.681 287.73 160.1 295.691Z" fill="#2F4A57"/>
<path d="M161.465 290.303C127.02 281.575 92.0198 302.425 83.2921 336.87C74.5645 371.316 95.4137 406.316 129.859 415.044C164.305 423.771 199.305 402.922 208.033 368.476C216.76 334.03 195.911 299.031 161.465 290.303ZM159.482 298.132C189.555 305.752 207.824 336.419 200.204 366.493C192.584 396.566 161.917 414.834 131.843 407.215C101.769 399.595 83.5013 368.928 91.1211 338.854C98.741 308.78 129.408 290.512 159.482 298.132Z" fill="#F9A825"/>
<path d="M357.914 337.107C321.926 327.989 285.36 349.771 276.242 385.759C267.123 421.746 288.906 458.312 324.893 467.43C360.881 476.549 397.447 454.767 406.565 418.779C415.683 382.791 393.901 346.226 357.914 337.107ZM355.841 345.287C387.26 353.248 406.346 385.286 398.385 416.707C390.424 448.126 358.385 467.212 326.966 459.251C295.546 451.29 276.461 419.25 284.421 387.831C292.382 356.411 324.422 337.326 355.841 345.287Z" fill="#2F4A57"/>
<path d="M357.206 339.898C322.761 331.171 287.761 352.02 279.033 386.466C270.305 420.912 291.155 455.911 325.6 464.639C360.046 473.367 395.046 452.517 403.774 418.072C412.501 383.626 391.652 348.626 357.206 339.898ZM355.223 347.727C385.296 355.347 403.565 386.014 395.945 416.088C388.325 446.162 357.658 464.43 327.584 456.81C297.51 449.19 279.242 418.523 286.862 388.449C294.482 358.376 325.149 340.108 355.223 347.727Z" fill="#F9A825"/>
<path d="M230.921 382.186C222.54 380.063 214.026 385.135 211.903 393.515C209.779 401.895 214.851 410.41 223.231 412.534C231.611 414.657 240.126 409.584 242.249 401.204C244.373 392.824 239.301 384.309 230.921 382.186ZM229.625 387.298C235.173 388.704 238.543 394.36 237.137 399.908C235.731 405.456 230.074 408.827 224.527 407.421C218.979 406.016 215.609 400.358 217.015 394.81C218.421 389.262 224.077 385.892 229.625 387.298Z" fill="#2F4A57"/>
<path d="M155.715 355.22C154.308 360.772 148.667 364.133 143.115 362.726C137.564 361.319 134.203 355.678 135.61 350.126C137.017 344.574 142.658 341.214 148.209 342.62C153.761 344.027 157.121 349.668 155.715 355.22Z" fill="#2F4A57"/>
<path d="M351.456 404.816C350.049 410.368 344.408 413.728 338.856 412.321C333.305 410.915 329.944 405.274 331.351 399.722C332.758 394.17 338.399 390.809 343.95 392.216C349.502 393.622 352.863 399.264 351.456 404.816Z" fill="#2F4A57"/>
<path d="M148.204 342.617C143.807 341.503 139.031 343.389 136.665 347.517C133.817 352.486 135.537 358.823 140.506 361.671L219.601 411.112C220.777 411.752 222 412.225 223.241 412.54C230.012 414.255 237.341 411.253 240.828 404.835C244.957 397.24 242.147 387.735 234.552 383.606L150.818 343.676C149.978 343.194 149.099 342.844 148.204 342.617ZM147.427 345.685C148.059 345.845 148.671 346.092 149.245 346.422L149.348 346.481L149.456 346.532L233.109 386.424C239.107 389.734 241.325 397.297 238.049 403.324C235.319 408.346 229.55 410.874 224.018 409.473C223.042 409.225 222.091 408.856 221.192 408.376L142.184 358.987L142.132 358.955L142.079 358.925C140.41 357.968 139.213 356.418 138.708 354.561C138.204 352.703 138.454 350.761 139.41 349.091C141.013 346.296 144.309 344.895 147.427 345.685Z" fill="#2F4A57"/>
<path d="M226.299 400.427C226.154 400.39 226.01 400.343 225.87 400.286C224.845 399.863 224.115 398.934 223.948 397.837L202.119 254.69C201.855 252.962 203.042 251.349 204.77 251.085C206.5 250.821 208.112 252.009 208.375 253.736L229.413 391.691L339.213 310.33C340.616 309.289 342.598 309.585 343.639 310.989C344.679 312.393 344.384 314.374 342.98 315.415L228.96 399.902C228.191 400.472 227.212 400.659 226.299 400.427Z" fill="#2F4A57"/>
<path d="M145.143 354.718C144.849 354.644 144.568 354.505 144.319 354.3C143.421 353.557 143.294 352.228 144.036 351.33L207.01 275.099C207.752 274.201 209.082 274.073 209.98 274.816C210.878 275.558 211.005 276.888 210.264 277.786L147.289 354.016C146.752 354.666 145.908 354.912 145.143 354.718Z" fill="#2F4A57"/>
<path d="M340.624 405.336C339.257 404.99 338.244 403.755 338.239 402.279L337.888 300.232L208.14 279.568C206.405 279.294 205.238 277.671 205.512 275.944C205.787 274.219 207.409 273.042 209.135 273.317L341.542 294.405C343.074 294.651 344.202 295.968 344.208 297.519L344.568 402.257C344.574 404.005 343.162 405.427 341.415 405.433C341.142 405.434 340.877 405.4 340.624 405.336Z" fill="#2F4A57"/>
<path d="M340.262 300.597C338.763 300.217 337.731 298.785 337.896 297.202L340.643 270.892C340.823 269.154 342.38 267.892 344.117 268.073C345.852 268.249 347.118 269.81 346.936 271.549L344.191 297.858C344.009 299.596 342.453 300.858 340.715 300.677C340.56 300.661 340.409 300.634 340.262 300.597Z" fill="#2F4A57"/>
<path d="M330.59 278.936C329.562 278.676 328.697 277.893 328.381 276.801C327.908 275.165 328.851 273.454 330.489 272.981L352.507 266.614C354.146 266.141 355.854 267.085 356.328 268.722C356.801 270.358 355.858 272.069 354.221 272.542L332.202 278.909C331.656 279.066 331.102 279.066 330.59 278.936Z" fill="#F9A825"/>
<path d="M184.125 248.34C187.737 256.51 212.293 254.631 219.732 254.098C227.172 253.565 241.698 262.081 240.666 256.138C239.632 250.194 204.795 243.607 200.494 240.519C191.39 233.98 177.922 234.314 184.125 248.34Z" fill="#F9A825"/>
<path d="M209.26 429.713C209.079 429.667 208.902 429.597 208.732 429.5C207.72 428.922 207.367 427.633 207.946 426.622L242.542 366.006C243.119 364.993 244.407 364.639 245.42 365.219C246.432 365.797 246.784 367.086 246.207 368.097L211.609 428.713C211.13 429.555 210.156 429.94 209.26 429.713Z" fill="#2F4A57"/>
<path d="M248.928 370.381L230.864 365.804C229.736 365.518 229.052 364.37 229.338 363.241C229.624 362.113 230.772 361.429 231.901 361.715L249.964 366.291C251.093 366.577 251.777 367.726 251.491 368.855C251.205 369.983 250.057 370.667 248.928 370.381Z" fill="#2F4A57"/>
<path d="M222.251 433.004L204.187 428.427C203.058 428.141 202.374 426.993 202.66 425.864C202.946 424.735 204.095 424.051 205.223 424.337L223.287 428.914C224.416 429.2 225.1 430.349 224.814 431.477C224.528 432.606 223.38 433.29 222.251 433.004Z" fill="#2F4A57"/>
<line x1="405.82" y1="433.745" x2="427.771" y2="416.164" stroke="#2F4A57" stroke-width="5" stroke-linecap="round"/>
<line x1="409.253" y1="438.373" x2="420.223" y2="435.48" stroke="#2F4A57" stroke-width="5" stroke-linecap="round"/>
</g>
<path d="M338.004 106.662C336.07 104.277 318.998 99.0894 311.872 97.3095C305.3 95.6698 302.425 99.733 307.253 103.375C312.081 107.019 323.502 111.71 324.491 115.792C326.063 118.091 335.196 115.973 335.196 115.973C335.196 115.973 336.886 115.425 337.862 113.565C338.67 112.024 339.564 109.937 338.751 107.913C338.581 107.491 338.337 107.072 338.004 106.662Z" fill="#575B5D"/>
<path d="M324.491 115.792C324.814 120.39 324.956 127.892 324.956 127.892L335.507 126.53C335.507 126.53 334.981 118.733 335.196 115.973C335.196 115.973 328.084 111.33 324.491 115.792Z" fill="url(#paint0_linear)"/>
<path d="M425.623 229.029L423.344 228.224C421.816 227.679 420.298 227.078 418.772 226.488C415.722 225.298 412.68 224.055 409.657 222.773C406.625 221.505 403.638 220.144 400.675 218.751C397.709 217.361 394.771 215.931 391.89 214.423C386.114 211.429 380.476 208.252 375.185 204.779C369.874 201.347 364.877 197.611 360.685 193.622C358.556 191.642 356.731 189.585 355.237 187.579L354.674 186.828C354.487 186.571 354.318 186.237 354.138 185.944L353.059 184.132C352.292 182.983 351.708 181.54 351.021 180.234C348.393 174.807 346.329 168.702 344.541 162.465C342.8 156.199 341.363 149.737 340.244 143.195C339.674 139.925 339.202 136.635 338.767 133.338C338.354 130.07 338.003 126.666 337.79 123.542L322.32 124.491C322.443 126.394 322.304 145.802 322.304 145.802C323.15 152.813 324.163 159.842 325.553 166.912C326.918 173.995 328.634 181.099 331.159 188.368C331.861 190.19 332.404 191.995 333.305 193.844L334.567 196.606C334.79 197.069 334.973 197.519 335.227 197.994L336.014 199.426C338.133 203.234 340.53 206.614 343.054 209.656C345.578 212.716 348.206 215.574 350.91 218.214C353.596 220.904 356.35 223.426 359.15 225.84C364.758 230.669 370.501 235.144 376.353 239.383C382.202 243.633 388.147 247.66 394.165 251.577C397.173 253.54 400.205 255.462 403.276 257.343L407.918 260.151L410.273 261.561C411.096 262.039 411.815 262.473 412.795 263.011L427.759 229.742C427.181 229.573 426.349 229.28 425.623 229.029Z" fill="#F9B9B9"/>
<path d="M304.438 123.484C302.64 120.005 296.702 119.058 290.947 121.607C285.194 124.155 272.663 127.134 270.617 129.557C268.573 131.978 271.25 133.517 275.54 133.78C279.829 134.043 294.14 130.941 296.405 135.056C298.482 136.771 305.532 133.507 305.604 130.857C305.604 130.857 306.134 127.585 304.838 124.36C304.72 124.067 304.587 123.774 304.438 123.484Z" fill="#575B5E"/>
<path d="M305.604 130.857C305.604 130.857 299.257 131.23 296.405 135.056C298.695 139.055 302.102 145.738 302.102 145.738L310.495 140.215C310.495 140.215 306.633 133.422 305.604 130.857Z" fill="url(#paint1_linear)"/>
<path d="M409.848 219.736C403.531 217.542 397.254 215.28 391.035 212.951C384.843 210.612 378.746 208.117 372.897 205.536L368.606 203.568L364.592 201.567L362.873 200.602L362.003 200.125C361.874 200.05 361.672 199.95 361.604 199.9L361.354 199.734C361.016 199.517 360.661 199.315 360.282 199.122C359.859 198.774 359.401 198.314 358.95 197.92C357.047 196.123 354.83 193.621 352.725 191.201C350.6 188.722 348.465 186.196 346.359 183.593C342.131 178.426 337.942 173.124 333.838 167.756C325.6 157.042 317.477 146.126 309.603 135.121L298.098 142.296L307.947 160.296C311.239 166.291 314.532 172.292 317.908 178.267C321.292 184.24 324.654 190.236 328.189 196.22C329.935 199.215 331.763 202.208 333.634 205.224C335.566 208.266 337.419 211.213 339.962 214.554C340.652 215.419 341.289 216.261 342.041 217.136C342.944 218.057 343.87 218.968 344.817 219.865L345.528 220.535C345.774 220.771 345.942 220.885 346.153 221.064L347.365 222.056L349.811 224.028L354.452 227.408L359.01 230.494C365.058 234.479 371.097 238.105 377.122 241.711C383.149 245.272 389.197 248.738 395.268 252.129C401.348 255.571 407.352 258.852 413.626 262.245L428.843 225.939C422.604 224.037 416.157 221.874 409.848 219.736Z" fill="#FFDBDB"/>
<path d="M614.184 306.051C611.34 304.468 606.769 304.229 602.248 304.252C597.812 304.272 596.136 303.809 596.136 303.809L550.722 287.489L504.013 256.095L494 273.393L544.835 298.427L545.827 298.916L546.093 298.979L594.632 309.41L597.343 310.187C597.343 310.187 600.315 313.88 604.125 314.808C607.934 315.736 609.526 308.352 609.526 308.352C610.022 308.168 613.803 308.013 615.308 308.03C616.066 308.039 616.496 307.939 616.374 307.635C616.253 307.335 615.596 306.838 614.184 306.051Z" fill="#F6C9AD"/>
<path d="M512.966 259.307C497.669 247.459 483.878 261.572 492.975 275.646C518.665 298.168 554.668 304.245 558.181 303.764C562.081 296.622 562.673 288.331 562.673 288.331C555.118 287.701 528.263 271.155 512.966 259.307Z" fill="#92A2FF"/>
<path d="M452.983 230.17C443.965 224.826 432.628 217.453 426.135 211.126C423.499 208.558 419.278 208.7 416.724 211.352C412.327 215.914 408.454 223.616 408.033 235.672C407.656 246.421 404.617 252.537 401.662 256.235C399.36 259.121 399.958 263.351 402.898 265.581C417.81 276.884 453.894 298.932 499.326 277.148C499.9 276.873 500.431 276.516 500.908 276.092C503.77 273.542 513.281 263.941 512.224 249.738C512.158 248.851 511.963 248.022 511.651 247.244C506.09 233.408 463.44 236.367 452.983 230.17Z" fill="#6B7ACD"/>
<path d="M494.532 220.705C488.661 223.095 480.363 221.771 474.154 220.228C467.943 218.686 459.449 227.69 465.667 233.886C471.884 240.086 482.729 249.296 489.44 252.083C492.622 256.908 502.579 270.336 506.825 265.714C511.072 261.091 511.895 251.481 511.895 251.481C512.241 244.814 513.679 237.36 512.863 230.767C512.729 229.681 512.46 228.66 512.079 227.711C509.413 221.076 501.217 217.986 494.532 220.705Z" fill="#6B7ACD"/>
<path d="M489.913 236.334L465.221 207.075C464.791 206.556 464.321 206.073 463.816 205.634C463.506 205.363 463.426 205.312 463.311 205.223L462.963 204.957L461.573 203.892L458.791 201.759L453.223 197.497L442.09 188.972L417.739 172.917C417.739 172.917 416.342 168.623 414.535 168.057C413.822 167.141 412.429 162.587 412.081 161.494C411.731 160.4 410.944 165.108 411.106 166.653C411.267 168.196 406.166 169.964 400.587 166.437C398.474 165.088 395.492 164.821 398.31 168.992C401.129 173.164 406.28 174.609 410.642 174.894C412.129 175.488 414.296 176.779 414.296 176.779L434.972 197.166L444.966 206.998L449.965 211.915L452.465 214.373L453.713 215.603L454.026 215.91C454.131 216.011 454.277 216.151 454.178 216.077C454.102 216.032 454.029 215.978 453.96 215.92C453.935 215.905 453.867 215.822 453.883 215.862L454.106 216.239L454.547 216.996L455.435 218.509L457.208 221.532L460.755 227.581L467.848 239.676L473.888 248.522C477.012 253.093 483.24 254.29 487.837 251.2C491.895 248.47 493.289 243.359 491.569 239.08C491.179 238.109 490.628 237.182 489.913 236.334Z" fill="#F6C9AD"/>
<path d="M497.527 239.721C492.817 231.057 486.719 223.212 480.018 216.007C473.607 209.114 466.676 201.945 458.646 196.963C458.29 196.743 455.427 194.659 455.018 194.888C455.018 194.888 443.501 201.252 441.594 208.178C443.585 210.04 447.679 213.662 450.582 216.215C452.683 218.065 454.406 220.291 455.682 222.781C461.955 235.027 482.653 272.685 494.61 261.438C497.048 259.144 499.527 256.554 500.436 253.238C501.319 250.02 500.625 246.692 499.389 243.611C498.844 242.256 498.194 240.949 497.527 239.721Z" fill="#92A2FF"/>
<g opacity="0.5">
<g opacity="0.5">
<g opacity="0.5">
<g opacity="0.5">
<g opacity="0.5">
<path opacity="0.5" d="M509.616 248.323C509.616 248.323 511.412 235.025 509.566 232.704C507.719 230.385 504.205 239.387 503.673 244.518C503.144 249.648 503.628 258.282 506.448 258.955C507.955 256.294 509.616 248.323 509.616 248.323Z" fill="url(#paint2_linear)"/>
</g>
</g>
</g>
</g>
</g>
<path d="M520.055 251.001C517.84 251.147 515.57 250.287 513.542 249.501C511.554 248.731 509.078 248.179 507.402 246.802C507.232 246.662 503.817 243.391 503.726 244.105C503.711 244.244 503.687 244.38 503.673 244.518C503.144 249.648 503.628 258.282 506.448 258.954C511.623 257.609 520.12 261.998 520.12 261.998C521.935 261.523 523.193 255.369 522.032 252.479C521.653 251.534 521.015 250.938 520.055 251.001Z" fill="#E9B99B"/>
<path d="M536.793 237.605C528.311 234.444 516.658 247.457 515.745 250.882C514.831 254.307 516.324 271.475 523.792 272.314C531.258 273.157 549.592 257.46 547.119 247.429C546.897 246.531 546.634 245.716 546.336 244.976C543.305 237.432 536.793 237.605 536.793 237.605Z" fill="#F6C9AD"/>
<path d="M555.152 234.704C547.766 234.314 541.085 230.372 538.017 227.243C534.949 224.114 519.862 222.568 514.733 237.461C512.357 248.413 514.009 251.794 516.829 253.26C519.651 254.725 520.882 251.308 521.471 249.826C522.062 248.345 527.012 242.681 530.046 245.75C531.43 247.178 529.939 250.605 527.075 252.375C524.212 254.145 524.882 258.35 527.528 256.703C530.174 255.057 537.109 247.59 543.128 251.879C543.128 251.879 551.987 258.14 558.989 251.294C562.815 247.556 563.519 243.065 562.167 239.697C561.044 236.901 558.502 234.881 555.152 234.704Z" fill="#FFE2C5"/>
<path d="M501.828 262.027C501.434 261.956 501.057 262.216 500.983 262.611C500.107 267.407 495.639 271.368 490.81 271.625C487.797 271.786 485.493 270.161 483.054 268.44C481.092 267.056 479.064 265.626 476.588 265.115C475.159 264.82 473.718 264.886 472.325 264.949C471.518 264.986 470.685 265.024 469.885 264.989C463.426 264.688 463.224 257.165 463.319 254.867C463.334 254.464 463.022 254.128 462.621 254.112C462.221 254.097 461.883 254.409 461.866 254.808C461.763 257.376 462.094 259.587 462.81 261.37C464.057 264.473 466.476 266.284 469.819 266.438C470.685 266.478 471.551 266.437 472.391 266.399C473.754 266.338 475.044 266.279 476.295 266.535C478.473 266.986 480.292 268.271 482.217 269.626C484.751 271.414 487.373 273.262 490.888 273.074C496.448 272.778 501.402 268.392 502.411 262.872C502.438 262.733 502.422 262.594 502.372 262.47C502.282 262.247 502.084 262.074 501.828 262.027Z" fill="url(#paint3_linear)"/>
<path d="M506.82 264.989C506.42 264.989 506.097 265.317 506.099 265.717C506.125 270.92 504.862 283.142 492.546 284.298C491.866 284.361 491.2 284.406 490.545 284.452C486.862 284.699 483.381 284.934 480.564 288.34C479.097 290.118 477.52 291.059 475.877 291.14C473.492 291.258 471.697 289.504 471.678 289.487C471.394 289.205 470.935 289.205 470.653 289.49C470.442 289.7 470.388 290.012 470.492 290.272C470.528 290.36 470.58 290.441 470.65 290.514C470.741 290.603 472.897 292.733 475.931 292.592C478.004 292.494 479.941 291.376 481.685 289.266C484.102 286.341 487.133 286.136 490.643 285.9C491.308 285.854 491.988 285.809 492.682 285.745C502.194 284.851 507.615 277.55 507.55 265.71C507.55 265.616 507.532 265.526 507.498 265.442C507.391 265.175 507.126 264.988 506.82 264.989Z" fill="url(#paint4_linear)"/>
<defs>
<linearGradient id="paint0_linear" x1="329.608" y1="126.756" x2="330.44" y2="114.842" gradientUnits="userSpaceOnUse">
<stop stop-color="#E5AB95"/>
<stop offset="0.961056" stop-color="#F6C9AD"/>
<stop offset="0.978105" stop-color="#F6C9AD"/>
<stop offset="1" stop-color="#F6C9AD"/>
</linearGradient>
<linearGradient id="paint1_linear" x1="301.115" y1="131.826" x2="304.328" y2="139.82" gradientUnits="userSpaceOnUse">
<stop stop-color="#F6C9AD"/>
<stop offset="0.021895" stop-color="#F6C9AD"/>
<stop offset="0.040575" stop-color="#F6C9AD"/>
<stop offset="1" stop-color="#E5AB95"/>
</linearGradient>
<linearGradient id="paint2_linear" x1="503.055" y1="234.615" x2="511.948" y2="256.745" gradientUnits="userSpaceOnUse">
<stop stop-color="#008366"/>
<stop offset="0.0229968" stop-color="#008366"/>
<stop offset="0.970693" stop-color="#00B481"/>
<stop offset="1" stop-color="#00B481"/>
</linearGradient>
<linearGradient id="paint3_linear" x1="466.026" y1="268.688" x2="498.763" y2="254.273" gradientUnits="userSpaceOnUse">
<stop stop-color="#D0D2D3"/>
<stop offset="0.317531" stop-color="white"/>
<stop offset="1" stop-color="white"/>
</linearGradient>
<linearGradient id="paint4_linear" x1="469.918" y1="288.971" x2="510.074" y2="271.289" gradientUnits="userSpaceOnUse">
<stop stop-color="#D0D2D3"/>
<stop offset="0.317531" stop-color="white"/>
<stop offset="1" stop-color="white"/>
</linearGradient>
</defs>
</svg>
