<svg width="466" height="423" viewBox="0 0 466 423" fill="none" xmlns="http://www.w3.org/2000/svg">
<path d="M131.417 416.626C154.683 421.937 181.201 423.356 206.205 420.882V379.731H131.417V416.626V416.626Z" fill="#F9C8A6"/>
<path d="M40.297 303.106H82.084V239.913H40.297C22.847 239.913 8.70099 254.059 8.70099 271.509C8.70099 288.96 22.847 303.106 40.297 303.106Z" fill="#FFE3D0"/>
<path d="M297.325 303.106H255.538V239.913H297.325C314.775 239.913 328.921 254.059 328.921 271.509C328.922 288.96 314.775 303.106 297.325 303.106Z" fill="#FFE3D0"/>
<path d="M56.356 290.586C48.564 256.855 37.049 211.896 31.858 189.966C-1.51702 160.988 -8.42203 99.7394 11.758 56.2044C14.667 49.9284 22.684 48.0554 28.052 52.4174C41.315 63.1944 67.479 73.4144 116.389 55.4744C211.638 20.5384 291.847 67.5744 296.451 91.6574C301.601 91.6574 326.614 95.2014 326.614 119.798C326.614 140.72 292.23 252.151 277.405 290.587H56.356V290.586Z" fill="#E27621"/>
<path d="M296.451 91.6564C292.833 72.7304 242.52 39.6284 174.91 43.2774C225.936 46.3804 262.347 74.7044 265.246 91.6574C269.853 91.6574 292.229 95.2014 292.229 119.798C292.229 140.72 261.47 252.151 248.207 290.587H277.404C292.229 252.151 326.613 140.72 326.613 119.798C326.614 95.2004 301.601 91.6564 296.451 91.6564Z" fill="#C25F11"/>
<path d="M50.978 333.191C50.978 416.407 286.645 416.407 286.645 333.191C286.645 285.508 280.268 204.774 266.373 173.391C263.074 165.94 255.901 158.295 250.03 154.786C245.064 151.818 239.856 150.14 234.559 150.14C228.633 150.14 222.851 152.038 217.046 154.786C202.005 161.893 186.832 174.649 168.811 174.649C150.79 174.649 135.617 161.892 120.576 154.786C114.772 152.038 108.989 150.14 103.063 150.14C97.766 150.14 92.558 151.817 87.592 154.786C81.71 158.295 74.528 165.953 71.216 173.424C57.378 204.635 50.978 284.604 50.978 333.191Z" fill="#FFE3D0"/>
<path d="M266.373 173.391C263.074 165.94 255.901 158.295 250.03 154.786C245.064 151.818 239.856 150.14 234.559 150.14C230.25 150.14 226.016 151.152 221.795 152.756C222.943 153.343 224.079 154.019 225.201 154.785C230.339 158.294 236.618 165.939 239.505 173.39C251.666 204.773 257.248 285.507 257.248 333.19C257.248 372.952 210.155 393.713 160.973 395.477C222.383 397.405 286.645 376.644 286.645 333.19C286.645 285.509 280.267 204.775 266.373 173.391Z" fill="#F9C8A6"/>
<path d="M225.094 274.59C220.826 274.59 217.368 271.131 217.368 266.864V254.843C217.368 250.575 220.827 247.117 225.094 247.117C229.361 247.117 232.82 250.576 232.82 254.843V266.864C232.82 271.131 229.361 274.59 225.094 274.59Z" fill="#3F3E47"/>
<path d="M112.529 274.59C108.262 274.59 104.803 271.131 104.803 266.864V254.843C104.803 250.575 108.262 247.117 112.529 247.117C116.796 247.117 120.255 250.576 120.255 254.843V266.864C120.256 271.131 116.796 274.59 112.529 274.59Z" fill="#3F3E47"/>
<path d="M224.451 239.589C215.875 239.589 207.299 237.164 200.616 232.314C197.162 229.807 196.395 224.976 198.901 221.522C201.407 218.067 206.239 217.3 209.692 219.807C217.692 225.614 231.209 225.614 239.209 219.807C242.661 217.302 247.493 218.068 250.001 221.522C252.507 224.976 251.739 229.807 248.286 232.314C241.603 237.164 233.027 239.589 224.451 239.589Z" fill="#3F3E47"/>
<path d="M132.462 239.589C130.889 239.589 129.301 239.109 127.93 238.115C119.93 232.308 106.412 232.309 98.412 238.115C94.957 240.619 90.126 239.852 87.621 236.4C85.114 232.946 85.883 228.115 89.336 225.608C102.702 215.91 123.64 215.91 137.007 225.608C140.46 228.115 141.228 232.946 138.722 236.4C137.21 238.482 134.853 239.588 132.462 239.589Z" fill="#3F3E47"/>
<path d="M360.57 0.618539C299.332 -5.54339 243.25 38.0099 234.127 98.8754C224.745 161.477 266.899 219.093 327.736 230.356C323.065 241.85 315.925 252.23 306.83 260.703C302.531 264.707 305.62 271.905 311.479 271.494C315.258 271.23 319.061 270.71 322.873 269.919C347.972 264.716 368.152 248.927 379.766 228.192C424.07 215.998 458.749 178.012 464.363 129.563C471.817 65.2464 425.221 7.12394 360.57 0.618539Z" fill="#7CCCF2"/>
<path d="M360.57 0.618469C352.918 -0.151175 345.347 -0.144814 337.938 0.573945C338.099 0.593027 338.259 0.597797 338.42 0.618469C391.863 7.12387 430.378 65.2463 424.218 129.563C419.576 178.012 390.91 215.998 354.288 228.192C344.687 248.927 328.008 264.716 307.259 269.919C307.157 269.945 307.054 269.965 306.952 269.989C308.1 271.01 309.655 271.622 311.479 271.494C315.258 271.23 319.061 270.71 322.873 269.919C347.972 264.716 368.152 248.927 379.766 228.192C424.07 215.998 458.749 178.012 464.363 129.563C471.817 65.2463 425.221 7.12387 360.57 0.618469Z" fill="#4FACDB"/>
<path d="M342.847 191.494C336.06 191.494 330.561 185.993 330.561 179.208V177.57C330.561 170.783 336.062 165.285 342.847 165.285C349.632 165.285 355.133 170.785 355.133 177.57V179.208C355.133 185.993 349.632 191.494 342.847 191.494Z" fill="#EDFEFF"/>
<path d="M342.847 157.06C336.06 157.06 330.561 151.56 330.561 144.774V123.11C330.561 112.7 339.031 104.231 349.44 104.231H354.02C359.526 104.231 364.637 102.021 368.411 98.0056C372.179 93.9952 374.065 88.7397 373.722 83.2075C373.118 73.4804 365.027 65.3912 355.303 64.7853C346.431 64.2192 338.21 69.7037 335.338 78.0807C333.138 84.5003 326.141 87.9176 319.731 85.7184C313.313 83.5176 309.892 76.5287 312.093 70.1108C318.544 51.299 336.952 38.9958 356.826 40.26C379.06 41.6403 396.867 59.4471 398.247 81.6825C399.017 94.0541 394.779 105.826 386.318 114.831C378.227 123.437 366.916 128.489 355.133 128.788V144.773C355.133 151.56 349.632 157.06 342.847 157.06Z" fill="#EDFEFF"/>
<path d="M218.693 337.63C216.716 337.63 214.738 336.875 213.23 335.367C204.74 326.877 190.925 326.875 182.434 335.367C179.416 338.383 174.524 338.384 171.507 335.366C168.489 332.349 168.489 327.457 171.507 324.439C186.023 309.924 209.642 309.925 224.156 324.439C227.174 327.456 227.174 332.348 224.157 335.366C222.648 336.875 220.67 337.63 218.693 337.63Z" fill="#3F3E47"/>
</svg>
