<svg width="45" height="45" viewBox="0 0 45 45" fill="none" xmlns="http://www.w3.org/2000/svg">
<path d="M2.88336 0.466339H41.6091C43.136 0.466339 44.3752 1.70944 44.3752 3.24428V42.1348C44.3752 43.6682 43.136 44.9128 41.6091 44.9128H2.88336C1.35645 44.9126 0.117188 43.6682 0.117188 42.1348V3.24428C0.117188 1.70944 1.35645 0.466339 2.88336 0.466339Z" fill="#E4E7E7"/>
<path d="M41.6092 0.466339H2.88337C1.35645 0.466339 0.117188 1.70945 0.117188 3.24429V10.189H44.3752V3.24429C44.3752 1.70945 43.1361 0.466339 41.6092 0.466339Z" fill="#F7554A"/>
<path d="M30.0992 24.0035C29.6124 24.0035 29.1062 24.0882 28.7092 24.2535L28.6649 24.2117C29.3924 23.2367 30.8267 21.9074 31.7091 20.8908C31.9732 20.5783 32.1725 20.3297 32.1725 20.0394C32.1725 19.2921 31.2223 18.5241 30.6069 18.5241C30.4284 18.5241 30.1865 18.5241 29.9443 18.67C29.6802 18.8366 29.4145 19.0018 29.2375 19.1672C27.0093 21.1187 23.6334 25.5217 23.6334 28.6551C23.6334 31.4164 25.7731 33.8039 29.1711 33.8039C32.4352 33.8039 34.7076 31.3552 34.7076 28.6551C34.7091 26.2035 32.7464 24.0035 30.0992 24.0035ZM29.1726 30.8122C27.8489 30.8122 27.0759 29.8164 27.0759 28.6523C27.0759 27.4285 27.914 26.4953 29.1726 26.4953C30.5626 26.4953 31.2693 27.5536 31.2693 28.6523C31.2678 29.8579 30.4284 30.8122 29.1726 30.8122ZM19.083 31.008H14.9021C16.8439 28.7496 20.3859 25.8342 20.3859 22.9021C20.3859 20.22 18.1246 18.5103 15.3143 18.5103C12.504 18.5103 9.94514 20.6424 9.94514 23.3021C9.94514 24.1243 10.5149 24.8425 11.6118 24.8425C13.8054 24.8425 12.5495 21.4228 15.1774 21.4228C16.1137 21.4228 16.8219 22.1826 16.8219 23.0478C16.8219 23.8076 16.4333 24.4617 16.0225 25.0118C14.2854 27.3341 12.2287 29.2329 10.3325 31.3233C10.1043 31.5774 9.80701 31.9566 9.80701 32.3997C9.80701 33.372 10.5843 33.7928 11.5898 33.7928H19.2216C20.0888 33.7928 20.8661 33.3719 20.8661 32.3997C20.8658 31.4288 20.0872 31.008 19.083 31.008Z" fill="#5A7B8C"/>
<path d="M0.117188 8.80002H44.3754V11.578H0.117188V8.80002Z" fill="#E33B2F"/>
<path d="M22.2461 3.24429C23.0109 3.24429 23.6292 3.86647 23.6292 4.63324C23.6292 5.40001 23.0109 6.02219 22.2461 6.02219C21.4813 6.02219 20.863 5.40001 20.863 4.63324C20.863 3.86647 21.4812 3.24429 22.2461 3.24429Z" fill="#E33B2F"/>
<path d="M41.6092 42.1349H2.88336C1.35645 42.1349 0.117188 40.8903 0.117188 39.3569V42.1349C0.117188 43.6683 1.35645 44.9129 2.88336 44.9129H41.6092C43.1361 44.9129 44.3754 43.6683 44.3754 42.1349V39.3569C44.3752 40.8903 43.1361 42.1349 41.6092 42.1349Z" fill="#C2C5C5"/>
</svg>
