<?xml version="1.0" encoding="iso-8859-1"?>
<!-- Generator: Adobe Illustrator 19.0.0, SVG Export Plug-In . SVG Version: 6.00 Build 0)  -->
<svg version="1.1" id="Capa_1" xmlns="http://www.w3.org/2000/svg" xmlns:xlink="http://www.w3.org/1999/xlink" x="0px" y="0px"
	 viewBox="0 0 512 512" style="enable-background:new 0 0 512 512;" xml:space="preserve">
<path style="fill:#F2F2F2;" d="M0,154.501v314.773c0,23.573,19.083,42.667,42.667,42.667h426.667
	c23.563,0,42.667-19.093,42.667-42.667V154.501L0,154.501L0,154.501z"/>
	<text id="day" x='85' y='450' font-size='350' font-family='Calibri' font-weight="bold" fill='#40596B'>31</text>
<path style="fill:#FF7058;" d="M469.333,30.416H42.667C19.104,30.416,0,49.52,0,73.083v81.483h512V73.083
	C512,49.52,492.896,30.416,469.333,30.416"/>
<g>
	<path style="fill:#FFFFFF;" d="M444.213,92.475c0,16.672-13.504,30.187-30.187,30.187c-16.672,0-30.165-13.515-30.165-30.187
		s13.504-30.187,30.165-30.187C430.709,62.288,444.213,75.803,444.213,92.475"/>
	<path style="fill:#FFFFFF;" d="M128.171,92.475c0,16.672-13.525,30.187-30.187,30.187s-30.165-13.515-30.165-30.187
		s13.504-30.187,30.165-30.187S128.171,75.803,128.171,92.475"/>
</g>
<g>
	<path style="fill:#40596B;" d="M414.336,0.059c-11.083,0-20.085,8.981-20.085,20.085l-0.309,65.109
		c0,11.093,9.003,20.085,20.107,20.085c11.083,0,20.085-8.992,20.085-20.085l0.309-65.109C434.443,9.04,425.44,0.059,414.336,0.059"
		/>
	<path style="fill:#40596B;" d="M98.293,0.059L98.293,0.059c-11.083,0-20.085,8.981-20.085,20.085l-0.309,65.099
		c0,11.093,9.003,20.085,20.085,20.085c11.104,0,20.085-8.992,20.085-20.085l0.309-65.109C118.379,9.04,109.397,0.059,98.293,0.059"
		/>
</g>
</svg>
