<svg width="512" height="454" viewBox="0 0 512 454" fill="none" xmlns="http://www.w3.org/2000/svg">
<path d="M50.378 127.173H290.954C318.777 127.173 341.332 149.728 341.332 177.551V329.136C341.332 356.959 318.777 379.514 290.954 379.514H143.609C134.334 379.514 125.358 382.788 118.261 388.759L44.282 451.002C37.823 456.437 28.262 450.094 30.758 442.03L50.11 379.513C22.411 379.369 0 356.87 0 329.136V177.551C0 149.728 22.555 127.173 50.378 127.173V127.173Z" fill="#53E3EC"/>
<path d="M143.606 379.515H106.822C99.222 379.515 91.867 382.198 86.051 387.091L34.281 430.648L30.758 442.031C28.262 450.095 37.822 456.438 44.282 451.003L118.261 388.76C125.357 382.789 134.333 379.515 143.606 379.515Z" fill="#46C9D1"/>
<path d="M290.955 127.173H256.762C284.585 127.173 307.14 149.728 307.14 177.551V329.136C307.14 356.959 284.585 379.515 256.762 379.515H290.955C318.778 379.515 341.333 356.96 341.333 329.136V177.551C341.333 149.728 318.778 127.173 290.955 127.173V127.173Z" fill="#46C9D1"/>
<path d="M129.001 197.956H50.733C46.591 197.956 43.233 194.598 43.233 190.456C43.233 186.314 46.591 182.956 50.733 182.956H129.001C133.143 182.956 136.501 186.314 136.501 190.456C136.501 194.598 133.143 197.956 129.001 197.956Z" fill="white"/>
<path d="M129.001 260.844H50.733C46.591 260.844 43.233 257.486 43.233 253.344C43.233 249.202 46.591 245.844 50.733 245.844H129.001C133.143 245.844 136.501 249.202 136.501 253.344C136.501 257.486 133.143 260.844 129.001 260.844Z" fill="white"/>
<path d="M290.601 323.732H50.732C46.59 323.732 43.232 320.374 43.232 316.232C43.232 312.09 46.59 308.732 50.732 308.732H290.6C294.742 308.732 298.1 312.09 298.1 316.232C298.1 320.374 294.743 323.732 290.601 323.732Z" fill="white"/>
<path d="M461.621 0.969971H221.045C193.222 0.969971 170.667 23.525 170.667 51.348V202.933C170.667 230.756 193.222 253.311 221.045 253.311H373.192C379.366 253.311 385.341 255.49 390.065 259.465L467.718 324.799C474.177 330.234 483.738 323.891 481.242 315.827L463.927 259.89C462.92 256.635 465.107 253.307 468.483 252.847C493.06 249.501 512 228.43 512 202.934V51.349C512 23.525 489.445 0.969971 461.621 0.969971Z" fill="#9790E3"/>
<path d="M461.622 0.969971H460.87C471.147 8.60997 477.807 20.843 477.807 34.632V194.674C477.807 217.649 462.428 237.031 441.403 243.088C434.17 245.172 430.112 252.854 432.338 260.045L446.982 307.352L467.718 324.799C474.177 330.234 483.738 323.891 481.242 315.827L463.927 259.89C462.92 256.635 465.107 253.307 468.483 252.847C493.06 249.501 512 228.43 512 202.934V51.349C512 23.526 489.445 0.969971 461.622 0.969971V0.969971Z" fill="#7E78BA"/>
<path d="M461.268 71.753H221.399C217.257 71.753 213.899 68.395 213.899 64.253C213.899 60.111 217.257 56.753 221.399 56.753H461.267C465.409 56.753 468.767 60.111 468.767 64.253C468.767 68.395 465.41 71.753 461.268 71.753V71.753Z" fill="white"/>
<path d="M461.268 134.642H221.399C217.257 134.642 213.899 131.284 213.899 127.142C213.899 123 217.257 119.642 221.399 119.642H461.267C465.409 119.642 468.767 123 468.767 127.142C468.767 131.284 465.41 134.642 461.268 134.642V134.642Z" fill="white"/>
<path d="M341.333 197.529H221.399C217.257 197.529 213.899 194.171 213.899 190.029C213.899 185.887 217.257 182.529 221.399 182.529H341.333C345.475 182.529 348.833 185.887 348.833 190.029C348.833 194.171 345.476 197.529 341.333 197.529Z" fill="white"/>
</svg>
