<svg width="44" height="40" viewBox="0 0 44 40" fill="none" xmlns="http://www.w3.org/2000/svg">
<path d="M20.9117 25.3863C21.1865 25.6342 21.5295 25.7584 21.8729 25.7584C22.2162 25.7584 22.5594 25.6342 22.834 25.3863C23.182 25.0719 31.354 17.6013 31.354 9.85353C31.354 4.4897 27.1009 0.125854 21.873 0.125854C16.6449 0.125854 12.3917 4.4897 12.3917 9.85353C12.3914 17.6013 20.5637 25.0719 20.9117 25.3863ZM21.8729 7.31184C23.2301 7.31184 24.3308 8.44949 24.3308 9.85353C24.3308 11.2574 23.2301 12.3952 21.8729 12.3952C20.5151 12.3952 19.4147 11.2573 19.4147 9.85353C19.4147 8.44949 20.5151 7.31184 21.8729 7.31184Z" fill="#F7554A"/>
<path d="M40.091 25.382L38.9927 21.4346C38.8144 20.7939 38.2437 20.3523 37.5944 20.3523H29.7561C29.4727 20.7843 29.1737 21.218 28.8575 21.6541C26.6605 24.6816 24.427 26.7294 24.1794 26.9533C23.5418 27.5292 22.7227 27.8463 21.8728 27.8463C21.0234 27.8463 20.2044 27.5295 19.5659 26.953C19.3186 26.7294 17.0848 24.6813 14.8879 21.6541C14.5717 21.218 14.2727 20.7842 13.9894 20.3523H6.15089C5.50157 20.3523 4.9309 20.7939 4.7526 21.4346L3.4436 26.139L32.7035 31.6358L40.091 25.382Z" fill="#7EEF59"/>
<path d="M43.4849 37.5812L40.6789 27.4953L26.7571 39.4821H42.0867C42.543 39.4821 42.9727 39.2626 43.2475 38.889C43.5222 38.5154 43.6099 38.0311 43.4849 37.5812Z" fill="#60B7F5"/>
<path d="M7.32416 28.9909L2.88249 28.1564L0.260383 37.5813C0.135334 38.0312 0.223029 38.5155 0.497934 38.889C0.772693 39.2625 1.20241 39.4821 1.65869 39.4821H7.32416V28.9909Z" fill="#60B7F5"/>
<path d="M9.35986 29.3735V39.482H23.5905L30.6796 33.3785L9.35986 29.3735Z" fill="#FFD15D"/>
</svg>
