<svg width="44" height="43" viewBox="0 0 44 43" fill="none" xmlns="http://www.w3.org/2000/svg">
<path d="M43.7747 15.4418V41.0319C43.7747 41.5764 43.3842 42.0182 42.9029 42.0182H6.42717C4.77402 42.0182 3.27594 41.2596 2.1928 40.0336C1.10899 38.8083 0.438477 37.114 0.438477 35.2435V7.68094C0.438477 11.4226 3.11988 14.4556 6.42717 14.4556H42.9029C43.3842 14.4556 43.7747 14.8976 43.7747 15.4418Z" fill="#EAD2C1"/>
<path d="M42.9029 14.4556H40.81C41.2914 14.4556 41.6822 14.8976 41.6822 15.4418V39.7494C41.6822 40.2943 41.2917 40.736 40.81 40.736H6.42717C3.74576 40.736 1.57187 38.2768 1.57187 35.2435V34.509C1.57187 31.748 3.39364 29.4062 5.80988 29.0599C6.80805 28.9181 7.56056 27.9502 7.56056 26.8109V14.4556H6.42717C3.11988 14.4556 0.438477 11.4226 0.438477 7.68094V35.2435C0.438477 37.114 1.10899 38.8083 2.1928 40.0336C3.27594 41.2596 4.77369 42.0182 6.42717 42.0182H42.9029C43.3842 42.0182 43.7747 41.5764 43.7747 41.0319V15.4418C43.7747 14.8973 43.3842 14.4556 42.9029 14.4556Z" fill="#D6BDAC"/>
<path d="M0.438477 6.94592C0.438477 3.59395 2.59054 0.810501 5.41675 0.267799C5.94575 0.166065 6.42682 0.635086 6.42682 1.24212V26.8108C6.42682 27.306 6.10214 27.7261 5.6677 27.7882C2.71882 28.2104 0.438477 31.0582 0.438477 34.5085V6.94592Z" fill="#FFF0D0"/>
<path d="M36.3857 34.6018L38.027 32.7451C38.4297 32.2892 38.4297 31.5505 38.027 31.095C37.6242 30.639 36.9709 30.639 36.5682 31.095L34.927 32.9516L33.2854 31.095C32.8827 30.639 32.2294 30.639 31.8267 31.095C31.424 31.5505 31.424 32.2892 31.8267 32.7451L33.4679 34.6018L31.8267 36.4584C31.424 36.9143 31.424 37.653 31.8267 38.109C32.2294 38.5645 32.8827 38.5645 33.2854 38.109L34.927 36.2519L36.5682 38.109C36.9709 38.5645 37.6242 38.5645 38.027 38.109C38.4297 37.653 38.4297 36.9143 38.027 36.4584L36.3857 34.6018Z" fill="#FF5656"/>
<path d="M35.0695 20.2566H20.7444C20.3833 20.2566 20.0904 20.5876 20.0904 20.9964C20.0904 21.4048 20.3833 21.7362 20.7444 21.7362H35.0695C36.0072 21.7362 36.7699 22.599 36.7699 23.6594C36.7699 24.7201 36.0072 25.583 35.0695 25.583H16.959C14.5808 25.583 12.646 27.7717 12.646 30.4624C12.646 33.1528 14.5808 35.3415 16.959 35.3415H27.2812C27.0881 35.6314 27.1077 36.0447 27.3411 36.3087C27.4687 36.4531 27.636 36.5253 27.8033 36.5253C27.9706 36.5253 28.1382 36.4531 28.2658 36.3087L29.3119 35.125C29.5675 34.8362 29.5675 34.3676 29.3119 34.0788L28.2658 32.8951C28.0103 32.6063 27.5963 32.6063 27.3407 32.8951C27.1077 33.1587 27.0881 33.572 27.2809 33.8619H16.959C15.3019 33.8619 13.9536 32.337 13.9536 30.4624C13.9536 28.5879 15.3019 27.0626 16.959 27.0626H35.0695C36.7283 27.0626 38.0779 25.5359 38.0779 23.6594C38.0779 21.7829 36.7283 20.2566 35.0695 20.2566Z" fill="#C87D5B"/>
<path d="M15.0558 30.3776C15.0558 31.4749 14.2696 32.3643 13.2999 32.3643C12.3299 32.3643 11.5437 31.4749 11.5437 30.3776C11.5437 29.2806 12.3299 28.3908 13.2999 28.3908C14.2696 28.3908 15.0558 29.2806 15.0558 30.3776Z" fill="#3AD391"/>
<path d="M22.5917 20.9964C22.5917 22.1507 21.7648 23.0861 20.7444 23.0861C19.7241 23.0861 18.8972 22.1507 18.8972 20.9964C18.8972 19.8422 19.7241 18.9068 20.7444 18.9068C21.7648 18.9068 22.5917 19.8422 22.5917 20.9964Z" fill="#3AD391"/>
<path d="M26.3579 6.39689C26.3579 9.32734 22.4386 14.4062 21.1499 15.9969C20.9316 16.2658 20.557 16.2658 20.3392 15.9969C19.0504 14.4062 15.1311 9.32734 15.1311 6.39689C15.1311 2.88971 17.6442 0.0467834 20.7445 0.0467834C23.8445 0.0467834 26.3579 2.88971 26.3579 6.39689Z" fill="#F7554A"/>
<path d="M22.5465 6.04486C22.5465 7.04767 21.7704 7.86053 20.813 7.86053C19.8557 7.86053 19.0796 7.04767 19.0796 6.04486C19.0796 5.04205 19.8557 4.22919 20.813 4.22919C21.7704 4.22919 22.5465 5.04205 22.5465 6.04486Z" fill="white"/>
<path d="M11.2509 19.1222H9.98653C9.62514 19.1222 9.33252 18.7912 9.33252 18.3824C9.33252 17.974 9.62514 17.6426 9.98653 17.6426H11.2509C11.612 17.6426 11.9049 17.974 11.9049 18.3824C11.9049 18.7908 11.6123 19.1222 11.2509 19.1222Z" fill="#D6BDAC"/>
<path d="M13.9974 21.5387H9.98651C9.62546 21.5387 9.33252 21.2077 9.33252 20.7989C9.33252 20.3904 9.62546 20.0594 9.98651 20.0594H13.9974C14.3588 20.0594 14.6514 20.3904 14.6514 20.7989C14.6517 21.2077 14.3588 21.5387 13.9974 21.5387Z" fill="#D6BDAC"/>
<path d="M7.27674 31.9248L5.69236 34.8351C5.58887 35.0255 5.58887 35.2652 5.69236 35.4556L7.27674 38.3658C7.48107 38.741 7.96345 38.741 8.16778 38.3658L9.75216 35.4556C9.85564 35.2652 9.85564 35.0255 9.75216 34.8351L8.16778 31.9248C7.96345 31.5497 7.48107 31.5497 7.27674 31.9248Z" fill="#39AAFF"/>
</svg>
