<?xml version="1.0" encoding="iso-8859-1"?>
<!-- Generator: Adobe Illustrator 19.0.0, SVG Export Plug-In . SVG Version: 6.00 Build 0)  -->
<svg version="1.1" id="Capa_1" xmlns="http://www.w3.org/2000/svg" xmlns:xlink="http://www.w3.org/1999/xlink" x="0px" y="0px"
	 viewBox="0 0 512.001 512.001" style="enable-background:new 0 0 512.001 512.001;" xml:space="preserve">
<g>
	<path style="fill:#FF4A4A;" d="M273.889,133.495h189.803c1.742,0,3.428-0.608,4.772-1.72l40.821-33.812
		c1.719-1.425,2.716-3.545,2.716-5.78c0-2.236-0.996-4.356-2.716-5.78l-40.821-33.812c-1.342-1.112-3.029-1.72-4.772-1.72H273.889
		c-4.136,0-7.487,3.358-7.487,7.5v67.625C266.401,130.137,269.754,133.495,273.889,133.495z"/>
	<path style="fill:#FF4A4A;" d="M509.284,276.517l-40.821-33.812c-1.342-1.112-3.029-1.72-4.772-1.72H273.889
		c-4.136,0-7.487,3.358-7.487,7.5v67.625c0,4.143,3.352,7.5,7.487,7.5h189.803c1.742,0,3.428-0.608,4.772-1.72l40.821-33.812
		c1.719-1.425,2.716-3.545,2.716-5.78C512,280.062,511.004,277.942,509.284,276.517z"/>
</g>
<g>
	<path style="fill:#E7343F;" d="M300.843,50.869h-26.954c-4.136,0-7.487,3.358-7.487,7.5v67.625c0,4.143,3.352,7.5,7.487,7.5h26.954
		V50.869z"/>
	<path style="fill:#E7343F;" d="M273.889,323.61h26.954v-82.626h-26.954c-4.136,0-7.487,3.358-7.487,7.5v67.625
		C266.401,320.252,269.754,323.61,273.889,323.61z"/>
</g>
<path style="fill:#FF4A4A;" d="M238.111,145.927H48.308c-1.742,0-3.429,0.608-4.772,1.72l-40.82,33.812
	C0.996,182.884,0,185.004,0,187.24s0.996,4.356,2.716,5.78l40.821,33.812c1.342,1.112,3.029,1.72,4.772,1.72h189.803
	c4.136,0,7.487-3.359,7.487-7.5v-67.625C245.599,149.284,242.246,145.927,238.111,145.927z"/>
<path style="fill:#E7343F;" d="M238.111,145.927h-26.954v82.626h26.954c4.136,0,7.487-3.359,7.487-7.5v-67.625
	C245.599,149.284,242.246,145.927,238.111,145.927z"/>
<path style="fill:#FFDB56;" d="M256,0.098c-13.992,0-25.376,11.404-25.376,25.421v440.195c0,4.143,3.351,7.5,7.487,7.5h35.777
	c4.136,0,7.487-3.358,7.487-7.5V25.518C281.376,11.501,269.992,0.098,256,0.098z"/>
<path style="fill:#FFBB24;" d="M256.09,473.213h17.799c4.136,0,7.487-3.358,7.487-7.5V25.518c0-13.986-11.336-25.369-25.286-25.418
	L256.09,473.213L256.09,473.213z"/>
<path style="fill:#F77935;" d="M352.384,502.724c-6.008-26.208-28.749-44.512-55.303-44.512h-82.16
	c-26.554,0-49.296,18.304-55.303,44.512c-0.511,2.226,0.02,4.565,1.44,6.352c1.421,1.786,3.578,2.827,5.858,2.827h178.172
	c2.28,0,4.436-1.041,5.858-2.827C352.364,507.289,352.894,504.95,352.384,502.724z"/>
<path style="fill:#EA5A21;" d="M352.384,502.724c-6.007-26.208-28.748-44.512-55.303-44.512h-53.952
	c26.554,0,49.296,18.304,55.303,44.512c0.51,2.226-0.02,4.565-1.44,6.352c-1.42,1.786-3.577,2.827-5.857,2.827h53.952
	c2.28,0,4.437-1.041,5.857-2.827C352.364,507.289,352.894,504.95,352.384,502.724z"/>
<g>
</g>
<g>
</g>
<g>
</g>
<g>
</g>
<g>
</g>
<g>
</g>
<g>
</g>
<g>
</g>
<g>
</g>
<g>
</g>
<g>
</g>
<g>
</g>
<g>
</g>
<g>
</g>
<g>
</g>
</svg>
