<svg width="754" height="622" viewBox="0 0 754 622" fill="none" xmlns="http://www.w3.org/2000/svg">
<path fill-rule="evenodd" clip-rule="evenodd" d="M388.541 92.144C492.116 112.32 618.718 99.2804 676.428 179.93C738.186 266.238 714.59 381.687 651.59 459.758C596.701 527.78 488.741 528.293 391.746 532.722C312.113 536.357 229.67 529.819 166.996 481.882C104.623 434.176 82.9696 362.582 76.9859 291.976C70.2328 212.292 61.9094 119.187 132.425 73.9582C202.743 28.8561 299.743 74.8459 388.541 92.144Z" fill="#F2F6F8"/>
<path d="M129.786 488.952C133.584 484.595 139.081 482.095 144.861 482.095H608.912C613.634 482.095 618.204 483.766 621.813 486.812L634.95 497.902C649.196 509.928 640.692 533.185 622.049 533.185H135.192C118.026 533.185 108.836 512.981 120.117 500.042L129.786 488.952Z" fill="#D1D8DB"/>
</svg>
