<svg width="369" height="329" viewBox="0 0 369 329" fill="none" xmlns="http://www.w3.org/2000/svg">
<path d="M357.946 300.251C355.173 299.852 352.161 300.063 349.366 300.063C340.348 300.063 331.331 300.061 322.314 300.061C304.281 300.061 286.246 300.064 268.213 300.077C268.363 299.727 268.696 292.527 267.29 293.33C268.685 292.532 269.583 290.967 269.352 289.194C269.078 287.111 267.193 285.612 265.091 285.612H162.106C160.418 285.612 158.798 286.431 157.909 287.864C157.173 289.05 157.251 290.052 157.534 290.966C146.945 290.966 136.372 290.335 125.786 290.148C117.23 289.996 106.12 288.694 98.0105 291.826C91.4103 294.374 91.9274 303.936 99.6351 303.936H186.509C189.527 303.936 191.832 306.446 191.811 309.462V309.525V318.208C191.811 323.434 196.047 327.67 201.274 327.67C227.44 327.67 253.604 327.67 279.771 327.67C295.094 327.67 310.417 327.67 325.741 327.67C331.702 327.67 337.664 327.67 343.626 327.67C349.456 327.67 358.475 329.327 363.262 326.007C372.001 319.946 368.571 301.786 357.946 300.251Z" fill="#FF9F3C"/>
<path d="M204.671 322.761C202.35 322.76 200.471 321.82 200.471 320.66C200.472 319.5 202.352 318.563 204.668 318.563C204.67 318.563 204.671 318.563 204.672 318.563L238.294 320.118L204.671 322.761Z" fill="#FFF9F9"/>
<path d="M165.181 292.705C162.862 292.702 160.981 291.762 160.983 290.6C160.983 289.443 162.863 288.505 165.18 288.505C165.183 288.505 165.184 288.505 165.185 288.505L185.545 289.447C185.574 290.016 185.617 290.567 185.678 291.093L165.181 292.705" fill="#FFF9F9"/>
<path d="M268.172 294.556C268.042 293.794 267.83 293.267 267.498 293.267C267.432 293.267 267.364 293.287 267.29 293.33C268.685 292.532 269.583 290.967 269.352 289.194C269.205 288.08 268.599 287.135 267.747 286.496L267.786 285.155L267.8 285.034C267.796 285.072 267.791 285.108 267.786 285.145L267.836 283.439H283.048C282.755 283.802 282.413 284.13 282.028 284.412L268.172 294.556" fill="#A5A7A9"/>
<path d="M283.513 282.769H267.855L268.026 276.887C268.128 276.063 268.251 275.276 268.336 274.552L278.772 274.515C278.779 274.515 278.787 274.515 278.793 274.515C281.816 274.515 284.269 276.966 284.269 279.991C284.269 280.982 284.001 281.938 283.513 282.769" fill="#D4D0CD"/>
<path d="M283.048 283.439H267.836L267.855 282.769H283.513C283.375 283.003 283.22 283.227 283.048 283.439Z" fill="#D4D0CD"/>
<path d="M190.454 271V258.003C190.454 256.097 190.852 254.282 191.571 252.639L201.618 252.646C199.523 253.522 198.051 255.591 198.051 258.003V270.356C194.452 270.348 192.268 270.342 192.241 270.339C192.171 270.33 192.102 270.326 192.031 270.326C191.508 270.326 190.975 270.562 190.454 271ZM244.82 252.199H227.601C229.851 251.597 231.892 250.437 233.575 248.918C234.912 247.705 236.048 246.245 236.884 244.602H244.82C247.946 244.602 250.557 242.044 250.622 238.919L252.817 133.719H252.326C254.434 132.458 256.003 130.238 256.316 127.71L257.571 117.523H263.984V128.244C263.984 130.592 262.498 132.579 260.42 133.356L258.216 239.075C258.068 246.312 252.058 252.199 244.82 252.199ZM224.127 245.063L200.409 245.049C201.509 244.757 202.664 244.602 203.856 244.602H226.402C225.666 244.903 224.901 245.063 224.156 245.063C224.148 245.063 224.141 245.063 224.134 245.063H224.127Z" fill="#D5D0CD"/>
<path d="M263.984 117.523H257.571L262.428 78.1016C263.404 79.3468 263.984 80.9161 263.984 82.6192V117.523Z" fill="black" fill-opacity="0.32"/>
<path d="M143.916 308.941L8.92529 308.091C9.71639 307.324 10.2541 306.287 10.3801 305.108L10.6464 302.602L17.3122 295.869C18.0621 296.614 19.0603 297.121 20.1923 297.248C20.3788 297.27 20.5628 297.28 20.7467 297.28C23.1933 297.28 25.3016 295.442 25.5833 292.954L25.6451 292.406H96.8155C91.5068 295.575 92.4278 303.936 99.6351 303.936H141.141L141.266 305.108C141.449 306.813 142.491 308.219 143.916 308.941" fill="#B5C8D0"/>
<path d="M141.141 303.936H99.6352C92.4278 303.936 91.5068 295.575 96.8155 292.406H126.428L126.49 292.954C126.772 295.442 128.881 297.28 131.327 297.28C131.509 297.28 131.695 297.27 131.881 297.248C133.016 297.121 134.015 296.611 134.766 295.864L140.945 302.089L141.141 303.936" fill="#FF9F3C"/>
<path d="M19.5835 0.965067L20.8017 87.6564C20.8017 89.4161 36.2132 93.1027 55.2278 93.1027C74.2399 93.1027 89.6527 89.4161 89.6527 87.6564L90.8722 0.965067H19.5835Z" fill="#2E3A5C"/>
<path d="M90.8144 5.5289H19.428C18.1686 5.5289 17.146 4.50755 17.146 3.24694C17.146 1.98633 18.1686 0.964983 19.428 0.964983H90.8144C92.0737 0.964983 93.0951 1.98633 93.0951 3.24694C93.0951 4.50755 92.0737 5.5289 90.8144 5.5289Z" fill="#2E3A5C"/>
<path d="M72.6334 88.652H21.989C21.2147 88.2841 20.8018 87.9445 20.8018 87.6564V74.3878C24.0575 75.4195 27.8715 76.1565 31.9852 76.1565C33.3114 76.1565 34.6672 76.0806 36.0461 75.9121C42.299 78.971 49.5951 80.5108 57.8778 80.5108C58.7937 80.5108 59.7237 80.4915 60.6627 80.4542C71.2197 80.0297 79.8741 76.0948 86.383 68.7588C87.5793 67.412 88.6585 65.9752 89.6529 64.4869V57.7426C88.0848 60.9019 86.1785 63.8836 83.849 66.509C77.9743 73.1298 70.1276 76.6826 60.5277 77.0673C59.626 77.1046 58.7345 77.1226 57.856 77.1226C51.9697 77.1226 46.6301 76.2955 41.8629 74.6528C42.7376 74.3775 43.6162 74.0598 44.4961 73.6958C67.2578 64.2862 79.9218 44.8021 86.5606 25.5547C87.7105 24.7829 88.4669 23.4695 88.4669 21.9799V19.4716C88.5248 19.267 88.5826 19.0638 88.6392 18.8593C88.9081 19.1153 89.2618 19.285 89.6529 19.3223V15.965C89.5641 15.974 89.4767 15.9894 89.3918 16.0113C89.8034 14.3764 90.1726 12.7582 90.5057 11.1593L89.6542 87.6293H74.303C73.575 87.6293 72.9434 88.0448 72.6334 88.652" fill="#212940"/>
<path d="M46.1632 0.529065V0.589519H28.2149C26.4964 0.589519 25.1033 1.98261 25.1033 3.70116V10.9908C25.1033 12.0044 25.7966 12.9448 26.7974 13.1081C28.0734 13.3152 29.1758 12.3363 29.1758 11.1002V9.59129C29.1758 5.6461 32.6168 2.56404 36.5337 3.02712C36.679 3.04513 36.8218 3.06313 36.9646 3.08371C42.2939 3.84008 46.1632 8.56481 46.1632 13.9468C46.1632 17.0881 46.1632 20.5097 46.1632 22.7042C46.1632 25.035 47.9075 27.1215 50.2344 27.2437C52.7158 27.3736 54.7675 25.3991 54.7675 22.9473V9.38547C54.7675 8.36798 55.3978 7.42511 56.3664 7.12154C56.6687 7.02635 56.989 6.97616 57.3247 6.97616C57.9923 6.97616 58.611 7.17941 59.1243 7.52672C59.7392 7.94349 60.0582 8.68185 60.0582 9.42535V29.7675C60.0582 31.0911 60.9509 32.2475 62.2308 32.582L62.2321 32.5833C63.9686 33.0373 65.1778 34.6041 65.1778 36.3985C65.1778 39.3365 65.1778 43.6547 65.1778 46.4036C65.1778 49.0316 67.0996 51.3702 69.716 51.6197C72.717 51.9066 75.2434 49.5539 75.2434 46.6108V6.77552C75.2434 5.54192 76.2416 4.54242 77.4739 4.53856C77.6475 4.53856 77.8186 4.55272 77.9858 4.57974C79.0934 4.75725 79.8626 5.7863 79.8626 6.90798C79.8626 10.0068 79.8626 17.8213 79.8626 21.7369C79.8626 24.0664 81.6081 26.1541 83.9338 26.2764C86.4152 26.4063 88.4669 24.433 88.4669 21.98V4.29932C88.4669 2.21289 86.7754 0.522627 84.6889 0.522627L46.1632 0.529065" fill="#FE9B35"/>
<path d="M67.7543 48.9839C66.8719 48.9839 66.158 48.2688 66.158 47.3863L67.1124 27.1857L69.3519 47.3863C69.3519 48.2688 68.6367 48.9839 67.7543 48.9839Z" fill="#FFF9F9"/>
<path d="M81.5437 23.3923C81.1025 23.3923 80.7449 23.036 80.7449 22.5948L81.2222 12.4932L82.3426 22.5948C82.3426 23.036 81.9837 23.3923 81.5437 23.3923Z" fill="#FFF9F9"/>
<path d="M61.4787 31.5723C60.9911 31.5723 60.595 31.1774 60.595 30.6886L61.1249 19.5091L62.3637 30.6886C62.3637 31.1774 61.9675 31.5723 61.4787 31.5723Z" fill="#FFF9F9"/>
<path d="M47.8495 24.5462C47.3607 24.5462 46.9658 24.1513 46.9658 23.6625L47.4945 12.483L48.7332 23.6625C48.7332 24.1513 48.3371 24.5462 47.8495 24.5462" fill="#FFF9F9"/>
<path d="M25.8135 11.5607C25.5704 11.5607 25.3723 11.3625 25.3723 11.1181L25.5948 6.41533H25.7351L26.256 11.1181C26.256 11.3625 26.0579 11.5607 25.8135 11.5607Z" fill="#FFF9F9"/>
<path d="M36.0461 75.9124C31.8385 73.8542 28.103 71.1066 24.8602 67.6785C23.3513 66.0847 22.0135 64.3855 20.8018 62.6258V56.0963C22.5357 59.4099 24.6801 62.5615 27.3312 65.3605C31.3433 69.5977 36.1992 72.7017 41.8629 74.653C39.8974 75.273 37.9512 75.6795 36.0461 75.9124" fill="#212940"/>
<path d="M57.8776 80.511C49.5949 80.511 42.2988 78.9712 36.0459 75.9123C37.951 75.6795 39.8972 75.273 41.8627 74.653C46.6299 76.2956 51.9695 77.1227 57.8557 77.1227C58.7343 77.1227 59.6257 77.1047 60.5274 77.0674C70.1274 76.6828 77.974 73.1299 83.8487 66.5092C86.1783 63.8838 88.0846 60.9021 89.6526 57.7428V64.4871C88.6583 65.9754 87.5791 67.4122 86.3828 68.759C79.8739 76.095 71.2194 80.0298 60.6625 80.4543C59.7235 80.4916 58.7935 80.511 57.8776 80.511" fill="#191E2C"/>
<path d="M88.6394 18.8594C88.5776 18.8003 88.5198 18.7372 88.467 18.6691V16.6186C88.6947 16.324 89.0189 16.1067 89.3919 16.0115C89.1552 16.9556 88.9044 17.9063 88.6394 18.8594" fill="#212940"/>
<path d="M89.6528 19.3223C89.2617 19.285 88.908 19.1152 88.6392 18.8593C88.9041 17.9061 89.155 16.9555 89.3917 16.0113C89.4766 15.9894 89.564 15.974 89.6528 15.965V19.3223Z" fill="#191E2C"/>
<path d="M20.8018 18.9906V16.2957C21.2108 16.6044 21.4797 17.0907 21.4797 17.6438C21.4797 18.1956 21.2108 18.6819 20.8018 18.9906Z" fill="#212940"/>
<path d="M18.566 12.7866H10.6126L10.4659 14.3199C10.4608 14.3636 10.2576 16.5054 10.2576 19.981C10.2666 27.6412 11.2185 41.7767 17.6437 54.231C20.8595 60.453 25.4775 66.2583 32.0455 70.4916C38.611 74.7275 47.0931 77.3516 57.8713 77.3478C58.7859 77.3478 59.7159 77.3285 60.6626 77.2899C69.64 76.9374 76.7315 74.0342 82.165 69.6349C90.3242 63.0296 94.7454 53.2431 97.1804 43.8156C99.6116 34.3752 100.055 25.2241 100.057 19.6852C100.057 16.3973 99.8985 14.3829 99.8959 14.3469L99.7724 12.7866H92.2911C91.3559 12.7866 90.597 13.5455 90.597 14.4807C90.597 15.4171 91.3559 16.1748 92.2911 16.1748H98.2069V14.4807L96.5179 14.6145L96.5231 14.6916C96.5501 15.0801 96.6684 16.9028 96.6684 19.6852C96.6762 26.8218 95.871 40.2807 90.9018 51.9015C88.4218 57.7157 84.923 63.0514 80.0349 66.9992C75.1404 70.9444 68.8579 73.5621 60.5276 73.9042C59.6246 73.9403 58.7396 73.9583 57.8713 73.9583C47.6333 73.9544 39.8677 71.4975 33.8811 67.6436C29.3931 64.7494 25.893 61.0512 23.1492 56.9246C19.0355 50.7412 16.6429 43.5866 15.2974 36.9298C13.9493 30.2743 13.6458 24.1256 13.647 19.981C13.647 18.3101 13.6959 16.9646 13.7435 16.0423C13.768 15.5805 13.7924 15.2255 13.8104 14.9875C13.8194 14.8691 13.8272 14.7804 13.8323 14.7225L13.8387 14.6428L12.1523 14.4807V16.1748H18.566C19.5024 16.1748 20.2601 15.4171 20.2601 14.4807C20.2601 13.5455 19.5024 12.7866 18.566 12.7866Z" fill="#535E7E"/>
<path d="M90.7773 6.41534H88.467V5.52904H90.803L90.7773 6.41534Z" fill="#28314E"/>
<path d="M90.803 5.5289H88.467V5.27421H90.8107L90.803 5.5289Z" fill="#28314E"/>
<path d="M79.8126 6.41534H75.2732C75.3246 6.09119 75.4468 5.79017 75.6231 5.52904H79.4422C79.6197 5.79274 79.747 6.09505 79.8126 6.41534Z" fill="#28314E"/>
<path d="M79.4419 5.5289H75.6228C75.6833 5.43886 75.7502 5.35396 75.8222 5.27421H79.2426C79.3146 5.35396 79.3815 5.43886 79.4419 5.5289Z" fill="#28314E"/>
<path d="M43.2417 6.41534H29.9873C30.1584 6.10276 30.3526 5.80689 30.57 5.52904H42.3284C42.65 5.8056 42.9549 6.10276 43.2417 6.41534Z" fill="#28314E"/>
<path d="M42.3287 5.5289H30.5703C30.6385 5.44272 30.708 5.35782 30.7787 5.27421H42.0226C42.1255 5.35782 42.2284 5.44143 42.3287 5.5289Z" fill="#28314E"/>
<path d="M25.1031 6.41534H19.6773L19.6516 5.52904H25.1031V6.41534" fill="#28314E"/>
<path d="M25.1032 5.5289H19.6517L19.6453 5.27421H25.1032V5.5289" fill="#28314E"/>
<path d="M88.4669 6.41534H79.8124C79.7468 6.09505 79.6195 5.79274 79.442 5.52904C79.3815 5.439 79.3146 5.3541 79.2426 5.27435H88.4669V5.52904V6.41534ZM75.273 6.41534H43.2419C42.955 6.10276 42.6502 5.8056 42.3286 5.52904C42.2283 5.44157 42.1254 5.35796 42.0225 5.27435H75.8222C75.7502 5.3541 75.6833 5.439 75.6228 5.52904C75.4466 5.79017 75.3244 6.09119 75.273 6.41534ZM29.9875 6.41534H25.7349L25.6358 5.52904L25.5947 6.41534H25.1033V5.52904V5.27435H30.7786C30.7079 5.35796 30.6384 5.44286 30.5702 5.52904C30.3528 5.80689 30.1586 6.10276 29.9875 6.41534" fill="#F97E00"/>
<path d="M25.7349 6.41534H25.5947L25.6359 5.52934L25.7349 6.41534Z" fill="#CF987C"/>
<path d="M27.8158 2.52679C27.4929 2.52679 27.2228 2.27339 27.2061 1.94794C27.1894 1.61092 27.4492 1.32536 27.7849 1.30864L27.8287 1.30735L44.7118 1.67265L27.8467 2.52551C27.8364 2.52679 27.8261 2.52679 27.8158 2.52679" fill="#FAB68F"/>
<path d="M25.1033 3.70102V5.5289H30.5792C31.9414 3.78463 34.1462 2.74528 36.5337 3.02698C36.679 3.04499 36.8218 3.06299 36.9646 3.08357C39.0124 3.373 40.8416 4.25414 42.3209 5.5289H75.6228C76.0242 4.93333 76.7021 4.541 77.4739 4.53843C77.6475 4.53843 77.8186 4.55259 77.9858 4.5796C78.5981 4.67736 79.0985 5.03881 79.4317 5.5289H88.4669V4.30044C88.4669 2.84431 87.6347 1.59657 86.4294 0.964983H26.7627C25.7799 1.48852 25.1033 2.50988 25.1033 3.70102" fill="#FE9B35"/>
<path d="M139.759 172.715H12.4621C10.0734 172.715 8.13745 170.778 8.13745 168.389V168.114C8.13745 165.725 10.0734 163.788 12.4621 163.788H139.759C142.149 163.788 144.086 165.725 144.086 168.114V168.389C144.086 170.778 142.149 172.715 139.759 172.715Z" fill="#3D231B"/>
<path d="M8.138 168.33C8.13672 168.303 8.13672 168.278 8.13672 168.252C8.13672 168.228 8.13672 168.204 8.138 168.181V168.33" fill="#C29C88"/>
<path d="M8.15416 168.665C8.14515 168.554 8.13874 168.442 8.13745 168.33V168.18C8.14646 167.668 8.24805 167.184 8.4037 166.729C8.66611 167.491 9.11376 168.158 9.69004 168.663H8.27507C8.2339 168.663 8.19403 168.663 8.15416 168.665ZM144.068 168.663H142.531C143.109 168.158 143.556 167.491 143.819 166.729C143.982 167.206 144.086 167.714 144.086 168.252C144.086 168.391 144.08 168.527 144.068 168.663Z" fill="#2F1C16"/>
<path d="M137.231 246.638H12.5576C10.192 246.638 8.27539 244.72 8.27539 242.355V241.993C8.27539 239.628 10.192 237.711 12.5576 237.711H137.231C139.595 237.711 141.513 239.628 141.513 241.993V242.355C141.513 244.72 139.595 246.638 137.231 246.638Z" fill="#3D231B"/>
<path d="M135.04 246.638H131.059L130.714 243.591H134.716L135.04 246.638ZM121.249 246.638H30.8236L31.1683 243.591H120.904L121.249 246.638ZM21.014 246.638H16.6057L16.9312 243.591H21.3587L21.014 246.638" fill="#2F1C16"/>
<path d="M104.444 98.1272L126.49 292.954C126.792 295.629 129.206 297.552 131.881 297.248C134.555 296.946 136.478 294.533 136.174 291.858L114.13 97.0313C113.827 94.357 111.414 92.4339 108.739 92.7362C106.065 93.0385 104.142 95.4529 104.444 98.1272Z" fill="#3D231B"/>
<path d="M25.5831 292.954L47.6271 98.1272C47.9306 95.4529 46.0075 93.0385 43.3333 92.7362C40.659 92.4339 38.2445 94.357 37.9422 97.0313L15.897 291.858C15.5947 294.533 17.5178 296.946 20.1921 297.248C22.8664 297.552 25.2808 295.629 25.5831 292.954" fill="#3D231B"/>
<path d="M142.094 106.505H10.2666C6.70219 106.505 3.81177 103.615 3.81177 100.05V95.1068C3.81177 91.5424 6.70219 88.652 10.2666 88.652H142.094C145.659 88.652 148.548 91.5424 148.548 95.1068V100.05C148.548 103.615 145.659 106.505 142.094 106.505" fill="#542F23"/>
<path d="M150.959 304.073L128.913 97.0622C128.629 94.3866 126.229 92.4481 123.552 92.7324C120.875 93.0179 118.936 95.4182 119.222 98.0951L141.267 305.107C141.551 307.782 143.952 309.72 146.629 309.436C149.306 309.151 151.244 306.75 150.959 304.073" fill="#542F23"/>
<path d="M10.3799 305.107L32.4238 98.0951C32.7094 95.4182 30.7709 93.0179 28.094 92.7324C25.4171 92.4481 23.0168 94.3866 22.7326 97.0622L0.68733 304.073C0.401763 306.75 2.34029 309.151 5.01716 309.436C7.69402 309.72 10.0943 307.782 10.3799 305.107" fill="#542F23"/>
<path d="M146.7 264.082L146.397 261.235L146.233 259.708C146.558 259.53 146.856 259.313 147.125 259.063C147.974 259.535 148.547 260.434 148.547 261.476C148.547 262.683 147.774 263.699 146.7 264.082" fill="#54281D"/>
<path d="M146.397 261.235L146.233 259.708L146.397 261.235Z" fill="#201411"/>
<path d="M136.325 258.701H145.772C145.896 258.701 146.013 258.72 146.131 258.737L137.91 181.533H128.107L136.325 258.701" fill="#542F23"/>
<path d="M127.516 175.98H137.318L130.87 115.432H121.068L127.516 175.98" fill="#542F23"/>
<path d="M150.96 304.075L146.701 264.083C146.41 264.187 146.099 264.254 145.772 264.254H136.917L141.266 305.108C141.532 307.608 143.647 309.463 146.107 309.463C146.28 309.463 146.454 309.457 146.629 309.438C149.304 309.151 151.244 306.752 150.96 304.075" fill="#542F23"/>
<path d="M130.87 115.432L130.526 112.205L130.87 115.432ZM120.21 107.371L120.117 106.505L120.21 107.371Z" fill="#54281D"/>
<path d="M130.87 115.432H121.068L120.21 107.371L120.117 106.505H129.919L130.526 112.205L130.87 115.432Z" fill="#201411"/>
<path d="M106.403 115.432H106.376L105.958 111.501L106.403 115.432ZM115.644 110.417L115.202 106.505H115.228L115.644 110.417Z" fill="#54281D"/>
<path d="M116.179 115.432H106.404L105.959 111.501L105.426 106.505H115.202L115.645 110.417L116.179 115.432" fill="#1B1412"/>
<path d="M137.91 181.533L137.489 177.588L137.91 181.533ZM128.106 181.533L127.731 178.002L128.106 181.533Z" fill="#54281D"/>
<path d="M137.91 181.533H128.107L127.731 178.002L127.688 177.588H137.489L137.91 181.533Z" fill="#201411"/>
<path d="M146.7 264.082L146.397 261.235L146.7 264.082ZM136.835 263.492L136.49 260.258L136.835 263.492Z" fill="#54281D"/>
<path d="M145.771 264.254H136.916L136.835 263.492L136.49 260.258H144.086C144.865 260.258 145.596 260.059 146.233 259.708L146.397 261.235L146.7 264.083C146.408 264.187 146.098 264.254 145.771 264.254" fill="#201411"/>
<path d="M145.772 264.254H136.917H145.772C146.099 264.254 146.409 264.187 146.701 264.083C146.41 264.187 146.099 264.254 145.772 264.254Z" fill="#201411"/>
<path d="M32.4238 98.0963C32.7093 95.4181 30.7708 93.0191 28.0939 92.7335C25.4299 92.4467 23.0168 94.3865 22.7312 97.0621L21.7266 106.505H31.5284L32.4238 98.0963Z" fill="#542F23"/>
<path d="M15.3219 258.7L23.539 181.533H13.7359L5.49561 258.924C5.83005 258.78 6.20052 258.7 6.5877 258.7H15.3219Z" fill="#542F23"/>
<path d="M30.5779 115.432H20.7748L14.3276 175.98H24.1308L30.5779 115.432Z" fill="#542F23"/>
<path d="M4.98369 263.735L0.687314 304.075C0.401747 306.752 2.34156 309.151 5.01714 309.438C5.19208 309.457 5.36703 309.463 5.5394 309.463C7.99888 309.463 10.1123 307.608 10.3799 305.108L14.7303 264.254H6.58775C5.98832 264.254 5.43649 264.059 4.98369 263.735Z" fill="#542F23"/>
<path d="M20.7762 115.432H20.7749L21.7268 106.505L20.7762 115.432Z" fill="#54281D"/>
<path d="M30.5778 115.432H20.7759L21.7265 106.505H31.5283L30.5778 115.432Z" fill="#201411"/>
<path d="M45.6951 115.432H45.6694L46.117 111.481L45.6951 115.432ZM36.4309 110.394L36.8451 106.505H36.8708L36.4309 110.394" fill="#54281D"/>
<path d="M45.6692 115.432H35.8931L36.4307 110.394L36.8707 106.505H46.6468L46.1169 111.481L45.6692 115.432" fill="#1B1412"/>
<path d="M23.539 181.533L23.8426 178.68L23.539 181.533ZM13.7371 181.533H13.7358L14.1565 177.588L13.7371 181.533" fill="#54281D"/>
<path d="M23.5389 181.533H13.7371L14.1564 177.588H23.9583L23.8425 178.68L23.5389 181.533Z" fill="#201411"/>
<path d="M14.7304 264.254L15.1562 260.258L14.7304 264.254ZM5.22437 261.466L5.45977 259.259L5.22437 261.466Z" fill="#54281D"/>
<path d="M14.7302 264.254H6.5877C5.98827 264.254 5.43643 264.059 4.98364 263.735L5.22417 261.466L5.45958 259.259C6.22752 259.883 7.2077 260.258 8.27536 260.258H15.156L14.7302 264.254" fill="#201411"/>
<path d="M144.087 177.588H8.27535C5.80944 177.588 3.81177 175.59 3.81177 173.124C3.81177 170.66 5.80944 168.663 8.27535 168.663H144.087C146.551 168.663 148.548 170.66 148.548 173.124C148.548 175.59 146.551 177.588 144.087 177.588Z" fill="#542F23"/>
<path d="M144.087 177.588H8.27535C5.80944 177.588 3.81177 175.59 3.81177 173.124C3.81177 172.588 3.9211 172.08 4.09604 171.603C4.71992 173.315 6.34713 174.543 8.27535 174.543H144.087C146.014 174.543 147.641 173.315 148.265 171.603C148.44 172.08 148.548 172.588 148.548 173.124C148.548 175.59 146.551 177.588 144.087 177.588" fill="#42241B"/>
<path d="M142.094 106.505H129.919L129.401 101.632H142.094C145.659 101.632 148.548 98.742 148.548 95.1763V100.05C148.548 103.615 145.659 106.505 142.094 106.505V106.505ZM120.117 106.505H31.5284L32.0481 101.632H84.0123C84.0123 102.085 84.0123 102.523 84.0123 102.872C84.0123 103.633 84.5679 104.308 85.3243 104.38C85.3732 104.385 85.4208 104.388 85.4671 104.388C86.2711 104.388 86.9219 103.736 86.9219 102.933C86.9219 102.499 86.9219 102.066 86.9219 101.632H119.599L120.117 106.505V106.505ZM21.7266 106.505H10.2666C6.70219 106.505 3.81177 103.615 3.81177 100.05V95.1763C3.81177 98.742 6.70219 101.632 10.2666 101.632H22.245L21.7266 106.505" fill="#43251C"/>
<path d="M129.919 106.505H120.117L119.599 101.632H129.401L129.919 106.505Z" fill="#43251C"/>
<path d="M31.5284 106.505H21.7266H31.5284L32.0468 101.632H32.0481L31.5284 106.505" fill="#43251C"/>
<path d="M31.5284 106.505H21.7266L22.245 101.632H32.0468L31.5284 106.505Z" fill="#43251C"/>
<path d="M144.087 260.258H8.27535C5.80944 260.258 3.81177 258.261 3.81177 255.795C3.81177 253.33 5.80944 251.331 8.27535 251.331H144.087C146.551 251.331 148.548 253.33 148.548 255.795C148.548 258.261 146.551 260.258 144.087 260.258Z" fill="#542F23"/>
<path d="M144.087 260.258H8.27535C7.20769 260.258 6.22751 259.883 5.45957 259.259C4.45366 258.441 3.81177 257.193 3.81177 255.795C3.81177 255.221 3.92882 254.677 4.12691 254.173C4.77651 255.833 6.38315 257.013 8.27535 257.013H144.087C145.978 257.013 147.583 255.833 148.234 254.173C148.432 254.677 148.548 255.221 148.548 255.795C148.548 257.481 147.614 258.949 146.234 259.708C145.597 260.059 144.865 260.258 144.087 260.258Z" fill="#42241B"/>
<path d="M104.213 87.6295H74.3031C73.2676 87.6295 72.4302 88.4682 72.4302 89.5024C72.4302 89.716 72.4855 89.9128 72.5511 90.1044C72.4816 90.2331 72.4302 90.3733 72.4302 90.5302V92.6372C72.4302 92.9292 72.6308 93.202 72.919 93.2495C73.7551 93.3859 73.5621 92.3761 73.6084 91.8976C73.6277 91.6828 73.7268 91.4538 73.9275 91.3715L74.2657 91.3393C75.2099 91.3831 76.122 91.3895 77.0636 91.3213C77.6501 91.2776 77.8559 91.459 78.126 91.9581C78.382 92.4276 78.5171 92.9575 78.5171 93.4926C78.5171 94.3995 78.5171 95.3887 78.5171 96.0229C78.5171 96.6969 79.0213 97.3002 79.6941 97.3349C80.4119 97.3722 81.0048 96.8024 81.0048 96.0923V92.1729C81.0048 91.8796 81.185 91.6069 81.4667 91.5181L81.7432 91.477C81.9362 91.477 82.115 91.5361 82.2629 91.6365C82.4417 91.7561 82.5331 91.9696 82.5331 92.1845V98.0643C82.5331 98.4476 82.7903 98.7808 83.1608 98.8785C83.6637 99.0097 84.0123 99.4625 84.0123 99.9809C84.0123 100.831 84.0123 102.079 84.0123 102.873C84.0123 103.633 84.568 104.308 85.3244 104.38C86.1927 104.464 86.922 103.783 86.922 102.933C86.922 100.849 86.922 98.7666 86.9233 96.6828C86.9246 95.7437 86.9207 94.8047 86.922 93.8657C86.922 93.3962 86.675 91.495 87.1677 91.3522C87.3902 91.2879 87.6256 91.2673 87.8572 91.2917L88.1338 91.3779C88.4656 91.6095 88.2868 92.2732 88.2932 92.6115C88.3138 93.6547 88.2573 94.6992 88.2573 95.7425C88.2573 96.4165 88.7615 97.0198 89.4342 97.0545C90.152 97.0931 90.745 96.522 90.745 95.8132V93.4991C90.745 92.3259 91.6956 91.3753 92.8687 91.3753H104.213C105.246 91.3753 106.086 90.5366 106.086 89.5024C106.086 88.4682 105.246 87.6295 104.213 87.6295" fill="#FE9B35"/>
<path d="M84.7585 102.952C84.5025 102.952 84.2954 102.746 84.2954 102.492L84.572 96.6518L85.2203 102.492C85.2203 102.746 85.0132 102.952 84.7585 102.952" fill="#FFF9F9"/>
<path d="M82.9449 97.9201C82.8034 97.9201 82.689 97.8057 82.689 97.6654L82.8407 94.4329L83.1996 97.6654C83.1996 97.8057 83.0851 97.9201 82.9449 97.9201" fill="#FFF9F9"/>
<path d="M79.0044 95.8889C78.8642 95.8889 78.7498 95.7745 78.7498 95.6343L78.9016 92.403L79.2591 95.6343C79.2591 95.7745 79.1459 95.8889 79.0044 95.8889" fill="#FFF9F9"/>
<path d="M72.6359 92.1355L72.5073 92.0082L72.5845 90.3931L72.7619 92.0082L72.6359 92.1355Z" fill="#FFF9F9"/>
<path d="M204.61 280.798L182.432 280.786C181.038 280.774 180.03 280.29 179.277 279.538C178.535 278.775 178.051 277.711 178.045 276.327C178.045 276.096 178.059 275.856 178.09 275.608L180.17 258.733C180.361 257.123 181.221 255.555 182.483 254.417C183.745 253.276 185.328 252.63 186.832 252.637H186.851L186.833 248.886L186.566 252.628C186.704 252.637 186.802 252.637 186.837 252.637C186.845 252.637 186.848 252.637 186.851 252.637L186.833 248.886L186.566 252.628L186.699 252.637L224.125 252.66H224.127H224.164L224.134 249.252V252.66H224.164L224.134 249.252V252.66C227.75 252.653 231.061 251.187 233.575 248.918C236.087 246.642 237.883 243.496 238.331 239.897L257.993 80.3668L250.454 79.438L230.792 238.968C230.601 240.577 229.741 242.145 228.479 243.282C227.219 244.425 225.635 245.069 224.134 245.063L224.097 245.064L224.127 248.475V245.063L224.097 245.064L224.127 248.475V245.063L186.838 245.041L186.836 248.839L187.106 245.05L186.858 245.041H186.814L186.832 248.61V245.041H186.814L186.832 248.61V245.041C183.215 245.047 179.904 246.512 177.39 248.783C174.877 251.057 173.08 254.203 172.629 257.803L170.551 274.678C170.482 275.231 170.449 275.783 170.449 276.327C170.443 279.596 171.686 282.659 173.855 284.859C176.012 287.071 179.096 288.389 182.427 288.381L204.606 288.394L204.61 280.798" fill="#542F23"/>
<path d="M265.816 270.479C265.816 270.479 192.398 270.357 192.241 270.339C189.6 270.015 186.711 275.864 185.791 283.402C185.151 288.644 185.634 293.26 186.876 295.697C187.249 296.821 187.985 297.555 189.298 297.579L263.131 297.503C265.457 297.267 267.191 294.169 267.627 290.632L268.027 276.887C268.463 273.35 269.291 270.482 265.816 270.479Z" fill="#FFEAC5"/>
<path d="M265.816 270.48C265.816 270.48 245.372 270.445 226.038 270.411C223.907 270.407 222.178 272.134 222.178 274.265C222.178 276.395 220.452 278.12 218.323 278.12H186.82C186.377 279.727 186.022 281.511 185.791 283.402C185.641 284.623 185.56 285.805 185.528 286.939H221.858C225.637 286.939 228.954 288.919 230.83 291.897C233.009 295.357 236.738 297.53 240.827 297.525L263.131 297.503C265.457 297.267 267.191 294.169 267.627 290.633L268.027 276.887C268.463 273.351 269.291 270.482 265.816 270.48Z" fill="#FF9F3C"/>
<path d="M259.957 297.62C259.956 297.62 259.955 297.62 259.955 297.62L191.65 297.579C191.596 297.579 191.541 297.579 191.487 297.576L261.17 297.504C260.773 297.58 260.368 297.62 259.957 297.62" fill="#E73121"/>
<path d="M267.786 285.155V285.145C267.791 285.108 267.796 285.071 267.8 285.034L267.786 285.155" fill="#C78446"/>
<path d="M191.487 297.576C188.096 297.486 185.715 294.651 186.145 291.171L186.667 286.939H186.964C187.458 289.521 189.606 291.391 192.413 291.394L230.509 291.417C230.62 291.574 230.726 291.734 230.829 291.897C233.006 295.353 236.73 297.525 240.813 297.525C240.818 297.525 240.822 297.525 240.827 297.525L261.17 297.504L191.487 297.576Z" fill="#FFE1AB"/>
<path d="M240.813 297.525C236.73 297.525 233.006 295.353 230.829 291.897C230.727 291.734 230.62 291.574 230.509 291.417L260.717 291.435H260.719C264.157 291.435 267.298 288.63 267.786 285.145V285.155L267.038 291.22C266.654 294.338 264.142 296.936 261.17 297.504L240.827 297.525C240.822 297.525 240.818 297.525 240.813 297.525ZM186.964 286.939H186.667L186.907 284.986C186.824 285.667 186.847 286.323 186.964 286.939Z" fill="#FF9120"/>
<path d="M185.582 289.857C185.521 288.936 185.502 287.959 185.528 286.939H185.854C185.834 287.113 185.812 287.288 185.791 287.464C185.69 288.282 185.628 289.076 185.582 289.857V289.857ZM185.534 286.731C185.562 285.806 185.629 284.848 185.737 283.861C185.629 284.845 185.565 285.804 185.534 286.731ZM185.739 283.851C185.74 283.842 185.741 283.834 185.741 283.826C185.741 283.834 185.74 283.842 185.739 283.851ZM185.791 283.402C185.867 282.782 185.956 282.172 186.056 281.578C185.956 282.172 185.867 282.782 185.791 283.402ZM186.058 281.577C186.062 281.55 186.067 281.523 186.071 281.496C186.067 281.523 186.062 281.55 186.058 281.577ZM186.072 281.488C186.077 281.465 186.081 281.439 186.085 281.415C186.081 281.439 186.077 281.463 186.072 281.488ZM186.087 281.399C186.092 281.376 186.096 281.353 186.1 281.331C186.096 281.353 186.092 281.376 186.087 281.399ZM186.103 281.316C186.107 281.294 186.11 281.273 186.114 281.251C186.11 281.273 186.107 281.294 186.103 281.316ZM186.118 281.226C186.122 281.208 186.125 281.19 186.128 281.171C186.125 281.19 186.122 281.208 186.118 281.226ZM186.134 281.141C186.137 281.124 186.14 281.108 186.143 281.093C186.14 281.108 186.137 281.124 186.134 281.141ZM186.153 281.038C186.154 281.029 186.156 281.02 186.158 281.012C186.156 281.02 186.154 281.029 186.153 281.038ZM186.17 280.946C186.171 280.941 186.172 280.937 186.172 280.932C186.172 280.937 186.171 280.941 186.17 280.946ZM186.188 280.855C186.188 280.854 186.188 280.854 186.188 280.854C186.188 280.854 186.188 280.854 186.188 280.855ZM186.588 279.012C186.588 279.01 186.588 279.009 186.589 279.008C186.588 279.009 186.588 279.01 186.588 279.012ZM186.606 278.941C186.608 278.928 186.611 278.915 186.615 278.902C186.611 278.915 186.608 278.928 186.606 278.941ZM186.622 278.87C186.628 278.852 186.631 278.833 186.637 278.816C186.631 278.834 186.628 278.852 186.622 278.87ZM186.64 278.801C186.646 278.778 186.652 278.754 186.657 278.731C186.652 278.754 186.646 278.778 186.64 278.801ZM186.658 278.73C187.923 273.769 190.031 270.326 192.031 270.326C192.102 270.326 192.172 270.33 192.241 270.339C192.363 270.353 236.308 270.429 256.216 270.463C248.466 270.45 237.07 270.431 226.038 270.411C226.036 270.411 226.033 270.411 226.031 270.411C223.903 270.411 222.178 272.136 222.178 274.265C222.178 274.331 222.175 274.395 222.173 274.459C206.527 274.429 192.597 274.403 192.248 274.403C192.245 274.403 192.242 274.403 192.241 274.403C189.743 274.405 188.359 275.791 187.486 278.12H186.821C186.765 278.321 186.711 278.524 186.658 278.73V278.73ZM265.816 270.479C265.816 270.479 265.794 270.479 265.753 270.479C265.794 270.479 265.816 270.479 265.816 270.479Z" fill="#FFF7EA"/>
<path d="M185.854 286.939H185.528C185.529 286.87 185.531 286.801 185.534 286.731C185.565 285.804 185.629 284.845 185.737 283.861C185.737 283.857 185.739 283.855 185.739 283.851C185.74 283.842 185.741 283.834 185.741 283.827C185.757 283.685 185.773 283.544 185.791 283.402C185.867 282.782 185.956 282.172 186.056 281.578L186.058 281.577C186.061 281.55 186.067 281.523 186.07 281.496C186.072 281.493 186.072 281.491 186.072 281.488C186.077 281.464 186.081 281.439 186.085 281.415C186.086 281.41 186.087 281.404 186.087 281.399C186.092 281.376 186.096 281.353 186.1 281.331C186.1 281.326 186.101 281.321 186.103 281.316C186.106 281.294 186.11 281.273 186.114 281.251C186.115 281.242 186.117 281.235 186.118 281.226C186.122 281.208 186.124 281.19 186.128 281.172C186.13 281.161 186.132 281.151 186.133 281.141C186.137 281.124 186.14 281.108 186.142 281.093C186.146 281.074 186.149 281.056 186.153 281.038C186.154 281.029 186.155 281.02 186.158 281.012C186.162 280.99 186.166 280.968 186.169 280.946C186.171 280.941 186.172 280.937 186.172 280.932C186.177 280.907 186.182 280.881 186.188 280.855V280.854C186.307 280.221 186.442 279.606 186.588 279.012L186.589 279.008C186.594 278.986 186.599 278.963 186.606 278.941C186.608 278.928 186.611 278.915 186.615 278.902C186.617 278.892 186.62 278.881 186.622 278.87C186.627 278.852 186.631 278.834 186.636 278.816C186.638 278.81 186.639 278.806 186.64 278.801C186.645 278.778 186.652 278.755 186.657 278.731L186.658 278.73C186.711 278.524 186.765 278.321 186.82 278.12H187.485C186.656 280.334 186.285 283.399 185.854 286.939ZM268.184 275.708C267.856 274.977 267.16 274.543 265.816 274.543C265.816 274.543 242.541 274.498 222.173 274.459C222.175 274.395 222.178 274.331 222.178 274.265C222.178 272.136 223.903 270.411 226.03 270.411C226.033 270.411 226.036 270.411 226.038 270.411C237.07 270.431 248.465 270.45 256.216 270.463C261.613 270.472 265.243 270.478 265.752 270.48C265.794 270.48 265.816 270.48 265.816 270.48C265.827 270.48 265.839 270.48 265.85 270.48H265.852C265.863 270.48 265.875 270.48 265.886 270.48H265.888C268.89 270.517 268.591 272.759 268.184 275.708Z" fill="#FFBF7C"/>
<path d="M248.442 134.824L246.687 134.823C242.824 134.82 240.085 131.631 240.57 127.7L246.939 76.01C247.424 72.079 250.949 68.8927 254.813 68.8953L256.566 68.8966C260.431 68.8991 263.17 72.088 262.685 76.019L256.316 127.71C255.831 131.64 252.306 134.826 248.442 134.824" fill="#57565C"/>
<path d="M248.446 134.824C248.445 134.824 248.444 134.824 248.443 134.824L246.688 134.823C245.592 134.821 244.585 134.564 243.717 134.106C244.585 134.564 245.592 134.821 246.688 134.823L248.443 134.824C248.444 134.824 248.445 134.824 248.446 134.824Z" fill="#47271D"/>
<path d="M251.357 134.214C251.69 134.071 252.014 133.905 252.325 133.719C252.014 133.907 251.69 134.071 251.357 134.214Z" fill="#FAC095"/>
<path d="M262.428 78.1015L262.685 76.0189C262.687 76.0047 262.689 75.9906 262.691 75.9764C262.689 75.9906 262.687 76.0047 262.685 76.0189L262.428 78.1015Z" fill="#EF3A1F"/>
<path d="M252.325 133.719C254.434 132.458 256.003 130.238 256.316 127.71L257.571 117.523L256.316 127.71C256.003 130.238 254.434 132.458 252.325 133.719Z" fill="#C09678"/>
<path d="M248.462 134.824C249.466 134.821 250.447 134.604 251.357 134.214C250.447 134.604 249.466 134.821 248.462 134.824Z" fill="#47271D"/>
<path d="M240.569 127.7L240.752 126.204H240.753L240.569 127.7ZM262.692 75.9675C262.693 75.9546 262.694 75.9431 262.696 75.9302C262.694 75.9431 262.693 75.9546 262.692 75.9675ZM262.696 75.9251C262.762 75.3295 262.753 74.7506 262.679 74.1988C262.753 74.7506 262.762 75.3295 262.696 75.9251ZM262.679 74.1949C262.676 74.1834 262.675 74.1692 262.674 74.1576C262.675 74.1705 262.676 74.1834 262.679 74.1949ZM262.672 74.1538C262.671 74.1409 262.669 74.1268 262.667 74.1139C262.669 74.1268 262.671 74.1396 262.672 74.1538ZM262.666 74.1075C262.665 74.0972 262.662 74.0869 262.661 74.0766C262.662 74.0869 262.665 74.0972 262.666 74.1075ZM262.658 74.0624C262.657 74.0534 262.657 74.047 262.656 74.0393C262.656 74.047 262.658 74.0547 262.658 74.0624ZM262.653 74.0226C262.652 74.0161 262.651 74.0097 262.649 74.002C262.651 74.0097 262.652 74.0161 262.653 74.0226ZM262.643 73.9647C262.642 73.9608 262.642 73.9582 262.642 73.9557C262.642 73.9582 262.642 73.9608 262.643 73.9647ZM262.636 73.9287C262.636 73.9261 262.635 73.9248 262.635 73.9223C262.635 73.9248 262.636 73.9261 262.636 73.9287Z" fill="#EF3A1F"/>
<path d="M248.446 134.824C248.444 134.824 248.443 134.824 248.442 134.824L246.687 134.823C245.591 134.821 244.584 134.564 243.716 134.106C242.634 133.534 241.767 132.649 241.209 131.559C240.762 130.687 240.515 129.685 240.513 128.607C240.513 128.31 240.531 128.008 240.569 127.7L240.753 126.204C241.539 126.555 242.423 126.753 243.377 126.753H245.133C245.135 126.753 245.136 126.753 245.137 126.753C248.999 126.753 252.522 123.571 253.006 119.64L259.192 69.4471C260.996 70.2562 262.272 71.8963 262.635 73.9223C262.635 73.9249 262.636 73.9261 262.636 73.9287C262.638 73.9377 262.639 73.9467 262.642 73.9557C262.642 73.9583 262.642 73.9609 262.643 73.9647C262.645 73.9776 262.647 73.9892 262.649 74.002C262.651 74.0097 262.652 74.0162 262.653 74.0226C262.653 74.0277 262.654 74.0329 262.656 74.0393C262.657 74.047 262.657 74.0535 262.658 74.0625C262.66 74.0663 262.661 74.0715 262.661 74.0766C262.662 74.0869 262.665 74.0972 262.666 74.1075C262.666 74.1101 262.666 74.1114 262.667 74.1139C262.669 74.1268 262.671 74.1409 262.672 74.1538C262.672 74.1551 262.672 74.1564 262.674 74.1577C262.675 74.1692 262.676 74.1834 262.679 74.195C262.679 74.1963 262.679 74.1975 262.679 74.1988C262.753 74.7507 262.762 75.3295 262.696 75.9251C262.696 75.9264 262.696 75.929 262.696 75.9302C262.694 75.9431 262.693 75.9547 262.692 75.9675C262.69 75.9701 262.69 75.974 262.69 75.9766C262.689 75.9907 262.687 76.0048 262.685 76.019L262.428 78.1016L257.571 117.523L256.315 127.71C256.003 130.238 254.433 132.458 252.325 133.719C252.014 133.905 251.69 134.071 251.357 134.214C250.446 134.604 249.466 134.821 248.461 134.824C248.456 134.824 248.451 134.824 248.446 134.824" fill="#3E3D41"/>
<path d="M269.614 284.57C268.693 292.107 265.805 297.956 263.163 297.633C260.52 297.31 259.124 290.939 260.045 283.402C260.966 275.864 263.854 270.015 266.496 270.338C269.139 270.661 270.535 277.033 269.614 284.57Z" fill="#FF9120"/>
<path d="M267.11 284.355C266.811 286.804 265.612 288.673 264.432 288.529C263.251 288.385 262.539 286.282 262.837 283.834C263.137 281.384 264.336 279.515 265.515 279.66C266.695 279.804 267.41 281.906 267.11 284.355Z" fill="#542F23"/>
</svg>
