<svg width="343" height="61" viewBox="0 0 343 61" fill="none" xmlns="http://www.w3.org/2000/svg">
<path d="M217.935 24.0014L214.385 23.9887C213.732 23.9864 213.2 24.5143 213.198 25.1677C213.195 25.8212 213.723 26.3529 214.377 26.3552L217.926 26.3679L217.935 24.0014Z" fill="#57565C"/>
<path d="M217.927 26.3682L221.477 26.3808L221.468 28.7473L217.918 28.7347L217.927 26.3682Z" fill="#FFBF00"/>
<path d="M224.351 50.059C220.103 50.0438 216.671 46.5877 216.686 42.3396C216.702 38.0914 220.158 34.6599 224.406 34.675C228.654 34.6902 232.086 38.1463 232.07 42.3945C232.05 46.6406 228.597 50.0689 224.351 50.059ZM224.397 37.0418C221.456 37.0313 219.064 39.4069 219.053 42.348C219.043 45.2891 221.418 47.6817 224.359 47.6922C227.301 47.7027 229.693 45.3271 229.704 42.386C229.711 39.4463 227.337 37.0555 224.397 37.0418Z" fill="#57565C"/>
<path d="M201.867 49.9787C197.619 49.9636 194.187 46.5074 194.202 42.2593C194.218 38.0111 197.674 34.5796 201.922 34.5948C206.17 34.6099 209.601 38.0661 209.586 42.3142C209.566 46.5603 206.113 49.9887 201.867 49.9787ZM201.913 36.9615C198.972 36.951 196.58 39.3266 196.569 42.2677C196.559 45.2089 198.934 47.6015 201.875 47.612C204.816 47.6225 207.209 45.2469 207.22 42.3058C207.227 39.3661 204.853 36.9752 201.913 36.9615Z" fill="#57565C"/>
<path d="M201.812 26.3106L204.749 32.2381L199.386 42.8695L212.606 42.9167L217.916 34.4898L223.383 43.006L225.374 41.728L219.09 31.9403L219.119 24.0056L216.752 23.9972L216.727 31.0975L206.807 31.062L205.633 28.6911L201.812 26.3106ZM211.304 40.5453L203.224 40.5164L206.799 33.4288L215.771 33.4608L211.304 40.5453Z" fill="#E5E5E5"/>
<path d="M201.809 26.3106L207.276 26.3301C207.93 26.3325 208.458 26.8642 208.456 27.5177C208.453 28.1712 207.922 28.6992 207.268 28.6969L202.984 28.6816L201.809 26.3106Z" fill="#FFBF00"/>
<circle cx="207.589" cy="12.5" r="1.5" fill="#7B7373"/>
<circle cx="218.589" cy="15.5" r="1.5" fill="#7B7373"/>
<circle cx="214.589" cy="6.5" r="1.5" fill="#7B7373"/>
<path d="M18.0037 47.5C13.2371 47.5 9.50375 46.35 6.80375 44.05C4.13708 41.7167 2.72041 38.35 2.55375 33.95C2.52041 33.05 2.50375 31.5833 2.50375 29.55C2.50375 27.4833 2.52041 25.9833 2.55375 25.05C2.72041 20.7167 4.17041 17.3833 6.90375 15.05C9.63708 12.6833 13.3371 11.5 18.0037 11.5C20.9371 11.5 23.5704 12 25.9037 13C28.2371 13.9667 30.0704 15.3667 31.4037 17.2C32.7704 19 33.4704 21.1167 33.5038 23.55V23.65C33.5038 23.9167 33.3871 24.15 33.1537 24.35C32.9537 24.5167 32.7204 24.6 32.4537 24.6H25.7037C25.2704 24.6 24.9371 24.5167 24.7037 24.35C24.4704 24.15 24.2704 23.8 24.1037 23.3C23.6371 21.6 22.9037 20.4167 21.9037 19.75C20.9037 19.05 19.5871 18.7 17.9537 18.7C14.0204 18.7 11.9871 20.9 11.8537 25.3C11.8204 26.2 11.8037 27.5833 11.8037 29.45C11.8037 31.3167 11.8204 32.7333 11.8537 33.7C11.9871 38.1 14.0204 40.3 17.9537 40.3C19.5871 40.3 20.9204 39.95 21.9537 39.25C22.9871 38.5167 23.7037 37.3333 24.1037 35.7C24.2371 35.2 24.4204 34.8667 24.6537 34.7C24.8871 34.5 25.2371 34.4 25.7037 34.4H32.4537C32.7537 34.4 33.0037 34.5 33.2037 34.7C33.4371 34.9 33.5371 35.15 33.5038 35.45C33.4704 37.8833 32.7704 40.0167 31.4037 41.85C30.0704 43.65 28.2371 45.05 25.9037 46.05C23.5704 47.0167 20.9371 47.5 18.0037 47.5ZM43.0612 56.5C42.7612 56.5 42.5112 56.4 42.3112 56.2C42.1112 56 42.0112 55.75 42.0112 55.45C42.0112 55.2167 42.0612 55 42.1612 54.8L46.0612 45.4L36.4612 22.7C36.3612 22.4333 36.3112 22.2333 36.3112 22.1C36.3778 21.8 36.5112 21.55 36.7112 21.35C36.9112 21.1167 37.1612 21 37.4612 21H43.1612C43.8612 21 44.3445 21.35 44.6112 22.05L50.3112 36.6L56.1612 22.05C56.4945 21.35 56.9945 21 57.6612 21H63.2612C63.5612 21 63.8112 21.1167 64.0112 21.35C64.2445 21.55 64.3612 21.7833 64.3612 22.05C64.3612 22.1833 64.3112 22.4 64.2112 22.7L50.0612 55.45C49.7945 56.15 49.2945 56.5 48.5612 56.5H43.0612ZM79.0186 47.5C75.2519 47.5 72.2019 46.5 69.8686 44.5C67.5353 42.4667 66.2853 39.65 66.1186 36.05L66.0686 34.05L66.1186 32C66.2519 28.4 67.4853 25.5833 69.8186 23.55C72.1853 21.5167 75.2519 20.5 79.0186 20.5C81.8519 20.5 84.2353 21.0167 86.1686 22.05C88.1353 23.05 89.5853 24.2667 90.5186 25.7C91.4853 27.1 92.0019 28.3833 92.0686 29.55C92.1019 29.8833 91.9853 30.1833 91.7186 30.45C91.4853 30.6833 91.1853 30.8 90.8186 30.8H84.4686C84.1019 30.8 83.8186 30.7167 83.6186 30.55C83.4186 30.3833 83.2353 30.1333 83.0686 29.8C82.6686 28.7667 82.1519 28.0333 81.5186 27.6C80.9186 27.1667 80.1353 26.95 79.1686 26.95C76.4353 26.95 75.0186 28.7167 74.9186 32.25L74.8686 34.15L74.9186 35.8C74.9853 37.6 75.3686 38.9333 76.0686 39.8C76.8019 40.6333 77.8353 41.05 79.1686 41.05C80.2019 41.05 81.0186 40.8333 81.6186 40.4C82.2186 39.9667 82.7019 39.2333 83.0686 38.2C83.2353 37.8667 83.4186 37.6167 83.6186 37.45C83.8186 37.2833 84.1019 37.2 84.4686 37.2H90.8186C91.1519 37.2 91.4353 37.3167 91.6686 37.55C91.9353 37.75 92.0686 38.0167 92.0686 38.35C92.0686 39.4167 91.6019 40.6667 90.6686 42.1C89.7686 43.5333 88.3353 44.8 86.3686 45.9C84.4019 46.9667 81.9519 47.5 79.0186 47.5ZM97.8108 47C97.4774 47 97.1774 46.8833 96.9108 46.65C96.6774 46.3833 96.5608 46.0833 96.5608 45.75V12.75C96.5608 12.3833 96.6774 12.0833 96.9108 11.85C97.1774 11.6167 97.4774 11.5 97.8108 11.5H103.711C104.077 11.5 104.377 11.6167 104.611 11.85C104.844 12.0833 104.961 12.3833 104.961 12.75V45.75C104.961 46.1167 104.844 46.4167 104.611 46.65C104.377 46.8833 104.077 47 103.711 47H97.8108ZM112.067 17.25C111.701 17.25 111.401 17.1333 111.167 16.9C110.934 16.6667 110.817 16.3667 110.817 16V11.5C110.817 11.1333 110.934 10.8333 111.167 10.6C111.401 10.3667 111.701 10.25 112.067 10.25H118.067C118.434 10.25 118.734 10.3667 118.967 10.6C119.201 10.8333 119.317 11.1333 119.317 11.5V16C119.317 16.3667 119.201 16.6667 118.967 16.9C118.734 17.1333 118.434 17.25 118.067 17.25H112.067ZM112.117 47C111.751 47 111.451 46.8833 111.217 46.65C110.984 46.4167 110.867 46.1167 110.867 45.75V22.25C110.867 21.8833 110.984 21.5833 111.217 21.35C111.451 21.1167 111.751 21 112.117 21H118.017C118.384 21 118.684 21.1167 118.917 21.35C119.151 21.5833 119.267 21.8833 119.267 22.25V45.75C119.267 46.0833 119.151 46.3833 118.917 46.65C118.684 46.8833 118.384 47 118.017 47H112.117ZM126.424 47C126.057 47 125.757 46.8833 125.524 46.65C125.291 46.4167 125.174 46.1167 125.174 45.75V22.25C125.174 21.8833 125.291 21.5833 125.524 21.35C125.757 21.1167 126.057 21 126.424 21H132.174C132.541 21 132.841 21.1167 133.074 21.35C133.341 21.5833 133.474 21.8833 133.474 22.25V24.15C134.374 23.05 135.524 22.1667 136.924 21.5C138.357 20.8333 139.974 20.5 141.774 20.5C144.707 20.5 147.091 21.5 148.924 23.5C150.757 25.4667 151.674 28.2333 151.674 31.8V45.75C151.674 46.0833 151.557 46.3833 151.324 46.65C151.091 46.8833 150.791 47 150.424 47H144.124C143.791 47 143.491 46.8833 143.224 46.65C142.991 46.3833 142.874 46.0833 142.874 45.75V32.1C142.874 30.5333 142.491 29.3333 141.724 28.5C140.957 27.6333 139.857 27.2 138.424 27.2C137.024 27.2 135.924 27.6333 135.124 28.5C134.324 29.3333 133.924 30.5333 133.924 32.1V45.75C133.924 46.0833 133.807 46.3833 133.574 46.65C133.341 46.8833 133.041 47 132.674 47H126.424ZM170.053 58C166.886 58 164.32 57.4833 162.353 56.45C160.386 55.4167 158.97 54.2333 158.103 52.9C157.27 51.5667 156.853 50.45 156.853 49.55C156.853 49.25 156.986 48.9833 157.253 48.75C157.52 48.5167 157.82 48.4 158.153 48.4H164.503C164.836 48.4 165.086 48.4667 165.253 48.6C165.453 48.7667 165.636 49.0333 165.803 49.4C166.136 50.1667 166.586 50.7667 167.153 51.2C167.72 51.6667 168.603 51.9 169.803 51.9C171.336 51.9 172.47 51.5167 173.203 50.75C173.936 50.0167 174.303 48.7667 174.303 47V43.65C172.603 45.5167 170.17 46.45 167.003 46.45C163.636 46.45 161.053 45.4667 159.253 43.5C157.486 41.5 156.52 38.6167 156.353 34.85L156.303 33.5C156.303 29.4667 157.203 26.3 159.003 24C160.803 21.6667 163.47 20.5 167.003 20.5C168.703 20.5 170.203 20.8333 171.503 21.5C172.803 22.1333 173.903 23 174.803 24.1V22.25C174.803 21.8833 174.92 21.5833 175.153 21.35C175.42 21.1167 175.72 21 176.053 21H181.803C182.17 21 182.47 21.1333 182.703 21.4C182.97 21.6333 183.103 21.9167 183.103 22.25V46.3C183.103 50.1 181.97 53 179.703 55C177.436 57 174.22 58 170.053 58ZM169.703 39.95C171.203 39.95 172.32 39.5 173.053 38.6C173.786 37.6667 174.203 36.5 174.303 35.1C174.336 34.8667 174.353 34.35 174.353 33.55C174.353 32.7833 174.336 32.2833 174.303 32.05C174.236 30.65 173.82 29.5 173.053 28.6C172.32 27.6667 171.203 27.2 169.703 27.2C168.136 27.2 167.003 27.6667 166.303 28.6C165.603 29.5333 165.22 30.8167 165.153 32.45L165.103 33.55C165.103 35.5167 165.436 37.0833 166.103 38.25C166.77 39.3833 167.97 39.95 169.703 39.95ZM244.015 47C243.682 47 243.382 46.8833 243.115 46.65C242.882 46.3833 242.765 46.0833 242.765 45.75V13.25C242.765 12.8833 242.882 12.5833 243.115 12.35C243.382 12.1167 243.682 12 244.015 12H267.015C267.382 12 267.682 12.1167 267.915 12.35C268.148 12.5833 268.265 12.8833 268.265 13.25V18.3C268.265 18.6333 268.148 18.9333 267.915 19.2C267.682 19.4333 267.382 19.55 267.015 19.55H251.565V26.9H266.015C266.382 26.9 266.682 27.0333 266.915 27.3C267.148 27.5333 267.265 27.8333 267.265 28.2V33.2C267.265 33.5333 267.148 33.8333 266.915 34.1C266.682 34.3333 266.382 34.45 266.015 34.45H251.565V45.75C251.565 46.1167 251.448 46.4167 251.215 46.65C250.982 46.8833 250.682 47 250.315 47H244.015ZM274.323 17.25C273.957 17.25 273.657 17.1333 273.423 16.9C273.19 16.6667 273.073 16.3667 273.073 16V11.5C273.073 11.1333 273.19 10.8333 273.423 10.6C273.657 10.3667 273.957 10.25 274.323 10.25H280.323C280.69 10.25 280.99 10.3667 281.223 10.6C281.457 10.8333 281.573 11.1333 281.573 11.5V16C281.573 16.3667 281.457 16.6667 281.223 16.9C280.99 17.1333 280.69 17.25 280.323 17.25H274.323ZM274.373 47C274.007 47 273.707 46.8833 273.473 46.65C273.24 46.4167 273.123 46.1167 273.123 45.75V22.25C273.123 21.8833 273.24 21.5833 273.473 21.35C273.707 21.1167 274.007 21 274.373 21H280.273C280.64 21 280.94 21.1167 281.173 21.35C281.407 21.5833 281.523 21.8833 281.523 22.25V45.75C281.523 46.0833 281.407 46.3833 281.173 46.65C280.94 46.8833 280.64 47 280.273 47H274.373ZM287.63 47C287.297 47 286.997 46.8833 286.73 46.65C286.497 46.3833 286.38 46.0833 286.38 45.75V41.85C286.38 41.25 286.647 40.6833 287.18 40.15L298.88 27.45H288.08C287.713 27.45 287.397 27.3333 287.13 27.1C286.897 26.8667 286.78 26.5667 286.78 26.2V22.25C286.78 21.8833 286.897 21.5833 287.13 21.35C287.397 21.1167 287.713 21 288.08 21H308.18C308.547 21 308.847 21.1167 309.08 21.35C309.313 21.5833 309.43 21.8833 309.43 22.25V26.5C309.43 26.9667 309.197 27.4667 308.73 28L297.33 40.55H309.18C309.547 40.55 309.847 40.6667 310.08 40.9C310.347 41.1333 310.48 41.4333 310.48 41.8V45.75C310.48 46.1167 310.347 46.4167 310.08 46.65C309.847 46.8833 309.547 47 309.18 47H287.63ZM315.267 47C314.933 47 314.633 46.8833 314.367 46.65C314.133 46.3833 314.017 46.0833 314.017 45.75V41.85C314.017 41.25 314.283 40.6833 314.817 40.15L326.517 27.45H315.717C315.35 27.45 315.033 27.3333 314.767 27.1C314.533 26.8667 314.417 26.5667 314.417 26.2V22.25C314.417 21.8833 314.533 21.5833 314.767 21.35C315.033 21.1167 315.35 21 315.717 21H335.817C336.183 21 336.483 21.1167 336.717 21.35C336.95 21.5833 337.067 21.8833 337.067 22.25V26.5C337.067 26.9667 336.833 27.4667 336.367 28L324.967 40.55H336.817C337.183 40.55 337.483 40.6667 337.717 40.9C337.983 41.1333 338.117 41.4333 338.117 41.8V45.75C338.117 46.1167 337.983 46.4167 337.717 46.65C337.483 46.8833 337.183 47 336.817 47H315.267Z" fill="url(#paint0_linear)"/>
<defs>
<linearGradient id="paint0_linear" x1="170.71" y1="18" x2="170.71" y2="71.5" gradientUnits="userSpaceOnUse">
<stop offset="0.270833" stop-color="#FF923C"/>
<stop offset="1" stop-color="#FFC340"/>
</linearGradient>
</defs>
</svg>
