<svg width="754" height="694" viewBox="0 0 754 694" fill="none" xmlns="http://www.w3.org/2000/svg">
<path fill-rule="evenodd" clip-rule="evenodd" d="M388.541 164.144C492.116 184.32 618.718 171.28 676.428 251.93C738.186 338.238 714.59 453.687 651.59 531.758C596.701 599.78 488.741 600.293 391.746 604.722C312.113 608.357 229.67 601.819 166.996 553.882C104.623 506.176 82.9695 434.582 76.9858 363.976C70.2327 284.292 61.9093 191.187 132.425 145.958C202.743 100.856 299.743 146.846 388.541 164.144Z" fill="#F2F6F8"/>
<path d="M129.786 560.952C133.584 556.595 139.081 554.095 144.861 554.095H608.912C613.634 554.095 618.204 555.766 621.813 558.812L634.95 569.902C649.196 581.928 640.692 605.185 622.049 605.185H135.192C118.026 605.185 108.836 584.981 120.117 572.042L129.786 560.952Z" fill="#D1D8DB"/>
<path d="M289.701 87.5766C296.543 87.5766 302.089 82.0306 302.089 75.1886V0.209595H277.313V75.1886C277.313 82.0306 282.86 87.5766 289.701 87.5766Z" fill="#FF9F3C"/>
<path d="M200.711 127.499C212.232 127.499 221.573 118.159 221.573 106.638V0.317993H179.85V106.638C179.85 118.159 189.19 127.499 200.711 127.499Z" fill="#FF9F3C"/>
<path d="M251.108 43.8924C254.529 43.8924 257.302 41.1209 257.302 37.6999V0.209595H244.916V37.6999C244.916 41.1209 247.689 43.8924 251.108 43.8924Z" fill="#FF9F3C"/>
<path d="M381.16 110.283C374.318 110.283 368.773 115.83 368.773 122.672V229.456C368.773 236.297 374.318 241.843 381.16 241.843C388 241.843 393.548 236.297 393.548 229.456V122.672C393.548 115.83 388 110.283 381.16 110.283Z" fill="#FF9F3C"/>
<path d="M312.708 153.28C316.129 153.28 318.903 150.507 318.903 147.087V93.6937C318.903 90.2728 316.129 87.5012 312.708 87.5012C309.288 87.5012 306.515 90.2728 306.515 93.6937V147.087C306.515 150.507 309.288 153.28 312.708 153.28Z" fill="#FF9F3C"/>
<path d="M318.992 69.6628C328.241 69.6208 335.762 77.0918 335.789 86.3328L335.888 118.88C335.91 125.664 341.147 131.567 347.926 131.764C354.948 131.968 360.703 126.337 360.703 119.363V78.6197C360.703 69.5497 368.055 62.1976 377.125 62.1976H393.452C402.458 62.1976 409.771 69.4473 409.873 78.4297C409.874 78.5341 409.958 78.6197 410.063 78.6197C410.167 78.6197 410.252 78.7044 410.252 78.8088V148.287V297.336C410.252 301.043 413.257 304.048 416.962 304.048H419.49C423.197 304.048 426.2 307.051 426.2 310.757V320.469V331.524C426.2 345.206 437.294 356.298 450.976 356.298C464.657 356.298 475.751 345.206 475.751 331.524V327.932C475.751 318.039 483.771 310.019 493.665 310.019H503.617C513.511 310.019 521.533 318.039 521.533 327.932V345.591C521.533 351.505 526.326 356.298 532.239 356.298H559.807C565.734 356.298 570.135 351.379 570.255 345.453C570.328 341.811 573.304 338.881 576.964 338.881C580.669 338.881 583.674 341.885 583.674 345.591V367.246V386.073C583.674 389.777 586.678 392.782 590.384 392.782H590.439C594.146 392.782 597.149 389.777 597.149 386.073V367.246V358.818C597.149 355.313 599.711 352.182 603.2 351.85C607.202 351.469 610.569 354.606 610.569 358.528V367.218C610.569 367.234 610.582 367.246 610.598 367.246C610.613 367.246 610.626 367.259 610.626 367.274V400.547C610.626 407.991 616.659 414.024 624.103 414.024C631.545 414.024 637.578 407.991 637.578 400.547V394.688C637.578 390.981 640.583 387.978 644.288 387.978H657.821C661.528 387.978 664.531 390.981 664.531 394.688V400.547C664.531 407.991 670.564 414.024 678.008 414.024C685.45 414.024 691.483 407.991 691.483 400.547V390.938C691.483 383.761 696.9 377.493 704.062 377.029C711.912 376.522 718.436 382.738 718.436 390.476V423.972C718.436 431.149 723.852 437.417 731.014 437.881C738.863 438.388 745.388 432.174 745.388 424.433V15.2096C745.388 6.92533 738.644 0.209595 730.36 0.209595C608.71 0.209595 536.036 0.209595 410.252 0.209595H360.703H335.928H326.154C317.87 0.209595 311.154 6.92533 311.154 15.2096V61.567C311.154 65.9389 314.62 69.6816 318.992 69.6628Z" fill="#FF9F3C"/>
<path d="M624.103 414.024C616.659 414.024 610.626 407.991 610.626 400.547V367.246H610.57V358.529C610.57 354.823 607.565 351.819 603.858 351.819C603.642 351.819 603.422 351.83 603.2 351.85C599.711 352.182 597.149 355.313 597.149 358.818V367.246V386.073C597.149 389.777 594.146 392.782 590.439 392.782H590.384C586.678 392.782 583.674 389.777 583.674 386.073V367.246V345.591C583.674 341.885 580.669 338.881 576.964 338.881C573.304 338.881 570.328 341.811 570.256 345.453C570.135 351.379 565.734 356.298 559.807 356.298H532.239C526.326 356.298 521.533 351.505 521.533 345.591V327.933C521.533 318.039 513.511 310.019 503.618 310.019H501.536V270.686C501.536 268.767 500.882 266.998 499.783 265.595L500.073 263.248C500.075 263.232 500.078 263.217 500.079 263.201C500.079 263.196 500.079 263.193 500.081 263.19C500.082 263.176 500.083 263.163 500.085 263.148V263.143C500.16 262.471 500.15 261.819 500.066 261.197V261.193C500.063 261.18 500.062 261.165 500.06 261.151C500.059 261.149 500.059 261.147 500.059 261.147C500.057 261.131 500.054 261.116 500.053 261.102C500.052 261.099 500.052 261.097 500.052 261.094C500.05 261.083 500.047 261.071 500.046 261.06C500.046 261.054 500.044 261.048 500.043 261.044C500.043 261.035 500.04 261.026 500.04 261.018C500.038 261.012 500.037 261.004 500.037 260.999C500.036 260.991 500.034 260.984 500.033 260.976C500.03 260.961 500.028 260.948 500.025 260.933C500.024 260.929 500.024 260.926 500.024 260.923C500.021 260.913 500.02 260.903 500.018 260.893C500.018 260.89 500.017 260.889 500.017 260.886C499.43 257.608 496.725 255.225 493.178 255.222L491.202 255.221C491.202 255.221 491.198 255.221 491.196 255.221C486.845 255.221 482.874 258.81 482.329 263.238L475.358 319.802H475.357L475.151 321.488C475.107 321.834 475.087 322.175 475.087 322.51C475.09 323.724 475.368 324.854 475.871 325.836C475.792 326.524 475.751 327.224 475.751 327.933V331.525C475.751 345.206 464.657 356.298 450.976 356.298C437.294 356.298 426.2 345.206 426.2 331.525V320.469V310.757C426.2 307.051 423.197 304.048 419.49 304.048H416.962C413.257 304.048 410.252 301.043 410.252 297.336V159.829C421.094 140.396 441.857 127.254 465.69 127.254C500.727 127.254 529.13 155.656 529.13 190.693C529.13 194.681 532.386 197.308 535.773 197.306C537.429 197.306 539.117 196.678 540.47 195.275C549.653 185.757 562.535 179.837 576.806 179.837C604.7 179.837 627.312 202.451 627.312 230.345V413.638C626.284 413.89 625.209 414.024 624.103 414.024ZM617.072 361.289L615.346 399.177C615.346 401.791 616.406 403.91 617.712 403.91C619.019 403.91 620.079 401.791 620.079 399.177L617.072 361.289ZM413.24 260.358L411.803 291.906C411.803 294.082 412.685 295.848 413.773 295.848C414.862 295.848 415.743 294.082 415.743 291.906L413.24 260.358Z" fill="#FF9527"/>
<path d="M617.712 403.91C616.406 403.91 615.346 401.791 615.346 399.177L617.073 361.289L620.079 399.177C620.079 401.791 619.019 403.91 617.712 403.91Z" fill="#FFF9F9"/>
<path d="M413.773 295.848C412.684 295.848 411.803 294.082 411.803 291.906L413.24 260.358L415.743 291.906C415.743 294.082 414.862 295.848 413.773 295.848Z" fill="#FFF9F9"/>
<path d="M373.664 232.849C372.48 232.849 371.522 230.929 371.522 228.562L373.084 194.25L375.807 228.562C375.807 230.929 374.848 232.849 373.664 232.849Z" fill="#FFF9F9"/>
<path d="M343.404 121.994C342.098 121.994 341.038 119.873 341.038 117.259L342.765 79.3706L345.771 117.259C345.771 119.873 344.711 121.994 343.404 121.994Z" fill="#FFF9F9"/>
<path d="M329.154 0.317993H311.154V18.318H329.154V0.317993Z" fill="#FF9F3C"/>
<path d="M601.946 570.251C599.173 569.852 596.161 570.063 593.366 570.063C584.348 570.063 575.331 570.061 566.314 570.061C548.281 570.061 530.246 570.064 512.213 570.077C512.363 569.727 512.696 562.527 511.29 563.33C512.685 562.532 513.583 560.967 513.352 559.194C513.078 557.111 511.193 555.612 509.091 555.612H406.106C404.418 555.612 402.798 556.431 401.909 557.864C401.173 559.05 401.251 560.052 401.534 560.966C390.945 560.966 380.372 560.335 369.786 560.148C361.23 559.996 350.12 558.694 342.01 561.826C335.41 564.375 335.927 573.936 343.635 573.936H430.509C433.527 573.936 435.832 576.446 435.811 579.462V579.525V588.208C435.811 593.434 440.047 597.67 445.274 597.67C471.44 597.67 497.604 597.67 523.771 597.67C539.094 597.67 554.417 597.67 569.741 597.67C575.702 597.67 581.664 597.67 587.626 597.67C593.456 597.67 602.475 599.327 607.262 596.007C616.001 589.946 612.571 571.786 601.946 570.251Z" fill="#FF9F3C"/>
<path d="M448.671 592.761C446.35 592.76 444.471 591.82 444.471 590.66C444.472 589.5 446.352 588.563 448.668 588.563C448.67 588.563 448.671 588.563 448.672 588.563L482.294 590.118L448.671 592.761Z" fill="#FFF9F9"/>
<path d="M409.181 562.705C406.862 562.702 404.981 561.762 404.983 560.6C404.983 559.443 406.863 558.505 409.18 558.505C409.183 558.505 409.184 558.505 409.185 558.505L429.545 559.447C429.574 560.016 429.617 560.567 429.678 561.093L409.181 562.705Z" fill="#FFF9F9"/>
<path d="M512.172 564.556C512.042 563.794 511.83 563.267 511.498 563.267C511.432 563.267 511.364 563.288 511.29 563.33C512.685 562.532 513.583 560.967 513.352 559.194C513.205 558.08 512.599 557.135 511.747 556.496L511.786 555.155L511.8 555.034C511.796 555.072 511.791 555.108 511.786 555.145L511.836 553.439H527.048C526.755 553.802 526.413 554.13 526.028 554.412L512.172 564.556Z" fill="#A5A7A9"/>
<path d="M527.513 552.769H511.855L512.026 546.887C512.128 546.063 512.251 545.276 512.336 544.552L522.772 544.515C522.779 544.515 522.787 544.515 522.793 544.515C525.816 544.515 528.269 546.967 528.269 549.991C528.269 550.982 528.001 551.938 527.513 552.769Z" fill="#D4D0CD"/>
<path d="M527.048 553.439H511.836L511.855 552.769H527.513C527.375 553.003 527.22 553.227 527.048 553.439Z" fill="#D4D0CD"/>
<path d="M434.454 541V528.003C434.454 526.097 434.852 524.282 435.571 522.639L445.618 522.646C443.523 523.522 442.051 525.591 442.051 528.003V540.356C438.452 540.348 436.268 540.342 436.241 540.339C436.171 540.33 436.102 540.326 436.031 540.326C435.508 540.326 434.975 540.562 434.454 541ZM488.82 522.199H471.601C473.851 521.597 475.892 520.437 477.575 518.918C478.912 517.705 480.048 516.245 480.884 514.602H488.82C491.946 514.602 494.557 512.044 494.622 508.919L496.817 403.719H496.326C498.434 402.458 500.003 400.238 500.316 397.71L501.571 387.523H507.984V398.244C507.984 400.592 506.498 402.579 504.42 403.356L502.216 509.075C502.068 516.312 496.058 522.199 488.82 522.199ZM468.127 515.063L444.409 515.049C445.509 514.757 446.664 514.602 447.856 514.602H470.402C469.666 514.903 468.901 515.063 468.156 515.063C468.148 515.063 468.141 515.063 468.134 515.063H468.127Z" fill="#D5D0CD"/>
<path d="M507.984 387.523H501.571L506.428 348.102C507.404 349.347 507.984 350.916 507.984 352.619V387.523Z" fill="black" fill-opacity="0.32"/>
<path d="M387.916 578.941L252.925 578.091C253.716 577.324 254.254 576.287 254.38 575.108L254.646 572.602L261.312 565.869C262.062 566.614 263.06 567.121 264.192 567.248C264.379 567.27 264.563 567.28 264.747 567.28C267.193 567.28 269.302 565.442 269.583 562.954L269.645 562.406H340.815C335.507 565.575 336.428 573.936 343.635 573.936H385.141L385.266 575.108C385.449 576.814 386.491 578.219 387.916 578.941Z" fill="#B5C8D0"/>
<path d="M385.141 573.936H343.635C336.428 573.936 335.507 565.575 340.816 562.406H370.428L370.49 562.954C370.772 565.442 372.881 567.28 375.327 567.28C375.509 567.28 375.695 567.27 375.881 567.248C377.016 567.121 378.015 566.611 378.766 565.864L384.945 572.089L385.141 573.936Z" fill="#FF9F3C"/>
<path d="M263.583 270.965L264.802 357.656C264.802 359.416 280.213 363.103 299.228 363.103C318.24 363.103 333.653 359.416 333.653 357.656L334.872 270.965H263.583Z" fill="#2E3A5C"/>
<path d="M334.814 275.529H263.428C262.169 275.529 261.146 274.508 261.146 273.247C261.146 271.986 262.169 270.965 263.428 270.965H334.814C336.074 270.965 337.095 271.986 337.095 273.247C337.095 274.508 336.074 275.529 334.814 275.529Z" fill="#2E3A5C"/>
<path d="M316.633 358.652H265.989C265.215 358.284 264.802 357.945 264.802 357.656V344.388C268.057 345.419 271.871 346.157 275.985 346.157C277.311 346.157 278.667 346.081 280.046 345.912C286.299 348.971 293.595 350.511 301.878 350.511C302.794 350.511 303.724 350.491 304.663 350.454C315.22 350.03 323.874 346.095 330.383 338.759C331.579 337.412 332.659 335.975 333.653 334.487V327.743C332.085 330.902 330.179 333.884 327.849 336.509C321.974 343.13 314.128 346.683 304.528 347.067C303.626 347.105 302.735 347.123 301.856 347.123C295.97 347.123 290.63 346.295 285.863 344.653C286.738 344.378 287.616 344.06 288.496 343.696C311.258 334.286 323.922 314.802 330.561 295.555C331.711 294.783 332.467 293.47 332.467 291.98V289.472C332.525 289.267 332.583 289.064 332.639 288.859C332.908 289.115 333.262 289.285 333.653 289.322V285.965C333.564 285.974 333.477 285.989 333.392 286.011C333.803 284.376 334.173 282.758 334.506 281.159L333.654 357.629H318.303C317.575 357.629 316.943 358.045 316.633 358.652Z" fill="#212940"/>
<path d="M290.163 270.529V270.59H272.215C270.496 270.59 269.103 271.983 269.103 273.701V280.991C269.103 282.004 269.797 282.945 270.797 283.108C272.073 283.315 273.176 282.336 273.176 281.1V279.591C273.176 275.646 276.617 272.564 280.534 273.027C280.679 273.045 280.822 273.063 280.965 273.084C286.294 273.84 290.163 278.565 290.163 283.947C290.163 287.088 290.163 290.51 290.163 292.704C290.163 295.035 291.907 297.122 294.234 297.244C296.716 297.374 298.767 295.399 298.767 292.947V279.385C298.767 278.368 299.398 277.425 300.366 277.122C300.669 277.026 300.989 276.976 301.325 276.976C301.992 276.976 302.611 277.179 303.124 277.527C303.739 277.944 304.058 278.682 304.058 279.425V299.768C304.058 301.091 304.951 302.248 306.231 302.582L306.232 302.583C307.969 303.037 309.178 304.604 309.178 306.399C309.178 309.337 309.178 313.655 309.178 316.404C309.178 319.032 311.1 321.37 313.716 321.62C316.717 321.907 319.243 319.554 319.243 316.611V276.776C319.243 275.542 320.242 274.542 321.474 274.539C321.648 274.539 321.819 274.553 321.986 274.58C323.093 274.757 323.863 275.786 323.863 276.908C323.863 280.007 323.863 287.821 323.863 291.737C323.863 294.066 325.608 296.154 327.934 296.276C330.415 296.406 332.467 294.433 332.467 291.98V274.299C332.467 272.213 330.775 270.523 328.689 270.523L290.163 270.529Z" fill="#FE9B35"/>
<path d="M311.754 318.984C310.872 318.984 310.158 318.269 310.158 317.386L311.112 297.186L313.352 317.386C313.352 318.269 312.637 318.984 311.754 318.984Z" fill="#FFF9F9"/>
<path d="M325.544 293.392C325.103 293.392 324.745 293.036 324.745 292.595L325.222 282.493L326.343 292.595C326.343 293.036 325.984 293.392 325.544 293.392Z" fill="#FFF9F9"/>
<path d="M305.479 301.572C304.991 301.572 304.595 301.177 304.595 300.689L305.125 289.509L306.364 300.689C306.364 301.177 305.967 301.572 305.479 301.572Z" fill="#FFF9F9"/>
<path d="M291.85 294.546C291.361 294.546 290.966 294.151 290.966 293.663L291.495 282.483L292.733 293.663C292.733 294.151 292.337 294.546 291.85 294.546Z" fill="#FFF9F9"/>
<path d="M269.814 281.561C269.57 281.561 269.372 281.363 269.372 281.118L269.595 276.415H269.735L270.256 281.118C270.256 281.363 270.058 281.561 269.814 281.561Z" fill="#FFF9F9"/>
<path d="M280.046 345.912C275.839 343.854 272.103 341.107 268.86 337.679C267.351 336.085 266.013 334.386 264.802 332.626V326.096C266.536 329.41 268.68 332.562 271.331 335.361C275.343 339.598 280.199 342.702 285.863 344.653C283.897 345.273 281.951 345.68 280.046 345.912Z" fill="#212940"/>
<path d="M301.878 350.511C293.595 350.511 286.299 348.971 280.046 345.912C281.951 345.68 283.897 345.273 285.863 344.653C290.63 346.296 295.969 347.123 301.856 347.123C302.734 347.123 303.626 347.105 304.527 347.067C314.127 346.683 321.974 343.13 327.849 336.509C330.178 333.884 332.085 330.902 333.653 327.743V334.487C332.658 335.975 331.579 337.412 330.383 338.759C323.874 346.095 315.219 350.03 304.662 350.454C303.723 350.492 302.793 350.511 301.878 350.511Z" fill="#191E2C"/>
<path d="M332.639 288.859C332.578 288.8 332.52 288.737 332.467 288.669V286.619C332.695 286.324 333.019 286.107 333.392 286.012C333.155 286.956 332.904 287.906 332.639 288.859Z" fill="#212940"/>
<path d="M333.653 289.322C333.262 289.285 332.908 289.115 332.639 288.859C332.904 287.906 333.155 286.956 333.392 286.011C333.477 285.989 333.564 285.974 333.653 285.965V289.322Z" fill="#191E2C"/>
<path d="M264.802 288.991V286.296C265.211 286.604 265.48 287.091 265.48 287.644C265.48 288.196 265.211 288.682 264.802 288.991Z" fill="#212940"/>
<path d="M262.566 282.787H254.613L254.466 284.32C254.461 284.364 254.258 286.505 254.258 289.981C254.267 297.641 255.218 311.777 261.644 324.231C264.86 330.453 269.477 336.258 276.046 340.492C282.611 344.728 291.093 347.352 301.871 347.348C302.786 347.348 303.716 347.329 304.663 347.29C313.64 346.937 320.732 344.034 326.165 339.635C334.324 333.03 338.745 323.243 341.18 313.816C343.612 304.375 344.055 295.224 344.057 289.685C344.057 286.397 343.898 284.383 343.896 284.347L343.772 282.787H336.291C335.356 282.787 334.597 283.546 334.597 284.481C334.597 285.417 335.356 286.175 336.291 286.175H342.207V284.481L340.518 284.614L340.523 284.692C340.55 285.08 340.668 286.903 340.668 289.685C340.676 296.822 339.871 310.281 334.902 321.901C332.422 327.716 328.923 333.051 324.035 336.999C319.14 340.944 312.858 343.562 304.528 343.904C303.625 343.94 302.74 343.958 301.871 343.958C291.633 343.954 283.868 341.498 277.881 337.644C273.393 334.749 269.893 331.051 267.149 326.925C263.036 320.741 260.643 313.587 259.297 306.93C257.949 300.274 257.646 294.126 257.647 289.981C257.647 288.31 257.696 286.965 257.744 286.042C257.768 285.581 257.792 285.225 257.81 284.988C257.819 284.869 257.827 284.78 257.832 284.723L257.839 284.643L256.152 284.481V286.175H262.566C263.502 286.175 264.26 285.417 264.26 284.481C264.26 283.546 263.502 282.787 262.566 282.787Z" fill="#535E7E"/>
<path d="M334.777 276.415H332.467V275.529H334.803L334.777 276.415Z" fill="#28314E"/>
<path d="M334.803 275.529H332.467V275.274H334.811L334.803 275.529Z" fill="#28314E"/>
<path d="M323.813 276.415H319.273C319.325 276.091 319.447 275.79 319.623 275.529H323.442C323.62 275.793 323.747 276.095 323.813 276.415Z" fill="#28314E"/>
<path d="M323.442 275.529H319.623C319.683 275.439 319.75 275.354 319.822 275.274H323.243C323.315 275.354 323.381 275.439 323.442 275.529Z" fill="#28314E"/>
<path d="M287.242 276.415H273.987C274.158 276.103 274.353 275.807 274.57 275.529H286.328C286.65 275.806 286.955 276.103 287.242 276.415Z" fill="#28314E"/>
<path d="M286.329 275.529H274.57C274.638 275.443 274.708 275.358 274.779 275.274H286.023C286.125 275.358 286.228 275.441 286.329 275.529Z" fill="#28314E"/>
<path d="M269.103 276.415H263.677L263.652 275.529H269.103V276.415Z" fill="#28314E"/>
<path d="M269.103 275.529H263.652L263.645 275.274H269.103V275.529Z" fill="#28314E"/>
<path d="M332.467 276.415H323.812C323.747 276.095 323.619 275.793 323.442 275.529C323.381 275.439 323.315 275.354 323.243 275.274H332.467V275.529V276.415ZM319.273 276.415H287.242C286.955 276.103 286.65 275.806 286.329 275.529C286.228 275.442 286.125 275.358 286.022 275.274H319.822C319.75 275.354 319.683 275.439 319.623 275.529C319.447 275.79 319.324 276.091 319.273 276.415ZM273.987 276.415H269.735L269.636 275.529L269.595 276.415H269.103V275.529V275.274H274.779C274.708 275.358 274.638 275.443 274.57 275.529C274.353 275.807 274.159 276.103 273.987 276.415Z" fill="#F97E00"/>
<path d="M269.735 276.415H269.595L269.636 275.529L269.735 276.415Z" fill="#CF987C"/>
<path d="M271.816 272.527C271.493 272.527 271.223 272.273 271.206 271.948C271.189 271.611 271.449 271.325 271.785 271.309L271.829 271.307L288.712 271.673L271.847 272.526C271.836 272.527 271.826 272.527 271.816 272.527Z" fill="#FAB68F"/>
<path d="M269.103 273.701V275.529H274.579C275.941 273.785 278.146 272.745 280.534 273.027C280.679 273.045 280.822 273.063 280.965 273.084C283.012 273.373 284.842 274.254 286.321 275.529H319.623C320.024 274.933 320.702 274.541 321.474 274.538C321.648 274.538 321.819 274.553 321.986 274.58C322.598 274.677 323.098 275.039 323.432 275.529H332.467V274.3C332.467 272.844 331.635 271.597 330.429 270.965H270.763C269.78 271.489 269.103 272.51 269.103 273.701Z" fill="#FE9B35"/>
<path d="M383.759 442.715H256.462C254.073 442.715 252.137 440.778 252.137 438.389V438.114C252.137 435.725 254.073 433.788 256.462 433.788H383.759C386.149 433.788 388.086 435.725 388.086 438.114V438.389C388.086 440.778 386.149 442.715 383.759 442.715Z" fill="#3D231B"/>
<path d="M252.138 438.33C252.137 438.304 252.137 438.278 252.137 438.252C252.137 438.228 252.137 438.204 252.138 438.181V438.33Z" fill="#C29C88"/>
<path d="M252.154 438.665C252.145 438.554 252.139 438.442 252.137 438.33V438.18C252.146 437.668 252.248 437.184 252.404 436.729C252.666 437.491 253.114 438.158 253.69 438.663H252.275C252.234 438.663 252.194 438.663 252.154 438.665ZM388.068 438.663H386.531C387.109 438.158 387.556 437.491 387.819 436.729C387.982 437.206 388.086 437.714 388.086 438.252C388.086 438.391 388.08 438.527 388.068 438.663Z" fill="#2F1C16"/>
<path d="M381.231 516.638H256.558C254.192 516.638 252.275 514.721 252.275 512.355V511.993C252.275 509.628 254.192 507.711 256.558 507.711H381.231C383.595 507.711 385.513 509.628 385.513 511.993V512.355C385.513 514.721 383.595 516.638 381.231 516.638Z" fill="#3D231B"/>
<path d="M379.04 516.638H375.059L374.714 513.591H378.716L379.04 516.638ZM365.249 516.638H274.824L275.168 513.591H364.904L365.249 516.638ZM265.014 516.638H260.606L260.931 513.591H265.359L265.014 516.638Z" fill="#2F1C16"/>
<path d="M348.444 368.127L370.49 562.954C370.792 565.629 373.206 567.552 375.881 567.248C378.555 566.946 380.478 564.533 380.174 561.858L358.13 367.031C357.827 364.357 355.414 362.434 352.739 362.736C350.065 363.038 348.142 365.453 348.444 368.127Z" fill="#3D231B"/>
<path d="M269.583 562.954L291.627 368.127C291.931 365.453 290.008 363.038 287.333 362.736C284.659 362.434 282.245 364.357 281.942 367.031L259.897 561.858C259.595 564.533 261.518 566.946 264.192 567.248C266.866 567.552 269.281 565.629 269.583 562.954Z" fill="#3D231B"/>
<path d="M386.094 376.505H254.267C250.702 376.505 247.812 373.615 247.812 370.05V365.107C247.812 361.542 250.702 358.652 254.267 358.652H386.094C389.659 358.652 392.548 361.542 392.548 365.107V370.05C392.548 373.615 389.659 376.505 386.094 376.505Z" fill="#542F23"/>
<path d="M394.959 574.073L372.913 367.062C372.629 364.387 370.229 362.448 367.552 362.732C364.875 363.018 362.936 365.418 363.222 368.095L385.267 575.107C385.551 577.782 387.952 579.72 390.629 579.436C393.306 579.151 395.244 576.75 394.959 574.073Z" fill="#542F23"/>
<path d="M254.38 575.107L276.424 368.095C276.709 365.418 274.771 363.018 272.094 362.732C269.417 362.448 267.017 364.387 266.733 367.062L244.687 574.073C244.402 576.75 246.34 579.151 249.017 579.436C251.694 579.72 254.094 577.782 254.38 575.107Z" fill="#542F23"/>
<path d="M390.7 534.083L390.397 531.235L390.233 529.708C390.558 529.53 390.856 529.313 391.125 529.063C391.974 529.535 392.547 530.434 392.547 531.476C392.547 532.683 391.774 533.699 390.7 534.083Z" fill="#54281D"/>
<path d="M390.397 531.235L390.233 529.708L390.397 531.235Z" fill="#201411"/>
<path d="M380.325 528.701H389.772C389.896 528.701 390.013 528.72 390.131 528.737L381.91 451.533H372.107L380.325 528.701Z" fill="#542F23"/>
<path d="M371.516 445.98H381.318L374.87 385.432H365.068L371.516 445.98Z" fill="#542F23"/>
<path d="M394.96 574.075L390.701 534.083C390.41 534.187 390.099 534.254 389.772 534.254H380.917L385.266 575.108C385.532 577.609 387.647 579.463 390.107 579.463C390.28 579.463 390.454 579.457 390.629 579.438C393.304 579.151 395.244 576.752 394.96 574.075Z" fill="#542F23"/>
<path d="M374.87 385.432L374.526 382.205L374.87 385.432ZM364.21 377.371L364.117 376.505L364.21 377.371Z" fill="#54281D"/>
<path d="M374.87 385.432H365.068L364.21 377.371L364.117 376.505H373.919L374.526 382.205L374.87 385.432Z" fill="#201411"/>
<path d="M350.403 385.432H350.376L349.958 381.501L350.403 385.432ZM359.644 380.417L359.202 376.505H359.228L359.644 380.417Z" fill="#54281D"/>
<path d="M360.179 385.432H350.404L349.959 381.501L349.426 376.505H359.202L359.645 380.417L360.179 385.432Z" fill="#1B1412"/>
<path d="M381.91 451.533L381.489 447.588L381.91 451.533ZM372.106 451.533L371.731 448.002L372.106 451.533Z" fill="#54281D"/>
<path d="M381.91 451.533H372.107L371.731 448.002L371.688 447.588H381.489L381.91 451.533Z" fill="#201411"/>
<path d="M390.7 534.083L390.397 531.235L390.7 534.083ZM380.835 533.492L380.49 530.258L380.835 533.492Z" fill="#54281D"/>
<path d="M389.771 534.254H380.916L380.835 533.492L380.49 530.258H388.086C388.865 530.258 389.596 530.059 390.233 529.708L390.397 531.235L390.7 534.083C390.408 534.187 390.098 534.254 389.771 534.254Z" fill="#201411"/>
<path d="M389.772 534.254H380.917H389.772C390.099 534.254 390.409 534.187 390.701 534.083C390.41 534.187 390.099 534.254 389.772 534.254Z" fill="#201411"/>
<path d="M276.424 368.096C276.709 365.418 274.771 363.019 272.094 362.734C269.43 362.447 267.017 364.387 266.731 367.062L265.727 376.505H275.528L276.424 368.096Z" fill="#542F23"/>
<path d="M259.322 528.7L267.539 451.533H257.736L249.496 528.924C249.83 528.78 250.201 528.7 250.588 528.7H259.322Z" fill="#542F23"/>
<path d="M274.578 385.432H264.775L258.328 445.98H268.131L274.578 385.432Z" fill="#542F23"/>
<path d="M248.984 533.735L244.687 574.075C244.402 576.752 246.342 579.151 249.017 579.438C249.192 579.457 249.367 579.463 249.539 579.463C251.999 579.463 254.112 577.609 254.38 575.108L258.73 534.254H250.588C249.988 534.254 249.436 534.059 248.984 533.735Z" fill="#542F23"/>
<path d="M264.776 385.432H264.775L265.727 376.505L264.776 385.432Z" fill="#54281D"/>
<path d="M274.578 385.432H264.776L265.726 376.505H275.528L274.578 385.432Z" fill="#201411"/>
<path d="M289.695 385.432H289.669L290.117 381.481L289.695 385.432ZM280.431 380.394L280.845 376.505H280.871L280.431 380.394Z" fill="#54281D"/>
<path d="M289.669 385.432H279.893L280.431 380.394L280.871 376.505H290.647L290.117 381.481L289.669 385.432Z" fill="#1B1412"/>
<path d="M267.539 451.533L267.843 448.68L267.539 451.533ZM257.737 451.533H257.736L258.156 447.588L257.737 451.533Z" fill="#54281D"/>
<path d="M267.539 451.533H257.737L258.156 447.588H267.958L267.842 448.68L267.539 451.533Z" fill="#201411"/>
<path d="M258.73 534.254L259.156 530.258L258.73 534.254ZM249.224 531.466L249.46 529.259L249.224 531.466Z" fill="#54281D"/>
<path d="M258.73 534.254H250.588C249.988 534.254 249.436 534.059 248.984 533.735L249.224 531.466L249.46 529.259C250.228 529.883 251.208 530.258 252.275 530.258H259.156L258.73 534.254Z" fill="#201411"/>
<path d="M388.087 447.588H252.275C249.809 447.588 247.812 445.59 247.812 443.124C247.812 440.66 249.809 438.663 252.275 438.663H388.087C390.551 438.663 392.548 440.66 392.548 443.124C392.548 445.59 390.551 447.588 388.087 447.588Z" fill="#542F23"/>
<path d="M388.087 447.588H252.275C249.809 447.588 247.812 445.59 247.812 443.124C247.812 442.588 247.921 442.08 248.096 441.603C248.72 443.315 250.347 444.543 252.275 444.543H388.087C390.014 444.543 391.641 443.315 392.265 441.603C392.44 442.08 392.548 442.588 392.548 443.124C392.548 445.59 390.551 447.588 388.087 447.588Z" fill="#42241B"/>
<path d="M386.094 376.505H373.919L373.401 371.632H386.094C389.659 371.632 392.548 368.742 392.548 365.176V370.05C392.548 373.615 389.659 376.505 386.094 376.505ZM364.117 376.505H275.528L276.048 371.632H328.012C328.012 372.085 328.012 372.523 328.012 372.872C328.012 373.633 328.568 374.308 329.324 374.38C329.373 374.385 329.421 374.388 329.467 374.388C330.271 374.388 330.922 373.736 330.922 372.933C330.922 372.499 330.922 372.066 330.922 371.632H363.599L364.117 376.505ZM265.727 376.505H254.267C250.702 376.505 247.812 373.615 247.812 370.05V365.176C247.812 368.742 250.702 371.632 254.267 371.632H266.245L265.727 376.505Z" fill="#43251C"/>
<path d="M373.919 376.505H364.117L363.599 371.632H373.401L373.919 376.505Z" fill="#43251C"/>
<path d="M275.528 376.505H265.727H275.528L276.047 371.632H276.048L275.528 376.505Z" fill="#43251C"/>
<path d="M275.528 376.505H265.727L266.245 371.632H276.047L275.528 376.505Z" fill="#43251C"/>
<path d="M388.087 530.258H252.275C249.809 530.258 247.812 528.261 247.812 525.795C247.812 523.33 249.809 521.331 252.275 521.331H388.087C390.551 521.331 392.548 523.33 392.548 525.795C392.548 528.261 390.551 530.258 388.087 530.258Z" fill="#542F23"/>
<path d="M388.087 530.258H252.275C251.208 530.258 250.228 529.883 249.46 529.259C248.454 528.441 247.812 527.193 247.812 525.795C247.812 525.221 247.929 524.677 248.127 524.173C248.777 525.833 250.383 527.013 252.275 527.013H388.087C389.978 527.013 391.583 525.833 392.234 524.173C392.432 524.677 392.548 525.221 392.548 525.795C392.548 527.481 391.614 528.949 390.234 529.708C389.597 530.059 388.865 530.258 388.087 530.258Z" fill="#42241B"/>
<path d="M348.213 357.63H318.303C317.268 357.63 316.43 358.468 316.43 359.502C316.43 359.716 316.485 359.913 316.551 360.104C316.482 360.233 316.43 360.373 316.43 360.53V362.637C316.43 362.929 316.631 363.202 316.919 363.25C317.755 363.386 317.562 362.376 317.608 361.898C317.628 361.683 317.727 361.454 317.927 361.372L318.266 361.339C319.21 361.383 320.122 361.39 321.064 361.321C321.65 361.278 321.856 361.459 322.126 361.958C322.382 362.428 322.517 362.958 322.517 363.493C322.517 364.4 322.517 365.389 322.517 366.023C322.517 366.697 323.021 367.3 323.694 367.335C324.412 367.372 325.005 366.802 325.005 366.092V362.173C325.005 361.88 325.185 361.607 325.467 361.518L325.743 361.477C325.936 361.477 326.115 361.536 326.263 361.637C326.442 361.756 326.533 361.97 326.533 362.184V368.064C326.533 368.448 326.79 368.781 327.161 368.879C327.664 369.01 328.012 369.463 328.012 369.981C328.012 370.831 328.012 372.079 328.012 372.873C328.012 373.633 328.568 374.308 329.324 374.38C330.193 374.464 330.922 373.783 330.922 372.933C330.922 370.849 330.922 368.767 330.923 366.683C330.925 365.744 330.921 364.805 330.922 363.866C330.922 363.396 330.675 361.495 331.168 361.352C331.39 361.288 331.626 361.267 331.857 361.292L332.134 361.378C332.466 361.609 332.287 362.273 332.293 362.612C332.314 363.655 332.257 364.699 332.257 365.742C332.257 366.417 332.761 367.02 333.434 367.055C334.152 367.093 334.745 366.522 334.745 365.813V363.499C334.745 362.326 335.696 361.375 336.869 361.375H348.213C349.246 361.375 350.086 360.537 350.086 359.502C350.086 358.468 349.246 357.63 348.213 357.63Z" fill="#FE9B35"/>
<path d="M328.759 372.952C328.503 372.952 328.295 372.746 328.295 372.492L328.572 366.652L329.22 372.492C329.22 372.746 329.013 372.952 328.759 372.952Z" fill="#FFF9F9"/>
<path d="M326.945 367.92C326.803 367.92 326.689 367.806 326.689 367.665L326.841 364.433L327.2 367.665C327.2 367.806 327.085 367.92 326.945 367.92Z" fill="#FFF9F9"/>
<path d="M323.004 365.889C322.864 365.889 322.75 365.774 322.75 365.634L322.902 362.403L323.259 365.634C323.259 365.774 323.146 365.889 323.004 365.889Z" fill="#FFF9F9"/>
<path d="M316.636 362.136L316.507 362.008L316.584 360.393L316.762 362.008L316.636 362.136Z" fill="#FFF9F9"/>
<path d="M448.61 550.798L426.432 550.786C425.038 550.774 424.03 550.29 423.277 549.538C422.535 548.775 422.051 547.711 422.045 546.327C422.045 546.096 422.059 545.856 422.09 545.608L424.17 528.733C424.361 527.123 425.221 525.555 426.483 524.417C427.745 523.276 429.328 522.63 430.832 522.637H430.851L430.833 518.886L430.566 522.628C430.704 522.637 430.802 522.637 430.837 522.637C430.845 522.637 430.848 522.637 430.851 522.637L430.833 518.886L430.566 522.628L430.699 522.637L468.125 522.66H468.127H468.164L468.134 519.252V522.66H468.164L468.134 519.252V522.66C471.75 522.653 475.061 521.187 477.575 518.918C480.087 516.642 481.883 513.496 482.331 509.897L501.993 350.367L494.454 349.438L474.792 508.968C474.601 510.577 473.741 512.145 472.479 513.282C471.219 514.425 469.635 515.069 468.134 515.063L468.097 515.064L468.127 518.475V515.063L468.097 515.064L468.127 518.475V515.063L430.838 515.041L430.836 518.839L431.106 515.05L430.858 515.041H430.814L430.832 518.61V515.041H430.814L430.832 518.61V515.041C427.215 515.047 423.904 516.512 421.39 518.783C418.877 521.057 417.08 524.203 416.629 527.803L414.551 544.678C414.482 545.231 414.449 545.783 414.449 546.327C414.443 549.596 415.686 552.659 417.855 554.859C420.012 557.071 423.096 558.389 426.427 558.381L448.606 558.394L448.61 550.798Z" fill="#542F23"/>
<path d="M509.816 540.479C509.816 540.479 436.398 540.357 436.241 540.339C433.6 540.015 430.711 545.864 429.791 553.402C429.151 558.644 429.634 563.26 430.876 565.697C431.249 566.821 431.985 567.555 433.298 567.579L507.131 567.503C509.457 567.267 511.191 564.169 511.627 560.632L512.027 546.887C512.463 543.351 513.291 540.482 509.816 540.479Z" fill="#FFEAC5"/>
<path d="M509.816 540.48C509.816 540.48 489.372 540.445 470.038 540.411C467.907 540.408 466.178 542.134 466.178 544.265C466.178 546.395 464.452 548.12 462.323 548.12H430.82C430.377 549.727 430.022 551.511 429.791 553.402C429.641 554.623 429.56 555.805 429.528 556.939H465.858C469.637 556.939 472.954 558.919 474.83 561.897C477.009 565.357 480.738 567.53 484.827 567.525L507.131 567.503C509.457 567.267 511.191 564.169 511.627 560.633L512.027 546.887C512.463 543.351 513.291 540.482 509.816 540.48Z" fill="#FF9F3C"/>
<path d="M503.957 567.62C503.956 567.62 503.955 567.62 503.955 567.62L435.65 567.579C435.596 567.579 435.541 567.579 435.487 567.576L505.17 567.504C504.773 567.58 504.368 567.62 503.957 567.62Z" fill="#E73121"/>
<path d="M511.786 555.155V555.145C511.791 555.108 511.796 555.071 511.8 555.034L511.786 555.155Z" fill="#C78446"/>
<path d="M435.487 567.576C432.096 567.486 429.715 564.651 430.145 561.172L430.667 556.939H430.964C431.458 559.521 433.606 561.391 436.413 561.394L474.509 561.417C474.62 561.574 474.726 561.734 474.829 561.897C477.006 565.353 480.73 567.525 484.813 567.525C484.818 567.525 484.822 567.525 484.827 567.525L505.17 567.504L435.487 567.576Z" fill="#FFE1AB"/>
<path d="M484.813 567.525C480.73 567.525 477.006 565.353 474.829 561.897C474.727 561.734 474.62 561.574 474.509 561.417L504.717 561.435H504.719C508.157 561.435 511.298 558.63 511.786 555.145V555.155L511.038 561.22C510.654 564.339 508.142 566.936 505.17 567.504L484.827 567.525C484.822 567.525 484.818 567.525 484.813 567.525ZM430.964 556.939H430.667L430.907 554.986C430.824 555.667 430.847 556.323 430.964 556.939Z" fill="#FF9120"/>
<path d="M429.582 559.857C429.521 558.936 429.502 557.96 429.528 556.939H429.854C429.834 557.113 429.812 557.288 429.791 557.464C429.69 558.282 429.628 559.076 429.582 559.857ZM429.534 556.731C429.562 555.806 429.629 554.848 429.737 553.861C429.629 554.845 429.565 555.804 429.534 556.731ZM429.739 553.851C429.74 553.842 429.741 553.834 429.741 553.827C429.741 553.834 429.74 553.842 429.739 553.851ZM429.791 553.402C429.867 552.782 429.956 552.172 430.056 551.578C429.956 552.172 429.867 552.782 429.791 553.402ZM430.058 551.577C430.062 551.55 430.067 551.523 430.071 551.496C430.067 551.523 430.062 551.55 430.058 551.577ZM430.072 551.488C430.077 551.465 430.081 551.439 430.085 551.415C430.081 551.439 430.077 551.464 430.072 551.488ZM430.087 551.399C430.092 551.376 430.096 551.353 430.1 551.331C430.096 551.353 430.092 551.376 430.087 551.399ZM430.103 551.316C430.107 551.294 430.11 551.273 430.114 551.251C430.11 551.273 430.107 551.294 430.103 551.316ZM430.118 551.226C430.122 551.208 430.125 551.19 430.128 551.172C430.125 551.19 430.122 551.208 430.118 551.226ZM430.134 551.141C430.137 551.124 430.14 551.109 430.143 551.093C430.14 551.109 430.137 551.124 430.134 551.141ZM430.153 551.038C430.154 551.029 430.156 551.02 430.158 551.012C430.156 551.02 430.154 551.029 430.153 551.038ZM430.17 550.946C430.171 550.941 430.172 550.937 430.172 550.932C430.172 550.937 430.171 550.941 430.17 550.946ZM430.188 550.855C430.188 550.854 430.188 550.854 430.188 550.854C430.188 550.854 430.188 550.854 430.188 550.855ZM430.588 549.012C430.588 549.01 430.588 549.009 430.589 549.008C430.588 549.009 430.588 549.01 430.588 549.012ZM430.606 548.941C430.608 548.928 430.611 548.915 430.615 548.902C430.611 548.915 430.608 548.928 430.606 548.941ZM430.622 548.87C430.628 548.852 430.631 548.833 430.637 548.816C430.631 548.834 430.628 548.852 430.622 548.87ZM430.64 548.801C430.646 548.778 430.652 548.755 430.657 548.731C430.652 548.755 430.646 548.778 430.64 548.801ZM430.658 548.73C431.923 543.769 434.031 540.326 436.031 540.326C436.102 540.326 436.172 540.33 436.241 540.339C436.363 540.353 480.308 540.429 500.216 540.463C492.466 540.45 481.07 540.431 470.038 540.411C470.036 540.411 470.033 540.411 470.031 540.411C467.903 540.411 466.178 542.136 466.178 544.265C466.178 544.331 466.175 544.395 466.173 544.459C450.527 544.429 436.597 544.403 436.248 544.403C436.245 544.403 436.242 544.403 436.241 544.403C433.743 544.405 432.359 545.791 431.486 548.12H430.821C430.765 548.321 430.711 548.524 430.658 548.73ZM509.816 540.48C509.816 540.48 509.794 540.48 509.753 540.48C509.794 540.48 509.816 540.48 509.816 540.48Z" fill="#FFF7EA"/>
<path d="M429.854 556.939H429.528C429.529 556.87 429.531 556.801 429.534 556.731C429.565 555.804 429.629 554.845 429.737 553.861C429.737 553.857 429.739 553.855 429.739 553.851C429.74 553.842 429.741 553.834 429.741 553.827C429.757 553.685 429.773 553.544 429.791 553.402C429.867 552.782 429.956 552.172 430.056 551.578L430.058 551.577C430.061 551.55 430.067 551.523 430.07 551.496C430.072 551.493 430.072 551.491 430.072 551.488C430.077 551.464 430.081 551.439 430.085 551.415C430.086 551.41 430.087 551.404 430.087 551.399C430.092 551.376 430.096 551.353 430.1 551.331C430.1 551.326 430.101 551.321 430.103 551.316C430.106 551.294 430.11 551.273 430.114 551.251C430.115 551.242 430.117 551.235 430.118 551.226C430.122 551.208 430.124 551.19 430.128 551.172C430.13 551.161 430.132 551.151 430.133 551.141C430.137 551.124 430.14 551.109 430.142 551.093C430.146 551.074 430.149 551.056 430.153 551.038C430.154 551.029 430.155 551.02 430.158 551.012C430.162 550.99 430.166 550.968 430.169 550.946C430.171 550.941 430.172 550.937 430.172 550.932C430.177 550.907 430.182 550.881 430.188 550.855V550.854C430.307 550.221 430.442 549.606 430.588 549.012L430.589 549.008C430.594 548.986 430.599 548.963 430.606 548.941C430.608 548.928 430.611 548.915 430.615 548.902C430.617 548.892 430.62 548.881 430.622 548.87C430.627 548.852 430.631 548.834 430.636 548.816C430.638 548.81 430.639 548.806 430.64 548.801C430.645 548.778 430.652 548.755 430.657 548.731L430.658 548.73C430.711 548.524 430.765 548.321 430.82 548.12H431.485C430.656 550.334 430.285 553.399 429.854 556.939ZM512.184 545.708C511.856 544.977 511.16 544.543 509.816 544.543C509.816 544.543 486.541 544.498 466.173 544.459C466.175 544.395 466.178 544.331 466.178 544.265C466.178 542.136 467.903 540.411 470.03 540.411C470.033 540.411 470.036 540.411 470.038 540.411C481.07 540.431 492.465 540.45 500.216 540.463C505.613 540.472 509.243 540.478 509.752 540.48C509.794 540.48 509.816 540.48 509.816 540.48C509.827 540.48 509.839 540.48 509.85 540.48H509.852C509.863 540.48 509.875 540.48 509.886 540.48H509.888C512.89 540.517 512.591 542.759 512.184 545.708Z" fill="#FFBF7C"/>
<path d="M492.442 404.824L490.687 404.823C486.824 404.82 484.085 401.631 484.57 397.7L490.939 346.01C491.424 342.079 494.949 338.893 498.813 338.895L500.566 338.897C504.431 338.899 507.17 342.088 506.685 346.019L500.316 397.71C499.831 401.64 496.306 404.826 492.442 404.824Z" fill="#57565C"/>
<path d="M492.446 404.824C492.445 404.824 492.444 404.824 492.443 404.824L490.688 404.823C489.592 404.821 488.585 404.564 487.717 404.106C488.585 404.564 489.592 404.821 490.688 404.823L492.443 404.824C492.444 404.824 492.445 404.824 492.446 404.824Z" fill="#47271D"/>
<path d="M495.357 404.214C495.69 404.071 496.014 403.905 496.325 403.719C496.014 403.907 495.69 404.071 495.357 404.214Z" fill="#FAC095"/>
<path d="M506.428 348.102L506.685 346.019C506.687 346.005 506.689 345.991 506.691 345.976C506.689 345.991 506.687 346.005 506.685 346.019L506.428 348.102Z" fill="#EF3A1F"/>
<path d="M496.325 403.719C498.434 402.458 500.003 400.238 500.316 397.71L501.571 387.523L500.316 397.71C500.003 400.238 498.434 402.458 496.325 403.719Z" fill="#C09678"/>
<path d="M492.462 404.824C493.466 404.821 494.447 404.604 495.357 404.214C494.447 404.604 493.466 404.821 492.462 404.824Z" fill="#47271D"/>
<path d="M484.569 397.7L484.752 396.204H484.753L484.569 397.7ZM506.692 345.968C506.693 345.955 506.694 345.943 506.696 345.93C506.694 345.943 506.693 345.955 506.692 345.968ZM506.696 345.925C506.762 345.33 506.753 344.751 506.679 344.199C506.753 344.751 506.762 345.33 506.696 345.925ZM506.679 344.195C506.676 344.183 506.675 344.169 506.674 344.158C506.675 344.171 506.676 344.183 506.679 344.195ZM506.672 344.154C506.671 344.141 506.669 344.127 506.667 344.114C506.669 344.127 506.671 344.14 506.672 344.154ZM506.666 344.108C506.665 344.097 506.662 344.087 506.661 344.077C506.662 344.087 506.665 344.097 506.666 344.108ZM506.658 344.062C506.657 344.053 506.657 344.047 506.656 344.039C506.656 344.047 506.658 344.055 506.658 344.062ZM506.653 344.023C506.652 344.016 506.651 344.01 506.649 344.002C506.651 344.01 506.652 344.016 506.653 344.023ZM506.643 343.965C506.642 343.961 506.642 343.958 506.642 343.956C506.642 343.958 506.642 343.961 506.643 343.965ZM506.636 343.929C506.636 343.926 506.635 343.925 506.635 343.922C506.635 343.925 506.636 343.926 506.636 343.929Z" fill="#EF3A1F"/>
<path d="M492.446 404.824C492.444 404.824 492.443 404.824 492.442 404.824L490.687 404.823C489.591 404.821 488.584 404.564 487.716 404.106C486.634 403.534 485.767 402.649 485.209 401.559C484.762 400.687 484.515 399.685 484.513 398.607C484.513 398.31 484.531 398.008 484.569 397.7L484.753 396.204C485.539 396.555 486.423 396.753 487.377 396.753H489.133C489.135 396.753 489.136 396.753 489.137 396.753C492.999 396.753 496.522 393.571 497.006 389.64L503.192 339.447C504.996 340.256 506.272 341.896 506.635 343.922C506.635 343.925 506.636 343.926 506.636 343.929C506.638 343.938 506.639 343.947 506.642 343.956C506.642 343.958 506.642 343.961 506.643 343.965C506.645 343.978 506.647 343.989 506.649 344.002C506.651 344.01 506.652 344.016 506.653 344.023C506.653 344.028 506.654 344.033 506.656 344.039C506.657 344.047 506.657 344.054 506.658 344.063C506.66 344.066 506.661 344.072 506.661 344.077C506.662 344.087 506.665 344.097 506.666 344.108C506.666 344.11 506.666 344.111 506.667 344.114C506.669 344.127 506.671 344.141 506.672 344.154C506.672 344.155 506.672 344.156 506.674 344.158C506.675 344.169 506.676 344.183 506.679 344.195C506.679 344.196 506.679 344.198 506.679 344.199C506.753 344.751 506.762 345.33 506.696 345.925C506.696 345.926 506.696 345.929 506.696 345.93C506.694 345.943 506.693 345.955 506.692 345.968C506.69 345.97 506.69 345.974 506.69 345.977C506.689 345.991 506.687 346.005 506.685 346.019L506.428 348.102L501.571 387.523L500.315 397.71C500.003 400.238 498.433 402.458 496.325 403.719C496.014 403.905 495.69 404.071 495.357 404.214C494.446 404.604 493.466 404.821 492.461 404.824C492.456 404.824 492.451 404.824 492.446 404.824Z" fill="#3E3D41"/>
<path d="M513.614 554.57C512.693 562.107 509.805 567.956 507.163 567.633C504.52 567.31 503.124 560.939 504.045 553.402C504.966 545.864 507.854 540.015 510.496 540.338C513.139 540.661 514.535 547.033 513.614 554.57Z" fill="#FF9120"/>
<path d="M511.11 554.355C510.811 556.804 509.612 558.673 508.432 558.529C507.251 558.385 506.539 556.282 506.837 553.834C507.137 551.384 508.336 549.515 509.515 549.66C510.695 549.804 511.41 551.906 511.11 554.355Z" fill="#542F23"/>
</svg>
