<svg width="189" height="32" viewBox="0 0 189 32" fill="none" xmlns="http://www.w3.org/2000/svg">
<path d="M112.89 11.9545L111.116 11.9491C110.789 11.9481 110.523 12.1778 110.522 12.462C110.521 12.7463 110.785 12.9776 111.111 12.9786L112.886 12.984L112.89 11.9545Z" fill="#57565C"/>
<path d="M112.886 12.984L114.66 12.9895L114.656 14.019L112.882 14.0135L112.886 12.984Z" fill="#FFBF00"/>
<path d="M116.097 23.2905C113.974 23.2839 112.258 21.7803 112.266 19.9322C112.273 18.0841 114.001 16.5913 116.125 16.5979C118.249 16.6045 119.964 18.108 119.957 19.9561C119.947 21.8033 118.22 23.2948 116.097 23.2905ZM116.121 17.6275C114.65 17.6229 113.454 18.6564 113.449 19.9359C113.444 21.2154 114.631 22.2563 116.102 22.2608C117.572 22.2654 118.768 21.2319 118.774 19.9524C118.777 18.6736 117.59 17.6335 116.121 17.6275Z" fill="#57565C"/>
<path d="M104.857 23.2556C102.733 23.249 101.017 21.7454 101.025 19.8973C101.032 18.0492 102.76 16.5564 104.884 16.563C107.008 16.5696 108.723 18.0731 108.716 19.9212C108.706 21.7684 106.979 23.2599 104.857 23.2556ZM104.88 17.5926C103.409 17.588 102.213 18.6215 102.208 19.901C102.203 21.1805 103.39 22.2214 104.861 22.2259C106.331 22.2305 107.527 21.197 107.533 19.9175C107.536 18.6387 106.349 17.5985 104.88 17.5926Z" fill="#57565C"/>
<path d="M104.83 12.9596L106.298 15.5382L103.616 20.1634L110.226 20.1836L112.881 16.5175L115.614 20.2222L116.609 19.6662L113.468 15.4083L113.482 11.9564L112.299 11.9528L112.286 15.0417L107.327 15.0265L106.74 13.9951L104.83 12.9596ZM109.575 19.152L105.535 19.1396L107.323 16.0562L111.809 16.0699L109.575 19.152Z" fill="#E5E5E5"/>
<path d="M104.828 12.9591L107.561 12.9676C107.888 12.9686 108.152 13.1999 108.151 13.4842C108.149 13.7685 107.884 13.9982 107.557 13.9972L105.415 13.9906L104.828 12.9591Z" fill="#FFBF00"/>
<circle cx="107.717" cy="18.4338" r="0.749934" fill="#7B7373"/>
<circle cx="113.216" cy="19.9335" r="0.749934" fill="#7B7373"/>
<circle cx="111.217" cy="15.434" r="0.749934" fill="#7B7373"/>
<path d="M9.282 24.26C6.80333 24.26 4.862 23.662 3.458 22.466C2.07133 21.2527 1.33467 19.502 1.248 17.214C1.23067 16.746 1.222 15.9833 1.222 14.926C1.222 13.8513 1.23067 13.0713 1.248 12.586C1.33467 10.3327 2.08867 8.59933 3.51 7.386C4.93133 6.15533 6.85533 5.54 9.282 5.54C10.8073 5.54 12.1767 5.8 13.39 6.32C14.6033 6.82267 15.5567 7.55067 16.25 8.504C16.9607 9.44 17.3247 10.5407 17.342 11.806V11.858C17.342 11.9967 17.2813 12.118 17.16 12.222C17.056 12.3087 16.9347 12.352 16.796 12.352H13.286C13.0607 12.352 12.8873 12.3087 12.766 12.222C12.6447 12.118 12.5407 11.936 12.454 11.676C12.2113 10.792 11.83 10.1767 11.31 9.83C10.79 9.466 10.1053 9.284 9.256 9.284C7.21067 9.284 6.15333 10.428 6.084 12.716C6.06667 13.184 6.058 13.9033 6.058 14.874C6.058 15.8447 6.06667 16.5813 6.084 17.084C6.15333 19.372 7.21067 20.516 9.256 20.516C10.1053 20.516 10.7987 20.334 11.336 19.97C11.8733 19.5887 12.246 18.9733 12.454 18.124C12.5233 17.864 12.6187 17.6907 12.74 17.604C12.8613 17.5 13.0433 17.448 13.286 17.448H16.796C16.952 17.448 17.082 17.5 17.186 17.604C17.3073 17.708 17.3593 17.838 17.342 17.994C17.3247 19.2593 16.9607 20.3687 16.25 21.322C15.5567 22.258 14.6033 22.986 13.39 23.506C12.1767 24.0087 10.8073 24.26 9.282 24.26ZM22.3119 28.94C22.1559 28.94 22.0259 28.888 21.9219 28.784C21.8179 28.68 21.7659 28.55 21.7659 28.394C21.7659 28.2727 21.7919 28.16 21.8439 28.056L23.8719 23.168L18.8799 11.364C18.8279 11.2253 18.8019 11.1213 18.8019 11.052C18.8365 10.896 18.9059 10.766 19.0099 10.662C19.1139 10.5407 19.2439 10.48 19.3999 10.48H22.3639C22.7279 10.48 22.9792 10.662 23.1179 11.026L26.0819 18.592L29.1239 11.026C29.2972 10.662 29.5572 10.48 29.9039 10.48H32.8159C32.9719 10.48 33.1019 10.5407 33.2059 10.662C33.3272 10.766 33.3879 10.8873 33.3879 11.026C33.3879 11.0953 33.3619 11.208 33.3099 11.364L25.9519 28.394C25.8132 28.758 25.5532 28.94 25.1719 28.94H22.3119ZM41.0097 24.26C39.0511 24.26 37.4651 23.74 36.2517 22.7C35.0384 21.6427 34.3884 20.178 34.3017 18.306L34.2757 17.266L34.3017 16.2C34.3711 14.328 35.0124 12.8633 36.2257 11.806C37.4564 10.7487 39.0511 10.22 41.0097 10.22C42.4831 10.22 43.7224 10.4887 44.7277 11.026C45.7504 11.546 46.5044 12.1787 46.9897 12.924C47.4924 13.652 47.7611 14.3193 47.7957 14.926C47.8131 15.0993 47.7524 15.2553 47.6137 15.394C47.4924 15.5153 47.3364 15.576 47.1457 15.576H43.8437C43.6531 15.576 43.5057 15.5327 43.4017 15.446C43.2977 15.3593 43.2024 15.2293 43.1157 15.056C42.9077 14.5187 42.6391 14.1373 42.3097 13.912C41.9977 13.6867 41.5904 13.574 41.0877 13.574C39.6664 13.574 38.9297 14.4927 38.8777 16.33L38.8517 17.318L38.8777 18.176C38.9124 19.112 39.1117 19.8053 39.4757 20.256C39.8571 20.6893 40.3944 20.906 41.0877 20.906C41.6251 20.906 42.0497 20.7933 42.3617 20.568C42.6737 20.3427 42.9251 19.9613 43.1157 19.424C43.2024 19.2507 43.2977 19.1207 43.4017 19.034C43.5057 18.9473 43.6531 18.904 43.8437 18.904H47.1457C47.3191 18.904 47.4664 18.9647 47.5877 19.086C47.7264 19.19 47.7957 19.3287 47.7957 19.502C47.7957 20.0567 47.5531 20.7067 47.0677 21.452C46.5997 22.1973 45.8544 22.856 44.8317 23.428C43.8091 23.9827 42.5351 24.26 41.0097 24.26ZM50.7817 24C50.6083 24 50.4523 23.9393 50.3137 23.818C50.1923 23.6793 50.1317 23.5233 50.1317 23.35V6.19C50.1317 5.99933 50.1923 5.84333 50.3137 5.722C50.4523 5.60067 50.6083 5.54 50.7817 5.54H53.8497C54.0403 5.54 54.1963 5.60067 54.3177 5.722C54.439 5.84333 54.4997 5.99933 54.4997 6.19V23.35C54.4997 23.5407 54.439 23.6967 54.3177 23.818C54.1963 23.9393 54.0403 24 53.8497 24H50.7817ZM58.1951 8.53C58.0044 8.53 57.8484 8.46933 57.7271 8.348C57.6058 8.22667 57.5451 8.07067 57.5451 7.88V5.54C57.5451 5.34933 57.6058 5.19333 57.7271 5.072C57.8484 4.95067 58.0044 4.89 58.1951 4.89H61.3151C61.5058 4.89 61.6618 4.95067 61.7831 5.072C61.9044 5.19333 61.9651 5.34933 61.9651 5.54V7.88C61.9651 8.07067 61.9044 8.22667 61.7831 8.348C61.6618 8.46933 61.5058 8.53 61.3151 8.53H58.1951ZM58.2211 24C58.0304 24 57.8744 23.9393 57.7531 23.818C57.6318 23.6967 57.5711 23.5407 57.5711 23.35V11.13C57.5711 10.9393 57.6318 10.7833 57.7531 10.662C57.8744 10.5407 58.0304 10.48 58.2211 10.48H61.2891C61.4798 10.48 61.6358 10.5407 61.7571 10.662C61.8784 10.7833 61.9391 10.9393 61.9391 11.13V23.35C61.9391 23.5233 61.8784 23.6793 61.7571 23.818C61.6358 23.9393 61.4798 24 61.2891 24H58.2211ZM65.6606 24C65.4699 24 65.3139 23.9393 65.1926 23.818C65.0712 23.6967 65.0106 23.5407 65.0106 23.35V11.13C65.0106 10.9393 65.0712 10.7833 65.1926 10.662C65.3139 10.5407 65.4699 10.48 65.6606 10.48H68.6506C68.8412 10.48 68.9972 10.5407 69.1186 10.662C69.2572 10.7833 69.3266 10.9393 69.3266 11.13V12.118C69.7946 11.546 70.3926 11.0867 71.1206 10.74C71.8659 10.3933 72.7066 10.22 73.6426 10.22C75.1679 10.22 76.4072 10.74 77.3606 11.78C78.3139 12.8027 78.7906 14.2413 78.7906 16.096V23.35C78.7906 23.5233 78.7299 23.6793 78.6086 23.818C78.4872 23.9393 78.3312 24 78.1406 24H74.8646C74.6912 24 74.5352 23.9393 74.3966 23.818C74.2752 23.6793 74.2146 23.5233 74.2146 23.35V16.252C74.2146 15.4373 74.0152 14.8133 73.6166 14.38C73.2179 13.9293 72.6459 13.704 71.9006 13.704C71.1726 13.704 70.6006 13.9293 70.1846 14.38C69.7686 14.8133 69.5606 15.4373 69.5606 16.252V23.35C69.5606 23.5233 69.4999 23.6793 69.3786 23.818C69.2572 23.9393 69.1012 24 68.9106 24H65.6606ZM88.3476 29.72C86.7009 29.72 85.3663 29.4513 84.3436 28.914C83.3209 28.3767 82.5843 27.7613 82.1336 27.068C81.7003 26.3747 81.4836 25.794 81.4836 25.326C81.4836 25.17 81.5529 25.0313 81.6916 24.91C81.8303 24.7887 81.9863 24.728 82.1596 24.728H85.4616C85.6349 24.728 85.7649 24.7627 85.8516 24.832C85.9556 24.9187 86.0509 25.0573 86.1376 25.248C86.3109 25.6467 86.5449 25.9587 86.8396 26.184C87.1343 26.4267 87.5936 26.548 88.2176 26.548C89.0149 26.548 89.6043 26.3487 89.9856 25.95C90.3669 25.5687 90.5576 24.9187 90.5576 24V22.258C89.6736 23.2287 88.4083 23.714 86.7616 23.714C85.0109 23.714 83.6676 23.2027 82.7316 22.18C81.8129 21.14 81.3103 19.6407 81.2236 17.682L81.1976 16.98C81.1976 14.8827 81.6656 13.236 82.6016 12.04C83.5376 10.8267 84.9243 10.22 86.7616 10.22C87.6456 10.22 88.4256 10.3933 89.1016 10.74C89.7776 11.0693 90.3496 11.52 90.8176 12.092V11.13C90.8176 10.9393 90.8783 10.7833 90.9996 10.662C91.1383 10.5407 91.2943 10.48 91.4676 10.48H94.4576C94.6483 10.48 94.8043 10.5493 94.9256 10.688C95.0643 10.8093 95.1336 10.9567 95.1336 11.13V23.636C95.1336 25.612 94.5443 27.12 93.3656 28.16C92.1869 29.2 90.5143 29.72 88.3476 29.72ZM88.1656 20.334C88.9456 20.334 89.5263 20.1 89.9076 19.632C90.2889 19.1467 90.5056 18.54 90.5576 17.812C90.5749 17.6907 90.5836 17.422 90.5836 17.006C90.5836 16.6073 90.5749 16.3473 90.5576 16.226C90.5229 15.498 90.3063 14.9 89.9076 14.432C89.5263 13.9467 88.9456 13.704 88.1656 13.704C87.3509 13.704 86.7616 13.9467 86.3976 14.432C86.0336 14.9173 85.8343 15.5847 85.7996 16.434L85.7736 17.006C85.7736 18.0287 85.9469 18.8433 86.2936 19.45C86.6403 20.0393 87.2643 20.334 88.1656 20.334ZM126.808 24C126.635 24 126.479 23.9393 126.34 23.818C126.219 23.6793 126.158 23.5233 126.158 23.35V6.45C126.158 6.25933 126.219 6.10333 126.34 5.982C126.479 5.86067 126.635 5.8 126.808 5.8H138.768C138.959 5.8 139.115 5.86067 139.236 5.982C139.357 6.10333 139.418 6.25933 139.418 6.45V9.076C139.418 9.24933 139.357 9.40533 139.236 9.544C139.115 9.66533 138.959 9.726 138.768 9.726H130.734V13.548H138.248C138.439 13.548 138.595 13.6173 138.716 13.756C138.837 13.8773 138.898 14.0333 138.898 14.224V16.824C138.898 16.9973 138.837 17.1533 138.716 17.292C138.595 17.4133 138.439 17.474 138.248 17.474H130.734V23.35C130.734 23.5407 130.673 23.6967 130.552 23.818C130.431 23.9393 130.275 24 130.084 24H126.808ZM142.568 8.53C142.377 8.53 142.221 8.46933 142.1 8.348C141.979 8.22667 141.918 8.07067 141.918 7.88V5.54C141.918 5.34933 141.979 5.19333 142.1 5.072C142.221 4.95067 142.377 4.89 142.568 4.89H145.688C145.879 4.89 146.035 4.95067 146.156 5.072C146.277 5.19333 146.338 5.34933 146.338 5.54V7.88C146.338 8.07067 146.277 8.22667 146.156 8.348C146.035 8.46933 145.879 8.53 145.688 8.53H142.568ZM142.594 24C142.403 24 142.247 23.9393 142.126 23.818C142.005 23.6967 141.944 23.5407 141.944 23.35V11.13C141.944 10.9393 142.005 10.7833 142.126 10.662C142.247 10.5407 142.403 10.48 142.594 10.48H145.662C145.853 10.48 146.009 10.5407 146.13 10.662C146.251 10.7833 146.312 10.9393 146.312 11.13V23.35C146.312 23.5233 146.251 23.6793 146.13 23.818C146.009 23.9393 145.853 24 145.662 24H142.594ZM149.488 24C149.314 24 149.158 23.9393 149.02 23.818C148.898 23.6793 148.838 23.5233 148.838 23.35V21.322C148.838 21.01 148.976 20.7153 149.254 20.438L155.338 13.834H149.722C149.531 13.834 149.366 13.7733 149.228 13.652C149.106 13.5307 149.046 13.3747 149.046 13.184V11.13C149.046 10.9393 149.106 10.7833 149.228 10.662C149.366 10.5407 149.531 10.48 149.722 10.48H160.174C160.364 10.48 160.52 10.5407 160.642 10.662C160.763 10.7833 160.824 10.9393 160.824 11.13V13.34C160.824 13.5827 160.702 13.8427 160.46 14.12L154.532 20.646H160.694C160.884 20.646 161.04 20.7067 161.162 20.828C161.3 20.9493 161.37 21.1053 161.37 21.296V23.35C161.37 23.5407 161.3 23.6967 161.162 23.818C161.04 23.9393 160.884 24 160.694 24H149.488ZM163.859 24C163.685 24 163.529 23.9393 163.391 23.818C163.269 23.6793 163.209 23.5233 163.209 23.35V21.322C163.209 21.01 163.347 20.7153 163.625 20.438L169.709 13.834H164.093C163.902 13.834 163.737 13.7733 163.599 13.652C163.477 13.5307 163.417 13.3747 163.417 13.184V11.13C163.417 10.9393 163.477 10.7833 163.599 10.662C163.737 10.5407 163.902 10.48 164.093 10.48H174.545C174.735 10.48 174.891 10.5407 175.013 10.662C175.134 10.7833 175.195 10.9393 175.195 11.13V13.34C175.195 13.5827 175.073 13.8427 174.831 14.12L168.903 20.646H175.065C175.255 20.646 175.411 20.7067 175.533 20.828C175.671 20.9493 175.741 21.1053 175.741 21.296V23.35C175.741 23.5407 175.671 23.6967 175.533 23.818C175.411 23.9393 175.255 24 175.065 24H163.859Z" fill="#57565C"/>
</svg>
