<svg width="206" height="34" viewBox="0 0 206 34" fill="none" xmlns="http://www.w3.org/2000/svg">
<path d="M11.495 26.35C8.15832 26.35 5.54499 25.545 3.65499 23.935C1.78832 22.3017 0.796656 19.945 0.679989 16.865C0.656656 16.235 0.644989 15.2083 0.644989 13.785C0.644989 12.3383 0.656656 11.2883 0.679989 10.635C0.796656 7.6017 1.81166 5.26836 3.72499 3.63503C5.63832 1.97836 8.22832 1.15003 11.495 1.15003C13.5483 1.15003 15.3917 1.50003 17.025 2.20003C18.6583 2.8767 19.9417 3.8567 20.875 5.14003C21.8317 6.40003 22.3217 7.8817 22.345 9.58503V9.65503C22.345 9.8417 22.2633 10.005 22.1 10.145C21.96 10.2617 21.7967 10.32 21.61 10.32H16.885C16.5817 10.32 16.3483 10.2617 16.185 10.145C16.0217 10.005 15.8817 9.76003 15.765 9.41003C15.4383 8.22003 14.925 7.3917 14.225 6.92503C13.525 6.43503 12.6033 6.19003 11.46 6.19003C8.70666 6.19003 7.28332 7.73003 7.18999 10.81C7.16666 11.44 7.15499 12.4083 7.15499 13.715C7.15499 15.0217 7.16666 16.0133 7.18999 16.69C7.28332 19.77 8.70666 21.31 11.46 21.31C12.6033 21.31 13.5367 21.065 14.26 20.575C14.9833 20.0617 15.485 19.2333 15.765 18.09C15.8583 17.74 15.9867 17.5067 16.15 17.39C16.3133 17.25 16.5583 17.18 16.885 17.18H21.61C21.82 17.18 21.995 17.25 22.135 17.39C22.2983 17.53 22.3683 17.705 22.345 17.915C22.3217 19.6183 21.8317 21.1117 20.875 22.395C19.9417 23.655 18.6583 24.635 17.025 25.335C15.3917 26.0117 13.5483 26.35 11.495 26.35ZM29.0352 32.65C28.8252 32.65 28.6502 32.58 28.5102 32.44C28.3702 32.3 28.3002 32.125 28.3002 31.915C28.3002 31.7517 28.3352 31.6 28.4052 31.46L31.1352 24.88L24.4152 8.99003C24.3452 8.80336 24.3102 8.66336 24.3102 8.57003C24.3569 8.36003 24.4502 8.18503 24.5902 8.04503C24.7302 7.8817 24.9052 7.80003 25.1152 7.80003H29.1052C29.5952 7.80003 29.9335 8.04503 30.1202 8.53503L34.1102 18.72L38.2052 8.53503C38.4385 8.04503 38.7885 7.80003 39.2552 7.80003H43.1752C43.3852 7.80003 43.5602 7.8817 43.7002 8.04503C43.8635 8.18503 43.9452 8.34836 43.9452 8.53503C43.9452 8.62836 43.9102 8.78003 43.8402 8.99003L33.9352 31.915C33.7485 32.405 33.3985 32.65 32.8852 32.65H29.0352ZM54.2054 26.35C51.5687 26.35 49.4337 25.65 47.8004 24.25C46.1671 22.8267 45.2921 20.855 45.1754 18.335L45.1404 16.935L45.1754 15.5C45.2687 12.98 46.1321 11.0083 47.7654 9.58503C49.4221 8.1617 51.5687 7.45003 54.2054 7.45003C56.1887 7.45003 57.8571 7.8117 59.2104 8.53503C60.5871 9.23503 61.6021 10.0867 62.2554 11.09C62.9321 12.07 63.2937 12.9683 63.3404 13.785C63.3637 14.0183 63.2821 14.2283 63.0954 14.415C62.9321 14.5783 62.7221 14.66 62.4654 14.66H58.0204C57.7637 14.66 57.5654 14.6017 57.4254 14.485C57.2854 14.3683 57.1571 14.1933 57.0404 13.96C56.7604 13.2367 56.3987 12.7233 55.9554 12.42C55.5354 12.1167 54.9871 11.965 54.3104 11.965C52.3971 11.965 51.4054 13.2017 51.3354 15.675L51.3004 17.005L51.3354 18.16C51.3821 19.42 51.6504 20.3533 52.1404 20.96C52.6537 21.5433 53.3771 21.835 54.3104 21.835C55.0337 21.835 55.6054 21.6833 56.0254 21.38C56.4454 21.0767 56.7837 20.5633 57.0404 19.84C57.1571 19.6067 57.2854 19.4317 57.4254 19.315C57.5654 19.1983 57.7637 19.14 58.0204 19.14H62.4654C62.6987 19.14 62.8971 19.2217 63.0604 19.385C63.2471 19.525 63.3404 19.7117 63.3404 19.945C63.3404 20.6917 63.0137 21.5667 62.3604 22.57C61.7304 23.5733 60.7271 24.46 59.3504 25.23C57.9737 25.9767 56.2587 26.35 54.2054 26.35ZM67.3599 26C67.1266 26 66.9166 25.9183 66.7299 25.755C66.5666 25.5683 66.4849 25.3583 66.4849 25.125V2.02503C66.4849 1.76836 66.5666 1.55836 66.7299 1.39503C66.9166 1.2317 67.1266 1.15003 67.3599 1.15003H71.4899C71.7466 1.15003 71.9566 1.2317 72.1199 1.39503C72.2833 1.55836 72.3649 1.76836 72.3649 2.02503V25.125C72.3649 25.3817 72.2833 25.5917 72.1199 25.755C71.9566 25.9183 71.7466 26 71.4899 26H67.3599ZM77.3396 5.17503C77.0829 5.17503 76.8729 5.09336 76.7096 4.93003C76.5462 4.7667 76.4646 4.5567 76.4646 4.30003V1.15003C76.4646 0.893358 76.5462 0.683357 76.7096 0.520023C76.8729 0.356691 77.0829 0.275024 77.3396 0.275024H81.5396C81.7962 0.275024 82.0062 0.356691 82.1696 0.520023C82.3329 0.683357 82.4146 0.893358 82.4146 1.15003V4.30003C82.4146 4.5567 82.3329 4.7667 82.1696 4.93003C82.0062 5.09336 81.7962 5.17503 81.5396 5.17503H77.3396ZM77.3746 26C77.1179 26 76.9079 25.9183 76.7446 25.755C76.5812 25.5917 76.4996 25.3817 76.4996 25.125V8.67503C76.4996 8.41836 76.5812 8.20836 76.7446 8.04503C76.9079 7.8817 77.1179 7.80003 77.3746 7.80003H81.5046C81.7612 7.80003 81.9712 7.8817 82.1346 8.04503C82.2979 8.20836 82.3796 8.41836 82.3796 8.67503V25.125C82.3796 25.3583 82.2979 25.5683 82.1346 25.755C81.9712 25.9183 81.7612 26 81.5046 26H77.3746ZM87.3892 26C87.1326 26 86.9226 25.9183 86.7592 25.755C86.5959 25.5917 86.5142 25.3817 86.5142 25.125V8.67503C86.5142 8.41836 86.5959 8.20836 86.7592 8.04503C86.9226 7.8817 87.1326 7.80003 87.3892 7.80003H91.4142C91.6709 7.80003 91.8809 7.8817 92.0442 8.04503C92.2309 8.20836 92.3242 8.41836 92.3242 8.67503V10.005C92.9542 9.23503 93.7592 8.61669 94.7392 8.15002C95.7426 7.68335 96.8742 7.45003 98.1342 7.45003C100.188 7.45003 101.856 8.15003 103.139 9.55003C104.423 10.9267 105.064 12.8633 105.064 15.36V25.125C105.064 25.3583 104.983 25.5683 104.819 25.755C104.656 25.9183 104.446 26 104.189 26H99.7792C99.5459 26 99.3359 25.9183 99.1492 25.755C98.9859 25.5683 98.9042 25.3583 98.9042 25.125V15.57C98.9042 14.4733 98.6359 13.6333 98.0992 13.05C97.5626 12.4433 96.7926 12.14 95.7892 12.14C94.8092 12.14 94.0392 12.4433 93.4792 13.05C92.9192 13.6333 92.6392 14.4733 92.6392 15.57V25.125C92.6392 25.3583 92.5576 25.5683 92.3942 25.755C92.2309 25.9183 92.0209 26 91.7642 26H87.3892ZM117.929 33.7C115.713 33.7 113.916 33.3383 112.539 32.615C111.163 31.8917 110.171 31.0633 109.564 30.13C108.981 29.1967 108.689 28.415 108.689 27.785C108.689 27.575 108.783 27.3883 108.969 27.225C109.156 27.0617 109.366 26.98 109.599 26.98H114.044C114.278 26.98 114.453 27.0267 114.569 27.12C114.709 27.2367 114.838 27.4233 114.954 27.68C115.188 28.2167 115.503 28.6367 115.899 28.94C116.296 29.2667 116.914 29.43 117.754 29.43C118.828 29.43 119.621 29.1617 120.134 28.625C120.648 28.1117 120.904 27.2367 120.904 26V23.655C119.714 24.9617 118.011 25.615 115.794 25.615C113.438 25.615 111.629 24.9267 110.369 23.55C109.133 22.15 108.456 20.1317 108.339 17.495L108.304 16.55C108.304 13.7267 108.934 11.51 110.194 9.90003C111.454 8.2667 113.321 7.45003 115.794 7.45003C116.984 7.45003 118.034 7.68335 118.944 8.15002C119.854 8.59335 120.624 9.20003 121.254 9.97003V8.67503C121.254 8.41836 121.336 8.20836 121.499 8.04503C121.686 7.8817 121.896 7.80003 122.129 7.80003H126.154C126.411 7.80003 126.621 7.89336 126.784 8.08003C126.971 8.24336 127.064 8.4417 127.064 8.67503V25.51C127.064 28.17 126.271 30.2 124.684 31.6C123.098 33 120.846 33.7 117.929 33.7ZM117.684 21.065C118.734 21.065 119.516 20.75 120.029 20.12C120.543 19.4667 120.834 18.65 120.904 17.67C120.928 17.5067 120.939 17.145 120.939 16.585C120.939 16.0483 120.928 15.6983 120.904 15.535C120.858 14.555 120.566 13.75 120.029 13.12C119.516 12.4667 118.734 12.14 117.684 12.14C116.588 12.14 115.794 12.4667 115.304 13.12C114.814 13.7733 114.546 14.6717 114.499 15.815L114.464 16.585C114.464 17.9617 114.698 19.0583 115.164 19.875C115.631 20.6683 116.471 21.065 117.684 21.065ZM139.898 26C139.665 26 139.455 25.9183 139.268 25.755C139.105 25.5683 139.023 25.3583 139.023 25.125V2.37503C139.023 2.11836 139.105 1.90836 139.268 1.74503C139.455 1.5817 139.665 1.50003 139.898 1.50003H155.998C156.255 1.50003 156.465 1.5817 156.628 1.74503C156.792 1.90836 156.873 2.11836 156.873 2.37503V5.91003C156.873 6.14336 156.792 6.35336 156.628 6.54003C156.465 6.70336 156.255 6.78503 155.998 6.78503H145.183V11.93H155.298C155.555 11.93 155.765 12.0233 155.928 12.21C156.092 12.3733 156.173 12.5833 156.173 12.84V16.34C156.173 16.5733 156.092 16.7833 155.928 16.97C155.765 17.1333 155.555 17.215 155.298 17.215H145.183V25.125C145.183 25.3817 145.102 25.5917 144.938 25.755C144.775 25.9183 144.565 26 144.308 26H139.898ZM161.114 5.17503C160.857 5.17503 160.647 5.09336 160.484 4.93003C160.321 4.7667 160.239 4.5567 160.239 4.30003V1.15003C160.239 0.893358 160.321 0.683357 160.484 0.520023C160.647 0.356691 160.857 0.275024 161.114 0.275024H165.314C165.571 0.275024 165.781 0.356691 165.944 0.520023C166.107 0.683357 166.189 0.893358 166.189 1.15003V4.30003C166.189 4.5567 166.107 4.7667 165.944 4.93003C165.781 5.09336 165.571 5.17503 165.314 5.17503H161.114ZM161.149 26C160.892 26 160.682 25.9183 160.519 25.755C160.356 25.5917 160.274 25.3817 160.274 25.125V8.67503C160.274 8.41836 160.356 8.20836 160.519 8.04503C160.682 7.8817 160.892 7.80003 161.149 7.80003H165.279C165.536 7.80003 165.746 7.8817 165.909 8.04503C166.072 8.20836 166.154 8.41836 166.154 8.67503V25.125C166.154 25.3583 166.072 25.5683 165.909 25.755C165.746 25.9183 165.536 26 165.279 26H161.149ZM170.429 26C170.195 26 169.985 25.9183 169.799 25.755C169.635 25.5683 169.554 25.3583 169.554 25.125V22.395C169.554 21.975 169.74 21.5783 170.114 21.205L178.304 12.315H170.744C170.487 12.315 170.265 12.2333 170.079 12.07C169.915 11.9067 169.834 11.6967 169.834 11.44V8.67503C169.834 8.41836 169.915 8.20836 170.079 8.04503C170.265 7.8817 170.487 7.80003 170.744 7.80003H184.814C185.07 7.80003 185.28 7.8817 185.444 8.04503C185.607 8.20836 185.689 8.41836 185.689 8.67503V11.65C185.689 11.9767 185.525 12.3267 185.199 12.7L177.219 21.485H185.514C185.77 21.485 185.98 21.5667 186.144 21.73C186.33 21.8933 186.424 22.1033 186.424 22.36V25.125C186.424 25.3817 186.33 25.5917 186.144 25.755C185.98 25.9183 185.77 26 185.514 26H170.429ZM189.774 26C189.541 26 189.331 25.9183 189.144 25.755C188.981 25.5683 188.899 25.3583 188.899 25.125V22.395C188.899 21.975 189.086 21.5783 189.459 21.205L197.649 12.315H190.089C189.833 12.315 189.611 12.2333 189.424 12.07C189.261 11.9067 189.179 11.6967 189.179 11.44V8.67503C189.179 8.41836 189.261 8.20836 189.424 8.04503C189.611 7.8817 189.833 7.80003 190.089 7.80003H204.159C204.416 7.80003 204.626 7.8817 204.789 8.04503C204.953 8.20836 205.034 8.41836 205.034 8.67503V11.65C205.034 11.9767 204.871 12.3267 204.544 12.7L196.564 21.485H204.859C205.116 21.485 205.326 21.5667 205.489 21.73C205.676 21.8933 205.769 22.1033 205.769 22.36V25.125C205.769 25.3817 205.676 25.5917 205.489 25.755C205.326 25.9183 205.116 26 204.859 26H189.774Z" fill="url(#paint0_linear)"/>
<defs>
<linearGradient id="paint0_linear" x1="102.941" y1="10.1381" x2="102.941" y2="39.4535" gradientUnits="userSpaceOnUse">
<stop offset="0.270833" stop-color="#FF923C"/>
<stop offset="1" stop-color="#FFC340"/>
</linearGradient>
</defs>
</svg>
